<svg xmlns:rdf="http://www.w3.org/1999/02/22-rdf-syntax-ns#" xmlns="http://www.w3.org/2000/svg" viewBox="0 0 2700 1038" version="1.1" xmlns:cc="http://creativecommons.org/ns#" xmlns:dc="http://purl.org/dc/elements/1.1/">
<path id="path7239" fill="#00539f" d="m294.7 333.1c-76.12-1.368-151.6 36.69-194.3 99.95-9.131 16.41-30.9 42.92-25.63 56.86 43.23 0.9079 86.47 0.1828 129.7 0.2224 13.84-25.54 36.89-50.14 67.89-51.11 25.78-4.293 52.12 10.63 60.45 35.63 6.92 12.7 4.842 38.83 24.85 24.25 34.81-12.31 69.74-24.37 104.3-37.26-1.406-23.97-12.98-48.04-25.15-68.97-25.53-41.67-76.18-57.06-122.4-59.06-6.556-0.3917-13.12-0.5635-19.69-0.5188zm404.2 0.0488c-66.7-0.2883-139.9 22.37-178.2 80.66-14.79 22.47-22.72 49.34-22.86 76.2 52.94 0.8711 105.9 0.6774 158.9 0.4062-23.93-1.938-43.2-32.03-16.25-46.32 31.53-12.8 67.52-6.298 99.12 3.193 21.48 6.552 40.33 19 59.5 30.15 25.3-31.1 50.2-62.5 74.9-94.1-49.9-37.8-113.4-51-175.1-50.3zm333.1 6.9c-23.15 49.81-47.27 99.18-70.29 149 68.92 2.058 137.9 0.7214 206.9 1.717-7.394-50.39-17.64-100.5-26.29-150.8h-110.3zm-975.8 199c-13.09 63.05-9.986 135.9 32.65 187.6 37.75 45.51 100.2 59.24 156.9 55 66.85-1.815 131.1-35.81 171.5-88.85 12.93-13.22 23.69-28.28-1.871-33.43-26.69-14.38-53.03-29.45-79.99-43.28-21.33 26.08-44.53 58.42-81.39 60.53-25.84 4.034-53.95-8.949-63.25-34.38-12.19-32.5-8.614-68.7-2.233-102-40.7-2.5-81.7-0.7-122.4-1.2h-10.05zm597.7 0c-48.95 0.1439-97.91-0.1879-146.8 0.75 19.84 38.28 64.54 52.45 103.5 63.16 31.51 9.665 65.96 12.62 94.57 29.97 19.67 14.53 0.2954 44.03-20.85 42.94-56.67 10.09-114.4-10.36-161.6-40.73-24.88 31.41-50.37 62.48-74.55 94.34 46.98 33.08 105 48.06 161.8 52.4 59.55 2.755 123.4-4.023 173.3-39.59 44.76-32.52 65.7-90.98 58.13-144.9-4.422-24.17-20.77-46.56-41.84-58.35h-145.6zm284 0c-36.9 79.1-74.8 157.7-111.9 236.7 38.89 0.548 77.79 0.2385 116.7 0.3203 10.93-25.21 21.15-50.75 32.53-75.75 39.1-2.417 78.45-0.7896 117.7-1.25 3.458 25.51 6.812 51.03 10.12 76.56 39.34 0.7444 78.69 0.3248 118 0.4356-14.66-78.67-28.15-157.6-42.7-236.2-34.76-1.275-69.56-0.5634-104.3-0.75 1.185 21.39 4.858 42.61 6 64-21.33-0.0853-42.67 0.2368-64-0.334 8.221-21.18 17.73-41.83 26-62.99-35-1.3-69.4-0.6-104.1-0.8z"/>
<path id="path7182" fill="#ea8300" d="m1206 266.5c1.419-17.16 5.017-34.16 7.28-51.26 7.815-49.92 15.11-99.92 23.35-149.8 6.895-6.721 17.37-9.475 26.23-13.1-4.327 37.76-11 75.24-16.59 112.8-5.162 33.76-10.41 67.51-15.66 101.3-8.197 0.0622-16.45 0.7438-24.62 0.0333zm518.3-18.44c12.55-4.03 24.9-10.84 33.38-21.06 3.876-20.42 6.68-41.15 9.889-61.73 2.412-9.094 2.3-19.39-6.793-24.76-11.26-9.928-26.56-14.5-41.43-12.4-20.7 1.693-34.67 20.34-40.84 38.69-6.846 18.84-8.887 39.62-5.062 59.31 3.528 13.64 16.4 24.16 30.67 23.76 6.756 0.286 13.63-0.0475 20.19-1.807zm-38 20.5c-18.57-2.712-33.7-17.71-37.91-35.8-2.585-12.1-1.346-24.69-1.031-36.97 2.376-25.29 12.88-50.28 30.97-68.31 22.58-20.83 60.62-26.6 85.9-7.298 4.315 3.34 11.86 12.74 10.58 1.129 2.552-18.15 5.15-36.3 8.292-54.35 4.662-8.299 16.41-9.452 24.35-13.99 5.602-1.032-0.5153 11.86 0.2394 16.24-9.6 62.66-19.24 125.3-28.9 188 1.374 11.39-9.938 10.17-17.86 9.796-2.532-0.8176-9.022 1.808-8.519-1.651-0.1655-5.055 6.361-20.71-3.118-13.13-17.92 13.13-40.79 20.6-62.99 16.39zm-178.3-0.0469c-17.53-2.329-33.56-15.51-36.62-33.36-3.528-23.45 3.157-46.78 6.076-69.95 2.644-17.25 5.163-34.55 8.207-51.73 6.01-3.485 18-1.706 24.53-0.3189-2.726 26.93-8.325 53.52-11.82 80.36-2.007 13.69-4.101 28.51 1.267 41.68 4.718 9.621 15.25 14.83 25.75 14.51 14.78 1.518 30.66-2.261 40.86-13.69 15.55-15.65 16.34-38.77 19.67-59.23 3.141-21.41 6.86-42.79 9.741-64.2 7.691-0.9931 18.72-1.951 25.41 0.6071-8.263 51.22-15.63 102.6-23.92 153.8-8.133-0.1869-16.27-0.3738-24.4-0.5607-0.5393-5.426 3.439-13.44 0.5137-16.79-14.24 13.75-34.35 20.89-54.08 19.81-3.742-0.0836-7.493-0.3208-11.19-0.9604zm-137-22c24.33-9.691 36.98-35.72 39.86-60.44 2.301-17.05 1.392-37.85-13.28-49.4-16.37-12.8-40.51-11.18-57.93-1.391-16.2 9.12-24.68 27.08-29.38 44.31-4.287 19.31-5.579 42.48 8.173 58.46 8.791 10.49 23.07 12.44 35.9 11.39 5.661-0.1309 11.44-0.4887 16.66-2.93zm-37.5 22.25c-21.63-2.586-42.07-17.23-48.31-38.63-6.355-20.81-3.495-43.6 3.61-63.84 11.48-31.1 41.02-55.62 74.67-57.43 17.73-1.443 36.77 0.5003 51.3 11.71 19.42 13.56 24.17 39.32 21.72 61.49-2.73 33.9-23.03 67.63-55.4 80.53-14.94 6.195-31.55 8.458-47.58 6.174zm-243.3 0.0206c-23.02-3.289-44.22-20.73-48.56-44.11-5.865-25.06 0.5358-51.83 12.94-73.92 14.44-25.51 42.77-41.77 71.97-42.3 19.18-0.78 39.37 4.136 54.03 17.02-2.32 6.797-10.55 11.54-15.77 17.02-5.14-1.221-10.63-9.135-17.16-10.54-21.37-9.724-48.19-3.224-63.05 14.83-17.06 20.05-21.96 48.61-16.99 73.99 3.406 15.53 17.25 28.93 33.68 28.74 12.7 1.324 25.62-1.088 36.53-7.894 4.314-0.9456 8.95-7.753 12.75-6.883 3.846 4.459 8.013 8.674 11.43 13.47-19.58 16.52-46.44 23.89-71.8 20.57zm1228 147.7c-9.55-3.816-10.8-16.79-3.219-23.2 7.118-7.659 22.49-9.517 28.84-0.0505 5.88 9.515-2.218 21.04-11.94 23.56-4.407 1.454-9.377 1.573-13.68-0.3032zm-34 184.1c7.701-50.98 15.68-101.9 23.62-152.9 6.847-2.473 19.92-3.367 25.27 0.5772-8.703 50.78-15.31 101.9-24.09 152.7-8.261-0.1007-16.56 0.276-24.79-0.3882zm-136.6-4.83c7.425-48.93 15.09-97.84 22.7-146.7 4.976-6.155 17.35-1.86 25.05-2.553 0.4928 5.499-5.693 23.23 4.073 12.03 12.62-11.27 29.71-16.61 46.51-15.34 6.696 0.9727 25.25-1.518 17.85 9.984-2.952 6.873-4.999 20.98-14.95 12.44-18.67-6.417-42.01-0.9098-52.69 16.58-9.92 14.92-10.51 33.59-13.78 50.69-3.366 22.57-6.588 45.17-10.67 67.63-8.253 0.1879-16.51 0.3758-24.76 0.5637l0.6651-5.282zm247.1 7.551c-11.8-2.322-19.42-14.75-17.23-26.39 3.825-37.31 11.35-74.15 15.95-111.4-3.581-3.168-11.57-1.005-17.08-1.58-7.802 2.063-1.753-7.297-2.42-11.49-0.1727-13.77 20.89-0.259 23.44-10.49 2.758-14.18 3.999-28.66 6.783-42.8 8.444-5.114 17.49-9.493 26.77-12.84-2.244 19.72-6.183 39.24-8.714 58.94 14.18 1.619 28.65-0.4275 42.76 1.601 0.097 5.575-1.416 11.41-2.105 17.08h-43.5c-5.573 33.54-10.29 67.23-15.74 100.8-1.528 6.666-0.099 15.14 5.978 18.7 10.54-0.1471 21.34 0.653 31.48-2.865 4.287 1.421-0.7176 10.66-0.9666 15.57-0.4881 4.756-7.851 3.528-11.1 5.527-11.15 2.618-22.96 2.504-34.31 1.605zm-391.5 0.0372c-16.63-2.869-33.39-14.12-36.66-31.62-4.018-18.45 0.6714-37.34 2.83-55.73 3.722-23.33 7.34-46.67 10.92-70.02 8.096 0.1896 16.27-0.5123 24.3 0.6716 0.4741 9.22-2.711 19.42-3.688 29-3.315 25.21-9.094 50.15-10.53 75.58-1.12 13.25 6.07 27.98 19.71 31.41 21.41 6.616 47.28-1.624 58.29-21.84 8.873-15.38 8.898-33.74 12.27-50.74 3.215-21.22 6.275-42.46 10.12-63.58 8.022 0.1092 16.21-1.122 24.1 0.2628-0.2602 12.03-3.306 24.18-4.768 36.23-6.064 39.18-12.05 78.37-18.39 117.5-8.167 0.1872-16.33 0.3744-24.5 0.5616-1.432-4.645 5.764-20.48-2.242-14.37-12.42 11.31-29.05 17.05-45.76 16.83-5.329 0.0753-10.68 0.2763-16-0.1458zm-152.5 0.0484c-15.35-3.216-30.96-10.11-39.61-23.86-12.34-17.1-12.12-39.81-8.816-59.75 5.33-28.96 23.11-56.61 50.5-69 18.38-8.469 39.78-9.642 59.39-5.379 10.82 3.021 21.72 7.855 30.04 15.43-7.139 5.425-15.67 22.64-24.34 11.02-19.95-14.08-49.7-13.33-67.56 3.994-16.24 15.16-24.4 37.84-23.57 59.87-0.204 9.833-0.5316 20.17 4.911 28.85 6.542 13.4 21.69 21.63 36.48 19.88 14.83 0.436 28.61-6.293 40.39-14.73 6.369 1.407 20.15 14.35 7.288 18.25-11.33 7.818-24.68 12.8-38.2 15.11-8.944 0.5549-17.96 0.8254-26.91 0.3104zm-108-98.8c0.1406-16.42-7.394-35.73-24.89-40.13-18.2-5.831-39.51-0.9744-52.3 13.59-8.905 9.428-14.74 21.47-17.81 33.99 21.67 1.626 43.52 0.7797 65.28 0.996h29.72v-8.448zm-80.33 97.55c-20.98-5.007-38.31-22.69-41.45-44.24-4.828-33.75 4.339-71.16 30.51-94.35 14.42-13.17 33.64-20.52 53.17-20.29 21.13-1.737 44.04 7.616 54.16 27.02 9.106 15.72 7.374 34.73 5.589 52.05 0.5938 12.48-14.31 7.385-22.11 8.617-32.52 0.1543-65.04 0.0606-97.56 0.0865-0.528 15.44 0.7163 32.69 12.77 43.88 9.26 9.402 23.06 10.37 35.48 9.434 15.37 0.0609 29.05-7.49 42.79-13.31 4.477 5.948 14.49 16.76 1.538 19.1-16.91 8.775-35.74 14.12-54.9 13.59-6.684 0.0853-13.52 0.4-20-1.58zm-168 0.3c-14.58-2.799-28.2-9.228-40.2-17.87 5.816-5.461 11.63-10.92 17.45-16.38 12.73 11.12 29.45 17.25 46.39 16.66 12.2 0.5953 25.46-2.712 33.55-12.44 6.24-8.18 6.447-21.63-2.919-27.63-19.79-14.39-45.91-17.54-64.02-34.47-14.34-14.33-8.596-39.53 5.872-51.63 15.72-14.04 37.84-16.92 58.13-15.41 14.63 0.9263 28.9 6.263 41.13 14.22 1.004 5.881-6.973 9.449-10.4 14.01-2.285 3.215-4.749 4.658-7.699 1.275-15.82-11.03-36.85-13.52-55.18-8.185-12.08 2.938-20.06 19.22-11.58 29.4 13.72 11.77 31.86 16.16 47.58 24.57 12.04 5.647 25.72 13.78 28.09 28.09 1.886 14.92-3.176 30.78-15.05 40.42-13.11 11.4-30.43 16.32-47.55 16.68-7.867 0.337-15.84 0.2456-23.58-1.323zm1004 52.97c9.696-18.48 21.56-35.79 30.79-54.52 2.184-8.984-3.729-18.1-4.842-27.11-10.78-42.15-21.5-84.31-31.94-126.5 8.048-1.676 18.72-2.603 26.37 0.5 9.575 41.1 18.49 82.37 28.32 123.4 4.812-0.3469 8.413-14.47 12.71-19.91 18.76-34.26 36.9-68.86 55.43-103.3 8.096-2.991 17.5-1.548 26.11-1.56-0.6508 7.128-8.697 16.36-12.39 24.33-35.25 61.77-70.6 123.5-105.9 185.2-8.218-0.1503-16.52 0.4119-24.68-0.5813zm-899.7 134c-11.06-4.75-8.89-22.28 1.487-26.7 7.067-3.243 17.61-5.201 23.01 1.951 8.783 8.136 0.5882 22.41-9.352 24.96-4.865 1.202-10.43 1.881-15.14-0.2152zm869 93.3c-4.11-13.81-6.521-28.21-11.6-41.69-3.656 18.88-5.386 38.54-8.54 57.69-12.43 6.353-7.28-9.973-6.466-16.68 2.809-20.86 6.14-41.66 8.538-62.57 6.389-1.211 12.98-0.3108 12.63 7.88 4.685 17.8 8.648 36.2 13.74 53.63 9.387-13.95 15.94-29.69 24.33-44.27 4.803-6.736 7.05-21.06 18.17-17.33 1.264 9.796-2.141 20.17-2.917 30.14-2.381 16.64-4.71 33.29-7.018 49.95-7.786 2.603-10.28-3.133-7.24-10.21 2.381-16.29 4.845-32.58 6.472-48.96-12.2 19.83-22.24 40.98-34.7 60.67-2.25-5.929-3.668-12.15-5.394-18.25zm-85.52 17.13c-4.977-2.918-20.52-7.539-10.43-13.97 2.897-4.86 6.325 2.832 9.781 3.423 10.17 6.185 27.76 4.524 31.92-8.149 3.488-9.985-7.546-15.51-15.14-18.49-8.632-3.607-21.01-7.528-21.04-18.87-1.361-10.07 4.686-19.86 14.25-23.24 9.036-3.071 19.95-3.247 28.86 0.3507 9.009 0.769 8.012 12.39-0.1242 11.36-8.38-7.097-23.19-9.039-31.13-0.3959-9.119 10.68 4.302 20.15 14 22.29 9.412 3.645 21.28 10.21 19.92 22.12-0.3034 14.29-14.48 25.59-28.43 24.36-4.153 0.0434-8.371 0.0868-12.45-0.7871zm-553.3 73.4c3.25-29.22 8.768-58.2 12.96-87.31 3.33-22.35 6.928-44.65 10.42-66.97h25.16c-0.2165 4.453-4.477 15.71-0.6632 16 14.34-13.67 34.47-20.22 54.13-18.94 17.92-0.3708 37.42 8.027 44.49 25.49 5.98 14.73 3.372 31.12 1.809 46.47-5.036 28.41-8.536 57.06-13.51 85.48-8.261 0.188-16.52 0.3759-24.78 0.5638 3.562-30.51 9.468-60.7 13.43-91.16 2.56-14.26 2.611-32.1-10.08-41.74-10.6-7.336-24.71-6.655-36.87-4.722-18.45 3.937-31.83 20.24-35.78 38.17-5.921 27.13-8.88 54.81-13.5 82.18-0.8332 5.57-1.639 11.14-2.457 16.71-8.237 0.00049-16.58 0.9196-24.75-0.2198zm-262-2.1c7.219-50.81 15.7-101.5 23.22-152.2 8.12 0.2848 16.42-0.7234 24.39 0.8125 0.086 10.07-2.708 20.3-3.846 30.41-6.336 41.03-12.58 82.09-19.43 123-8.026 1.259-16.23 0.571-24.34 0.75v-2.75zm-83.41 1.908c1.671-19.02 5.724-37.82 8.291-56.76 7.459-48.25 14.56-96.69 22.48-144.8 7.959-4.557 18.56-10.3 26.34-11.61-7.73 57.38-17.56 114.5-25.95 171.8-2.587 13.69-4.102 27.63-6.838 41.25-7.608 1.828-16.51 1.074-24.32 0.1356zm-83.13-4.876c8.818-58.14 17.7-116.3 26.84-174.4 2.752-8.381-0.7294-21.54 9.167-25.45 6.346-1.294 17.37-11.12 20.9-7.462-6.677 46.73-14.32 93.33-21.4 140-4.18 24.11-6.869 48.48-11.55 72.5l-24.65 0.5635c0.2353-1.927 0.4705-3.854 0.7058-5.782zm901-86.2c1.034-16.06-3.987-35.53-19.63-43.14-16.5-6.837-36.94-4.602-51.41 5.963-12.41 9.681-20.34 24.51-23.45 39.77 10.04 2.074 20.77 0.8843 31.1 1.298 20.91 0.038 41.82 0.013 62.73 0.0202l0.6617-3.917zm-75 94.4c-14.15-2.789-27.93-9.222-36.84-20.94-13.75-16.38-13.06-39.35-10.96-59.42 4.054-35.79 29.82-70.01 65.79-78.23 19.02-3.271 40.37-3.374 56.85 8.115 18.41 12.44 24.24 36.34 22.3 57.39-0.8312 6.672-1.164 15.23-4.278 20.66h-117.7c0.5559 16.09 2.104 34.25 15.44 45.25 16.29 12.86 39.27 9.377 57.36 2.677 6.734-2.399 13.07-5.716 19.44-8.93 3.042 5.323 6.362 10.5 9.049 16.02-18.26 9.913-38.5 17.63-59.56 17.47-5.637 0.1355-11.33 0.5684-16.94-0.065zm-163-1.4c-21.44-4.665-39.22-22.35-43.26-44.02-5.399-28.03 2.238-58.07 18.76-81.15 16.69-21.56 43.82-35.16 71.26-33.82 17.16-0.5509 33.93 5.774 47.87 15.43 4.937 2.279 0.2356 4.713-2.044 7.108-4.681 3.345-8.647 11.55-14.31 10.47-11.52-10.04-26.93-15.14-42.18-13.87-24.61 1.432-43.42 22.87-50.46 45.13-4.744 16.52-6.03 34.57-1.712 51.33 5.161 17.78 24.38 28.37 42.28 26.12 14.04-0.8386 26.48-7.953 38.02-15.38 6.501 2.676 18.88 15.25 5.679 18.93-15.2 10.81-33.83 15.82-52.38 15.41-5.884 0.1673-11.81-0.0951-17.51-1.692zm-349-17.6c14.67-2.786 27.94-10.58 38.78-20.67 2.865-10.39 4.536-21.26 4.954-32.03-13.08-8.506-29.63-9.02-44.83-8.654-16.24-0.5638-34.45 6.07-41.43 21.81-3.702 11.4-4.803 26.87 6.023 34.86 10.25 8.069 24.47 6.565 36.51 4.683zm-38 17.67c-14.77-2.321-28.59-12.87-31.73-27.96-5.597-23.75 8.038-49.65 30.13-59.61 17.48-9.167 37.82-10.02 57.13-9.051 10.06 1.308 19.97 3.796 29.4 7.516 2.972-9.486 3.602-19.79 3.764-29.73-0.522-12.8-13.09-20.32-24.69-21.31-20.06-2.436-40.16 3.023-58.44 10.86-4.12-8.725-9.992-21.83 4.902-22.26 21.03-7.72 43.87-8.027 65.96-6.919 16.16 2.027 34.32 11.19 37.47 28.7 2.506 17.63-3.179 35.09-5.02 52.53-3.784 25.22-7.602 50.43-11.43 75.63h-24.94c0.2506-6.01 1.137-11.97 1.83-17.94-20.28 17.02-48.23 25.2-74.33 19.54zm-393-17.5c14.91-3.284 29.79-10.38 39.82-22.08 2.87-10.01 3.781-20.57 4.886-30.91-15.3-9.555-33.98-8.357-51.28-8.311-15.83 0.5796-32.52 9.904-37.09 25.87-1.479 9.306-2.7 20.64 4.647 27.95 9.92 10.26 26.05 9.924 39.02 7.49zm-37.57 17.78c-16.19-2.51-30.7-15.36-32.26-32.15-3.523-24.45 12.24-49.19 35.14-57.76 19.68-7.527 41.64-9.026 62.34-5.419 6.688-0.3781 17.54 8.6 21.06 3.482 1.234-12.32 5.623-26.01-0.9568-37.52-8.021-12.37-24.29-11.52-37.26-11.14-14.76 0.235-28.77 5.233-42.18 10.92-3.303-7.757-10.9-21.02 3.09-21.52 22.01-8.089 45.94-9.445 69.11-7.195 15.34 1.955 32.19 10.79 35.36 27.23 3.103 20.87-3.258 41.55-5.643 62.19-3.373 22.54-7.125 45.02-10.62 67.54-7.551-0.1396-15.14 0.3214-22.66-0.3006-5.65-2.89 5.745-23.92-5.353-14.15-19.8 14.2-45.13 20.65-69.17 15.8z"/>
</svg>
