<svg xmlns:rdf="http://www.w3.org/1999/02/22-rdf-syntax-ns#" xmlns="http://www.w3.org/2000/svg" xml:space="preserve" version="1.1" xmlns:cc="http://creativecommons.org/ns#" xmlns:dc="http://purl.org/dc/elements/1.1/" viewBox="0 0 366.6 110.09"><defs><clipPath id="clipPath16" clipPathUnits="userSpaceOnUse"><path id="path18" d="m0 3384h2142v-3384h-2142v3384z"/></clipPath></defs><g transform="matrix(1.25 0 0 -1.25 -667.45 2444.6)"><g transform="matrix(.74156 0 0 .74142 137.99 482.93)"><g clip-path="url(#clipPath16)"><path id="path20" d="m533.96 1986h381.28v-118.4h-381.28v118.4z" fill="#231f20"/><path id="path22" d="m835.1 1981.3h75.267v-108.4h-75.267v108.4z" fill="#fff"/><path id="path24" d="m847.07 1970.9h52.563v-83.402h-52.563v83.4z" fill="#231f20"/><path id="path26" d="m845.84 1971h54.294v-84.724h-54.294v84.7z" stroke="#231f20" stroke-width="4.9872" fill="none"/><path id="path28" d="m896.62 1922.1v44.985h-46.439c16.974-1.383 42.364-3.369 46.439-44.985" fill="#406cb8"/><path id="path30" d="m870.82 1886.3c11.662 7.205 19.625 20.125 19.625 35.018 0 22.69-18.099 41.118-40.411 41.118l-0.11-0.012 0.02-12.587c20.349 0 37.055-15.512 37.055-34.591 0-11.484-7.01-22.666-16.199-28.948" fill="#fff"/><path id="path32" d="m870.49 1886s-7.221-5.103-19.098-5.103v1.34c0.134-0.024 8.878-0.322 19.098 3.763" fill="#231f20"/><path id="path34" d="m539.82 1981.2h290.31v-107.78h-290.31v107.8z" fill="#406cb8"/><path id="path36" d="m664.95 1906.1c0.681 0 27.238 59.78 27.576 59.78 4.755-25.807 9.509-51.618 14.264-77.427h-9.172c-2.715 15.959-5.906 31.955-8.626 47.917-0.677 0-23.317-49.003-24.39-51.287-0.338 0-21.361 47.741-23.175 52.064-2.72-15.959-6.294-32.735-9.013-48.694h-9.166c1.357 8.489 14.439 73.386 15.282 77.427 0-0.338 25.062-56.045 26.42-59.78" fill="#fff"/><path id="path38" d="m713.82 1962.1h44.83v-8.15h-18.342v-65.203h-8.152v65.203h-18.336v8.1z" fill="#fff"/><path id="path40" d="m772.03 1963.2h33.62v-8.152h-25.474v-21.393h24.454v-8.148h-24.454v-35.66h-8.146v73.4z" fill="#fff"/><path id="path42" d="m928.78 1980.9c0-2.668-2.167-4.832-4.834-4.832-2.666 0-4.832 2.164-4.832 4.832 0 2.667 2.166 4.828 4.832 4.828 2.66 0 4.83-2.1 4.83-4.8z" stroke="#231f20" stroke-width="1.3486" fill="none"/><path id="path44" d="m921.75 1978v5.664h2.51c0.504 0 0.887-0.052 1.146-0.152 0.265-0.102 0.476-0.281 0.633-0.536 0.157-0.26 0.236-0.545 0.236-0.856 0-0.402-0.133-0.74-0.393-1.016-0.26-0.275-0.657-0.447-1.201-0.525 0.197-0.094 0.348-0.189 0.451-0.28 0.221-0.2 0.427-0.453 0.618-0.755l0.98-1.544h-0.936l-0.75 1.18c-0.216 0.34-0.397 0.602-0.535 0.781-0.147 0.181-0.269 0.307-0.382 0.377-0.113 0.074-0.226 0.123-0.343 0.152-0.083 0.017-0.22 0.025-0.416 0.025h-0.868v-2.515h-0.74zm0.75 3.167h1.608c0.342 0 0.612 0.034 0.803 0.105 0.192 0.071 0.339 0.184 0.437 0.34 0.102 0.156 0.152 0.325 0.152 0.508 0 0.267-0.099 0.488-0.289 0.662-0.196 0.171-0.5 0.257-0.922 0.257h-1.789v-2z" fill="#231f20"/><path id="path46" d="m576.18 1897.1-0.76-0.01h-8.823v58.035h9.778c21.612 0 32.571-9.759 32.571-29.005 0-19.253-11.028-29.015-32.766-29.015m0.195 66.333c-0.23 0-10.925 0.01-18.091 0.01v-74.658c8.783-0.208 17.44 0 17.881 0 27.709 0 41.095 14.818 41.095 37.328 0 20.391-11.186 37.318-40.885 37.318" fill="#fff"/></g></g></g></svg>
