<svg xmlns:rdf="http://www.w3.org/1999/02/22-rdf-syntax-ns#" xmlns="http://www.w3.org/2000/svg" xml:space="preserve" version="1.1" xmlns:cc="http://creativecommons.org/ns#" xmlns:dc="http://purl.org/dc/elements/1.1/" viewBox="0 0 197.5 192.5"><g transform="matrix(1.25,0,0,-1.25,0,192.5)"><path id="path20-1" d="m81 18.739c31.538 0 57.261 25.723 57.261 57.261s-25.723 57.261-57.261 57.261-57.261-25.723-57.261-57.261c0-31.536 25.723-57.259 57.261-57.259z" stroke="#ad7fa8" stroke-miterlimit="2.6131" stroke-width="0.8" fill="none"/><path id="path14" d="m81 4c39.656 0 72 32.344 72 72s-32.344 72-72 72-72-32.34-72-72c0-39.656 32.344-72 72-72" fill-rule="evenodd" fill="#88c3ec"/><path id="path7226" d="m98.639 11.631c-0.373-0.016-0.752-0.015-1.139 0.004-0.806 0.039-1.54 0.161-2.201 0.369-0.655 0.207-1.242 0.484-1.76 0.828-0.511 0.344-0.955 0.749-1.33 1.217-0.369 0.461-0.671 0.97-0.904 1.529-0.234 0.552-0.4 1.145-0.5 1.776-0.094 0.63-0.125 1.282-0.092 1.958 0.06 1.256 0.278 2.337 0.654 3.245 0.382 0.9 0.895 1.639 1.535 2.214 0.647 0.569 1.408 0.978 2.287 1.229s1.849 0.352 2.909 0.301c0.312-0.015 0.649-0.048 1.011-0.098 0.369-0.05 0.741-0.115 1.111-0.191 0.38-0.077 0.74-0.16 1.1-0.248 0.36-0.096 0.69-0.196 0.98-0.301 0.32-0.068 0.59-0.224 0.79-0.469 0.21-0.245 0.31-0.579 0.29-1.002l-0.23-4.584c-0.01-0.344-0.1-0.604-0.25-0.779-0.15-0.182-0.4-0.265-0.74-0.248l-3.877 0.187c-0.136 0.007-0.255 0.034-0.357 0.084-0.102 0.051-0.186 0.118-0.254 0.2-0.061 0.081-0.107 0.17-0.135 0.269s-0.038 0.201-0.033 0.305 0.025 0.208 0.062 0.31c0.038 0.096 0.092 0.181 0.161 0.256 0.075 0.075 0.164 0.135 0.271 0.182 0.106 0.04 0.229 0.059 0.365 0.053l2.257-0.11 0.19 3.793c-0.43 0.125-0.867 0.231-1.326 0.319-0.452 0.086-0.902 0.142-1.351 0.164-0.807 0.038-1.494-0.044-2.065-0.245-0.57-0.2-1.041-0.515-1.414-0.947-0.372-0.432-0.653-0.977-0.842-1.633-0.188-0.662-0.303-1.432-0.345-2.31-0.037-0.761 0.014-1.467 0.152-2.119s0.378-1.223 0.719-1.715c0.348-0.493 0.805-0.887 1.371-1.182 0.572-0.295 1.272-0.462 2.098-0.502 0.24-0.012 0.5-0.01 0.781 0.002 0.287 0.012 0.58 0.038 0.875 0.076 0.295 0.032 0.587 0.072 0.887 0.123 0.29 0.045 0.58 0.093 0.85 0.145 0.04 0.011 0.09 0.019 0.13 0.023 0.05 0.005 0.09 0.006 0.13 0.004 0.14-0.007 0.27-0.043 0.39-0.107 0.11-0.064 0.21-0.143 0.29-0.238 0.08-0.102 0.14-0.214 0.17-0.332 0.04-0.126 0.06-0.25 0.05-0.374-0.01-0.182-0.07-0.348-0.17-0.5-0.11-0.157-0.27-0.278-0.49-0.359-0.59-0.213-1.25-0.368-1.968-0.471-0.357-0.051-0.721-0.085-1.093-0.101zm15.641 1.039c-0.37-0.016-0.73-0.008-1.07 0.025-0.69 0.067-1.32 0.215-1.9 0.444-0.57 0.23-1.09 0.534-1.55 0.914-0.46 0.374-0.86 0.81-1.2 1.308-0.35 0.492-0.63 1.037-0.86 1.633-0.23 0.597-0.39 1.228-0.5 1.897-0.2 1.24-0.21 2.344-0.03 3.31 0.18 0.961 0.53 1.789 1.04 2.485 0.51 0.69 1.17 1.249 1.98 1.677s1.74 0.726 2.78 0.897c0.31 0.05 0.65 0.089 1.01 0.115 0.38 0.028 0.75 0.044 1.13 0.047 0.39 0.003 0.76-0.003 1.12-0.016 0.38-0.018 0.72-0.05 1.03-0.092 0.33 0.001 0.62-0.096 0.87-0.293 0.25-0.195 0.42-0.504 0.48-0.921l0.74-4.53c0.06-0.34 0.03-0.611-0.08-0.814-0.12-0.209-0.34-0.343-0.68-0.399l-3.83-0.623c-0.13-0.021-0.26-0.018-0.37 0.01s-0.2 0.075-0.29 0.141c-0.07 0.066-0.13 0.147-0.18 0.238s-0.08 0.188-0.1 0.291-0.02 0.208 0 0.316c0.01 0.102 0.05 0.196 0.1 0.284 0.06 0.088 0.14 0.166 0.23 0.234 0.1 0.062 0.21 0.103 0.35 0.125l2.23 0.365-0.61 3.75c-0.44 0.034-0.89 0.045-1.36 0.035-0.46-0.008-0.91-0.048-1.36-0.121-0.79-0.129-1.45-0.353-1.96-0.668-0.52-0.314-0.92-0.72-1.19-1.22-0.28-0.5-0.44-1.091-0.48-1.772-0.05-0.687 0-1.464 0.14-2.332 0.12-0.752 0.32-1.432 0.59-2.041s0.62-1.119 1.06-1.529 0.97-0.699 1.58-0.869c0.62-0.17 1.34-0.188 2.16-0.055 0.24 0.039 0.49 0.093 0.76 0.164 0.28 0.072 0.56 0.156 0.84 0.254 0.28 0.092 0.57 0.193 0.84 0.305 0.28 0.105 0.55 0.211 0.8 0.318 0.05 0.02 0.09 0.037 0.13 0.051 0.05 0.013 0.09 0.024 0.13 0.031 0.14 0.023 0.27 0.014 0.4-0.025 0.12-0.039 0.23-0.096 0.33-0.172 0.1-0.083 0.18-0.18 0.24-0.289 0.06-0.115 0.1-0.234 0.12-0.356 0.03-0.18 0.01-0.353-0.06-0.523-0.07-0.177-0.2-0.327-0.4-0.451-0.54-0.331-1.14-0.622-1.83-0.871-0.68-0.249-1.4-0.437-2.16-0.561-0.4-0.065-0.79-0.105-1.16-0.121zm-30.245 0.838c-0.164-0.011-0.325 0.005-0.482 0.047-0.164 0.043-0.314 0.109-0.451 0.199-0.138 0.09-0.255 0.202-0.348 0.334s-0.157 0.286-0.192 0.463c-0.029 0.169-0.017 0.355 0.036 0.556l2.009 7.641c0.141 0.535 0.174 1.022 0.1 1.459-0.069 0.429-0.212 0.81-0.428 1.143-0.217 0.326-0.49 0.6-0.822 0.822-0.327 0.214-0.684 0.37-1.068 0.471-0.378 0.099-0.766 0.138-1.162 0.115-0.392-0.032-0.762-0.137-1.112-0.315-0.351-0.183-0.666-0.443-0.943-0.781-0.273-0.346-0.479-0.787-0.619-1.322l-2.008-7.641c-0.053-0.201-0.139-0.369-0.254-0.5-0.111-0.139-0.239-0.243-0.385-0.312-0.146-0.07-0.3-0.109-0.465-0.119-0.164-0.011-0.325 0.003-0.482 0.044-0.164 0.044-0.315 0.112-0.453 0.202s-0.253 0.2-0.346 0.332c-0.087 0.13-0.147 0.285-0.181 0.463-0.03 0.169-0.018 0.353 0.035 0.554l2.027 7.717c0.218 0.831 0.554 1.518 1.006 2.059 0.458 0.539 0.992 0.947 1.603 1.224 0.612 0.277 1.282 0.427 2.008 0.451 0.727 0.025 1.471-0.063 2.233-0.263s1.453-0.489 2.074-0.867c0.627-0.381 1.139-0.842 1.535-1.383 0.396-0.542 0.661-1.161 0.795-1.856s0.091-1.458-0.127-2.289l-2.029-7.717c-0.053-0.201-0.137-0.366-0.252-0.498-0.111-0.139-0.239-0.243-0.385-0.312s-0.302-0.111-0.467-0.121zm42.545 2.359c-0.17 0.002-0.32 0.035-0.47 0.096s-0.29 0.156-0.41 0.287c-0.12 0.127-0.21 0.29-0.27 0.488l-3.53 10.981c-0.06 0.198-0.08 0.384-0.06 0.554 0.02 0.173 0.08 0.326 0.16 0.461 0.08 0.137 0.19 0.255 0.32 0.352 0.14 0.097 0.28 0.171 0.44 0.221 0.15 0.049 0.31 0.074 0.47 0.072 0.18 0 0.34-0.031 0.48-0.092 0.15-0.061 0.29-0.156 0.4-0.283 0.13-0.125 0.22-0.286 0.28-0.484l3.53-10.981c0.06-0.198 0.08-0.384 0.05-0.557-0.01-0.176-0.07-0.333-0.15-0.47-0.09-0.137-0.2-0.254-0.33-0.352-0.13-0.097-0.28-0.171-0.43-0.221-0.16-0.049-0.32-0.073-0.48-0.072zm7.65 2.723c-0.17-0.014-0.35 0.011-0.52 0.076-0.18 0.059-0.34 0.157-0.5 0.297-0.15 0.137-0.28 0.317-0.39 0.539l-5.05 10.191c-0.09 0.169-0.13 0.329-0.13 0.481-0.01 0.151 0.02 0.292 0.07 0.42 0.06 0.131 0.14 0.246 0.24 0.347 0.11 0.102 0.22 0.185 0.35 0.248 0.13 0.064 0.26 0.107 0.41 0.127 0.14 0.023 0.29 0.016 0.42-0.019 0.14-0.038 0.27-0.104 0.39-0.197 0.13-0.091 0.23-0.218 0.31-0.381l4.19-8.451 1.73 11.781c0.07 0.326 0.19 0.598 0.35 0.816 0.17 0.215 0.36 0.376 0.58 0.483 0.17 0.084 0.35 0.131 0.53 0.142 0.19 0.014 0.37-0.007 0.54-0.066 0.18-0.059 0.34-0.157 0.5-0.291 0.15-0.14 0.29-0.322 0.4-0.543l5.05-10.192c0.08-0.163 0.13-0.319 0.13-0.47 0-0.158-0.02-0.303-0.08-0.434-0.05-0.134-0.13-0.25-0.23-0.351-0.1-0.102-0.22-0.185-0.35-0.248-0.12-0.064-0.26-0.105-0.42-0.122-0.14-0.019-0.28-0.014-0.42 0.018-0.13 0.035-0.26 0.104-0.38 0.203-0.12 0.094-0.22 0.222-0.3 0.385l-4.22 8.494-1.74-11.842c-0.07-0.317-0.19-0.588-0.35-0.808-0.16-0.218-0.35-0.381-0.58-0.491-0.17-0.083-0.34-0.131-0.53-0.142zm-67.763 1.131c-0.254-0.011-0.517 0.002-0.789 0.039-0.539 0.07-1.084 0.241-1.633 0.511l-4.426 2.174c-0.157 0.078-0.291 0.181-0.402 0.309-0.106 0.125-0.185 0.265-0.238 0.422-0.051 0.148-0.073 0.303-0.065 0.467 0.008 0.163 0.051 0.324 0.129 0.482l5.115 10.357c0.075 0.152 0.175 0.284 0.303 0.395 0.125 0.105 0.262 0.184 0.41 0.234 0.154 0.048 0.314 0.067 0.477 0.059 0.169-0.011 0.33-0.055 0.488-0.133l4.492-2.217c0.753-0.372 1.344-0.788 1.772-1.246 0.43-0.466 0.732-0.942 0.906-1.428 0.177-0.494 0.241-0.983 0.191-1.466-0.053-0.49-0.183-0.943-0.39-1.364-0.208-0.42-0.469-0.771-0.782-1.052-0.307-0.284-0.653-0.498-1.037-0.643-0.383-0.144-0.795-0.217-1.238-0.217-0.443 0.001-0.9 0.079-1.369 0.231l-0.016-0.035c0.322-0.246 0.584-0.529 0.789-0.848 0.209-0.328 0.359-0.672 0.451-1.029 0.092-0.358 0.12-0.719 0.084-1.086-0.033-0.376-0.134-0.736-0.304-1.08-0.228-0.462-0.529-0.84-0.906-1.133-0.378-0.293-0.804-0.493-1.278-0.6-0.235-0.058-0.48-0.093-0.734-0.103zm-0.809 2.162c0.315 0.019 0.604 0.114 0.871 0.287s0.496 0.453 0.686 0.838c0.176 0.356 0.256 0.693 0.24 1.013-0.01 0.318-0.091 0.616-0.244 0.895-0.156 0.273-0.373 0.526-0.65 0.758-0.281 0.226-0.597 0.425-0.948 0.597l-2.17 1.073-1.925-3.897 2.128-1.051c0.345-0.17 0.69-0.305 1.034-0.402 0.341-0.103 0.667-0.139 0.978-0.111zm-11.926 4.461c-0.117-0.027-0.24-0.025-0.371 0.008-0.129 0.023-0.26 0.084-0.39 0.181l-5.696 4.254c-0.14 0.105-0.249 0.232-0.326 0.379-0.081 0.142-0.134 0.295-0.158 0.459-0.018 0.16-0.006 0.322 0.035 0.486 0.043 0.155 0.112 0.298 0.209 0.428l6.897 9.232c0.101 0.136 0.228 0.244 0.379 0.327 0.147 0.077 0.3 0.128 0.464 0.152 0.161 0.019 0.322 0.011 0.485-0.021 0.164-0.042 0.315-0.112 0.451-0.213l5.836-4.36c0.13-0.097 0.226-0.202 0.289-0.314 0.064-0.121 0.101-0.24 0.109-0.36 0.014-0.123 0-0.244-0.039-0.361s-0.092-0.224-0.162-0.318c-0.074-0.099-0.16-0.181-0.258-0.246-0.101-0.071-0.213-0.117-0.336-0.139-0.117-0.026-0.24-0.024-0.371 0.008-0.129 0.023-0.258 0.084-0.388 0.181l-4.821 3.6-2.564-3.436 4.349-3.248c0.131-0.097 0.227-0.202 0.29-0.314 0.063-0.121 0.101-0.242 0.109-0.361 0.013-0.124 0-0.244-0.039-0.362-0.034-0.121-0.086-0.228-0.156-0.322-0.074-0.099-0.161-0.181-0.258-0.246-0.102-0.071-0.212-0.118-0.334-0.141-0.117-0.026-0.241-0.022-0.371 0.01-0.134 0.027-0.268 0.088-0.399 0.186l-4.349 3.25-2.368-3.168 4.649-3.473c0.13-0.097 0.226-0.201 0.289-0.312 0.064-0.121 0.101-0.242 0.109-0.362 0.014-0.123 0-0.244-0.039-0.361s-0.094-0.225-0.164-0.318c-0.074-0.1-0.158-0.181-0.256-0.247-0.101-0.07-0.213-0.116-0.336-0.138zm14.791 0.658c0.385-0.001 0.729 0.094 1.034 0.285 0.302 0.185 0.561 0.496 0.777 0.934 0.205 0.414 0.312 0.793 0.322 1.136 0.007 0.338-0.078 0.653-0.254 0.944-0.17 0.287-0.424 0.558-0.763 0.812-0.336 0.246-0.746 0.488-1.231 0.727l-2.207 1.09-2.094-4.239 1.709-0.841c0.514-0.254 0.999-0.458 1.454-0.61 0.457-0.16 0.875-0.24 1.253-0.238zm81.567 1.816c-0.3 0.007-0.6 0.038-0.89 0.09-0.58 0.105-1.15 0.29-1.69 0.557-0.54 0.262-1.05 0.597-1.55 1.006-0.48 0.413-0.93 0.883-1.35 1.414-0.78 0.985-1.33 1.944-1.65 2.875-0.3 0.929-0.4 1.821-0.3 2.676 0.11 0.853 0.42 1.664 0.92 2.431 0.49 0.768 1.16 1.48 1.99 2.139 0.24 0.194 0.52 0.393 0.82 0.594 0.32 0.205 0.64 0.401 0.97 0.589 0.33 0.189 0.66 0.367 0.99 0.534 0.33 0.165 0.64 0.305 0.94 0.42 0.28 0.161 0.58 0.216 0.9 0.166 0.32-0.047 0.61-0.235 0.87-0.567l2.85-3.597c0.21-0.271 0.32-0.523 0.32-0.754 0.01-0.237-0.12-0.462-0.39-0.676v-0.002l-3.04-2.406c-0.11-0.085-0.22-0.143-0.33-0.172s-0.21-0.035-0.32-0.018c-0.1 0.021-0.19 0.059-0.28 0.115-0.09 0.057-0.16 0.126-0.23 0.207-0.06 0.082-0.11 0.174-0.15 0.276-0.04 0.097-0.05 0.195-0.05 0.297 0.01 0.105 0.04 0.211 0.09 0.316 0.05 0.101 0.13 0.195 0.24 0.279l1.77 1.407-2.36 2.978c-0.4-0.185-0.8-0.397-1.2-0.633-0.4-0.232-0.78-0.488-1.13-0.767-0.63-0.502-1.1-1.015-1.39-1.541-0.3-0.527-0.45-1.074-0.44-1.645 0-0.57 0.15-1.165 0.44-1.783 0.29-0.623 0.71-1.278 1.26-1.967 0.47-0.597 0.97-1.094 1.5-1.494 0.54-0.4 1.1-0.674 1.68-0.82 0.58-0.142 1.19-0.137 1.81 0.013 0.62 0.155 1.26 0.489 1.91 1.002 0.18 0.15 0.38 0.322 0.58 0.516 0.21 0.198 0.41 0.41 0.61 0.633 0.2 0.218 0.4 0.443 0.59 0.676 0.19 0.228 0.37 0.449 0.54 0.666 0.03 0.038 0.06 0.076 0.09 0.109s0.06 0.062 0.09 0.086c0.11 0.089 0.23 0.147 0.36 0.174s0.26 0.03 0.38 0.012c0.13-0.024 0.24-0.07 0.35-0.137 0.11-0.069 0.2-0.151 0.28-0.248 0.11-0.143 0.18-0.305 0.2-0.489 0.02-0.188-0.02-0.385-0.13-0.589-0.31-0.549-0.7-1.101-1.17-1.653-0.47-0.548-1.01-1.061-1.62-1.543-0.63-0.501-1.27-0.891-1.9-1.17-0.63-0.274-1.25-0.453-1.87-0.535-0.31-0.039-0.61-0.054-0.91-0.047zm-107.21 8.852c-0.216-0.012-0.433-0.01-0.649 0.004-0.864 0.047-1.726 0.312-2.589 0.793-0.869 0.476-1.73 1.179-2.582 2.111l-2.346 2.565c-0.119 0.129-0.207 0.278-0.264 0.447-0.057 0.159-0.083 0.323-0.076 0.488 0.003 0.161 0.039 0.32 0.105 0.479 0.072 0.153 0.172 0.289 0.301 0.408l8.481 7.76c0.129 0.118 0.274 0.206 0.433 0.263 0.159 0.049 0.321 0.068 0.487 0.061 0.165-0.008 0.325-0.046 0.478-0.117 0.158-0.077 0.298-0.179 0.416-0.309l2.412-2.637c0.782-0.855 1.373-1.724 1.772-2.603 0.393-0.884 0.588-1.756 0.582-2.617-0.011-0.866-0.224-1.714-0.639-2.543-0.41-0.835-1.032-1.633-1.863-2.393s-1.674-1.324-2.529-1.691c-0.642-0.276-1.284-0.432-1.93-0.469zm-1.252 2.443c0.607-0.027 1.229 0.099 1.863 0.379 0.635 0.281 1.286 0.727 1.953 1.338 0.606 0.554 1.087 1.113 1.444 1.678 0.361 0.56 0.579 1.131 0.656 1.713 0.076 0.582 0.002 1.174-0.225 1.779-0.227 0.595-0.626 1.206-1.197 1.83l-1.49 1.627-7.717-7.059 1.246-1.361c0.549-0.6 1.113-1.063 1.693-1.389 0.576-0.329 1.167-0.508 1.774-0.535zm125.57 3.979c-0.08 0.002-0.16 0.012-0.25 0.031-0.17 0.04-0.32 0.115-0.47 0.223l-9.26 6.812c-0.16 0.124-0.29 0.262-0.38 0.416-0.08 0.156-0.12 0.315-0.13 0.477-0.02 0.161 0 0.32 0.05 0.476 0.05 0.157 0.13 0.301 0.22 0.432 0.1 0.131 0.22 0.245 0.35 0.34 0.14 0.1 0.29 0.169 0.45 0.207 0.15 0.038 0.32 0.039 0.48 0.004 0.18-0.034 0.35-0.111 0.52-0.235l4.04-2.976 3.03 4.115c0.1 0.131 0.2 0.228 0.31 0.291 0.12 0.065 0.24 0.102 0.36 0.111 0.13 0.015 0.25 0.001 0.36-0.037 0.12-0.038 0.23-0.092 0.33-0.166 0.1-0.069 0.18-0.155 0.25-0.256s0.12-0.211 0.14-0.334c0.03-0.117 0.03-0.24-0.01-0.371-0.02-0.129-0.08-0.259-0.17-0.39l-3.03-4.114 3.13-2.304 3.19 4.334c0.1 0.131 0.2 0.227 0.31 0.291 0.12 0.065 0.24 0.102 0.36 0.111 0.12 0.014 0.24 0.003 0.36-0.035s0.23-0.093 0.32-0.162c0.1-0.074 0.18-0.159 0.25-0.256 0.07-0.101 0.12-0.212 0.14-0.334 0.03-0.117 0.03-0.241 0-0.371-0.03-0.129-0.09-0.26-0.18-0.391l-4-5.426c-0.1-0.136-0.22-0.248-0.37-0.335-0.14-0.082-0.29-0.136-0.45-0.161-0.08-0.014-0.16-0.02-0.25-0.017zm-139.7 10.42c-0.122-0.019-0.244-0.012-0.363 0.021-0.117 0.028-0.226 0.086-0.328 0.172-0.106 0.078-0.198 0.187-0.272 0.332l-3.078 5.994c-0.077 0.151-0.123 0.31-0.137 0.479-0.01 0.163 0.01 0.324 0.061 0.482 0.045 0.155 0.124 0.302 0.236 0.44 0.109 0.129 0.244 0.235 0.406 0.318l10.225 5.252c0.185 0.095 0.367 0.147 0.545 0.158 0.175 0.002 0.337-0.027 0.486-0.09 0.149-0.062 0.283-0.152 0.401-0.267 0.117-0.115 0.212-0.246 0.287-0.391 0.074-0.145 0.123-0.298 0.148-0.461 0.028-0.168 0.025-0.33-0.012-0.488-0.036-0.158-0.106-0.304-0.212-0.44-0.11-0.143-0.257-0.264-0.442-0.359l-4.467-2.293 2.334-4.543c0.074-0.145 0.116-0.282 0.123-0.41 0.005-0.137-0.017-0.26-0.062-0.371-0.043-0.117-0.105-0.22-0.191-0.309-0.087-0.088-0.185-0.16-0.295-0.217-0.105-0.053-0.218-0.088-0.34-0.107s-0.244-0.012-0.364 0.022c-0.116 0.027-0.227 0.085-0.33 0.171-0.105 0.078-0.195 0.188-0.269 0.332l-2.334 4.543-3.457-1.775 2.459-4.785c0.074-0.145 0.115-0.282 0.123-0.41 0.004-0.137-0.017-0.26-0.063-0.371-0.042-0.117-0.107-0.221-0.193-0.309s-0.181-0.159-0.285-0.213c-0.11-0.056-0.224-0.091-0.34-0.107zm145.09 2.226c-0.23 0.009-0.46 0.029-0.69 0.061-0.94 0.123-1.9 0.419-2.89 0.89-0.99 0.472-1.82 1.035-2.51 1.686-0.68 0.651-1.19 1.371-1.53 2.16-0.34 0.795-0.48 1.649-0.44 2.561 0.04 0.909 0.3 1.856 0.77 2.843 0.47 0.993 1.05 1.792 1.73 2.399 0.68 0.603 1.44 1.022 2.26 1.256 0.83 0.239 1.72 0.294 2.65 0.166 0.94-0.123 1.9-0.42 2.89-0.891 0.98-0.471 1.82-1.032 2.5-1.683 0.7-0.649 1.21-1.372 1.55-2.166 0.33-0.789 0.48-1.638 0.43-2.547-0.03-0.913-0.29-1.865-0.77-2.858-0.47-0.987-1.04-1.783-1.73-2.386-0.68-0.607-1.43-1.029-2.26-1.268-0.62-0.175-1.27-0.25-1.96-0.223zm0.61 2.59c0.31-0.016 0.61-0.005 0.89 0.035 0.58 0.086 1.1 0.297 1.56 0.631 0.47 0.341 0.85 0.827 1.15 1.455 0.3 0.629 0.43 1.227 0.4 1.797-0.02 0.576-0.18 1.116-0.48 1.617-0.29 0.502-0.71 0.962-1.24 1.383-0.53 0.424-1.14 0.805-1.84 1.139-0.71 0.336-1.39 0.577-2.06 0.722-0.66 0.143-1.28 0.171-1.85 0.084-0.57-0.089-1.09-0.302-1.55-0.636-0.46-0.338-0.83-0.819-1.14-1.448-0.3-0.628-0.43-1.227-0.41-1.795 0.03-0.57 0.19-1.104 0.48-1.603 0.3-0.501 0.71-0.964 1.23-1.389 0.54-0.421 1.16-0.8 1.86-1.136 0.7-0.334 1.38-0.575 2.04-0.723 0.33-0.073 0.65-0.117 0.96-0.133zm-150.07 8.795c-0.303-0.017-0.587 0.009-0.85 0.078-0.523 0.133-0.981 0.384-1.373 0.754-0.398 0.369-0.737 0.832-1.015 1.387-0.277 0.548-0.511 1.137-0.703 1.765l-1.284 4.204c-0.051 0.168-0.065 0.341-0.045 0.517 0.017 0.169 0.063 0.325 0.141 0.471 0.072 0.144 0.172 0.274 0.301 0.389 0.13 0.107 0.279 0.186 0.447 0.238h0.002l11.002 3.359c0.199 0.061 0.384 0.08 0.555 0.057 0.172-0.029 0.325-0.085 0.459-0.166 0.129-0.09 0.24-0.198 0.334-0.326 0.095-0.135 0.167-0.28 0.214-0.436 0.048-0.156 0.069-0.312 0.063-0.471-0.004-0.164-0.037-0.32-0.094-0.466-0.063-0.149-0.158-0.281-0.287-0.395-0.126-0.12-0.289-0.211-0.488-0.271l-4.699-1.434 0.791-2.588c0.125-0.411 0.256-0.745 0.396-1.002 0.136-0.265 0.297-0.465 0.481-0.599 0.186-0.141 0.409-0.225 0.67-0.254 0.26-0.03 0.58-0.018 0.959 0.037 0.373 0.046 0.816 0.124 1.328 0.232 0.511 0.109 1.109 0.23 1.797 0.365 0.188 0.031 0.361 0.029 0.521-0.004 0.162-0.039 0.304-0.102 0.426-0.187 0.123-0.092 0.227-0.199 0.312-0.322 0.088-0.13 0.154-0.267 0.198-0.41 0.047-0.156 0.068-0.313 0.062-0.471-0.004-0.165-0.036-0.319-0.096-0.459-0.063-0.149-0.157-0.279-0.279-0.391-0.12-0.118-0.274-0.206-0.461-0.263l-0.111-0.036c-0.255-0.057-0.536-0.119-0.842-0.185-0.263-0.053-0.565-0.114-0.904-0.184-0.346-0.071-0.713-0.142-1.1-0.213-0.432-0.077-0.827-0.119-1.185-0.127-0.359-0.007-0.685 0.05-0.981 0.17-0.3 0.113-0.572 0.299-0.814 0.559-0.243 0.259-0.469 0.612-0.68 1.059l-0.037-0.012c0.057-0.521 0.045-0.987-0.033-1.399-0.077-0.418-0.212-0.783-0.403-1.093-0.189-0.317-0.431-0.581-0.726-0.793-0.294-0.219-0.629-0.386-1.002-0.5-0.343-0.105-0.664-0.166-0.967-0.184zm-0.129 2.668c0.197 0.013 0.413 0.054 0.647 0.125 0.473 0.145 0.816 0.358 1.029 0.641s0.342 0.605 0.388 0.966c0.047 0.362 0.032 0.745-0.044 1.151-0.083 0.404-0.183 0.797-0.301 1.183l-0.61 2-4.109-1.255 0.756-2.475c0.097-0.318 0.215-0.638 0.355-0.963s0.321-0.604 0.541-0.836c0.221-0.232 0.492-0.394 0.813-0.486 0.16-0.046 0.338-0.063 0.535-0.051zm158.97 1.818c-0.08 0.004-0.17 0.015-0.25 0.036v0.001l-11.18 2.706c-0.21 0.049-0.38 0.126-0.51 0.232-0.13 0.113-0.24 0.239-0.31 0.377-0.07 0.143-0.11 0.293-0.12 0.451-0.02 0.164-0.01 0.326 0.03 0.484 0.04 0.159 0.1 0.305 0.19 0.438 0.09 0.14 0.19 0.256 0.32 0.354 0.13 0.095 0.28 0.16 0.44 0.193 0.17 0.039 0.36 0.035 0.56-0.014l4.78-1.156 0.63 2.629c0.11 0.417 0.16 0.772 0.17 1.064 0.02 0.297-0.02 0.551-0.11 0.76-0.09 0.216-0.23 0.403-0.44 0.561s-0.49 0.309-0.85 0.455c-0.34 0.15-0.76 0.309-1.26 0.476-0.49 0.167-1.07 0.368-1.73 0.602-0.18 0.07-0.33 0.158-0.45 0.267-0.12 0.116-0.21 0.242-0.27 0.377-0.06 0.142-0.1 0.288-0.11 0.438-0.01 0.156 0.01 0.307 0.04 0.453 0.04 0.158 0.1 0.304 0.19 0.437 0.09 0.14 0.19 0.255 0.31 0.346 0.14 0.096 0.28 0.161 0.44 0.195 0.17 0.041 0.34 0.039 0.53-0.007l0.12-0.028c0.25-0.08 0.52-0.17 0.82-0.269 0.25-0.088 0.54-0.188 0.87-0.301 0.33-0.114 0.68-0.239 1.05-0.375 0.41-0.153 0.78-0.318 1.09-0.494s0.56-0.392 0.76-0.647c0.2-0.249 0.34-0.547 0.41-0.894 0.08-0.347 0.1-0.767 0.05-1.258l0.04-0.008c0.21 0.477 0.46 0.873 0.74 1.188 0.28 0.321 0.58 0.566 0.9 0.736 0.33 0.176 0.67 0.28 1.03 0.313 0.37 0.039 0.74 0.011 1.12-0.081 0.69-0.168 1.23-0.444 1.61-0.832 0.39-0.38 0.65-0.831 0.8-1.349 0.16-0.52 0.21-1.09 0.17-1.709-0.04-0.613-0.14-1.238-0.29-1.877l-1.03-4.272c-0.05-0.17-0.12-0.327-0.23-0.468-0.1-0.137-0.22-0.248-0.36-0.334-0.14-0.088-0.29-0.149-0.46-0.182-0.08-0.013-0.16-0.017-0.25-0.014zm-0.15 2.674l0.61 2.514c0.08 0.323 0.14 0.661 0.19 1.012 0.04 0.35 0.03 0.682-0.05 0.994-0.07 0.312-0.22 0.589-0.45 0.832s-0.58 0.422-1.05 0.537c-0.48 0.116-0.89 0.108-1.22-0.027-0.32-0.136-0.6-0.348-0.82-0.635-0.23-0.288-0.41-0.626-0.55-1.014-0.13-0.389-0.25-0.779-0.34-1.172l-0.5-2.031 4.18-1.01zm-152.57 8.526c-0.13-0.014-0.262-0.005-0.397 0.027l-10.619 3.055c-0.456 0.11-0.835 0.232-1.136 0.365-0.308 0.132-0.557 0.282-0.745 0.453-0.187 0.164-0.324 0.355-0.412 0.568-0.093 0.213-0.153 0.455-0.181 0.727-0.028 0.265-0.021 0.511 0.021 0.738 0.043 0.221 0.14 0.434 0.289 0.639 0.144 0.198 0.352 0.392 0.627 0.584 0.269 0.191 0.622 0.391 1.059 0.599l9.783 5.125c0.068 0.04 0.135 0.07 0.205 0.09 0.064 0.013 0.129 0.023 0.193 0.03 0.169 0.017 0.326-0.004 0.469-0.061 0.144-0.064 0.27-0.149 0.379-0.256 0.11-0.113 0.198-0.244 0.266-0.394 0.067-0.15 0.111-0.304 0.127-0.459 0.024-0.233-0.02-0.456-0.129-0.67-0.109-0.221-0.305-0.385-0.588-0.492l-2.49-1.266 0.636-6.229 2.698-0.744c0.292-0.042 0.516-0.16 0.673-0.353 0.152-0.201 0.242-0.421 0.266-0.66 0.017-0.162 0.007-0.324-0.029-0.485s-0.097-0.306-0.182-0.439c-0.084-0.133-0.191-0.243-0.32-0.328-0.135-0.093-0.288-0.147-0.463-0.164zm-4.328 3.541l-0.53 5.16-6.644-3.274 0.004-0.039 7.17-1.847zm159.51 1.904l-10.8 0.031c-0.19 0.001-0.36 0.031-0.5 0.09-0.14 0.066-0.25 0.146-0.35 0.244-0.09 0.105-0.16 0.223-0.21 0.354-0.05 0.13-0.07 0.263-0.07 0.4s0.02 0.27 0.07 0.4 0.12 0.246 0.21 0.35c0.1 0.104 0.22 0.186 0.36 0.244 0.14 0.065 0.31 0.096 0.49 0.096l10.34-0.031-9.86 4.345c-0.39 0.138-0.67 0.342-0.85 0.61-0.18 0.274-0.26 0.56-0.26 0.859 0 0.156 0.02 0.309 0.07 0.459 0.05 0.156 0.12 0.303 0.21 0.44 0.1 0.136 0.22 0.255 0.36 0.359 0.13 0.11 0.29 0.197 0.47 0.262l9.95 4.294-10.39 0.03c-0.19 0-0.36 0.03-0.5 0.09-0.13 0.07-0.25 0.15-0.35 0.26-0.09 0.1-0.16 0.22-0.21 0.34-0.05 0.13-0.07 0.26-0.07 0.4s0.02 0.27 0.07 0.4c0.05 0.14 0.12 0.26 0.22 0.36 0.09 0.11 0.21 0.19 0.35 0.25s0.31 0.09 0.5 0.09l10.8-0.03c0.37 0 0.7-0.06 0.96-0.16 0.27-0.1 0.49-0.24 0.66-0.41 0.16-0.17 0.29-0.37 0.36-0.6 0.08-0.22 0.12-0.45 0.12-0.7 0-0.26-0.03-0.48-0.09-0.68s-0.16-0.38-0.31-0.55-0.34-0.33-0.59-0.48c-0.24-0.15-0.55-0.3-0.92-0.45l-8.97-3.923v-0.059l8.93-3.914c0.37-0.151 0.68-0.3 0.92-0.451 0.25-0.15 0.45-0.314 0.59-0.49 0.15-0.17 0.25-0.355 0.31-0.557s0.1-0.43 0.09-0.683c0-0.254-0.04-0.495-0.11-0.723-0.08-0.228-0.21-0.43-0.38-0.606-0.17-0.175-0.39-0.314-0.65-0.418-0.27-0.096-0.59-0.143-0.97-0.142zm-168.28 9.473c-0.1-0.013-0.201-0.012-0.304 0.002-0.168 0.022-0.312 0.076-0.432 0.164-0.126 0.088-0.226 0.198-0.301 0.326-0.081 0.129-0.138 0.27-0.17 0.426-0.033 0.148-0.041 0.298-0.021 0.445 0.031 0.24 0.133 0.45 0.302 0.64 0.162 0.18 0.402 0.28 0.719 0.3l11.082 1.13-9.822 4.54c-0.226 0.08-0.417 0.19-0.576 0.33s-0.287 0.29-0.383 0.46-0.161 0.35-0.195 0.54c-0.035 0.19-0.039 0.37-0.014 0.56s0.078 0.37 0.16 0.54c0.082 0.18 0.192 0.33 0.328 0.47 0.136 0.13 0.299 0.25 0.489 0.34 0.188 0.09 0.401 0.14 0.64 0.16l10.668 1.72-10.445 4c-0.289 0.09-0.485 0.25-0.588 0.47-0.11 0.21-0.149 0.43-0.117 0.67 0.02 0.16 0.07 0.31 0.148 0.46 0.072 0.14 0.165 0.27 0.278 0.38 0.112 0.11 0.244 0.19 0.396 0.25 0.146 0.06 0.306 0.07 0.48 0.05 0.11-0.01 0.212-0.04 0.305-0.08l10.631-4.31c0.244-0.09 0.452-0.21 0.623-0.35 0.165-0.15 0.294-0.31 0.389-0.49s0.158-0.36 0.191-0.56c0.032-0.2 0.036-0.4 0.01-0.6-0.029-0.22-0.09-0.43-0.182-0.63s-0.213-0.38-0.359-0.55c-0.153-0.16-0.324-0.3-0.516-0.4-0.197-0.11-0.417-0.17-0.656-0.19l-10.471-1.65 9.68-4.36c0.244-0.1 0.45-0.22 0.621-0.36 0.165-0.15 0.301-0.31 0.408-0.5 0.101-0.18 0.17-0.38 0.209-0.58 0.032-0.21 0.033-0.41 0.006-0.62s-0.087-0.41-0.178-0.6c-0.091-0.2-0.208-0.37-0.353-0.52-0.152-0.16-0.328-0.29-0.526-0.4-0.204-0.1-0.432-0.17-0.685-0.19l-11.469-1.433zm156.79 9.073c-0.08 0-0.15 0.01-0.23 0.03-0.15 0.04-0.29 0.11-0.41 0.2-0.12 0.1-0.23 0.22-0.31 0.36-0.09 0.14-0.15 0.29-0.18 0.44-0.06 0.23-0.04 0.46 0.04 0.68 0.08 0.23 0.25 0.42 0.52 0.56l2.31 1.57-1.41 6.1-2.77 0.4c-0.3 0.01-0.54 0.09-0.72 0.27-0.17 0.18-0.29 0.38-0.34 0.62-0.04 0.16-0.05 0.32-0.03 0.48 0.01 0.17 0.05 0.32 0.12 0.46s0.16 0.27 0.28 0.37 0.26 0.18 0.44 0.22c0.12 0.03 0.26 0.04 0.39 0.02l10.92-1.7c0.47-0.05 0.86-0.12 1.18-0.21 0.32-0.1 0.58-0.22 0.79-0.36s0.37-0.31 0.48-0.51c0.12-0.2 0.21-0.43 0.27-0.7 0.06-0.26 0.09-0.5 0.07-0.73-0.01-0.23-0.08-0.45-0.2-0.67s-0.3-0.44-0.55-0.66c-0.24-0.23-0.57-0.47-0.98-0.73l-9.06-6.31c-0.06-0.05-0.12-0.09-0.19-0.12-0.06-0.02-0.13-0.04-0.19-0.05-0.08-0.02-0.16-0.03-0.24-0.03zm3.22 4.74l6.18 4.08-0.01 0.04-7.34 0.93 1.17-5.05zm-147.76 6.9c-0.93 0-1.918 0.21-2.967 0.62-1.048 0.41-1.926 0.92-2.633 1.53-0.706 0.61-1.223 1.31-1.552 2.11-0.338 0.8-0.482 1.69-0.43 2.68 0.046 0.98 0.3 2.07 0.762 3.24l1.269 3.24c0.064 0.16 0.159 0.31 0.285 0.43 0.118 0.12 0.253 0.22 0.405 0.28 0.146 0.07 0.305 0.11 0.476 0.12 0.17 0 0.337-0.03 0.5-0.09l10.7-4.2c0.163-0.06 0.306-0.15 0.427-0.27 0.114-0.12 0.204-0.26 0.27-0.41s0.1-0.31 0.103-0.48c0.001-0.18-0.029-0.35-0.093-0.51l-1.307-3.33c-0.423-1.08-0.941-1.99-1.555-2.73-0.62-0.75-1.319-1.31-2.095-1.68-0.783-0.37-1.638-0.55-2.565-0.55zm1.088 2.63c0.304 0.03 0.597 0.09 0.875 0.18 0.556 0.19 1.055 0.52 1.498 0.99 0.435 0.46 0.806 1.09 1.115 1.88l0.807 2.05-9.736 3.82-0.674-1.71c-0.298-0.76-0.464-1.47-0.5-2.14-0.043-0.66 0.056-1.27 0.299-1.83 0.243-0.55 0.63-1.06 1.162-1.5 0.531-0.45 1.218-0.83 2.06-1.17 0.764-0.3 1.477-0.48 2.141-0.55 0.331-0.04 0.648-0.05 0.953-0.02zm138.66 2.06c-0.18 0.01-0.34 0.05-0.49 0.12-0.14 0.07-0.27 0.17-0.38 0.29-0.11 0.13-0.2 0.27-0.26 0.42-0.06 0.14-0.1 0.3-0.11 0.47-0.02 0.16 0 0.32 0.05 0.47 0.05 0.16 0.14 0.3 0.25 0.43 0.12 0.14 0.28 0.24 0.47 0.32l9.96 4.22-1.28 3.02c-0.07 0.15-0.1 0.29-0.1 0.43s0.03 0.26 0.09 0.37c0.05 0.12 0.13 0.22 0.22 0.3 0.09 0.09 0.19 0.15 0.31 0.2 0.11 0.05 0.23 0.08 0.36 0.08 0.12 0.01 0.24-0.01 0.36-0.05 0.11-0.04 0.22-0.11 0.33-0.2 0.1-0.09 0.18-0.21 0.24-0.36l3.6-8.5c0.07-0.16 0.1-0.3 0.09-0.44 0-0.14-0.03-0.26-0.08-0.37-0.05-0.12-0.13-0.22-0.22-0.31-0.1-0.08-0.2-0.15-0.31-0.19-0.12-0.05-0.24-0.08-0.36-0.09-0.13-0.01-0.24 0.01-0.36 0.05s-0.23 0.11-0.33 0.2c-0.1 0.1-0.18 0.22-0.25 0.38l-1.29 3.07-9.96-4.22c-0.19-0.08-0.38-0.12-0.55-0.11z" transform="matrix(.8 0 0 -.8 0 154)"/><path id="path16" d="m81 4c39.656 0 72 32.344 72 72s-32.344 72-72 72-72-32.34-72-72c0-39.656 32.344-72 72-72z" stroke="#231f20" stroke-miterlimit="2.6131" stroke-width="2.0001" fill="none"/><path id="path18" d="m81 130c-29.742 0-54-24.26-54-54 0-29.742 24.258-54 54-54s54 24.258 54 54-24.258 54-54 54" fill-rule="evenodd" fill="#fcfcfb"/><path id="path104" d="m75.156 46.375c-1.3414 0.71094-1.7635 2.2847-2.0872 3.7056-0.33316 1.0917-0.38644 2.613-1.7236 2.7525-1.1101 0.21047-2.0613-0.5455-2.7566-1.2848-0.38442-0.43248-1.4657-0.69286-1.6201 0.10799-0.25233 0.59694 0.30685 1.6934-0.5 1.9062-0.63065-0.21606-1.2055-0.62333-1.9062-0.78125-1.01-0.38894-1.984-0.82654-3.0049-1.1743-1.7874-0.93053-3.5544-1.9512-5.5681-2.2981-1.3251-0.41763-2.6965-0.92605-4.112-0.61721-1.8328 0.57334-3.6407 1.2977-5.4088 2.0584-0.85189 0.78761-2.1832 0.97988-3.2407 1.4848-1.1257 0.5336-2.5206 0.94652-3.0718 2.1089-0.31564 1.1563-0.08847 2.402 0.09375 3.5625 0.48102 1.1139 1.7282 1.6355 2.5 2.5625 0.51954 0.46909 1.1971 0.55117 1.8675 0.59188 2.2262 0.35836 4.5082 0.29086 6.7571 0.45858 1.5434 0.00037 3.0783-0.21022 4.6254-0.20672 1.4323-0.28971 2.9219 0.05282 4.3438-0.3125 0.89934 0.15709 0.60617 1.4008 1.0625 1.9375 0.0064 0.5983-0.73926-0.03351-0.97859-0.21598-0.624-0.361-1.008-1.407-1.831-1.223-0.51041 0.61113 0.17525 1.4837 0.31082 2.1486 0.43763 0.78757 0.32308 1.8464 0.81418 2.5077-0.15213 0.14654-0.89957-0.51018-1.3713-0.53032-0.68811-0.23661-1.41-0.24501-2.1287-0.21968 1.1716 0.6963 0.76445 2.2814 1.2327 3.4296 0.28432 1.3963 0.60877 2.8072 0.86102 4.1954 0.81112 0.91712 1.025 2.0647 1.9688 2.875-0.30951 0.65996-1.2092-0.07749-1.75-0.0625-0.61271-0.03513-1.4099 0.15469-1.3125 0.9375-1.1338 0.0806-1.7461-1.4565-2.9375-1.0312-0.81083 0.60338-0.01107 1.7509 0.25 2.5 0.3778 1.256 0.93818 2.3838 1.7188 3.4375 0.35612 1.2427-0.98557 1.9376-1.5359 2.918-1.0283 1.2358-0.37408 2.9195-0.21863 4.3535 0.46434 2.9907 1.4043 5.885 2.2953 8.7594-0.0093 1.4186-0.10657 3.0353-1.0408 4.1254-0.54692 0.98561-0.20033 2.6316 1.09 2.6553 0.61649 0.0669 1.1674 0.44239 1.4725 0.93843 0.76793 0.35994 1.3642-0.75509 2.0938-0.5 0.24565 0.83542 0.77976 1.7232 1.7812 1.6562 0.96504-0.0601 0.65383-1.2901 0.70914-1.9686-0.1582-1.1533 0.38305-2.5762-0.67253-3.4011-0.82715-0.64026-1.7023-1.3205-1.9033-2.4278-0.231-0.971-0.653-1.956-0.446-2.951 0.02331-1.2246-0.29676-2.4746 0.15625-3.6562 0.24109-1.7969-0.86871-3.9405 0.4375-5.4688 0.51932-0.55884 1.5151-0.43909 1.8125 0.25 0.82521 0.8644 2.155-0.14436 3.0938 0.4375 0.63907 0.65366 1.6738 1.2545 1.5178 2.3431 0.03632 1.2446 0.88261 2.319 0.95094 3.5319-0.2531 0.94802-1.2234 1.6031-1.3411 2.641-0.65426 0.94495-1.1717 2.2881-0.53483 3.3553 0.42136 1.4807 0.1814 3.1092 0.82579 4.547 0.8122 2.9604 1.4662 5.9785 1.8765 9.0189 0.1388 1.4386 0.25242 2.9062-0.10762 4.3129-0.1049 0.75687 0.42826 1.853 1.2993 1.3504 1.0752-0.84332 1.4928-2.2886 2.0123-3.5341 0.24344-1.1511 0.20365-2.3449 0.56754-3.47 0.38083-2.5274-0.24896-5.0502-0.6291-7.5338 0.0061-1.1708 0.24271-2.3312 0.27452-3.4976 0.17893-0.48046 0.71009-1.0058 1.2255-0.59618 0.62669 0.83828 2.0127 0.81012 2.9822 1.2518 0.66858 0.14693 0.55983 1.171 0.79906 1.7482 0.39563 1.1885 1.7525 1.982 3 1.7188 0.80269-0.35261 1.0353-1.4303 1.7911-1.9473 0.78378-0.88149 1.6561-1.652 2.7714-1.959 1.1391-0.41074 2.4091-0.29089 3.5938-0.46875 0.86863-0.11578 1.3994-0.92078 1.9375-1.5625 1.0671-0.000054 2.2942-0.48708 2.5312-1.5938 0.95901-0.6393 2.0606 0.11994 2.8438 0.625 1.1654 0.74315 2.3553 1.4425 3.1672 2.5921 0.92297 0.95022 2.1949 1.5144 2.8182 2.7234 0.57561 0.82896 1.5356 1.3921 2.5771 1.0595 1.0344-0.24277 1.5863-1.516 0.90625-2.4062-0.66085-1.3418-1.7546-2.5269-2.596-3.7775-0.80451-0.84888-1.6626-1.7594-2.029-2.785-0.31622-0.73355-1.3486-1.1524-1.2812-2 1.919-0.69627 4.0312-1.246 5.3117-2.9274 0.75955-0.65459 1.5665-1.3118 1.7508-2.3226 0.53695-1.0919 0.25822-2.4149-0.46875-3.2188-0.37892-1.1354-1.255-2.0531-1.8125-3.0938-0.003-0.98331 1.6551-1.0789 1.375-2.1562-0.22833-1.0871-1.6157-0.75664-2.4623-0.97703-0.62494-0.28878-1.0447-0.90844-1.7877-1.023-0.64901-0.11748-1.2713-0.67297-1-1.4062 0.24943-0.67463 1.3938-1.4352 0.75-2.2812-1.0061-0.08168-1.946 1.0013-2.9062 0.59375 0.17225-0.58286 0.92788-0.89027 1.0559-1.5181 0.71006-1.4627 0.99534-3.1176 0.78304-4.7319-0.05874-0.89042-0.0068-1.8311-0.40145-2.6563-0.17266 1.3238-1.1409 2.4696-2.4688 2.8125-0.88543-0.0247-0.55269-1.2408-0.49307-1.8748 0.14567-1.831-0.06544-3.9619 1.3368-5.3752 0.54308-0.98793 1.7957-1.2281 2.8125-0.84375 1.417 0.3987 2.8685 0.88343 4.0625 1.625 1.7963 0.13384 2.8682 1.7838 4.6408 2.1065 1.1935 0.28583 2.1876 0.85312 3.1717 1.456 2.0845 0.81707 4.3634 0.94114 6.5619 1.1697 1.0785 0.000842 2.3155-0.25626 3.0631-0.91969 1.2589-0.62264 1.8965-1.9966 2.1562-3.3438 0.40989-1.0383 1.2727-2.0108 0.94958-3.218-0.18965-1.2788-0.3726-2.7228-1.5174-3.4832-0.9289-0.58746-1.7318-1.3691-2.5572-2.0175-1.2194-0.55286-2.6133-0.64848-3.7812-1.3438-1.0767-0.32185-2.1903-0.47337-3.2797-0.7695-1.46-0.29-2.94-0.182-4.41-0.356-1.4971-0.05016-2.9465 0.31838-4.4062 0.5625-1.0656-0.23504-2.0878 0.32018-3.1562 0.40625-1.4935 0.04871-2.9476 0.35231-4.404 0.68-1.2153 0.28699-2.4262 0.61104-3.6189 0.98987-0.80882 0.37735-1.6755 0.64657-2.3833 1.2676-0.47433 0.44456-1.0108 0.57276-1.5625 0.125-0.89332-0.6284-1.4263-1.9269-2.1655-2.8359-0.70144-0.9434-1.1675-2.2234-0.64085-3.4045 0.2474-0.54608 0.34874-1.6905-0.4712-1.6668-1.7197 0.35594-2.3299 2.2775-3.3017 3.5543-0.3707 0.56247-0.61107 1.2727-1.3858 1.2894-2.0484 0.34626-4.3084-0.35118-5.3543-2.1968-0.444-0.699-0.855-1.379-1.085-2.177-0.046-0.433 0.451-1.606-0.469-1.219z" fill-rule="evenodd" stroke="#000" stroke-miterlimit="2.6131" stroke-width=".4" fill="#231f20"/><path id="path106" d="m72.019 109.78c-0.06781-1.8156-0.25703-3.6282-0.57834-5.4144-0.19276-1.3833-0.08622-2.7955 0.22166-4.1494-0.07064-1.2701-1.482-1.6611-2.3108-2.3608-1.213-0.09-1.2595-2.4803-2.2695-2.1771-0.65243 1.1719-0.65427 2.5146-0.66845 3.8114-0.15576 1.3084 0.47623 2.4721 0.76739 3.7026 0.29201 1.4636 0.62125 2.9205 1.1529 4.3176 0.42605 1.3813 0.5284 2.8116 0.61746 4.2327 0.38742 1.4991 0.48609 3.0588 0.26827 4.5932-0.08913 0.56674-0.07732 1.943 0.64248 1.001 0.793-1.0972 1.4552-2.3775 1.4338-3.7668 0.029-1.29 0.235-2.59 0.723-3.79z" fill-rule="evenodd" stroke="#000" stroke-miterlimit="2.6131" stroke-width=".16" fill="#e9e9e9"/><path id="path108" d="m104.19 101.98c0.0441-0.59866 0.0868-1.2135-0.49683-1.5576-0.50705-0.72676-0.96186-1.5253-1.7045-2.0411-0.62569-0.67166-1.0358-1.5069-1.5632-2.2497-0.23076-0.6619-0.72893-1.1449-1.1118-1.7046-0.40257-0.58803-1.0922-1.0133-1.7883-1.0853-0.68197 0.25034-1.3623 0.48058-2.0193 0.8072-0.46452 0.49926-1.2692 0.62004-1.573 1.2635-0.34799 0.88566 0.68981 0.98731 1.2 1.3357 0.37634 0.65187 1.2715 0.60934 1.7113 1.1968 0.64088 0.63709 1.3218 1.2364 2.0833 1.7255 0.64273 0.51042 1.1144 1.2288 1.8518 1.6192 0.40422 0.62181 0.87454 1.2203 1.4184 1.7153 0.48935-0.0562 0.90919-0.42427 1.4401-0.33592 0.28-0.1 0.6-0.36 0.55-0.69z" fill-rule="evenodd" stroke="#000" stroke-miterlimit="2.6131" stroke-width=".16" fill="#e9e9e9"/><path id="path110" d="m80.291 103.52c-0.27469-0.23974-0.68061-0.13136-0.98835-0.27003-0.21059-0.43475 0.40465-0.30062 0.63234-0.21304 0.35456 0.10502 0.83149 0.23327 1.1031-0.10577-0.14909-0.095-0.51721 0.0377-0.74604-0.00013-0.26019-0.0235-0.6439 0.0254-0.81664-0.13984 0.07061-0.34084 0.52722-0.27408 0.78904-0.27631 0.37715-0.005 0.7981 0.20702 1.1377-0.0405 0.06058-0.29444-0.53965-0.19061-0.74756-0.2394-0.37784-0.0172-0.7808 0.0783-1.1371-0.0871 0.0073-0.23051 0.57122-0.0719 0.7852-0.0856 0.38334 0.033 0.81928 0.0759 1.1489-0.16177-0.22397-0.16482-0.66269-0.0169-0.96767-0.0451-0.19764 0.0277-0.49635-0.006-0.20552-0.18118 0.51984-0.24627 1.1201-0.13171 1.6705-0.0897 0.63561-0.0518 1.0356-0.65077 1.6431-0.78762 0.499-0.21485 0.7001-0.90712 1.2947-0.95056 0.52658 0.06768 1.0192-0.33258 1.5426-0.1568 0.2335 0.15184 0.57963 0.58159 0.74349 0.09678 0.05038-0.26586-0.07069-0.77464 0.34823-0.75941 0.16174 0.002 0.50389 0.02144 0.17667-0.05621 0.10218-0.33263 0.57795-0.28133 0.8558-0.19028 0.23026 0.0815 0.75757 0.0759 0.71897-0.24857-0.15497-0.06986-0.69894-0.06648-0.30244-0.28511 0.33185-0.27667-0.3951-0.25257-0.56729-0.27614-0.39912-0.02857-0.8142 0.11983-1.1982-0.05601-0.45959-0.14952-0.70024-0.74856-0.41636-1.1568 0.32818-0.39999 0.89507-0.35825 1.3584-0.44717 0.2081 0.05922 0.75131-0.3691 0.36494-0.40841-0.50094 0.16216-1.0484 0.38896-1.5753 0.21273-0.41966-0.20458-0.3494-0.82011-0.03516-1.0896 0.43666-0.38547 1.0539-0.4151 1.5562-0.67927 0.40086-0.15625 0.93417-0.01828 1.2474-0.36078 0.02138-0.2272 0.0098-0.49328 0.32071-0.48326 0.60776-0.21918 1.224-0.55023 1.5479-1.134 0.31354-0.32394 0.47853-0.91561 0.11974-1.2668-0.311-0.12709-0.62741-0.22407-0.90948-0.43143-0.4837-0.16102-1.0025-0.04732-1.4987-0.13333-0.71531-0.06192-1.435-0.21702-2.1533-0.14644-1.0625 0.29295-2.1477-0.07666-3.2217-0.06257-1.6505-0.07713-3.308 0.31854-4.9499 0.02101-1.4025-0.1129-2.793 0.17854-4.1564 0.46965-1.4485 0.1959-2.9295 0.23418-4.3357 0.66942-0.61954 0.14511-1.289 0.14274-1.8586 0.45457-0.3137 0.26438-0.15248 0.73103 0.06007 1.0058 0.26319 0.37464 0.51771 0.74866 0.88357 1.0307 0.40454 0.39036 0.76728 0.82132 1.1153 1.262 0.11344 0.64921 0.68976 1.0597 1.2009 1.4017 0.31017 0.30121 0.4053 0.74837 0.58494 1.1302 0.1194 0.27433 0.28763 0.51535 0.35721 0.80736 0.29727 0.61708 0.98684 0.86838 1.4311 1.3534 0.5119 0.3731 1.2045 0.25094 1.7408 0.56844 0.58087-0.0225 1.2192 0.38165 1.2538 1.0022-0.0019 0.67177 0.26032 1.337 0.73453 1.8153 0.23603 0.3561 0.62377 0.0454 0.92331-0.0149 0.3065-0.004 0.54126 0.25171 0.84699 0.27216 0.181 0.04 0.381 0.04 0.548-0.06z" fill-rule="evenodd" stroke="#000" stroke-miterlimit="2.6131" stroke-width=".16" fill="#999da9"/><path id="path112" d="m62.12 105.73c-0.000648-0.35554-0.28818-0.69176-0.13972-1.0488 0.13546-0.1816 0.47332-0.22459 0.39047-0.52683 0.03994-0.40555 0.14109-0.83895-0.05243-1.223-0.13915-0.4208-0.14047-0.93678-0.5216-1.2322-0.41788-0.34016-1.0173-0.40355-1.3621-0.84384-0.2621-0.26475-0.54157-0.55268-0.6182-0.93122-0.13241-0.2188-0.31972-0.44475-0.56991-0.52266-0.31738-0.04005-0.98456 0.3872-0.91668 0.6726 0.04077 0.23858 0.16025 0.46586 0.13052 0.71286 0.04377 0.27196 0.77707 0.30407 0.96696 0.45403 0.22413 0.0564 0.44264 0.17986 0.48881 0.42747 0.11338 0.34144 0.1583 0.70217 0.26443 1.0446 0.02689 0.25586-0.3064 0.62052 0.01055 0.78711 0.37522 0.0668 0.31068-0.36023 0.37286-0.58938 0.10776-0.10616 0.06202-0.58405 0.26818-0.34974 0.22378 0.23794 0.13354 0.58397 0.04181 0.85816-0.12217 0.43494-0.21282 0.95626 0.08093 1.3448 0.25589 0.19985 0.26153 0.54429 0.38789 0.81781 0.12951 0.21338 0.28885 0.40656 0.43643 0.6036 0.17438 0.18662 0.5144-0.00053 0.42004-0.24927-0.015-0.07-0.045-0.14-0.079-0.21z" fill-rule="evenodd" stroke="#000" stroke-miterlimit="2.6131" stroke-width=".16" fill="#f6845a"/><path id="path114" d="m59.962 104.32c-0.27356-0.0689-0.40137 0.3254-0.66096 0.2699-0.18315-0.0997-0.2082-0.35267-0.16507-0.53805 0.04685-0.19135 0.19728-0.34435 0.37891-0.41306 0.24422-0.17079 0.23856-0.52218 0.13532-0.77213-0.09355-0.23058 0.07109-0.43809 0.10432-0.65937 0.05348-0.20349-0.05001-0.41117-0.22435-0.5177-0.19432-0.14518-0.44942-0.15536-0.67829-0.10479-0.19019 0.0396-0.42212 0.0263-0.54942 0.20081-0.22128 0.28402-0.18729 0.6649-0.25632 0.99988-0.05053 0.33176-0.17578 0.67351-0.05616 1.006 0.06157 0.29484 0.09788 0.59591 0.19035 0.88356 0.21189 0.24717 0.53743 0.43901 0.87276 0.38204 0.23528-0.0797 0.30072-0.45112 0.58549-0.41714 0.184 0.03 0.463-0.09 0.323-0.32z" fill-rule="evenodd" stroke="#000" stroke-miterlimit="2.6131" stroke-width=".16" fill="#f6845a"/><path id="path116" d="m92.387 96.464c0.31645-0.18548 0.13904-0.59887 0.23259-0.88597 0.18392-0.25456 0.5781-0.19857 0.7704-0.46709 0.47137-0.41355 0.84964-0.95045 1.4365-1.2157 0.63471-0.32958 1.307-0.59934 2.0025-0.76843 0.69611-0.14894 1.4458-0.20213 2.0516-0.61325 0.75018-0.21962 1.5091-0.43184 2.2107-0.78341 0.69154-0.06253 1.0453-0.75466 1.6261-1.0398 0.38215-0.15303 0.70851-0.41903 1.0767-0.60612 0.42692-0.24383 0.83255-0.55543 1.0772-0.99033 0.39714-0.40655 0.63123-0.93163 0.82397-1.4586 0.11177-0.36491 0.33541-0.67974 0.47084-1.0303 0.12155-0.48733-0.26982-0.87233-0.52347-1.238-0.44079-0.56972-0.57551-1.3102-1.0117-1.8807-0.21418-0.30204-0.62692-0.39343-0.78946-0.74184-0.21928-0.33793-0.3453-0.80857-0.76054-0.95836-0.34172-0.11162-0.60161 0.19059-0.88599 0.31839-0.93561 0.50612-1.9403 0.89103-2.8117 1.5102-0.19278 0.05246-0.70782 0.36407-0.25365 0.42274 0.36031 0.1474 0.4898 0.60156 0.8268 0.81429 0.31367 0.28579 0.70427 0.47115 1.1095 0.58101 0.28719 0.16589 0.70057 0.4442 0.63971 0.81632-0.18902 0.22455-0.51865 0.03338-0.72789 0.23178-0.63669 0.33251-1.2 0.79056-1.8501 1.099-0.74568 0.79037-1.5398 1.5494-2.1203 2.4765-0.52513 0.75465-1.1256 1.5209-1.9916 1.8979-0.55449 0.2972-1.0707 0.66096-1.5607 1.0544-0.02216 0.28657-0.35977 0.44322-0.59575 0.28229-0.21486-0.19618-0.47235-0.4619-0.73472-0.15653-0.34269 0.25336-0.59166 0.71346-1.055 0.74664-0.30207 0.0036-0.48847 0.29333-0.75682 0.39324-0.42797 0.2199-0.9057 0.33133-1.3842 0.36174-0.39544 0.42569-1.0293 0.28302-1.5272 0.46722-0.27271 0.04964-0.58599 0.45987-0.22368 0.6196 0.34112 0.11176 0.71034 0.01671 1.0593-0.01461 0.40129-0.03925 0.80413-0.07835 1.1853-0.22104 0.43068-0.13243 0.89619-0.27767 1.3457-0.15348 0.17628 0.21417-0.18208 0.52555-0.37086 0.65526-0.63425 0.36746-1.4002 0.31038-2.0846 0.52661-0.30943 0.07267-0.72227 0.05522-0.90843 0.35726 0.0042 0.19158 0.08232 0.40268-0.16346 0.45704 0.0077 0.31718 0.48955 0.32017 0.73881 0.3564 0.29924 0.01523 0.53295-0.22343 0.83592-0.21079 0.52238-0.08488 1.1208-0.17581 1.4588-0.63132 0.30235-0.25304 0.70392-0.41408 1.0988-0.39912 0.27824 0.14891 0.04239 0.5991-0.1433 0.69231-0.27626-0.11096-0.5937-0.04018-0.74607 0.20602-0.23646 0.13053-0.56947 0.20135-0.69098 0.45823 0.17781 0.18012 0.47305 0.26206 0.73312 0.26289 0.58488-0.01064 1.066-0.41575 1.4885-0.77688 0.225-0.211 0.353-0.517 0.373-0.823z" fill-rule="evenodd" stroke="#000" stroke-miterlimit="2.6131" stroke-width=".16" fill="#f6845a"/><path id="path118" d="m57.654 103.48c0.03518-0.37829-0.0728-0.76471-0.0015-1.1364-0.03395-0.4634 0.5443-0.66838 0.55842-1.1135-0.09704-0.31557-0.32812-0.57793-0.42865-0.89005-0.35645-0.29003-0.53007 0.21132-0.65957 0.45463-0.28561 0.21597-0.44607 0.50549-0.54749 0.83639-0.17345 0.28428-0.49541 0.48917-0.52779 0.84715-0.03885 0.317-0.08545 0.63716-0.10534 0.95437 0.07561 0.35653 0.47778 0.45952 0.74041 0.64551 0.416 0.24 0.859-0.24 0.971-0.6z" fill-rule="evenodd" stroke="#000" stroke-miterlimit="2.6131" stroke-width=".16" fill="#f6845a"/><path id="path120" d="m70.166 97.127c-0.04763-0.32057-0.28394-0.56196-0.48844-0.79546-0.17627-0.20188-0.35364-0.43963-0.35217-0.7202 0.0038-0.23539-0.16758-0.41501-0.30397-0.58754-0.09479-0.12022-0.18625-0.25874-0.19063-0.4163-0.01953-0.10243-0.135-0.12637-0.2103-0.17646-0.15399-0.07803-0.36657-0.12197-0.50704 0.0064-0.10265 0.09107-0.21337 0.17238-0.32005 0.25867-0.01991 0.2783 0.17328 0.5028 0.32766 0.7127 0.08992 0.12537 0.17582 0.26263 0.19442 0.41907 0.05165 0.10943 0.16324 0.17149 0.2428 0.25838 0.37297 0.33777 0.7711 0.65282 1.0888 1.0462 0.19189 0.20904 0.40969 0.39427 0.64681 0.55013 0.1732 0.21458 0.35681 0.43412 0.60069 0.56995 0.09828 0.0347 0.11622-0.06254 0.04792-0.11614-0.11661-0.22672-0.10142-0.51498-0.28556-0.70703-0.10762-0.11477-0.26986-0.06404-0.40203-0.09323-0.077-0.034-0.13-0.129-0.089-0.209z" fill-rule="evenodd" stroke="#000" stroke-miterlimit="2.6131" stroke-width=".16" fill="#b56f37"/><path id="path122" d="m81.641 94.723c0.01037-0.16041-0.10357-0.30271-0.24388-0.36776-0.17644-0.09352-0.37413-0.13982-0.54688-0.24115-0.30655-0.13785-0.66848-0.20782-0.99167-0.08513-0.19853 0.05841-0.40355 0.09143-0.60582 0.1345-0.28545 0.05675-0.57145 0.11101-0.85533 0.1753 0.03169 0.12039-0.03913 0.24906-0.15364 0.29421-0.17032 0.09137-0.39254 0.10458-0.51724 0.26768-0.11276 0.16813-0.28141 0.2929-0.37929 0.47242-0.06485 0.10307-0.09697 0.2453-0.01898 0.35068 0.03981 0.07536 0.12469 0.09197 0.19975 0.11113 0.24332 0.07336 0.4722 0.23211 0.58312 0.46613 0.11215 0.13559 0.30716 0.16879 0.47387 0.14544 0.23174-0.03358 0.44933-0.12727 0.67976-0.16807 0.34748-0.07131 0.69942-0.12266 1.0422-0.21534 0.19081-0.17962 0.24748-0.46986 0.47538-0.61478 0.05985-0.04776 0.14598-0.03748 0.20047-0.09027 0.18942-0.16051 0.23962-0.43665 0.45084-0.57591 0.061-0.039 0.134-0.061 0.207-0.059z" fill-rule="evenodd" stroke="#000" stroke-miterlimit="2.6131" stroke-width=".16" fill="#231f20"/><path id="path124" d="m89.291 93.12c-0.08944-0.48626-0.16933-0.97661-0.31539-1.4491-0.09806-0.41534-0.52044-0.54585-0.88888-0.62374-0.29103-0.08983-0.56911 0.07406-0.80991 0.22162-0.331 0.15967 0.048 0.58505-0.27222 0.73199-0.27997 0.0039-0.4095 0.31962-0.49578 0.53487 0.07 0.27339 0.06056 0.63934 0.2513 0.83866 0.30337-0.02453 0.57966 0.03177 0.84092 0.19605 0.35063 0.13303 0.75394 0.23215 0.98626 0.55246 0.38896 0.13955 0.36237-0.45613 0.54418-0.66175 0.054-0.113 0.107-0.227 0.16-0.341z" fill-rule="evenodd" stroke="#000" stroke-miterlimit="2.6131" stroke-width=".16" fill="#231f20"/><path id="path126" d="m79.708 95.66c-0.33229-0.11497-0.69105-0.13978-1.0144-0.28246-0.04448-0.0262-0.11352-0.03849-0.10958-0.10095-0.02035-0.07136-0.08743-0.11368-0.15249-0.13954-0.07351-0.0333-0.15942-0.06206-0.20284-0.13515-0.01347-0.05298-0.05184-0.0965-0.1097-0.09413-0.13609-0.02277-0.28984 0.07272-0.30833 0.21386-0.0071 0.07699 0.04624 0.14849 0.11548 0.17762 0.0767 0.03829 0.15252 0.0814 0.23811 0.09641 0.17364 0.0383 0.3634 0.02073 0.52219 0.11252 0.06036 0.03233 0.10494 0.08479 0.14608 0.13802 0.098 0.1079 0.25315 0.14999 0.39478 0.12728 0.14174-0.01649 0.27335-0.07609 0.4109-0.10933 0.023-0.002 0.046-0.003 0.07-0.004z" fill-rule="evenodd" stroke="#000" stroke-miterlimit="2.6131" stroke-width=".16" fill="#b2b1b1"/><path id="path128" d="m80.674 95.191-0.5633-0.148-0.3086-0.2016-0.255 0.0535-0.5633-0.1484-0.2551 0.0535-0.2547 0.0535 0.2547-0.0535 0.3086 0.2016 0.8719 0.35 0.2551-0.0536 0.2546-0.0535 0.2551-0.0535" fill-rule="evenodd" stroke="#000" stroke-miterlimit="2.6131" stroke-width=".16" fill="#b2b1b1"/><path id="path130" d="m88.579 93.535c-0.08503 0.01783-0.17007 0.03567-0.2551 0.0535-0.0177-0.08503-0.0354-0.17007-0.0531-0.2551-0.13797 0.05924-0.30396 0.03799-0.42874-0.04299-0.08493-0.0545-0.14859-0.14535-0.15878-0.24703-0.03372-0.06786-0.09779-0.11804-0.17072-0.13743-0.14877-0.04155-0.30842-0.0045-0.45575-0.05383-0.033-0.01874-0.07009-0.0213-0.10617-0.0091-0.04864 0.01154-0.08808 0.05534-0.08917 0.10613-0.0047 0.10825 0.09748 0.20722 0.20578 0.19841 0.0499-0.0034 0.09703 0.02454 0.14624 0.03251 0.13703 0.03512 0.28142 0.05816 0.42203 0.03093 0.08086 0.11593 0.20485 0.18966 0.32275 0.2625 0.06848 0.04239 0.13712 0.08546 0.19769 0.13888 0.09185 0.02502 0.18569-0.0064 0.2722-0.03644 0.049-0.017 0.099-0.034 0.151-0.041z" fill-rule="evenodd" stroke="#000" stroke-miterlimit="2.6131" stroke-width=".16" fill="#b2b1b1"/><path id="path132" d="m59.094 98.914c1.0193-0.11038 0.01042-1.377 0.19769-2.0132-0.0453-1.5658 0.01552-3.1353 0.08351-4.6988 0.07118-1.04 0.25124-2.1007 0.05229-3.1308-0.29462-0.81487-0.10473-1.6837-0.44149-2.4771 0.27569-0.37952 0.79364 0.49394 1.097-0.15872 0.49319-0.68604 1.2417-1.2798 1.3982-2.1461-0.3254-0.65705-1.0025-1.2554-1.704-1.5655-0.73907-0.15466-1.1524-1.4855-2.0339-0.92257-0.82289 0.51847-1.264 1.4156-1.7947 2.1901-0.61746 0.43519-1.3033 1.0354-1.0222 1.8143-0.47388 0.79567-0.01655 1.6607-0.07844 2.4872-0.0078 0.97951 0.30305 1.9202 0.50877 2.8679 0.29219 0.75867 0.64528 1.4971 0.74226 2.3176 0.13893 0.91966 0.38535 1.8166 0.74605 2.6724 0.29209 0.89117 0.62637 1.8383 0.44653 2.7804 0.07051 0.9219 1.0768 0.77287 1.4228 0.1192 0.109-0.081 0.242-0.141 0.38-0.136z" fill-rule="evenodd" stroke="#000" stroke-miterlimit="2.6131" stroke-width=".16" fill="#f6845a"/><path id="path134" d="m93.37 92.265-0.0535-0.2547 0.2551-0.0539-0.0531-0.255 0.2015-0.3082-0.0535-0.2551-0.2551 0.0535-0.0535-0.2547-0.2547 0.0531-0.0535-0.255-0.3617-0.4563 0.1601 0.7649-0.4031 0.6167 0.0535 0.2551 0.0532 0.2551 0.0535 0.2547 0.5097-0.107 0.2551-0.0532" fill-rule="evenodd" stroke="#000" stroke-miterlimit="2.6131" stroke-width=".16" fill="#b56f37"/><path id="path136" d="m94.539 91.488-0.3086-0.202-0.3496 0.8719 0.255-0.0535 0.2016-0.3082 0.2547-0.0535-0.0531-0.2547" fill-rule="evenodd" stroke="#000" stroke-miterlimit="2.6131" stroke-width=".16" fill="#e9e9e9"/><path id="path138" d="m81.077 94.575c-0.2369-0.15974-0.51316-0.24302-0.78184-0.33183-0.05674-0.03039-0.11976 0.0021-0.17913 0.0041-0.15589 0.02085-0.31926 0.02804-0.46214 0.10032-0.04199 0.02381-0.08118 0.06256-0.08598 0.11286 0.02032 0.0448 0.07898 0.04332 0.1168 0.06628 0.25225 0.08944 0.53403 0.05785 0.77838 0.17431 0.0573 0.03093 0.11662 0.05784 0.17947 0.07539 0.11828 0.03787 0.24368 0.07232 0.36871 0.05403 0.05418-0.0081 0.10247-0.05266 0.10155-0.10961 0.003-0.052-0.017-0.1-0.036-0.146z" fill-rule="evenodd" stroke="#000" stroke-miterlimit="2.6131" stroke-width=".16" fill="#b2b1b1"/><path id="path140" d="m88.78 93.227c-0.15741-0.23018-0.34212-0.44789-0.57637-0.6031-0.12216-0.08076-0.258-0.14196-0.40119-0.1738-0.15756-0.05875-0.3017-0.1558-0.46951-0.18505-0.09388-0.01615-0.19605-0.0037-0.27677 0.04926-0.05966 0.03845-0.10225 0.1083-0.09277 0.18086 0.01374 0.1179 0.12669 0.20712 0.24243 0.21082 0.0364-0.0036 0.07054 0.000078 0.10434 0.01506 0.21177 0.06658 0.43128 0.10648 0.65204 0.1278 0.16108 0.03245 0.30167 0.12586 0.42473 0.23106 0.05346 0.04486 0.1034 0.0937 0.15522 0.14035 0.068 0.055 0.168 0.054 0.238 0.007z" fill-rule="evenodd" stroke="#000" stroke-miterlimit="2.6131" stroke-width=".16" fill="#b2b1b1"/><path id="path142" d="m88.929 92.664c0.0059-0.13848-0.07236-0.2701-0.1826-0.34971-0.1093-0.08096-0.25823-0.1159-0.3887-0.06918-0.17483-0.09885-0.37513-0.13288-0.56494-0.19135-0.04245-0.01162-0.08105-0.03613-0.12552-0.02692-0.07323-0.01005-0.13383-0.0567-0.19976-0.08645-0.03634-0.01621-0.08156-0.03668-0.11971-0.01439-0.02459 0.01901-0.05183 0.06216-0.03538 0.0904 0.16297 0.1982 0.41589 0.32257 0.67342 0.32123 0.16237 0.08741 0.35512 0.08311 0.52155 0.15967 0.06311 0.02862 0.11905 0.07303 0.15919 0.12971 0.05273 0.0659 0.14981 0.09064 0.22714 0.05606 0.012-0.005 0.024-0.012 0.035-0.019z" fill-rule="evenodd" stroke="#000" stroke-miterlimit="2.6131" stroke-width=".16" fill="#b2b1b1"/><path id="path144" d="m95.76 90.966 0.7527-1.4887 0.4031-0.6168 0.9664-0.4687 0.4031-0.6168 0.2016-0.3086 0.4567-0.3617 0.255-0.0535 0.2016-0.3086 0.7116-0.4153 0.255-0.0531-0.107-0.5101-0.053-0.2551-0.3086-0.2016-0.3086-0.2015-0.5632-0.1481-0.3086-0.2016-0.0532-0.2546-0.3621-0.4567-0.255 0.0531-0.2016 0.3086-0.5102 0.1067-0.2547 0.0535-0.2015 0.3086-0.2016 0.3082-0.7113 0.4152-0.7117 0.4153-0.2016 0.3086-0.2551 0.0531-0.2015 0.309-0.5102 0.1066-0.2547 0.0535-0.255 0.0531-0.2551 0.0536-0.2551 0.0535-0.2016 0.3082-0.148 0.5637 0.0535 0.2546-0.2551 0.0536 0.0535 0.2554 0.0532 0.2547 0.107 0.5098 0.0535 0.2554 0.0531 0.2547 0.2551-0.0535 0.3086 0.2016 0.0531 0.2555 0.2555-0.054 0.3617 0.4567 0.5633 0.148 0.0535 0.2551 0.2551-0.0535 0.0531 0.2551 0.7653-0.1602" fill-rule="evenodd" stroke="#000" stroke-miterlimit="2.6131" stroke-width=".16" fill="#fff"/><path id="path146" d="m91.804 88.601c0.02084-0.63291-0.30442-1.4604-1.0417-1.4716-0.87706-0.05076-1.7308-0.30262-2.6145-0.27488-0.66372 0.007-1.3269 0.04147-1.9862-0.05888-0.41075-0.05994-0.83046-0.0034-1.2363-0.01383-1.7506-0.3166-3.5293-0.05186-5.2857 0.08152-0.34236 0.01312-0.65527-0.28011-1.0215-0.02478-0.54034 0.11505-1.1078 0.02381-1.6573 0.10304-0.93793 0.09934-1.896 0.01756-2.8121 0.28288-1.2947 0.28878-2.604 0.53977-3.8441 1.0264-0.78261 0.33968-1.683 0.28519-2.4491 0.68036 0.23755 0.83509 0.47511 1.6702 0.71266 2.5053 0.76729 0.1165 1.5156-0.18981 2.2652-0.31106 0.9924-0.19916 1.9819-0.44481 2.9853-0.56908 0.67357 0.0664 1.3526 0.0367 1.9915-0.20503 1.0894-0.29993 2.2403-0.46772 3.3608-0.2529 0.66791-0.07259 1.3677-0.24044 1.974 0.13973 0.62134-0.03796 1.2397-0.08337 1.864-0.0839 0.59326-0.13738 1.1946-0.11068 1.798-0.10205 0.72209-0.11358 1.444 0.05556 2.1687 0.0074 0.89416-0.21017 1.782 0.26558 2.6791 0.08047 0.62428-0.13799 1.1898 0.19234 1.7773 0.27253 0.66172 0.0157 0.8069-0.72536 0.50851-1.1922-0.076-0.198-0.15-0.404-0.137-0.619z" fill-rule="evenodd" stroke="#000" stroke-miterlimit="2.6131" stroke-width=".16" fill="#b2b1b1"/><path id="path148" d="m91.146 89.271c0.54623-0.74686-0.09628-1.8574-0.96246-1.9622-0.79925-0.20753-1.7801 0.55536-1.4718 1.4069 0.27839 0.8893 1.5206 1.396 2.2887 0.81256 0.07-0.07 0.123-0.16 0.146-0.257z" fill-rule="evenodd" stroke="#000" stroke-miterlimit="2.6131" stroke-width=".16" fill="#231f20"/><path id="path150" d="m90.891 89.324c0.687-0.863-0.772-2.21-1.544-1.402-0.654 0.897 0.72 1.989 1.544 1.402z" fill-rule="evenodd" stroke="#000" stroke-miterlimit="2.6131" stroke-width=".16" fill="#da2c29"/><path id="path152" d="m87.107 89.052c0.37179-1.4892-1.8603-2.703-2.7097-1.2781-0.50661 1.388 1.3848 2.452 2.4317 1.5019l0.144-0.106 0.134-0.118z" fill-rule="evenodd" stroke="#000" stroke-miterlimit="2.6131" stroke-width=".16" fill="#231f20"/><path id="path154" d="m86.947 88.288c-0.1183-1.1832-2.1866-1.1244-2.2942 0.02458 0.0491 1.2237 2.2362 1.3529 2.3046 0.08696l-0.01-0.112z" fill-rule="evenodd" stroke="#000" stroke-miterlimit="2.6131" stroke-width=".16" fill="#da2c29"/><path id="path162-3" d="m79.24 87.67c-0.15217 0.32688-0.16978 0.73583 0.03265 1.046 0.23032 0.3661 0.64284 0.57282 1.0522 0.67054 0.45807 0.10546 0.9562 0.08544 1.3887-0.108 0.31642-0.1421 0.58341-0.40505 0.69566-0.73714 0.14499-0.39577 0.08899-0.8536-0.13766-1.2077-0.31461-0.50872-0.87836-0.84803-1.47-0.91388-0.38796-0.04392-0.79655 0.0561-1.1007 0.30611-0.25476 0.20321-0.46213 0.50144-0.46538 0.83764 0 0.035 0.002 0.071 0.005 0.106z" fill-rule="evenodd" stroke="#000" stroke-miterlimit="2.6131" stroke-width=".16" fill="#231f20"/><path id="path156" d="m96.868 83.547c-0.6148 0.18314-1.313 0.3324-1.9335 0.10377-0.47648-0.41911 0.34325-0.84756 0.4764-1.2574 0.92285-1.4052 1.9175-2.7722 2.6595-4.2862 0.62361-1.0544 1.7255-1.8131 2.0628-3.0342 0.30755-0.31748 0.29258-0.98756-0.28998-0.70544-0.78232 0.22222-1.5381 0.76136-2.3856 0.54449-0.50088 0.0257-0.97221-0.58203-0.29423-0.77554 0.51422-0.20322 0.83274-0.71014 1.1236-1.1573 0.74537-1.3192 0.97745-2.8486 1.1681-4.3304 0.01929-0.46915 0.10827-1.0554-0.26521-1.4155-0.59613 0.92788-1.9531 0.77438-2.5849 1.6509-0.14032 0.28588-0.1722 0.83182-0.62059 0.67366-0.06017-0.54152 0.3449-1.0787 0.15576-1.6277-0.17231-0.59046-0.03697-1.26-0.09283-1.8816 0.03661-0.66312-0.17067-1.3353 0.0016-1.9841 0.2062-1.0153 0.41948-2.0397 0.83653-2.9933 0.44751-0.33526 0.99368-0.85458 0.89152-1.4651-0.43906-0.45206-1.0774 0.14469-1.5849 0.1583-1.0533 0.13502-2.0777-0.39017-2.8718-1.0378-0.90851-0.77558-1.8037-1.5666-2.7116-2.3429-0.72222-0.89159-1.6734-1.6127-2.1745-2.6703-0.53282-0.87263-0.96887-1.8327-1.743-2.5268-0.46973-0.66149-0.16356-1.506 0.05991-2.1996 0.1155-0.42659 0.46063-1.1513 0.04011-1.4119-0.95192 0.22742-1.434 1.1583-1.9105 1.9215-0.26559 0.41818-0.56489 0.83373-0.9838 1.111-0.40138 1.0714-1.4719 1.7431-2.5698 1.9088-0.8224 0.15636-1.7047 0.12954-2.4491-0.29361-0.82655-0.42932-1.5471-1.0481-2.0858-1.8081-0.72732-0.94346-1.3439-1.9961-1.6497-3.1552-0.10319-0.71076-0.92845 0.16889-1.0619 0.51639-0.16385 0.52103-0.06334 1.0335-0.39741 1.5323-0.29297 0.72493-0.52605 1.5254-0.34492 2.3089-0.37632 0.76894-1.0354 1.6369-1.9901 1.5707-0.43601-0.16791-0.88325-0.06441-1.3225-0.20993-0.86192-0.31012-1.3748-1.2792-2.3333-1.3561-0.58774-0.10573-0.50468 0.44992-0.52208 0.85378-0.07769 1.2318-0.34562 2.4391-0.63116 3.636-0.20615 1.0872-0.26082 2.3726 0.52332 3.2551 0.30961 0.30671 0.7593 0.57186 0.76012 1.0662-0.11058 0.7091-0.77014-0.0156-1.1573-0.06552-1.0558-0.39209-2.0355-0.99589-2.8433-1.7824-0.96933-0.64436-1.7946-1.5325-2.9046-1.9453 0.15107 1.2666 0.70948 2.5377 0.34363 3.8205-0.16464 1.0409 0.40543 2.0178 1.0623 2.774 0.33779 0.39521 0.21527 1.157-0.39417 1.15-0.65255 0.08521-0.94276-0.55664-1.3637-0.8927-0.33672-0.23866-0.75163-0.62074-1.0538-0.74663 0.20197 1.3367 0.53555 2.6748 1.1921 3.8664 0.38842 0.40883 0.71057 0.90549 0.87607 1.4468-0.27948 0.19535-0.64707-0.59032-0.97319-0.72262-0.82428-0.62808-1.8239-0.95731-2.7437-1.4089-0.34498-0.19957-0.89558 0.09316-0.3815 0.38858 0.2711 0.30543 0.24394 0.80908 0.37305 1.1997 0.38547 1.9349 0.70933 3.8929 1.3435 5.7665 0.33261 0.93842 0.81825 1.84 1.499 2.5687 0.36961 0.36877 0.95163 0.57499 1.1462 1.0889-0.07294 0.66261-0.83719-0.10888-1.236-0.09973-0.61434-0.19318-1.2683-0.32232-1.9125-0.22469-0.319 0.5795 0.22433 1.0931 0.68519 1.3623 0.59239 0.294 0.77037 0.94808 1.2686 1.333 0.66539 0.63627 1.273 1.3446 1.7006 2.164 0.6241 0.69578 1.6979 0.74605 2.2994 1.4652 0.28764 0.46352-0.12726 0.90369-0.61551 0.792-0.46167 0.10836-1.2311 0.23235-1.2524 0.82672 0.10983 0.52736 0.64178 0.57712 1.07 0.67071 1.1069 0.3541 1.7272 1.3948 2.4806 2.1941 0.96618 0.80153 2.3171 0.72379 3.4718 0.48161 0.938-0.16873 1.8415-0.48977 2.7932-0.58126 0.3679-0.0401 1.2726-0.22669 1.1896-0.52484 0.2842-0.01922 0.5684-0.03845 0.8526-0.05767 0.54256 0.05646 1.0995-0.06629 1.6357-0.16073 1.4687-0.26951 2.804-1.1959 4.3379-1.0886 0.63028-0.01506 1.082 0.42666 1.6225 0.6459 0.86123 0.21993 1.7918-0.20788 2.6223 0.18915 0.64305-0.27793 1.4127-0.23265 2.0264 0.101 0.26337 0.01355 0.52674 0.02711 0.79011 0.04066 0.56625 0.27538 1.2519 0.10436 1.8629 0.23508 0.93663 0.11461 1.8813 0.13828 2.8212 0.13212 0.89022-0.08804 1.6685-0.56582 2.4916-0.87308 0.816-0.659 1.72-1.356 2.02-2.413z" fill-rule="evenodd" stroke="#000" stroke-miterlimit="2.6131" stroke-width=".16" fill="#b56f37"/><path id="path158" d="m82.197 88.484c0.41778-1.0569-0.89026-1.9419-1.8455-1.7056-1.171 0.18797-1.1706 2.0468 0.0119 2.2181 0.647 0.173 1.347-0.078 1.834-0.512z" fill-rule="evenodd" stroke="#000" stroke-miterlimit="2.6131" stroke-width=".16" fill="#da2c29"/><path id="path160" d="m78.265 88.775c-0.25805-1.2522-1.9937-1.987-3.0055-1.1308-0.62182 0.63488-0.16368 1.7115 0.58704 2.0105 0.76861 0.39684 1.8371 0.14353 2.2472-0.64739 0.057-0.076 0.114-0.154 0.171-0.232z" fill-rule="evenodd" stroke="#000" stroke-miterlimit="2.6131" stroke-width=".16" fill="#231f20"/><path id="path162" d="m73.367 89.536c0.63848-1.4745-2.0116-2.0631-2.6029-0.85304-0.6355 1.3694 1.4983 2.6376 2.4231 1.4386 0.132-0.163 0.201-0.377 0.18-0.586z" fill-rule="evenodd" stroke="#000" stroke-miterlimit="2.6131" stroke-width=".16" fill="#231f20"/><path id="path164" d="m77.755 88.882c0.29196-1.2302-1.7578-1.9221-2.3749-0.89832-0.39733 0.97214 0.78023 1.7057 1.6374 1.4424 0.306-0.07 0.593-0.259 0.737-0.544z" fill-rule="evenodd" stroke="#000" stroke-miterlimit="2.6131" stroke-width=".16" fill="#da2c29"/><path id="path162-2" d="m67.589 89.787c-0.59316 1.3698 1.8688 1.9167 2.4182 0.79249 0.59039-1.2722-1.392-2.4504-2.2511-1.3365-0.122 0.151-0.187 0.349-0.167 0.544z" fill-rule="evenodd" stroke="#000" stroke-miterlimit="2.6131" stroke-width=".16" fill="#231f20"/><path id="path166" d="m69.797 90.284c0.46497-1.0649-1.5717-1.4915-1.664-0.37305-0.03259 0.76762 1.2939 1.3588 1.679 0.59816l0.0099-0.10844-0.025-0.117z" fill-rule="evenodd" stroke="#000" stroke-miterlimit="2.6131" stroke-width=".16" fill="#da2c29"/><path id="path168" d="m73.367 89.536c0.32163-1.2541-1.7324-1.8895-2.3268-0.82958-0.49187 0.90313 0.56557 1.8446 1.4577 1.5671 0.388-0.08 0.752-0.349 0.869-0.738z" fill-rule="evenodd" stroke="#000" stroke-miterlimit="2.6131" stroke-width=".16" fill="#da2c29"/><path id="path170" d="m104.75 79.234-0.053-0.2551-0.255 0.0535-0.255 0.0535-0.309-0.2015-0.765 0.1601-0.308-0.2015-0.309-0.2016-0.255 0.0531-0.053-0.2547-0.564-0.1484-0.67-0.6578-1.4348-0.4981-0.2016 0.3086-0.2551 0.0536-0.148 0.5632-0.2551 0.0536-0.1484 0.5632-0.2016 0.3082-0.4562 0.3621-0.8067 1.2336-0.1476 0.5637-0.35 0.8715-1.316 1.3406 0.2546-0.0535 0.7653-0.1601 0.2547-0.0536 0.255-0.0531 0.2551-0.0535-0.0535-0.2551 0.2551-0.0535-0.0535-0.2551 0.2551-0.0531 0.0535 0.2551 0.0535 0.2547 0.0531 0.255 0.0535 0.2551-0.2551 0.0535 0.0536 0.2547 0.7117-0.4152 1.2746-0.2672 0.9668-0.4684 0.51-0.107 0.456-0.3617 0.766-0.1602 0.456-0.3621 0.201-0.3086 0.256-0.0535 0.255-0.0531 0.711-0.4152 0.202-0.3086 0.457-0.3618 0.148-0.5632-0.054-0.2551" fill-rule="evenodd" stroke="#000" stroke-miterlimit="2.6131" stroke-width=".16" fill="#8d5e3f"/><path id="path172" d="m92.426 83.945c-0.34056-0.09152-0.91277-0.29212-0.77922-0.7446 0.19475-0.26292 0.39391-0.51241 0.49166-0.8312 0.35824-0.74933 0.90017-1.4229 1.096-2.2417 0.06098-0.39272-0.23066-0.89392-0.66927-0.84273-0.48604 0.14327-0.39796-0.45588-0.14706-0.65946 0.27224-0.32965 0.69086-0.63474 0.6548-1.1132 0.02324-0.6639 0.042-1.3438 0.27371-1.9745-0.27811-0.37881-0.82222-0.22172-1.1444 0.01009-0.46617 0.29492-0.91203 0.65839-1.4694 0.76122-0.59585 0.18677-1.2545 0.33809-1.86 0.10674-0.47321-0.08699-0.64218-0.63257-0.61372-1.0548 0.0054-0.40833 0.02811-0.81764 0.01044-1.2252 0.06718-0.60237 0.42457-1.2217 0.15636-1.8228-0.09098-0.54226-0.73544-0.71812-0.87891-1.2327-0.15505-0.406-0.51209-0.68492-0.71839-1.0647-0.31189-0.47106-0.58957-0.96481-0.82931-1.4764-0.67687-0.29974-1.3684-0.85922-1.4156-1.6534-0.0031-0.45072 0.2999-0.8501 0.23984-1.3085-0.02246-0.69934-0.33289-1.3476-0.39988-2.0404-0.29952-0.70862-0.51612-1.4636-0.96101-2.1009-0.69437-0.02088-1.2021-0.59578-1.8703-0.7118-0.37798-0.32787-0.94927-0.19807-1.2782 0.13258-0.24134 0.2282-0.37544 0.682-0.77868 0.63776-0.62933-0.10164-1.0675-0.6669-1.7021-0.75509-0.78598-0.3451-1.38-0.98426-2.0331-1.5181-0.4498-0.1588-0.50613 0.50331-0.65047 0.7883-0.28759 0.3134-0.65631 0.58613-0.59318 1.0675-0.06994 0.59102 0.02506 1.184 0.09522 1.7686-0.04671 0.95 0.13323 1.8941 0.37537 2.8084-0.1253 0.47004-0.6254-0.12131-0.91243-0.13881-0.43415-0.18621-0.85921-0.40102-1.264-0.64448-0.27755-0.18795-0.52034-0.4519-0.61486-0.7798-0.59687-0.6881-1.488-1.1585-1.8101-2.0561-0.13811-0.41613-0.83844-0.25957-0.78355 0.18758-0.0753 0.53258 0.05953 1.0687-0.0016 1.6024 0.0255 0.98647 0.40792 1.9151 0.54132 2.8859 0.18269 0.87143 0.36545 1.7428 0.54806 2.6143 0.4433 0.18969 0.46355 0.72945 0.61942 1.1204 0.16609 0.21927 0.2832 0.57728-0.11733 0.60294-0.48641 0.09606-0.90012-0.26308-1.2649-0.5305-0.39955-0.33826-0.7939-0.69481-1.2804-0.90496-0.42068-0.22044-0.89023-0.5189-0.98215-1.0238-0.27218-0.39992-0.72158-0.68372-1.1954-0.76734-0.40299 0.07425-0.29964 0.58235-0.2098 0.86729 0.21346 0.91783 0.63362 1.7699 0.87991 2.677 0.29261 0.83657 0.81312 1.5791 1.437 2.2024 0.31525 0.78722 1.3026 0.92116 1.7347 1.6112 0.4334 0.13177 0.47761 0.71844 0.21136 1.0284-0.2328 0.36307-0.66544 0.65958-1.1126 0.56363-0.66486 0.02855-1.02-0.7691-1.6883-0.72473-0.40052 0.20028-0.8638 0.06422-1.2057-0.1877-0.30366-0.18584-0.80246-0.59722-1.1032-0.20424-0.14807 0.37585 0.10268 0.75703 0.25096 1.0925 0.20975 0.40559 0.4715 0.79414 0.57615 1.2447-0.5921 0.02425-1.1027-0.32919-1.665-0.45151-0.31041-0.13217-0.62765-0.61573-0.95965-0.46695-0.17059 0.38769 0.09673 0.7907 0.25639 1.1347 0.25866 0.41549 0.57939 0.79239 0.85428 1.1939 0.70468 0.59719 1.4229 1.1794 2.1327 1.7697 0.61066 0.41057 1.4081 0.55013 1.885 1.1484 0.4482 0.1958 0.98585 0.07353 1.4053 0.35128 0.30656 0.38656-0.35113 0.39872-0.57728 0.47372-0.38547 0.34997 0.28499 0.52042 0.52443 0.64139 0.62699 0.33326 1.295 0.82135 2.0454 0.64558 0.41073-0.11944 0.83544-0.07785 1.2428 0.02959 0.47787 0.11324 1.0195 0.19182 1.4562-0.09116 0.23216-0.08995 0.7396-0.47885 0.85091-0.22927-0.13177 0.26076-0.69503 0.47691-0.57595 0.74008 0.40891 0.12632 0.84524 0.0634 1.2649 0.12453 0.62711 0.04296 1.2245-0.19776 1.7572-0.50609 0.36754-0.20048 0.73741-0.41408 1.1502-0.50608 0.34091-0.49581 0.93903-0.9629 1.5746-0.78754 0.4088 0.27912 0.89618 0.01178 1.3257-0.06899 0.44602-0.11759 1.0298-0.10879 1.3016 0.32972 0.50685 0.59362 1.2646 0.86497 1.9348 1.2227 0.50099 0.20141 1.0796 0.28481 1.595 0.08987 0.21748-0.18564-0.04354-0.93508 0.45083-0.69186 0.25565 0.26126 0.60587 0.1185 0.92415 0.1633 0.43473 0.01989 0.87124 0.06475 1.2917 0.18154 0.74913-0.24089 1.5829 0.21935 2.2965-0.19212 0.182-0.037 0.196-0.32 0.405-0.294z" fill-rule="evenodd" stroke="#000" stroke-miterlimit="2.6131" stroke-width=".16" fill="#231f20"/><path id="path174" d="m91.607 83.85c-0.13671-0.46457-1.2168-0.3398-0.41191-0.58858 0.62904-0.50311 0.75111-1.3574 1.1536-2.017 0.2342-0.51186 0.72774-1.5669-0.31977-1.2454-0.54383-0.30973-0.05966-1.2849 0.12572-1.781 0.63143-0.7625 0.68368-1.7356 0.87549-2.6071-0.65633 0.38211-1.3892 0.71698-2.0909 0.93006-0.82115 0.15877-1.8017 0.37306-2.4881-0.0963-0.75616-0.63084-0.20974-1.5654-0.38402-2.3907 0.16352-1.01-0.41636-1.9323-0.67942-2.8761-0.33558-0.61132-0.95661-1.0746-1.1352-1.8051-0.14364-0.49064-0.67459-0.69163-0.9598-1.102-0.41584-0.83012-1.3416 0.50537-1.5372-0.18921-0.02443-0.93995 0.90621-1.6215 0.75775-2.5804-0.02611-0.79306-0.29026-1.5517-0.4379-2.3262-0.31401-0.7131-0.54397-1.3519-1.2587-1.7467-0.58768-0.20219-1.4973-0.77413-2.084-0.39048-0.54228 0.4865-0.8368 1.0477-1.6049 0.64175-0.57075-0.42377-1.1978-0.61114-1.8515-0.82534-0.60548-0.29062-1.1984-1.5982-1.8333-1.1301-0.66594 0.69411-0.61373 1.4722-0.59736 2.3662-0.16604 0.84021 0.0018 1.6772 0.22226 2.4886 0.14272 0.73584 0.18951 1.5251 0.76867 2.0128 0.13378 0.4011 1.1841 0.17985 0.49323 0.50809-0.59879-0.36615-1.2509-0.75149-1.9081-1.0818-0.66036-0.21757-0.95522-1.1204-1.7415-1.0113-0.54675-0.24576-0.85581-0.81326-1.2881-1.2132-0.32613-0.35225-0.65226-0.7045-0.97839-1.0567-0.87852 0.0422-0.25677 1.2343-0.40862 1.8197 0.26323 1.4055 0.59075 2.8017 0.87222 4.2053 0.36679 0.43426 0.51429 1.1368 1.0653 1.2721 0.04975 0.51087 0.17481 1.0036 0.69293 1.1975 0.05944 0.54135-0.94354-0.05011-1.4471 0.03674-0.7542 0.08738-1.4293-0.30729-1.9066-0.86891-0.3885-0.6872-1.3143-0.7545-1.766-1.3741-0.35315-0.29436-1.2481-1.3666-0.90408-0.28572 0.19578 0.78151 0.22614 1.5989 0.70801 2.2622 0.20592 0.7677 0.48514 1.4517 0.99363 2.0335 0.52727 0.31301 0.47386 1.444 1.3242 1.3504 0.77733 0.04982 1.7194 0.87819 1.2061 1.6763-0.09529 0.56811-0.97732 0.60685-1.2322 0.85652-0.4582-0.13151-1.1437 0.09784-1.2427-0.45935-0.6925 0.17759-1.4126 0.47952-1.9483-0.15224-0.74647-0.43179-0.1109 1.0007 0.05611 1.366 0.48786 0.22551 0.68255 0.91485-0.06519 0.8009-0.62812-0.12926-1.2154-0.41842-1.8641-0.53383-0.62604-0.11688 0.1874 1.1318 0.55855 1.3396 0.89427-0.01518 0.49261 1.2766 1.4053 1.3537 1.1024 0.74646 2.241 1.6236 3.6037 1.7819 0.44669 0.02339 1.3503-0.29596 0.77662 0.42772-0.07937 0.40204-1.3723 0.44717-0.68056 0.74438 0.48221-0.15174 0.79224 0.57677 1.3395 0.31634 0.80339 0.10852 1.6057 0.4867 2.4142 0.18865 0.67395-0.20786 1.4034-0.21898 2.0548-0.48178 0.24595-0.59893 0.7492-0.16823 0.33738 0.27496-0.35534 0.27484-0.74416 1.1693 0.09409 0.74652 1.0234-0.23871 2.0736-0.28479 2.8767-0.97282 0.45103-0.49179 0.89841-1.0435 1.6157-0.60406 0.87518 0.18296 1.9343-0.75168 2.6452 0.03218 0.47372 0.67514 1.0878 1.375 1.9561 1.4632 0.70653 0.21788 1.673 0.11863 1.19-0.60307-0.03025-0.37838 0.0084-1.02 0.44312-0.42747 0.60381 0.38319 1.3785 0.33081 2.0482 0.55464 0.808 0.313 1.579-0.122 2.38-0.227z" fill-rule="evenodd" stroke="#000" stroke-miterlimit="2.6131" stroke-width=".16" fill="#e17c22"/><path id="path176" d="m90.361 81.716c-0.16482-0.00058-0.59221 0.12398-0.46636-0.09734 0.09677-0.17018 0.41585-0.19286 0.39076-0.4415-0.03588-0.35565-0.18581-0.67796-0.24887-1.0398-0.06314-0.3623-0.49243-0.57766-0.85061-0.61978-0.61844-0.07273-1.2442-0.26512-1.87-0.11547-0.4825 0.11538-0.95605 0.30671-1.4582 0.30832-0.27241 0.000868-0.53315-0.12502-0.70658-0.34166-0.30098-0.37596-0.48914-1.0933-0.90919-1.3363-0.32244-0.1865-0.70657-0.21935-1.0774-0.09061-0.25512 0.08856-0.54637 0.06791-0.77873 0.23239-0.5233 0.37044-0.79541 1.2238-1.3878 1.5077-0.2556 0.12246-0.6085 0.24954-0.83638 0.03822-0.14994-0.13905-0.23871-0.32999-0.37738-0.48264-0.23592-0.25968-0.37425-0.65299-0.72573-0.77119-0.21173-0.0712-0.44272-0.04531-0.65982-0.11249-0.35587-0.11012-0.7893-0.16409-1.1058 0.07778-0.13732 0.10494-0.25312 0.23435-0.40256 0.32472-0.17365 0.10501-0.30696 0.25875-0.4578 0.3912-0.21093 0.1852-0.49835 0.29028-0.78672 0.22502-0.46909-0.10615-0.95999-0.14785-1.3932-0.39088-0.45637-0.25601-1.0166-0.1015-1.4998 0.03063-0.26437 0.0723-0.52879 0.14677-0.79762 0.19914-0.22332 0.04351-0.2415-0.33467-0.45203-0.33527-0.18874-0.000535-0.19667 0.24491-0.21655 0.39033-0.06926 0.50657 0.10444 1.0631 0.5312 1.3797 0.17898 0.13278 0.48608 0.04294 0.46696-0.20444-0.01833-0.23711-0.30163-0.30623-0.34767-0.51459-0.04876-0.22066 0.26293-0.26293 0.38492-0.38854 0.14345-0.14771 0.28472-0.09116 0.44818-0.05534 0.2671 0.05853 0.54144-0.02682 0.81112-0.02531 0.2911 0.0016 0.5646 0.12555 0.84255 0.20472 0.4224 0.12031 0.81475 0.41084 1.2733 0.36061 0.43835-0.04801 0.77026-0.36947 1.0532-0.67958 0.22772-0.2496 0.51964-0.53038 0.88555-0.49558 0.34555 0.03286 0.65906 0.22548 0.9074 0.45728 0.15928 0.14867 0.25648 0.35318 0.44121 0.47944 0.32483 0.22201 0.69906 0.34493 1.0426 0.53146 0.23172 0.12582 0.51092 0.09248 0.76734 0.1325 0.2605 0.04065 0.52125-0.06916 0.7278-0.24187 0.19554-0.1635 0.46636-0.19537 0.68366-0.33255 0.31361-0.19798 0.57569-0.49383 0.92865-0.61025 0.3014-0.09941 0.58439 0.12353 0.87867 0.18949 0.36492 0.08179 0.66563 0.3391 0.94775 0.57704 0.44045 0.37147 0.84091 0.38431 1.384 0.63193 0.19757 0.09008 0.41696-0.0029 0.61133-0.07795 0.53358-0.20613 1.1141-0.22996 1.6672-0.3663 0.12238-0.03017 0.24288-0.09659 0.36771-0.0883 0.23216 0.01542 0.3312 0.28148 0.37481 0.48232 0.0491 0.2261 0.35765 0.33641 0.32374 0.58246-0.02777 0.20148-0.14618 0.3893-0.28269 0.53897-0.14662 0.16075-0.39173 0.23984-0.60588 0.14618-0.22547-0.0986-0.1915 0.23855-0.04999 0.33877 0.23068 0.16338 0.50025 0.2465 0.76763 0.30725 0.23853 0.0542 0.49507 0.11944 0.73319 0.0577 0.22258-0.05772 0.24257-0.35675 0.18775-0.5547-0.027-0.104 0.031-0.313-0.077-0.313z" fill-rule="evenodd" stroke="#000" stroke-miterlimit="2.6131" stroke-width=".16" fill="#231f20"/><path id="path178" d="m63.427 86.56c0.0102-0.61147-0.35993-1.0847-0.82119-1.4159-0.39144-0.46303-1.3096 0.0074-0.94566 0.56456 0.36336 0.21832 0.63467 0.52624 1.0288 0.69699 0.245 0.18 0.43 0.297 0.738 0.154z" fill-rule="evenodd" stroke="#000" stroke-miterlimit="2.6131" stroke-width=".16" fill="#8c4f3c"/><path id="path180" d="m63.859 83.542c0.10996-0.67675-0.59399-0.89322-1.0202-1.1634-0.43145-0.29365-0.67315-0.75747-1.0261-1.1209-0.50107-0.35429-0.71795-0.95007-1.1672-1.3591-0.5741-0.65223-1.1218-1.3274-1.6921-1.9831-0.49709-0.13944-0.97246-0.47404-1.4937-0.2337-0.28203-0.38686-0.63632-0.66021-1.1597-0.57305-0.4802 0.19906-1.0315-0.68018-1.3161-0.21857 0.03743 0.48664 0.37738 0.87084 0.58472 1.2704 0.16353 0.52992 0.79582 0.68191 1.1535 1.0601 1.4102 1.0923 2.6474 2.3861 4.0348 3.5062 0.54246 0.46286 1.0862 0.92423 1.6253 1.391 0.23325-0.54179 0.9379-0.37335 1.3957-0.55878l0.081-0.017z" fill-rule="evenodd" stroke="#000" stroke-miterlimit="2.6131" stroke-width=".16" fill="#8d5e3f"/><path id="path182" d="m82.362 78.643c-0.12425 0.09761-0.14989 0.35444-0.17953 0.51672-0.03592 0.1967 0.06182 0.37392 0.26217 0.28651 0.17845-0.07785 0.31416-0.23784 0.36547-0.40459 0.05715-0.18575 0.26164-0.11555 0.46948-0.1694 0.15758-0.04083 0.17574-0.26183 0.26704-0.10843 0.08781 0.14752 0.19888 0.32218 0.38051 0.37529 0.16839 0.04925 0.31762 0.14248 0.44938 0.25545 0.14335 0.12291 0.33178-0.05708 0.26492-0.22523-0.28298-0.49508-0.67912-0.63045-1.166-0.83551-0.407-0.074-0.85 0.102-1.113 0.309z" fill-rule="evenodd" stroke="#000" stroke-miterlimit="2.6131" stroke-width=".16" fill="#da2c29"/><path id="path184" d="m57.448 80.892c-0.10399-0.44108-0.78119-0.35108-0.88526-0.81365-0.40288-0.18389-0.79604-0.45754-0.82776-0.9215-0.50929 0.24046-0.0089 0.92571 0.27295 1.2159 0.17958 0.4017 0.60124 0.82477 1.0688 0.88823 0.172-0.022 0.546-0.125 0.371-0.369z" fill-rule="evenodd" stroke="#000" stroke-miterlimit="2.6131" stroke-width=".16" fill="#8c4f3c"/><path id="path186" d="m123.51 63.325c0.2438-1.6093 1.3493-3.042 1.2767-4.685-0.13813-1.6201-1.1905-2.9434-2.5702-3.7067-0.9845-1.0837-2.3403-1.4563-3.7003-1.7882-1.3091-0.5233-2.6135-1.0979-4.0381-1.1875-1.6293-0.31357-3.2848-0.50514-4.9407-0.30716-1.7557-0.05057-3.477-0.01042-5.1724 0.50585-1.6944 0.15056-3.3611 0.4231-5.0349 0.73158-1.8407-0.18216-3.4424 0.94185-5.22 1.2066-1.0497 0.44542-2.8746 0.99065-2.7666 2.3572 0.70279 1.0788 1.8866 1.8907 3.099 2.3156 1.261 0.67782 2.6416-0.19116 3.8755 0.42591 1.3266 0.5771 2.8343 0.49086 4.1668 1.0969 1.3503 0.36329 2.5739 1.0794 3.8565 1.6325 1.8109 1.282 4.0729 1.6454 5.9649 2.7777 1.6055 0.65137 3.355 0.82696 5.038 1.1911 1.612 0.21897 3.2146-0.2704 4.7217-0.76473 0.81-0.324 1-1.15 1.44-1.802z" fill-rule="evenodd" stroke="#000" stroke-miterlimit="2.6131" stroke-width=".16" fill="#8d5e3f"/><path id="path188" d="m91.525 64.1c-0.08695-0.09934-0.0519-0.24417-0.0283-0.36123 0.08876-0.489-0.0025-0.99347-0.186-1.4502-0.23-0.587-0.591-1.108-0.901-1.653-0.075-0.178-0.145-0.359-0.257-0.519-0.357-0.546-0.896-0.94-1.278-1.467-0.303-0.565-0.843-0.946-1.375-1.278-0.147-0.094-0.3-0.192-0.475-0.222-0.17982 0.01874-0.3159 0.16792-0.35775 0.33752-0.12369 0.37247-0.07259 0.77025-0.1039 1.1545-0.03326 0.09677-0.0669 0.33189-0.21335 0.25802-0.03881-0.03714-0.14714 0.07404-0.179-0.04252-0.10732-0.18253-0.13498-0.39754-0.22023-0.58985-0.05386-0.15165-0.13411-0.29605-0.25722-0.40205-0.65593-0.72228-1.2068-1.5442-1.9565-2.1779-0.344-0.327-0.801-0.497-1.157-0.808-0.162-0.146-0.294-0.337-0.33-0.555 0.05937-0.04837 0.2134 0.10866 0.15 0 0.12522-0.01161 0.22006 0.11269 0.32162 0.1724 0.38757 0.3018 0.69746 0.71239 1.151 0.92285 0.44598 0.19295 0.89457 0.43823 1.1905 0.83533 0.13644 0.18696 0.23032 0.41098 0.23692 0.64442 0.10033 0.08856 0.24815 0.16142 0.37923 0.09584 0.29557-0.10089 0.54769-0.32694 0.8667-0.3565 0.1509 0.0097 0.3138 0.01063 0.44028 0.10755 0.2423 0.19387 0.52905 0.32189 0.79808 0.47394 0.53244 0.28948 1.0535 0.66307 1.3434 1.2103 0.06979 0.1171 0.18254 0.20432 0.2671 0.31182 0.52041 0.58918 0.97384 1.2349 1.3802 1.907 0.16426 0.53538 0.5494 0.95761 0.8917 1.3859 0.225 0.286 0.434 0.601 0.508 0.964 0.11482 0.10498 0.08122 0.27727-0.0031 0.38882-0.084 0.125-0.205 0.224-0.272 0.361 0.0011 0.13468-0.07086 0.37358-0.23611 0.34102-0.024-0.035-0.098 0.048-0.139 0.009z" fill-rule="evenodd" stroke="#000" stroke-miterlimit="2.6131" stroke-width=".16" fill="#231f20"/><path id="path190" d="m65.763 57.057c0.64706-0.70089 0.88761-1.8259 0.40508-2.68-0.24948-0.44732-0.80244-0.49652-1.2317-0.67135-1.0689-0.5073-1.8721-1.4981-3.0439-1.8022-0.39572-0.09061-0.80764-0.10125-1.1941-0.23634-1.4682-0.44444-2.6934-1.505-4.2261-1.7651-1.1127-0.2366-2.1742-0.71516-3.3188-0.79995-0.511-0.04763-1.02 0.03885-1.525 0.10294-0.51659 0.07906-0.99444 0.31453-1.4011 0.63787-0.67204 0.49024-1.3127 1.0787-2.1333 1.3051-1.4673 0.80323-3.1402 1.1821-4.5372 2.1215-0.93896 0.33614-1.9546 0.66446-2.6236 1.4488-0.41381 0.46952-0.54026 1.1195-0.54485 1.7285-0.0058 0.65823 0.2107 1.3114 0.61145 1.8339 0.56166 0.75522 1.3673 1.2674 2.128 1.7983 0.76583 0.61785 1.7864 0.77496 2.7434 0.76558 0.93601 0.01861 1.8733 0.01978 2.8076-0.04032 1.1566-0.000787 2.3005 0.20556 3.4519 0.27302 1.5811-0.14274 3.1693-0.18944 4.7499-0.33801 0.7599-0.35377 1.6059-0.11354 2.4044-0.10658 0.44089 0.000542 0.92567-0.06225 1.2732-0.35682 0.31205-0.31963 0.18762-0.80034 0.15294-1.1955-0.05405-1.0265-0.30608-2.0303-0.40928-3.052 0.40895-0.32589 1.0062-0.14582 1.3492 0.19073 0.51226 0.45645 0.91523 1.0592 1.5502 1.3603 0.25146 0.08571 0.42933 0.2971 0.6401 0.45088 0.85821 0.70452 1.7138 1.4567 2.7603 1.8688 0.41651-0.0052 0.06701-0.43419-0.09342-0.56397-0.262-0.251-0.482-0.565-0.526-0.935-0.059-0.451-0.171-0.891-0.218-1.343z" fill-rule="evenodd" stroke="#000" stroke-miterlimit="2.6131" stroke-width=".16" fill="#8d5e3f"/><path id="path192" d="m0.54492 0.81836h157.23v152.34h-157.23l0.00492-152.34z" stroke="#fff" stroke-miterlimit="2.6131" stroke-width="0.216" fill="none"/><path id="path2052" d="m74.214 86.829c-0.50546 0.02359-1.0582-0.41324-0.98405-0.95121 0.08282-0.31901 0.45378-0.7181 0.79795-0.57876 0.25345 0.22522 0.35168 0.70718 0.78296 0.64244 0.31313-0.01473 0.5464 0.332 0.27464 0.55683-0.212 0.247-0.554 0.351-0.872 0.331z" fill-rule="evenodd" stroke="#000" stroke-miterlimit="2.6131" stroke-width=".16" fill="#231f20"/><path id="path2052-0" d="m87.506 86.509c-0.48472 0.02263-1.0148-0.39628-0.94367-0.91218 0.07942-0.30592 0.43516-0.68862 0.7652-0.55501 0.24305 0.21598 0.33725 0.67816 0.75083 0.61608 0.30028-0.0141 0.52398 0.31838 0.26337 0.53398-0.204 0.236-0.532 0.336-0.836 0.317z" fill-rule="evenodd" stroke="#000" stroke-miterlimit="2.6131" stroke-width=".16" fill="#231f20"/><path id="path20" d="m81 130c-29.742 0-54-24.26-54-54 0-29.742 24.258-54 54-54 29.74 0 54 24.258 54 54 0 29.74-24.26 54-54 54z" stroke="#231f20" stroke-miterlimit="2.6131" stroke-width="2.0001" fill="none"/></g></svg>
