<svg xmlns:rdf="http://www.w3.org/1999/02/22-rdf-syntax-ns#" xmlns="http://www.w3.org/2000/svg" xml:space="preserve" height="68.97" viewBox="0 0 230.45 68.969871" width="230.45" version="1.1" xmlns:cc="http://creativecommons.org/ns#" xmlns:dc="http://purl.org/dc/elements/1.1/"><defs><clipPath id="clipPath566" clipPathUnits="userSpaceOnUse"><path id="path568" d="m158.89 521.44h0.029-0.029m-1.096-0.068c0.444 0.045 0.813 0.067 1.096 0.068-0.318-0.001-0.685-0.024-1.096-0.068m-35.832-27.144c-0.189-20.391 31.08-27.887 36.957-27.887 0 0-33.07 4.156-32.946 28.001 0.091 17.571 23.979 26.191 31.821 27.03-7.383-0.735-35.652-7.578-35.832-27.144"/></clipPath><linearGradient id="linearGradient574" gradientUnits="userSpaceOnUse" gradientTransform="matrix(0 55.099 55.099 0 121.96 466.34)"><stop stop-color="#2d7bc8" offset="0"/><stop stop-color="#2d7bc8" offset=".26095"/><stop stop-color="#a6cff0" offset=".5165"/><stop stop-color="#2d7bc8" offset=".81518"/><stop stop-color="#2d7bc8" offset="1"/></linearGradient><clipPath id="clipPath592" clipPathUnits="userSpaceOnUse"><path id="path594" d="m150.15 521.38h0.011-0.011m-0.117-0.005c0.046 0.003 0.085 0.004 0.117 0.005-0.035-0.001-0.074-0.002-0.117-0.005m-35.47-27.149c0.193-21.625 33.105-27.887 35.309-27.887-2.07 0-30.155 7.147-30.443 28.097-0.272 19.75 27.447 26.73 30.604 26.939-2.967-0.184-35.661-5.687-35.47-27.149"/></clipPath><linearGradient id="linearGradient600" gradientUnits="userSpaceOnUse" gradientTransform="matrix(0 55.041 55.041 0 114.56 466.34)"><stop stop-color="#2d7bc8" offset="0"/><stop stop-color="#2d7bc8" offset=".26095"/><stop stop-color="#a6cff0" offset=".5165"/><stop stop-color="#2d7bc8" offset=".81518"/><stop stop-color="#2d7bc8" offset="1"/></linearGradient><clipPath id="clipPath618" clipPathUnits="userSpaceOnUse"><path id="path620" d="m143.57 521.41c0.15 0.019 0.229 0.028 0.229 0.028-0.039 0-0.117-0.009-0.229-0.028m-36.42-26.974c0.383-22.9 34.645-28.097 36.649-28.097-1.136 0-31.374 7.237-32.004 27.905-0.584 19.12 28.71 26.657 31.775 27.166-3.105-0.395-36.787-5.188-36.42-26.974"/></clipPath><linearGradient id="linearGradient626" gradientUnits="userSpaceOnUse" gradientTransform="matrix(0 55.099 55.099 0 107.14 466.34)"><stop stop-color="#2d7bc8" offset="0"/><stop stop-color="#2d7bc8" offset=".26095"/><stop stop-color="#a6cff0" offset=".5165"/><stop stop-color="#2d7bc8" offset=".81518"/><stop stop-color="#2d7bc8" offset="1"/></linearGradient><clipPath id="clipPath644" clipPathUnits="userSpaceOnUse"><path id="path646" d="m47.259 492.81v-0.549h52.928c2.93-20.616 35.672-25.918 37.085-25.918 0 0-31.64 6.995-31.704 26.467h-58.309z"/></clipPath><linearGradient id="linearGradient652" gradientUnits="userSpaceOnUse" gradientTransform="matrix(0 26.467 26.467 0 47.259 466.34)"><stop stop-color="#2d7bc8" offset="0"/><stop stop-color="#2d7bc8" offset=".26095"/><stop stop-color="#a6cff0" offset=".5165"/><stop stop-color="#2d7bc8" offset=".81518"/><stop stop-color="#2d7bc8" offset="1"/></linearGradient><clipPath id="clipPath670" clipPathUnits="userSpaceOnUse"><path id="path672" d="m205.83 493.51c-0.092-17.569-23.363-26.253-31.144-27.1 7.346 0.744 35.248 7.65 35.429 27.214 0.188 20.39-30.676 27.816-36.553 27.816 0 0 32.392-4.087 32.268-27.93m-32.268-27.169c0.325 0 0.701 0.023 1.124 0.069-0.459-0.046-0.837-0.069-1.124-0.069"/></clipPath><linearGradient id="linearGradient678" gradientUnits="userSpaceOnUse" gradientTransform="matrix(0 55.099 55.099 0 173.57 466.34)"><stop stop-color="#2d7bc8" offset="0"/><stop stop-color="#2d7bc8" offset=".26095"/><stop stop-color="#a6cff0" offset=".5165"/><stop stop-color="#2d7bc8" offset=".81518"/><stop stop-color="#2d7bc8" offset="1"/></linearGradient><clipPath id="clipPath696" clipPathUnits="userSpaceOnUse"><path id="path698" d="m212.38 493.41c0.272-19.718-27.073-26.832-30.298-27.067 3.041 0.209 34.696 5.856 34.505 27.277-0.192 21.624-32.446 27.816-34.65 27.816 2.072 0 30.155-7.076 30.443-28.026m-30.431-27.073c0.038 0.001 0.083 0.003 0.133 0.006-0.053-0.003-0.097-0.005-0.133-0.006m-0.012 0h0.012-0.012"/></clipPath><linearGradient id="linearGradient704" gradientUnits="userSpaceOnUse" gradientTransform="matrix(0 55.099 55.099 0 181.94 466.34)"><stop stop-color="#2d7bc8" offset="0"/><stop stop-color="#2d7bc8" offset=".26095"/><stop stop-color="#a6cff0" offset=".5165"/><stop stop-color="#2d7bc8" offset=".81518"/><stop stop-color="#2d7bc8" offset="1"/></linearGradient><clipPath id="clipPath722" clipPathUnits="userSpaceOnUse"><path id="path724" d="m219.38 493.61c0.584-19.097-28.046-26.704-31.127-27.235 3.128 0.414 36.094 5.288 35.728 27.043-0.385 22.899-33.961 28.026-35.965 28.026 1.136 0 30.735-7.167 31.364-27.834m-31.364-27.265c0.04 0 0.12 0.01 0.237 0.03-0.156-0.02-0.237-0.03-0.237-0.03"/></clipPath><linearGradient id="linearGradient730" gradientUnits="userSpaceOnUse" gradientTransform="matrix(0 55.099 55.099 0 188.01 466.34)"><stop stop-color="#2d7bc8" offset="0"/><stop stop-color="#2d7bc8" offset=".26095"/><stop stop-color="#a6cff0" offset=".5165"/><stop stop-color="#2d7bc8" offset=".81518"/><stop stop-color="#2d7bc8" offset="1"/></linearGradient><clipPath id="clipPath748" clipPathUnits="userSpaceOnUse"><path id="path750" d="m0 0h595.28v841.89h-595.28v-841.89z"/></clipPath><clipPath id="clipPath760" clipPathUnits="userSpaceOnUse"><path id="path762" d="m226.24 495.06h5.38c-2.927 20.271-36.123 26.379-37.537 26.379 0 0 32.095-6.907 32.157-26.379"/></clipPath><linearGradient id="linearGradient768" gradientUnits="userSpaceOnUse" gradientTransform="matrix(0 26.379 26.379 0 194.08 495.06)"><stop stop-color="#2d7bc8" offset="0"/><stop stop-color="#2d7bc8" offset=".26095"/><stop stop-color="#a6cff0" offset=".5165"/><stop stop-color="#2d7bc8" offset=".81518"/><stop stop-color="#2d7bc8" offset="1"/></linearGradient><clipPath id="clipPath794" clipPathUnits="userSpaceOnUse"><path id="path796" d="m0 0h595.28v841.89h-595.28v-841.89z"/></clipPath></defs><g transform="matrix(1.25 0 0 -1.25 -59.074 651.8)"><g clip-path="url(#clipPath566)"><path id="path586" d="m158.89 521.44h0.029-0.029m-1.096-0.068c0.444 0.045 0.813 0.067 1.096 0.068-0.318-0.001-0.685-0.024-1.096-0.068m-35.832-27.144c-0.189-20.391 31.08-27.887 36.957-27.887 0 0-33.07 4.156-32.946 28.001 0.091 17.571 23.979 26.191 31.821 27.03-7.383-0.735-35.652-7.578-35.832-27.144" fill="url(#linearGradient574)"/></g><g clip-path="url(#clipPath592)"><path id="path612" d="m150.15 521.38h0.011-0.011m-0.117-0.005c0.046 0.003 0.085 0.004 0.117 0.005-0.035-0.001-0.074-0.002-0.117-0.005m-35.47-27.149c0.193-21.625 33.105-27.887 35.309-27.887-2.07 0-30.155 7.147-30.443 28.097-0.272 19.75 27.447 26.73 30.604 26.939-2.967-0.184-35.661-5.687-35.47-27.149" fill="url(#linearGradient600)"/></g><g clip-path="url(#clipPath618)"><path id="path638" d="m143.57 521.41c0.15 0.019 0.229 0.028 0.229 0.028-0.039 0-0.117-0.009-0.229-0.028m-36.42-26.974c0.383-22.9 34.645-28.097 36.649-28.097-1.136 0-31.374 7.237-32.004 27.905-0.584 19.12 28.71 26.657 31.775 27.166-3.105-0.395-36.787-5.188-36.42-26.974" fill="url(#linearGradient626)"/></g><g clip-path="url(#clipPath644)"><path id="path664" d="m47.259 492.81v-0.549h52.928c2.93-20.616 35.672-25.918 37.085-25.918 0 0-31.64 6.995-31.704 26.467h-58.309z" fill="url(#linearGradient652)"/></g><g clip-path="url(#clipPath670)"><path id="path690" d="m205.83 493.51c-0.092-17.569-23.363-26.253-31.144-27.1 7.346 0.744 35.248 7.65 35.429 27.214 0.188 20.39-30.676 27.816-36.553 27.816 0 0 32.392-4.087 32.268-27.93m-32.268-27.169c0.325 0 0.701 0.023 1.124 0.069-0.459-0.046-0.837-0.069-1.124-0.069" fill="url(#linearGradient678)"/></g><g clip-path="url(#clipPath696)"><path id="path716" d="m212.38 493.41c0.272-19.718-27.073-26.832-30.298-27.067 3.041 0.209 34.696 5.856 34.505 27.277-0.192 21.624-32.446 27.816-34.65 27.816 2.072 0 30.155-7.076 30.443-28.026m-30.431-27.073c0.038 0.001 0.083 0.003 0.133 0.006-0.053-0.003-0.097-0.005-0.133-0.006m-0.012 0h0.012-0.012" fill="url(#linearGradient704)"/></g><g clip-path="url(#clipPath722)"><path id="path742" d="m219.38 493.61c0.584-19.097-28.046-26.704-31.127-27.235 3.128 0.414 36.094 5.288 35.728 27.043-0.385 22.899-33.961 28.026-35.965 28.026 1.136 0 30.735-7.167 31.364-27.834m-31.364-27.265c0.04 0 0.12 0.01 0.237 0.03-0.156-0.02-0.237-0.03-0.237-0.03" fill="url(#linearGradient730)"/></g><g clip-path="url(#clipPath748)"><g transform="translate(198.89 492.6)"><path id="path754" d="m0 0c0-19.2-29.57-26.334-30.638-26.334 3.272 0 35.174 5.637 35.235 29.739h-70.342c0 19.203 29.909 25.36 30.977 25.36-3.27 0-35.74-5.205-35.687-28.765h70.455z" fill="#18458a"/></g></g><g clip-path="url(#clipPath760)"><path id="path780" d="m226.24 495.06h5.38c-2.927 20.271-36.123 26.379-37.537 26.379 0 0 32.095-6.907 32.157-26.379" fill="url(#linearGradient768)"/></g><g transform="translate(47.808 495.1)"><path id="path784" d="m0 0 4.621 17.994 14.305-0.024-1.08-4.199-8.552 0.015-0.661-2.575 7.237-0.011-1.079-4.198-7.237 0.011-0.725-2.825 8.894-0.015-1.079-4.198-14.644 0.025z" fill="#18458a"/></g><g transform="translate(67.708 513.07)"><path id="path788" d="m0 0 16.083-0.027-1.214-4.723-5.166 0.008-3.409-13.269-5.75 0.008 3.408 13.271-5.165 0.008 1.213 4.724z" fill="#18458a"/></g><g clip-path="url(#clipPath794)"><g transform="translate(92.828 507.8)"><path id="path800" d="m0 0c0.063 0.626-0.158 1.001-0.515 1.227-0.355 0.225-0.841 0.325-1.402 0.326-1.267 0.003-1.923-0.371-2.091-1.021-0.693-2.7 9.825-1.042 8.144-7.59-1.073-4.173-4.98-6.193-9.805-6.184-4.63 0.007-6.938 2.787-6.226 6.037l5.507-0.01c-0.044-0.651 0.174-1.125 0.585-1.427 0.385-0.3 0.957-0.452 1.517-0.453 1.437-0.001 2.51 0.471 2.728 1.321 0.7 2.726-9.87 0.867-8.105 7.74 0.983 3.824 4.694 5.743 9.08 5.736 4.873-0.008 6.436-2.562 6.041-5.712l-5.458 0.01z" fill="#18458a"/></g></g><g transform="translate(96.93 495.02)"><path id="path804" d="m0 0 4.622 17.994 5.751-0.009-4.622-17.995-5.751 0.01z" fill="#18458a"/></g></g></svg>
