<?xml version="1.0" encoding="UTF-8" standalone="no"?>
<svg
   xmlns:dc="http://purl.org/dc/elements/1.1/"
   xmlns:cc="http://creativecommons.org/ns#"
   xmlns:rdf="http://www.w3.org/1999/02/22-rdf-syntax-ns#"
   xmlns:svg="http://www.w3.org/2000/svg"
   xmlns="http://www.w3.org/2000/svg"
   xmlns:sodipodi="http://sodipodi.sourceforge.net/DTD/sodipodi-0.dtd"
   xmlns:inkscape="http://www.inkscape.org/namespaces/inkscape"
   xml:space="preserve"
   version="1.1"
   viewBox="0 0 96.805 53.033"
   id="svg2"
   inkscape:version="0.91 r13725"
   sodipodi:docname="ietf.svg"><metadata
     id="metadata35"><rdf:RDF><cc:Work
         rdf:about=""><dc:format>image/svg+xml</dc:format><dc:type
           rdf:resource="http://purl.org/dc/dcmitype/StillImage" /><dc:title></dc:title></cc:Work></rdf:RDF></metadata><defs
     id="defs33" /><sodipodi:namedview
     pagecolor="#ffffff"
     bordercolor="#666666"
     borderopacity="1"
     objecttolerance="10"
     gridtolerance="10"
     guidetolerance="10"
     inkscape:pageopacity="0"
     inkscape:pageshadow="2"
     inkscape:window-width="640"
     inkscape:window-height="480"
     id="namedview31"
     showgrid="false"
     inkscape:zoom="8.3208512"
     inkscape:cx="45.010597"
     inkscape:cy="34.391451"
     inkscape:current-layer="svg2" /><path
     style="fill:#bdbcbc"
     d="M 32.539062 -0.001953125 L 25.744141 6.7949219 L 32.539062 13.589844 L 39.333984 6.7949219 L 32.539062 -0.001953125 z M 48.541016 -0.001953125 L 41.746094 6.7949219 L 48.541016 13.589844 L 55.337891 6.7949219 L 48.541016 -0.001953125 z M 64.544922 -0.001953125 L 57.748047 6.7949219 L 64.544922 13.589844 L 71.339844 6.7949219 L 64.544922 -0.001953125 z M 8.4707031 7.9511719 L 1.6757812 14.746094 L 8.4707031 21.541016 L 15.265625 14.746094 L 8.4707031 7.9511719 z M 24.46875 7.9511719 L 17.673828 14.746094 L 24.46875 21.541016 L 31.263672 14.746094 L 24.46875 7.9511719 z M 40.472656 7.9511719 L 33.675781 14.746094 L 40.472656 21.541016 L 47.267578 14.746094 L 40.472656 7.9511719 z M 56.474609 7.9511719 L 49.679688 14.746094 L 56.474609 21.541016 L 63.269531 14.746094 L 56.474609 7.9511719 z M 72.476562 7.9511719 L 65.681641 14.746094 L 72.476562 21.541016 L 79.271484 14.746094 L 72.476562 7.9511719 z M 88.597656 7.9511719 L 81.802734 14.746094 L 88.597656 21.541016 L 95.392578 14.746094 L 88.597656 7.9511719 z M 32.539062 15.986328 L 25.744141 22.78125 L 32.539062 29.576172 L 39.333984 22.78125 L 32.539062 15.986328 z M 48.541016 15.986328 L 41.746094 22.78125 L 48.541016 29.576172 L 55.337891 22.78125 L 48.541016 15.986328 z M 64.544922 15.986328 L 57.748047 22.78125 L 64.544922 29.576172 L 71.339844 22.78125 L 64.544922 15.986328 z "
     id="path22" /><path
     id="path46"
     d="m 2.847133,13.955423 13.986992,0 7.698687,7.698687 7.950801,-7.9508 7.995176,7.995175 16.068302,-16.0684984 8.034249,8.0340534 7.950801,-7.9508009 8.325632,8.3256329 13.653983,0 0,1.581599 -14.320002,0 -7.701239,-7.7010433 -7.992427,7.9924263 -7.992427,-7.9924263 -15.985246,15.9852463 -7.992427,-7.99282 -7.950997,7.951194 -8.367455,-8.367456 -13.4456554,0 0.083292,-1.540169"
     inkscape:connector-curvature="0"
     style="fill:#fccf34" /><path
     id="path48"
     d="m 2.847133,13.955423 13.986992,0 7.698687,7.698687 7.950801,-7.9508 7.995176,7.995175 16.068302,-16.0684984 8.034249,8.0340534 7.950801,-7.9508009 8.325632,8.3256329 13.653983,0 0,1.581599 -14.320002,0 -7.701239,-7.7010433 -7.992427,7.9924263 -7.992427,-7.9924263 -15.985246,15.9852463 -7.992427,-7.99282 -7.950997,7.951194 -8.367455,-8.367456 -13.4456554,0 0.094248,-1.539384 z"
     inkscape:connector-curvature="0"
     style="fill:none;stroke:#0c0a08;stroke-width:0.294525" /><path
     id="path50"
     d="m 0.0020215,16.305733 3.2470399,0 0,-2.997087 -3.2470399,0 0,2.996301 z"
     inkscape:connector-curvature="0"
     style="fill:#231f20" /><path
     id="path52"
     d="m 93.56476,16.305733 3.246844,0 0,-2.997087 -3.246844,0 0,2.996301 z"
     inkscape:connector-curvature="0"
     style="fill:#231f20" /><path
     style="fill:#231f20"
     d="M 2.0019531 42.033203 L 2.0019531 53.033203 L 5.8574219 53.033203 L 5.8574219 42.033203 L 2.0019531 42.033203 z M 25.916016 42.033203 L 25.916016 53.033203 L 34.222656 53.033203 L 34.222656 50.710938 L 29.771484 50.710938 L 29.771484 48.613281 L 33.787109 48.613281 L 33.787109 46.291016 L 29.771484 46.291016 L 29.771484 44.355469 L 34.158203 44.355469 L 34.158203 42.033203 L 25.916016 42.033203 z M 53.164062 42.033203 L 53.164062 44.791016 L 56.599609 44.791016 L 56.599609 53.033203 L 60.455078 53.033203 L 60.455078 44.791016 L 63.890625 44.791016 L 63.890625 42.033203 L 53.164062 42.033203 z M 83.189453 42.033203 L 83.189453 53.033203 L 87.042969 53.033203 L 87.042969 48.677734 L 90.962891 48.677734 L 90.962891 46.355469 L 87.042969 46.355469 L 87.042969 44.355469 L 91.220703 44.355469 L 91.220703 42.033203 L 83.189453 42.033203 z M 94.535156 42.033203 C 93.559591 42.033203 92.767578 42.82289 92.767578 43.798828 C 92.767578 44.769897 93.559591 45.5625 94.535156 45.5625 C 95.511094 45.5625 96.302734 44.769877 96.302734 43.798828 C 96.302734 42.82289 95.511094 42.033203 94.535156 42.033203 z M 94.535156 42.373047 C 95.321498 42.373047 95.960938 43.007753 95.960938 43.798828 C 95.960938 44.582523 95.325672 45.216448 94.542969 45.220703 C 93.757569 45.220703 93.129005 44.585209 93.109375 43.798828 C 93.109375 43.007753 93.748813 42.373047 94.535156 42.373047 z M 93.734375 42.857422 L 93.734375 44.738281 L 94.117188 44.738281 L 94.117188 43.964844 L 94.246094 43.964844 C 94.440225 43.964844 94.571854 44.102155 94.742188 44.433594 L 94.900391 44.738281 L 94.902344 44.738281 L 95.373047 44.738281 L 95.150391 44.359375 C 94.951351 44.023082 94.913039 43.974849 94.751953 43.917969 L 94.751953 43.908203 C 95.06468 43.870288 95.259766 43.671762 95.259766 43.382812 C 95.259766 43.098596 95.065564 42.857422 94.681641 42.857422 L 93.734375 42.857422 z M 94.117188 43.150391 L 94.464844 43.150391 C 94.729975 43.150391 94.857422 43.240503 94.857422 43.40625 C 94.857422 43.566829 94.732886 43.667309 94.488281 43.667969 L 94.117188 43.667969 L 94.117188 43.150391 z "
     id="path7291" /></svg>