<svg xmlns:rdf="http://www.w3.org/1999/02/22-rdf-syntax-ns#" xmlns="http://www.w3.org/2000/svg" height="249.51" viewBox="0 0 512.28045 249.50934" width="512.28" version="1.1" xmlns:cc="http://creativecommons.org/ns#" xmlns:dc="http://purl.org/dc/elements/1.1/">
<g transform="translate(-6.6648 284.16)">
<g>
<path id="path7539" style="color-rendering:auto;text-decoration-color:#000000;color:#000000;isolation:auto;mix-blend-mode:normal;shape-rendering:auto;solid-color:#000000;block-progression:tb;text-decoration-line:none;text-decoration-style:solid;image-rendering:auto;white-space:normal;text-indent:0;text-transform:none" d="m231.31-194.85v36.727c0 2.3054 0.16437 4.6152 0.0195 6.916-0.0767 1.2183-0.27614 2.445-0.78906 3.5527-0.47682 1.0298-1.2112 1.9251-2.041 2.6992-0.44258 0.4129-0.91408 0.7938-1.4102 1.1406l3.7461 5.1973c0.37995-0.31859 0.76393-0.63321 1.1524-0.94141 1.4154-1.1231 2.9053-2.1937 4.0156-3.6191 1.1998-1.5404 1.8935-3.4229 2.3027-5.332 0.66972-3.1244 0.61717-6.3518 0.57227-9.5469-0.17233-12.263-0.17233-24.53 0-36.793zm24.658 12.176c-4.1685 0-7.7242 0.85706-10.664 2.5684l1.3828 5.4629c2.545-1.448 5.4404-2.1719 8.6875-2.1719 2.4134 0 4.1912 0.39377 5.332 1.1836 1.097 0.78983 1.6445 2.0407 1.6445 3.752v0.98828h-2.8301c-2.5011 0-4.7608 0.26251-6.7793 0.78906-2.0184 0.52655-3.7512 1.2935-5.1992 2.3027-1.448 0.96534-2.5676 2.1731-3.3574 3.6211-0.74595 1.4041-1.1172 3.0056-1.1172 4.8047 0 2.6328 0.78949 4.7612 2.3691 6.3848 1.5796 1.5796 3.7512 2.3691 6.5156 2.3691 2.1062 0 4.169-0.43882 6.1875-1.3164 2.0623-0.92147 3.6844-2.1272 4.8691-3.6191h0.26367l0.52735 4.1465h5.791v-20.602c0-1.8429-0.35067-3.4239-1.0527-4.7402-0.65819-1.3164-1.5133-2.3909-2.5664-3.2246-2.2817-1.799-5.616-2.6992-10.004-2.6992zm58.293 0c-4.1685 0-7.7222 0.85706-10.662 2.5684l1.3828 5.4629c2.545-1.448 5.4404-2.1719 8.6875-2.1719 2.4134 0 4.1892 0.39377 5.3301 1.1836 1.097 0.78983 1.6465 2.0407 1.6465 3.752v0.98828h-2.8301c-2.5011 0-4.7609 0.26251-6.7793 0.78906s-3.7512 1.2935-5.1992 2.3027c-1.448 0.96534-2.5676 2.1731-3.3574 3.6211-0.74594 1.4041-1.1191 3.0056-1.1191 4.8047 0 2.6328 0.78949 4.7612 2.3691 6.3848 1.5797 1.5796 3.7512 2.3691 6.5156 2.3691 2.1062 0 4.1691-0.43882 6.1875-1.3164 2.0623-0.92147 3.6864-2.1272 4.8711-3.6191h0.26367l0.52539 4.1465h5.793v-20.602c0-1.8429-0.35067-3.4239-1.0527-4.7402-0.65819-1.3164-1.5153-2.3909-2.5684-3.2246-2.2817-1.799-5.616-2.6992-10.004-2.6992zm-41.955 0.98828 10.111 30.277h8.7539l9.5059-30.277h-7.1094l-6.543 24.287-7.1504-24.287zm-11.205 15.467h1.25v5.9902c-0.83371 1.1409-1.9513 2.0616-3.3555 2.7637-1.4041 0.65819-2.8088 0.98828-4.2129 0.98828-2.6766 0-4.0156-1.3165-4.0156-3.9492 0-2.0184 0.81202-3.4887 2.4356-4.4102 1.6674-0.92147 4.3003-1.3828 7.8984-1.3828zm58.295 0h1.25v5.9902c-0.83371 1.1409-1.9533 2.0616-3.3574 2.7637-1.4041 0.65819-2.8068 0.98828-4.2109 0.98828-2.6766 0-4.0156-1.3165-4.0156-3.9492 0-2.0184 0.81202-3.4887 2.4356-4.4102 1.6674-0.92147 4.3003-1.3828 7.8984-1.3828zm143.07 27.96c-0.65819 0-1.2733 0.13126-1.8438 0.39453-0.52656 0.26327-1.0085 0.63647-1.4473 1.1191-0.43879 0.4388-0.79141 0.94325-1.0547 1.5137-0.2194 0.57044-0.32812 1.163-0.32812 1.7774 0 1.2725 0.46134 2.3696 1.3828 3.291 0.92146 0.92147 2.0185 1.3809 3.291 1.3809 0.6143 0 1.2069-0.10872 1.7773-0.32812 0.57043-0.26328 1.0749-0.61394 1.5137-1.0527 0.48267-0.43879 0.85391-0.92267 1.1172-1.4492 0.26327-0.57043 0.39648-1.1836 0.39648-1.8418 0-0.61431-0.13321-1.2069-0.39648-1.7774-0.26328-0.57042-0.63452-1.0749-1.1172-1.5137-0.43879-0.48267-0.94324-0.85587-1.5137-1.1191-0.57043-0.26327-1.163-0.39453-1.7773-0.39453zm-217.03 1.0527c-2.7644 0-5.2435 0.59261-7.4375 1.7774-2.1501 1.1847-3.971 2.8068-5.4629 4.8691-1.4919 2.0184-2.632 4.4114-3.4219 7.1758-0.78982 2.7205-1.1855 5.6385-1.1855 8.7539 0 2.9399 0.35262 5.7472 1.0547 8.4238 0.74595 2.6328 1.8205 4.9581 3.2246 6.9766 1.4041 2.0184 3.1594 3.62 5.2656 4.8047 2.1501 1.1847 4.6498 1.7773 7.502 1.7773 2.896 0 5.4633-0.61318 7.7012-1.8418 2.1121-1.201 3.8883-2.7595 5.3359-4.6641l-5.5156-4.3398c-0.78285 1.4082-1.7737 2.5243-2.9785 3.3418-1.1847 0.78983-2.6119 1.1855-4.2793 1.1855-2.9399 0-5.2202-1.3596-6.8438-4.0801-1.5796-2.7205-2.3711-6.7355-2.3711-12.045 0-2.3256 0.17631-4.4541 0.52734-6.3848 0.35104-1.9746 0.87802-3.6417 1.5801-5.002 0.74595-1.4041 1.6892-2.4787 2.8301-3.2246 1.1847-0.78983 2.5894-1.1856 4.2129-1.1856s3.0487 0.39572 4.2773 1.1856c1.2286 0.74595 2.2375 1.8205 3.0274 3.2246 0.2108 0.35505 0.40709 0.72652 0.58984 1.1152l5.7695-4.541c-0.14709-0.21705-0.28038-0.44632-0.43554-0.65625-1.4919-2.0184-3.3353-3.62-5.5293-4.8047-2.1501-1.2286-4.6292-1.8418-7.4375-1.8418zm230.12 4.3438-1.1836 9.1484h-4.2793v4.4102h3.752v18.891c0 1.1847 0.0881 2.2593 0.26367 3.2246 0.17551 0.96535 0.50366 1.7999 0.98633 2.502 0.48267 0.65819 1.1409 1.1626 1.9746 1.5137 0.87759 0.35103 1.9746 0.52539 3.291 0.52539 1.4919 0 2.9847-0.21941 4.4766-0.6582 1.5358-0.39491 2.719-0.94246 3.5527-1.6445l-1.1836-5.2012c-1.097 0.61431-1.9315 1.0326-2.502 1.252-0.57043 0.2194-1.1405 0.32812-1.7109 0.32812-0.74595 0-1.2504-0.21941-1.5137-0.6582-0.26327-0.48267-0.39453-1.3809-0.39453-2.6973v-17.377h8.791v-4.4102h-8.791v-9.1484zm-201.03 8.1621c-2.5889 0-4.8486 0.43882-6.7793 1.3164-1.9307 0.83371-3.5322 1.9964-4.8047 3.4883-1.2286 1.448-2.1494 3.1377-2.7637 5.0684s-0.92187 3.971-0.92187 6.1211 0.30757 4.1904 0.92187 6.1211c0.61431 1.9307 1.5576 3.6409 2.8301 5.1328 1.2725 1.448 2.874 2.6107 4.8047 3.4883 1.9307 0.87758 4.2335 1.3164 6.9102 1.3164 2.5889 0 4.828-0.41629 6.7148-1.25 1.9307-0.8337 3.5097-1.9533 4.7383-3.3574 1.2725-1.448 2.1932-3.1152 2.7637-5.002 0.61431-1.9307 0.92188-3.971 0.92188-6.1211s-0.30757-4.1904-0.92188-6.1211c-0.57043-1.9746-1.4912-3.7073-2.7637-5.1992-1.2286-1.5358-2.8076-2.7435-4.7383-3.6211-1.9307-0.92146-4.2355-1.3809-6.9121-1.3809zm34.725 0c-1.9307 0.0247-3.8486 0.51081-5.5723 1.3809-1.5073 0.76081-2.8675 1.814-3.9824 3.082h-0.26367l-0.32813-3.4766h-5.6621v30.277h7.2402v-21.521c0.42751-0.40896 0.86657-0.80715 1.3164-1.1914 0.60274-0.51488 1.2282-1.0079 1.918-1.3984 0.67936-0.38465 1.414-0.66467 2.1582-0.90039 0.68113-0.21572 1.3832-0.39653 2.0976-0.39453 0.40268 0.001 0.80798 0.0619 1.1836 0.20703 0.37561 0.14513 0.72077 0.37649 0.97656 0.6875 0.23786 0.28921 0.39243 0.64047 0.49023 1.002 0.0978 0.36148 0.14193 0.73432 0.17383 1.1074 0.0679 0.79526 0.0879 1.5949 0.0605 2.3926v20.01h7.2402v-20.416c0.37059-0.93593 0.90111-1.8095 1.5625-2.5684 0.76091-0.87305 1.7028-1.5987 2.7715-2.0449 1.0687-0.44622 2.2668-0.60421 3.4023-0.37695 0.58678 0.11743 1.1537 0.33818 1.6543 0.66601 0.50062 0.32782 0.9306 0.76226 1.248 1.2695 0.31745 0.50726 0.52088 1.0826 0.625 1.6719 0.10421 0.58928 0.10937 1.1906 0.10937 1.7891v20.01h7.2402v-20.602c-0.00001-1.5452-0.0513-3.1172-0.54883-4.5801-0.4975-1.4629-1.4217-2.7837-2.6562-3.7129-0.8733-0.77632-1.898-1.3834-2.998-1.7773-1.1493-0.41155-2.3749-0.5888-3.5957-0.5918-3.6714-0.008-7.3146 1.6371-9.7363 4.3965-0.69843-1.2983-1.7584-2.3994-3.0293-3.1465-1.5262-0.89723-3.3254-1.2726-5.0957-1.25zm50.045 0c-1.9307 0.0247-3.8505 0.51081-5.5742 1.3809-1.5073 0.76081-2.8675 1.814-3.9824 3.082h-0.26367l-0.32813-3.4766h-5.6602v30.277h7.2402v-21.521c0.42751-0.40896 0.86657-0.80715 1.3164-1.1914 0.60274-0.51487 1.2282-1.0079 1.918-1.3984 0.67936-0.38465 1.412-0.66467 2.1562-0.90039 0.68113-0.21572 1.3832-0.39653 2.0976-0.39453 0.40268 0.001 0.80798 0.0619 1.1836 0.20703 0.37561 0.14513 0.72077 0.37649 0.97656 0.6875 0.23786 0.28921 0.39449 0.64047 0.49219 1.002 0.0978 0.36148 0.13997 0.73432 0.17187 1.1074 0.0679 0.79526 0.088 1.5949 0.0606 2.3926v20.01h7.2402v-20.416c0.37059-0.93593 0.90111-1.8095 1.5625-2.5684 0.76091-0.87305 1.7028-1.5987 2.7715-2.0449 1.0687-0.44622 2.2668-0.60421 3.4023-0.37695 0.58678 0.11743 1.1556 0.33818 1.6562 0.66601 0.50062 0.32782 0.9306 0.76226 1.248 1.2695 0.31745 0.50726 0.51892 1.0826 0.62304 1.6719 0.10421 0.58928 0.10938 1.1906 0.10938 1.7891v20.01h7.2402v-20.602c0-1.5452-0.0513-3.1172-0.54882-4.5801-0.4975-1.4629-1.4217-2.7837-2.6562-3.7129-0.8733-0.77632-1.896-1.3834-2.9961-1.7773-1.1493-0.41155-2.3768-0.5888-3.5976-0.5918-3.6714-0.008-7.3146 1.6371-9.7363 4.3965-0.69843-1.2983-1.7584-2.3994-3.0293-3.1465-1.5262-0.89723-3.3235-1.2726-5.0938-1.25zm83.355 0c-2.2378 0-4.3438 0.4594-6.3184 1.3809-1.9307 0.87758-3.3559 2.2391-4.2773 4.082h-0.26368l-0.33007-4.4766h-5.6602v30.277h7.2402v-19.416c0.30716-0.96535 0.76851-1.8224 1.3828-2.5684 0.65819-0.74595 1.382-1.3591 2.1719-1.8418 0.78982-0.52655 1.6018-0.92227 2.4356-1.1855 0.87759-0.26328 1.6896-0.39453 2.4356-0.39453 3.0715 0 4.6074 1.7984 4.6074 5.3965v20.01h7.2383v-20.602c0-1.9746-0.28504-3.6417-0.85547-5.002-0.57043-1.3602-1.3599-2.4573-2.3691-3.291-0.96534-0.8337-2.083-1.4263-3.3555-1.7773-1.2725-0.39491-2.634-0.5918-4.082-0.5918zm-49.385 0.98633v20.602c0 1.9746 0.26251 3.6417 0.78907 5.002 0.57043 1.3164 1.3168 2.3909 2.2383 3.2246 0.96534 0.78983 2.0624 1.3619 3.291 1.7129 1.2725 0.35103 2.634 0.52539 4.082 0.52539 0.92146 0 1.8647-0.08816 2.8301-0.26367 0.96534-0.13164 1.8861-0.37162 2.7637-0.72266 0.92146-0.39491 1.756-0.89936 2.502-1.5137 0.74594-0.65819 1.3591-1.4927 1.8418-2.502h0.26368l0.39453 4.2129h5.6602v-30.277h-7.3047v19.219c-0.61431 1.9307-1.5576 3.4235-2.8301 4.4766-1.2725 1.0092-2.6771 1.5137-4.2129 1.5137-1.4919 0-2.7202-0.46135-3.6856-1.3828-0.92147-0.96534-1.3828-2.3474-1.3828-4.1465v-19.68zm65.574 0v30.277h7.2402v-30.277zm31.588 0 11.898 30.916c-0.48944 0.86691-1.0091 1.7159-1.6016 2.5156-1.159 1.5647-2.5937 3.0065-4.4082 3.7129-1.5889 0.61854-3.4101 0.61996-5 0.0039l-1.375-0.36914-0.39062 5.6758c0.67223 0.1241 1.3491 0.21939 2.0293 0.28711 0.2629 0.02617 0.52741 0.04872 0.79101 0.06641 2.0298 0.13623 4.114 0.15775 6.0508-0.46484 2.2888-0.73577 4.1404-2.4347 5.7031-4.2617 1.9647-2.2969 3.5972-4.8637 5-7.541 0.67687-1.2919 1.2253-2.649 1.6543-4.043l8.1543-26.498h-6.9766c-1.4875 7.2778-3.4011 14.469-5.7285 21.523-0.10826 0.32815-0.22144 0.65487-0.33203 0.98242l-8.0859-22.506zm-216.1 4.6738c1.3603 0 2.5229 0.30757 3.4883 0.92187 0.96535 0.57044 1.7548 1.3599 2.3692 2.3692 0.65818 0.96534 1.1421 2.1055 1.4492 3.4219 0.30716 1.2725 0.46094 2.6115 0.46094 4.0156 0 1.3602-0.15378 2.6542-0.46094 3.8828-0.26327 1.2286-0.70209 2.3257-1.3164 3.291-0.61431 0.92146-1.4058 1.6679-2.3711 2.2383-0.92146 0.52655-2.0185 0.78906-3.291 0.78906-1.3164 0-2.4565-0.28504-3.4219-0.85547-0.96534-0.61431-1.7774-1.4263-2.4355-2.4355-0.61431-1.0092-1.0737-2.1494-1.3809-3.4219-0.26328-1.3164-0.39649-2.6779-0.39649-4.082 0-1.3603 0.13321-2.6542 0.39649-3.8828 0.30715-1.2286 0.74598-2.3031 1.3164-3.2246 0.61432-0.92146 1.3813-1.6453 2.3027-2.1719 0.92146-0.57043 2.0185-0.85547 3.291-0.85547zm-35.268 39.94c-0.94327-0.01499-1.8867 0.0074-2.8301 0.0093-0.90022 0.0018-1.8006 0.01304-2.6992 0.06641l-2.2363 0.13281v43.439h7.5684v-13.383c0.67867 0.05531 1.3601 0.06641 2.041 0.06641h2.2363c2.2593 0 4.5407-0.24115 6.6484-1.0547 1.7497-0.67533 3.4008-1.6462 4.7383-2.9609 1.2204-1.1997 2.1649-2.6749 2.7656-4.2773 0.97286-2.5953 1.0333-5.437 0.92187-8.2064-0.0824-2.0491-0.26823-4.1541-1.1855-5.9883-0.76203-1.5237-1.9916-2.7731-3.3574-3.7914-1.5651-1.1669-3.3324-2.0618-5.1992-2.6328-3.0554-0.8898-6.2302-1.3685-9.4121-1.419zm1.7109 6.1968c1.4026-0.01362 2.8204 0.05252 4.1722 0.42664 1.3519 0.37411 2.644 1.0785 3.529 2.1667 1.0238 1.2589 1.4207 2.909 1.6445 4.516 0.21199 1.5219 0.29464 3.0759 0.0432 4.5918s-0.85404 2.9986-1.885 4.1381c-0.65871 0.728-1.4945 1.2995-2.4236 1.6167-0.9291 0.31726-1.9266 0.35787-2.9084 0.35787h-2.1719c-0.63665 0-1.2738-0.01078-1.9082-0.06445v-17.683c0.63538-0.03808 1.2717-0.06023 1.9082-0.06641zm35.818 6.1875c-1.097 0-2.0628 0.21941-2.8965 0.6582-0.78983 0.39491-1.4912 0.94246-2.1055 1.6445-0.61431 0.65819-1.1638 1.4271-1.6465 2.3047-0.48267 0.87758-0.94401 1.7758-1.3828 2.6973h-0.26172l-0.33007-6.3184h-5.6602v30.277h7.2402v-17.574c0.26328-0.92146 0.54832-1.8197 0.85547-2.6973 0.30716-0.87758 0.68035-1.6465 1.1191-2.3047 0.4388-0.70207 0.94325-1.2496 1.5137-1.6445 0.57042-0.43879 1.2943-0.6582 2.1719-0.6582 0.65819 0 1.4477 0.10872 2.3691 0.32812 0.92146 0.21939 1.6022 0.50444 2.041 0.85547l1.9082-5.8574c-1.5358-1.1409-3.1804-1.7109-4.9356-1.7109zm18.787 0c-2.5889 0-4.8486 0.43882-6.7793 1.3164-1.9307 0.8337-3.5342 1.9964-4.8066 3.4883-1.2286 1.448-2.1494 3.1377-2.7637 5.0684s-0.92187 3.971-0.92187 6.1211 0.30757 4.1904 0.92187 6.1211c0.61431 1.9307 1.5576 3.6409 2.8301 5.1328 1.2725 1.448 2.874 2.6107 4.8047 3.4883 1.9307 0.87759 4.2355 1.3164 6.9121 1.3164 2.5889 0 4.8261-0.41629 6.7129-1.25 1.9307-0.8337 3.5097-1.9533 4.7383-3.3574 1.2725-1.448 2.1952-3.1151 2.7656-5.002 0.61431-1.9307 0.91993-3.971 0.91993-6.1211s-0.30562-4.1904-0.91993-6.1211c-0.57043-1.9746-1.4931-3.7073-2.7656-5.1992-1.2286-1.5358-2.8076-2.7416-4.7383-3.6191-1.9307-0.92147-4.2335-1.3828-6.9102-1.3828zm32.045 0c-2.7644 0-5.1329 0.43882-7.1074 1.3164-1.9746 0.8337-3.5986 1.9964-4.8711 3.4883-1.2725 1.448-2.2158 3.1377-2.8301 5.0684-0.57043 1.8868-0.85547 3.8821-0.85547 5.9883 0 2.194 0.30757 4.2793 0.92188 6.2539 0.65819 1.9307 1.6015 3.6409 2.8301 5.1328 1.2725 1.448 2.8515 2.6107 4.7383 3.4883 1.9307 0.87759 4.1679 1.3164 6.7129 1.3164 2.4134 0 4.6731-0.35067 6.7793-1.0527 0.72831-0.23781 1.3852-0.48259 2.0078-0.73047l-1.5078-5.5059c-0.39143 0.18284-0.7968 0.35396-1.2226 0.50976-1.7552 0.61431-3.4223 0.92188-5.002 0.92188-1.4041 0-2.655-0.28504-3.752-0.85547-1.0531-0.57043-1.9308-1.3374-2.6328-2.3027-0.70207-0.96534-1.229-2.0849-1.5801-3.3574-0.35103-1.3164-0.52734-2.721-0.52734-4.2129 0-1.2725 0.13321-2.5008 0.39648-3.6855 0.30716-1.1847 0.76655-2.2162 1.3809-3.0938 0.65819-0.92146 1.4927-1.6453 2.502-2.1719 1.0531-0.57043 2.3245-0.85547 3.8164-0.85547 0.78983 0 1.6244 0.08816 2.502 0.26367 0.92146 0.13164 1.7991 0.32852 2.6328 0.5918 0.4552 0.14375 0.88679 0.30275 1.3027 0.47266l1.5547-5.6777c-0.62255-0.21273-1.2777-0.41276-2.002-0.58594-2.0184-0.48267-4.0813-0.72461-6.1875-0.72461zm25.514 0c-2.5011 0-4.7383 0.43882-6.7129 1.3164-1.9307 0.8337-3.5547 1.9964-4.8711 3.4883s-2.3253 3.2247-3.0273 5.1992c-0.6582 1.9307-0.98828 3.971-0.98828 6.1211 0 2.1062 0.33008 4.124 0.98828 6.0547 0.65818 1.9307 1.624 3.6429 2.8965 5.1348 1.2725 1.448 2.8515 2.6107 4.7383 3.4883 1.8868 0.83371 4.0584 1.25 6.5156 1.25 1.3164 0 2.5672-0.13126 3.752-0.39453 1.2286-0.2194 2.3688-0.50444 3.4219-0.85547s1.9983-0.72423 2.832-1.1191c0.8337-0.43879 1.535-0.83255 2.1055-1.1836l-1.1856-5.3984c-1.2725 0.92147-2.829 1.6904-4.6719 2.3047-1.799 0.61431-3.5112 0.92188-5.1348 0.92188-1.448 0-2.7194-0.24194-3.8164-0.72461-1.0531-0.52655-1.9533-1.2073-2.6992-2.041-0.74594-0.87758-1.316-1.8865-1.7109-3.0273-0.39492-1.1847-0.63685-2.4356-0.72461-3.752h19.154c0.17552-0.26328 0.32735-0.59142 0.45899-0.98633 0.17551-0.43879 0.30872-0.92267 0.39648-1.4492 0.13166-0.52655 0.21785-1.0516 0.26172-1.5781 0.0878-0.57043 0.13281-1.0974 0.13281-1.5801 0-3.5542-1.054-6.2978-3.1602-8.2285-2.1062-1.9746-5.0898-2.9609-8.9512-2.9609zm25.117 0c-3.2909 0-5.9689 0.81201-8.0312 2.4355-2.0623 1.5796-3.0918 3.8394-3.0918 6.7793 0 0.78983 0.0862 1.6224 0.26171 2.5 0.2194 0.87758 0.59259 1.7347 1.1192 2.5684 0.57042 0.78983 1.3168 1.5137 2.2383 2.1719 0.96534 0.65819 2.1936 1.1626 3.6855 1.5137l6.3184 1.5801c1.3164 0.35103 2.194 0.78986 2.6328 1.3164 0.43879 0.48267 0.6582 1.0958 0.6582 1.8418 0 1.2725-0.43882 2.2814-1.3164 3.0273-0.87758 0.70207-2.149 1.0527-3.8164 1.0527-1.5797 0-3.3144-0.35066-5.2012-1.0527-1.8429-0.70207-3.5101-1.7766-5.002-3.2246l-1.7109 6.252c1.1847 0.83371 2.7637 1.6026 4.7383 2.3047 1.9746 0.65819 4.1256 0.98633 6.4512 0.98633 1.8429 0 3.5101-0.26251 5.002-0.78906 1.4919-0.48267 2.7652-1.1634 3.8184-2.041 1.0531-0.87758 1.8651-1.909 2.4356-3.0938 0.57043-1.2286 0.85547-2.5451 0.85547-3.9492-0.00001-0.78983-0.11068-1.6449-0.33008-2.5664-0.2194-0.92147-0.65822-1.8197-1.3164-2.6973-0.61431-0.87758-1.492-1.6896-2.6328-2.4355-1.097-0.74595-2.5672-1.316-4.4102-1.7109l-4.6719-1.0547c-1.4919-0.35103-2.4802-0.78985-2.9629-1.3164-0.4388-0.57043-0.65821-1.1836-0.65821-1.8418 0-1.0092 0.39572-1.7781 1.1856-2.3047 0.83371-0.57043 1.9739-0.85547 3.4219-0.85547 1.9307 0 3.686 0.37319 5.2656 1.1191 1.5796 0.70207 2.808 1.4034 3.6856 2.1055l1.9102-5.9219c-1.3602-0.87758-3.0293-1.5358-5.0039-1.9746-1.9746-0.48267-3.816-0.72461-5.5274-0.72461zm24.318 0c-3.2909 0-5.967 0.81201-8.0293 2.4355-2.0623 1.5796-3.0938 3.8394-3.0938 6.7793 0 0.78983 0.0881 1.6224 0.26367 2.5 0.21939 0.87758 0.59258 1.7347 1.1191 2.5684 0.57042 0.78983 1.3168 1.5137 2.2383 2.1719 0.96534 0.65819 2.1936 1.1626 3.6856 1.5137l6.3184 1.5801c1.3164 0.35103 2.194 0.78986 2.6328 1.3164 0.43879 0.48267 0.6582 1.0958 0.6582 1.8418 0 1.2725-0.43882 2.2814-1.3164 3.0273-0.87759 0.70207-2.151 1.0527-3.8184 1.0527-1.5797 0-3.3124-0.35066-5.1992-1.0527-1.8429-0.70207-3.5101-1.7766-5.002-3.2246l-1.7109 6.252c1.1847 0.83371 2.7637 1.6026 4.7383 2.3047 1.9746 0.65819 4.1256 0.98633 6.4512 0.98633 1.8429 0 3.5101-0.26251 5.002-0.78906 1.4919-0.48267 2.7633-1.1634 3.8164-2.041 1.0531-0.87758 1.8651-1.909 2.4356-3.0938 0.57043-1.2286 0.85546-2.5451 0.85546-3.9492 0-0.78983-0.10872-1.6449-0.32812-2.5664-0.21939-0.92147-0.65822-1.8197-1.3164-2.6973-0.61431-0.87758-1.492-1.6896-2.6328-2.4355-1.097-0.74595-2.5672-1.316-4.4102-1.7109l-4.6738-1.0547c-1.4919-0.35103-2.4783-0.78985-2.9609-1.3164-0.43879-0.57043-0.6582-1.1836-0.6582-1.8418 0-1.0092 0.39376-1.7781 1.1836-2.3047 0.83371-0.57043 1.9758-0.85547 3.4238-0.85547 1.9307 0 3.686 0.37319 5.2656 1.1191 1.5797 0.70207 2.808 1.4034 3.6856 2.1055l1.9082-5.9219c-1.3602-0.87758-3.0274-1.5358-5.002-1.9746-1.9746-0.48267-3.818-0.72461-5.5293-0.72461zm-107.19 5.6602c1.3603 0 2.5229 0.30757 3.4883 0.92188 0.96534 0.57043 1.7568 1.3599 2.3711 2.3691 0.65818 0.96534 1.1401 2.1055 1.4473 3.4219 0.30716 1.2725 0.46094 2.6115 0.46094 4.0156 0 1.3603-0.15378 2.6542-0.46094 3.8828-0.26327 1.2286-0.70209 2.3257-1.3164 3.291-0.61431 0.92147-1.4038 1.6679-2.3691 2.2383-0.92147 0.52655-2.0185 0.78906-3.291 0.78906-1.3164 0-2.4565-0.28504-3.4219-0.85547-0.96534-0.61431-1.7774-1.4263-2.4356-2.4355-0.61431-1.0092-1.0757-2.1494-1.3828-3.4219-0.26328-1.3164-0.39453-2.6759-0.39453-4.0801 0-1.3603 0.13125-2.6561 0.39453-3.8848 0.30715-1.2286 0.74598-2.3031 1.3164-3.2246 0.61432-0.92146 1.3813-1.6453 2.3027-2.1719 0.92146-0.57043 2.0185-0.85547 3.291-0.85547zm57.561 0c1.5358 0 2.7866 0.46135 3.752 1.3828 0.96534 0.92147 1.4473 2.0841 1.4473 3.4883 0 0.26327-0.0206 0.48268-0.0645 0.6582 0 0.17551-0.0225 0.3293-0.0664 0.46094h-12.572c0.57044-1.8429 1.4931-3.2926 2.7656-4.3457 1.3164-1.097 2.8954-1.6445 4.7383-1.6445z" fill="#5382a1"/>
<polygon id="polygon7276-0" fill-rule="evenodd" transform="matrix(.98334 0 0 1.2944 6.6648 -284.16)" points="192.76 0 192.76 192.76 0 192.76 0 0 0 0" clip-rule="evenodd" fill="#5382a1"/>
<path id="path7278-6" d="m116.12-267.83c6.2466 24.603-22.029 32.034-32.233 47.357-6.95 10.439 3.4071 21.659 17.532 34.401-5.5084-12.45-24.18-23.348 0.0141-42.457 30.169-23.813 14.687-39.301 14.687-39.301zm18.669 30.439c-0.001-0.001-51.02 12.736-26.655 40.812 7.1924 8.279-1.8852 15.725-1.8852 15.725s18.255-9.4157 9.8711-21.218c-7.8278-11.001-13.833-16.471 18.669-35.319zm9.7934 50.168c-2.011-0.0967-4.1798 0.20427-6.4113 0.98848-1.5651 0.55385-2.3866 1.8429-2.3866 1.8429s0.99192-0.40031 3.1986-0.86145c9.0257-1.8815 21.951 12.08-6.0088 26.605-0.12857 0.34631-0.55905 0.73435-0.55781 0.73435 32.668-8.5876 26.243-28.635 12.166-29.31zm-62.044 1.4051c-3.5644 0.0928-11.906 0.86451-21.606 5.5569-15.297 7.3963 37.834 10.766 65.341 3.5304 2.8619-1.9508 6.8138-3.6434 6.8138-3.6434s-11.251 2.0107-22.461 2.9514c-13.721 1.1509-28.445 1.3832-35.834 0.39543-17.494-2.339 9.5957-8.7767 9.5957-8.7767s-0.66182-0.0454-1.85-0.0141zm-4.449 16.91c-25.235 8.3754 14.043 17.879 49.313 7.5622-3.747-1.3203-6.1288-3.7352-6.1288-3.7352-17.244 3.318-27.199 3.2094-39.816 1.9064-9.755-1.0087-3.368-5.7335-3.368-5.7335zm3.5658 16.318c-22.913 6.4012 13.938 19.626 43.114 7.1244-4.7817-1.8556-8.2048-4.0035-8.2048-4.0035-13.011 2.4613-19.045 2.655-30.856 1.3063-9.7464-1.1188-4.053-4.4272-4.053-4.4272zm-14.814 10.817c-9.8466-0.37869-32.198 9.4563-13.112 12.554 59.477 9.6438 108.42-4.3433 92.999-11.304 0 0 4.2078 3.4708-4.6461 6.1571-16.836 5.0994-70.08 6.6393-84.872 0.20463-5.3133-2.3142 4.6519-5.522 7.7882-6.1994 3.271-0.70714 5.1403-0.57903 5.1403-0.57903-0.7391-0.52045-1.8908-0.77907-3.2974-0.83318zm89.327 8.8403s-1.8758 4.8097-22.178 8.6284c-22.906 4.3119-51.165 3.8104-67.919 1.045 0 0 3.4337 2.8404 21.07 3.9753 26.833 1.7159 68.049-0.94896 69.027-13.649zm-105.78 23.795v38.955c0 5.6693-0.38528 8.0362-1.3063 9.8782-1.0693 2.067-3.3698 4.2939-6.0512 5.6699l3.4528 4.06c3.5195-1.2993 6.7369-3.6013 8.7272-6.5102 1.9928-2.9855 2.5984-6.0516 2.5984-13.635v-38.418h-7.421zm27.213 11.509c-5.0005 0-9.3856 1.2366-12.95 2.8102l1.0309 4.3212c2.8075-1.031 6.4354-1.9841 9.9982-1.9841 4.9375 0 7.0609 1.9877 7.0609 6.1006v3.0785h-2.4642c-11.994 0-17.405 4.6547-17.405 11.65 0 6.0278 3.5667 9.4546 10.281 9.4546 4.3156 0 7.5388-1.7776 10.549-4.3848l0.54368 3.6999h5.4863v-24.395c0-6.2343-3.5599-10.351-12.131-10.351zm63.724 0c-5.0055 0-9.3927 1.2366-12.957 2.8102l1.0309 4.3212c2.8075-1.031 6.4412-1.9841 10.005-1.9841 4.93 0 7.0609 1.9877 7.0609 6.1006v3.0785h-2.4713c-11.995 0-17.405 4.6547-17.405 11.65 0 6.0278 3.5584 9.4546 10.274 9.4546 4.3194 0 7.5384-1.7776 10.556-4.3848l0.55075 3.6999h5.4792v-24.395c0-6.2343-3.5615-10.351-12.124-10.351zm-47.484 0.62139 10.492 34.125h8.7061c4.998-10.551 8.5685-22.89 10.549-34.125h-7.3998c-1.1658 8.9045-3.495 18.157-6.7784 27.269l-1.4475-6.2984-6.5101-20.971h-7.6116zm60.272 0.0422v0.45893h0.81201v2.2807h0.57192v-2.2807h0.81907v-0.45893h-2.203zm2.6549 0v2.7396h0.54369v-2.1677h0.007l0.812 2.1677h0.36717l0.812-2.1677h0.0141v2.1677h0.52251v-2.7396h-0.79082l-0.7414 1.9347-0.74845-1.9347h-0.79788zm-76.964 18.118h2.9373v8.0847c-2.5306 2.193-5.2026 3.4245-7.6046 3.4245-3.4219 0-5.2815-2.0555-5.2815-5.3451 0-3.5615 1.9925-6.1642 9.9488-6.1642zm63.71 0h2.9514v8.0847c-2.538 2.193-5.2146 3.4245-7.6116 3.4245-3.4219 0-5.2745-2.0555-5.2745-5.3451 0-3.5615 1.9833-6.1642 9.9347-6.1642z" fill-rule="evenodd" stroke="#fff" clip-rule="evenodd" stroke-width=".1" fill="#fff"/>
</g>
</g>
</svg>
