<svg xmlns:rdf="http://www.w3.org/1999/02/22-rdf-syntax-ns#" xmlns="http://www.w3.org/2000/svg" xml:space="preserve" version="1.1" xmlns:cc="http://creativecommons.org/ns#" xmlns:dc="http://purl.org/dc/elements/1.1/" viewBox="0 0 270 90"><defs><clipPath id="clipPath18" clipPathUnits="userSpaceOnUse"><path id="path20" d="m0 72h216v-72h-216v72z"/></clipPath></defs><g transform="matrix(1.25,0,0,-1.25,0,90)"><path id="path12" d="m18.652 64.361h178.34v-8.788h-178.34l0.002 8.788z" fill-rule="evenodd" fill="#2b7981"/><g clip-path="url(#clipPath18)"><g transform="translate(122.16 50.948)"><path id="path24" d="m0 0h14.775c1.883-7.322 3.768-14.647 5.653-21.969h0.025c1.867 7.322 3.734 14.647 5.602 21.969h14.75v-36.255h-9.2c-0.007 9.129-0.017 18.261-0.025 27.39-2.338-9.129-4.678-18.261-7.016-27.39h-8.349c-2.338 9.155-4.678 18.312-7.016 27.467v-27.467h-9.199v36.255z" fill-rule="evenodd" fill="#2b7981"/></g><g transform="translate(46.055 29.441)"><path id="path28" d="m0 0c-0.193-1.172-0.29-2.297-0.616-3.341-1.086-3.475-3.297-6.179-6.604-7.426-0.981-0.37-2.018-0.478-3.212-0.668-0.54 0.009-1.08 0.017-1.619 0.026-2.178 0.335-3.263 0.552-4.804 1.465-3.62 2.144-5.68 5.922-5.679 11.691 0 1.107-0.045 2.221 0.128 3.212 0.24 1.367 0.454 2.608 0.822 3.803 1.023 3.319 3.703 5.671 7.015 6.706 0.622 0.194 1.269 0.266 1.978 0.386 0.377 0.025 0.754 0.051 1.131 0.077 6.515 0.002 9.717-3.942 11.023-9.096 0.441-1.736 0.798-4.646 0.437-6.835m4.574 4.573c-0.216 1.246-0.304 2.48-0.642 3.598-1.649 5.454-4.888 9.304-10.279 10.997-0.986 0.311-2.075 0.425-3.212 0.617-0.556 0.026-1.113 0.051-1.67 0.077-0.47-0.017-0.942-0.034-1.413-0.051-1.016-0.172-2.045-0.188-2.955-0.463-3.874-1.166-6.801-3.281-8.736-6.372-1.035-1.656-1.729-3.511-2.262-5.627-0.293-1.166-0.303-2.411-0.513-3.701-0.009-0.565-0.017-1.13-0.026-1.696 0-2.373 0.361-4.236 0.9-6.012 1.214-4.003 3.413-6.908 6.655-8.942 0.911-0.572 1.98-1.189 3.108-1.517 0.836-0.241 1.674-0.437 2.571-0.616 0.582-0.06 1.164-0.12 1.747-0.179 0.607 0.008 1.215 0.016 1.824 0.025 0.514 0.043 1.027 0.086 1.542 0.129 1.541 0.31 2.912 0.688 4.162 1.233 4.863 2.121 7.492 5.927 8.839 11.588 0.424 1.779 0.728 4.785 0.36 6.912" fill-rule="evenodd" fill="#2b7981"/></g><g transform="translate(186.07 39.257)"><path id="path32" d="m0 0c-0.617-3.965-4.059-3.797-8.582-3.752 0.008 2.681 0.018 5.362 0.025 8.043 3.836 0.014 7.018 0.376 8.198-2.364 0.201-0.467 0.474-1.19 0.359-1.927m10.689 3.392c-0.302 1.735-0.955 3.233-1.849 4.393-3.162 4.095-8.004 3.906-15.135 3.906h-13.568v-36.255h11.306v13.412c3.217-0.001 7.323-0.293 10.047 0.308 5.967 1.318 9.432 4.498 9.43 11.769 0 0.92-0.098 1.701-0.231 2.467" fill-rule="evenodd" fill="#2b7981"/></g><g transform="translate(120.06 14.692)"><path id="path36" d="m0 0h-4.111v12.873c0.002 2.31 0.158 4.966-0.719 6.449-0.77 1.303-1.963 1.902-3.777 2.185-1.778 0.276-3.149-0.489-4.137-1.054-2.686-1.534-2.723-5.106-2.723-9.353v-11.1h-4.112v24.642h3.701v-3.418c0.016 0.008 0.034 0.017 0.05 0.026 0.234 0.555 0.778 1.033 1.183 1.438 1.046 1.047 2.317 1.83 3.983 2.261 3.58 0.929 7.529-0.503 9.017-2.44 1.696-2.207 1.645-5.208 1.645-9.122v-13.387z" fill-rule="evenodd" fill="#2b7981"/></g><g transform="translate(69.849 23.377)"><path id="path40" d="m0 0c-0.674-2.661-2.06-4.801-4.6-5.575-0.479-0.07-0.959-0.138-1.438-0.206-1.345-0.216-2.641 0.564-3.366 1.028-2.89 1.843-3.875 7.099-2.904 11.665 0.553 2.6 1.871 4.56 3.88 5.704 0.576 0.329 1.239 0.294 1.927 0.566 4.13 0.021 5.809-2.723 6.578-5.988 0.188-0.796 0.107-1.594 0.257-2.492 0.24-1.43-0.044-3.556-0.334-4.702m4.548 5.113c-0.111 0.848-0.223 1.697-0.334 2.544-0.875 3.643-2.505 6.364-5.525 7.863-1.28 0.635-3.251 1.284-5.344 0.951-0.856-0.136-1.605-0.249-2.287-0.54-1.236-0.527-2.359-1.419-3.135-2.415-0.162-0.223-0.325-0.446-0.488-0.668v-0.052c-0.008 1.054-0.017 2.107-0.026 3.161h-3.751c0.009-11.69 0.017-23.384 0.026-35.074h4.008c0.002 4.253 0.079 8.528 0.078 12.899 0.334-0.351 0.667-0.703 1.001-1.053 0.877-0.707 1.851-1.322 3.058-1.697 2.216-0.687 5.081-0.088 6.604 0.797 3.447 2.002 4.927 4.23 5.858 8.736 0.255 1.236 0.485 3.05 0.257 4.548" fill-rule="evenodd" fill="#2b7981"/></g><g transform="translate(80.539 31.754)"><path id="path44" d="m0 0c0.557 1.823 1.936 3.386 3.597 4.111 0.48 0.146 0.96 0.291 1.439 0.437l0.771 0.102c4.844 0.025 6.642-2.711 7.143-7.04h-13.387c0.158 0.866 0.207 1.636 0.437 2.39m12.153-10.844c-0.59-1.006-1.278-1.853-2.26-2.467-0.575-0.358-1.25-0.597-2.031-0.745-4.022-0.759-7.051 1.951-7.888 4.728-0.162 0.669-0.326 1.337-0.488 2.005l-0.155 1.465v0.025h17.961c0.015 6.529-1.58 10.316-5.729 12.745-0.82 0.48-1.852 0.788-2.878 1.027-0.95 0.222-2.4 0.3-3.469 0.129-0.905-0.145-1.637-0.174-2.39-0.411-3.496-1.099-5.882-3.708-6.989-7.118-0.314-0.967-0.447-2.019-0.643-3.135-0.177-1.017-0.036-2.201-0.077-3.288-0.188-5.103 3.043-9.635 6.733-10.947 0.872-0.31 1.774-0.508 2.775-0.693 0.78-0.145 1.941-0.211 2.801-0.078 0.809 0.127 1.504 0.103 2.21 0.284 2.86 0.731 4.801 2.198 6.166 4.419 0.477 0.775 1.297 2.197 1.362 3.289-1.404 0.179-2.81 0.359-4.214 0.54-0.265-0.591-0.531-1.183-0.797-1.774" fill-rule="evenodd" fill="#2b7981"/></g><g transform="translate(49.91 10.118)"><path id="path48" d="m0 0c-0.006-1.124 0-2.293 0-3.52h-31.258v3.495c10.419 0.008 20.84 0.016 31.258 0.025" fill-rule="evenodd" fill="#2b7981"/></g><g transform="translate(196.99 10.067)"><path id="path52" d="m0 0v-3.443c-45.449-0.009-90.914-0.018-136.36-0.026v3.494c45.569 0 90.829-0.023 136.36-0.025" fill-rule="evenodd" fill="#2b7981"/></g></g><text style="writing-mode:lr" font-family="Arial" transform="matrix(1 0 0 -1 181.6 14.857)" font-size="5.5854" fill="#2b7981"><tspan y="0" x="0">®</tspan></text>
</g></svg>
