<svg xmlns:rdf="http://www.w3.org/1999/02/22-rdf-syntax-ns#" xmlns="http://www.w3.org/2000/svg" xml:space="preserve" version="1.1" xmlns:cc="http://creativecommons.org/ns#" xmlns:dc="http://purl.org/dc/elements/1.1/" viewBox="0 0 130 32"><defs><clipPath id="clipPath16" clipPathUnits="userSpaceOnUse"><path id="path18" d="m0 841.89h595.28v-841.89h-595.28v841.89z"/></clipPath></defs><g transform="matrix(1.25 0 0 -1.25 -200 518.02)"><g transform="matrix(.37917 0 0 .37917 99.332 241.39)"><g clip-path="url(#clipPath16)"><g transform="translate(279.7 405.25)"><path id="path22" d="m0 0c7.475 0 13.452 13.336 13.452 18.976 0 5.13-2.987 7.694-8.471 7.185l-9.961-24.112c0.994-1.029 2.989-2.049 4.98-2.049m-5.479-14.365h-15.942l0.498 1.537c3.983 0.515 4.482 0.515 5.475 2.564l14.454 34.37c-2.992-1.537-5.982-4.101-7.972-6.667l-0.997 1.025c1.494 1.541 4.484 5.128 9.963 7.697 2.492 1.538 5.479 2.049 7.972 2.049 6.977-0.511 10.466-4.618 10.466-10.258 0-11.796-11.461-18.979-17.443-18.979-1.989 0-5.477 0.513-6.474 2.047-0.498-2.047-4.981-11.284-4.981-12.305 0-1.543 3.484-1.543 5.48-1.543l-0.499-1.537z" fill="#0083a2"/></g><g transform="translate(320.05 429.87)"><path id="path26" d="m0 0c0 1.029-0.502 2.051-1.991 2.051-1.002 0-2.493-1.022-3.491-2.051-2.988-2.563-6.479-8.722-7.972-12.311 4.484 1.539 13.454 7.696 13.454 12.311m-1.991-16.926c-2.493-4.104-6.979-8.721-12.455-8.721-3.987 0-5.983 2.564-5.983 6.156 0 7.18 10.466 22.571 18.934 22.571 2.489 0 4.978-1.029 4.978-3.594 0-6.154-12.95-11.281-17.434-13.85-0.495-1.025-1.494-5.127-1.494-6.154 0-1.539 0.497-3.082 2.49-3.082 3.985 0 7.975 4.623 9.962 7.185l1.002-0.511z" fill="#0083a2"/></g><g transform="translate(322.54 404.73)"><path id="path30" d="m0 0c1.494 3.592 10.96 22.055 10.96 24.106 0 0.514 0 1.536-0.495 1.536-1.494 0-4.985-5.639-7.471-7.689l-1 0.512c1.993 2.566 6.977 9.748 11.458 9.748 1.496 0 1.996-1.538 1.996-2.571 0-2.559-2.987-8.203-4.488-10.767h0.5c2.491 4.103 9.965 13.338 15.448 13.338 1.991 0 3.488-0.515 3.488-2.571 0-4.099-9.965-21.027-9.965-22.566 0 0 0-0.513 0.496-0.513 1.498 0 5.981 5.13 6.476 6.156l0.996-1.026c-1.491-2.566-7.968-8.207-11.456-8.207-0.998 0-1.995 1.028-1.995 2.047 0 2.571 10.464 19.498 10.464 22.573 0 0.514-0.497 1.536-0.998 1.536-6.476 0-17.437-19.486-19.428-25.642h-4.986z" fill="#0083a2"/></g><g transform="translate(256.04 446.8)"><path id="path34" d="m0 0c-4.983 2.052-9.466 1.028-12.458-2.566 1.493 1.026 4.485 4.105 9.962 2.052 5.484-2.052 6.482-8.719 5.985-12.308-0.997-14.366-11.462-41.555-27.903-42.582-9.466-1.024-14.446 5.648-14.943 7.181h-0.504c2.493-6.154 8.972-9.746 16.441-9.746 19.93-0.508 34.881 21.549 33.883 40.012-0.5 10.776-5.98 15.906-10.463 17.957" fill="#009585"/></g><g transform="translate(221.66 396.52)"><path id="path38" d="m0 0c6.971-2.559 10.958 0.52 11.958 1.545-7.475-3.594-14.45 0.508-14.948 10.26-0.499 13.335 12.456 44.622 28.894 44.622 5.978 0 9.964-2.047 13.452-5.642-1.49 3.081-6.97 7.694-14.942 7.694-19.433 0-34.379-19.489-33.881-40.008 0.501-11.282 4.984-16.418 9.467-18.471" fill="#009585"/></g><g transform="translate(370.42 407.51)"><path id="path42" d="m0 0c0-0.889 0.285-1.48 0.574-1.779v-0.293c-0.289 0-0.574 0-1.151-0.297-1.437-0.295-2.875-0.592-4.313-0.592-2.591 0-5.177 0.889-6.905 2.666-1.437 1.481-2.015 3.258-2.015 5.332 0 1.774 0.578 3.848 2.015 5.33 1.728 1.774 4.026 2.961 7.191 2.961 1.152 0 2.302-0.296 3.166-0.591h1.438c0-0.889 0-2.073 0.285-3.852-0.285-0.297-0.575-0.297-0.862 0-0.286 2.369-2.015 3.256-4.313 3.256-4.029 0-5.754-2.957-5.754-6.809 0-1.779 0.288-3.853 1.437-5.332 1.152-1.48 3.167-2.072 4.317-2.072 1.151 0 2.014 0.293 2.014 0.592 0.284 0.294 0.284 0.591 0.284 1.48v0.891c0 1.775 0 1.775-1.433 2.072h-0.865c-0.287 0.295-0.287 0.59 0 0.889 0.865-0.299 2.014-0.299 3.452-0.299 1.148 0 2.012 0 2.876 0.299 0.288-0.299 0.288-0.594 0-0.889h-0.288c-0.865 0-1.15-0.297-1.15-1.777v-1.186z" fill="#0083a2"/></g><g transform="translate(377.89 413.44)"><path id="path46" d="m0 0c0-0.592 0-0.592 1.151-0.592 2.303 0 3.166 0.889 3.166 3.256 0 1.779-1.15 3.26-2.879 3.26-1.438 0-1.438 0-1.438-0.889v-5.035zm-2.589 3.555c0 2.072 0 2.369-1.148 2.369l-0.576 0.293v0.596c1.439 0 3.451 0.295 5.464 0.295 1.729 0 3.166-0.295 4.317-0.891 1.15-0.59 2.011-1.774 2.011-3.553 0-2.072-1.724-2.961-2.875-3.551v-0.297c1.725-3.261 2.875-5.33 4.027-6.22 0.576-0.592 1.44-0.592 1.44-0.592 0.287 0 0.287-0.297 0.287-0.592h-1.727c-2.013 0-3.163 0.885-4.602 2.959-0.575 1.184-1.149 2.371-1.727 3.258-0.573 0.596-0.864 0.891-1.437 0.891-0.865 0-0.865-0.295-0.865-0.592v-2.961c0-2.371 0.288-2.67 1.438-2.67h0.58c0-0.293 0-0.59-0.289-0.885-0.864 0-2.015 0.295-2.877 0.295-1.152 0-2.013-0.295-3.165-0.295 0 0.295-0.289 0.592 0 0.885h0.576c1.148 0 1.148 0.299 1.148 2.67v8.588z" fill="#0083a2"/></g><g transform="translate(391.13 413.14)"><path id="path50" d="m0 0c0-3.258 1.438-7.699 5.18-7.699 2.588 0 4.603 2.072 4.603 6.812 0 3.553-1.441 7.401-4.89 7.401-2.303 0-4.893-1.477-4.893-6.514m12.944-0.59c0-4.443-3.448-7.998-8.051-7.998-4.893 0-8.056 3.852-8.056 7.998 0 4.738 3.453 8.291 8.343 8.291 5.176 0 7.764-3.849 7.764-8.291" fill="#0083a2"/></g><g transform="translate(407.24 416.99)"><path id="path54" d="m0 0c0 2.369-0.289 2.662-1.153 2.662h-0.574c0 0.301 0 0.597 0.287 0.891 0.864-0.294 1.725-0.294 2.875-0.294 0.864 0 2.015 0 2.879 0.294 0.287-0.294 0.287-0.59 0.287-0.891h-0.579c-1.148 0-1.432-0.293-1.432-2.662v-5.33c0-3.258 1.146-5.928 4.311-5.928 2.877 0 4.028 2.373 4.028 5.928v2.961c0 1.478 0 3.849-0.288 4.441-0.287 0.297-0.576 0.59-1.15 0.59h-0.577c-0.288 0.301 0 0.597 0 0.891 0.864-0.294 1.727-0.294 2.591-0.294s1.724 0 2.303 0.294c0.287-0.294 0.287-0.59 0.287-0.891h-0.579c-0.573 0-0.861-0.293-1.147-0.59-0.29-0.592-0.29-2.666-0.29-4.441v-2.961c0-2.074-0.286-3.854-1.438-5.334-1.15-1.184-2.875-1.775-4.317-1.775-2.302 0-3.734 0.591-4.889 1.48-0.864 1.186-1.435 2.666-1.435 5.033v5.926z" fill="#0083a2"/></g><g transform="translate(424.5 416.99)"><path id="path58" d="m0 0c0 2.072 0 2.369-1.148 2.369l-0.577 0.293c-0.288 0-0.288 0.301 0 0.597 1.438 0 2.874 0.294 4.892 0.294 2.3 0 3.74-0.59 4.89-1.184s1.725-1.777 1.725-3.26c0-3.55-3.166-4.736-4.889-4.736h-0.577c-0.287 0.297-0.287 0.592 0 0.592 2.014 0.594 2.591 2.072 2.591 3.849 0 2.075-1.152 3.555-3.168 3.555-1.148 0-1.148 0-1.148-0.889v-10.068c0-2.371 0.288-2.67 1.148-2.67h0.866c0.288-0.293 0.288-0.59 0-0.885-1.15 0-2.3 0.295-3.164 0.295-1.151 0-2.303-0.295-3.166-0.295v0.885h0.287c1.151 0 1.438 0.299 1.438 2.67v8.588z" fill="#0083a2"/></g><g transform="translate(166.02 430.65)"><path id="path62" d="m0 0c0 0.884 0 0.884-0.573 0.884h-1.431c-2.006 0-2.58-0.295-3.439-2.064 0-0.295-0.574 0-0.574 0 0.288 1.473 0.574 2.95 0.86 3.539 0 0.296 0 0.296 0.285 0.296v-0.296c0.288-0.589 0.576-0.589 2.007-0.589h9.169c1.145 0 1.432 0.293 1.718 0.589 0.287 0 0.287 0.296 0.287 0.296 0.286 0 0.286-0.296 0.286-0.296 0-0.883-0.286-2.949-0.286-3.539 0-0.295-0.573-0.295-0.573 0-0.287 1.769-0.859 2.064-3.151 2.064h-1.433c-0.574 0-0.574 0-0.574-0.884v-10.029c0-2.36 0.288-2.657 1.433-2.657h0.574c0.285-0.293 0.285-0.588 0-0.883-1.147 0-2.293 0.295-3.152 0.295-1.145 0-2.292-0.295-3.725-0.295v0.883h1.146c0.859 0 1.146 0.297 1.146 2.657v10.029z" fill="#0083a2"/></g><g transform="translate(181.49 424.75)"><path id="path66" d="m0 0c-1.146 0-1.146-0.296-1.146-0.884v-3.246c0-2.36 0-2.657 1.146-2.657h0.859c0-0.293 0-0.588-0.287-0.883-1.145 0-2.005 0.295-3.151 0.295-0.859 0-2.005-0.295-2.864-0.295v0.883h0.285c1.146 0 1.433 0.297 1.433 2.657v8.554c0 2.359-0.287 2.652-1.433 2.652h-0.573c0 0.299 0 0.593 0.288 0.886 0.859-0.293 2.005-0.293 2.864-0.293 1.146 0 2.006 0 2.864 0.293 0.287-0.293 0.287-0.587 0-0.886h-0.285c-1.146 0-1.146-0.293-1.146-2.652v-2.95c0-0.59 0-0.59 1.146-0.59h5.157c1.146 0 1.432 0 1.432 0.59v2.95c0 2.359-0.286 2.652-1.432 2.652h-0.287c-0.287 0.299-0.287 0.593 0 0.886 0.86-0.293 2.005-0.293 2.866-0.293 1.145 0 2.004 0 3.151 0.293v-0.886h-0.575c-0.858 0-1.145-0.293-1.145-2.652v-8.554c0-2.36 0.287-2.657 1.145-2.657h0.575c0.286-0.293 0-0.588 0-0.883-1.147 0-2.006 0.295-3.151 0.295-0.861 0-2.006-0.295-2.866-0.295-0.287 0.295-0.287 0.59 0 0.883h0.287c1.146 0 1.432 0.297 1.432 2.657v3.246c0 0.588-0.286 0.884-1.432 0.884h-5.157z" fill="#0083a2"/></g><g transform="translate(196.39 429.17)"><path id="path70" d="m0 0c0 2.359-0.286 2.652-1.146 2.652h-0.572c0 0.299 0 0.593 0.287 0.886 0.859-0.293 1.718-0.293 2.864-0.293h4.298c1.432 0 2.579 0 2.864 0.293 0.287-0.587 0.287-2.358 0.574-3.243-0.287-0.295-0.574-0.295-0.859-0.295-0.287 1.475-0.574 2.064-1.434 2.064-0.573 0.295-1.145 0.295-1.717 0.295h-1.436c-1.144 0-1.144 0-1.144-1.179v-4.13c0-0.59 0-0.59 0.574-0.59h1.144c2.006 0 2.292 0 2.579 1.18v0.59c0.287 0.294 0.575 0.294 0.86 0v-2.359-2.361h-0.86v0.885c-0.287 0.885-0.573 1.181-2.579 1.181h-1.144c-0.574 0-0.574-0.296-0.574-0.884v-2.659c0-1.179 0-2.06 0.574-2.652 0.286-0.295 0.57-0.295 2.578-0.295 2.864 0 3.151 0.59 4.01 2.36 0.287 0.295 0.574 0 0.86 0-0.286-1.18-0.86-2.95-1.146-3.54-0.86 0-2.866 0.295-5.443 0.295h-2.579c-1.146 0-2.579-0.295-3.438-0.295-0.287 0.295-0.287 0.59 0 0.883h0.859c0.86 0 1.146 0.297 1.146 2.657v8.554z" fill="#0083a2"/></g></g></g></g></svg>
