<svg xmlns:rdf="http://www.w3.org/1999/02/22-rdf-syntax-ns#" xmlns="http://www.w3.org/2000/svg" viewBox="0 0 2012 772" version="1.1" xmlns:cc="http://creativecommons.org/ns#" xmlns:dc="http://purl.org/dc/elements/1.1/">
<path id="path7872-7-9-2-0-3" d="m412.57 1.5039c-24.1 0.3113-46.46 11.052-65.92 24.504-23.02 15.913-42.96 35.766-60.72 57.328-26.25 31.864-48.26 66.884-68.03 103.02-10.75 19.67-21.39 39.4-32.19 59.05a243.24 243.24 0 0 0 14.74 31.02 243.24 243.24 0 0 0 1.92 2.97 278.95 278.95 0 0 1 210.23 -96.13 278.95 278.95 0 0 1 208.31 93.84 243.24 243.24 0 0 0 18.25 -38.44c-13.84-25.3-27.52-50.69-41.68-75.8-16.81-29.79-36.82-57.68-58.66-84.032-21.28-25.694-46.56-48.382-75.77-64.514-15.36-8.4776-32.84-13.048-50.48-12.82zm-264.22 370.98a243.24 243.24 0 0 0 -39.01 3.47c-14.865 24.52-29.751 49.03-44.328 73.72-26.94 45.63-48.042 95.09-58.772 147.19-4.6321 22.49-6.6836 46.09-1.408 68.59 6.504 27.74 26.803 50.24 50.346 65.31 28.206 18.06 61.592 25.51 94.292 30.27 53.79 7.82 108.26 9.14 162.52 10.7 7.34 0.21 14.68 0.39 22.02 0.56a243.24 243.24 0 0 0 25.34 -36.48 278.95 278.95 0 0 1 -225.71 -273.58 278.95 278.95 0 0 1 15.19 -89.73 243.24 243.24 0 0 0 -0.48 -0.02zm528.5 0a243.24 243.24 0 0 0 -0.42 0.03 278.95 278.95 0 0 1 15.12 89.72 278.95 278.95 0 0 1 -225.77 273.73 243.24 243.24 0 0 0 25.39 36.58c36.18-0.77 72.35-2.11 108.48-4.11 43.26-2.4 86.9-5.89 128.76-17.83 30.4-8.67 59.39-25.28 78.75-50.74 13.17-17.33 19.28-39.05 19.56-60.7 0.32-23.7-4.92-46.92-11-69.61-13.35-49.84-37.52-95.93-64.17-139.88-10.74-17.71-21.51-35.39-32.26-53.1a243.24 243.24 0 0 0 -42.44 -4.09z" fill="#fe8a00"/>
<path id="path7872-7-9-2-0-3-9" d="m613.36 191.47a243.24 243.24 0 0 1 -37.83 44.76 278.95 278.95 0 0 1 45.38 40.88 243.24 243.24 0 0 0 18.25 -38.44c-8.61-15.73-17.16-31.49-25.8-47.2zm-402.24 7.33c-8.45 15.55-16.88 31.1-25.41 46.61a243.24 243.24 0 0 0 14.74 31.02 243.24 243.24 0 0 0 1.92 2.97 278.95 278.95 0 0 1 44.19 -40.92 243.24 243.24 0 0 1 -35.44 -39.68zm-62.77 173.68a243.24 243.24 0 0 0 -39.01 3.47c-8.93 14.73-17.856 29.46-26.729 44.22a243.24 243.24 0 0 1 53.199 10.24 278.95 278.95 0 0 1 13.02 -57.91 243.24 243.24 0 0 0 -0.48 -0.02zm528.5 0a243.24 243.24 0 0 0 -0.42 0.03 278.95 278.95 0 0 1 13.16 58.11 243.24 243.24 0 0 1 56.2 -10.43c-8.83-14.54-17.67-29.07-26.5-43.62a243.24 243.24 0 0 0 -42.44 -4.09zm-375.69 345.11a243.24 243.24 0 0 1 -18.91 53.25c9.92 0.31 19.83 0.6 29.74 0.89 7.34 0.21 14.68 0.39 22.02 0.56a243.24 243.24 0 0 0 25.34 -36.48 278.95 278.95 0 0 1 -58.19 -18.22zm223.03 0.14a278.95 278.95 0 0 1 -58.41 18.23 243.24 243.24 0 0 0 25.39 36.58c17.35-0.37 34.71-0.87 52.06-1.52a243.24 243.24 0 0 1 -19.04 -53.29z" fill="#fe5000"/>
<path id="path7206" fill="#023e6f" d="m1960 20v46h8.8379v-35.963l15.234 35.26 4.6933-0.000004 15.234-35.26v35.963h8.8379v-46h-11.812l-14.607 33.043-14.606-33.043zm-45.5 0.5v6.588h14.5v38.912h8.4062v-38.912c4.8333 0.000036 9.6667 0.000073 14.5 0.000109v-6.588h-37.406zm-531 689.58c-33.598-4.3974-51.096-24.327-46.511-52.976 4.2224-26.383 25.502-40.537 70.413-46.833 15.647-2.1936 15.478-2.0306 13.82-13.407-2.4132-16.557-9.019-21.3-29.722-21.342-14.123-0.0285-22.134 1.5655-34.767 6.9186-3.681 1.5597-3.7867 1.5443-4.6352-0.67436-0.4775-1.2488-2.0449-5.1606-3.483-8.6929-3.7322-9.1669-3.9454-8.771 6.8852-12.787 32.096-11.902 68.866-8.6614 85.021 7.4937 12.336 12.336 13.479 19.307 13.479 82.19v49.798l-3.479 1.6509c-14.675 6.9638-47.539 11.211-67.021 8.6607zm27.701-19.205c2.9146-0.61689 6.5432-1.7568 8.0636-2.5331l2.7644-1.4115-0.2644-30.717-0.3-30.72-6 0.30868c-33.914 1.7448-52.814 21.961-45.156 48.303 4.0093 13.791 21.33 20.899 40.857 16.767zm283.3 19.18c-68.34-11.259-74.613-132.17-8-154.21 12.96-4.2887 35.253-3.0435 48 2.6811 9.3504 4.1993 9.1885 3.7353 4.9745 14.264-4.034 10.079-4.0156 10.063-8.6135 7.267-19.647-11.948-45.003 0.52927-53.024 26.093-14.818 47.22 15.931 92.851 51.566 76.522 3.2462-1.4876 5.9866-2.5857 6.0896-2.4403 0.6524 0.9205 7.5081 18.962 7.5081 19.759 0 6.1098-32.09 12.771-48.5 10.068zm124.5 0.3004c-38.131-5.5674-58.997-33.459-58.997-78.863 0-49.045 23.736-77.714 64.497-77.903 38.851-0.17964 61.491 25.271 61.499 69.134 0 9.2097 0.6506 8.5108-8.9986 9.6898-2.475 0.30241-20.025 2.8265-39 5.6091s-36.862 5.3272-39.75 5.6546c-6.845 0.77626-6.9048 8.4347-0.1778 22.746 8.7752 18.668 34.969 25.93 61.928 17.169 13.192-4.2876 12.598-4.4808 16.61 5.4013 1.8979 4.675 3.3246 9.3992 3.1704 10.498-0.9293 6.6242-40.894 13.768-60.78 10.864zm7-88.483c31.044-4.7291 28.685-3.437 27.162-14.88-2.3108-17.356-8.1536-26.983-18.793-30.963-24.4-9.13-44.4 12.33-44.4 47.65v3.5412l4.75-0.65517c2.6125-0.36035 16.675-2.4718 31.25-4.6921zm-880.55 83.37c0.36547-1.5125 14.631-44.949 31.702-96.525l31.038-93.775 15.613 0.27491 15.613 0.27492 31.684 95.5c17.426 52.525 31.36 95.85 30.966 96.278-0.3948 0.42775-7.3846 0.65275-15.533 0.5-17.123-0.32099-15.146 1.0691-19.591-13.778-1.7288-5.775-4.4824-14.775-6.119-20-1.6367-5.225-3.4256-10.962-3.9753-12.75l-0.9995-3.25h-31.863c-20.879 0-32.084 0.35676-32.503 1.0348-0.35176 0.56916-1.4621 3.8317-2.4674 7.25-2.6422 8.984-11.709 37.906-12.528 39.965-0.62153 1.5614-2.3668 1.75-16.198 1.75h-15.501l0.66449-2.75zm104.55-68.02c0-0.42615-2.2756-8.1886-5.0569-17.25-2.7813-9.0613-6.4103-20.975-8.0645-26.475-1.6543-5.5-3.4087-11.125-3.8987-12.5-1.7174-4.8194-6.8499-23.539-7.5397-27.5-0.8582-4.9275-2.3578-8.0238-2.4216-5-0.061 2.8907-3.2254 15.053-7.8052 30-2.1908 7.15-6.3267 20.65-9.1909 30-2.8641 9.35-5.836 19.025-6.6042 21.5-2.6878 8.66-4.7157 8 24.582 8 14.3 0 26-0.34867 26-0.77483zm76-122.23h34v193h-34v-193zm72 0h34v193h-34v-193zm74.18 42.5v0.69727l-0.3379 0.0273-0.1738 149.11v0.66602h34.348v-0.66602l-0.1739-149.11-0.3378-0.0273v-0.69727zm218.5 149.86c-0.4-0.38-0.7-32.76-0.7-71.95v-71.261l7.75-2.9844c36.266-13.966 84.678-9.8021 102.08 8.7799 9.9717 10.645 10.14 11.972 10.154 79.809v58.25h-17-17v-56.057c0-61.963-0.041-62.436-6.0675-69.282-6.7695-7.6905-28.947-10.519-41.175-5.2521l-3.7426 1.6121-0.2574 64.24-0.2573 64.24-16.56 0.27332c-9.108 0.15032-16.87-0.0372-17.25-0.41667zm-183.7-283.02c-25.194-1.7185-48.77-8.084-63.332-17.1-2.8261-1.7498-3.6541-2.8152-3.1538-4.0582 0.3731-0.92704 3.8049-10.683 7.6261-21.679 8.088-23.275 7.5254-22.414 12.498-19.141 35.399 23.297 89.881 15.822 104.69-14.365 16.094-32.796 2.8066-61.551-37.269-80.655-37.101-17.686-46.495-23.569-59.03-36.969-48.469-51.814-24.999-139.99 43.354-162.88 32.701-10.95 89.361-4.6295 111.59 12.448l2.4762 1.9025-3.8129 10.825c-11.11 31.54-9.0955 29.029-19.244 23.997-48.904-24.245-93.05-8.0107-96.038 35.318-1.794 26.019 10.11 42.796 40.671 57.322 6.3093 2.9988 16.421 7.7915 22.471 10.651 53.724 25.388 76.49 63.999 68.069 115.44-9.9147 60.561-59.2 93.878-131.57 88.942zm316.5-0.33081c-85.3-9.24-133.7-75.07-133.6-182.01 0.1-123.02 73.1-193.05 186.1-178.5 25.489 3.2814 56 13.24 56 18.279 0 2.22-17.7 38.221-18.8 38.221-0.5046 0-3.7922-1.2801-7.3058-2.8446-44.471-19.802-100.96-9.1339-124.77 23.565-35.318 48.499-34.326 161.76 1.8337 209.53 20.631 27.253 58.178 37.487 90.295 24.613l2.75-1.1024v-58.379-58.379h-25.021-25.021l0.2712-19.75 0.2711-19.75h55.5 55.5v93.887 93.887l-7.5 3.8468c-23.604 12.107-71.002 18.734-106.5 14.892zm184.18-4.6653c0.3003-91.914 0.6006-183.83 0.9009-275.74 20.057 0.0732 40.114 0.14636 60.172 0.21954 0.3302 46.361 0.681 92.723 0.9984 139.08-0.084 45.53-0.168 91.06-0.252 136.59-10.473 0.0781-20.946 0.20581-31.418 0.25287-10.134-0.13512-20.267-0.27023-30.401-0.40535zm-502.86 95.383a16.68 16.68 0 0 1 -16.68 16.68 16.68 16.68 0 0 1 -16.68 -16.68 16.68 16.68 0 0 1 16.68 -16.68 16.68 16.68 0 0 1 16.68 16.68zm564.6-448.02a31.058 31.058 0 0 1 -31.058 31.058 31.058 31.058 0 0 1 -31.058 -31.058 31.058 31.058 0 0 1 31.058 -31.058 31.058 31.058 0 0 1 31.058 31.058zm-806.5-4.6092c-55.142 0-92.875 25.951-114.14 76.258-11.993 28.372-18.815 63.737-18.928 109.62-0.11243 45.884 9.4436 85.723 26.766 115.76 16.558 28.714 40.143 48.135 69.988 56.58 11.316 3.2017 23.43 4.836 36.316 4.8359 12.886-0.00009 25-1.6344 36.314-4.8359 29.846-8.4448 53.431-27.866 69.988-56.58 17.322-30.039 26.878-69.878 26.766-115.76-0.1125-45.884-6.9345-81.249-18.928-109.62-21.265-50.307-59-76.258-114.14-76.258zm-0.123 42.625c5.1592-0.0125 9.9231 0.69516 14.459 1.9258 17.317 4.6982 29.793 17.881 38.686 40.293 9.184 23.148 13.896 55.011 13.803 94.625-0.057 24.352-1.8601 46.024-5.3066 64.619-7.1469 38.56-20.303 59.374-42.869 67.729-5.8311 2.1588-12.239 2.782-18.654 2.8262-5.859 0.0404-12.78-0.70249-18.656-2.8262-22.631-8.1789-35.722-29.168-42.869-67.729-3.4466-18.595-5.2497-40.267-5.3067-64.619-0.0927-39.614 4.6188-71.477 13.803-94.625 8.8921-22.412 21.368-35.596 38.686-40.293 4.4265-1.2006 9.0673-1.9133 14.227-1.9258z"/>
<path id="path7674-8" stroke="#fff" stroke-width="0.1" fill="#fec787" style="color-rendering:auto;color:#000000;isolation:auto;mix-blend-mode:normal;paint-order:normal;shape-rendering:auto;solid-color:#000000;image-rendering:auto" d="m558.99 250.5a243.24 243.24 0 0 1 -27.523 18.861 243.24 243.24 0 0 1 -268.35 -16.654 257.74 257.74 0 0 0 -48.719 45.092 243.24 243.24 0 0 0 318.33 67.662 243.24 243.24 0 0 0 76.439 -69.883 257.74 257.74 0 0 0 -50.172 -45.078zm95.289 123.11a243.24 243.24 0 0 0 -220.68 242.12 243.24 243.24 0 0 0 21.92 100.35 257.74 257.74 0 0 0 64.496 -20.184 243.24 243.24 0 0 1 -2.5644 -33.207 243.24 243.24 0 0 1 151.56 -225.15 257.74 257.74 0 0 0 -14.73 -63.926zm-483.54 0.11133a257.74 257.74 0 0 0 -14.342 63.941 243.24 243.24 0 0 1 151.33 225.03 243.24 243.24 0 0 1 -2.5801 33.439 257.74 257.74 0 0 0 64.338 20.172 243.24 243.24 0 0 0 22.094 -100.57 243.24 243.24 0 0 0 -220.84 -242z"/>
</svg>
