<svg xmlns:rdf="http://www.w3.org/1999/02/22-rdf-syntax-ns#" xmlns="http://www.w3.org/2000/svg" xml:space="preserve" height="56.251" viewBox="0 0 41.167053 56.250997" width="41.167" version="1.1" xmlns:cc="http://creativecommons.org/ns#" xmlns:dc="http://purl.org/dc/elements/1.1/"><defs><clipPath id="clipPath38" clipPathUnits="userSpaceOnUse"><path id="path40" d="m41.669 236.7h38.172v45.626h-38.172v-45.626z"/></clipPath></defs><g transform="matrix(1.25 0 0 -1.25 -52.868 352.13)"><g clip-path="url(#clipPath38)"><g transform="translate(48.192 247.86)"><path id="path44" d="m0 0v-2.479h-0.379c-0.107 0.637-0.424 1.145-0.952 1.528-0.455 0.329-0.929 0.493-1.424 0.493-0.545 0-0.817-0.231-0.817-0.693 0-0.189 0.088-0.364 0.262-0.525 0.146-0.141 0.58-0.42 1.302-0.84s1.227-0.769 1.513-1.049c0.518-0.495 0.776-1.068 0.776-1.72 0-0.736-0.26-1.356-0.78-1.856-0.521-0.5-1.165-0.751-1.932-0.751-0.408 0-0.858 0.104-1.348 0.309-0.489 0.207-0.768 0.31-0.835 0.31-0.252 0-0.403-0.153-0.454-0.46h-0.343v2.574h0.343c0.118-0.607 0.432-1.12 0.942-1.54 0.493-0.414 1.022-0.621 1.588-0.621 0.241 0 0.442 0.064 0.605 0.19s0.244 0.284 0.244 0.472c0 0.178-0.12 0.38-0.359 0.61-0.238 0.228-0.686 0.541-1.342 0.94-0.655 0.398-1.103 0.713-1.345 0.945-0.451 0.43-0.676 0.992-0.676 1.687 0 0.748 0.255 1.368 0.763 1.86 0.507 0.493 1.146 0.739 1.915 0.739 0.466 0 0.898-0.103 1.297-0.308 0.398-0.206 0.62-0.308 0.665-0.308 0.202 0 0.36 0.164 0.472 0.493h0.299z" fill="#231f20"/></g><g transform="translate(52.482 245.55)"><path id="path48" d="m0 0v-3.904c0.195-0.528 0.537-0.791 1.027-0.791 0.307 0 0.517 0.218 0.632 0.653 0.114 0.436 0.171 1.227 0.171 2.372 0 1.21-0.059 2.027-0.176 2.452s-0.342 0.638-0.677 0.638c-0.245 0-0.462-0.124-0.651-0.371-0.217-0.275-0.326-0.625-0.326-1.049m0 2.308v-0.743h0.033c0.493 0.642 1.118 0.963 1.879 0.963 0.9 0 1.614-0.362 2.143-1.085 0.528-0.724 0.793-1.702 0.793-2.935 0-1.242-0.274-2.235-0.823-2.977-0.547-0.744-1.283-1.114-2.205-1.114-0.705 0-1.312 0.236-1.82 0.707v-2.649c0-0.377 0.066-0.636 0.2-0.776 0.155-0.155 0.436-0.218 0.841-0.185v-0.361h-4.921v0.361c0.472-0.011 0.773 0.083 0.902 0.282 0.079 0.129 0.119 0.433 0.119 0.913v8.197c0 0.42-0.054 0.694-0.161 0.824-0.129 0.156-0.416 0.228-0.86 0.217v0.361h3.88z" fill="#231f20"/></g><g transform="translate(60.497 244.75)"><path id="path52" d="m0 0h1.909c0 1.044-0.061 1.746-0.181 2.107-0.12 0.36-0.352 0.541-0.693 0.541-0.354 0-0.608-0.199-0.762-0.597-0.155-0.399-0.245-1.082-0.273-2.051m4.214-2.344 0.378-0.201c-0.75-1.576-1.978-2.364-3.686-2.364-1.125 0-2.016 0.358-2.673 1.074-0.658 0.715-0.987 1.687-0.987 2.914 0 1.248 0.358 2.269 1.074 3.06 0.717 0.791 1.638 1.186 2.763 1.186 0.946 0 1.738-0.292 2.376-0.879 0.761-0.716 1.139-1.757 1.133-3.124h-4.592c0.016-0.91 0.23-1.629 0.642-2.16 0.411-0.53 0.958-0.796 1.641-0.796 0.734 0 1.377 0.431 1.931 1.29" fill="#231f20"/></g><g transform="translate(72.298 242.01)"><path id="path56" d="m0 0 0.344-0.194c-0.761-1.313-1.906-1.968-3.435-1.968-1.12 0-2.011 0.355-2.675 1.065-0.663 0.71-0.995 1.668-0.995 2.874 0 1.303 0.356 2.344 1.067 3.125 0.71 0.78 1.663 1.17 2.855 1.17 0.878 0 1.615-0.196 2.208-0.589 0.594-0.394 0.891-0.881 0.891-1.463 0-0.306-0.1-0.562-0.298-0.766-0.199-0.206-0.444-0.308-0.735-0.308-0.398 0-0.703 0.164-0.916 0.493-0.179 0.285-0.268 0.633-0.268 1.043 0 0.608-0.235 0.913-0.705 0.913-0.432 0-0.77-0.288-1.017-0.864-0.207-0.484-0.31-1.054-0.31-1.711 0-1.011 0.232-1.876 0.696-2.595 0.465-0.717 1.025-1.076 1.681-1.076 0.514 0 1.051 0.283 1.612 0.851" fill="#231f20"/></g><path id="path58" d="m72.293 251.71h-29.874v29.874h29.874v-29.874z" fill="#fff"/><g transform="translate(72.293 251.71)"><path id="path62" d="m0 0h-29.874v29.874h29.874v-29.874z" stroke="#231f20" stroke-width=".25" fill="none"/></g><g transform="translate(49.895 281.58)"><path id="path66" d="m0 0v-29.874" stroke="#231f20" stroke-width=".25" fill="none"/></g><g transform="translate(57.361 281.58)"><path id="path70" d="m0 0v-29.874" stroke="#231f20" stroke-width=".25" fill="none"/></g><g transform="translate(64.827 281.58)"><path id="path74" d="m0 0v-29.874" stroke="#231f20" stroke-width=".25" fill="none"/></g><g transform="translate(42.419 259.18)"><path id="path78" d="m0 0h29.874" stroke="#231f20" stroke-width=".25" fill="none"/></g><g transform="translate(42.419 266.65)"><path id="path82" d="m0 0h29.874" stroke="#231f20" stroke-width=".25" fill="none"/></g><g transform="translate(42.419 274.11)"><path id="path86" d="m0 0h29.874" stroke="#231f20" stroke-width=".25" fill="none"/></g><g transform="translate(66.849 278.41)"><path id="path90" d="m0 0c0-5.016-0.817-21.348-21.348-21.348" stroke="#ed1c24" stroke-width=".75" fill="none"/></g></g><g transform="scale(1,-1)" fill="#231f20"><path id="path7201" d="m74.142-248.05q-0.1919 0-0.35742 0.0688-0.16553 0.0688-0.30322 0.20654-0.1377 0.1377-0.20801 0.30615-0.07031 0.167-0.07031 0.35743 0 0.18896 0.07031 0.35595 0.07031 0.16553 0.20801 0.30323 0.1377 0.13769 0.30322 0.208 0.16553 0.0688 0.35742 0.0688 0.19336 0 0.35889-0.0688 0.16699-0.0703 0.30469-0.208 0.13623-0.13623 0.20361-0.30176 0.06885-0.16553 0.06885-0.35742 0-0.19483-0.06885-0.36036-0.06885-0.16699-0.20361-0.30322-0.1377-0.13769-0.30469-0.20654-0.16553-0.0688-0.35889-0.0688zm0-0.15088q0.22266 0 0.41455 0.0806 0.19336 0.0806 0.35303 0.24023 0.15967 0.15967 0.23877 0.35157 0.0791 0.19189 0.0791 0.41748 0 0.22265-0.0791 0.41455-0.0791 0.19043-0.23877 0.35009-0.15967 0.15967-0.35303 0.24024-0.19189 0.0806-0.41455 0.0806t-0.41602-0.0806q-0.1919-0.0806-0.35156-0.24024-0.15967-0.15966-0.23877-0.35009-0.0791-0.1919-0.0791-0.41455 0-0.22559 0.0791-0.41748 0.0791-0.1919 0.23877-0.35157 0.15967-0.15966 0.35156-0.24023 0.19336-0.0806 0.41602-0.0806zm-0.03955 0.60645h-0.18018v0.40429h0.18018q0.16113 0 0.22412-0.0454 0.06445-0.0454 0.06445-0.15527 0-0.11133-0.06445-0.15674-0.06445-0.0469-0.22412-0.0469zm0.01025-0.15088q0.25781 0 0.38525 0.0879 0.12744 0.0864 0.12744 0.26367 0 0.12598-0.07764 0.20801-0.07617 0.082-0.2168 0.10693 0.03516 0.0117 0.0835 0.0688 0.0498 0.0557 0.11719 0.1626l0.20068 0.32666h-0.25195l-0.18896-0.30615q-0.08643-0.14063-0.14062-0.17725-0.05273-0.0381-0.13184-0.0381h-0.09668v0.52149h-0.22705v-1.2246h0.41748z"/></g></g></svg>
