<svg xmlns:rdf="http://www.w3.org/1999/02/22-rdf-syntax-ns#" xmlns="http://www.w3.org/2000/svg" xml:space="preserve" version="1.1" xmlns:cc="http://creativecommons.org/ns#" xmlns:dc="http://purl.org/dc/elements/1.1/" viewBox="0 0 120.31 60"><g transform="matrix(1.25 0 0 -1.25 -18.75 216.25)"><path id="path7186" fill-opacity=".99608" fill="#0d2a8e" d="m15 162.01v-37.01h96.247v37.006h-96.25zm2.0647-1.9853h92.276v-22.235h-92.276l0.001 22.24z"/><path id="path7148" fill="#fff" d="m108.56 129.14c0.0711 0.19189 0.15431 0.46504 0.18498 0.60698 0.0842 0.38956-0.13532 0.33431-0.38855-0.0978-0.1147-0.19574-0.27655-0.39228-0.35967-0.43677-0.0831-0.0444-0.47111-0.0809-0.86224-0.0809-0.58185 0-0.74521 0.0276-0.8986 0.1518l-0.18748 0.15181v2.1445c0 1.1795 0.025 2.1695 0.0555 2.2s0.17325 0.0796 0.31716 0.109c0.15524 0.0317 0.27227 0.10875 0.28779 0.18933 0.0236 0.12275-0.0775 0.1358-1.0517 0.1358-1.0249 0-1.0779-0.008-1.0779-0.15883 0-0.12262 0.0529-0.15881 0.23256-0.15881 0.4757 0 0.48214-0.0324 0.48214-2.422 0-2.3897-0.007-2.422-0.48214-2.422-0.20376 0-0.31178-0.1326-0.19945-0.24485 0.0182-0.0182 0.88479-0.0292 1.9257-0.0246l1.8926 0.009 0.13 0.35zm-4.553-0.2337c0.0173 0.0898-0.0631 0.13825-0.28879 0.17434-0.17663 0.0283-0.33378 0.10487-0.3611 0.17607-0.075 0.19553-0.0546 4.3479 0.022 4.4688 0.0374 0.059 0.18868 0.1319 0.33628 0.16209 0.15717 0.0321 0.26835 0.10287 0.26835 0.17075 0 0.0946-0.19391 0.11987-1.0585 0.13805-0.96969 0.0204-1.0562 0.0112-1.0319-0.116 0.0161-0.0831 0.13083-0.15949 0.28824-0.19168 0.14391-0.0294 0.28663-0.0785 0.31716-0.109 0.0306-0.0305 0.0555-1.056 0.0555-2.2788 0-2.1092-0.008-2.2291-0.15414-2.336-0.0848-0.062-0.23667-0.11275-0.3375-0.11275-0.15907 0-0.24885-0.14631-0.15025-0.24485 0.0182-0.0182 0.49154-0.0314 1.0519-0.0293 0.85 0 1.01 0.02 1.03 0.12zm-45.248 3.7506c0 0.96898 0.01912 1.1503 0.12561 1.1912 0.45582 0.17491 1.2379-0.13503 1.4815-0.58709 0.1927-0.3577 0.15617-1.0247-0.07304-1.3334-0.23241-0.31307-0.47913-0.41112-1.0377-0.41245l-0.502-0.01v1.14zm0.675-3.7626c0 0.0638-0.12542 0.14192-0.29012 0.18088-0.35914 0.0849-0.38239 0.16171-0.38379 1.2675l-0.001 0.85367h0.30247c0.16636 0 0.36092-0.0447 0.43236-0.0992s0.35006-0.43875 0.61917-0.85367c0.97006-1.4957 0.99671-1.5088 2.9816-1.4708 1.2894 0.0247 1.5048 0.0464 1.5269 0.15421 0.01769 0.0864-0.0332 0.12544-0.1635 0.12544-0.10405 0-0.25662 0.0494-0.33905 0.10962-0.1332 0.0974-0.15035 0.22473-0.15415 1.1442-0.0024 0.56905 0.02156 1.0608 0.05316 1.0927 0.03157 0.032 0.13133 0.009 0.22166-0.0524 0.26153-0.17575 1.9815-2.1548 1.9363-2.228-0.0225-0.0365-0.11289-0.0661-0.20087-0.0661-0.10785 0-0.15148-0.0441-0.13394-0.13509 0.02296-0.11925 0.14251-0.13391 1.0183-0.1251 0.74992 0.007 0.9923 0.0349 0.9923 0.112 0 0.056-0.1072 0.12412-0.23824 0.15102-0.42276 0.087-0.56693 0.21478-1.7144 1.5196l-1.1293 1.2842 0.70715 0.68373c0.91074 0.88059 1.2236 1.1132 1.7262 1.2833 0.68547 0.23205 0.5381 0.3452-0.48302 0.37086-0.8526 0.0215-0.89338 0.0151-0.89338-0.13896 0-0.1085 0.05209-0.16143 0.15882-0.16143 0.08735 0 0.15882-0.0465 0.15882-0.10337 0-0.12636-1.9235-2.0408-2.0504-2.0408-0.151 0-0.19825 0.37895-0.14615 1.172 0.05371 0.81773 0.11199 0.94982 0.43547 0.9872 0.12509 0.0144 0.21257 0.0735 0.21257 0.14368 0 0.0998-0.16764 0.11913-1.0323 0.11913-0.8647 0-1.0324-0.0194-1.0324-0.11913 0-0.0735 0.09136-0.12943 0.23824-0.14599 0.44342-0.05 0.43676-0.0134 0.43676-2.3992 0-1.9015-0.01734-2.2255-0.12479-2.3329-0.06864-0.0686-0.18656-0.12475-0.26206-0.12475s-0.17748-0.0402-0.22663-0.0894c-0.1392-0.13922-0.75662 0.19908-1.0763 0.58975-0.15009 0.18339-0.49159 0.6667-0.7589 1.074l-0.48601 0.7406 0.32838 0.25205c0.54026 0.41468 0.66078 0.63189 0.66078 1.191 0 0.59949-0.1908 0.91188-0.71066 1.1635-0.42425 0.20538-1.431 0.28895-2.4542 0.20372-0.58635-0.0489-0.6914-0.0785-0.67028-0.18941 0.01378-0.0722 0.11401-0.14292 0.22276-0.15693 0.38149-0.0491 0.39625-0.13748 0.39625-2.3721 0-1.9833-0.0081-2.0973-0.15882-2.248-0.08735-0.0874-0.24816-0.15882-0.35735-0.15882-0.1725 0-0.2684-0.14194-0.16542-0.24485 0.01821-0.0183 0.4917-0.0314 1.0522-0.0293 0.817 0 1.013 0.02 1.013 0.11zm-5.6775 2.4807c0.000318 0.0795 0.3766 1.1529 0.60547 1.7272 0.0395 0.0991 0.66473-1.5603 0.66473-1.7643 0-0.0342-0.28588-0.0621-0.63529-0.0621-0.462-0.01-0.642 0.02-0.642 0.09zm-7.082-2.4507c0.01885 0.0939-0.03502 0.12792-0.2025 0.12792-0.39644 0-0.41964 0.0832-0.40838 1.4652 0.0056 0.701 0.03251 1.5426 0.05956 1.8701l0.04917 0.59558 0.11292-0.27795c0.0621-0.15286 0.45939-1.0284 0.88285-1.9456s0.79494-1.748 0.82552-1.8463c0.03056-0.0983 0.09785-0.17725 0.1495-0.17548 0.05166 0.001 0.56605 0.95766 1.1431 2.1242l1.0492 2.1211 0.003-1.8701c0.0031-2.0174-0.0055-2.0607-0.41576-2.0607-0.16945 0-0.22157-0.0336-0.2025-0.13099 0.02295-0.11713 0.21976-0.13124 1.8567-0.13325 1.0071-0.001 1.8742 0.0245 1.927 0.057 0.15185 0.0939 0.02662 0.20719-0.22893 0.20719-0.17854 0-0.23355 0.0364-0.23355 0.15472 0 0.20475 0.39132 1.4451 0.49694 1.5751 0.05979 0.0736 0.30447 0.0956 0.88108 0.0794l0.7983-0.0225 0.26355-0.81877c0.14495-0.45033 0.2428-0.85236 0.21744-0.89338-0.02536-0.041-0.15382-0.0746-0.28548-0.0746-0.17866 0-0.23286-0.0327-0.2137-0.1292 0.022-0.11075 0.16694-0.12987 1.0134-0.13381 0.69404-0.004 0.99707 0.0234 1.0191 0.0895 0.03225 0.0967-0.02363 0.12599-0.39732 0.20779-0.12677 0.0277-0.26294 0.13777-0.32762 0.26472-0.06088 0.1195-0.46032 1.2536-0.88766 2.5202-0.42733 1.2666-0.8035 2.3334-0.83593 2.3706-0.073 0.0837-0.55096-0.25898-0.55096-0.39513 0-0.12387-1.5161-4.1076-1.694-4.4515-0.07186-0.13885-0.20883-0.27726-0.30435-0.30759-0.25508-0.081-0.8615-0.054-0.97894 0.0434-0.14234 0.11812-0.19495 0.80259-0.21514 2.7989-0.012 1.1883 0.01025 1.754 0.07134 1.8151 0.04884 0.0489 0.20825 0.11325 0.35424 0.14308 0.15489 0.0317 0.26544 0.10262 0.26544 0.17016 0 0.0909-0.14808 0.12075-0.68546 0.13868l-0.68546 0.0228-0.05135-0.27368c-0.02824-0.15053-0.47062-1.1198-0.98308-2.1538l-0.93174-1.8802-0.89832 1.8204c-0.52253 1.0589-0.91702 1.9599-0.94304 2.1538l-0.04472 0.33344-0.684-0.0228c-0.51482-0.0171-0.684-0.0496-0.684-0.13148 0-0.0598 0.12507-0.14913 0.27794-0.19853l0.27794-0.0899 0.0214-0.87353c0.01175-0.48043-0.02894-1.4965-0.09046-2.2578-0.11994-1.4843-0.15982-1.5936-0.5814-1.5936-0.15903 0-0.2488-0.14624-0.1503-0.24486 0.01817-0.0182 0.4202-0.0281 0.89338-0.022 0.716-0.01 0.859 0.01 0.88 0.12zm-6.0357-0.007c0.01993 0.1035-0.03029 0.13555-0.21228 0.13555-0.43589 0-0.48796 0.13619-0.48796 1.2763v1.0267h1.5088 1.5088v-0.98614c0-0.54238-0.02131-1.0417-0.04737-1.1096-0.02605-0.0679-0.17079-0.1466-0.32162-0.1749-0.18944-0.0356-0.26688-0.0895-0.25042-0.17469 0.02001-0.1035 0.18253-0.12325 1.0165-0.12325 0.86471 0 0.99595 0.0171 1.0183 0.13284 0.01821 0.0941-0.02938 0.13282-0.1635 0.13282-0.10405 0-0.25854 0.0508-0.34332 0.11275-0.14623 0.107-0.15415 0.2269-0.15415 2.3361 0 1.2228 0.02499 2.2483 0.05554 2.2788 0.03054 0.0305 0.17348 0.0796 0.31765 0.10912 0.15228 0.0311 0.26212 0.10213 0.26212 0.16948 0 0.0942-0.18824 0.12-1.0125 0.13809-0.97182 0.0212-1.0125 0.0157-1.0125-0.13899 0-0.12573 0.05179-0.16119 0.23544-0.16119 0.33812 0 0.39985-0.18176 0.39985-1.1774 0-0.7203-0.02164-0.87855-0.12561-0.91845-0.1637-0.0629-2.6027-0.0629-2.7664 0-0.1042 0.04-0.12561 0.19985-0.12561 0.93775 0 0.95999 0.05701 1.1287 0.39624 1.1724 0.11184 0.0144 0.20922 0.0859 0.22421 0.16444 0.02414 0.12665-0.06608 0.13897-1.0175 0.13897-0.95138 0-1.0417-0.0125-1.0176-0.13897 0.01567-0.0826 0.11222-0.14893 0.23825-0.16354 0.40426-0.0469 0.42013-0.12643 0.44684-2.2403 0.01364-1.0796-0.0059-2.0837-0.04351-2.2314-0.05284-0.2076-0.12594-0.28565-0.3226-0.34441-0.22476-0.0671-0.31915-0.19007-0.22117-0.28798 0.01821-0.0182 0.47364-0.0315 1.0121-0.0296 0.851 0 0.975 0.02 0.997 0.13zm-14.604 0.25558c0.20649 0.55199 0.23116 0.78471 0.08586 0.81006-0.06881 0.0125-0.21034-0.13015-0.3351-0.33658-0.11879-0.19657-0.30873-0.39264-0.42208-0.43574s-0.54326-0.0784-0.95534-0.0784c-1.054 0-1.0669 0.0159-1.0669 1.3103v0.99265h0.55071c0.74814 0 0.92523-0.0778 0.99242-0.43599 0.03813-0.20324 0.09091-0.28127 0.17843-0.26381 0.18075 0.0361 0.18559 1.6802 0.0051 1.7163-0.08104 0.0161-0.1361-0.0661-0.17193-0.25711-0.06891-0.36738-0.22944-0.4417-0.95388-0.4417h-0.6008v1.0323 1.0324h0.79933c0.43963 0 0.86205-0.0335 0.9387-0.0746s0.2048-0.21971 0.28478-0.39706c0.07995-0.17738 0.19874-0.32249 0.26393-0.32249 0.09797 0 0.11012 0.0901 0.07004 0.51941-0.02668 0.28568-0.06969 0.55369-0.09558 0.59559-0.02779 0.0449-0.77419 0.0761-1.8207 0.0761-1.4483 0-1.7814-0.0205-1.8163-0.11138-0.05578-0.14536 0.0115-0.2063 0.22778-0.2063 0.37537 0 0.39354-0.11275 0.39354-2.4406 0-2.0643-0.0081-2.1839-0.15415-2.2907-0.08479-0.062-0.25452-0.11275-0.3772-0.11275-0.19502 0-0.29984-0.13516-0.18989-0.24485 0.01824-0.0182 0.93028-0.0331 2.0267-0.0331h1.9936l0.142 0.39zm-7.5376 3.6466c0 0.92436 0.01037 0.99059 0.16217 1.0388 0.23034 0.0731 0.72168-0.0244 1.0115-0.20055 0.43912-0.26704 0.54195-1.1423 0.17707-1.5071-0.17765-0.17765-0.6402-0.31731-1.0529-0.31793l-0.29779-0.001-0.006 0.98zm0.43686-3.6777c-0.39498 0.11063-0.43686 0.24164-0.43686 1.3663v1.0278l0.54945-0.0392c0.64401-0.0461 1.0034-0.2261 1.2317-0.6169 0.20252-0.34675 0.21363-1.0044 0.02191-1.297-0.248-0.39-0.888-0.6-1.372-0.46zm1.2165-0.21414c1.1243 0.37702 1.4762 1.5874 0.70072 2.4104-0.13485 0.14309-0.37805 0.29997-0.54045 0.34864l-0.29526 0.0885 0.246 0.16753c0.41075 0.27973 0.56909 0.55835 0.56909 1.0014 0 0.99784-1.0178 1.4056-3.0799 1.2338-0.58302-0.0486-0.68782-0.0782-0.66683-0.1891 0.0142-0.075 0.11602-0.14204 0.2368-0.15604 0.11654-0.0135 0.25082-0.0715 0.29839-0.1288 0.05897-0.0711 0.07977-0.80849 0.06537-2.3181l-0.02114-2.2139-0.25809-0.076c-0.22792-0.0671-0.32352-0.18945-0.22501-0.28798 0.01819-0.0183 0.59889-0.0306 1.2904-0.0275 0.978-0.01 1.343 0.02 1.673 0.13zm80.306-0.14576c0.62079 0.1412 0.70106 0.22056 0.89475 0.88467 0.13655 0.4682 0.0345 0.65965-0.18127 0.33998-0.62609-0.92762-1.3579-1.2126-2.3544-0.91662-0.58491 0.1737-1.0021 0.52115-1.3118 1.0925-0.26066 0.48088-0.27016 0.52911-0.27026 1.3719 0 0.79704 0.01883 0.90931 0.21555 1.2824 0.38973 0.73896 1.1035 1.144 2.0024 1.1362 0.76729-0.006 1.2307-0.27109 1.4898-0.85019 0.083-0.18562 0.20248-0.3375 0.2654-0.3375 0.094 0 0.10553 0.10963 0.0646 0.61544-0.0274 0.33849-0.0576 0.62524-0.0671 0.63721-0.01 0.0125-0.28148 0.078-0.60435 0.1465-0.78833 0.16752-1.8522 0.11163-2.4891-0.13085-0.66546-0.25332-1.3893-0.97531-1.6298-1.6256-0.252-0.68-0.209-1.59 0.099-2.22 0.602-1.23 2.191-1.82 3.867-1.44zm-5.4051-0.0666c0.0018 0.0328 0.01 1.1613 0.01985 2.5079 0.0171 2.3206 0.02604 2.4542 0.17219 2.561 0.08481 0.062 0.23666 0.11262 0.3375 0.11262 0.13041 0 0.18335 0.0459 0.18335 0.15883 0 0.15005-0.05294 0.15883-0.95876 0.15883-0.86186 0-0.95613-0.0138-0.9326-0.13582 0.01555-0.081 0.13307-0.15767 0.29112-0.19 0.14573-0.0299 0.30632-0.0955 0.35687-0.14594 0.09108-0.0909 0.1735-2.3507 0.11748-3.2209l-0.02561-0.39706-1.4143 1.5882c-0.77785 0.87353-1.5462 1.7927-1.7074 2.0426l-0.29308 0.45435-0.675-0.0176c-0.53059-0.0139-0.675-0.0424-0.675-0.13344 0-0.0677 0.11086-0.13853 0.26687-0.17045 0.53275-0.109 0.52725-0.0834 0.52725-2.4444 0-2.3282-0.012-2.3913-0.45232-2.3913-0.17515 0-0.22785-0.0331-0.20866-0.13097 0.02209-0.11262 0.15374-0.13097 0.93891-0.13097 0.78516 0 0.91683 0.0184 0.9389 0.13097 0.01908 0.0974-0.03309 0.13097-0.2032 0.13097-0.12588 0-0.29825 0.0508-0.38303 0.11262-0.14384 0.10513-0.15582 0.23928-0.17915 2.0051-0.02475 1.8714-0.02329 1.8908 0.12831 1.7337 0.19221-0.19912 2.8714-3.2695 3.3437-3.8318 0.318-0.4 0.474-0.51 0.479-0.37zm-7.5592 0.063c0.64173 0.19057 1.0733 0.63497 1.3033 1.342 0.04349 0.13358 0.10152 0.99933 0.12906 1.9239 0.0275 0.92456 0.07503 1.706 0.1056 1.7364 0.03051 0.0305 0.17348 0.0795 0.31764 0.109 0.15228 0.0311 0.26212 0.10212 0.26212 0.16947 0 0.0938-0.1793 0.12013-0.9394 0.13829-0.85718 0.0205-0.93707 0.01-0.91275-0.116 0.01604-0.0834 0.13067-0.15967 0.28828-0.1919 0.1439-0.0294 0.28163-0.0735 0.30605-0.0979 0.19688-0.19689 0.21858-2.9968 0.02819-3.6443-0.19842-0.67502-0.71667-1.0342-1.4859-1.0297-0.58713 0.004-0.92256 0.16224-1.1944 0.56562-0.29214 0.4335-0.33769 0.7618-0.33815 2.4372-0.000473 1.7276 0.0026 1.7405 0.43632 1.7894 0.14688 0.0166 0.23824 0.0725 0.23824 0.14599 0 0.0987-0.1797 0.12288-1.0522 0.14129-1.0116 0.0213-1.0522 0.0159-1.0522-0.13898 0-0.1245 0.05186-0.16112 0.22851-0.16112 0.12568 0 0.26422-0.0447 0.30785-0.0993 0.04398-0.055 0.09886-0.86046 0.12312-1.8066 0.02406-0.93904 0.08245-1.8366 0.12974-1.9946 0.10855-0.3628 0.37978-0.76405 0.65347-0.96676 0.465-0.35 1.407-0.46 2.111-0.25zm-7.4682 0.28533c-0.42831 0.1205-0.97164 0.63667-1.2247 1.1634-0.17961 0.3738-0.22402 0.59078-0.25201 1.2314-0.05561 1.2719 0.25114 1.9564 1.0417 2.3245 1.3337 0.62095 2.6175-0.26628 2.8296-1.9555 0.1568-1.2487-0.20605-2.2371-0.96302-2.6232-0.388-0.2-1.025-0.27-1.439-0.15zm1.3938-0.2472c0.62023 0.19158 1.3078 0.76898 1.5967 1.3409 0.58902 1.1659 0.36239 2.571-0.55042 3.4124-0.58816 0.54214-0.97303 0.67986-1.9071 0.68241-0.71156 0.001-0.84605-0.0219-1.2937-0.22852-1.9514-0.9011-2.2123-3.6495-0.46028-4.8486 0.738-0.52 1.694-0.65 2.608-0.37zm-5.2612-0.0345c0.62079 0.14119 0.70105 0.22055 0.89475 0.88466 0.13656 0.46821 0.03449 0.65965-0.18127 0.33998-0.6261-0.92762-1.3579-1.2126-2.3544-0.91662-0.58492 0.1737-1.0021 0.52115-1.3118 1.0925-0.26066 0.48088-0.27016 0.52911-0.27026 1.3719-0.000081 0.79705 0.01879 0.90932 0.21554 1.2824 0.38974 0.73895 1.1035 1.1439 2.0024 1.1362 0.7673-0.008 1.2307-0.27109 1.4898-0.85019 0.08305-0.18562 0.20248-0.3375 0.2654-0.3375 0.09401 0 0.10553 0.10963 0.06463 0.61544-0.0274 0.33849-0.05755 0.62524-0.06708 0.63721-0.0095 0.0125-0.28148 0.078-0.60436 0.1465-0.78832 0.16752-1.8522 0.11163-2.489-0.13085-0.66547-0.25332-1.3893-0.97531-1.6298-1.6256-0.2461-0.66544-0.20285-1.5766 0.10466-2.2052 0.596-1.24 2.184-1.83 3.864-1.45zm-39.128-0.007c0.29976 0.0635 0.59464 0.15665 0.65528 0.20699 0.122 0.10125 0.43147 1.0296 0.37468 1.124-0.08039 0.13364-0.25138 0.0453-0.34374-0.17781-0.05407-0.13056-0.23506-0.36091-0.40219-0.5119-1.0383-0.938-2.939-0.28098-3.3682 1.1642-0.15608 0.52559-0.15492 1.4278 0.0026 1.958 0.1749 0.58895 0.72323 1.1422 1.3003 1.3119 1.1132 0.32747 2.1768-0.0461 2.3478-0.8247 0.03556-0.1619 0.10058-0.23959 0.20051-0.23959 0.13474 0 0.14394 0.0513 0.10342 0.57574-0.02795 0.36181-0.0872 0.60992-0.15949 0.66776-0.06326 0.0506-0.33892 0.13103-0.61256 0.17868-1.8101 0.31521-3.2433-0.24216-3.9191-1.5241-0.19806-0.37572-0.21838-0.49184-0.21838-1.2481 0-0.77405 0.01673-0.864 0.23332-1.255 0.664-1.22 2.142-1.77 3.799-1.42zm-5.3424 2.0457c0.0038 1.1902 0.03063 2.3426 0.05956 2.561 0.04859 0.3668 0.07379 0.40388 0.33054 0.48671 0.15287 0.0494 0.2895 0.14757 0.30362 0.21837 0.02255 0.11301-0.09186 0.12874-0.93891 0.12874-0.86736 0-0.96195-0.0136-0.93843-0.13581 0.0156-0.081 0.13307-0.15769 0.29112-0.19 0.14573-0.0299 0.30632-0.0955 0.35687-0.14599 0.06236-0.0623 0.10052-0.65812 0.1187-1.8536l0.0268-1.7618-0.17658 0.15755c-0.34131 0.30454-2.5728 2.8636-2.9619 3.3966l-0.39345 0.53904-0.64319-0.0229c-0.5003-0.0178-0.64318-0.0485-0.64318-0.13872 0-0.0677 0.11086-0.13855 0.26687-0.17045 0.53415-0.10925 0.52798-0.08 0.52053-2.4681-0.0062-2.0006-0.0171-2.1596-0.15415-2.2598-0.08109-0.0592-0.23256-0.10775-0.3366-0.10775-0.1332 0-0.18158-0.0388-0.1635-0.13098 0.02208-0.11262 0.15374-0.13096 0.93891-0.13096 0.78516 0 0.91683 0.0184 0.93891 0.13096 0.01907 0.0974-0.03311 0.13098-0.2032 0.13098-0.12588 0-0.29825 0.0506-0.38303 0.11262-0.14405 0.10525-0.15551 0.23657-0.17496 2.0051l-0.0208 1.8926 0.21024-0.23823c0.11564-0.13103 0.98264-1.1226 1.9267-2.2035 0.94404-1.0809 1.7432-1.9654 1.776-1.9654 0.026-0.02 0.056 0.96 0.059 2.15z"/><path id="path7142" d="m97.389 151.56-1.375 0.0794 1.7836 4.405 1.7541-4.3454-1.3288-0.0992v-9.847l-0.793 0.02z" fill-opacity=".99608" fill="#0d2b8e"/><path id="path7271" fill-opacity=".99608" fill="#122e90" d="m56.674 148.75 2.5032 6.4346 0.98786-0.0221 0.98786-0.0221 2.3749-6.2735c1.3062-3.4504 2.3954-6.3369 2.4205-6.4144 0.04264-0.13174-0.04136-0.1395-1.289-0.11913l-1.3346 0.0219-0.47801 1.2896-0.47801 1.2896-2.2632 0.00047-2.2632 0.00048-0.51617-1.3094-0.51618-1.3094-1.3196-0.00039-1.32-0.01 2.503 6.44zm4.9404-1.758c0 0.10638-1.5161 4.4075-1.576 4.4712-0.03958 0.042-1.2952-3.8546-1.4276-4.4302-0.02138-0.0929 0.22834-0.11162 1.489-0.11162 0.834 0 1.516 0.03 1.516 0.07z"/><path id="path7269" d="m42 152.71h-2.5412v2.1441h7.7075l-0.04431-2.1044-2.5809-0.0436v-10.399h-2.541z" fill="#231f20"/><path id="path7267" d="m79.493 142.15c-1.6983 0.36581-3.1831 1.5474-4.0024 3.0794-0.81936 1.5319-0.9844 3.3826-0.53897 5.0618 0.135 0.50894 0.3238 1.0042 0.57098 1.4691 0.31923 0.60045 0.73471 1.1478 1.2121 1.6322 0.4367 0.44307 0.92821 0.83606 1.4765 1.1299 0.84039 0.45042 1.8002 0.65796 2.7537 0.66194 1.0203 0.004 2.0408-0.22167 2.9639-0.65616v-2.9402c-0.50006 0.56098-1.1688 0.96962-1.8962 1.1586-0.52558 0.13658-1.0816 0.15956-1.6147 0.0562-0.53294-0.10333-1.0411-0.33307-1.4699-0.66603-0.45767-0.3554-0.82149-0.82435-1.0845-1.3407-0.34666-0.68054-0.52094-1.4453-0.52477-2.2091-0.0039-0.78054 0.1709-1.5654 0.53562-2.2554 0.27712-0.52436 0.66454-0.99341 1.1436-1.3431 0.44325-0.32352 0.9631-0.54237 1.5051-0.62821 0.54603-0.0865 1.1109-0.0379 1.6398 0.12313 0.67349 0.20509 1.2901 0.59359 1.7659 1.1125v-2.8942c-0.88332-0.40775-1.847-0.6404-2.8191-0.68056-0.54159-0.0224-1.0868 0.0147-1.6167 0.12881z" fill="#231f20"/><path id="path7132" d="m25.094 142.12c-0.2867 0.0845-0.56456 0.19781-0.83148 0.33229-0.35631 0.17952-0.6934 0.40044-0.98472 0.67306-0.29132 0.27261-0.52876 0.59674-0.75491 0.92543l-0.24389 0.35446 1.5973 1.4803c0.08274-0.12088 0.16606-0.24137 0.24996-0.36146 0.18466-0.26432 0.37406-0.52892 0.61248-0.74598 0.27143-0.24711 0.60483-0.42779 0.96284-0.50886 0.358-0.0811 0.73998-0.0609 1.0835 0.0683 0.34356 0.12924 0.64659 0.36866 0.84216 0.67929s0.28054 0.69152 0.22428 1.0542c-0.07377 0.47564-0.3801 0.8908-0.75687 1.1903-0.37677 0.29953-0.82229 0.498-1.2655 0.68562-0.78053 0.33038-1.5975 0.65482-2.1798 1.2707-0.49012 0.51834-0.774 1.2146-0.84432 1.9245-0.08608 0.8689 0.14416 1.7663 0.64112 2.4843 0.49696 0.71793 1.2572 1.25 2.1029 1.4672 0.75244 0.19331 1.5555 0.14018 2.3018-0.0757 0.79878-0.23107 1.5433-0.64749 2.1583-1.2072l-1.0844-1.6468c-0.1184 0.10242-0.24068 0.20037-0.36648 0.29356-0.45698 0.33853-0.98223 0.62036-1.55 0.65268-0.37625 0.0214-0.76433-0.0738-1.067-0.2984-0.15132-0.11229-0.28004-0.25574-0.37105-0.42073s-0.14386-0.35153-0.14801-0.53991c-0.0051-0.23193 0.0636-0.46259 0.17976-0.6634s0.27846-0.37269 0.46171-0.51496c0.3665-0.28452 0.80913-0.44947 1.242-0.61659 0.78824-0.30435 1.5906-0.64384 2.1879-1.2415 0.46494-0.4652 0.78181-1.0711 0.9255-1.7129 0.1437-0.64182 0.11692-1.3177-0.05038-1.9538-0.18475-0.70242-0.54155-1.3603-1.0376-1.8908-0.49608-0.53049-1.1312-0.9317-1.8266-1.1413-0.78015-0.23517-1.6288-0.22629-2.4104 0.004z" fill="#231f20"/><path id="path7122" d="m98.858 150.01h5.2412v-1.5882l-5.242 0.01zm0-2.2235h5.2412v-1.5882h-5.242zm0-2.2235h5.2412v-1.5882h-5.242zm-7.3853 2.2235h5.2412v-1.5882h-5.241zm0-2.2235h5.2412v-1.5882h-5.241zm0-2.2235h5.2412v-1.5882h-5.241z" fill="#2d292a"/><path id="path7102" d="m69.464 169.26c0.36286 0.18775 0.75498 0.73484 0.82054 1.1448 0.15488 0.9686-0.54121 1.5765-1.8052 1.5765-0.90974 0-0.8711 0.0445-0.87047-1.0012 0.000303-0.49078 0.02254-1.1254 0.04945-1.4103l0.04892-0.51796 0.72688 0.0257c0.55 0.01 0.8 0.06 1.03 0.18zm0.3787-3.6986c1.3185 0.68178 1.222 2.6076-0.15417 3.0766-0.25013 0.0853-0.62325 0.12442-1.1848 0.12442h-0.81964v-1.4222c0-1.5711 0.02646-1.6742 0.48309-1.8819 0.343-0.16 1.286-0.1 1.675 0.1zm-4.1858-0.41901c0.01674 0.0501 0.21555 0.13763 0.44182 0.19429 0.22627 0.0567 0.45263 0.14341 0.50302 0.19278 0.11762 0.11516 0.14033 0.8595 0.11666 3.8223-0.01451 1.8153-0.04107 2.3763-0.1136 2.3993-0.05207 0.0166-0.32473 0.0524-0.60592 0.0795-0.34959 0.0337-0.51124 0.0811-0.51124 0.14978 0 0.1409 1.1358 0.2293 2.8781 0.224 1.5189-0.004 1.7886-0.0576 2.3075-0.45333 0.4927-0.37579 0.69799-1.0981 0.46833-1.6478-0.10856-0.2598-0.55381-0.69195-0.85374-0.82861-0.09901-0.0452-0.18003-0.10265-0.18003-0.12783 0-0.0252 0.1751-0.10801 0.38912-0.184 0.49158-0.1746 1.0804-0.74437 1.1947-1.1561 0.20598-0.74183-0.01339-1.4994-0.58279-2.0127-0.70884-0.63899-1.2032-0.73969-3.6393-0.74144-1.405 0-1.837 0.02-1.813 0.09zm18.032 3.9403c0.42198 0.23277 0.65518 0.65514 0.6568 1.1895 0.0032 0.98369-0.7149 1.5939-1.8766 1.5951l-0.4009 0.00045 0.0071-0.92781c0.0038-0.51029 0.02722-1.1966 0.05183-1.5252l0.04469-0.59739 0.6022 0.0463c0.417 0.04 0.698 0.11 0.914 0.23zm-3.6358-4.0075c-0.06549 0.10528 0.03704 0.15077 0.47301 0.20993 0.23125 0.0314 0.46981 0.098 0.53012 0.14807 0.09232 0.0767 0.10966 0.56251 0.10966 3.0735 0 3.43 0.04417 3.2246-0.71395 3.3193-0.34596 0.0431-0.42611 0.0788-0.40645 0.18037 0.02211 0.11433 0.214 0.12655 1.9926 0.12655 2.1628 0 2.3484-0.0292 2.8196-0.44288 0.36006-0.31612 0.54595-0.74634 0.548-1.2683 0.0025-0.61959-0.22681-1.0101-0.83513-1.4225-0.26875-0.18222-0.4826-0.35375-0.4752-0.38117 0.0075-0.0275 0.27665-0.50887 0.59835-1.0699 1.0675-1.8616 1.2642-2.083 2.0201-2.273 0.19787-0.0497 0.35976-0.12047 0.35976-0.15719 0-0.0367-0.45576-0.0668-1.0128-0.0668h-1.0128l-0.85536 1.5337c-1.0496 1.8821-1.1066 1.9503-1.6292 1.9503h-0.39184l-0.04775-0.39763c-0.06151-0.51208-0.04948-2.234 0.01735-2.4805 0.04124-0.15199 0.14802-0.22065 0.54157-0.34813 0.26962-0.0874 0.48159-0.18958 0.47104-0.22721-0.025-0.08-3.048-0.08-3.101 0zm-7.4903-0.0132c-0.05776 0.0935 0.24162 0.21643 0.52693 0.21643 0.14583 0 0.354 0.0337 0.46262 0.0751l0.19748 0.0752-0.02211 3.1023c-0.01447 2.0248-0.0496 3.1297-0.10118 3.1813-0.04346 0.0434-0.29058 0.1011-0.54912 0.1281-0.32128 0.0337-0.47005 0.0816-0.47005 0.15195 0 0.0849 0.53198 0.10276 3.0523 0.10276h3.0523l-0.0038-0.79525c-0.0019-0.4374-0.02894-0.79526-0.0598-0.79526-0.03085 0-0.15355 0.21301-0.27271 0.47335-0.11916 0.26037-0.28491 0.55612-0.36832 0.65725l-0.15166 0.18386-1.507-0.0125c-1.3227-0.0108-1.5186-0.0283-1.6017-0.14153-0.06736-0.0917-0.09467-0.51804-0.09467-1.4778v-1.3488h1.3488c1.0006 0 1.3843 0.026 1.4861 0.10038 0.0834 0.061 0.16241 0.25918 0.20124 0.50487 0.05827 0.36869 0.17169 0.60872 0.2484 0.52579 0.06947-0.0752 0.09107-2.7234 0.02205-2.7004-0.03991 0.0133-0.14708 0.2543-0.23821 0.53554-0.26078 0.80486-0.1724 0.77178-1.9935 0.74608l-1.0836-0.0153 0.02327-1.5555c0.01918-1.2825 0.04322-1.5681 0.13688-1.6273 0.14512-0.0916 2.7435-0.0929 3.1373-0.0009 0.51458 0.11934 0.69237 0.31014 1.2778 1.3713 0.20303 0.36801 0.2891 0.18595 0.16338-0.34557-0.05909-0.24994-0.10855-0.6078-0.10984-0.79526-0.0014-0.18746-0.02735-0.37925-0.05801-0.42618-0.065-0.1-6.593-0.19-6.653-0.09zm-16.618 0.0397c-0.000008 0.0839 0.60438 0.25245 0.90449 0.25245 0.07681 0 0.16383 0.0596 0.19339 0.13255 0.058 0.14303 0.33477 4.78 0.33875 5.6754 0.0028 0.62128 0.03822 0.59048-0.77391 0.67202-0.36008 0.0362-0.51124 0.0823-0.51124 0.1561 0 0.0576 0.02556 0.10635 0.05681 0.10825 0.35506 0.0219 2.0771 0.009 2.1018-0.0161 0.03687-0.0368 2.1841-4.7148 2.367-5.1566 0.06466-0.15621 0.14014-0.28402 0.16775-0.28402 0.10487 0 1.4881 3.2683 2.1557 5.0935l0.13159 0.35977h1.0496c0.57729 0 1.0664-0.0272 1.087-0.0605 0.08764-0.14179-0.10546-0.245-0.54421-0.29086-0.79777-0.0833-0.73756 0.19033-0.70874-3.2216 0.02149-2.5428 0.04186-2.9916 0.13925-3.0676 0.06276-0.049 0.34966-0.13109 0.63756-0.18254 0.302-0.054 0.52347-0.13171 0.52347-0.18374 0-0.0672-0.4151-0.0882-1.6282-0.0825-1.4167 0.006-1.6282 0.0229-1.6284 0.12503-0.000153 0.0827 0.13502 0.14531 0.45747 0.21192 0.3759 0.0777 0.47065 0.1286 0.53018 0.28518 0.09433 0.24809 0.09757 5.4632 0.0032 5.3652-0.09198-0.0957-1.772-4.1176-2.2131-5.298-0.12453-0.33325-0.25327-0.63314-0.28609-0.66641-0.03281-0.0333-0.17228 0.23938-0.3099 0.60592-0.83279 2.218-2.4069 5.6384-2.51 5.4541-0.09037-0.16147-0.20833-4.1675-0.14497-4.9233 0.0307-0.36619 0.09693-0.70702 0.14717-0.75738 0.05025-0.0505 0.33653-0.10863 0.63619-0.12946 0.40313-0.0281 0.55045-0.0675 0.56641-0.15148 0.01857-0.0979-0.18366-0.11363-1.4573-0.11363-1.078 0-1.48 0.02-1.48 0.09zm-7.2479-0.0266c-0.06981 0.1129 0.14484 0.20095 0.49311 0.20219 0.66757 0.002 0.61987-0.24782 0.61987 3.2514 0 2.3885-0.02165 3.1114-0.09503 3.1722-0.05226 0.0434-0.29215 0.10718-0.53307 0.14182-0.24092 0.0346-0.44526 0.097-0.45408 0.13868-0.01038 0.0491 1.0503 0.0826 3.0325 0.0955l3.0485 0.0197v-0.79611c0-0.43787-0.02704-0.79614-0.06008-0.79614-0.03305 0-0.17312 0.23669-0.31127 0.52597-0.39406 0.82512-0.3033 0.79029-2.0221 0.77579-0.81457-0.005-1.5095-0.0301-1.5443-0.0516-0.12776-0.0791-0.16506-0.67684-0.11151-1.7875l0.05488-1.1381 1.3942 0.0235c1.4786 0.0249 1.5353 0.0397 1.5391 0.40222 0.0028 0.2708 0.15988 0.72961 0.24054 0.70271 0.09185-0.0305 0.15148-2.7098 0.06032-2.7098-0.03199 0-0.12878 0.23252-0.2151 0.51671-0.25092 0.82612-0.21392 0.81187-2.0432 0.78616l-1.0872-0.0153 0.02684-1.5032c0.02018-1.1309 0.05257-1.5342 0.13079-1.6284 0.08979-0.10812 0.29399-0.1252 1.5002-0.1252 0.78892 0 1.5444 0.0373 1.737 0.0859 0.43124 0.10861 0.68605 0.3643 1.0464 1.05 0.30902 0.58808 0.49919 0.64426 0.35397 0.10456-0.04345-0.16151-0.10224-0.54382-0.13063-0.84956-0.02839-0.30576-0.08904-0.56775-0.13478-0.58223-0.201-0.07-6.498-0.08-6.537-0.02zm-9.6893-0.009c-0.05398 0.0874 0.21172 0.19129 0.63544 0.24851 0.26089 0.0353 0.42321 0.0993 0.46925 0.18537 0.03872 0.0724 0.1236 1.1682 0.18864 2.4353s0.13968 2.6324 0.16586 3.034l0.0476 0.73018-0.21854 0.0431c-0.1202 0.0238-0.41497 0.0654-0.65505 0.0929-0.43468 0.0496-0.58596 0.1278-0.43157 0.22323 0.12266 0.0758 2.0424 0.0662 2.1178-0.0107 0.0524-0.0534 1.0179-2.1335 2.3601-5.0847 0.08052-0.17703 0.16382-0.3219 0.18512-0.3219 0.0762 0 0.72453 1.4823 1.4354 3.2818 0.39775 1.0068 0.75474 1.9073 0.79331 2.001 0.06804 0.16536 0.10186 0.17041 1.1377 0.17041 0.96548 0 1.0652-0.0124 1.0426-0.12922-0.02885-0.14976-0.27107-0.23122-0.71927-0.24192-0.58485-0.0139-0.56227 0.12044-0.53811-3.2027 0.02457-3.3801-0.04615-3.0871 0.78256-3.2434 0.28142-0.053 0.4886-0.13111 0.4886-0.18395 0-0.0691-0.40089-0.0904-1.6301-0.086-1.3957 0.005-1.627 0.0219-1.6087 0.11766 0.01254 0.0657 0.17782 0.14821 0.39933 0.19951 0.20788 0.0481 0.43259 0.11015 0.49934 0.13796 0.10642 0.0443 0.12719 0.35545 0.16866 2.5271 0.026 1.3622 0.02249 2.6097-0.0078 2.7722-0.05288 0.28353-0.0974 0.19397-1.0917-2.1965-0.57011-1.3706-1.1286-2.7412-1.2412-3.0458-0.11254-0.30457-0.23191-0.52611-0.26526-0.49231-0.03335 0.0337-0.16697 0.35116-0.29695 0.70525-0.44346 1.2081-1.082 2.6873-1.7654 4.0899l-0.68274 1.4012-0.06898-0.49231c-0.03793-0.27077-0.07506-1.5432-0.0825-2.8278l-0.01354-2.3354 0.1788-0.14502c0.12842-0.10419 0.29917-0.14537 0.60592-0.14619 0.42578-0.0009 0.69979-0.0922 0.59444-0.19759-0.07-0.07-2.934-0.08-2.978-0.01z"/></g></svg>
