<svg xmlns:rdf="http://www.w3.org/1999/02/22-rdf-syntax-ns#" xmlns="http://www.w3.org/2000/svg" xml:space="preserve" version="1.1" xmlns:cc="http://creativecommons.org/ns#" xmlns:dc="http://purl.org/dc/elements/1.1/" viewBox="0 0 133 50"><g transform="matrix(1.25,0,0,-1.25,0,50)"><g transform="scale(.1)"><path id="path60" d="m1064 118.91h-4.886l-6.1234-12.467c-0.2935-0.60335-0.5552-1.1713-0.7906-1.7104-0.2299-0.54227-0.4865-1.166-0.764-1.8778 0.031 0.66416 0.048 1.2488 0.044 1.7527-0.01 0.50817-0.028 1.1372-0.075 1.8963l-0.7298 12.406h-4.8226l-6.6603-21.924h3.6144l3.7755 13.23c0.2037 0.72207 0.4099 1.483 0.624 2.2876 0.2116 0.79849 0.3649 1.4005 0.4548 1.8056-0.013-0.69827-0.01-1.3799 0.02-2.0544 0.022-0.67129 0.061-1.3405 0.111-2.0068l0.7905-13.262h3.1094l6.9484 13.867c0.2828 0.56397 0.5579 1.1269 0.8197 1.6866 0.2564 0.56079 0.5156 1.1404 0.7693 1.7371-0.087-0.35613-0.1878-0.88811-0.3093-1.58-0.119-0.69827-0.2274-1.4066-0.3279-2.1318l-1.872-13.579h3.5536l2.7285 21.924m-21.419 0h-15.264l-0.6319-3.0147h5.5815l-4.0268-18.91h3.6804l3.9976 18.91h5.5207l1.1422 3.0147m-42.878-13.826c0.076-2.4002-0.5314-4.5289-1.8323-6.3797-1.3009-1.854-3.7571-2.832-7.3715-2.9322h-4.2832l2.6758 12.63h5.4598c1.3008 0.0608 2.4985-0.0899 3.5986-0.4545 1.0999-0.36778 1.6842-1.3199 1.7529-2.864l-0.02 0.01zm19.692 2.139c-0.1057 4.2944-1.4039 7.5147-3.8946 9.6619-2.4932 2.144-5.5444 3.5662-9.1534 4.2613-3.6117 0.69615-7.144 1.0132-10.605 0.95421h-21.834l-13.162-60.79h17.979l4.7089 21.191h6.0996c7.4112 0.10127 13.307 1.4201 17.686 3.9607 4.3758 2.5388 7.5142 5.6877 9.4047 9.4523 1.8931 3.7656 2.8184 7.5354 2.7708 11.308m-55.992 14.877h-17.982l-8.5639-39.707c-0.53674-2.8309-1.4965-4.9514-2.874-6.353-1.3828-1.4045-3.4927-2.1028-6.3297-2.0996-1.8799-0.0238-3.3103 0.36751-4.2938 1.1763-0.98357 0.80668-1.4806 2.1607-1.4859 4.0672 0.003 0.48015 0.0502 0.98832 0.13485 1.5253 0.0819 0.53408 0.18243 1.0938 0.29613 1.6837l8.5612 39.707h-18.09l-9.2011-42.06c-0.21152-0.85612-0.35429-1.6845-0.43097-2.488-0.0766-0.80351-0.11104-1.5811-0.1084-2.3291 0.0899-4.0268 1.2453-7.1285 3.4716-9.3076 2.2236-2.1781 4.9892-3.6799 8.2968-4.5051 3.3076-0.81884 6.6258-1.2136 9.9599-1.171 7.85 0.11343 13.807 1.23 17.871 3.3502 4.0638 2.1173 6.8744 4.558 8.429 7.3207 1.552 2.7606 2.4906 5.1608 2.8132 7.2027l9.5263 43.987m-83.723-19.906c0.0106-2.144-0.24854-4.8036-0.77999-7.9743-0.53408-3.1728-1.396-6.3424-2.5885-9.5102-1.1951-3.1707-2.7815-5.825-4.7565-7.9661-1.9777-2.1387-4.4049-3.2521-7.2842-3.3399-3.0802-0.01877-5.1346 0.661-6.1684 2.047-1.0312 1.3849-1.5097 3.59-1.433 6.6235-0.008 2.1152 0.27233 4.7137 0.83285 7.7966 0.56317 3.0797 1.4595 6.1555 2.6863 9.2198 1.2295 3.0644 2.8423 5.6288 4.8359 7.6935 1.9936 2.0676 4.4181 3.1416 7.271 3.2233 2.8396 0.0372 4.7909-0.54441 5.8617-1.7392 1.0708-1.1961 1.5784-3.2214 1.5229-6.074l-0.02 0.01zm19.909-2.0324c-0.0528 7.7408-2.1707 13.5-6.3562 17.271-4.1854 3.773-10.129 5.6494-17.834 5.6341-7.5354-0.10024-13.812-1.5608-18.83-4.3782-5.0156-2.8134-8.9816-6.3879-11.898-10.714-2.9137-4.3277-4.9866-8.81-6.2187-13.444-1.2321-4.6352-1.8296-8.8232-1.7953-12.562 0.14807-7.556 2.5012-13.077 7.0647-16.564 4.5609-3.4879 10.449-5.2084 17.659-5.164 8.3391 0.13722 15.055 1.7847 20.15 4.944 5.0897 3.1572 8.9446 7.0116 11.557 11.565 2.6123 4.5506 4.3652 8.9814 5.2562 13.291 0.89367 4.31 1.3088 7.6832 1.2453 10.122m-84.335 4.2798c0.045-2.2897-0.62928-4.1352-2.0174-5.5389-1.3907-1.4037-3.7492-2.1287-7.078-2.1657h-4.1748l2.5673 11.666h4.2833c1.3907 0.0744 2.7815-0.10337 4.1749-0.53409 1.3907-0.43361 2.139-1.5761 2.2447-3.4269l-0.03 0.01zm20.338 3.4269c-0.10312 4.1849-1.3722 7.3-3.802 9.3491-2.4325 2.0491-5.4043 3.3896-8.9155 4.0236-3.5139 0.63218-6.9458 0.92037-10.293 0.85929h-23.122l-13.162-60.79h17.982l5.1346 23.653c1.3881 0.0341 2.4113-0.38417 3.0644-1.2588 0.65306-0.87278 1.2744-2.736 1.8587-5.5918l3.7466-16.803h20.657c-0.44947 1.79-1.0497 4.0001-1.7953 6.6235-0.74825 2.6223-1.5124 5.1899-2.295 7.6935-0.78526 2.5065-1.4542 4.476-2.0121 5.9117-0.4627 1.1961-1.0893 2.3114-1.8852 3.3423-0.79584 1.037-1.56 1.8828-2.287 2.5438 4.1854 0.88812 7.538 2.4642 10.052 4.7272 2.5144 2.2659 4.3282 4.8097 5.4387 7.6303 1.1105 2.8248 1.6551 5.5183 1.634 8.0858m-54.81 19.798c-2.948 3.1098-6.5201 5.4522-10.716 7.0386-4.1907 1.5824-8.9684 2.3756-14.328 2.3806-8.8626-0.15175-16.194-2.1308-21.993-5.9315-5.7956-3.7997-10.341-8.5112-13.632-14.135-3.2918-5.6238-5.6079-11.248-6.9537-16.869-1.3431-5.6185-1.9909-10.327-1.9433-14.115-0.045-1.9759 0.26969-4.3999 0.9439-7.271 0.67422-2.8693 1.9698-5.7332 3.8867-8.5826 1.9142-2.8537 4.7142-5.2404 8.4-7.1604 3.6831-1.9219 8.511-2.9187 14.489-2.9951 4.7988-0.02168 9.5421 0.55471 14.235 1.7257 4.6904 1.1723 9.4364 3.0541 14.235 5.6589l7.7072 36.392h-30.398l-1.0708-15.201h9.098l-2.4616-11.773c-1.129-0.41828-2.2976-0.7033-3.5059-0.85718-1.2083-0.1478-2.4298-0.2221-3.6646-0.2139-3.3156-0.01852-5.7824 0.93254-7.4137 2.8494-1.6261 1.9232-2.4378 4.9287-2.4325 9.0319-0.0237 1.9655 0.25117 4.7893 0.8302 8.4671 0.57904 3.6767 1.6076 7.4846 3.0882 11.427 1.4806 3.939 3.5614 7.2894 6.2398 10.042 2.681 2.7545 6.1076 4.1902 10.282 4.3121 2.8899-0.009 5.6211-0.44948 8.2016-1.3241 2.5805-0.87597 4.6984-2.1472 6.3562-3.8132l12.519 10.917m-98.708-12.736c-2.9428 2.768-6.3403 4.8036-10.193 6.0997-3.8523 1.2985-8.1593 1.9428-12.924 1.9272-7.8526-0.1187-14.33-1.6863-19.441-4.7034-5.1082-3.0147-9.1032-6.7607-11.985-11.245-2.882-4.4792-4.902-8.9761-6.0653-13.489-1.1633-4.5136-1.7239-8.3317-1.6789-11.446 0.0556-4.8522 1.2242-8.8946 3.5086-12.131 2.2791-3.2339 5.3276-5.6608 9.1429-7.2763 3.8153-1.6184 8.0536-2.4269 12.712-2.4269 4.2648-0.02089 8.5004 0.44921 12.71 1.4034 4.2092 0.96056 8.5004 2.5232 12.871 4.6994l6.4222 30.072h-28.045l-0.74824-13.271h7.9214l-1.7106-8.4544c-0.91746-0.26757-1.8693-0.45767-2.8634-0.57745-0.99679-0.11871-2.0041-0.1745-3.0247-0.17133-3.0697 0.01852-5.2536 0.8355-6.5544 2.4457-1.3035 1.6131-1.938 3.8999-1.901 6.8641-0.0213 1.6948 0.21417 3.9795 0.70595 6.8577 0.48649 2.8775 1.3537 5.8168 2.599 8.8232 1.2453 3.0015 2.9877 5.5421 5.2298 7.6181 2.2421 2.075 5.1055 3.1561 8.5903 3.2439 2.4986-0.005 4.8834-0.37068 7.1573-1.0978 2.2712-0.72709 4.2013-1.7897 5.793-3.1831l11.771 9.4181m-62.224 7.1697h-17.125l-4.2806-20.015c-0.22209-1.0409-0.45476-2.4272-0.69802-4.1508-0.24853-1.7289-0.45741-3.3103-0.63455-4.751-0.17185-1.4407-0.26176-2.2556-0.27233-2.4404-0.0899 0.35403-0.35957 1.295-0.80905 2.8235-0.44684 1.5306-0.95449 3.2257-1.5203 5.0868-0.56846 1.8622-1.0735 3.4721-1.5229 4.8232l-6.4222 18.623h-17.122l-13.164-60.79h17.125l3.8523 18.301c0.32257 1.5626 0.61342 3.2762 0.87516 5.1402 0.25911 1.8664 0.47063 3.493 0.6372 4.8811 0.16393 1.3902 0.26704 2.1514 0.3067 2.2868 0.0847-0.3223 0.31728-1.2477 0.70066-2.7794 0.38338-1.5306 0.83021-3.2325 1.3458-5.1103 0.51292-1.8746 1.0074-3.4898 1.4859-4.8459l6.0997-17.874h17.979l13.164 60.79m-61.126 0h-18.088l-12.95-60.79h18.088l12.95 60.79m-22.471 0h-50.944l-2.8899-13.803h15.306l-10.277-46.987h18.196l10.166 46.987h15.306l5.1373 13.803m-55.029 0h-17.982l-8.5612-39.707c-0.53673-2.8309-1.4965-4.9514-2.8766-6.353-1.3802-1.4045-3.4901-2.1028-6.3297-2.0996-1.8772-0.0238-3.3103 0.36751-4.2938 1.1763-0.98356 0.80668-1.478 2.1607-1.4833 4.0672 0.003 0.48015 0.0475 0.98832 0.13219 1.5253 0.0847 0.53408 0.18244 1.0938 0.29349 1.6837l8.5639 39.707h-18.088l-9.2064-42.06c-0.20888-0.85612-0.34901-1.6845-0.42569-2.488-0.0766-0.80351-0.11105-1.5811-0.10841-2.3291 0.0871-4.0268 1.2453-7.1285 3.4689-9.3076 2.2262-2.1781 4.9892-3.6799 8.2968-4.5051 3.305-0.81884 6.6258-1.2136 9.9626-1.171 7.8474 0.11343 13.804 1.23 17.868 3.3502 4.0638 2.1173 6.8717 4.558 8.429 7.3207 1.5546 2.7606 2.4906 5.1608 2.8132 7.2027l9.5263 43.987m-77.189-17.016c0.0767-2.4002-0.53408-4.5289-1.8323-6.3797-1.3008-1.854-3.7571-2.832-7.3714-2.9322h-4.2832l2.6784 12.63h5.4572c1.3008 0.0608 2.4986-0.0899 3.5985-0.4545 1.0999-0.36778 1.6842-1.3199 1.753-2.864l-0.02 0.01zm19.692 2.139c-0.10577 4.2944-1.404 7.5147-3.8972 9.6619-2.4906 2.144-5.5418 3.5662-9.1508 4.2613-3.6117 0.69615-7.144 1.0132-10.605 0.95421h-21.834l-13.164-60.79h17.982l4.709 21.191h6.0997c7.4111 0.10127 13.307 1.4201 17.683 3.9607 4.3811 2.5388 7.5142 5.6877 9.4073 9.4523 1.8931 3.7656 2.8158 7.5354 2.7709 11.308m-60.78 14.877h-21.406l-12.416-26.328c-0.58961-1.198-1.2056-2.5488-1.8455-4.0588-0.64249-1.5089-1.1951-2.8476-1.6578-4.0104-0.46272-1.1663-0.72181-1.8302-0.77735-1.9915 0.005 0.13035 0.0318 0.74058 0.0793 1.8323 0.0475 1.0928 0.0899 2.3217 0.1269 3.686 0.0371 1.3646 0.0397 2.5253 0.008 3.4713l-0.74824 27.399h-21.406l-19.801-60.79h18.41l6.6338 26.328c0.25382 1.0877 0.57903 2.5491 0.97828 4.3864 0.39923 1.8405 0.64512 2.9808 0.73502 3.4248 0.003-0.19618 0.0212-0.7776 0.0582-1.7485 0.0397-0.96664 0.0819-2.0036 0.1322-3.1035 0.0502-1.0999 0.0925-1.9439 0.12955-2.5324l1.3934-26.755h15.303l13.915 27.291c0.505 1.0235 1.1792 2.4272 2.02 4.2148 0.84078 1.7847 1.3802 2.9478 1.6181 3.493-0.13749-0.64222-0.37016-1.8743-0.69536-3.7066-0.32522-1.8302-0.55789-3.3082-0.69539-4.4287l-4.4974-26.863h17.339l7.0647 60.79m-95.919-19.906c0.0106-2.144-0.25118-4.8036-0.78262-7.9743-0.53145-3.1728-1.3944-6.3424-2.5895-9.5102-1.1938-3.1707-2.7791-5.825-4.756-7.9661-1.9769-2.1387-4.4049-3.2521-7.2855-3.3399-3.0786-0.01877-5.1341 0.661-6.1668 2.047-1.0306 1.3849-1.5089 3.59-1.4314 6.6235-0.007 2.1152 0.26968 4.7137 0.83153 7.7966 0.56264 3.0797 1.4582 6.1555 2.6884 9.2198 1.2289 3.0644 2.8412 5.6288 4.8345 7.6935 1.9933 2.0676 4.4173 3.1416 7.272 3.2233 2.8359 0.0372 4.7901-0.54441 5.8601-1.7392 1.0706-1.1961 1.5782-3.2214 1.5253-6.074l-0.01 0.01zm19.907-2.0324c-0.0502 7.7408-2.1681 13.5-6.3535 17.271-4.1854 3.773-10.129 5.6494-17.835 5.6341-7.5364-0.10024-13.814-1.5608-18.832-4.3782-5.0162-2.8134-8.9822-6.3879-11.898-10.714-2.9145-4.3277-4.9884-8.81-6.2184-13.444-1.231-4.6352-1.8291-8.8232-1.794-12.562 0.14647-7.556 2.5015-13.077 7.0624-16.564 4.5627-3.4879 10.45-5.2084 17.66-5.164 8.3389 0.13722 15.054 1.7847 20.148 4.944 5.095 3.1572 8.9473 7.0116 11.56 11.565 2.6123 4.5506 4.3652 8.9814 5.2562 13.291 0.89367 4.31 1.3088 7.6832 1.2453 10.122m-50.572 31.572c-1.8809 1.5864-4.4319 2.8835-7.6522 3.8927-3.2191 1.01-7.0549 1.5317-11.505 1.5647-5.848-0.0352-10.954-0.92645-15.318-2.6752-4.3636-1.7464-8.212-4.1394-11.546-7.1697-3.8832-3.5527-7.0819-7.6747-9.5969-12.368-2.5147-4.6931-4.3821-9.6268-5.6008-14.796-1.2199-5.1661-1.8251-10.24-1.8198-15.219 0.0598-7.5962 2.3754-13.625 6.9426-18.088 4.5691-4.466 11.03-6.7472 19.386-6.8506 5.4614 0.04231 10.272 0.76121 14.436 2.1525 4.1632 1.3952 7.6633 3.2087 10.501 5.4458l-5.6721 13.271c-2.424-1.854-4.7198-3.176-6.8886-3.9713-2.1699-0.79637-4.4401-1.1845-6.8104-1.166-2.8497-0.0081-5.2044 0.8934-7.0645 2.7048-1.859 1.8085-2.8227 4.5847-2.8899 8.3204 0.0227 3.7542 0.45344 7.6594 1.2932 11.718 0.83868 4.0559 1.9521 7.7781 3.337 11.168 1.386 3.3896 2.9116 5.9654 4.5754 7.7233 1.7413 1.7979 3.4752 3.0726 5.2042 3.8253 1.727 0.75723 3.5964 1.1187 5.6052 1.098 2.0396 0.005 3.9536-0.27471 5.7393-0.84396 1.7855-0.56793 3.4049-1.4645 4.8562-2.6863l10.488 12.948m387.91 93.23c0.003-4.7282-0.76146-10.378-2.295-16.946-1.5309-6.5684-3.8444-12.394-6.9378-17.479-3.0935-5.0836-6.9801-7.7667-11.66-8.0436h-7.8764l11.303 53.258h7.7046c3.8523 0.0536 6.4672-0.73849 7.8341-2.3756 1.3722-1.638 2.0121-4.4408 1.9275-8.4132l-0.03 0.01zm31.337 1.198c-0.13749 11.503-3.3261 19.665-9.5686 24.489-6.2372 4.8242-14.693 7.1634-25.364 7.0208h-37.843l-21.065-97.266h39.387c10.526 0.16207 19.309 2.52 26.35 7.0716 7.0436 4.5495 12.622 10.305 16.739 17.267 4.114 6.9579 7.0515 14.139 8.8071 21.535 1.753 7.3981 2.6043 14.024 2.5567 19.882m-80.412 31.51h-63.017l-21.065-97.266h64.902l4.7962 22.089h-36.133l3.7677 17.81h26.368l4.6243 21.063h-26.371l3.0829 14.385h32.021l7.0224 21.919m-71.649 0h-81.511l-4.6244-22.091h24.489l-16.44-75.175h29.113l16.266 75.175h24.489l8.2202 22.091m-88.127-7.8772c-4.5926 3.1646-10.05 5.5267-16.377 7.0851-6.3244 1.5597-13.196 2.3362-20.613 2.332-7.9426 0.0103-15.652-1.2456-23.138-3.7666-7.4825-2.52-13.672-6.3651-18.571-11.53-4.894-5.165-7.4322-11.71-7.6094-19.636 0.0952-6.5894 2.0438-11.947 5.8432-16.075 3.7994-4.1283 8.8732-7.046 15.219-8.7553l11.647-3.2524c3.0459-0.83946 5.214-1.7297 6.5069-2.676 1.2903-0.94708 1.9195-2.052 1.8825-3.3172-0.20359-3.5477-1.9354-6.0452-5.2007-7.493-3.2653-1.4492-6.84-2.1482-10.724-2.0967-5.3726 0.06-10.51 0.83656-15.412 2.331-4.902 1.4957-9.1826 3.3444-12.844 5.5442l-14.727-20.548c5.1558-2.8576 10.814-5.104 16.974-6.7443 6.1631-1.6369 13.233-2.4703 21.213-2.5044 8.8785-0.0363 17.514 1.2374 25.908 3.8142 8.3973 2.5768 15.346 6.6739 20.848 12.297 5.5048 5.6206 8.355 12.979 8.556 22.076-0.1798 6.4696-2.1416 11.455-5.8802 14.955-3.7386 3.5012-8.1699 6.0894-13.299 7.7635-5.1267 1.6752-9.8647 3.0054-14.211 3.9959-3.0326 0.88126-5.1452 1.9026-6.3376 3.0615-1.1924 1.1586-1.7609 2.3082-1.7133 3.4454 0.14277 2.4808 1.3987 4.3274 3.7677 5.5452 2.369 1.2154 4.9945 1.8228 7.8764 1.8185 3.7518 0 7.6411-0.55548 11.668-1.6699 4.0268-1.1134 7.7865-2.7823 11.279-5.008l17.469 19.008m-92.92 7.8772h-28.769l-13.698-63.532c-0.8593-4.5328-2.3955-7.9238-4.6032-10.168-2.2077-2.2432-5.5815-3.364-10.125-3.3586-3.0065-0.0363-5.2964 0.59066-6.8704 1.8817-1.574 1.2921-2.3651 3.4599-2.3775 6.5068 0.008 0.77231 0.0796 1.5864 0.21494 2.4404 0.13511 0.85718 0.29322 1.7559 0.4709 2.6977l13.7 63.532h-28.94l-14.727-67.299c-0.33552-1.3714-0.56395-2.6977-0.68584-3.9816-0.12083-1.2858-0.17767-2.525-0.17133-3.7251 0.14039-6.4407 1.9912-11.405 5.5502-14.891 3.5591-3.4856 7.9835-5.8868 13.274-7.207 5.2912-1.3156 10.605-1.9404 15.939-1.8764 12.558 0.18271 22.09 1.9706 28.592 5.3602 6.5016 3.3907 10.996 7.2969 13.484 11.715 2.4853 4.4173 3.9871 8.2593 4.5027 11.523l15.24 70.382m-134.44-28.25c0.0668-3.6614-1.0103-6.6153-3.2328-8.8637-2.2225-2.2474-5.9966-3.4031-11.324-3.4671h-6.6782l4.1095 18.666h6.8495c2.2257 0.12081 4.4535-0.16421 6.6792-0.85614 2.2257-0.6922 3.4248-2.5192 3.5964-5.4791zm32.535 5.4791c-0.16631 6.6967-2.1927 11.683-6.0812 14.961-3.8906 3.278-8.6445 5.4231-14.264 6.4384-5.6217 1.0132-11.111 1.4716-16.472 1.3756h-36.988l-21.062-97.266h28.767l8.2202 37.843c2.2225 0.059 3.8576-0.61235 4.9017-2.0118 1.0462-1.3974 2.0377-4.3803 2.9756-8.9473l5.9934-26.884h33.051c-0.71997 2.8661-1.6784 6.3982-2.8732 10.597-1.1961 4.1984-2.42 8.304-3.6717 12.311-1.2528 4.0072-2.3259 7.1605-3.2162 9.4554-0.73846 1.9137-1.7445 3.6974-3.0178 5.353-1.2734 1.6544-2.4933 3.0094-3.6604 4.0662 6.6988 1.4212 12.06 3.9443 16.084 7.5663 4.0239 3.6231 6.9241 7.6922 8.7014 12.209 1.7786 4.5172 2.6503 8.8283 2.613 12.933m-89.305 22.775h-81.512l-4.6241-22.091h24.488l-16.438-75.175h29.111l16.268 75.175h24.488l8.2202 22.091m-128.42-57.67c0 109.36 149.5 198 333.92 198s333.92-88.645 333.92-198c0-14.601-2.1073-27.139-7.1626-40.838 3.6619 12.024 5.0209 22.765 5.0209 35.487 0 105.22-131.29 190.51-293.26 190.51-124.59 0-231.04-50.476-273.52-121.67h-56.274l-7.6015-33.711h23.796l-17.186-76.015h44.306c28.81-85.563 146.13-149.62 286.49-149.62 4.2595 0 8.4952 0.059886 12.707 0.17659-16.7-1.5265-33.82-2.3166-51.24-2.3166-184.42 0-333.92 88.647-333.92 198" fill="#112c7b"/></g></g></svg>
