<svg xmlns:rdf="http://www.w3.org/1999/02/22-rdf-syntax-ns#" xmlns="http://www.w3.org/2000/svg" version="1.1" xmlns:cc="http://creativecommons.org/ns#" xmlns:dc="http://purl.org/dc/elements/1.1/" viewBox="0 0 215 32">
<defs>
<filter id="filter7152" height="1.084" width="1.0338" y="-.042008" x="-.016889">
<feGaussianBlur stdDeviation="0.95152826"/>
</filter>
</defs>
<path id="path7179" d="m45.261 17.568q-0.153-1.416-0.383-2.412-0.229-1.033-0.535-1.761-0.307-0.765-0.69-1.263-0.344-0.536-0.804-0.995-1.225-1.302-2.871-1.9145-1.608-0.6508-4.211-0.6508h-7.3504v39.662q0 2.4501 0.26798 3.9432 0.30627 1.4931 0.80396 2.1056 1.3399 1.5696 4.4409 1.5696h1.8376v1.4548h-22.051v-1.4548h1.8759q1.6845 0 2.7947-0.4594t1.8759-1.5313q0.38284-0.61254 0.57425-1.9525 0.2297-1.3782 0.2297-3.6752v-39.662h-6.2019q-1.5696 0-2.6798 0.076567-1.0719 0.076567-1.8759 0.26798-0.76567 0.19142-1.3782 0.49769-0.57425 0.30627-1.1102 0.80395-2.7947 2.0673-3.2541 7.3504h-1.7228l0.57425-12.174h43.069l0.42112 12.174h-1.6462z" transform="matrix(.50980 0 0 .50077 -.28524 1.5457)" filter="url(#filter7152)"/>
<path id="path7181" d="m87.68 19.712q0 2.9861-0.9188 5.6277-0.9188 2.6033-3.0627 4.5557-2.1056 1.9525-5.5894 3.101-3.4838 1.1102-8.6138 1.0719h-1.3016q-0.57425 0-1.2634 0-0.6891-0.03828-1.6462-0.11485-0.9188-0.11485-2.4119-0.26798v14.395q0 2.4501 0.2297 3.9815 0.2297 1.5313 0.88052 2.0673 1.4548 1.7228 4.4026 1.7228h1.9525v1.4548h-22.166v-1.4548h1.8759q1.6079 0 2.7947-0.49769t1.8759-1.5696q0.30627-0.61254 0.53597-1.9907 0.2297-1.4165 0.2297-3.7135v-33.536q0-4.7854-0.99537-6.1254-0.766-0.804-1.838-1.2252-1.072-0.4211-2.603-0.4211h-1.8759v-1.3782h18.912q1.9907 0 4.0198 0.11485 2.029 0.11485 3.9049 0.49769 1.9142 0.34455 3.6369 0.99537 1.7228 0.61254 3.0627 1.6462 1.2634 0.9188 2.3353 2.029 1.1102 1.0719 1.9142 2.4119 0.80395 1.3399 1.2634 2.9861 0.4594 1.6079 0.4594 3.6369zm-8.7669 0.80395q0.03828-2.3736-0.65082-4.5557-0.6891-2.2204-2.0673-3.8666-1.3782-1.6845-3.4838-2.6798-2.0673-0.99537-4.8237-0.99537-0.9188 0-2.1822 0.2297-1.2634 0.19142-2.833 0.49769v21.975q1.9907 0.30627 3.5604 0.38284 1.5696 0.07657 2.6798 0.07657 1.9907 0 3.7518-0.76567 1.7993-0.80395 3.101-2.2587 1.3399-1.4548 2.1056-3.4838 0.80395-2.029 0.84224-4.5557z" transform="matrix(.50980 0 0 .50077 -.28524 1.5457)" filter="url(#filter7152)"/>
<path id="path7183" d="m138.06 45.132q-1.9142 3.4072-4.1346 5.9339-2.2204 2.4884-4.862 4.1729-2.6416 1.6462-5.7425 2.4501-3.101 0.84224-6.7762 0.84224-3.9815 0-7.3887-0.99537-3.4072-0.95709-6.2402-2.6798-2.7947-1.761-4.9769-4.2112-2.1439-2.4501-3.6369-5.3597-1.4931-2.9478-2.2587-6.2785-0.76567-3.369-0.76567-6.891 0-5.666 1.8759-10.719 1.9142-5.0917 5.3597-8.9201 3.4838-3.8284 8.3841-6.0488 4.9003-2.2587 10.873-2.2587 2.9478 0 5.1683 0.57425 2.2587 0.57425 3.8666 1.2634 1.6462 0.65082 2.7181 1.2251 1.0719 0.57425 1.6462 0.57425 1.0337 0 1.8759-0.88052 0.88052-0.9188 1.3016-2.7564h1.3782l1.2251 17.649h-1.2251q-1.1868-3.9815-2.9095-6.8145-1.7228-2.833-3.9432-4.6323-2.1822-1.7993-4.8237-2.6416-2.6416-0.84224-5.666-0.84224-4.0198 0-7.3887 1.5313-3.369 1.4931-5.8191 4.6323-2.4119 3.1392-3.7901 7.8864t-1.3782 11.255q0 5.5511 1.3782 9.8389 1.4165 4.2878 3.9815 7.1973t6.1254 4.4026q3.5986 1.4931 8.0013 1.4931 2.565 0 4.7472-0.4594 2.1822-0.49769 4.2495-1.6845 2.0673-1.2251 4.0963-3.2924 2.0673-2.1056 4.3643-5.3597l1.1102 0.80395z" transform="matrix(.50980 0 0 .50077 -.28524 1.5457)" filter="url(#filter7152)"/>
<path id="path7186" fill="#33689c" d="m59.244 2.6328c-2.03 0-3.877 0.3768-5.543 1.1309-1.665 0.7413-3.089 1.7512-4.273 3.0293-1.171 1.278-2.082 2.7669-2.733 4.467-0.637 1.687-0.957 3.475-0.957 5.367 0 1.176 0.131 2.326 0.391 3.451 0.26 1.112 0.645 2.159 1.152 3.143 0.508 0.971 1.125 1.867 1.854 2.685 0.741 0.818 1.587 1.52 2.537 2.108 0.963 0.575 2.024 1.022 3.182 1.341 1.158 0.333 2.412 0.5 3.765 0.5 1.249 0 2.401-0.14 3.455-0.421 1.054-0.269 2.03-0.677 2.928-1.227 0.898-0.562 1.724-1.259 2.478-2.09 0.755-0.843 1.457-1.835 2.108-2.972l-0.567-0.403c-0.78 1.087-1.522 1.981-2.224 2.684-0.69 0.69-1.385 1.239-2.088 1.648-0.703 0.396-1.424 0.678-2.166 0.844-0.742 0.153-1.548 0.23-2.42 0.23-1.496 0-2.857-0.249-4.08-0.748-1.21-0.498-2.251-1.231-3.123-2.203-0.872-0.971-1.548-2.174-2.029-3.605-0.469-1.432-0.703-3.073-0.703-4.926 0-2.173 0.234-4.052 0.703-5.637 0.468-1.5845 1.112-2.9009 1.931-3.9489 0.833-1.048 1.822-1.8219 2.967-2.3203 1.145-0.5113 2.401-0.7676 3.768-0.7676 1.028 0 1.991 0.1407 2.888 0.4219 0.898 0.2811 1.718 0.7235 2.459 1.3242 0.755 0.6007 1.425 1.3726 2.01 2.3183 0.586 0.9458 1.081 2.0854 1.484 3.4144h0.623l-0.623-8.8382h-0.703c-0.143 0.6135-0.364 1.0722-0.664 1.3789-0.286 0.294-0.605 0.4414-0.957 0.4414-0.195 0-0.473-0.0954-0.838-0.2871-0.364-0.1917-0.827-0.396-1.386-0.6133-0.547-0.23-1.203-0.4411-1.971-0.6328-0.755-0.1917-1.633-0.2871-2.635-0.2871zm-58.297 0.6133l-0.29297 6.0957h0.8789c0.1561-1.7637 0.7084-2.9915 1.6582-3.6816 0.1822-0.1662 0.3712-0.3001 0.5664-0.4024 0.2082-0.1022 0.4429-0.1841 0.7031-0.248 0.2733-0.0639 0.5908-0.1092 0.9551-0.1348 0.3773-0.0256 0.8337-0.0391 1.3672-0.0391h3.1621v19.861c0 0.767-0.0391 1.382-0.1172 1.842-0.065 0.447-0.1628 0.772-0.2929 0.977-0.2603 0.357-0.5797 0.614-0.9571 0.767-0.3773 0.154-0.8513 0.231-1.4238 0.231h-0.957v0.728h11.242v-0.728h-0.937c-1.054 0-1.808-0.263-2.264-0.787-0.169-0.205-0.306-0.557-0.41-1.055-0.091-0.499-0.137-1.157-0.137-1.975v-19.861l3.748-0.0001c0.885 0 1.6 0.1089 2.147 0.3262 0.559 0.2045 1.046 0.5244 1.463 0.959 0.156 0.1534 0.293 0.3191 0.41 0.498 0.13 0.1662 0.247 0.3772 0.352 0.6329 0.104 0.2428 0.195 0.5377 0.273 0.8828 0.078 0.3323 0.143 0.7341 0.195 1.207h0.84l-0.215-6.0957h-21.957zm22.815 0v0.6894h0.957c0.52 0 0.964 0.0704 1.328 0.211s0.675 0.3449 0.935 0.6133c0.339 0.4473 0.508 1.4707 0.508 3.0683v16.793c0 0.767-0.039 1.387-0.117 1.859-0.078 0.461-0.169 0.794-0.273 0.999-0.235 0.357-0.554 0.619-0.957 0.785-0.404 0.166-0.878 0.25-1.424 0.25h-0.957v0.728h11.3v-0.728h-0.996c-1.001 0-1.749-0.288-2.244-0.864-0.221-0.179-0.369-0.524-0.447-1.035s-0.117-1.176-0.117-1.994v-7.209c0.507 0.051 0.916 0.097 1.228 0.135 0.326 0.025 0.606 0.046 0.84 0.058h0.645 0.662c1.743 0.013 3.208-0.166 4.392-0.537 1.184-0.383 2.134-0.901 2.85-1.552 0.729-0.652 1.248-1.413 1.561-2.282 0.312-0.881 0.468-1.821 0.468-2.818 0-0.6774-0.078-1.2855-0.234-1.8222-0.156-0.5496-0.371-1.0469-0.645-1.4942-0.273-0.4473-0.599-0.8511-0.976-1.209-0.364-0.3706-0.76-0.7089-1.19-1.0156-0.455-0.3451-0.975-0.6197-1.56-0.8242-0.586-0.2173-1.205-0.383-1.856-0.4981-0.637-0.1278-1.3-0.2116-1.99-0.25-0.689-0.0383-1.372-0.0566-2.049-0.0566h-9.642zm10.052 1.5137c0.937 0 1.757 0.1657 2.459 0.498 0.716 0.3323 1.307 0.7795 1.776 1.3418 0.468 0.5496 0.82 1.1962 1.055 1.9375 0.234 0.7285 0.343 1.4889 0.33 2.2809-0.013 0.844-0.155 1.604-0.428 2.282-0.26 0.677-0.619 1.258-1.074 1.744-0.443 0.485-0.969 0.862-1.58 1.131-0.599 0.255-1.238 0.384-1.914 0.384-0.378 0-0.832-0.013-1.366-0.039-0.533-0.025-1.138-0.089-1.814-0.191v-11.004c0.533-0.1022 1.014-0.1861 1.443-0.25 0.43-0.0767 0.801-0.1152 1.113-0.1152z"/>
<path id="path7193" fill="#33689c" d="m75.609 5.1172l-0.109 2.2754h0.328c0.058-0.6585 0.265-1.1173 0.619-1.375 0.068-0.0621 0.138-0.1122 0.211-0.1504 0.078-0.0382 0.167-0.068 0.264-0.0918 0.102-0.0239 0.219-0.0412 0.355-0.0508 0.141-0.0095 0.311-0.0137 0.51-0.0137h1.182v7.4141c0 0.286-0.016 0.516-0.045 0.687-0.024 0.168-0.059 0.289-0.108 0.366-0.097 0.133-0.216 0.23-0.357 0.287s-0.319 0.086-0.533 0.086h-0.356v0.271h4.196v-0.271h-0.35c-0.393 0-0.674-0.099-0.844-0.295-0.063-0.076-0.115-0.207-0.154-0.393-0.034-0.186-0.051-0.433-0.051-0.738v-7.4141h1.399c0.33 0 0.598 0.04 0.802 0.1211 0.209 0.0764 0.392 0.1952 0.547 0.3575 0.059 0.0572 0.109 0.1206 0.153 0.1875 0.048 0.062 0.092 0.1389 0.13 0.2343 0.039 0.0907 0.073 0.2013 0.102 0.3301 0.029 0.1241 0.055 0.2746 0.074 0.4512h0.313l-0.08-2.2754h-8.198zm74.821 0v0.2558h0.36c0.19 0 0.36 0.0276 0.49 0.0801 0.14 0.0525 0.25 0.1283 0.35 0.2285 0.13 0.1671 0.19 0.5481 0.19 1.1446v6.2718c0 0.286-0.01 0.516-0.04 0.693-0.03 0.172-0.07 0.297-0.1 0.373-0.09 0.134-0.21 0.231-0.36 0.293s-0.33 0.094-0.53 0.094h-0.36v0.271h4.22v-0.271h-0.37c-0.38 0-0.66-0.108-0.84-0.322-0.09-0.067-0.14-0.196-0.17-0.387s-0.04-0.439-0.04-0.744v-2.692c0.19 0.019 0.34 0.035 0.46 0.049 0.12 0.01 0.22 0.017 0.31 0.022h0.24 0.25c0.65 0.004 1.19-0.061 1.64-0.2 0.44-0.143 0.79-0.3364 1.06-0.5797 0.27-0.2434 0.47-0.5271 0.58-0.8516 0.12-0.3292 0.18-0.6805 0.18-1.0527 0-0.2529-0.03-0.4793-0.09-0.6797-0.06-0.2052-0.14-0.3916-0.24-0.5586s-0.22-0.3176-0.36-0.4512c-0.14-0.1384-0.29-0.2644-0.45-0.3789-0.17-0.1288-0.36-0.2322-0.58-0.3086-0.22-0.0811-0.45-0.1426-0.69-0.1855-0.24-0.0477-0.49-0.0775-0.75-0.0918-0.25-0.0143-0.51-0.0215-0.76-0.0215h-3.6zm-21.47 0.1992c-0.11 0-0.2 0.0185-0.3 0.0566-0.08 0.0334-0.16 0.0825-0.23 0.1446-0.07 0.062-0.12 0.1378-0.16 0.2285-0.04 0.0859-0.06 0.1821-0.06 0.2871 0 0.2147 0.07 0.3909 0.21 0.5293s0.32 0.207 0.54 0.207c0.21 0 0.38-0.0717 0.52-0.2148 0.14-0.1432 0.21-0.3163 0.21-0.5215 0-0.1002-0.02-0.1934-0.06-0.2793s-0.09-0.1606-0.16-0.2227c-0.06-0.0668-0.14-0.12-0.23-0.1582-0.09-0.0381-0.18-0.0566-0.28-0.0566zm69.25 0c-0.1 0-0.2 0.0185-0.29 0.0566-0.09 0.0334-0.17 0.0825-0.24 0.1446-0.06 0.062-0.12 0.1378-0.16 0.2285-0.04 0.0859-0.06 0.1821-0.06 0.2871 0 0.2147 0.07 0.3909 0.22 0.5293 0.14 0.1384 0.31 0.207 0.53 0.207 0.21 0 0.39-0.0717 0.52-0.2148 0.14-0.1432 0.21-0.3163 0.21-0.5215 0-0.1002-0.02-0.1934-0.06-0.2793-0.03-0.0859-0.09-0.1606-0.16-0.2227-0.06-0.0668-0.14-0.12-0.23-0.1582-0.09-0.0381-0.18-0.0566-0.28-0.0566zm-44.03 0.3652c0.35 0 0.66 0.0615 0.92 0.1856 0.27 0.1241 0.49 0.292 0.66 0.5019 0.18 0.2052 0.31 0.4459 0.4 0.7227 0.08 0.272 0.12 0.5557 0.12 0.8516-0.01 0.3149-0.06 0.5986-0.16 0.8515s-0.23 0.471-0.4 0.6524c-0.17 0.1813-0.36 0.3216-0.59 0.4218-0.22 0.0955-0.46 0.1429-0.72 0.1429-0.14 0-0.31-0.004-0.51-0.014-0.19-0.0095-0.42-0.034-0.67-0.0722v-4.1074c0.2-0.0382 0.38-0.0699 0.54-0.0938 0.16-0.0286 0.3-0.043 0.41-0.043zm-29.41 0.4219c-0.1 0.2338-0.19 0.4274-0.26 0.5801s-0.14 0.2817-0.2 0.3867c-0.07 0.1002-0.13 0.1862-0.18 0.2578s-0.11 0.1474-0.18 0.2285c-0.19 0.2195-0.4 0.4203-0.62 0.6016-0.22 0.1766-0.43 0.3015-0.63 0.373v0.2208h1.07v4.545c0 0.367 0.04 0.665 0.12 0.894 0.08 0.225 0.18 0.403 0.31 0.532 0.12 0.124 0.26 0.207 0.42 0.25 0.15 0.043 0.31 0.064 0.47 0.064 0.15 0 0.3-0.029 0.46-0.086 0.17-0.057 0.32-0.143 0.48-0.258 0.15-0.114 0.29-0.261 0.42-0.437 0.13-0.177 0.23-0.386 0.31-0.629h-0.29c-0.09 0.186-0.2 0.334-0.34 0.443-0.14 0.105-0.3 0.152-0.48 0.143-0.09-0.005-0.17-0.023-0.26-0.057-0.08-0.033-0.15-0.091-0.21-0.172s-0.1-0.189-0.14-0.328c-0.03-0.138-0.05-0.316-0.05-0.531v-4.373h1.57v-0.4864h-1.57v-2.1621h-0.22zm56.58 1.961c-0.45 0-0.86 0.0819-1.24 0.2441s-0.71 0.3958-0.99 0.7012c-0.27 0.3054-0.48 0.6782-0.64 1.1172-0.15 0.439-0.22 0.935-0.22 1.488 0 0.52 0.07 0.994 0.23 1.418 0.16 0.42 0.36 0.78 0.63 1.08 0.26 0.296 0.57 0.526 0.93 0.688 0.35 0.157 0.73 0.236 1.12 0.236s0.73-0.076 1.05-0.228c0.32-0.153 0.59-0.353 0.82-0.596 0.24-0.248 0.43-0.526 0.58-0.836 0.15-0.315 0.25-0.633 0.3-0.953l-0.23-0.143c-0.12 0.301-0.25 0.553-0.39 0.758-0.14 0.2-0.28 0.364-0.44 0.488-0.16 0.12-0.34 0.204-0.53 0.256-0.18 0.048-0.39 0.069-0.61 0.065-0.32-0.005-0.63-0.075-0.93-0.213-0.29-0.143-0.55-0.35-0.77-0.617-0.22-0.268-0.4-0.594-0.53-0.981-0.13-0.386-0.2-0.822-0.2-1.308h4.63c0-0.416-0.07-0.7884-0.2-1.1177-0.12-0.3292-0.3-0.6088-0.53-0.8379-0.23-0.229-0.5-0.4022-0.82-0.5214-0.31-0.1241-0.65-0.1875-1.02-0.1875zm-94.985 0.0156l-2.07 0.7871 0.066 0.2578c0.204-0.0859 0.368-0.1248 0.494-0.1152 0.132 0.0095 0.251 0.0423 0.358 0.0996 0.039 0.0429 0.072 0.092 0.101 0.1445 0.03 0.0525 0.052 0.1355 0.067 0.25 0.019 0.1145 0.032 0.2753 0.037 0.4805 0.01 0.2006 0.014 0.4706 0.014 0.8146v2.541c0 0.277-0.017 0.496-0.051 0.658s-0.093 0.284-0.176 0.365c-0.078 0.081-0.185 0.135-0.326 0.158-0.136 0.02-0.309 0.03-0.518 0.03v0.271h3.467v-0.271c-0.238 0-0.434-0.028-0.59-0.08-0.15-0.053-0.27-0.132-0.357-0.237-0.088-0.105-0.148-0.235-0.182-0.392-0.034-0.158-0.051-0.34-0.051-0.545v-3.156c0.185-0.3487 0.362-0.6211 0.532-0.8168 0.175-0.2004 0.324-0.3008 0.445-0.3008 0.078 0 0.154 0.0276 0.227 0.0801 0.072 0.0525 0.146 0.1109 0.224 0.1777 0.078 0.0621 0.164 0.1194 0.256 0.1719 0.097 0.0525 0.207 0.0801 0.328 0.0801 0.092 0 0.176-0.0204 0.254-0.0586 0.083-0.0382 0.155-0.0853 0.213-0.1426 0.063-0.062 0.11-0.1337 0.144-0.2148s0.051-0.1641 0.051-0.25c0-0.1145-0.023-0.219-0.072-0.3145-0.049-0.1002-0.116-0.1851-0.203-0.2519-0.083-0.0716-0.182-0.1259-0.299-0.1641s-0.242-0.0566-0.373-0.0566c-0.598 0-1.173 0.4886-1.727 1.4668v-1.4668h-0.283zm6.237 0c-0.321 0-0.63 0.0369-0.926 0.1133-0.292 0.0715-0.551 0.1791-0.78 0.3222-0.223 0.1384-0.403 0.3105-0.539 0.5156-0.131 0.2005-0.197 0.4299-0.197 0.6876 0 0.2147 0.053 0.3832 0.16 0.5082 0.107 0.119 0.259 0.179 0.453 0.179 0.185 0 0.332-0.06 0.444-0.179 0.116-0.125 0.17-0.2894 0.16-0.4946l-0.014-0.4297c0.015-0.2242 0.109-0.4117 0.283-0.5644 0.175-0.1575 0.417-0.2363 0.723-0.2363 0.214 0 0.397 0.0317 0.553 0.0937 0.155 0.0573 0.285 0.1546 0.387 0.293 0.102 0.1336 0.178 0.3067 0.226 0.5215 0.054 0.2147 0.08 0.4799 0.08 0.7948v0.272c-0.792 0.267-1.43 0.518-1.916 0.752-0.486 0.233-0.863 0.463-1.131 0.687-0.267 0.22-0.446 0.439-0.539 0.658-0.087 0.22-0.131 0.452-0.131 0.696 0 0.252 0.04 0.483 0.118 0.693 0.077 0.205 0.187 0.381 0.328 0.529 0.141 0.143 0.307 0.254 0.502 0.33 0.194 0.081 0.41 0.121 0.648 0.121 0.175 0 0.328-0.014 0.459-0.043 0.136-0.023 0.276-0.074 0.422-0.15 0.151-0.076 0.322-0.184 0.512-0.322 0.194-0.143 0.437-0.327 0.728-0.551 0 0.21 0.02 0.385 0.059 0.523 0.044 0.134 0.098 0.242 0.166 0.323 0.073 0.081 0.156 0.138 0.248 0.172 0.097 0.033 0.2 0.048 0.307 0.048 0.514 0 1.046-0.355 1.595-1.066v-0.414c-0.136 0.133-0.245 0.238-0.328 0.314-0.082 0.077-0.15 0.134-0.203 0.172s-0.1 0.064-0.139 0.078c-0.039 0.01-0.081 0.014-0.125 0.014-0.092 0-0.162-0.026-0.211-0.078-0.048-0.053-0.085-0.143-0.109-0.272-0.005-0.066-0.012-0.198-0.021-0.394-0.01-0.196-0.014-0.447-0.014-0.752v-2.233c0-0.3431-0.029-0.6524-0.082-0.9292-0.049-0.2767-0.152-0.5103-0.313-0.7012-0.16-0.1956-0.389-0.3451-0.685-0.4453-0.292-0.105-0.678-0.1562-1.158-0.1562zm5.523 0l-2.039 0.7871 0.115 0.2578c0.365-0.1479 0.627-0.154 0.787-0.0156 0.039 0.0286 0.072 0.0645 0.096 0.1074 0.029 0.0429 0.05 0.1248 0.064 0.2441 0.02 0.1193 0.036 0.2914 0.045 0.5157 0.01 0.2244 0.014 0.5324 0.014 0.9234v2.44c0 0.248-0.014 0.452-0.043 0.609-0.024 0.158-0.074 0.281-0.146 0.371-0.073 0.091-0.176 0.154-0.307 0.188-0.131 0.028-0.301 0.043-0.51 0.043v0.271h3.317v-0.271c-0.243 0-0.439-0.015-0.584-0.043-0.141-0.034-0.251-0.094-0.329-0.18-0.077-0.086-0.128-0.208-0.152-0.365-0.019-0.158-0.029-0.365-0.029-0.623v-3.4572c0.291-0.3149 0.58-0.5485 0.867-0.7012 0.291-0.1527 0.578-0.2285 0.859-0.2285 0.2 0 0.37 0.0328 0.5 0.0996s0.23 0.1702 0.32 0.3086c0.08 0.1384 0.14 0.3176 0.17 0.5371 0.04 0.2146 0.05 0.4696 0.05 0.7656v2.676c0 0.253-0.01 0.458-0.03 0.615-0.02 0.158-0.06 0.282-0.14 0.373-0.08 0.086-0.18 0.146-0.33 0.18-0.14 0.028-0.33 0.043-0.58 0.043v0.271h3.34v-0.271c-0.22 0-0.4-0.018-0.54-0.051-0.13-0.038-0.24-0.1-0.31-0.186-0.07-0.09-0.12-0.215-0.15-0.373-0.02-0.157-0.03-0.358-0.03-0.601v-2.813c0-0.367-0.03-0.701-0.1-1.0016-0.06-0.3006-0.15-0.5587-0.29-0.7734-0.13-0.2148-0.31-0.3797-0.54-0.4942-0.22-0.1193-0.5-0.1777-0.82-0.1777-0.706 0-1.454 0.4558-2.246 1.3672v-1.3672h-0.299zm8.245 0c-0.35 0-0.66 0.0441-0.93 0.1347-0.27 0.0907-0.49 0.2156-0.68 0.3731-0.18 0.1575-0.32 0.3439-0.42 0.5586-0.09 0.2099-0.14 0.4363-0.14 0.6797 0 0.2008 0.03 0.3868 0.08 0.5588 0.06 0.172 0.15 0.338 0.28 0.5s0.32 0.323 0.55 0.48c0.23 0.158 0.52 0.327 0.88 0.508s0.65 0.346 0.87 0.494c0.22 0.143 0.4 0.281 0.52 0.414 0.12 0.129 0.2 0.264 0.24 0.403 0.04 0.133 0.06 0.281 0.06 0.443 0 0.129-0.03 0.252-0.08 0.371-0.06 0.115-0.13 0.218-0.23 0.309-0.1 0.086-0.21 0.154-0.35 0.207-0.15 0.052-0.31 0.08-0.49 0.08-0.23 0-0.46-0.043-0.68-0.129s-0.42-0.214-0.61-0.381c-0.18-0.172-0.33-0.381-0.47-0.629-0.13-0.253-0.23-0.547-0.29-0.881h-0.24v2.342h0.24c0.03-0.062 0.06-0.133 0.11-0.209 0.04-0.076 0.09-0.113 0.14-0.113 0.12 0.014 0.24 0.044 0.37 0.092 0.13 0.047 0.28 0.097 0.43 0.15 0.15 0.052 0.31 0.098 0.48 0.137 0.17 0.043 0.34 0.064 0.52 0.064 0.3 0 0.58-0.05 0.85-0.15s0.51-0.237 0.71-0.408c0.21-0.172 0.37-0.37 0.49-0.594 0.12-0.229 0.18-0.469 0.18-0.717 0-0.415-0.13-0.786-0.39-1.115-0.26-0.33-0.64-0.609-1.14-0.838l-1.08-0.502c-0.23-0.105-0.42-0.21-0.57-0.315-0.14-0.105-0.25-0.212-0.34-0.322-0.07-0.1143-0.13-0.2301-0.16-0.3494-0.02-0.1241-0.03-0.2521-0.03-0.3809 0.01-0.2529 0.11-0.4578 0.32-0.6152 0.21-0.1623 0.53-0.2422 0.98-0.2422 0.21 0 0.41 0.0297 0.59 0.0918 0.18 0.0572 0.35 0.1565 0.5 0.2949s0.28 0.3228 0.41 0.5566c0.12 0.2339 0.22 0.5278 0.31 0.8804h0.24v-2.2319h-0.24c-0.06 0.1145-0.11 0.1862-0.16 0.2148-0.05 0.0239-0.1 0.0352-0.17 0.0352-0.06 0-0.14-0.0113-0.24-0.0352-0.1-0.0286-0.22-0.0573-0.35-0.0859-0.13-0.0334-0.27-0.0621-0.42-0.086-0.15-0.0286-0.3-0.0429-0.45-0.0429zm6.17 0c-0.32 0-0.63 0.0369-0.93 0.1133-0.29 0.0715-0.55 0.1791-0.78 0.3222-0.22 0.1384-0.4 0.3105-0.54 0.5156-0.13 0.2005-0.19 0.4299-0.19 0.6876 0 0.2147 0.05 0.3832 0.16 0.5082 0.1 0.119 0.25 0.179 0.45 0.179 0.18 0 0.33-0.06 0.44-0.179 0.12-0.125 0.17-0.2894 0.16-0.4946l-0.01-0.4297c0.01-0.2242 0.11-0.4117 0.28-0.5644 0.18-0.1575 0.42-0.2363 0.72-0.2363 0.22 0 0.4 0.0317 0.56 0.0937 0.15 0.0573 0.28 0.1546 0.38 0.293 0.11 0.1336 0.18 0.3067 0.23 0.5215 0.05 0.2147 0.08 0.4799 0.08 0.7948v0.272c-0.79 0.267-1.43 0.518-1.92 0.752-0.48 0.233-0.86 0.463-1.12 0.687-0.27 0.22-0.45 0.439-0.54 0.658-0.09 0.22-0.14 0.452-0.14 0.696 0 0.252 0.04 0.483 0.12 0.693 0.08 0.205 0.19 0.381 0.33 0.529 0.14 0.143 0.31 0.254 0.5 0.33 0.2 0.081 0.41 0.121 0.65 0.121 0.17 0 0.33-0.014 0.46-0.043 0.14-0.023 0.28-0.074 0.42-0.15 0.15-0.076 0.32-0.184 0.51-0.322 0.2-0.143 0.44-0.327 0.73-0.551 0 0.21 0.02 0.385 0.06 0.523 0.04 0.134 0.1 0.242 0.17 0.323s0.15 0.138 0.25 0.172c0.09 0.033 0.19 0.048 0.3 0.048 0.51 0 1.05-0.355 1.6-1.066v-0.414c-0.14 0.133-0.25 0.238-0.33 0.314-0.08 0.077-0.15 0.134-0.21 0.172-0.05 0.038-0.1 0.064-0.13 0.078-0.04 0.01-0.08 0.014-0.13 0.014-0.09 0-0.16-0.026-0.21-0.078-0.05-0.053-0.08-0.143-0.11-0.272 0-0.066-0.01-0.198-0.02-0.394s-0.01-0.447-0.01-0.752v-2.233c0-0.3431-0.03-0.6524-0.08-0.9292-0.05-0.2767-0.16-0.5103-0.32-0.7012-0.16-0.1956-0.39-0.3451-0.68-0.4453-0.29-0.105-0.68-0.1562-1.16-0.1562zm7.09 0c-0.43 0-0.84 0.083-1.23 0.25-0.38 0.167-0.72 0.4036-1.01 0.709-0.29 0.3006-0.51 0.6643-0.68 1.0939-0.17 0.424-0.26 0.898-0.26 1.418 0 0.529 0.07 1.01 0.22 1.439 0.15 0.43 0.35 0.796 0.61 1.102 0.26 0.3 0.56 0.534 0.91 0.701 0.34 0.162 0.71 0.244 1.1 0.244 0.33 0 0.65-0.067 0.96-0.201 0.3-0.134 0.58-0.32 0.83-0.559 0.25-0.238 0.46-0.522 0.64-0.851 0.17-0.334 0.29-0.698 0.36-1.094l-0.2-0.107c-0.15 0.338-0.3 0.616-0.46 0.836-0.16 0.214-0.32 0.385-0.49 0.509s-0.35 0.208-0.54 0.256c-0.18 0.043-0.38 0.065-0.58 0.065-0.35 0-0.66-0.08-0.93-0.243-0.26-0.162-0.49-0.38-0.67-0.652-0.19-0.277-0.33-0.593-0.42-0.951-0.1-0.358-0.14-0.731-0.14-1.117 0-0.339 0.04-0.653 0.11-0.9436 0.08-0.2911 0.19-0.542 0.35-0.752 0.15-0.2147 0.33-0.3826 0.55-0.5019 0.22-0.1241 0.47-0.1856 0.74-0.1856 0.34 0 0.58 0.0819 0.74 0.2442 0.16 0.1574 0.25 0.3634 0.28 0.6211 0.01 0.1956 0.05 0.3522 0.11 0.4668 0.05 0.1097 0.12 0.193 0.2 0.25 0.08 0.052 0.17 0.085 0.25 0.1 0.09 0.014 0.17 0.021 0.24 0.021 0.23 0 0.4-0.058 0.51-0.178 0.12-0.119 0.18-0.2624 0.18-0.4294 0-0.1813-0.06-0.3605-0.17-0.5371-0.11-0.1765-0.27-0.3486-0.48-0.5156-0.42-0.3388-0.96-0.5078-1.63-0.5078zm9.62 0l-2.02 0.7871 0.09 0.2578c0.11-0.0382 0.21-0.0669 0.3-0.0859 0.08-0.0191 0.15-0.0293 0.22-0.0293 0.19 0 0.33 0.0819 0.39 0.2441 0.08 0.1622 0.11 0.3999 0.11 0.7149v3.5082c0 0.219-0.01 0.399-0.04 0.543-0.03 0.138-0.08 0.248-0.15 0.33-0.08 0.076-0.18 0.129-0.32 0.158-0.13 0.028-0.3 0.043-0.51 0.043v0.271h3.27v-0.271c-0.21 0-0.38-0.015-0.52-0.043-0.13-0.029-0.24-0.082-0.31-0.158-0.08-0.082-0.13-0.192-0.16-0.33-0.03-0.144-0.04-0.324-0.04-0.543v-5.3969h-0.31zm5.41 0c-0.5 0-0.95 0.1014-1.35 0.3066-0.4 0.2004-0.74 0.4657-1.02 0.7949-0.27 0.3293-0.49 0.7062-0.64 1.1304-0.15 0.42-0.22 0.852-0.22 1.295 0 0.454 0.08 0.888 0.23 1.303s0.37 0.781 0.65 1.096 0.61 0.566 0.99 0.752c0.39 0.186 0.82 0.279 1.29 0.279 0.36 0 0.7-0.05 1-0.15 0.31-0.1 0.58-0.237 0.83-0.408 0.24-0.177 0.45-0.382 0.64-0.616 0.18-0.234 0.34-0.484 0.46-0.752 0.12-0.267 0.21-0.543 0.27-0.83 0.06-0.291 0.09-0.578 0.09-0.859 0-0.468-0.08-0.903-0.23-1.309-0.16-0.4101-0.38-0.7675-0.67-1.0681-0.28-0.3006-0.61-0.5352-1.01-0.707-0.39-0.1718-0.83-0.2578-1.31-0.2578zm5.84 0l-2.04 0.7871 0.12 0.2578c0.36-0.1479 0.63-0.154 0.79-0.0156 0.04 0.0286 0.07 0.0645 0.09 0.1074 0.03 0.0429 0.05 0.1248 0.07 0.2441s0.03 0.2914 0.04 0.5157c0.01 0.2244 0.02 0.5324 0.02 0.9234v2.44c0 0.248-0.02 0.452-0.05 0.609-0.02 0.158-0.07 0.281-0.14 0.371-0.08 0.091-0.18 0.154-0.31 0.188-0.13 0.028-0.3 0.043-0.51 0.043v0.271h3.32v-0.271c-0.25 0-0.44-0.015-0.59-0.043-0.14-0.034-0.25-0.094-0.32-0.18-0.08-0.086-0.13-0.208-0.16-0.365-0.02-0.158-0.03-0.365-0.03-0.623v-3.4572c0.29-0.3149 0.58-0.5485 0.87-0.7012s0.58-0.2285 0.86-0.2285c0.2 0 0.36 0.0328 0.5 0.0996 0.13 0.0668 0.23 0.1702 0.32 0.3086 0.08 0.1384 0.14 0.3176 0.17 0.5371 0.04 0.2146 0.05 0.4696 0.05 0.7656v2.676c0 0.253-0.01 0.458-0.03 0.615-0.02 0.158-0.07 0.282-0.14 0.373-0.08 0.086-0.18 0.146-0.33 0.18-0.14 0.028-0.34 0.043-0.58 0.043v0.271h3.34v-0.271c-0.22 0-0.4-0.018-0.54-0.051-0.13-0.038-0.24-0.1-0.31-0.186-0.07-0.09-0.12-0.215-0.15-0.373-0.02-0.157-0.03-0.358-0.03-0.601v-2.813c0-0.367-0.04-0.701-0.1-1.0016s-0.15-0.5587-0.29-0.7734c-0.14-0.2148-0.32-0.3797-0.54-0.4942-0.22-0.1193-0.5-0.1777-0.82-0.1777-0.71 0-1.46 0.4558-2.25 1.3672v-1.3672h-0.3zm20.1 0l-2.07 0.7871 0.07 0.2578c0.2-0.0859 0.37-0.1248 0.49-0.1152 0.13 0.0095 0.25 0.0423 0.36 0.0996 0.04 0.0429 0.07 0.092 0.1 0.1445s0.05 0.1355 0.07 0.25 0.03 0.2753 0.03 0.4805c0.01 0.2006 0.02 0.4706 0.02 0.8146v2.541c0 0.277-0.02 0.496-0.05 0.658-0.04 0.162-0.09 0.284-0.18 0.365-0.07 0.081-0.18 0.135-0.32 0.158-0.14 0.02-0.31 0.03-0.52 0.03v0.271h3.47v-0.271c-0.24 0-0.44-0.028-0.59-0.08-0.15-0.053-0.27-0.132-0.36-0.237s-0.15-0.235-0.18-0.392c-0.04-0.158-0.06-0.34-0.06-0.545v-3.156c0.19-0.3487 0.37-0.6211 0.54-0.8168 0.17-0.2004 0.32-0.3008 0.44-0.3008 0.08 0 0.16 0.0276 0.23 0.0801s0.15 0.1109 0.22 0.1777c0.08 0.0621 0.17 0.1194 0.26 0.1719 0.1 0.0525 0.21 0.0801 0.33 0.0801 0.09 0 0.17-0.0204 0.25-0.0586s0.15-0.0853 0.21-0.1426c0.07-0.062 0.11-0.1337 0.15-0.2148 0.03-0.0811 0.05-0.1641 0.05-0.25 0-0.1145-0.03-0.219-0.07-0.3145-0.05-0.1002-0.12-0.1851-0.21-0.2519-0.08-0.0716-0.18-0.1259-0.3-0.1641-0.11-0.0382-0.24-0.0566-0.37-0.0566-0.59 0-1.17 0.4886-1.73 1.4668v-1.4668h-0.28zm6.73 0c-0.5 0-0.95 0.1014-1.34 0.3066-0.4 0.2004-0.74 0.4657-1.02 0.7949-0.28 0.3293-0.5 0.7062-0.65 1.1304-0.14 0.42-0.21 0.852-0.21 1.295 0 0.454 0.07 0.888 0.22 1.303 0.16 0.415 0.37 0.781 0.65 1.096s0.61 0.566 1 0.752 0.82 0.279 1.28 0.279c0.37 0 0.7-0.05 1.01-0.15 0.3-0.1 0.58-0.237 0.82-0.408 0.24-0.177 0.46-0.382 0.64-0.616 0.19-0.234 0.34-0.484 0.46-0.752 0.12-0.267 0.21-0.543 0.27-0.83 0.06-0.291 0.09-0.578 0.09-0.859 0-0.468-0.07-0.903-0.23-1.309-0.15-0.4101-0.38-0.7675-0.66-1.0681s-0.62-0.5352-1.01-0.707c-0.4-0.1718-0.84-0.2578-1.32-0.2578zm7.42 0c-0.43 0-0.84 0.083-1.23 0.25-0.38 0.167-0.72 0.4036-1.01 0.709-0.29 0.3006-0.52 0.6643-0.69 1.0939-0.17 0.424-0.25 0.898-0.25 1.418 0 0.529 0.07 1.01 0.22 1.439 0.15 0.43 0.35 0.796 0.61 1.102 0.26 0.3 0.56 0.534 0.9 0.701 0.35 0.162 0.72 0.244 1.11 0.244 0.33 0 0.65-0.067 0.95-0.201 0.31-0.134 0.59-0.32 0.84-0.559 0.25-0.238 0.46-0.522 0.64-0.851 0.17-0.334 0.29-0.698 0.35-1.094l-0.19-0.107c-0.15 0.338-0.3 0.616-0.46 0.836-0.16 0.214-0.32 0.385-0.49 0.509s-0.35 0.208-0.54 0.256c-0.18 0.043-0.38 0.065-0.58 0.065-0.35 0-0.66-0.08-0.93-0.243-0.27-0.162-0.49-0.38-0.68-0.652-0.18-0.277-0.32-0.593-0.42-0.951-0.09-0.358-0.14-0.731-0.14-1.117 0-0.339 0.04-0.653 0.12-0.9436 0.08-0.2911 0.19-0.542 0.34-0.752 0.15-0.2147 0.34-0.3826 0.56-0.5019 0.21-0.1241 0.46-0.1856 0.74-0.1856 0.33 0 0.58 0.0819 0.73 0.2442 0.16 0.1574 0.26 0.3634 0.28 0.6211 0.02 0.1956 0.05 0.3522 0.11 0.4668 0.06 0.1097 0.13 0.193 0.21 0.25 0.08 0.052 0.16 0.085 0.25 0.1 0.09 0.014 0.17 0.021 0.24 0.021 0.23 0 0.4-0.058 0.51-0.178 0.12-0.119 0.18-0.2624 0.18-0.4294 0-0.1813-0.06-0.3605-0.17-0.5371-0.11-0.1765-0.27-0.3486-0.48-0.5156-0.42-0.3388-0.96-0.5078-1.63-0.5078zm12.51 0c-0.35 0-0.66 0.0441-0.94 0.1347-0.26 0.0907-0.49 0.2156-0.67 0.3731-0.19 0.1575-0.33 0.3439-0.43 0.5586-0.09 0.2099-0.14 0.4363-0.14 0.6797 0 0.2008 0.03 0.3868 0.08 0.5588 0.06 0.172 0.15 0.338 0.28 0.5 0.14 0.162 0.32 0.323 0.55 0.48 0.23 0.158 0.52 0.327 0.88 0.508s0.66 0.346 0.87 0.494c0.23 0.143 0.4 0.281 0.52 0.414 0.12 0.129 0.2 0.264 0.24 0.403 0.05 0.133 0.07 0.281 0.06 0.443 0 0.129-0.03 0.252-0.08 0.371-0.05 0.115-0.13 0.218-0.23 0.309-0.09 0.086-0.21 0.154-0.35 0.207-0.14 0.052-0.3 0.08-0.48 0.08-0.24 0-0.47-0.043-0.69-0.129s-0.42-0.214-0.6-0.381c-0.18-0.172-0.34-0.381-0.48-0.629-0.13-0.253-0.23-0.547-0.29-0.881h-0.24v2.342h0.24c0.03-0.062 0.07-0.133 0.11-0.209s0.09-0.113 0.15-0.113c0.11 0.014 0.23 0.044 0.36 0.092 0.14 0.047 0.28 0.097 0.43 0.15 0.16 0.052 0.32 0.098 0.48 0.137 0.17 0.043 0.35 0.064 0.53 0.064 0.29 0 0.57-0.05 0.84-0.15s0.51-0.237 0.72-0.408c0.2-0.172 0.36-0.37 0.48-0.594 0.12-0.229 0.19-0.469 0.19-0.717 0-0.415-0.14-0.786-0.4-1.115-0.26-0.33-0.64-0.609-1.14-0.838l-1.08-0.502c-0.23-0.105-0.42-0.21-0.57-0.315-0.14-0.105-0.25-0.212-0.33-0.322-0.08-0.1143-0.13-0.2301-0.16-0.3494-0.03-0.1241-0.04-0.2521-0.03-0.3809 0-0.2529 0.11-0.4578 0.31-0.6152 0.21-0.1623 0.54-0.2422 0.98-0.2422 0.21 0 0.41 0.0297 0.59 0.0918 0.18 0.0572 0.35 0.1565 0.5 0.2949s0.29 0.3228 0.41 0.5566c0.12 0.2339 0.22 0.5278 0.31 0.8804h0.24v-2.2319h-0.24c-0.06 0.1145-0.11 0.1862-0.16 0.2148-0.04 0.0239-0.1 0.0352-0.17 0.0352-0.06 0-0.14-0.0113-0.24-0.0352-0.1-0.0286-0.22-0.0573-0.35-0.0859-0.13-0.0334-0.27-0.0621-0.42-0.086-0.14-0.0286-0.29-0.0429-0.44-0.0429zm5.83 0c-0.35 0-0.67 0.0441-0.94 0.1347-0.26 0.0907-0.49 0.2156-0.68 0.3731-0.18 0.1575-0.32 0.3439-0.42 0.5586-0.09 0.2099-0.14 0.4363-0.14 0.6797 0 0.2008 0.03 0.3868 0.08 0.5588 0.06 0.172 0.15 0.338 0.28 0.5 0.14 0.162 0.32 0.323 0.55 0.48 0.23 0.158 0.52 0.327 0.88 0.508s0.66 0.346 0.87 0.494c0.23 0.143 0.4 0.281 0.52 0.414 0.12 0.129 0.2 0.264 0.24 0.403 0.05 0.133 0.06 0.281 0.06 0.443 0 0.129-0.03 0.252-0.08 0.371-0.05 0.115-0.13 0.218-0.23 0.309-0.09 0.086-0.21 0.154-0.35 0.207-0.14 0.052-0.3 0.08-0.48 0.08-0.24 0-0.47-0.043-0.69-0.129s-0.42-0.214-0.6-0.381c-0.18-0.172-0.34-0.381-0.48-0.629-0.13-0.253-0.23-0.547-0.29-0.881h-0.24v2.342h0.24c0.03-0.062 0.07-0.133 0.11-0.209s0.09-0.113 0.15-0.113c0.11 0.014 0.23 0.044 0.36 0.092 0.14 0.047 0.28 0.097 0.43 0.15 0.16 0.052 0.32 0.098 0.48 0.137 0.17 0.043 0.35 0.064 0.53 0.064 0.29 0 0.57-0.05 0.84-0.15s0.51-0.237 0.71-0.408c0.21-0.172 0.37-0.37 0.49-0.594 0.12-0.229 0.18-0.469 0.18-0.717 0-0.415-0.13-0.786-0.39-1.115-0.26-0.33-0.64-0.609-1.14-0.838l-1.08-0.502c-0.23-0.105-0.42-0.21-0.57-0.315-0.14-0.105-0.25-0.212-0.33-0.322-0.08-0.1143-0.14-0.2301-0.17-0.3494-0.02-0.1241-0.03-0.2521-0.02-0.3809 0-0.2529 0.11-0.4578 0.31-0.6152 0.21-0.1623 0.54-0.2422 0.98-0.2422 0.21 0 0.41 0.0297 0.59 0.0918 0.18 0.0572 0.35 0.1565 0.5 0.2949s0.29 0.3228 0.41 0.5566c0.12 0.2339 0.22 0.5278 0.31 0.8804h0.24v-2.2319h-0.24c-0.06 0.1145-0.11 0.1862-0.16 0.2148-0.04 0.0239-0.1 0.0352-0.17 0.0352-0.06 0-0.14-0.0113-0.24-0.0352-0.1-0.0286-0.22-0.0573-0.35-0.0859-0.13-0.0334-0.27-0.0621-0.42-0.086-0.15-0.0286-0.29-0.0429-0.44-0.0429zm5.41 0l-2.02 0.7871 0.1 0.2578c0.11-0.0382 0.2-0.0669 0.29-0.0859 0.08-0.0191 0.16-0.0293 0.22-0.0293 0.2 0 0.33 0.0819 0.4 0.2441s0.11 0.3999 0.11 0.7149v3.5082c0 0.219-0.02 0.399-0.05 0.543-0.02 0.138-0.07 0.248-0.15 0.33-0.07 0.076-0.18 0.129-0.31 0.158-0.14 0.028-0.3 0.043-0.51 0.043v0.271h3.26v-0.271c-0.21 0-0.38-0.015-0.52-0.043-0.13-0.029-0.23-0.082-0.31-0.158-0.07-0.082-0.13-0.192-0.15-0.33-0.03-0.144-0.05-0.324-0.05-0.543v-5.3969h-0.31zm3.79 0l-2.03 0.7871 0.11 0.2578c0.37-0.1479 0.63-0.154 0.79-0.0156 0.04 0.0286 0.07 0.0645 0.09 0.1074 0.03 0.0429 0.06 0.1248 0.07 0.2441 0.02 0.1193 0.03 0.2914 0.04 0.5157 0.01 0.2244 0.02 0.5324 0.02 0.9234v2.44c0 0.248-0.02 0.452-0.05 0.609-0.02 0.158-0.07 0.281-0.14 0.371-0.08 0.091-0.18 0.154-0.31 0.188-0.13 0.028-0.3 0.043-0.51 0.043v0.271h3.32v-0.271c-0.25 0-0.44-0.015-0.58-0.043-0.15-0.034-0.25-0.094-0.33-0.18s-0.13-0.208-0.16-0.365c-0.02-0.158-0.03-0.365-0.03-0.623v-3.4572c0.3-0.3149 0.58-0.5485 0.87-0.7012s0.58-0.2285 0.86-0.2285c0.2 0 0.37 0.0328 0.5 0.0996s0.23 0.1702 0.32 0.3086c0.08 0.1384 0.14 0.3176 0.17 0.5371 0.04 0.2146 0.05 0.4696 0.05 0.7656v2.676c0 0.253-0.01 0.458-0.03 0.615-0.02 0.158-0.06 0.282-0.14 0.373-0.07 0.086-0.18 0.146-0.33 0.18-0.14 0.028-0.33 0.043-0.58 0.043v0.271h3.34v-0.271c-0.22 0-0.4-0.018-0.54-0.051-0.13-0.038-0.24-0.1-0.31-0.186-0.07-0.09-0.12-0.215-0.15-0.373-0.02-0.157-0.03-0.358-0.03-0.601v-2.813c0-0.367-0.03-0.701-0.1-1.0016-0.06-0.3006-0.15-0.5587-0.29-0.7734-0.13-0.2148-0.31-0.3797-0.54-0.4942-0.22-0.1193-0.5-0.1777-0.82-0.1777-0.71 0-1.45 0.4558-2.25 1.3672v-1.3672h-0.3zm9 0c-0.42 0-0.79 0.0656-1.12 0.1992-0.33 0.1288-0.61 0.3039-0.84 0.5234-0.22 0.2148-0.39 0.4657-0.51 0.752-0.13 0.2815-0.19 0.5733-0.19 0.8793 0 0.2 0.03 0.401 0.08 0.601 0.05 0.196 0.13 0.382 0.24 0.559 0.11 0.172 0.24 0.332 0.39 0.48 0.16 0.143 0.35 0.259 0.56 0.35-0.25 0.21-0.45 0.393-0.61 0.551-0.15 0.157-0.27 0.296-0.35 0.416-0.08 0.119-0.14 0.226-0.17 0.322-0.02 0.091-0.03 0.178-0.03 0.264 0 0.167 0.06 0.306 0.17 0.416 0.12 0.109 0.29 0.234 0.51 0.373-0.26 0.257-0.48 0.481-0.65 0.672-0.17 0.19-0.31 0.358-0.41 0.501-0.1 0.144-0.17 0.27-0.21 0.379-0.04 0.11-0.06 0.212-0.06 0.307 0 0.167 0.08 0.332 0.25 0.494 0.17 0.167 0.39 0.315 0.66 0.443 0.27 0.129 0.58 0.236 0.93 0.317 0.36 0.081 0.72 0.121 1.09 0.121 0.53 0 1.03-0.072 1.48-0.215s0.85-0.337 1.19-0.58c0.33-0.239 0.59-0.512 0.78-0.822 0.19-0.306 0.29-0.624 0.29-0.953 0-0.253-0.05-0.466-0.14-0.643-0.09-0.176-0.21-0.32-0.35-0.43-0.15-0.114-0.31-0.203-0.48-0.265-0.18-0.067-0.35-0.114-0.53-0.143-0.17-0.033-0.34-0.054-0.49-0.058-0.14-0.01-0.26-0.014-0.35-0.014-0.36-0.01-0.67-0.02-0.93-0.029-0.26-0.01-0.48-0.017-0.66-0.022-0.18-0.009-0.33-0.018-0.45-0.027-0.11-0.014-0.21-0.029-0.28-0.043-0.07-0.019-0.13-0.038-0.17-0.057s-0.08-0.043-0.11-0.072c-0.07-0.067-0.11-0.146-0.11-0.236 0-0.096 0.02-0.192 0.07-0.287 0.05-0.101 0.11-0.198 0.2-0.293 0.09-0.096 0.18-0.179 0.28-0.25 0.17 0.052 0.34 0.089 0.51 0.113s0.34 0.037 0.51 0.037c0.42 0 0.79-0.06 1.11-0.18 0.33-0.119 0.61-0.278 0.83-0.478 0.23-0.205 0.4-0.442 0.52-0.709 0.11-0.267 0.17-0.551 0.16-0.852 0-0.272-0.03-0.5156-0.1-0.7303-0.07-0.2195-0.16-0.413-0.29-0.5801h0.85c0.07 0.0048 0.12 0.0048 0.18 0 0.05-0.0047 0.09-0.0089 0.13-0.0136 0.04-0.0096 0.08-0.0239 0.1-0.043 0.03-0.0334 0.04-0.0825 0.05-0.1445 0.01-0.0668 0.02-0.1109 0.02-0.1348 0-0.1766-0.03-0.2728-0.1-0.2871s-0.13-0.0215-0.2-0.0215c-0.05 0-0.12 0.003-0.19 0.0078-0.08 0.0048-0.16 0.012-0.26 0.0215-0.1 0.0048-0.22 0.0078-0.38 0.0078-0.22 0-0.43-0.0276-0.6-0.0801-0.18-0.0524-0.35-0.1068-0.53-0.164-0.17-0.0621-0.35-0.1194-0.56-0.1719-0.2-0.0525-0.45-0.0781-0.73-0.0781zm-0.13 0.3359c0.23 0 0.43 0.0543 0.61 0.1641 0.18 0.1097 0.33 0.2644 0.46 0.4648 0.12 0.1957 0.22 0.4322 0.28 0.709 0.07 0.2771 0.1 0.5851 0.1 0.9241 0 0.296-0.03 0.548-0.09 0.758s-0.15 0.385-0.27 0.523c-0.11 0.134-0.25 0.234-0.4 0.301-0.15 0.062-0.32 0.094-0.49 0.094-0.23 0-0.44-0.057-0.62-0.166-0.18-0.11-0.33-0.262-0.46-0.458-0.12-0.2-0.21-0.437-0.28-0.709s-0.1-0.57-0.1-0.894c0-0.3007 0.03-0.5588 0.1-0.7735s0.16-0.3909 0.27-0.5293c0.11-0.1431 0.25-0.2465 0.4-0.3086 0.15-0.0668 0.32-0.0996 0.49-0.0996zm-76.72 0.1152c0.32 0 0.61 0.0872 0.86 0.2637 0.26 0.1766 0.48 0.4203 0.66 0.7305 0.18 0.3054 0.32 0.6676 0.41 1.0876 0.1 0.42 0.15 0.873 0.15 1.36 0 0.467-0.04 0.865-0.13 1.189-0.07 0.325-0.18 0.587-0.32 0.787-0.14 0.201-0.31 0.345-0.51 0.436-0.2 0.086-0.42 0.129-0.67 0.129-0.32 0-0.61-0.094-0.87-0.28-0.26-0.19-0.48-0.446-0.66-0.765-0.19-0.32-0.33-0.691-0.43-1.115-0.1-0.425-0.15-0.873-0.15-1.34 0-0.478 0.05-0.873 0.15-1.1878 0.1-0.3197 0.23-0.5748 0.39-0.7657 0.16-0.1908 0.34-0.327 0.53-0.4082 0.2-0.0811 0.4-0.1211 0.59-0.1211zm32.67 0c0.32 0 0.61 0.0872 0.86 0.2637 0.26 0.1766 0.48 0.4203 0.66 0.7305 0.18 0.3054 0.32 0.6676 0.42 1.0876 0.09 0.42 0.14 0.873 0.14 1.36 0 0.467-0.04 0.865-0.12 1.189-0.08 0.325-0.19 0.587-0.33 0.787-0.14 0.201-0.31 0.345-0.51 0.436-0.2 0.086-0.42 0.129-0.66 0.129-0.32 0-0.61-0.094-0.88-0.28-0.25-0.19-0.48-0.446-0.66-0.765-0.19-0.32-0.33-0.691-0.43-1.115-0.1-0.425-0.14-0.873-0.14-1.34 0-0.478 0.04-0.873 0.14-1.1878 0.1-0.3197 0.23-0.5748 0.39-0.7657 0.16-0.1908 0.34-0.327 0.54-0.4082 0.19-0.0811 0.39-0.1211 0.58-0.1211zm13.84 0.043c0.12 0 0.26 0.0226 0.43 0.0703 0.16 0.0477 0.32 0.1368 0.47 0.2657 0.15 0.1288 0.28 0.308 0.39 0.5371 0.1 0.2242 0.16 0.5162 0.16 0.8787h-3.11c0.03-0.281 0.1-0.5303 0.2-0.7498s0.23-0.4048 0.38-0.5528c0.15-0.1479 0.31-0.2596 0.5-0.3359s0.38-0.1133 0.58-0.1133zm-87.335 2.3258v2.512c-0.306 0.243-0.581 0.427-0.824 0.551-0.238 0.124-0.451 0.181-0.641 0.172-0.14-0.005-0.274-0.038-0.4-0.1-0.121-0.062-0.23-0.147-0.322-0.252-0.088-0.11-0.158-0.236-0.211-0.379-0.054-0.143-0.08-0.301-0.08-0.472 0-0.158 0.022-0.309 0.066-0.457 0.049-0.153 0.158-0.311 0.328-0.473s0.417-0.331 0.742-0.508c0.331-0.181 0.779-0.379 1.342-0.594zm19.935 0v2.512c-0.31 0.243-0.58 0.427-0.82 0.551s-0.45 0.181-0.64 0.172c-0.14-0.005-0.28-0.038-0.4-0.1-0.13-0.062-0.23-0.147-0.32-0.252-0.09-0.11-0.16-0.236-0.22-0.379-0.05-0.143-0.08-0.301-0.08-0.472 0-0.158 0.02-0.309 0.07-0.457 0.05-0.153 0.16-0.311 0.33-0.473s0.42-0.331 0.74-0.508c0.33-0.181 0.78-0.379 1.34-0.594zm96.27 3.922c0.3 0.043 0.66 0.075 1.08 0.094s0.91 0.039 1.46 0.063c0.38 0.019 0.69 0.046 0.93 0.08 0.24 0.033 0.43 0.076 0.57 0.129 0.14 0.057 0.24 0.125 0.28 0.207 0.06 0.085 0.08 0.186 0.08 0.3 0 0.172-0.05 0.341-0.16 0.508-0.1 0.172-0.26 0.325-0.47 0.459-0.21 0.138-0.47 0.247-0.8 0.328-0.32 0.086-0.69 0.129-1.13 0.129-0.38 0-0.72-0.025-1.03-0.078-0.31-0.052-0.57-0.127-0.79-0.223-0.23-0.09-0.4-0.199-0.52-0.328-0.12-0.124-0.18-0.263-0.18-0.416 0-0.219 0.06-0.424 0.18-0.615 0.13-0.186 0.29-0.398 0.5-0.637zm-109.84 3.764c-0.078 0-0.203 0.01-0.373 0.029-0.166 0.019-0.352 0.063-0.561 0.135s-0.425 0.176-0.648 0.314c-0.219 0.139-0.421 0.328-0.606 0.567-0.18 0.234-0.327 0.525-0.443 0.873-0.117 0.348-0.176 0.771-0.176 1.267v0.444h-1.303v0.515h1.303v4.301c0 0.21-0.004 0.385-0.014 0.524-0.009 0.133-0.026 0.245-0.051 0.336-0.019 0.09-0.049 0.165-0.087 0.222-0.039 0.058-0.089 0.112-0.147 0.164-0.112 0.096-0.219 0.157-0.326 0.186-0.107 0.024-0.219 0.035-0.336 0.035h-0.299v0.273h4.016v-0.273h-0.598c-0.32 0-0.562-0.101-0.723-0.307-0.082-0.076-0.136-0.212-0.166-0.408-0.029-0.195-0.044-0.446-0.044-0.752v-4.301h1.725v-0.515h-1.725v-0.473c0-0.463 0.006-0.858 0.021-1.187 0.019-0.33 0.063-0.599 0.131-0.809 0.068-0.215 0.168-0.372 0.299-0.473 0.136-0.1 0.321-0.15 0.554-0.15 0.17 0 0.316 0.033 0.438 0.1 0.121 0.062 0.232 0.141 0.322 0.236s0.17 0.2 0.25 0.314c0.07 0.11 0.15 0.214 0.23 0.309s0.17 0.175 0.25 0.242c0.1 0.062 0.21 0.091 0.33 0.086 0.09 0 0.16-0.018 0.24-0.056 0.07-0.039 0.13-0.086 0.18-0.143 0.06-0.062 0.1-0.127 0.13-0.193 0.03-0.072 0.04-0.14 0.04-0.202 0-0.167-0.05-0.324-0.17-0.472-0.11-0.148-0.25-0.277-0.43-0.387-0.18-0.114-0.37-0.205-0.59-0.271-0.22-0.067-0.43-0.1-0.643-0.1zm101.86 0l-2.01 0.787 0.13 0.258c0.11-0.038 0.2-0.064 0.27-0.078 0.08-0.019 0.15-0.03 0.21-0.03s0.11 0.011 0.16 0.03c0.05 0.014 0.09 0.036 0.14 0.064 0.04 0.034 0.07 0.071 0.09 0.113 0.02 0.043 0.04 0.122 0.06 0.237 0.02 0.114 0.03 0.279 0.04 0.494s0.01 0.509 0.01 0.881v5.947c0 0.153 0 0.285-0.01 0.395-0.01 0.105-0.03 0.195-0.05 0.271s-0.04 0.141-0.06 0.193c-0.03 0.048-0.05 0.091-0.08 0.129-0.08 0.101-0.17 0.162-0.28 0.186s-0.27 0.035-0.5 0.035v0.273h3.28v-0.273c-0.14 0-0.27-0.004-0.37-0.014-0.1-0.009-0.18-0.024-0.25-0.043-0.06-0.023-0.11-0.049-0.16-0.078-0.04-0.033-0.08-0.072-0.11-0.115-0.04-0.043-0.07-0.087-0.09-0.135-0.02-0.052-0.04-0.116-0.06-0.187-0.01-0.077-0.03-0.164-0.04-0.264v-0.373-8.703h-0.32zm-40.03 0.25c-0.76 0-1.45 0.14-2.07 0.422-0.62 0.277-1.15 0.653-1.59 1.131-0.44 0.477-0.78 1.033-1.03 1.668-0.23 0.63-0.35 1.297-0.35 2.004 0 0.439 0.05 0.869 0.14 1.289 0.1 0.415 0.24 0.806 0.43 1.173 0.19 0.363 0.43 0.697 0.7 1.002 0.27 0.306 0.59 0.568 0.94 0.787 0.36 0.215 0.76 0.383 1.19 0.502 0.43 0.125 0.9 0.186 1.41 0.186 0.46 0 0.89-0.053 1.29-0.158 0.39-0.1 0.76-0.252 1.09-0.457 0.34-0.21 0.64-0.471 0.93-0.781 0.28-0.315 0.54-0.685 0.78-1.11l-0.21-0.15c-0.29 0.405-0.57 0.739-0.83 1.002-0.26 0.257-0.52 0.464-0.78 0.617-0.26 0.148-0.53 0.252-0.81 0.314-0.27 0.058-0.58 0.086-0.9 0.086-0.56 0-1.07-0.093-1.52-0.279-0.46-0.186-0.85-0.462-1.17-0.824-0.33-0.363-0.58-0.81-0.76-1.344-0.17-0.534-0.26-1.148-0.26-1.84 0-0.811 0.09-1.514 0.26-2.105 0.18-0.592 0.42-1.084 0.72-1.475 0.31-0.391 0.68-0.679 1.11-0.865 0.43-0.191 0.9-0.287 1.41-0.287 0.38 0 0.74 0.053 1.08 0.158 0.33 0.105 0.64 0.27 0.91 0.494 0.29 0.224 0.54 0.512 0.75 0.865 0.22 0.353 0.41 0.779 0.56 1.276h0.23l-0.23-3.301h-0.26c-0.06 0.229-0.14 0.401-0.25 0.516-0.11 0.109-0.23 0.164-0.36 0.164-0.07 0-0.18-0.036-0.31-0.108-0.14-0.071-0.31-0.147-0.52-0.228-0.2-0.086-0.45-0.165-0.74-0.237-0.28-0.071-0.61-0.107-0.98-0.107zm-86.31 0.228v0.258h0.357c0.195 0 0.36 0.028 0.497 0.08 0.136 0.053 0.252 0.129 0.349 0.229 0.126 0.167 0.19 0.548 0.19 1.144v6.272c0 0.286-0.016 0.517-0.045 0.693-0.029 0.172-0.063 0.297-0.102 0.373-0.087 0.134-0.207 0.231-0.357 0.293-0.151 0.062-0.328 0.092-0.532 0.092h-0.357v0.273h4.219v-0.273h-0.371c-0.374 0-0.654-0.106-0.838-0.32-0.083-0.067-0.139-0.196-0.168-0.387s-0.043-0.439-0.043-0.744v-2.692c0.189 0.02 0.342 0.035 0.459 0.049 0.121 0.01 0.225 0.017 0.312 0.022h0.241 0.248c0.651 0.005 1.196-0.061 1.638-0.199 0.442-0.144 0.798-0.337 1.065-0.581 0.272-0.243 0.467-0.527 0.584-0.851 0.116-0.329 0.174-0.681 0.174-1.053 0-0.253-0.03-0.479-0.088-0.68-0.059-0.205-0.139-0.391-0.241-0.558s-0.222-0.318-0.363-0.451c-0.136-0.139-0.285-0.265-0.445-0.379-0.17-0.129-0.364-0.232-0.582-0.309-0.219-0.081-0.451-0.142-0.694-0.185-0.238-0.048-0.484-0.08-0.742-0.094-0.257-0.014-0.513-0.022-0.765-0.022h-3.6zm121.93 0.202c-0.1 0-0.2 0.018-0.29 0.056-0.09 0.034-0.17 0.083-0.24 0.145-0.06 0.062-0.12 0.138-0.16 0.228-0.03 0.086-0.05 0.18-0.05 0.285 0 0.215 0.07 0.393 0.21 0.532 0.14 0.138 0.31 0.207 0.53 0.207 0.21 0 0.39-0.072 0.52-0.215 0.14-0.143 0.21-0.318 0.21-0.524 0-0.1-0.02-0.191-0.05-0.277-0.04-0.086-0.1-0.16-0.16-0.223-0.07-0.066-0.14-0.12-0.24-0.158-0.08-0.038-0.18-0.056-0.28-0.056zm-118.18 0.365c0.35 0 0.656 0.061 0.918 0.185 0.267 0.124 0.489 0.292 0.664 0.502 0.175 0.206 0.305 0.446 0.393 0.723 0.087 0.272 0.129 0.556 0.125 0.852-0.005 0.315-0.059 0.598-0.161 0.851-0.097 0.253-0.23 0.471-0.4 0.652-0.165 0.182-0.363 0.322-0.592 0.422-0.223 0.096-0.46 0.143-0.713 0.143-0.141 0-0.31-0.004-0.509-0.014-0.2-0.009-0.426-0.034-0.678-0.072v-4.107c0.199-0.039 0.379-0.07 0.539-0.094 0.16-0.029 0.297-0.043 0.414-0.043zm7.936 2.383c-0.452 0-0.868 0.082-1.247 0.244s-0.705 0.396-0.982 0.701c-0.272 0.305-0.487 0.678-0.643 1.117-0.15 0.439-0.224 0.935-0.224 1.488 0 0.521 0.077 0.994 0.232 1.418 0.156 0.42 0.365 0.78 0.627 1.08 0.267 0.296 0.577 0.526 0.932 0.688 0.354 0.157 0.729 0.236 1.123 0.236 0.384 0 0.733-0.077 1.049-0.23 0.315-0.153 0.591-0.351 0.824-0.594 0.233-0.248 0.424-0.528 0.574-0.838 0.151-0.315 0.25-0.631 0.299-0.951l-0.232-0.143c-0.117 0.301-0.246 0.553-0.387 0.758-0.136 0.201-0.283 0.363-0.444 0.487-0.16 0.119-0.335 0.205-0.525 0.257-0.185 0.048-0.387 0.07-0.605 0.065-0.326-0.005-0.636-0.077-0.932-0.215-0.292-0.143-0.55-0.348-0.773-0.615-0.224-0.267-0.401-0.594-0.532-0.981-0.131-0.386-0.197-0.822-0.197-1.308h4.627c0-0.415-0.064-0.788-0.195-1.117-0.127-0.33-0.305-0.609-0.534-0.838-0.228-0.229-0.5-0.403-0.816-0.522-0.311-0.124-0.65-0.187-1.019-0.187zm61.732 0c-0.45 0-0.87 0.082-1.25 0.244s-0.7 0.396-0.98 0.701c-0.27 0.305-0.49 0.678-0.64 1.117s-0.23 0.935-0.23 1.488c0 0.521 0.08 0.994 0.24 1.418 0.15 0.42 0.36 0.78 0.62 1.08 0.27 0.296 0.58 0.526 0.94 0.688 0.35 0.157 0.72 0.236 1.12 0.236 0.38 0 0.73-0.077 1.05-0.23 0.31-0.153 0.59-0.351 0.82-0.594 0.23-0.248 0.43-0.528 0.58-0.838 0.15-0.315 0.25-0.631 0.3-0.951l-0.24-0.143c-0.11 0.301-0.24 0.553-0.38 0.758-0.14 0.201-0.29 0.363-0.45 0.487-0.16 0.119-0.33 0.205-0.52 0.257-0.19 0.048-0.39 0.07-0.61 0.065-0.32-0.005-0.63-0.077-0.93-0.215-0.29-0.143-0.55-0.348-0.77-0.615-0.23-0.267-0.4-0.594-0.54-0.981-0.13-0.386-0.19-0.822-0.19-1.308h4.63c0-0.415-0.07-0.788-0.2-1.117-0.13-0.33-0.3-0.609-0.53-0.838s-0.5-0.403-0.82-0.522c-0.31-0.124-0.65-0.187-1.02-0.187zm-56.602 0.015l-2.07 0.787 0.066 0.258c0.204-0.086 0.368-0.125 0.495-0.115 0.131 0.01 0.25 0.042 0.357 0.1 0.039 0.043 0.072 0.092 0.102 0.144 0.029 0.053 0.051 0.136 0.066 0.25 0.019 0.115 0.032 0.273 0.037 0.479 0.01 0.2 0.014 0.472 0.014 0.816v2.541c0 0.277-0.017 0.496-0.051 0.658-0.034 0.163-0.093 0.284-0.176 0.365-0.078 0.082-0.185 0.135-0.326 0.159-0.136 0.019-0.309 0.027-0.518 0.027v0.273h3.469v-0.273c-0.238 0-0.436-0.026-0.592-0.078-0.15-0.053-0.268-0.131-0.355-0.236-0.088-0.105-0.15-0.236-0.184-0.393s-0.05-0.34-0.05-0.545v-3.156c0.184-0.348 0.363-0.621 0.533-0.817 0.175-0.2 0.322-0.3 0.443-0.3 0.078 0 0.154 0.027 0.227 0.08 0.073 0.052 0.147 0.111 0.224 0.177 0.078 0.063 0.164 0.12 0.256 0.172 0.097 0.053 0.207 0.08 0.328 0.08 0.093 0 0.176-0.02 0.254-0.058 0.083-0.038 0.155-0.085 0.213-0.143 0.063-0.062 0.111-0.133 0.145-0.215 0.034-0.081 0.05-0.164 0.05-0.25 0-0.114-0.023-0.221-0.072-0.316-0.048-0.1-0.116-0.183-0.203-0.25-0.083-0.072-0.182-0.126-0.299-0.164-0.116-0.038-0.242-0.057-0.373-0.057-0.597 0-1.173 0.489-1.726 1.467v-1.467h-0.284zm11.722 0c-0.51 0-0.95 0.102-1.35 0.307-0.4 0.2-0.74 0.466-1.02 0.795s-0.49 0.706-0.64 1.131c-0.15 0.42-0.22 0.851-0.22 1.295 0 0.453 0.07 0.887 0.22 1.302 0.16 0.416 0.37 0.781 0.65 1.096s0.62 0.566 1 0.752c0.39 0.186 0.81 0.279 1.28 0.279 0.37 0 0.7-0.05 1.01-0.15 0.3-0.1 0.58-0.236 0.82-0.408 0.24-0.177 0.46-0.382 0.64-0.616 0.19-0.233 0.34-0.484 0.46-0.751 0.12-0.268 0.21-0.544 0.27-0.831 0.06-0.291 0.1-0.577 0.1-0.859 0-0.468-0.08-0.905-0.24-1.31-0.15-0.411-0.37-0.766-0.66-1.067-0.28-0.3-0.62-0.535-1.01-0.707-0.4-0.172-0.83-0.258-1.31-0.258zm5.85 0l-2.07 0.787 0.07 0.258c0.2-0.086 0.37-0.125 0.49-0.115 0.14 0.01 0.26 0.042 0.36 0.1 0.04 0.043 0.07 0.092 0.1 0.144 0.03 0.053 0.06 0.136 0.07 0.25 0.02 0.115 0.03 0.273 0.04 0.479 0 0.2 0.01 0.472 0.01 0.816v2.541c0 0.277-0.02 0.496-0.05 0.658-0.03 0.163-0.09 0.284-0.18 0.365-0.07 0.082-0.18 0.135-0.32 0.159-0.14 0.019-0.31 0.027-0.52 0.027v0.273h3.47v-0.273c-0.24 0-0.44-0.026-0.59-0.078-0.15-0.053-0.27-0.131-0.36-0.236s-0.15-0.236-0.18-0.393c-0.04-0.157-0.05-0.34-0.05-0.545v-3.156c0.18-0.348 0.36-0.621 0.53-0.817 0.17-0.2 0.32-0.3 0.44-0.3 0.08 0 0.16 0.027 0.23 0.08 0.07 0.052 0.15 0.111 0.23 0.177 0.07 0.063 0.16 0.12 0.25 0.172 0.1 0.053 0.21 0.08 0.33 0.08 0.09 0 0.18-0.02 0.25-0.058 0.09-0.038 0.16-0.085 0.21-0.143 0.07-0.062 0.12-0.133 0.15-0.215 0.03-0.081 0.05-0.164 0.05-0.25 0-0.114-0.02-0.221-0.07-0.316-0.05-0.1-0.12-0.183-0.21-0.25-0.08-0.072-0.18-0.126-0.29-0.164-0.12-0.038-0.24-0.057-0.38-0.057-0.59 0-1.17 0.489-1.72 1.467v-1.467h-0.29zm5.13 0l-2.03 0.787 0.12 0.258c0.28-0.095 0.48-0.13 0.62-0.101 0.14 0.028 0.23 0.117 0.29 0.265 0.06 0.143 0.09 0.345 0.09 0.608v0.931 2.512c0 0.258-0.01 0.466-0.03 0.623-0.03 0.158-0.08 0.279-0.15 0.365s-0.18 0.145-0.31 0.178c-0.12 0.029-0.29 0.043-0.51 0.043v0.273h3.3v-0.273c-0.21 0-0.39-0.011-0.53-0.035s-0.25-0.075-0.33-0.156-0.14-0.202-0.17-0.36c-0.03-0.162-0.04-0.381-0.04-0.658v-3.529c0.1-0.105 0.21-0.21 0.34-0.315 0.13-0.109 0.26-0.207 0.4-0.293 0.15-0.086 0.3-0.154 0.46-0.207 0.16-0.057 0.33-0.086 0.51-0.086 0.17 0 0.33 0.029 0.47 0.086 0.14 0.058 0.26 0.151 0.36 0.28 0.1 0.124 0.17 0.287 0.23 0.492 0.05 0.2 0.08 0.447 0.08 0.738v2.834c0 0.205-0.01 0.384-0.02 0.537 0 0.153-0.04 0.279-0.11 0.379-0.06 0.1-0.17 0.175-0.32 0.223-0.15 0.047-0.37 0.07-0.65 0.07v0.273h3.38v-0.273c-0.25 0-0.45-0.018-0.59-0.057-0.14-0.038-0.25-0.102-0.33-0.193-0.06-0.095-0.11-0.218-0.13-0.371-0.01-0.158-0.02-0.354-0.02-0.588v-3.529c0.18-0.177 0.35-0.321 0.51-0.436 0.16-0.114 0.31-0.204 0.45-0.271 0.15-0.067 0.29-0.113 0.41-0.137 0.13-0.029 0.25-0.043 0.36-0.043 0.18 0 0.34 0.029 0.48 0.086 0.14 0.052 0.26 0.142 0.35 0.266s0.16 0.286 0.2 0.486c0.05 0.2 0.07 0.448 0.07 0.744v2.834c0 0.22-0.01 0.409-0.02 0.566-0.02 0.153-0.06 0.276-0.13 0.372-0.06 0.095-0.17 0.164-0.32 0.207-0.14 0.043-0.34 0.064-0.6 0.064v0.273h3.3v-0.273c-0.21 0-0.37-0.014-0.5-0.043-0.13-0.033-0.23-0.095-0.31-0.185-0.08-0.091-0.13-0.214-0.16-0.372-0.03-0.157-0.04-0.361-0.04-0.609v-2.834c0-0.444-0.05-0.818-0.13-1.123-0.08-0.31-0.2-0.561-0.36-0.752-0.15-0.196-0.33-0.336-0.55-0.422-0.21-0.086-0.45-0.129-0.73-0.129-0.18 0-0.36 0.019-0.54 0.057-0.17 0.038-0.35 0.11-0.53 0.215-0.19 0.105-0.38 0.245-0.59 0.422-0.2 0.176-0.43 0.406-0.68 0.687-0.05-0.238-0.13-0.443-0.24-0.615-0.11-0.177-0.24-0.32-0.39-0.43-0.14-0.114-0.31-0.197-0.49-0.25-0.18-0.057-0.37-0.086-0.57-0.086-0.16 0-0.32 0.019-0.48 0.057-0.16 0.033-0.34 0.101-0.52 0.201s-0.38 0.241-0.59 0.422-0.45 0.415-0.72 0.701v-1.381h-0.32zm12.74 0c-0.32 0-0.63 0.037-0.93 0.114-0.29 0.071-0.55 0.179-0.78 0.322-0.22 0.138-0.4 0.31-0.53 0.515-0.14 0.201-0.2 0.43-0.2 0.688 0 0.215 0.05 0.384 0.16 0.508 0.11 0.119 0.26 0.179 0.45 0.179s0.33-0.06 0.45-0.179c0.11-0.124 0.16-0.289 0.16-0.494l-0.02-0.43c0.02-0.224 0.11-0.412 0.28-0.564 0.18-0.158 0.42-0.237 0.73-0.237 0.21 0 0.39 0.03 0.55 0.092 0.16 0.057 0.28 0.157 0.39 0.295 0.1 0.133 0.17 0.307 0.22 0.521 0.06 0.215 0.08 0.48 0.08 0.795v0.272c-0.79 0.267-1.43 0.518-1.91 0.752-0.49 0.234-0.87 0.463-1.13 0.687-0.27 0.22-0.45 0.439-0.54 0.658-0.09 0.22-0.13 0.45-0.13 0.694 0 0.253 0.04 0.485 0.11 0.695 0.08 0.205 0.19 0.381 0.33 0.529 0.14 0.144 0.31 0.254 0.5 0.33 0.2 0.082 0.41 0.122 0.65 0.122 0.18 0 0.33-0.015 0.46-0.043 0.14-0.024 0.28-0.074 0.43-0.151 0.15-0.076 0.32-0.184 0.5-0.322 0.2-0.143 0.44-0.327 0.73-0.551 0 0.21 0.02 0.385 0.06 0.524 0.05 0.133 0.1 0.239 0.17 0.32s0.15 0.138 0.25 0.172c0.09 0.033 0.2 0.051 0.3 0.051 0.52 0 1.05-0.356 1.6-1.067v-0.416c-0.14 0.134-0.25 0.24-0.33 0.317-0.08 0.076-0.15 0.133-0.2 0.171-0.06 0.039-0.1 0.064-0.14 0.079-0.04 0.009-0.08 0.013-0.13 0.013-0.09 0-0.16-0.025-0.21-0.078-0.05-0.052-0.08-0.143-0.11-0.271 0-0.067-0.01-0.199-0.02-0.395s-0.01-0.446-0.01-0.752v-2.232c0-0.344-0.03-0.653-0.08-0.93s-0.16-0.512-0.32-0.703c-0.16-0.196-0.39-0.343-0.68-0.443-0.29-0.105-0.68-0.157-1.16-0.157zm5.52 0l-2.04 0.787 0.12 0.258c0.36-0.148 0.63-0.154 0.79-0.015 0.04 0.028 0.07 0.064 0.09 0.107 0.03 0.043 0.05 0.125 0.07 0.244s0.03 0.292 0.04 0.516 0.02 0.53 0.02 0.922v2.441c0 0.248-0.02 0.452-0.05 0.609-0.02 0.158-0.07 0.281-0.14 0.372-0.08 0.09-0.18 0.152-0.31 0.185-0.13 0.029-0.3 0.043-0.51 0.043v0.273h3.32v-0.273c-0.25 0-0.44-0.014-0.59-0.043-0.14-0.033-0.25-0.092-0.33-0.178-0.07-0.086-0.12-0.207-0.15-0.365-0.02-0.157-0.03-0.365-0.03-0.623v-3.457c0.29-0.315 0.58-0.548 0.87-0.701s0.58-0.229 0.86-0.229c0.2 0 0.36 0.033 0.49 0.1 0.14 0.067 0.24 0.17 0.32 0.309 0.09 0.138 0.15 0.315 0.18 0.535 0.03 0.214 0.05 0.471 0.05 0.767v2.676c0 0.253-0.01 0.458-0.03 0.615-0.02 0.158-0.07 0.283-0.14 0.373-0.08 0.086-0.19 0.145-0.33 0.178-0.14 0.029-0.34 0.043-0.58 0.043v0.273h3.34v-0.273c-0.22 0-0.4-0.015-0.54-0.049-0.14-0.038-0.24-0.099-0.31-0.185-0.08-0.091-0.12-0.216-0.15-0.373-0.02-0.158-0.03-0.359-0.03-0.602v-2.812c0-0.368-0.04-0.702-0.1-1.002-0.06-0.301-0.15-0.559-0.29-0.774s-0.32-0.379-0.54-0.494c-0.22-0.119-0.5-0.178-0.82-0.178-0.71 0-1.46 0.456-2.25 1.367v-1.367h-0.3zm9.04 0c-0.43 0-0.84 0.083-1.23 0.25s-0.72 0.404-1.02 0.709c-0.28 0.301-0.51 0.665-0.68 1.094-0.17 0.425-0.26 0.898-0.26 1.418 0 0.53 0.08 1.01 0.22 1.439 0.15 0.43 0.36 0.797 0.61 1.102 0.26 0.301 0.56 0.534 0.91 0.701 0.34 0.162 0.71 0.244 1.11 0.244 0.33 0 0.65-0.067 0.95-0.201 0.31-0.133 0.58-0.32 0.83-0.558 0.25-0.239 0.47-0.523 0.64-0.852 0.18-0.334 0.3-0.7 0.36-1.096l-0.2-0.107c-0.14 0.339-0.3 0.618-0.46 0.838-0.15 0.214-0.31 0.384-0.48 0.508s-0.35 0.21-0.54 0.257c-0.19 0.043-0.38 0.065-0.59 0.065-0.35 0-0.65-0.08-0.92-0.242-0.27-0.163-0.49-0.381-0.68-0.653-0.18-0.276-0.32-0.593-0.42-0.951-0.09-0.358-0.14-0.731-0.14-1.117 0-0.339 0.04-0.654 0.12-0.945 0.07-0.291 0.19-0.54 0.34-0.75 0.15-0.215 0.33-0.383 0.55-0.502 0.22-0.124 0.47-0.186 0.75-0.186 0.33 0 0.58 0.08 0.73 0.242 0.16 0.158 0.25 0.366 0.28 0.623 0.01 0.196 0.05 0.351 0.11 0.465 0.06 0.11 0.12 0.195 0.2 0.252 0.08 0.053 0.17 0.085 0.26 0.1 0.08 0.014 0.17 0.021 0.24 0.021 0.23 0 0.4-0.06 0.51-0.179 0.11-0.12 0.17-0.263 0.17-0.43 0-0.181-0.05-0.359-0.17-0.535-0.11-0.177-0.27-0.349-0.48-0.516-0.41-0.339-0.96-0.508-1.62-0.508zm27.62 0c-0.5 0-0.95 0.102-1.35 0.307-0.4 0.2-0.74 0.466-1.02 0.795s-0.49 0.706-0.64 1.131c-0.15 0.42-0.22 0.851-0.22 1.295 0 0.453 0.07 0.887 0.22 1.302 0.16 0.416 0.38 0.781 0.65 1.096 0.28 0.315 0.62 0.566 1 0.752 0.39 0.186 0.82 0.279 1.28 0.279 0.37 0 0.7-0.05 1.01-0.15s0.58-0.236 0.82-0.408c0.24-0.177 0.46-0.382 0.64-0.616 0.19-0.233 0.34-0.484 0.46-0.751 0.12-0.268 0.21-0.544 0.27-0.831 0.06-0.291 0.1-0.577 0.1-0.859 0-0.468-0.08-0.905-0.24-1.31-0.15-0.411-0.37-0.766-0.66-1.067-0.28-0.3-0.62-0.535-1.01-0.707-0.4-0.172-0.83-0.258-1.31-0.258zm13.3 0l-2.04 0.787 0.12 0.258c0.36-0.148 0.62-0.154 0.78-0.015 0.04 0.028 0.07 0.064 0.1 0.107s0.05 0.125 0.07 0.244 0.03 0.292 0.04 0.516 0.01 0.53 0.01 0.922v2.441c0 0.248-0.01 0.452-0.04 0.609-0.02 0.158-0.07 0.281-0.15 0.372-0.07 0.09-0.17 0.152-0.3 0.185-0.13 0.029-0.3 0.043-0.51 0.043v0.273h3.31v-0.273c-0.24 0-0.43-0.014-0.58-0.043-0.14-0.033-0.25-0.092-0.33-0.178s-0.13-0.207-0.15-0.365c-0.02-0.157-0.03-0.365-0.03-0.623v-3.457c0.29-0.315 0.58-0.548 0.87-0.701s0.58-0.229 0.86-0.229c0.2 0 0.36 0.033 0.49 0.1s0.24 0.17 0.32 0.309c0.08 0.138 0.14 0.315 0.18 0.535 0.03 0.214 0.05 0.471 0.05 0.767v2.676c0 0.253-0.01 0.458-0.03 0.615-0.02 0.158-0.07 0.283-0.15 0.373-0.07 0.086-0.18 0.145-0.32 0.178-0.14 0.029-0.34 0.043-0.59 0.043v0.273h3.35v-0.273c-0.23 0-0.4-0.015-0.54-0.049-0.14-0.038-0.24-0.099-0.32-0.185-0.07-0.091-0.12-0.216-0.14-0.373-0.03-0.158-0.04-0.359-0.04-0.602v-2.812c0-0.368-0.03-0.702-0.09-1.002-0.06-0.301-0.16-0.559-0.29-0.774-0.14-0.215-0.32-0.379-0.54-0.494-0.23-0.119-0.5-0.178-0.83-0.178-0.7 0-1.45 0.456-2.24 1.367v-1.367h-0.3zm9.04 0c-0.44 0-0.85 0.083-1.24 0.25-0.38 0.167-0.72 0.404-1.01 0.709-0.29 0.301-0.51 0.665-0.68 1.094-0.17 0.425-0.26 0.898-0.26 1.418 0 0.53 0.07 1.01 0.22 1.439 0.15 0.43 0.36 0.797 0.61 1.102 0.26 0.301 0.56 0.534 0.91 0.701 0.34 0.162 0.71 0.244 1.1 0.244 0.33 0 0.65-0.067 0.96-0.201 0.3-0.133 0.58-0.32 0.83-0.558 0.25-0.239 0.47-0.523 0.64-0.852 0.18-0.334 0.29-0.7 0.36-1.096l-0.2-0.107c-0.14 0.339-0.3 0.618-0.46 0.838-0.15 0.214-0.32 0.384-0.49 0.508s-0.35 0.21-0.53 0.257c-0.19 0.043-0.38 0.065-0.59 0.065-0.35 0-0.66-0.08-0.92-0.242-0.27-0.163-0.5-0.381-0.68-0.653-0.19-0.276-0.33-0.593-0.42-0.951-0.1-0.358-0.14-0.731-0.14-1.117 0-0.339 0.04-0.654 0.11-0.945 0.08-0.291 0.2-0.54 0.35-0.75 0.15-0.215 0.33-0.383 0.55-0.502 0.22-0.124 0.47-0.186 0.74-0.186 0.34 0 0.58 0.08 0.74 0.242 0.16 0.158 0.25 0.366 0.28 0.623 0.01 0.196 0.05 0.351 0.11 0.465 0.05 0.11 0.12 0.195 0.2 0.252 0.08 0.053 0.17 0.085 0.25 0.1 0.09 0.014 0.17 0.021 0.25 0.021 0.22 0 0.39-0.06 0.51-0.179 0.11-0.12 0.17-0.263 0.17-0.43 0-0.181-0.06-0.359-0.17-0.535-0.11-0.177-0.27-0.349-0.48-0.516-0.42-0.339-0.96-0.508-1.62-0.508zm5.44 0l-2.02 0.787 0.1 0.258c0.11-0.038 0.21-0.067 0.29-0.086s0.15-0.029 0.22-0.029c0.2 0 0.33 0.082 0.4 0.244s0.11 0.4 0.11 0.715v3.508c0 0.219-0.02 0.4-0.05 0.543-0.02 0.138-0.07 0.249-0.15 0.33-0.07 0.076-0.18 0.127-0.31 0.156s-0.3 0.043-0.51 0.043v0.273h3.26v-0.273c-0.21 0-0.38-0.014-0.52-0.043-0.13-0.029-0.23-0.08-0.31-0.156-0.07-0.081-0.12-0.192-0.15-0.33-0.03-0.143-0.05-0.324-0.05-0.543v-5.397h-0.31zm-24.05 0.186v0.264c0.2 0 0.38 0.014 0.53 0.042 0.14 0.024 0.26 0.073 0.35 0.145s0.16 0.173 0.19 0.307c0.04 0.133 0.06 0.308 0.06 0.523v2.934c0 0.171 0.01 0.357 0.02 0.552 0.01 0.196 0.04 0.388 0.08 0.579 0.04 0.186 0.1 0.365 0.18 0.537 0.08 0.171 0.18 0.325 0.31 0.459 0.13 0.128 0.28 0.23 0.47 0.306 0.19 0.081 0.41 0.123 0.67 0.123 0.16 0 0.32-0.02 0.47-0.058s0.31-0.107 0.48-0.207c0.17-0.105 0.36-0.249 0.57-0.43 0.22-0.181 0.47-0.418 0.75-0.709v1.404h0.32l2.03-0.824-0.1-0.25c-0.11 0.038-0.22 0.067-0.32 0.086-0.11 0.014-0.2 0.022-0.27 0.022s-0.14-0.015-0.2-0.043c-0.06-0.029-0.11-0.082-0.14-0.159-0.04-0.076-0.07-0.176-0.08-0.3-0.02-0.129-0.03-0.291-0.03-0.487v-4.816h-2.29v0.264c0.19 0.004 0.35 0.022 0.49 0.05 0.13 0.024 0.24 0.071 0.33 0.143 0.09 0.067 0.15 0.163 0.19 0.287 0.04 0.119 0.07 0.28 0.07 0.48v3.729c-0.19 0.181-0.37 0.332-0.53 0.451s-0.31 0.214-0.45 0.285c-0.14 0.072-0.26 0.122-0.38 0.151-0.11 0.028-0.22 0.043-0.31 0.043-0.24 0-0.43-0.043-0.58-0.129-0.14-0.086-0.26-0.198-0.34-0.336-0.08-0.143-0.13-0.302-0.15-0.479-0.03-0.181-0.04-0.366-0.04-0.552v-4.387h-2.35zm-69.86 0.264c0.32 0 0.61 0.089 0.87 0.265 0.25 0.177 0.47 0.42 0.65 0.731 0.18 0.305 0.32 0.668 0.42 1.087 0.09 0.42 0.14 0.873 0.14 1.36 0 0.468-0.04 0.865-0.12 1.189-0.08 0.325-0.19 0.587-0.33 0.787-0.14 0.201-0.31 0.345-0.51 0.436-0.2 0.086-0.42 0.129-0.66 0.129-0.32 0-0.62-0.093-0.88-0.279-0.25-0.191-0.47-0.446-0.66-0.766-0.18-0.32-0.33-0.693-0.43-1.117-0.1-0.425-0.15-0.87-0.15-1.338 0-0.477 0.05-0.873 0.15-1.188 0.1-0.319 0.23-0.574 0.39-0.765s0.34-0.327 0.54-0.408c0.2-0.082 0.39-0.123 0.58-0.123zm65.9 0c0.32 0 0.61 0.089 0.87 0.265 0.25 0.177 0.47 0.42 0.65 0.731 0.18 0.305 0.32 0.668 0.42 1.087 0.1 0.42 0.14 0.873 0.14 1.36 0 0.468-0.04 0.865-0.12 1.189-0.08 0.325-0.19 0.587-0.33 0.787-0.14 0.201-0.31 0.345-0.51 0.436-0.2 0.086-0.42 0.129-0.66 0.129-0.32 0-0.61-0.093-0.88-0.279-0.25-0.191-0.47-0.446-0.66-0.766-0.18-0.32-0.33-0.693-0.43-1.117-0.1-0.425-0.15-0.87-0.15-1.338 0-0.477 0.05-0.873 0.15-1.188 0.1-0.319 0.24-0.574 0.4-0.765s0.33-0.327 0.53-0.408c0.2-0.082 0.39-0.123 0.58-0.123zm-82.931 0.042c0.122 0 0.265 0.025 0.43 0.073 0.165 0.047 0.324 0.137 0.475 0.265 0.15 0.129 0.279 0.308 0.386 0.537 0.107 0.225 0.16 0.517 0.16 0.879h-3.105c0.029-0.281 0.095-0.53 0.197-0.75 0.102-0.219 0.229-0.404 0.379-0.552 0.151-0.148 0.319-0.26 0.504-0.336 0.19-0.077 0.38-0.116 0.574-0.116zm61.731 0c0.12 0 0.27 0.025 0.43 0.073 0.17 0.047 0.33 0.137 0.48 0.265 0.15 0.129 0.28 0.308 0.38 0.537 0.11 0.225 0.16 0.517 0.16 0.879h-3.1c0.03-0.281 0.09-0.53 0.19-0.75 0.11-0.219 0.23-0.404 0.38-0.552s0.32-0.26 0.51-0.336c0.19-0.077 0.38-0.116 0.57-0.116zm-19.74 2.327v2.513c-0.3 0.244-0.58 0.427-0.82 0.551s-0.45 0.182-0.64 0.172c-0.14-0.005-0.28-0.038-0.4-0.1s-0.23-0.147-0.32-0.252c-0.09-0.109-0.16-0.235-0.21-0.378-0.06-0.144-0.09-0.301-0.09-0.473 0-0.158 0.03-0.309 0.07-0.457 0.05-0.153 0.16-0.311 0.33-0.473s0.42-0.331 0.74-0.508c0.33-0.181 0.78-0.381 1.34-0.595z"/>
</svg>
