<svg xmlns:rdf="http://www.w3.org/1999/02/22-rdf-syntax-ns#" xmlns="http://www.w3.org/2000/svg" version="1.1" xmlns:cc="http://creativecommons.org/ns#" xmlns:dc="http://purl.org/dc/elements/1.1/" viewBox="0 0 367.92 424.8">
<path id="path4" d="m182.88 0l13.14 7.516-86.427 50.52s-26.147 13.174-35.43 23.326c-11.362 12.428-7.917 30.125 2.16 42.48 24.693 30.28 88.66 54.367 141.12 34.56 22.23-8.39 122.08-68.8 122.08-68.8l28.397 16.243v213.12l-18 10.337v-121.94l-56.88 32.66v121.94l-32.88 18.88v-69.8l20.28-12.24v-51.543l-20.28 11.646s-2.37-32.09 1.92-42.902c4.1-10.31 15.74-21.72 25.2-18.72 6.95 2.21 5.76 24.95 5.76 24.95s42.95-24.85 56.88-32.86c2.25-36.34-9.13-59-43.92-55.44-15.87 1.628-28.37 10.02-38.88 17.28-11.14 7.7-20.4 16.554-28.8 26.64-15.89 19.1-33.02 45.26-35.28 76.32-1.77 24.356 0.71 159.07 0.71 159.07l-20.15 11.55-183.6-105.84v-213.12l182.88-105.84zm-67.68 167.04c-13.318-10.95-29.718-21.208-47.52-25.2-11.942-2.678-23.93-1.128-32.4 3.6-22.328 12.466-28.844 45.437-26.64 77.76 3.508 51.445 22.065 86.146 48.96 113.04 17.977 17.977 47.576 39.66 74.16 41.76 27.702 2.187 36.335-16.023 42.48-36.72-20.956-14.324-44.265-26.296-65.52-40.32-3.91 2.99-3.572 6.328-9.36 6.48-5.15 0.135-10.955-4.727-14.4-9.36-6.09-8.19-8.026-21.054-8.64-30.96 33.78 18.062 66.363 37.317 100.08 55.44 3.688-67.27-23.104-124.2-61.2-155.52zm165.26-111.23l-85.795 52.732s-22.85 14.813-38.136 13.134c-4.99-0.55-13.31-4.77-13.68-8.64-0.7-7.16 25.2-21.02 25.2-21.02l87.84-50.27 24.57 14.053zm-171.02 185.39c-11.23-5.81-21.966-12.114-32.4-18.72 1.032-7.922 2.438-15.645 12.24-13.68 11.49 2.303 19.817 20.686 20.16 32.4z" fill="#DC0000"/>
</svg>
