<svg xmlns:rdf="http://www.w3.org/1999/02/22-rdf-syntax-ns#" xmlns="http://www.w3.org/2000/svg" xml:space="preserve" viewBox="0 0 70.000001 47" height="100%" width="100%" version="1.1" xmlns:cc="http://creativecommons.org/ns#" xmlns:dc="http://purl.org/dc/elements/1.1/" overflow="visible"><g image-rendering="optimizeQuality" text-rendering="geometricPrecision" transform="matrix(1.0145 0 0 1.0145 -.95261 .46623)" shape-rendering="geometricPrecision"><g image-rendering="optimizeQuality" text-rendering="geometricPrecision" shape-rendering="geometricPrecision"><g transform="matrix(1.0156 0 0 1.0156 -.014678 -1.3574)"><path id="path23" fill-rule="evenodd" clip-rule="evenodd" d="m53.094 38.212v8.288h2.066v-3.366h0.595c1.118 0 1.446 1.592 2.333 3.366h2.272c-1.167-2.43-1.421-3.451-2.272-3.876 0.948-0.438 1.422-1.118 1.422-2.029 0-1.24-1.008-2.382-2.71-2.382h-3.706zm2.066 1.519h1.045c0.777 0 1.179 0.316 1.179 0.936 0 0.705-0.559 0.948-1.13 0.948h-1.094v-1.884zm-3.728 0v-1.519h-6.028v8.287h6.113v-1.519h-4.047v-1.993h3.78v-1.519h-3.78v-1.737zm-14.531-1.519v8.288h4.035c2.418 0 2.929-1.482 2.929-2.43 0-0.972-0.583-1.823-1.762-2.127 0.693-0.34 1.13-0.96 1.13-1.653 0-0.923-0.79-2.078-2.746-2.078h-3.586zm2.066 1.519h1.082c0.753 0 1.057 0.449 1.057 0.875 0 0.437-0.304 0.899-1.057 0.899h-1.082v-1.774zm0 3.293h1.446c0.729 0 1.264 0.328 1.264 0.936 0 0.717-0.401 1.021-1.543 1.021h-1.167v-1.957zm-8.516 0.899h0.316l2.236-2.601v5.177h2.065v-8.287h-1.798l-2.661 3.074-2.662-3.074h-1.798v8.287h2.066v-5.177zm-5.964-4.192v-1.519h-6.028v8.287h6.113v-1.519h-4.047v-1.993h3.779v-1.519h-3.779v-1.737zm-12.503 4.192h0.316l2.236-2.601v5.177h2.066v-8.287h-1.798l-2.662 3.074-2.661-3.074h-1.798v8.287h2.065v-5.177z"/><path id="path27" fill="#005a9c" d="m17.024 1.065 5.759 19.58 5.759-19.58h4.17 11.444v1.946l-5.878 10.127c2.065 0.663 3.628 1.868 4.687 3.615s1.589 3.799 1.589 6.155c0 2.913-0.774 5.362-2.323 7.348-1.549 1.985-3.555 2.978-6.017 2.978-1.854 0-3.469-0.589-4.846-1.767s-2.396-2.773-3.058-4.786l3.257-1.35c0.477 1.218 1.106 2.178 1.887 2.879 0.781 0.702 1.701 1.052 2.76 1.052 1.112 0 2.052-0.622 2.82-1.866s1.152-2.74 1.152-4.488c0-1.933-0.411-3.429-1.231-4.488-0.954-1.244-2.45-1.867-4.488-1.867h-1.588v-1.906l5.561-9.612h-6.712l-0.382 0.65-8.166 27.55h-0.397l-5.958-19.937-5.958 19.937h-0.397l-9.531-32.17h4.17l5.759 19.58 3.892-13.185-1.906-6.395h4.17z"/><path id="path29" fill-rule="evenodd" clip-rule="evenodd" d="m65.827 1.065c-0.819 0-1.553 0.295-2.11 0.861-0.591 0.599-0.92 1.376-0.92 2.178s0.313 1.545 0.887 2.128c0.583 0.591 1.334 0.912 2.144 0.912 0.794 0 1.563-0.321 2.162-0.903 0.574-0.557 0.887-1.3 0.887-2.136 0-0.81-0.321-1.57-0.878-2.136-0.584-0.591-1.344-0.904-2.172-0.904zm2.643 3.065c0 0.7-0.27 1.351-0.768 1.832-0.523 0.506-1.173 0.776-1.891 0.776-0.675 0-1.342-0.278-1.84-0.785-0.499-0.506-0.777-1.156-0.777-1.849 0-0.692 0.287-1.368 0.802-1.891 0.481-0.489 1.131-0.751 1.84-0.751 0.726 0 1.376 0.27 1.883 0.785 0.489 0.49 0.751 1.149 0.751 1.883zm-2.558-1.807h-1.3v3.445h0.65v-1.469h0.642l0.701 1.469h0.726l-0.768-1.57c0.498-0.102 0.785-0.439 0.785-0.929-0.001-0.625-0.473-0.946-1.436-0.946zm-0.119 0.423c0.608 0 0.887 0.169 0.887 0.591 0 0.405-0.279 0.549-0.87 0.549h-0.549v-1.14h0.532z"/><path id="path34" d="m60.715 0.884 0.676 4.107-2.392 4.575s-0.918-1.941-2.443-3.015c-1.285-0.905-2.122-1.102-3.431-0.832-1.681 0.347-3.587 2.357-4.419 4.835-0.996 2.965-1.005 4.4-1.04 5.718-0.055 2.114 0.277 3.362 0.277 3.362s-1.452-2.686-1.438-6.619c0.009-2.808 0.451-5.354 1.75-7.868 1.143-2.209 2.842-3.535 4.35-3.691 1.559-0.161 2.791 0.59 3.743 1.404 1 0.854 2.01 2.721 2.01 2.721l2.357-4.697z"/><path id="path36" d="m61.009 24.122s-1.057 1.889-1.715 2.617c-0.659 0.728-1.837 2.01-3.292 2.651s-2.218 0.762-3.656 0.624c-1.437-0.138-2.773-0.97-3.241-1.317-0.468-0.346-1.664-1.369-2.339-2.322s-1.733-2.859-1.733-2.859 0.589 1.911 0.958 2.721c0.212 0.467 0.864 1.894 1.789 3.136 0.863 1.159 2.539 3.154 5.086 3.604s4.298-0.693 4.731-0.97 1.346-1.042 1.923-1.659c0.603-0.646 1.174-1.469 1.49-1.963 0.231-0.36 0.606-1.091 0.606-1.091l-0.607-3.172z"/></g></g></g></svg>
