<svg xmlns="http://www.w3.org/2000/svg" viewBox="0 0 2392.5 4226.6"><defs><linearGradient id="g" x2="1" gradientUnits="userSpaceOnUse" gradientTransform="rotate(-15.538 2106.25 -5660.088) scale(917.3562)"><stop offset="0" stop-color="#f69923"/><stop offset=".312" stop-color="#f79a23"/><stop offset=".838" stop-color="#e97826"/><stop offset="1" stop-color="#e97826"/></linearGradient><linearGradient id="b" x2="1" gradientUnits="userSpaceOnUse" gradientTransform="rotate(-65 3225.19 2437) scale(4260.4904)"><stop offset="0" stop-color="#9e2064"/><stop offset=".323" stop-color="#9e2064"/><stop offset=".63" stop-color="#c92037"/><stop offset=".751" stop-color="#cd2335"/><stop offset="1" stop-color="#e97826"/></linearGradient><linearGradient id="c" x2="1" gradientUnits="userSpaceOnUse" gradientTransform="rotate(-65 3305.7 1817.88) scale(2538.939)"><stop offset="0" stop-color="#282662"/><stop offset=".095" stop-color="#662e8d"/><stop offset=".788" stop-color="#9f2064"/><stop offset=".949" stop-color="#cd2032"/><stop offset="1" stop-color="#cd2032"/></linearGradient><linearGradient id="d" x2="1" gradientUnits="userSpaceOnUse" gradientTransform="rotate(-65 3076.5 2266.895) scale(4261.0817)"><stop offset="0" stop-color="#9e2064"/><stop offset=".323" stop-color="#9e2064"/><stop offset=".63" stop-color="#c92037"/><stop offset=".751" stop-color="#cd2335"/><stop offset="1" stop-color="#e97826"/></linearGradient><linearGradient id="e" x2="1" gradientUnits="userSpaceOnUse" gradientTransform="rotate(-65 2964.574 1992.803) scale(2239.1043)"><stop offset="0" stop-color="#282662"/><stop offset=".095" stop-color="#662e8d"/><stop offset=".788" stop-color="#9f2064"/><stop offset=".949" stop-color="#cd2032"/><stop offset="1" stop-color="#cd2032"/></linearGradient><linearGradient id="f" x1="-9610.334" x2="-5351.202" y1="999.733" y2="999.733" gradientUnits="userSpaceOnUse" gradientTransform="rotate(-65 -2052.924 -4777.854)"><stop offset=".323" stop-color="#9E2064"/><stop offset=".63" stop-color="#C92037"/><stop offset=".751" stop-color="#CD2335"/><stop offset="1" stop-color="#E97826"/></linearGradient><linearGradient id="a" x1="-9346.126" x2="-5086.994" y1="1021.622" y2="1021.622" gradientUnits="userSpaceOnUse" gradientTransform="rotate(-65 -2052.924 -4777.854)"><stop offset=".323" stop-color="#9E2064"/><stop offset=".63" stop-color="#C92037"/><stop offset=".751" stop-color="#CD2335"/><stop offset="1" stop-color="#E97826"/></linearGradient></defs><path fill="url(#a)" d="M1789 1249.2c-63.437 36.597-138.476 65.177-209.4 73-133.03 14.415-266.147 29.105-399.2 43.7-241.49 486.42-455.536 1024.013-628.69 1498.526 12.083-1.59 111.93-14.193 119.028-15.14.593.11 1.186.207 1.78.314 151.834-19.453 354.314-131.473 483.082-272.5 125.286-137.215 206.802-294.528 271.8-451.5 29.47-71.17 57.6-148.3 84.8-231.9-58.662 27.35-108.21 41.77-166.9 49.7.1 0 .2-.1.3-.1 141.7-54.5 231.1-159.8 296.1-288.7-18.65 12.7-43.2 27.212-72.013 40.874-39.054 18.52-80.708 33.01-136.287 40.326.1 0 .1-.1.2-.1 0 0 .1 0 .1-.1 109.554-43.447 196.38-116.832 250-212.7 23.53-42.69 45.547-90.708 61.8-133.3 18.983-49.748 35.42-90.24 43.5-140.402z" transform="translate(0 .013)"/><path fill="url(#b)" d="M1491.045 329.045c-163.56 197.575-421.16 582.718-494.486 703.562l157.05 310.416c116.43-240.048 368.41-669.187 458.27-785.892l-120.84-228.08z" transform="translate(0 .013)"/><path fill="url(#c)" d="M1147.816 2698.043c-138.465 142.154-306.335 181.782-475.296 151.57-.594-.106-1.188-.204-1.782-.312-7.097.95-106.945 13.55-119.027 15.14-4 10.71-111.25 311.19-139.36 393.32 46.32 21.11 83.53 76.73 118.748 139.85-3.7-65.32-30.81-126.74-82.13-174.26 228.385 10.307 454.37-47.215 551.806-261.595-46.22 58.623-103.54 83.53-211.48 77.428 158.86-71.125 259.596-142.65 358.534-341.125z"/><path fill="url(#d)" d="M996.56 1032.607c-2.602 4.203-507.142 778.282-638.538 1485.157L516.08 2829.98c20.907-55.82 348.516-935.053 637.537-1486.957L996.56 1032.607z" transform="translate(0 .013)"/><path fill="url(#e)" d="M313.904 2837.08c-49.317-79.027-181.367-156.157-181.067-155.457 94.535 137.05 166.262 273.102 176.967 406.652-50.62 10.404-119.946-4.602-200.075-34.113 83.53 76.73 146.25 97.937 170.66 103.64-76.73 4.8-156.66 57.52-237.19 118.243 117.74-48.018 212.88-67.025 281-51.62C216.16 3530.34 107.82 3868.067-.52 4226.6c33.218-9.804 53.02-32.112 64.128-62.322 28.58-117.345 304.848-955.82 452.47-1334.297L358.02 2517.77c-16.74 74.96-39.75 244.027-44.117 319.32" transform="translate(0 .013)"/><path fill="url(#f)" d="M2097.37 503.512c-155.358 26.61-345.728 52.018-469.675 58.22C1460.6 819.89 1312.025 1097.276 1180.4 1365.9l399.3-43.8c116.3-53.5 169.215-101.25 218.8-171.9 59.052-84.14 115.93-181.6 157.5-265 50.58-101.478 96.372-197.28 124-301 7.373-27.68 12.97-55.588 17.37-80.688z" transform="translate(0 .013)"/><path fill="url(#g)" d="M1799.06 18.53c-66.326 39.114-176.467 149.955-308.015 310.515l120.844 228.087c84.83-121.347 151.75-208.078 254.29-319.62-77.53 88.532-125.95 154.658-238.49 324.22 123.94-6.202 314.32-31.612 469.67-58.22C2157.71 179.82 2000.2 0 1868.03-.014c-24.364 0-47.85 6.103-68.97 18.543" transform="translate(0 .013)"/><path fill="#6d6e71" d="M2218.7 387v11.7h27.4v77.4h12.7v-77.4h27.6V387zm158.3 0l-30.6 62.2-30.8-62.2h-15.3v89.1h11.7v-70.7l30.3 61.3h8.1l30.3-61.3v70.7h11.7V387z"/></svg>