<svg xmlns:rdf="http://www.w3.org/1999/02/22-rdf-syntax-ns#" xmlns="http://www.w3.org/2000/svg" xml:space="preserve" version="1.1" xmlns:cc="http://creativecommons.org/ns#" xmlns:dc="http://purl.org/dc/elements/1.1/" viewBox="0 0 309.91 84.821"><g fill="#333c46" transform="matrix(1.2645 0 0 1.2645 -331.87 -100.71)"><path id="path3049-5" d="m381.99 121.4c0 8.8602-0.7935 11.31-2.9278 13.448-1.2648 1.2651-3.2438 2.1338-6.963 2.1338h-13.05c-4.1924 0-6.7207-0.7124-8.4634-2.4502-2.7656-2.77-3.5566-6.0923-3.5566-18.904 0-12.814 0.79102-16.137 3.5566-18.904 1.7427-1.7398 4.271-2.4496 8.4634-2.4496h12.974c3.8726 0 5.6124 0.78762 6.958 2.1348 2.0552 2.0551 2.8486 4.9029 2.8486 12.889h-7.9872c-0.16013-5.5361-0.47562-6.4834-0.95162-6.9585-0.47563-0.47363-1.107-0.71138-2.9259-0.71138h-9.8871c-2.4507 0-3.0835 0.23775-3.6363 0.7915-0.79101 0.78863-1.1875 2.2925-1.1875 13.208 0 10.913 0.39649 12.416 1.1875 13.208 0.55274 0.55375 1.1855 0.7915 3.6363 0.7915h9.9644c1.7416 0 2.5356-0.15775 3.0854-0.71137 0.55475-0.55525 0.87213-2.1378 0.87213-7.5151h7.9908"/><path id="path3051-2" d="m395.91 111.75h19.456c0-7.1962-0.476-8.7788-1.1836-9.4911-0.478-0.47363-1.1875-0.78863-3.6376-0.78863h-9.811c-2.4508 0-3.0835 0.23738-3.7174 0.86863-0.71238 0.71387-1.0254 2.1339-1.1064 9.4111zm0 6.5665c0.081 8.3822 0.55225 10.043 1.1875 10.676 0.63376 0.63375 1.1855 0.7925 3.6363 0.7925h11.073c1.8208 0 2.3754-0.3165 2.851-0.7925 0.54988-0.55375 0.70801-1.5025 0.87013-5.2989h7.9854c-0.15724 6.6426-0.791 9.0161-2.9278 11.154-1.3432 1.3447-3.1621 2.1338-6.958 2.1338h-13.841c-4.1929 0-6.7236-0.7124-8.4639-2.4502-2.7705-2.77-3.5566-6.0923-3.5566-18.904 0-12.814 0.78613-16.137 3.5566-18.904 1.7402-1.7398 4.271-2.4496 8.4639-2.4496h11.705c4.1944 0 6.8814 0.78762 8.4659 2.3701 2.7651 2.7685 3.5561 6.0922 3.5561 18.588v2.1352c0 0.62987-0.23637 0.94875-0.95075 0.94875h-26.653"/><path id="path3053-7" d="m455.71 128.68c-0.71038 0.711-1.7431 1.0274-4.3481 1.0274h-6.1734c-2.5317 0-4.7314-0.71388-7.7514-2.25-0.18412-0.0937-0.35987-0.18113-0.55275-0.27875v-23.256c3.165-1.5811 5.3784-2.3711 7.9908-2.3711h6.4868c2.605 0 3.6378 0.31637 4.3481 1.0274 1.1851 1.185 1.5025 3.4775 1.5025 13.051 0 9.5728-0.31737 11.863-1.5025 13.05zm-2.3769-34.488h-5.7691c-3.562 0-5.3012 0.79388-10.68 5.2226v-5.1386h-8.2246v52.15h8.2246v-14.502c5.3784 4.3477 7.1176 5.1387 10.68 5.1387h5.7691c4.5922 0 6.8848-0.79101 8.7035-2.6074 2.2916-2.2949 3.401-5.5376 3.401-18.825 0-13.289-1.1094-16.534-3.401-18.825-1.8188-1.8189-4.1112-2.6128-8.7035-2.6128"/><path id="path3055-0" d="m504.99 96.646c-1.5825-1.5825-3.6375-2.4541-7.3562-2.4541h-6.7212c-3.56 0-5.2988 0.79388-10.68 5.2226v-16.279c-2.5525-1.4014-5.2175-2.4288-8.1662-3.0611-0.0212 0.001-0.037 0.01375-0.0589 0.021v56.888h8.2251v-33.061c0.6025-0.30126 1.165-0.56351 1.7075-0.80713 2.3088-1.0366 4.1688-1.564 6.2812-1.564h5.5375c2.7675 0 3.5588 0.31638 4.4288 1.1875 0.79125 0.79 1.1062 2.0538 1.1062 4.1114v30.134h8.23v-30.687c0-5.9326-0.8725-7.9887-2.5338-9.6499"/></g><path id="path3043-5" d="m43.192 0c-5.83 0-11.486 1.1413-16.814 3.3947-5.143 2.1765-9.764 5.2894-13.727 9.2563-3.968 3.964-7.0811 8.584-9.2588 13.726-2.2531 5.329-3.3922 10.99-3.3922 16.816 0 3.3294 0.37705 6.6475 1.1307 9.8636 0.73215 3.129 1.8182 6.1817 3.2289 9.0719 2.601 5.3256 6.8175 10.635 11.586 14.609 3.1098-1.7001 4.8742-3.5744 5.2491-5.5794 0.3612-1.9259-0.48432-4.0003-2.6623-6.5221-5.1681-5.9298-8.0141-13.543-8.0141-21.443 0-18.016 14.656-32.676 32.674-32.676 0.0308 0 0.14845 0.0025 0.14845 0.0025s0.11535-0.0025 0.14475-0.0025c18.018 0 32.675 14.661 32.675 32.676 0 7.9002-2.8453 15.513-8.0116 21.441-2.1619 2.5052-3.0294 4.6677-2.6536 6.6112 0.38972 2.0072 2.1504 3.8552 5.2331 5.4953 4.7747-3.9752 8.9885-9.284 11.589-14.612 1.4125-2.8902 2.4986-5.9428 3.2301-9.0719 0.75139-3.2161 1.1332-6.5343 1.1332-9.8636 0-5.8266-1.1426-11.487-3.3959-16.816-2.176-5.144-5.291-9.764-9.255-13.728-3.966-3.9669-8.586-7.0798-13.728-9.2563-5.329-2.2534-10.986-3.3947-16.816-3.3947h-0.148-0.145zm-0.0161 17.469c-1.2167 0-2.4346 0.0826-3.6236 0.25361-3.5107 0.50039-6.9548 1.7536-9.9601 3.6285-2.8686 1.7886-5.4208 4.1904-7.3782 6.9465-2.0234 2.8488-3.4754 6.1601-4.1939 9.5741-0.78068 3.7031-0.73174 7.6053 0.14227 11.284 0.80411 3.3832 2.3282 6.6408 4.4079 9.4182 0.55734 0.74822 1.1812 1.4307 1.8396 2.1538 0.21932 0.23815 0.44287 0.48311 0.66805 0.73362 0.006 0.008 0.0128 0.0119 0.0172 0.0185 0.0263 0.0266 0.0614 0.0596 0.0953 0.10018 2.2922 2.6636 3.4553 5.5328 3.4553 8.5238 0 4.5202-2.5101 8.667-6.459 10.791 2.297 1.2749 4.7144 2.3397 7.1964 3.172 0.82454 0.27617 1.663 0.52855 2.5039 0.75341 0.50254-0.31575 2.2157-1.591 3.8908-3.9069 1.6018-2.213 3.4896-5.8838 3.3897-10.8-0.0587-2.9589-0.65446-5.8407-1.7654-8.5609-1.1036-2.6968-2.6843-5.1682-4.7036-7.3424l-0.009-0.0161c-0.15122-0.17261-0.29697-0.34443-0.4466-0.51466-0.76111-0.88281-1.547-1.7937-2.1774-2.8602-0.77165-1.3112-1.3342-2.6893-1.6676-4.0986-0.51868-2.1766-0.54614-4.4864-0.0865-6.678 0.42898-2.015 1.282-3.9679 2.478-5.6512 1.158-1.631 2.6697-3.0541 4.3683-4.1134 1.7725-1.1061 3.8069-1.8465 5.8776-2.1402 0.69928-0.10055 1.423-0.15217 2.1477-0.15217h0.15463 0.15588c0.72613 0 1.4486 0.05161 2.1501 0.15217 2.0719 0.29374 4.1057 1.0341 5.8764 2.1402 1.6989 1.0594 3.2082 2.4824 4.3671 4.1134 1.1963 1.6833 2.0527 3.6362 2.478 5.6512 0.46088 2.1916 0.43084 4.5015-0.0841 6.678-0.33469 1.4093-0.8969 2.7874-1.6701 4.0986-0.62716 1.0665-1.414 1.9774-2.1749 2.8602-0.14996 0.17023-0.29692 0.34205-0.44537 0.51466l-0.0124 0.0161c-2.0159 2.1742-3.5988 4.6455-4.7023 7.3424-1.1116 2.7202-1.7048 5.602-1.7666 8.5609-0.0986 4.9164 1.7886 8.5872 3.3922 10.8 1.6716 2.3159 3.3863 3.5911 3.8883 3.9069 0.84031-0.22486 1.6834-0.47724 2.5077-0.75341 2.482-0.8323 4.8996-1.8971 7.1976-3.172-3.9533-2.1245-6.4628-6.2713-6.4628-10.791 0-2.9505 1.1295-5.7384 3.4528-8.5189 0.0319-0.0442 0.0689-0.0786 0.0953-0.10512 0.008-0.007 0.0133-0.0127 0.021-0.0185 0.22574-0.25051 0.44787-0.49547 0.66435-0.73362 0.66096-0.72312 1.2826-1.4056 1.8408-2.1538 2.0824-2.7775 3.6041-6.035 4.4104-9.4182 0.87158-3.6785 0.92134-7.5808 0.1435-11.284-0.72129-3.4141-2.173-6.7254-4.1951-9.5741-1.96-2.758-4.511-5.16-7.38-6.948-3.006-1.875-6.449-3.128-9.961-3.629-1.188-0.171-2.408-0.253-3.625-0.253h-0.15464-0.17074zm0.16206 17.606c-4.7011 0-8.5275 3.8257-8.5275 8.5288 0 4.7023 3.8264 8.5275 8.5275 8.5275s8.5263-3.8252 8.5263-8.5275c0-4.7031-3.8252-8.5288-8.5263-8.5288z" fill="#f0424d"/></svg>
