<svg xmlns:rdf="http://www.w3.org/1999/02/22-rdf-syntax-ns#" xmlns="http://www.w3.org/2000/svg" version="1.1" xmlns:cc="http://creativecommons.org/ns#" xmlns:dc="http://purl.org/dc/elements/1.1/" viewBox="0 0 517.97 107.6">
<g transform="translate(-15.658 -15.901)">
<g transform="matrix(1.3612 0 0 1.3612 -2036.1 -251.75)" fill="#eeeeec">
<g fill="#3e5375">
<path id="path6019-8-6-5-4-5-4" style="block-progression:tb;text-indent:0;color:#000000;text-transform:none" d="m1546.8 203.97c-17.743 0-32.176 14.433-32.176 32.176s14.433 32.176 32.176 32.176 32.176-14.433 32.176-32.176-14.433-32.176-32.176-32.176zm0 4.8218c15.139 0 27.367 12.215 27.367 27.354s-12.228 27.354-27.367 27.354-27.354-12.215-27.354-27.354 12.215-27.354 27.354-27.354z"/>
<path d="m68.422 35.85c-1.788-0.067-4.496 1.337-6.932 3.759l-5.25 5.221-15.734-5.283-3.068 3.168 11.863 9.015-2.653 2.639c-0.94 0.935-1.712 1.913-2.332 2.871l-7.148-0.533-1.744 1.768 7.109 5.263 5.197 7.096 1.752-1.756-0.527-7.219c0.901-0.59 1.819-1.322 2.705-2.203l2.793-2.777 9.104 11.955 3.168-3.068-5.309-15.811 5.086-5.057c3.248-3.229 4.744-7.009 3.355-8.474-0.347-0.366-0.839-0.552-1.435-0.574z" transform="matrix(.73464 0 0 .73464 1507.3 196.63)"/>
<path id="path7897-3-6-3-9" d="m229.85 25.346c-2.6 0-4.98 0.296-7.21 0.89-12.11 3.345-18.06 15.014-17.76 26.385 0.37 11.595 7.13 22.893 20.44 25.123 1.56 0.297 3.27 0.446 5.05 0.371 1.86 0.075 3.64-0.148 5.35-0.371 14.35-2.453 21.56-14.569 21.33-26.609-0.22-11.149-6.91-22.148-20.29-25.047-2.15-0.446-4.46-0.742-6.91-0.742zm-56.74 0.371c-10.93-0.372-21.55 5.649-26.46 16.129-6.54 14.047-1.41 27.871 12.34 34.931 6.17 3.271 21.92 3.94 30.99-4.459l-4.46-4.98c-6.54 4.98-15.01 7.06-22.81 3.344-10.26-4.831-14.65-15.755-9.82-26.012 3.65-7.655 12.12-12.784 20.15-12.486 2.89 0.074 9.06 1.708 10.55 3.714l5.2-4.681c-1.86-1.71-2.23-2.006-4.61-3.121h-0.07c-3.49-1.635-7.36-2.231-11-2.379zm128.03 0c-10.92-0.372-21.55 5.649-26.45 16.129-6.54 14.047-1.42 27.871 12.33 34.931 6.17 3.271 21.93 3.94 31-4.459l-4.46-4.98c-6.54 4.98-15.02 7.06-22.82 3.344-10.26-4.831-14.64-15.755-9.81-26.012 3.64-7.655 12.11-12.784 20.14-12.486 2.9 0.074 9.07 1.708 10.55 3.714l5.21-4.681c-1.86-1.71-2.23-2.006-4.61-3.121h-0.08c-3.49-1.635-7.35-2.231-11-2.379zm145.99 0.519l0.08 51.582h6.68l-0.07-51.582h-6.69zm-51.06 0.223v51.359l6.92-0.15v-22.223l7.8-0.074c20.29 0.149 20.07-29.209 0.67-28.838l-15.39-0.074zm77.93 0.447v5.946l13.53 0.074-0.22 44.892v0.149l6.91-0.074 0.22-44.967 13.53-0.074v-5.946h-33.97zm-137.52 0.074v51.135h6.91v-26.758l24.53 26.758h8.55l-25.12-27.129 20.66-24.006h-8.4l-20.22 24.081v-24.081h-6.91zm-107.15 4.311c2.01 0 3.86 0.222 5.5 0.52 9.74 2.155 14.64 10.257 15.01 18.582 0.38 9.513-4.98 19.397-15.6 21.181-1.19 0.223-2.46 0.371-3.72 0.371-1.56 0-2.97-0.148-4.24-0.445-8.99-2.007-13.82-10.183-14.42-18.656-0.59-8.919 3.42-18.061 12.19-20.737 1.56-0.52 3.35-0.816 5.28-0.816zm173.66 1.264l8.39 0.074c10.34 0.223 9.52 16.648-0.37 16.648h-8.02v-16.722z" transform="matrix(.73464 0 0 .73464 1507.3 196.63)"/>
</g>
</g>
</g>
</svg>
