<?xml version="1.0" encoding="UTF-8" standalone="no"?>
<svg
   xmlns:dc="http://purl.org/dc/elements/1.1/"
   xmlns:cc="http://creativecommons.org/ns#"
   xmlns:rdf="http://www.w3.org/1999/02/22-rdf-syntax-ns#"
   xmlns:svg="http://www.w3.org/2000/svg"
   xmlns="http://www.w3.org/2000/svg"
   xmlns:sodipodi="http://sodipodi.sourceforge.net/DTD/sodipodi-0.dtd"
   xmlns:inkscape="http://www.inkscape.org/namespaces/inkscape"
   viewBox="0 0 46 46"
   id="svg2"
   version="1.1"
   inkscape:version="0.91 r13725"
   sodipodi:docname="cygwin.svg"
   width="46"
   height="46">
  <metadata
     id="metadata14">
    <rdf:RDF>
      <cc:Work
         rdf:about="">
        <dc:format>image/svg+xml</dc:format>
        <dc:type
           rdf:resource="http://purl.org/dc/dcmitype/StillImage" />
        <dc:title></dc:title>
      </cc:Work>
    </rdf:RDF>
  </metadata>
  <defs
     id="defs12" />
  <sodipodi:namedview
     pagecolor="#ffffff"
     bordercolor="#666666"
     borderopacity="1"
     objecttolerance="10"
     gridtolerance="10"
     guidetolerance="10"
     inkscape:pageopacity="0"
     inkscape:pageshadow="2"
     inkscape:window-width="640"
     inkscape:window-height="480"
     id="namedview10"
     showgrid="false"
     inkscape:zoom="1"
     inkscape:cx="39.418243"
     inkscape:cy="51.067731"
     inkscape:current-layer="svg2" />
  <g
     id="g7281"
     transform="matrix(0.4444464,0,0,0.4444464,0.3333216,-0.111301)">
    <path
       id="path7238"
       d="m 40,39 a 2.0002,2.0002 0 0 0 -2,2 l 0,3 a 2.0002,2.0002 0 0 0 2,2 c 1.96667,0 3.187721,0.701043 4.087891,1.78125 C 44.988061,48.861457 45.5,50.416667 45.5,52 c 0,1.583333 -0.511939,3.138543 -1.412109,4.21875 C 43.187721,57.298957 41.96667,58 40,58 a 2.0002,2.0002 0 0 0 -2,2 l 0,3 a 2.0002,2.0002 0 0 0 2,2 l 13,0 a 2.0002,2.0002 0 0 0 0.517578,-0.06836 l 41,-11 a 2.0002,2.0002 0 0 0 0,-3.863282 l -41,-11 A 2.0002,2.0002 0 0 0 53,39 l -13,0 z"
       style="color:#000000;font-style:normal;font-variant:normal;font-weight:normal;font-stretch:normal;font-size:medium;line-height:normal;font-family:sans-serif;text-indent:0;text-align:start;text-decoration:none;text-decoration-line:none;text-decoration-style:solid;text-decoration-color:#000000;letter-spacing:normal;word-spacing:normal;text-transform:none;direction:ltr;block-progression:tb;writing-mode:lr-tb;baseline-shift:baseline;text-anchor:start;white-space:normal;clip-rule:nonzero;display:inline;overflow:visible;visibility:visible;opacity:1;isolation:auto;mix-blend-mode:normal;color-interpolation:sRGB;color-interpolation-filters:linearRGB;solid-color:#000000;solid-opacity:1;fill:#00ff00;fill-opacity:1;fill-rule:nonzero;stroke:none;stroke-width:4;stroke-linecap:butt;stroke-linejoin:round;stroke-miterlimit:4;stroke-dasharray:none;stroke-dashoffset:0;stroke-opacity:1;color-rendering:auto;image-rendering:auto;shape-rendering:auto;text-rendering:auto;enable-background:accumulate"
       inkscape:connector-curvature="0" />
    <path
       id="path7246"
       d="M 27,8 C 21.833333,8 16.681259,10.501648 12.736328,14.310547 8.791397,18.119446 6,23.333333 6,29 L 6,76 C 6,81.240741 8.793342,86.371467 12.710938,90.289062 16.628533,94.206658 21.759259,97 27,97 l 39,0 a 2.0002,2.0002 0 0 0 0.67188,-0.117188 l 28,-10 a 2.0002,2.0002 0 0 0 -0.0605,-3.787109 l -28,-9 A 2.0002,2.0002 0 0 0 66,74 L 40,74 C 35.722222,74 33.061694,73.266475 31.496094,71.792969 29.930494,70.319463 29,67.733333 29,63 l 0,-22 c 0,-4.733333 0.930494,-7.319463 2.496094,-8.792969 C 33.061694,30.733525 35.722222,30 40,30 l 26,0 a 2.0002,2.0002 0 0 0 0.61133,-0.0957 l 28,-9 a 2.0002,2.0002 0 0 0 0,-3.808594 l -28,-8.9999999 A 2.0002,2.0002 0 0 0 66,8 L 27,8 Z"
       style="color:#000000;font-style:normal;font-variant:normal;font-weight:normal;font-stretch:normal;font-size:medium;line-height:normal;font-family:sans-serif;text-indent:0;text-align:start;text-decoration:none;text-decoration-line:none;text-decoration-style:solid;text-decoration-color:#000000;letter-spacing:normal;word-spacing:normal;text-transform:none;direction:ltr;block-progression:tb;writing-mode:lr-tb;baseline-shift:baseline;text-anchor:start;white-space:normal;clip-rule:nonzero;display:inline;overflow:visible;visibility:visible;opacity:1;isolation:auto;mix-blend-mode:normal;color-interpolation:sRGB;color-interpolation-filters:linearRGB;solid-color:#000000;solid-opacity:1;fill:#000000;fill-opacity:1;fill-rule:nonzero;stroke:none;stroke-width:4;stroke-linecap:butt;stroke-linejoin:round;stroke-miterlimit:4;stroke-dasharray:none;stroke-dashoffset:0;stroke-opacity:1;color-rendering:auto;image-rendering:auto;shape-rendering:auto;text-rendering:auto;enable-background:accumulate"
       inkscape:connector-curvature="0" />
  </g>
</svg>
