<svg xmlns:rdf="http://www.w3.org/1999/02/22-rdf-syntax-ns#" xmlns="http://www.w3.org/2000/svg" xml:space="preserve" height="200.96" viewBox="0 0 856.1524 200.965" width="856.15" version="1.1" xmlns:cc="http://creativecommons.org/ns#" xmlns:dc="http://purl.org/dc/elements/1.1/"><g transform="matrix(1.25 0 0 -1.25 -72.139 272.5)"><g transform="translate(222.81 167.23)"><path id="path22" d="m0 0h25.594v-25.951h12.948c5.976 0 12.121 1.056 17.783 2.96 2.781 0.933 5.899 2.234 8.646 3.87-3.614 4.68-5.458 10.588-6.002 16.41-0.735 7.92 0.871 18.232 6.279 24.43l2.69 3.087 3.206-2.558c8.074-6.434 14.861-15.418 16.057-25.664 9.723 2.834 21.132 2.164 29.704-2.739l3.512-2.01-1.851-3.582c-7.245-14.023-22.392-18.371-37.204-17.6-22.161-54.74-70.408-80.656-128.91-80.656-30.225 0-57.954 11.205-73.743 37.792l-0.26 0.44-2.299 4.639c-5.337 11.707-7.111 24.532-5.907 37.344l0.359 3.837h21.89v25.951h25.595v25.381h51.192v25.388h30.724v-50.769z" fill-rule="evenodd" fill="#394d54"/></g><g transform="translate(305.75 157.63)"><path id="path26" d="m0 0c1.716 13.23-8.266 23.621-14.459 28.552-7.135-8.178-8.244-29.614 2.948-38.64-6.245-5.502-19.404-10.49-32.879-10.49h-164.05c-1.31-13.949 1.161-26.796 6.801-37.796l1.866-3.384c1.181-1.991 2.472-3.911 3.869-5.756 6.744-0.429 12.962-0.576 18.649-0.456h0.003c11.178 0.248 20.301 1.555 27.217 3.935 1.031 0.354 2.148-0.191 2.505-1.209 0.358-1.018-0.187-2.134-1.214-2.485-0.918-0.317-1.879-0.609-2.869-0.895h-0.005c-5.443-1.541-11.281-2.579-18.811-3.036 0.444-0.009-0.464-0.069-0.468-0.069-0.256-0.017-0.578-0.051-0.836-0.065-2.965-0.168-6.163-0.203-9.434-0.203-3.579 0-7.103 0.069-11.041 0.268l-0.101-0.065c13.671-15.238 35.041-24.373 61.831-24.373 56.696 0 104.79 24.922 126.08 80.883 15.109-1.538 29.631 2.28 36.238 15.068-10.521 6.02-24.052 4.1-31.84 0.216" fill="#00aada"/></g><g transform="translate(305.75 157.63)"><path id="path30" d="m0 0c1.716 13.23-8.266 23.621-14.459 28.552-7.135-8.178-8.244-29.614 2.948-38.64-6.245-5.502-19.404-10.49-32.879-10.49h-154.34c-0.671-21.362 7.324-37.582 21.47-47.392h0.003c11.178 0.248 20.301 1.555 27.217 3.935 1.031 0.354 2.148-0.191 2.505-1.209 0.358-1.018-0.187-2.134-1.214-2.485-0.918-0.317-1.879-0.609-2.869-0.895h-0.005c-5.443-1.541-11.78-2.71-19.312-3.17-0.006 0-0.183 0.172-0.183 0.172 19.293-9.814 47.271-9.78 79.351 2.437 35.966 13.704 69.435 39.812 92.786 69.672-0.345-0.162-0.69-0.319-1.02-0.487" fill="#24b8eb"/></g><g transform="translate(97.614 120.1)"><path id="path34" d="m0 0c1.017-7.476 3.222-14.473 6.492-20.847l1.866-3.383c1.181-1.992 2.472-3.912 3.869-5.756 6.744-0.43 12.962-0.577 18.652-0.456 11.178 0.248 20.301 1.554 27.217 3.934 1.03 0.355 2.148-0.19 2.505-1.209 0.358-1.017-0.187-2.134-1.214-2.485-0.918-0.317-1.879-0.609-2.869-0.895h-0.005c-5.443-1.541-11.749-2.644-19.28-3.105-0.255-0.017-0.707-0.02-0.969-0.032-2.961-0.166-6.13-0.268-9.399-0.268-3.578 0-7.237 0.067-11.176 0.268 13.67-15.239 35.174-24.406 61.964-24.406 48.54 0 90.765 18.27 115.28 58.64h-192.93z" fill="#008bb8"/></g><g transform="translate(108.5 120.1)"><path id="path38" d="m0 0c2.901-13.124 9.875-23.422 19.996-30.442 11.178 0.248 20.301 1.554 27.217 3.934 1.03 0.355 2.147-0.19 2.504-1.209 0.359-1.017-0.187-2.134-1.213-2.485-0.918-0.317-1.879-0.609-2.869-0.895h-0.005c-5.443-1.541-11.882-2.644-19.413-3.105 19.293-9.816 47.191-9.673 79.269 2.545 19.402 7.396 38.076 18.399 54.833 31.657h-160.32z" fill="#039bc6"/></g><path id="path40" d="m119.57 163h22.182v-22.002h-22.182v22.002zm1.846-1.835h1.752v-18.336h-1.752v18.336zm3.29 0h1.822v-18.336h-1.822v18.336zm3.363 0h1.821v-18.336h-1.821v18.336zm3.361 0h1.823v-18.336h-1.823v18.336zm3.361 0h1.821v-18.336h-1.821v18.336zm3.361 0h1.754v-18.336h-1.754v18.336z" fill-rule="evenodd" fill="#00acd3"/><path id="path42" d="m145.17 188.38h22.186v-22.001h-22.186v22.001zm1.85-1.833h1.75v-18.334h-1.75v18.334zm3.294 0h1.82v-18.334h-1.82v18.334zm3.355 0h1.823v-18.334h-1.823v18.334zm3.365 0h1.819v-18.334h-1.819v18.334zm3.363 0h1.821v-18.334h-1.821v18.334zm3.359 0h1.753v-18.334h-1.753v18.334z" fill-rule="evenodd" fill="#00acd3"/><path id="path44" d="m145.17 163h22.186v-22.002h-22.186v22.002zm1.85-1.835h1.75v-18.336h-1.75v18.336zm3.294 0h1.82v-18.336h-1.82v18.336zm3.355 0h1.823v-18.336h-1.823v18.336zm3.365 0h1.819v-18.336h-1.819v18.336zm3.363 0h1.821v-18.336h-1.821v18.336zm3.359 0h1.753v-18.336h-1.753v18.336z" fill-rule="evenodd" fill="#20c2ef"/><path id="path46" d="m170.77 163h22.185v-22.002h-22.185v22.002zm1.846-1.835h1.752v-18.336h-1.752v18.336zm3.292 0h1.821v-18.336h-1.821v18.336zm3.364 0h1.82v-18.336h-1.82v18.336zm3.361 0h1.82v-18.336h-1.82v18.336zm3.358 0h1.823v-18.336h-1.823v18.336zm3.364 0h1.751v-18.336h-1.751v18.336z" fill-rule="evenodd" fill="#00acd3"/><path id="path48" d="m170.77 188.38h22.185v-22.001h-22.185v22.001zm1.846-1.833h1.752v-18.334h-1.752v18.334zm3.292 0h1.821v-18.334h-1.821v18.334zm3.364 0h1.82v-18.334h-1.82v18.334zm3.361 0h1.82v-18.334h-1.82v18.334zm3.358 0h1.823v-18.334h-1.823v18.334zm3.364 0h1.751v-18.334h-1.751v18.334z" fill-rule="evenodd" fill="#20c2ef"/><path id="path50" d="m196.36 163h22.185v-22.002h-22.185v22.002zm1.847-1.835h1.753v-18.336h-1.753v18.336zm3.294 0h1.821v-18.336h-1.821v18.336zm3.361 0h1.82v-18.336h-1.82v18.336zm3.361 0h1.82v-18.336h-1.82v18.336zm3.361 0h1.822v-18.336h-1.822v18.336zm3.361 0h1.754v-18.336h-1.754v18.336z" fill-rule="evenodd" fill="#20c2ef"/><path id="path52" d="m196.36 188.38h22.185v-22.001h-22.185v22.001zm1.847-1.833h1.753v-18.334h-1.753v18.334zm3.294 0h1.821v-18.334h-1.821v18.334zm3.361 0h1.82v-18.334h-1.82v18.334zm3.361 0h1.82v-18.334h-1.82v18.334zm3.361 0h1.822v-18.334h-1.822v18.334zm3.361 0h1.754v-18.334h-1.754v18.334z" fill-rule="evenodd" fill="#00acd3"/><path id="path54" d="m196.36 213.77h22.185v-22.001h-22.185v22.001zm1.847-1.832h1.753v-18.337h-1.753v18.337zm3.294 0h1.821v-18.337h-1.821v18.337zm3.361 0h1.82v-18.337h-1.82v18.337zm3.361 0h1.82v-18.337h-1.82v18.337zm3.361 0h1.822v-18.337h-1.822v18.337zm3.361 0h1.754v-18.337h-1.754v18.337z" fill-rule="evenodd" fill="#20c2ef"/><path id="path56" d="m221.96 163h22.182v-22.002h-22.182v22.002zm1.849-1.835h1.749v-18.336h-1.749v18.336zm3.292 0h1.818v-18.336h-1.818v18.336zm3.361 0h1.821v-18.336h-1.821v18.336zm3.359 0h1.821v-18.336h-1.821v18.336zm3.364 0h1.82v-18.336h-1.82v18.336zm3.36 0h1.751v-18.336h-1.751v18.336z" fill-rule="evenodd" fill="#00acd3"/><g transform="translate(165.97 105.33)"><path id="path60" d="m0 0c3.38 0 6.122-2.717 6.122-6.066 0-3.356-2.742-6.071-6.122-6.071-3.382 0-6.12 2.715-6.12 6.071 0 3.349 2.738 6.066 6.12 6.066" fill-rule="evenodd" fill="#d4edf1"/></g><g transform="translate(165.97 103.61)"><path id="path64" d="m0 0c0.559 0 1.092-0.109 1.583-0.297-0.531-0.306-0.892-0.881-0.892-1.536 0-0.98 0.8-1.773 1.789-1.773 0.677 0 1.265 0.37 1.567 0.923 0.216-0.514 0.333-1.075 0.333-1.667 0-2.401-1.961-4.349-4.38-4.349-2.421 0-4.385 1.948-4.385 4.349 0 2.399 1.964 4.35 4.385 4.35" fill-rule="evenodd" fill="#394d54"/></g><g transform="translate(182.24 61.591)"><path id="path72" d="m0 0c-15.157 7.134-23.478 16.826-28.108 27.414-5.629-1.594-12.396-2.611-20.26-3.05-2.964-0.167-6.077-0.247-9.347-0.247-3.771 0-7.743 0.112-11.91 0.329 13.898-13.777 30.995-24.383 62.657-24.575 2.335 0 4.659 0.042 6.968 0.129" fill="#bfdbe0"/></g><g transform="translate(159.76 79.238)"><path id="path76" d="m0 0c-2.098 2.822-4.13 6.37-5.626 9.767-5.634-1.594-12.401-2.612-20.265-3.05 5.4-2.908 13.128-5.601 25.891-6.717" fill="#d4edf1"/></g><g transform="translate(57.711 117.91)"><path id="path68" d="m0 0h134.06 16.579 134.06c-6.202 1.561-19.616 3.665-17.402 11.723-11.272-12.937-38.458-9.076-45.318-2.698-7.637-10.989-52.114-6.811-55.214 1.75-9.577-11.147-39.256-11.147-48.836 0-3.1-8.561-47.571-12.739-55.211-1.75-6.863-6.378-34.045-10.239-45.316 2.698 2.211-8.058-11.203-10.162-17.403-11.723" fill-rule="evenodd" fill="#394d54"/></g><path id="path80" d="m412.07 147.03v24.711c0 3.247 2.045 5.859 5.435 5.859h0.938c3.39 0 5.427-2.612 5.427-5.859v-52.025c0-12.685-6.321-22.78-17.332-29.213-5.108-2.975-10.752-4.506-16.673-4.506h-2.339c-12.792 0-22.959 6.272-29.451 17.188-3.016 5.067-4.548 10.656-4.548 16.531v2.322c0 12.687 6.321 22.775 17.328 29.219 5.111 2.992 10.746 4.511 16.671 4.511h2.339c8.66 0 16.01-3.328 22.205-8.738m-46.745-26.152c0-9.167 4.48-16.051 12.579-20.45 3.273-1.773 6.828-2.727 10.565-2.727 9.069 0 15.796 4.241 20.437 11.866 2.156 3.545 3.164 7.425 3.164 11.55 0 7.943-3.794 14.142-10.249 18.744-3.911 2.796-8.318 4.194-13.124 4.194-9.886 0-17.002-4.951-21.273-13.753-1.44-2.973-2.099-6.13-2.099-9.424m99.483 34.89h1.637c13.673 0 24.069-6.579 30.659-18.416 2.635-4.734 4.044-9.902 4.044-15.314v-2.322c0-12.685-6.307-22.796-17.334-29.213-5.109-2.969-10.752-4.506-16.669-4.506h-2.337c-12.794 0-22.961 6.272-29.455 17.188-3.013 5.067-4.548 10.656-4.548 16.531v2.322c0 12.687 6.349 22.746 17.321 29.217 5.106 3.007 10.752 4.513 16.682 4.513m-22.206-34.89c0-8.895 4.406-15.438 11.985-20.038 3.552-2.163 7.47-3.139 11.629-3.139 8.861 0 15.411 4.455 19.974 11.876 2.174 3.535 3.156 7.421 3.156 11.54 0 8.274-4.015 14.588-10.884 19.169-3.763 2.512-7.953 3.769-12.485 3.769-9.887 0-17.002-4.951-21.269-13.753-1.447-2.973-2.106-6.13-2.106-9.424m107.6 22.244c-1.777 0.826-5.113 1.1-7.038 1.173-9.859 0.369-16.992-5.138-21.18-13.762-1.443-2.974-2.1-6.125-2.1-9.416 0-10.025 5.304-17.043 14.33-21.321 3.294-1.559 7.547-1.857 11.149-1.857 3.169 0 7.646 1.923 10.458 3.248l0.486 0.227h2.18l0.241-0.046c2.688-0.556 4.711-2.242 4.711-5.104v-1.161c0-7.122-13.132-8.758-18.142-9.1-17.68-1.215-30.902 8.415-35.946 25.138-0.877 2.907-1.269 5.79-1.269 8.815v2.319c0 12.689 6.346 22.742 17.324 29.206 5.109 3.007 10.75 4.516 16.679 4.516h2.339c6.288 0 12.084-1.771 17.275-5.289l0.43-0.292 0.264-0.439c0.562-0.923 1.046-1.99 1.046-3.088v-1.158c0-2.988-2.255-4.592-4.975-5.112l-0.224-0.037h-0.696c-1.763 0-5.765 1.804-7.342 2.54m38.282-7.926c4.581 4.553 9.184 9.094 13.836 13.572 1.294 1.248 6.203 6.535 8.134 6.535h2.117l0.237-0.05c2.694-0.554 4.713-2.244 4.713-5.112v-1.162c0-1.955-2.313-4.23-3.587-5.569-2.713-2.85-5.566-5.606-8.342-8.399l-14.253-14.35c6.134-6.103 12.267-12.209 18.358-18.358 1.683-1.699 3.368-3.404 5.028-5.128 0.583-0.609 1.452-1.373 1.943-2.218 0.527-0.797 0.853-1.694 0.853-2.651v-1.204l-0.071-0.28c-0.663-2.67-2.372-4.825-5.356-4.825h-0.938c-1.952 0-4.157 2.193-5.493 3.442-2.755 2.577-5.419 5.288-8.123 7.918l-9.056 8.82v-14.098c0-3.242-2.051-5.852-5.437-5.852h-0.932c-3.387 0-5.431 2.61-5.431 5.852v79.435c0 3.249 2.044 5.849 5.431 5.849h0.932c3.386 0 5.437-2.6 5.437-5.849v-36.318zm147.08 20.107h1.17c3.539 0 5.904-2.367 5.904-5.857 0-4.846-4.67-6.086-8.709-6.086-5.304 0-10.36-3.18-14.017-6.746-4.556-4.458-6.549-10.158-6.549-16.432v-28.329c0-3.251-2.047-5.856-5.433-5.856h-0.93c-3.394 0-5.439 2.605-5.439 5.856v29.956c0 11.505 5.647 20.892 15.061 27.483 5.625 3.935 12.057 6.011 18.942 6.011m-83.872-56.146c4.292-1.488 9.19-1.276 13.596-0.515 2.251 0.95 8.017 3.443 10.136 3.08l0.334-0.057 0.301-0.148c1.293-0.624 2.53-1.504 3.191-2.808 1.548-3.063 0.803-6.14-2.229-7.875l-1.01-0.583c-11.194-6.408-23.099-5.519-34.258 0.466-5.335 2.859-9.414 7.107-12.426 12.284l-0.704 1.208c-7.187 12.339-6.216 25.323 1.89 37.059 2.795 4.056 6.451 7.192 10.725 9.642l1.619 0.926c10.544 6.035 21.841 5.623 32.669 0.326 5.82-2.849 10.533-7.096 13.782-12.677l0.587-1.003c2.361-4.062-0.698-7.596-3.855-10.014-3.665-2.799-7.363-6.174-10.875-9.179-7.83-6.704-15.645-13.424-23.473-20.132m-10.136 7.058c8.762 7.448 17.519 14.9 26.251 22.379 2.985 2.551 6.257 5.197 9.222 7.885-2.378 2.965-6.348 5.109-9.72 6.384-6.806 2.571-13.516 1.705-19.759-1.866-8.169-4.676-11.654-12.129-11.348-21.401 0.124-3.649 1.112-7.167 3.068-10.275 0.687-1.096 1.458-2.125 2.286-3.106" fill-rule="evenodd" fill="#394d54"/></g></svg>
