<svg xmlns:rdf="http://www.w3.org/1999/02/22-rdf-syntax-ns#" xmlns="http://www.w3.org/2000/svg" enable-background="new 0 0 612 792" xml:space="preserve" height="83.338" viewBox="0 0 172.692 83.338013" width="172.69" version="1.1" y="0px" x="0px" xmlns:cc="http://creativecommons.org/ns#" xmlns:dc="http://purl.org/dc/elements/1.1/"><g transform="translate(-217.12 -340.65)"><rect height="4.796" width="3.789" y="340.65" x="319.14" fill="#f7941e"/><path id="path7" fill="#2c2255" d="m287.52 360.38v1.854h-17.415c0.165 2.607 0.952 4.593 2.357 5.958 1.407 1.367 3.364 2.049 5.876 2.049 1.455 0 2.864-0.177 4.233-0.535 1.363-0.355 2.716-0.891 4.063-1.605v3.581c-1.359 0.577-2.753 1.017-4.181 1.319-1.427 0.302-2.873 0.452-4.342 0.452-3.677 0-6.592-1.07-8.739-3.212-2.146-2.141-3.221-5.035-3.221-8.687 0-3.772 1.02-6.771 3.057-8.985 2.038-2.215 4.787-3.324 8.242-3.324 3.104 0 5.557 0.997 7.361 2.994s2.709 4.711 2.709 8.141m-3.787-1.112c-0.028-2.072-0.608-3.726-1.74-4.962-1.132-1.233-2.632-1.852-4.497-1.852-2.115 0-3.806 0.597-5.074 1.793-1.271 1.192-2 2.873-2.193 5.041l13.504-0.02z"/><path id="path9" fill="#2c2255" d="m307.16 350.69v3.542c-1.073-0.59-2.146-1.033-3.222-1.328-1.079-0.295-2.165-0.443-3.265-0.443-2.455 0-4.363 0.779-5.722 2.337-1.358 1.557-2.038 3.742-2.038 6.556 0 2.812 0.68 4.999 2.038 6.557s3.267 2.336 5.722 2.336c1.1 0 2.186-0.148 3.265-0.441 1.075-0.296 2.148-0.738 3.222-1.328v3.499c-1.058 0.493-2.153 0.864-3.283 1.112-1.133 0.246-2.337 0.37-3.614 0.37-3.472 0-6.23-1.092-8.274-3.274-2.043-2.18-3.067-5.124-3.067-8.83 0-3.76 1.033-6.717 3.098-8.872 2.064-2.153 4.896-3.231 8.491-3.231 1.166 0 2.305 0.119 3.417 0.36 1.11 0.239 2.187 0.599 3.232 1.078"/><rect height="32.031" width="3.789" y="340.83" x="310.59" fill="#2c2255"/><path id="path13" fill="#2c2255" d="m319.14 349.8h3.789v23.056h-3.789v-23.056z"/><path id="path15" fill="#2c2255" d="m331.35 369.4v12.227h-3.808v-31.824h3.808v3.5c0.796-1.374 1.8-2.392 3.016-3.059 1.214-0.662 2.665-0.997 4.354-0.997 2.799 0 5.073 1.113 6.823 3.335 1.75 2.224 2.624 5.146 2.624 8.769s-0.874 6.547-2.624 8.77-4.024 3.335-6.823 3.335c-1.688 0-3.14-0.333-4.354-0.998-1.217-0.666-2.221-1.687-3.016-3.058m12.885-8.049c0-2.784-0.574-4.971-1.719-6.556-1.146-1.585-2.721-2.377-4.725-2.377-2.005 0-3.578 0.792-4.725 2.377-1.145 1.585-1.718 3.771-1.718 6.556 0 2.787 0.573 4.973 1.718 6.557 1.146 1.585 2.72 2.377 4.725 2.377 2.004 0 3.578-0.792 4.725-2.377 1.145-1.585 1.719-3.77 1.719-6.557"/><path id="path17" fill="#2c2255" d="m365.98 350.48v3.583c-1.071-0.55-2.184-0.96-3.336-1.234-1.152-0.275-2.346-0.412-3.581-0.412-1.88 0-3.29 0.287-4.232 0.863-0.938 0.577-1.407 1.44-1.407 2.595 0 0.878 0.335 1.568 1.009 2.068 0.673 0.502 2.023 0.977 4.053 1.432l1.298 0.286c2.69 0.577 4.602 1.392 5.734 2.44 1.13 1.051 1.698 2.516 1.698 4.394 0 2.141-0.848 3.836-2.543 5.084-1.696 1.25-4.024 1.875-6.99 1.875-1.232 0-2.521-0.12-3.858-0.361-1.338-0.239-2.748-0.6-4.229-1.08v-3.911c1.399 0.728 2.777 1.272 4.138 1.637 1.356 0.364 2.703 0.545 4.034 0.545 1.784 0 3.154-0.305 4.118-0.914 0.96-0.611 1.438-1.473 1.438-2.584 0-1.03-0.347-1.818-1.038-2.368-0.693-0.549-2.213-1.077-4.56-1.586l-1.318-0.308c-2.345-0.495-4.04-1.253-5.083-2.273-1.044-1.022-1.564-2.428-1.564-4.212 0-2.167 0.768-3.841 2.306-5.021 1.536-1.181 3.718-1.771 6.545-1.771 1.398 0 2.717 0.103 3.951 0.309 1.234 0.205 2.373 0.512 3.417 0.924"/><path id="path19" fill="#2c2255" d="m389.81 360.38v1.854h-17.415c0.167 2.607 0.952 4.593 2.357 5.958 1.407 1.367 3.366 2.049 5.878 2.049 1.454 0 2.864-0.177 4.231-0.535 1.363-0.355 2.719-0.891 4.065-1.605v3.581c-1.36 0.577-2.754 1.017-4.183 1.319-1.426 0.302-2.872 0.452-4.34 0.452-3.679 0-6.593-1.07-8.739-3.212-2.148-2.141-3.223-5.035-3.223-8.687 0-3.772 1.021-6.771 3.057-8.985 2.038-2.215 4.787-3.324 8.247-3.324 3.099 0 5.554 0.997 7.356 2.994 1.807 1.996 2.709 4.711 2.709 8.141m-3.787-1.112c-0.028-2.072-0.607-3.726-1.739-4.962-1.134-1.233-2.633-1.852-4.498-1.852-2.113 0-3.806 0.597-5.074 1.793-1.268 1.192-2.002 2.873-2.192 5.041l13.503-0.02z"/></g><g fill="#f7941e" transform="translate(-217.12 -340.65)"><path id="path23" d="m244.48 388.96v2.513h-5.781v3.567h4.814v2.522h-4.814v5.481h-3.286v-14.084h9.067z"/><path id="path25" d="m261.24 396c0 1.019-0.176 1.966-0.526 2.842-0.352 0.877-0.847 1.639-1.484 2.286s-1.406 1.155-2.306 1.522c-0.898 0.367-1.896 0.551-2.991 0.551-1.096 0-2.095-0.184-2.997-0.551s-1.674-0.875-2.315-1.522-1.137-1.409-1.488-2.286c-0.352-0.876-0.526-1.823-0.526-2.842s0.175-1.966 0.526-2.842c0.352-0.877 0.848-1.637 1.488-2.281 0.642-0.645 1.413-1.15 2.315-1.518s1.901-0.552 2.997-0.552c1.095 0 2.093 0.186 2.991 0.556 0.899 0.371 1.668 0.879 2.306 1.523s1.133 1.404 1.484 2.281c0.35 0.877 0.526 1.821 0.526 2.833zm-3.345 0c0-0.696-0.09-1.323-0.271-1.88-0.181-0.558-0.439-1.03-0.778-1.417-0.338-0.386-0.752-0.683-1.242-0.889-0.489-0.206-1.047-0.31-1.672-0.31-0.632 0-1.194 0.104-1.688 0.31-0.492 0.206-0.908 0.503-1.247 0.889-0.338 0.387-0.598 0.859-0.777 1.417-0.181 0.557-0.271 1.184-0.271 1.88 0 0.702 0.091 1.332 0.271 1.89s0.439 1.029 0.777 1.416c0.339 0.387 0.755 0.682 1.247 0.885 0.493 0.203 1.056 0.305 1.688 0.305 0.625 0 1.183-0.102 1.672-0.305 0.49-0.203 0.904-0.498 1.242-0.885 0.339-0.387 0.598-0.858 0.778-1.416s0.271-1.188 0.271-1.89z"/><path id="path27" d="m269.82 400.46c0.438 0 0.83-0.072 1.175-0.218 0.345-0.145 0.637-0.353 0.875-0.623s0.421-0.601 0.546-0.991c0.126-0.39 0.188-0.833 0.188-1.329v-8.342h3.268v8.342c0 0.864-0.141 1.656-0.421 2.378s-0.682 1.344-1.203 1.866c-0.522 0.521-1.157 0.928-1.904 1.218-0.748 0.29-1.589 0.435-2.523 0.435-0.94 0-1.785-0.145-2.532-0.435-0.748-0.29-1.383-0.696-1.904-1.218-0.522-0.522-0.922-1.145-1.198-1.866-0.277-0.722-0.416-1.514-0.416-2.378v-8.342h3.268v8.332c0 0.497 0.062 0.939 0.188 1.329 0.125 0.391 0.308 0.723 0.546 0.996 0.238 0.274 0.53 0.483 0.875 0.628 0.343 0.146 0.735 0.218 1.172 0.218z"/><path id="path29" d="m281.24 388.98c0.097 0.013 0.184 0.037 0.261 0.072s0.151 0.085 0.223 0.149 0.151 0.151 0.241 0.261l6.689 8.459c-0.025-0.271-0.045-0.533-0.058-0.788s-0.02-0.494-0.02-0.72v-7.453h2.881v14.084h-1.701c-0.252 0-0.464-0.039-0.639-0.116-0.174-0.077-0.341-0.219-0.502-0.425l-6.642-8.391c0.02 0.245 0.036 0.484 0.049 0.72s0.02 0.456 0.02 0.662v7.55h-2.881v-14.084h1.721c0.142 0 0.262 0.006 0.358 0.02z"/><path id="path31" d="m307.72 396c0 1.019-0.176 1.957-0.527 2.817s-0.846 1.605-1.483 2.233-1.406 1.118-2.306 1.47c-0.898 0.351-1.896 0.526-2.992 0.526h-5.471v-14.084h5.471c1.096 0 2.094 0.177 2.992 0.531 0.899 0.354 1.668 0.845 2.306 1.47s1.133 1.367 1.483 2.228c0.351 0.861 0.527 1.797 0.527 2.809zm-3.345 0c0-0.696-0.091-1.324-0.271-1.885-0.181-0.561-0.44-1.036-0.778-1.426-0.339-0.391-0.753-0.689-1.242-0.899-0.49-0.209-1.048-0.314-1.673-0.314h-2.185v9.058h2.185c0.625 0 1.183-0.104 1.673-0.313 0.489-0.21 0.903-0.51 1.242-0.899 0.338-0.39 0.598-0.865 0.778-1.426 0.18-0.562 0.271-1.194 0.271-1.896z"/><path id="path33" d="m322.97 403.04h-2.532c-0.284 0-0.518-0.066-0.701-0.198s-0.311-0.301-0.382-0.508l-0.831-2.455h-5.355l-0.831 2.455c-0.064 0.181-0.19 0.344-0.377 0.488-0.188 0.146-0.416 0.218-0.687 0.218h-2.552l5.452-14.084h3.345l5.451 14.084zm-9.048-5.385h3.848l-1.296-3.856c-0.083-0.245-0.182-0.533-0.294-0.865-0.113-0.332-0.225-0.691-0.334-1.078-0.104 0.394-0.209 0.758-0.319 1.093-0.109 0.335-0.212 0.625-0.309 0.87l-1.296 3.836z"/><path id="path35" d="m333.95 388.96v2.591h-3.964v11.493h-3.268v-11.493h-3.963v-2.591h11.195z"/><path id="path37" d="m340.04 403.04h-3.286v-14.084h3.286v14.084z"/><path id="path39" d="m357.71 396c0 1.019-0.176 1.966-0.526 2.842-0.352 0.877-0.847 1.639-1.484 2.286s-1.406 1.155-2.306 1.522c-0.898 0.367-1.896 0.551-2.991 0.551-1.096 0-2.095-0.184-2.997-0.551s-1.674-0.875-2.315-1.522-1.137-1.409-1.488-2.286c-0.352-0.876-0.526-1.823-0.526-2.842s0.175-1.966 0.526-2.842c0.352-0.877 0.848-1.637 1.488-2.281 0.642-0.645 1.413-1.15 2.315-1.518s1.901-0.552 2.997-0.552c1.095 0 2.093 0.186 2.991 0.556 0.899 0.371 1.668 0.879 2.306 1.523s1.133 1.404 1.484 2.281c0.35 0.877 0.526 1.821 0.526 2.833zm-3.345 0c0-0.696-0.09-1.323-0.271-1.88-0.181-0.558-0.439-1.03-0.778-1.417-0.338-0.386-0.752-0.683-1.242-0.889-0.489-0.206-1.047-0.31-1.672-0.31-0.632 0-1.194 0.104-1.688 0.31-0.492 0.206-0.908 0.503-1.247 0.889-0.338 0.387-0.598 0.859-0.777 1.417-0.181 0.557-0.271 1.184-0.271 1.88 0 0.702 0.091 1.332 0.271 1.89s0.439 1.029 0.777 1.416c0.339 0.387 0.755 0.682 1.247 0.885 0.493 0.203 1.056 0.305 1.688 0.305 0.625 0 1.183-0.102 1.672-0.305 0.49-0.203 0.904-0.498 1.242-0.885 0.339-0.387 0.598-0.858 0.778-1.416s0.271-1.188 0.271-1.89z"/><path id="path41" d="m362.52 388.98c0.097 0.013 0.184 0.037 0.261 0.072s0.151 0.085 0.223 0.149 0.151 0.151 0.241 0.261l6.689 8.459c-0.025-0.271-0.045-0.533-0.058-0.788s-0.02-0.494-0.02-0.72v-7.453h2.881v14.084h-1.701c-0.252 0-0.464-0.039-0.639-0.116-0.174-0.077-0.341-0.219-0.502-0.425l-6.642-8.391c0.02 0.245 0.036 0.484 0.049 0.72s0.02 0.456 0.02 0.662v7.55h-2.881v-14.084h1.721c0.142 0 0.261 0.006 0.358 0.02z"/><path id="path43" d="m270.51 418.31c0.119 0.265 0.234 0.535 0.344 0.812 0.109-0.284 0.226-0.56 0.348-0.827s0.248-0.527 0.377-0.779l3.615-7.122c0.064-0.122 0.131-0.218 0.198-0.285 0.068-0.067 0.144-0.118 0.228-0.15s0.179-0.048 0.285-0.048h0.372 2.494v14.074h-2.881v-8.101c0-0.393 0.02-0.818 0.058-1.276l-3.73 7.24c-0.116 0.226-0.272 0.396-0.47 0.513-0.196 0.116-0.42 0.174-0.672 0.174h-0.444c-0.251 0-0.476-0.058-0.672-0.174s-0.353-0.287-0.469-0.513l-3.751-7.25c0.026 0.227 0.046 0.45 0.059 0.672 0.013 0.223 0.02 0.428 0.02 0.614v8.101h-2.881v-14.074h2.494 0.372c0.106 0 0.201 0.016 0.285 0.048 0.083 0.032 0.159 0.083 0.227 0.15s0.134 0.163 0.198 0.285l3.625 7.151c0.128 0.245 0.252 0.5 0.371 0.765z"/><path id="path45" d="m291.31 409.9v2.513h-5.781v3.287h4.428v2.417h-4.428v3.354h5.781v2.514h-9.067v-14.084h9.067z"/><path id="path47" d="m301.9 418.31c0.119 0.265 0.234 0.535 0.344 0.812 0.109-0.284 0.226-0.56 0.348-0.827s0.248-0.527 0.377-0.779l3.615-7.122c0.064-0.122 0.131-0.218 0.198-0.285 0.068-0.067 0.144-0.118 0.228-0.15s0.179-0.048 0.285-0.048h0.372 2.494v14.074h-2.881v-8.101c0-0.393 0.02-0.818 0.058-1.276l-3.73 7.24c-0.116 0.226-0.272 0.396-0.47 0.513-0.196 0.116-0.42 0.174-0.672 0.174h-0.444c-0.251 0-0.476-0.058-0.672-0.174s-0.353-0.287-0.469-0.513l-3.751-7.25c0.026 0.227 0.046 0.45 0.059 0.672 0.013 0.223 0.02 0.428 0.02 0.614v8.101h-2.881v-14.074h2.494 0.372c0.106 0 0.201 0.016 0.285 0.048 0.083 0.032 0.159 0.083 0.227 0.15s0.134 0.163 0.198 0.285l3.625 7.151c0.128 0.245 0.252 0.5 0.371 0.765z"/><path id="path49" d="m313.64 423.99v-14.084h5.181c0.974 0 1.802 0.09 2.484 0.271 0.684 0.181 1.241 0.435 1.673 0.764 0.432 0.328 0.746 0.729 0.942 1.198 0.196 0.471 0.295 0.996 0.295 1.576 0 0.315-0.045 0.62-0.136 0.913-0.09 0.294-0.231 0.569-0.425 0.827s-0.441 0.491-0.744 0.7c-0.304 0.21-0.667 0.392-1.093 0.546 0.928 0.227 1.614 0.592 2.059 1.098s0.667 1.155 0.667 1.948c0 0.599-0.115 1.156-0.348 1.672-0.231 0.516-0.572 0.965-1.02 1.349s-1.001 0.683-1.658 0.898c-0.657 0.217-1.408 0.324-2.252 0.324h-5.625zm3.267-8.158h1.701c0.36 0 0.687-0.026 0.976-0.078 0.29-0.051 0.537-0.142 0.74-0.271s0.357-0.306 0.464-0.531 0.159-0.509 0.159-0.851c0-0.335-0.042-0.614-0.125-0.837-0.084-0.222-0.213-0.4-0.387-0.536-0.175-0.135-0.396-0.231-0.662-0.29-0.268-0.058-0.585-0.087-0.953-0.087h-1.913v3.481zm0 2.185v3.509h2.3c0.432 0 0.785-0.055 1.059-0.164 0.274-0.11 0.488-0.252 0.644-0.426 0.154-0.174 0.261-0.37 0.318-0.59 0.059-0.219 0.087-0.441 0.087-0.667 0-0.258-0.033-0.489-0.102-0.695-0.067-0.207-0.184-0.381-0.348-0.522s-0.382-0.251-0.652-0.329c-0.271-0.077-0.612-0.115-1.024-0.115h-2.282z"/><path id="path51" d="m336.55 409.9v2.513h-5.781v3.287h4.428v2.417h-4.428v3.354h5.781v2.514h-9.067v-14.084h9.067z"/><path id="path53" d="m342.84 418.78v5.21h-3.268v-14.084h4.582c1.018 0 1.887 0.104 2.604 0.313 0.719 0.21 1.306 0.502 1.76 0.875 0.454 0.374 0.784 0.815 0.991 1.324 0.206 0.51 0.309 1.063 0.309 1.663 0 0.458-0.061 0.89-0.184 1.295-0.122 0.406-0.305 0.782-0.546 1.127s-0.538 0.652-0.89 0.923c-0.351 0.271-0.755 0.493-1.213 0.667 0.219 0.109 0.424 0.245 0.614 0.406 0.189 0.161 0.355 0.357 0.497 0.589l2.997 4.901h-2.958c-0.548 0-0.941-0.206-1.18-0.619l-2.339-4.089c-0.104-0.18-0.224-0.309-0.362-0.387-0.139-0.077-0.334-0.115-0.585-0.115h-0.829zm0-2.253h1.314c0.444 0 0.823-0.056 1.136-0.169 0.312-0.112 0.568-0.269 0.769-0.469 0.199-0.2 0.345-0.434 0.435-0.701 0.091-0.267 0.136-0.556 0.136-0.865 0-0.618-0.201-1.102-0.604-1.449-0.402-0.349-1.026-0.522-1.87-0.522h-1.314v4.175z"/></g><path id="path55" fill="#2c2255" d="m11.34 25.46h-6.318c0.836 2.87 2.389 5.442 4.661 7.715 3.623 3.623 7.98 5.434 13.075 5.434 1.019 0 2.005-0.076 2.964-0.221 3.837-0.58 7.197-2.314 10.076-5.213 2.288-2.272 3.851-4.845 4.694-7.715h-2.564-3.749-22.839z"/><g fill="#2c2255" transform="translate(-217.12 -340.65)"><path id="path59" d="m224.97 357.53h-3.301c-0.121 0.725-0.203 1.466-0.24 2.225h3.923 1.968 28.403 2.593c-0.038-0.759-0.12-1.5-0.242-2.225"/><path id="path61" d="m221.43 361.82c0.038 0.759 0.12 1.5 0.24 2.225h3.432 2.601 27.79 2.583c0.122-0.725 0.205-1.466 0.242-2.225"/></g><path id="path63" fill="#2c2255" d="m40.492 14.812c-0.843-2.877-2.406-5.461-4.695-7.75-2.872-2.871-6.222-4.594-10.046-5.173-0.968-0.146-1.964-0.224-2.993-0.224-5.095 0-9.452 1.799-13.075 5.397-2.273 2.289-3.826 4.873-4.663 7.75h35.472z"/><g transform="translate(-217.12 -340.65)"><path id="path67" fill="#f7941e" d="m220.33 360.79c0-9.745 7.318-17.841 16.839-19.265-0.236-0.009-0.474-0.018-0.712-0.018-10.684 0-19.345 8.633-19.345 19.283s8.661 19.283 19.345 19.283c0.239 0 0.477-0.01 0.713-0.018-9.521-1.424-16.84-9.52-16.84-19.265z"/></g><g transform="translate(-217.12 -340.65)"><linearGradient id="SVGID_1_" y2="353.98" gradientUnits="userSpaceOnUse" x2="239.88" y1="381.76" x1="239.88"><stop stop-color="#473788" offset=".3033"/><stop stop-color="#2C2255" offset=".872"/></linearGradient><path id="path76" fill="url(#SVGID_1_)" d="m252.43 359.75c-0.062-0.763-0.19-1.506-0.382-2.225h-24.342c-0.191 0.718-0.32 1.462-0.382 2.225h25.106z"/><linearGradient id="SVGID_2_" y2="353.98" gradientUnits="userSpaceOnUse" x2="239.88" y1="381.77" x1="239.88"><stop stop-color="#473788" offset=".3033"/><stop stop-color="#2C2255" offset=".872"/></linearGradient><path id="path83" fill="url(#SVGID_2_)" d="m252.43 361.82h-25.105c0.062 0.763 0.19 1.506 0.381 2.225h24.342c0.192-0.718 0.32-1.461 0.382-2.225z"/><linearGradient id="SVGID_3_" y2="353.98" gradientUnits="userSpaceOnUse" x2="239.88" y1="381.76" x1="239.88"><stop stop-color="#473788" offset=".3033"/><stop stop-color="#2C2255" offset=".8631"/></linearGradient><path id="path90" fill="url(#SVGID_3_)" d="m239.88 373.38c5.055 0 9.413-2.979 11.419-7.276h-22.838c2.006 4.297 6.364 7.276 11.419 7.276z"/></g><g fill="#fff" transform="translate(-217.12 -340.65)"><path id="path94" d="m225.46 361.82h1.843 25.17 3.306 2.512c0.018-0.329 0.027-0.659 0.027-0.993 0-0.36-0.013-0.718-0.033-1.073h-2.506-3.306-25.17-1.973-3.9c-0.02 0.355-0.033 0.713-0.033 1.073 0 0.333 0.01 0.664 0.027 0.993h4.036z"/><path id="path96" d="m228.38 355.46h-6.245c-0.205 0.673-0.337 1.363-0.465 2.066h3.217 2.739 24.405 3.457 2.47c-0.127-0.703-0.292-1.393-0.497-2.066"/><path id="path98" d="m255.59 364.04h-3.456-24.405-2.608-3.446c0.124 0.703 0.265 1.393 0.467 2.065h6.342 22.897 3.759 2.448c0.202-0.673 0.364-1.363 0.488-2.065h-2.486z"/></g></svg>
