<svg xmlns:rdf="http://www.w3.org/1999/02/22-rdf-syntax-ns#" xmlns="http://www.w3.org/2000/svg" enable-background="new 0 0 612 792" xml:space="preserve" height="134.5" viewBox="0 0 504.27881 134.50398" width="504.28" version="1.1" y="0px" x="0px" xmlns:cc="http://creativecommons.org/ns#" xmlns:dc="http://purl.org/dc/elements/1.1/"><g transform="translate(17.209 12.087)"><path id="path3" d="m30.054 69.273h-16.744c2.217 7.605 6.331 14.421 12.354 20.445 9.602 9.603 21.148 14.398 34.65 14.398 2.699 0 5.314-0.201 7.854-0.584 10.17-1.535 19.074-6.133 26.703-13.814 6.062-6.022 10.205-12.84 12.439-20.445h-6.795-9.936-60.525z" fill="#2c2255"/><g transform="translate(-71.07 -323.66)" fill="#2c2255"><path id="path7" d="m91.891 370.19h-8.747c-0.32 1.922-0.538 3.884-0.637 5.896h10.396 5.215 75.275 6.871c-0.1-2.012-0.318-3.974-0.641-5.896"/><path id="path9" d="m82.507 381.56c0.099 2.013 0.316 3.975 0.637 5.896h9.094 6.893 73.648 6.846c0.322-1.921 0.542-3.883 0.642-5.896"/></g><path id="path11" d="m107.31 41.055c-2.232-7.626-6.376-14.474-12.441-20.54-7.609-7.609-16.488-12.174-26.625-13.71-2.564-0.389-5.205-0.593-7.932-0.593-13.502 0-25.049 4.769-34.65 14.303-6.025 6.066-10.141 12.914-12.357 20.54" fill="#2c2255"/><g transform="translate(-71.07 -323.66)"><path id="path15" d="m79.6 378.83c0-25.824 19.395-47.281 44.626-51.055-0.626-0.023-1.255-0.048-1.887-0.048-28.314 0-51.269 22.88-51.269 51.103 0 28.224 22.954 51.103 51.269 51.103 0.634 0 1.263-0.024 1.891-0.047-25.235-3.78-44.63-25.24-44.63-51.06z" fill="#f7941e"/></g><rect height="12.912" width="10.197" y="0" x="279.59" fill="#f7941e"/><path id="path19" d="m194.46 53.136v4.986h-46.885c0.442 7.023 2.558 12.369 6.345 16.044 3.788 3.678 9.062 5.514 15.822 5.514 3.916 0 7.712-0.479 11.39-1.438 3.676-0.959 7.322-2.402 10.945-4.324v9.645c-3.658 1.552-7.408 2.734-11.251 3.548-3.843 0.812-7.74 1.219-11.693 1.219-9.901 0-17.743-2.881-23.525-8.646-5.782-5.764-8.673-13.556-8.673-23.384 0-10.16 2.743-18.225 8.229-24.191s12.886-8.951 22.195-8.951c8.351 0 14.954 2.688 19.812 8.064 4.86 5.371 7.289 12.678 7.289 21.914m-10.197-2.992c-0.075-5.578-1.636-10.031-4.683-13.355-3.049-3.326-7.085-4.988-12.109-4.988-5.69 0-10.244 1.607-13.661 4.822-3.418 3.213-5.385 7.74-5.902 13.576l36.355-0.055z" fill="#2c2255"/><path id="path21" d="m247.35 27.035v9.531c-2.883-1.588-5.773-2.779-8.673-3.574-2.902-0.795-5.829-1.191-8.785-1.191-6.614 0-11.749 2.096-15.405 6.289-3.658 4.193-5.487 10.078-5.487 17.65 0 7.574 1.829 13.459 5.487 17.652 3.656 4.195 8.791 6.289 15.405 6.289 2.956 0 5.883-0.396 8.785-1.188 2.898-0.795 5.79-1.986 8.673-3.576v9.42c-2.846 1.33-5.793 2.328-8.84 2.992-3.05 0.666-6.289 0.998-9.727 0.998-9.348 0-16.773-2.938-22.277-8.812-5.506-5.873-8.258-13.798-8.258-23.775 0-10.121 2.779-18.084 8.34-23.885 5.56-5.799 13.182-8.701 22.859-8.701 3.142 0 6.208 0.326 9.201 0.971 2.993 0.646 5.893 1.617 8.702 2.91" fill="#2c2255"/><rect height="86.232" width="10.199" y=".48801" x="256.57" fill="#2c2255"/><path id="path25" d="m279.59 24.65h10.197v62.07h-10.197v-62.07z" fill="#2c2255"/><path id="path27" d="m312.48 77.409v32.92h-10.252v-85.679h10.252v9.422c2.144-3.693 4.852-6.438 8.12-8.23 3.27-1.789 7.177-2.688 11.721-2.688 7.538 0 13.662 2.992 18.371 8.979 4.711 5.986 7.065 13.855 7.065 23.607 0 9.756-2.354 17.625-7.065 23.609-4.709 5.984-10.833 8.979-18.371 8.979-4.544 0-8.451-0.896-11.721-2.689-3.27-1.79-5.978-4.534-8.12-8.23m34.693-21.669c0-7.5-1.543-13.383-4.628-17.65s-7.324-6.4-12.72-6.4c-5.395 0-9.635 2.133-12.718 6.4-3.085 4.268-4.629 10.15-4.629 17.65 0 7.502 1.544 13.387 4.629 17.652 3.083 4.269 7.323 6.4 12.718 6.4 5.396 0 9.635-2.133 12.72-6.4 3.085-4.265 4.628-10.15 4.628-17.652" fill="#2c2255"/><path id="path29" d="m405.72 26.48v9.643c-2.884-1.477-5.875-2.586-8.979-3.326-3.104-0.738-6.318-1.107-9.643-1.107-5.062 0-8.857 0.775-11.39 2.328-2.531 1.551-3.794 3.879-3.794 6.982 0 2.363 0.902 4.221 2.714 5.57 1.81 1.348 5.448 2.631 10.918 3.852l3.49 0.775c7.241 1.553 12.387 3.74 15.435 6.568 3.049 2.826 4.573 6.77 4.573 11.83 0 5.764-2.282 10.326-6.847 13.689-4.562 3.36-10.833 5.043-18.813 5.043-3.324 0-6.789-0.324-10.393-0.969-3.603-0.646-7.396-1.617-11.389-2.91v-10.531c3.771 1.961 7.482 3.428 11.14 4.408 3.658 0.979 7.278 1.467 10.862 1.467 4.804 0 8.496-0.82 11.084-2.465 2.587-1.646 3.878-3.963 3.878-6.955 0-2.771-0.932-4.895-2.796-6.375-1.867-1.477-5.959-2.9-12.278-4.268l-3.545-0.83c-6.317-1.33-10.881-3.371-13.688-6.123-2.808-2.752-4.212-6.529-4.212-11.334 0-5.838 2.069-10.344 6.207-13.521 4.138-3.178 10.013-4.768 17.623-4.768 3.769 0 7.315 0.277 10.641 0.83 3.327 0.558 6.393 1.388 9.202 2.497" fill="#2c2255"/><path id="path31" d="m469.86 53.136v4.986h-46.885c0.443 7.023 2.558 12.369 6.347 16.044 3.785 3.678 9.062 5.514 15.82 5.514 3.918 0 7.713-0.479 11.39-1.438s7.323-2.402 10.946-4.324v9.645c-3.659 1.552-7.409 2.734-11.252 3.548-3.841 0.812-7.739 1.219-11.69 1.219-9.904 0-17.745-2.881-23.525-8.646-5.784-5.764-8.675-13.556-8.675-23.384 0-10.16 2.744-18.225 8.229-24.191 5.486-5.967 12.888-8.951 22.196-8.951 8.349 0 14.954 2.688 19.812 8.064 4.857 5.371 7.287 12.678 7.287 21.914m-10.197-2.992c-0.076-5.578-1.635-10.031-4.685-13.355-3.049-3.326-7.086-4.988-12.107-4.988-5.689 0-10.244 1.607-13.66 4.822-3.418 3.213-5.388 7.74-5.903 13.576l36.355-0.055z" fill="#2c2255"/><g transform="translate(-71.07 -323.66)"><linearGradient id="SVGID_1_" y2="432.21" gradientUnits="userSpaceOnUse" y1="358.58" gradientTransform="matrix(1,0,0,-1,0,793)" x2="131.39" x1="131.39"><stop stop-color="#473788" offset=".3033"/><stop stop-color="#2C2255" offset=".872"/></linearGradient><path id="path40" d="m164.65 376.09c-0.164-2.021-0.504-3.992-1.012-5.896h-64.51c-0.508 1.903-0.849 3.874-1.013 5.896h66.535z" fill="url(#SVGID_1_)"/><linearGradient id="SVGID_2_" y2="432.21" gradientUnits="userSpaceOnUse" y1="358.58" gradientTransform="matrix(1,0,0,-1,0,793)" x2="131.39" x1="131.39"><stop stop-color="#473788" offset=".3033"/><stop stop-color="#2C2255" offset=".872"/></linearGradient><path id="path47" d="m164.65 381.56h-66.534c0.164 2.021 0.503 3.992 1.012 5.896h64.511c0.508-1.904 0.847-3.875 1.011-5.896z" fill="url(#SVGID_2_)"/><linearGradient id="SVGID_3_" y2="432.21" gradientUnits="userSpaceOnUse" y1="358.58" gradientTransform="matrix(1,0,0,-1,0,793)" x2="131.39" x1="131.39"><stop stop-color="#473788" offset=".3033"/><stop stop-color="#2C2255" offset=".8631"/></linearGradient><path id="path54" d="m131.39 412.22c13.397 0 24.945-7.893 30.263-19.281h-60.526c5.318 11.388 16.866 19.281 30.263 19.281z" fill="url(#SVGID_3_)"/></g><g transform="translate(-71.07 -323.66)" fill="#fff"><path id="path58" d="m93.188 381.56h4.884 66.706 8.763 6.657c0.046-0.871 0.072-1.748 0.072-2.631 0-0.955-0.035-1.902-0.089-2.845h-6.641-8.763-66.706-5.229-10.335c-0.054 0.942-0.089 1.89-0.089 2.845 0 0.883 0.026 1.76 0.072 2.631h10.698z"/><path id="path60" d="m100.93 364.72h-16.552c-0.544 1.783-0.895 3.612-1.232 5.476h8.525 7.259 64.679 9.16 6.547c-0.338-1.863-0.773-3.692-1.316-5.476"/><path id="path62" d="m173.03 387.46h-9.16-64.678-6.912-9.133c0.328 1.863 0.701 3.691 1.236 5.476h16.807 60.682 9.962 6.488c0.534-1.784 0.965-3.612 1.294-5.476h-6.586z"/></g></g></svg>
