<svg xmlns:rdf="http://www.w3.org/1999/02/22-rdf-syntax-ns#" xmlns="http://www.w3.org/2000/svg" version="1.1" xmlns:cc="http://creativecommons.org/ns#" xmlns:dc="http://purl.org/dc/elements/1.1/" viewBox="0 0 600 100">
<g transform="translate(2010.4 664.92)">
<g transform="matrix(.98742 0 0 .98742 -2257.3 -15.032)">
<g transform="matrix(1.25 0 0 1.25 258.19 -652.08)">
<path id="path43453" d="m121.06 25.141c-0.454-0.156-1.068-0.273-1.843-0.352s-1.443-0.117-2.006-0.117c-0.938 0-1.646 0.239-2.123 0.717-0.478 0.479-0.716 1.219-0.716 2.221v2.312h4.438v4.625h-4.438v20.563h-7.188v-20.563h-2.375v-4.625h2.375v-3.234c0-2.266 0.778-4.168 2.336-5.707 1.557-1.539 3.502-2.309 5.834-2.309 1.174 0 2.289 0.098 3.346 0.293s1.843 0.426 2.359 0.691v5.484z"/>
<path id="path43455" d="m139.36 37.485c-0.453-0.363-1.09-0.683-1.91-0.96-0.82-0.276-1.785-0.415-2.895-0.415-1.297 0-2.391 0.191-3.281 0.572s-1.633 0.852-2.227 1.412v17.016h-7.188v-25.188l7.188-0.5v2.484l2.273-1.402c0.703-0.436 1.512-0.798 2.426-1.087 0.914-0.288 1.754-0.433 2.52-0.433 0.812 0 1.465 0.051 1.957 0.152s0.871 0.215 1.137 0.34v8.008z"/>
<path id="path43457" d="m167.44 43.61h-18.69c0.39 2.033 1.197 3.5 2.422 4.4s2.71 1.35 4.458 1.35c1.404 0 2.956-0.207 4.657-0.621 1.7-0.414 3.042-0.957 4.025-1.629v6.375c-0.922 0.654-2.31 1.172-4.161 1.553-1.853 0.381-3.342 0.572-4.467 0.572-4.455 0-7.933-1.214-10.434-3.643-2.501-2.428-3.751-5.68-3.751-9.756 0-4.106 1.276-7.421 3.831-9.943 2.554-2.521 5.744-3.783 9.571-3.783 3.826 0 6.876 1.349 9.149 4.045 2.272 2.697 3.401 6.391 3.386 11.08zm-6.625-3.375c-0.357-1.88-1.077-3.298-2.157-4.254-1.08-0.955-2.421-1.434-4.021-1.434-1.866 0-3.273 0.518-4.222 1.552s-1.523 2.413-1.725 4.136h12.125z"/>
<path id="path43459" d="m195.8 43.61h-18.69c0.39 2.033 1.197 3.5 2.422 4.4s2.71 1.35 4.458 1.35c1.404 0 2.956-0.207 4.657-0.621 1.7-0.414 3.042-0.957 4.025-1.629v6.375c-0.922 0.654-2.31 1.172-4.161 1.553-1.853 0.381-3.342 0.572-4.467 0.572-4.455 0-7.933-1.214-10.434-3.643-2.501-2.428-3.751-5.68-3.751-9.756 0-4.106 1.276-7.421 3.831-9.943 2.554-2.521 5.744-3.783 9.571-3.783 3.826 0 6.876 1.349 9.149 4.045 2.272 2.697 3.401 6.391 3.386 11.08zm-6.625-3.375c-0.357-1.88-1.077-3.298-2.157-4.254-1.08-0.955-2.421-1.434-4.021-1.434-1.866 0-3.273 0.518-4.222 1.552s-1.523 2.413-1.725 4.136h12.125z"/>
<path id="path43461" d="m223.24 55.11h-5.438l-1.562-2.25-3.778 2.05c-0.313 0.172-0.768 0.299-1.361 0.385-0.595 0.085-1.111 0.128-1.549 0.128-3.692 0-6.497-1.244-8.413-3.733-1.917-2.488-2.883-5.611-2.898-9.368-0.016-4.069 1.137-7.31 3.458-9.72s5.39-3.616 9.204-3.616c1.094 0 2.055 0.086 2.883 0.258s1.626 0.477 2.393 0.914v-11.048h7.062v36zm-7.06-7.688v-11.203c-0.392-0.488-1.041-0.91-1.948-1.265-0.908-0.354-1.894-0.532-2.957-0.532-1.973 0-3.439 0.578-4.401 1.733-0.963 1.155-1.443 2.99-1.443 5.504 0 2.562 0.512 4.476 1.537 5.74 1.025 1.266 2.414 1.897 4.166 1.897 1.127 0 2.116-0.185 2.97-0.556 0.853-0.37 1.545-0.81 2.077-1.319z"/>
<path id="path43463" d="m253.45 43.61h-18.688c0.39 2.033 1.197 3.5 2.422 4.4s2.71 1.35 4.458 1.35c1.404 0 2.956-0.207 4.657-0.621 1.7-0.414 3.042-0.957 4.025-1.629v6.375c-0.922 0.654-2.31 1.172-4.161 1.553-1.853 0.381-3.342 0.572-4.467 0.572-4.455 0-7.933-1.214-10.434-3.643-2.501-2.428-3.751-5.68-3.751-9.756 0-4.106 1.276-7.421 3.831-9.943 2.554-2.521 5.744-3.783 9.571-3.783 3.826 0 6.876 1.349 9.149 4.045 2.272 2.697 3.401 6.391 3.386 11.08zm-6.625-3.375c-0.357-1.88-1.077-3.298-2.157-4.254-1.08-0.955-2.421-1.434-4.021-1.434-1.866 0-3.273 0.518-4.222 1.552s-1.523 2.413-1.725 4.136h12.125z"/>
<path id="path43465" d="m276.31 46.474c0 2.749-0.984 4.959-2.951 6.63s-4.402 2.506-7.307 2.506c-1.358 0-2.986-0.138-4.883-0.411-1.897-0.274-3.58-0.804-5.047-1.589v-6.312c1.156 0.646 2.469 1.203 3.938 1.672s3.172 0.703 5.109 0.703c1.391 0 2.512-0.2 3.363-0.602 0.852-0.4 1.277-1.126 1.277-2.175 0-0.687-0.359-1.244-1.077-1.674s-1.966-0.723-3.745-0.879c-3.184-0.266-5.416-1.038-6.695-2.319-1.28-1.28-1.92-2.998-1.92-5.153 0-2.436 0.98-4.442 2.941-6.02s4.371-2.366 7.23-2.366c1.25 0 2.586 0.113 4.008 0.34s2.633 0.509 3.633 0.848v6.375c-1.25-0.557-2.496-0.967-3.738-1.23s-2.582-0.395-4.02-0.395c-1.156 0-2.059 0.196-2.707 0.587-0.648 0.392-0.973 0.848-0.973 1.369 0 0.953 0.46 1.581 1.38 1.886s1.886 0.488 2.899 0.551c3.086 0.203 5.405 0.969 6.956 2.296s2.327 3.115 2.327 5.363z"/>
<path id="path43467" d="m304.7 55.11h-8.574l-7.052-11.068-1.499 1.394v9.675h-7.188v-36h7.188v19.421l9.669-9.671 4.769 3.185-7.687 7.119 10.374 15.946z"/>
<path id="path43469" d="m318.94 50.735-5.219 4.875c-2.156-0.891-3.773-2.192-4.852-3.905-1.078-1.712-1.617-3.757-1.617-6.134v-11.024h-2.375v-4.625h2.375v-8.312l7.188-0.5v8.812h3.75v4.625h-3.75v9.009c0 1.799 0.406 3.293 1.219 4.481s1.906 2.088 3.281 2.697z"/>
<path id="path43471" d="m347.16 42.047c0 4.139-1.186 7.434-3.557 9.885-2.371 2.452-5.623 3.678-9.756 3.678-4.445 0-7.775-1.233-9.99-3.701-2.215-2.467-3.322-5.754-3.322-9.861 0-3.732 1.192-6.926 3.579-9.58s5.631-3.982 9.733-3.982c4.117 0 7.365 1.227 9.744 3.678 2.379 2.452 3.568 5.747 3.568 9.885zm-7.25 0c0-2.036-0.536-3.848-1.606-5.434-1.071-1.586-2.553-2.379-4.444-2.379-2.174 0-3.729 0.724-4.667 2.169-0.938 1.446-1.407 3.327-1.407 5.644 0 2.161 0.562 4.004 1.688 5.527 1.125 1.523 2.634 2.285 4.526 2.285 2.11 0 3.623-0.617 4.538-1.854 0.914-1.236 1.372-3.223 1.372-5.959z"/>
<path id="path43473" d="m376.46 41.833c0 3.89-1.192 7.096-3.577 9.618-2.385 2.523-5.282 3.784-8.691 3.784-1.174 0-2.249-0.094-3.226-0.279-0.978-0.186-1.771-0.426-2.381-0.721v8.5h-7.062v-32.813l6.758-0.5 0.367 1.492 2.391-1.172c0.766-0.375 1.445-0.668 2.039-0.879s1.297-0.316 2.109-0.316c3.453 0 6.195 1.254 8.227 3.761 2.031 2.508 3.047 5.683 3.047 9.524zm-7.187 0.324c0-2.061-0.541-3.844-1.621-5.35s-2.568-2.26-4.463-2.26c-1.253 0-2.239 0.198-2.96 0.594s-1.269 0.808-1.644 1.234v11.859c0.375 0.434 1.002 0.781 1.879 1.044s1.848 0.394 2.913 0.394c2.02 0 3.508-0.636 4.463-1.908 0.955-1.271 1.433-3.141 1.433-5.607z"/>
<path id="path43475" d="m389.21 55.11h-7.438v-7.625h7.438v7.625z"/>
<path id="path43477" d="m421.16 42.047c0 4.139-1.186 7.434-3.557 9.885-2.371 2.452-5.623 3.678-9.756 3.678-4.445 0-7.775-1.233-9.99-3.701-2.215-2.467-3.322-5.754-3.322-9.861 0-3.732 1.192-6.926 3.579-9.58s5.631-3.982 9.733-3.982c4.117 0 7.365 1.227 9.744 3.678 2.379 2.452 3.568 5.747 3.568 9.885zm-7.25 0c0-2.036-0.536-3.848-1.606-5.434-1.071-1.586-2.553-2.379-4.444-2.379-2.174 0-3.729 0.724-4.667 2.169-0.938 1.446-1.407 3.327-1.407 5.644 0 2.161 0.562 4.004 1.688 5.527 1.125 1.523 2.634 2.285 4.526 2.285 2.11 0 3.623-0.617 4.538-1.854 0.914-1.236 1.372-3.223 1.372-5.959z"/>
<path id="path43479" d="m443.02 37.485c-0.453-0.363-1.09-0.683-1.91-0.96-0.82-0.276-1.785-0.415-2.895-0.415-1.297 0-2.391 0.191-3.281 0.572s-1.633 0.852-2.227 1.412v17.016h-7.188v-25.188l7.188-0.5v2.484l2.273-1.402c0.703-0.436 1.512-0.798 2.426-1.087 0.914-0.288 1.754-0.433 2.52-0.433 0.812 0 1.465 0.051 1.957 0.152s0.871 0.215 1.137 0.34v8.008z"/>
<path id="path43481" d="m469.16 51.914c0 1.577-0.301 2.994-0.9 4.251-0.601 1.256-1.392 2.329-2.373 3.22-0.967 0.874-2.034 1.592-3.203 2.153-1.17 0.561-2.284 0.968-3.344 1.221l-6.242-0.023v-4.062c3.568 0 5.971-0.348 7.207-1.042 1.236-0.695 1.855-1.868 1.855-3.521v-1.781l-2.509 1.688c-0.47 0.312-1.017 0.531-1.642 0.656s-1.204 0.188-1.735 0.188c-3.533 0-6.269-1.184-8.207-3.551s-2.907-5.59-2.907-9.668c0-3.797 1.134-6.918 3.401-9.363s5.121-3.668 8.562-3.668c1.126 0 2.275 0.19 3.448 0.57s2.244 0.981 3.214 1.805l3.875-1.5 1.5 0.438v21.991zm-6.813-5.132v-10.047c-0.404-0.645-0.926-1.16-1.563-1.546s-1.509-0.579-2.612-0.579c-2.068 0-3.546 0.648-4.433 1.943-0.887 1.296-1.329 2.794-1.329 4.495 0 2.264 0.458 4.121 1.376 5.572s2.31 2.177 4.176 2.177c0.948 0 1.812-0.18 2.589-0.539s1.377-0.852 1.797-1.477z"/>
</g>
<path id="path43487" style="block-progression:tb;text-indent:0;color:#000000;text-transform:none" d="m336.59-652.06c-1.3245 0.0701-2.6677 0.27738-4 0.625l-59.5 15.5c-10.659 2.7809-17.062 13.716-14.281 24.375l9.3125 35.688c2.7809 10.66 13.716 17.062 24.375 14.281l59.469-15.5c10.023-2.615 16.227-12.443 14.625-22.469h0.1875l-0.5-1.9062-9.3125-35.688c-2.4333-9.3262-11.104-15.397-20.375-14.906zm0.16 3.06c7.859-0.42476 15.184 4.705 17.25 12.625l8.8125 33.75h-0.0312l0.53125 1.9375c2.3627 9.0512-3.0422 18.263-12.094 20.625l-59.5 15.5c-9.0513 2.3616-18.263-3.0411-20.625-12.094l-9.3125-35.688c-2.3616-9.0514 3.0423-18.263 12.094-20.625l59.5-15.5c1.1314-0.2952 2.2523-0.47057 3.375-0.53125z" fill="#bababa"/>
<path id="path43489" d="m358.74-602.36c2.1862 9.8175-2.27 17.026-11.88 19.309l-52.795 13.775c-9.4612 2.995-17.611-1.4762-19.798-11.045l-7.92-30.352c-2.1862-10.181 0.88625-16.111 11.879-19.309l52.796-13.774c10.18-2.2825 17.611 1.7038 19.798 11.044l7.92 30.352z" fill="#3b80ae"/>
<path id="path43491" opacity=".5" style="block-progression:tb;text-indent:0;color:#000000;text-transform:none" d="m339.06-620.59-3.2812 0.375-47.625 5.5-3.25 0.375 2.3438 2.25 26.812 25.844 1.3125 1.2812 1.0312-1.5312 20.812-31.344 1.8438-2.75zm-6.25 3.8125-17.938 27.062-23.156-22.344 41.094-4.7188z" fill="#fff"/>
<path id="path43623" fill="#fff" d="m342.03-629.83c-0.24074 0.0129-0.47641 0.0305-0.71875 0.0937l-15.438 4.0312c-1.94 0.50625-3.1 2.4988-2.5938 4.4375l2.875 11c0.50625 1.9388 2.4988 3.0988 4.4375 2.5938l15.4-4.02c1.9375-0.50625 3.1-2.4688 2.5938-4.4062l-2.875-11.031c-0.44297-1.6964-2.0023-2.7776-3.6875-2.6875zm-46.25 2.9688c-0.29507 0.0158-0.60922 0.0788-0.90625 0.15625l-18.87 4.91c-2.375 0.62-3.8075 3.0612-3.1875 5.4375l3.5312 13.469c0.61875 2.375 3.03 3.8075 5.4062 3.1875l18.906-4.9375c2.375-0.62 3.7762-3.0312 3.1562-5.4062l-3.5-13.5c-0.54141-2.0792-2.4658-3.4228-4.5312-3.3125zm23.5 31.875c-0.16522 0.009-0.33375 0.0192-0.5 0.0625l-10.562 2.7812c-1.3312 0.34875-2.1275 1.7012-1.7812 3.0312l1.9688 7.5625c0.3475 1.3325 1.7012 2.1275 3.0312 1.7812l10.594-2.7812c1.3312-0.3475 2.1288-1.7 1.7812-3.0312l-1.9688-7.5625c-0.30297-1.1648-1.406-1.9049-2.5625-1.8438z"/>
<path id="path43493-5" style="block-progression:tb;text-indent:0;color:#000000;text-transform:none" d="m341.94-631.38c-0.26181 0.014-0.58966 0.0492-1 0.15625l-15.44 4.03c-2.7484 0.71721-4.435 3.5695-3.7188 6.3125l2.875 11c0.71743 2.7475 3.5697 4.4019 6.3125 3.6875l15.406-4.0312c2.7319-0.71381 4.4346-3.5414 3.7188-6.2812l-2.875-11.031c-0.62538-2.395-2.8911-3.9716-5.2812-3.8438zm-46.25 2.9688c-0.45472 0.0244-0.83136 0.12589-1.1875 0.21875l-18.875 4.9062c-3.1828 0.83088-5.1434 4.128-4.3125 7.3125l3.5312 13.469c0.82631 3.1717 4.0998 5.1114 7.2812 4.2812l18.906-4.9375c3.1743-0.82865 5.1084-4.1128 4.2812-7.2812l-3.5-13.5c-0.72449-2.7823-3.3451-4.6173-6.125-4.4688zm46.438 0.125c0.98021-0.0524 1.8332 0.5334 2.0938 1.5312l2.875 11.031c0.29662 1.1352-0.32563 2.2326-1.4688 2.5312l-15.406 4.0312c-1.1347 0.29557-2.2674-0.36998-2.5625-1.5l-2.875-11c-0.29624-1.1345 0.33715-2.2672 1.4688-2.5625l15.438-4.0312c0.0743-0.0194 0.21783-0.0195 0.4375-0.0312zm-46.25 2.9688c1.3511-0.0722 2.5792 0.78013 2.9375 2.1562l3.5 13.5c0.41285 1.5815-0.45551 3.1199-2.0312 3.5312l-18.906 4.9375c-1.571 0.4099-3.1201-0.51543-3.5312-2.0938l-3.54-13.48c-0.4091-1.568 0.4953-3.1534 2.0625-3.5625l18.875-4.9062c0.23792-0.062 0.48958-0.0865 0.625-0.0937zm23.312 28.781c-0.17151 0.009-0.42683 0.0327-0.78125 0.125h-0.0312l-10.531 2.7812h-0.0312c-2.1115 0.56962-3.4275 2.784-2.875 4.9062l1.9688 7.5625c0.55576 2.1311 2.7752 3.4298 4.9062 2.875l10.594-2.7812c2.129-0.55574 3.4631-2.7729 2.9062-4.9062l-1.9688-7.5625c-0.49178-1.8908-2.2955-3.0983-4.1562-3zm-0.0312 3.0938c-0.003 0.00082 0.031-0.00015 0.0312 0 0.001 0.00088 0.0513 0.007 0.1875 0 0.4523-0.0239 0.85459 0.2486 0.96875 0.6875l1.9688 7.5625c0.13813 0.52917-0.12274 1.017-0.65625 1.1562l-10.6 2.78c-0.52894 0.1377-1.017-0.1536-1.1562-0.6875l-1.96-7.56c-0.13753-0.52829 0.1219-1.0163 0.65625-1.1562h0.0312l10.531-2.7812z" fill="#3b80ae"/>
</g>
</g>
</svg>
