<svg xmlns:rdf="http://www.w3.org/1999/02/22-rdf-syntax-ns#" xmlns="http://www.w3.org/2000/svg" version="1.0" xmlns:cc="http://creativecommons.org/ns#" xmlns:xlink="http://www.w3.org/1999/xlink" viewBox="0 0 442 132" xmlns:dc="http://purl.org/dc/elements/1.1/">
<defs>
<linearGradient id="linearGradient6009">
<stop offset="0"/>
<stop stop-color="#454d53" offset="1"/>
</linearGradient>
<linearGradient id="linearGradient5870">
<stop stop-color="#245ec9" offset="0"/>
<stop stop-color="#4d80df" stop-opacity="0" offset="1"/>
</linearGradient>
<linearGradient id="linearGradient5726">
<stop stop-color="#789820" offset="0"/>
<stop stop-color="#fff" offset="1"/>
</linearGradient>
<linearGradient id="linearGradient5660">
<stop stop-color="#dbeda9" offset="0"/>
<stop stop-color="#afd642" offset="1"/>
</linearGradient>
<linearGradient id="linearGradient5674" y2="-57.557" xlink:href="#linearGradient5660" gradientUnits="userSpaceOnUse" x2="547.77" gradientTransform="matrix(.43423 0 0 .43423 92.858 232.76)" y1="-117.09" x1="547.77"/>
<linearGradient id="linearGradient5684" y2="-155.69" xlink:href="#linearGradient5660" gradientUnits="userSpaceOnUse" x2="117.5" gradientTransform="matrix(.40270 0 0 .40270 -22.221 217.97)" y1="-220.82" x1="117.73"/>
<linearGradient id="linearGradient5732" y2="-236.81" xlink:href="#linearGradient5726" gradientUnits="userSpaceOnUse" x2="175.11" gradientTransform="matrix(.40270 0 0 .40270 -22.221 217.97)" y1="-120.64" x1="176.11"/>
<filter id="filter5752">
<feGaussianBlur stdDeviation="3.1582879"/>
</filter>
<linearGradient id="linearGradient5770" y2="-114.42" xlink:href="#linearGradient5726" gradientUnits="userSpaceOnUse" x2="58.082" gradientTransform="matrix(.40761 0 0 .40761 100.74 64.849)" y1="-18.218" x1="51.007"/>
<filter id="filter5812">
<feGaussianBlur stdDeviation="2.8756286"/>
</filter>
<filter id="filter5816" height="1.0605" width="1.3344" y="-.030253" x="-.16719">
<feGaussianBlur stdDeviation="1.7648875"/>
</filter>
<filter id="filter5912" height="1.322" width="1.1913" y="-.16098" x="-.095652">
<feGaussianBlur stdDeviation="2.75"/>
</filter>
<linearGradient id="linearGradient6015" y2="-136.75" xlink:href="#linearGradient6009" gradientUnits="userSpaceOnUse" x2="350.72" gradientTransform="translate(-57.657 212.53)" y1="-78.391" x1="350.72"/>
<linearGradient id="linearGradient2279" y2="-26.664" xlink:href="#linearGradient5660" gradientUnits="userSpaceOnUse" x2="86.002" gradientTransform="matrix(.40761 0 0 .40761 100.74 64.849)" y1="-127.68" x1="89.802"/>
<linearGradient id="linearGradient3252" y2="-53.532" xlink:href="#linearGradient5660" gradientUnits="userSpaceOnUse" x2="192.06" gradientTransform="matrix(.43423 0 0 .43423 92.858 232.76)" y1="-102.96" x1="188.02"/>
<linearGradient id="linearGradient3260" y2="-76.515" xlink:href="#linearGradient5726" gradientUnits="userSpaceOnUse" x2="146.61" gradientTransform="matrix(.43423 0 0 .43423 92.858 232.76)" y1="-71.273" x1="206.35"/>
<linearGradient id="linearGradient3262" y2="-147.26" xlink:href="#linearGradient5660" gradientUnits="userSpaceOnUse" x2="115.98" gradientTransform="matrix(.40270 0 0 .40270 -22.221 217.97)" y1="-232.97" x1="129.79"/>
<linearGradient id="linearGradient3303" y2="135.62" xlink:href="#linearGradient5870" gradientUnits="userSpaceOnUse" x2="141.25" gradientTransform="translate(100,54)" y1="107.36" x1="119.5"/>
<linearGradient id="linearGradient3307" y2="135.62" xlink:href="#linearGradient5870" gradientUnits="userSpaceOnUse" x2="141.25" gradientTransform="translate(48,14)" y1="107.36" x1="119.5"/>
<linearGradient id="linearGradient3322" y2="97.271" gradientUnits="userSpaceOnUse" x2="74.638" gradientTransform="translate(48,-40)" y1="118.27" x1="111.02">
<stop stop-color="#588ddb" offset="0"/>
<stop stop-color="#97b9e9" offset="1"/>
</linearGradient>
<linearGradient id="linearGradient3325" y2="122.98" gradientUnits="userSpaceOnUse" x2="82.731" gradientTransform="translate(48,-40)" y1="157.26" x1="82.731">
<stop stop-color="#1f54b4" offset="0"/>
<stop stop-color="#153a7e" offset="1"/>
</linearGradient>
<linearGradient id="linearGradient3328" y2="164.78" gradientUnits="userSpaceOnUse" x2="125.24" gradientTransform="translate(48,-40)" y1="120.99" x1="113.51">
<stop stop-color="#245ec9" offset="0"/>
<stop stop-color="#4d80df" offset="1"/>
</linearGradient>
<linearGradient id="linearGradient7126" y2="-60.427" xlink:href="#linearGradient5660" gradientUnits="userSpaceOnUse" x2="287.42" y1="-119.64" x1="287.42"/>
<linearGradient id="linearGradient7128" y2="-60.427" xlink:href="#linearGradient5660" gradientUnits="userSpaceOnUse" x2="287.42" gradientTransform="matrix(.40761 0 0 .40761 100.74 64.849)" y1="-119.64" x1="287.42"/>
<linearGradient id="linearGradient7428" y2="-136.75" xlink:href="#linearGradient6009" gradientUnits="userSpaceOnUse" x2="350.72" gradientTransform="translate(-122.06 175.56)" y1="-78.391" x1="350.72"/>
</defs>
<g transform="translate(-64.4 -36.962)">
<path d="m141 93.362 49-26v55l-49 26v-55z" fill="url(#linearGradient3328)"/>
<path id="path3208" d="m141 93.362-49-30v55l49 30v-55z" fill="url(#linearGradient3325)"/>
<path id="path3210" d="m190 68.362-48.51-30-49.49 25l48.505 30 49.495-25z" fill="url(#linearGradient3322)"/>
<g transform="translate(-2,2)">
<g transform="matrix(.37926 -.22836 .33528 .22570 160.55 134.77)" filter="url(#filter5752)" stroke="#577300" stroke-width="9.9331" fill="#98ca01">
<path id="path7420" d="m157.7-200.59q0 7.7629-1.5778 14.327-1.5147 6.5638-4.7335 11.297-3.2188 4.7335-8.2047 7.4474-4.9228 2.6508-11.676 2.6508-3.0294 0-6.0589-0.63113-2.9663-0.63114-5.6802-2.0196-2.7139-1.4516-5.0491-3.7237-2.2721-2.3352-3.913-5.7433h-0.37868q0.0631 0.31557 0.12623 1.5778 0.0631 1.2623 0.12623 2.9663 0.0631 1.6409 0.0631 3.5343 0.0631 1.8303 0.0631 3.4081v26.192h-17.735v-79.397q0-5.2384-0.18934-9.3408-0.12623-4.1024-0.31557-6.3744h17.23q0.12623 0.4418 0.25245 1.7041 0.18934 1.2623 0.25246 2.9032 0.12622 1.641 0.18934 3.4081 0.0631 1.7672 0.0631 3.0926h0.25245q3.2188-6.7531 8.8359-9.6563t13.001-2.9032q6.5007 0 11.234 2.6508 4.7335 2.6508 7.7629 7.3211 3.0926 4.6704 4.5442 11.171 1.5147 6.4376 1.5147 14.137zm-18.492 0q0-11.676-3.5343-17.293-3.5344-5.6802-10.54-5.6802-2.6508 0-5.3015 1.136-2.5876 1.0729-4.6704 3.7868-2.0196 2.6508-3.345 7.1949-1.2623 4.481-1.2623 11.36 0 6.69 1.2623 11.171 1.2623 4.4179 3.2819 7.0687 2.0827 2.6508 4.6704 3.7868 2.5876 1.0729 5.2384 1.0729 3.4081 0 6.0589-1.3254 2.6508-1.3885 4.4179-4.2286 1.8303-2.9032 2.777-7.3842t0.9467-10.666z"/>
</g>
<g transform="matrix(.94181 -.56707 .83259 .56048 0 0)" stroke="url(#linearGradient5732)" stroke-width="2" fill="url(#linearGradient5684)">
<path id="path7423" d="m41.286 137.19q0 3.1261-0.63538 5.7693-0.60997 2.6432-1.9062 4.5494t-3.304 2.999q-1.9824 1.0674-4.7019 1.0674-1.2199 0-2.4399-0.25416-1.1945-0.25415-2.2874-0.81329-1.0929-0.58455-2.0332-1.4995-0.91496-0.94037-1.5758-2.3128h-0.15249q0.02542 0.12708 0.05083 0.63539 0.02542 0.5083 0.05083 1.1945 0.02541 0.6608 0.02541 1.4233 0.02542 0.73705 0.02542 1.3724v10.547h-7.1417v-31.973q0-2.1095-0.07625-3.7615-0.05083-1.652-0.12708-2.567h6.9384q0.05083 0.17791 0.10166 0.68622 0.07625 0.5083 0.10166 1.1691 0.05083 0.6608 0.07625 1.3724 0.02541 0.71163 0.02541 1.2454h0.10166q1.2962-2.7194 3.5582-3.8886 2.262-1.1691 5.2356-1.1691 2.6178 0 4.5239 1.0674 1.9062 1.0674 3.1261 2.9482 1.2454 1.8807 1.8299 4.4985 0.60997 2.5924 0.60997 5.693zm-7.4467 0q0-4.7018-1.4233-6.9638-1.4233-2.2874-4.2444-2.2874-1.0674 0-2.1349 0.45748-1.042 0.43206-1.8807 1.5249-0.81329 1.0674-1.347 2.8974-0.50831 1.8045-0.50831 4.5748 0 2.694 0.50831 4.4985 0.50831 1.7791 1.3216 2.8465 0.83871 1.0674 1.8807 1.5249 1.042 0.43206 2.1095 0.43206 1.3724 0 2.4399-0.53372 1.0674-0.55914 1.7791-1.7028 0.73705-1.1691 1.1183-2.9736 0.38123-1.8045 0.38123-4.2952z" stroke="url(#linearGradient5732)" stroke-width="2" fill="url(#linearGradient5684)"/>
</g>
<g fill="url(#linearGradient3262)" transform="matrix(.94181 -.56707 .83259 .56048 0 0)">
<path id="path7426" fill="url(#linearGradient3262)" d="m41.286 137.19q0 3.1261-0.63538 5.7693-0.60997 2.6432-1.9062 4.5494t-3.304 2.999q-1.9824 1.0674-4.7019 1.0674-1.2199 0-2.4399-0.25416-1.1945-0.25415-2.2874-0.81329-1.0929-0.58455-2.0332-1.4995-0.91496-0.94037-1.5758-2.3128h-0.15249q0.02542 0.12708 0.05083 0.63539 0.02542 0.5083 0.05083 1.1945 0.02541 0.6608 0.02541 1.4233 0.02542 0.73705 0.02542 1.3724v10.547h-7.1417v-31.973q0-2.1095-0.07625-3.7615-0.05083-1.652-0.12708-2.567h6.9384q0.05083 0.17791 0.10166 0.68622 0.07625 0.5083 0.10166 1.1691 0.05083 0.6608 0.07625 1.3724 0.02541 0.71163 0.02541 1.2454h0.10166q1.2962-2.7194 3.5582-3.8886 2.262-1.1691 5.2356-1.1691 2.6178 0 4.5239 1.0674 1.9062 1.0674 3.1261 2.9482 1.2454 1.8807 1.8299 4.4985 0.60997 2.5924 0.60997 5.693zm-7.4467 0q0-4.7018-1.4233-6.9638-1.4233-2.2874-4.2444-2.2874-1.0674 0-2.1349 0.45748-1.042 0.43206-1.8807 1.5249-0.81329 1.0674-1.347 2.8974-0.50831 1.8045-0.50831 4.5748 0 2.694 0.50831 4.4985 0.50831 1.7791 1.3216 2.8465 0.83871 1.0674 1.8807 1.5249 1.042 0.43206 2.1095 0.43206 1.3724 0 2.4399-0.53372 1.0674-0.55914 1.7791-1.7028 0.73705-1.1691 1.1183-2.9736 0.38123-1.8045 0.38123-4.2952z"/>
</g>
</g>
<g transform="matrix(.43412 -.24042 0 .43434 92.835 181.41)" filter="url(#filter5812)" stroke="#577300" stroke-width="6.9087" fill="none">
<path id="path7417" d="m160.33-39.932q-4.9228 0-8.8359-1.3254-3.8499-1.3885-6.5638-3.9761-2.7139-2.6508-4.1655-6.5007t-1.4516-8.7727q0-6.0589 2.0827-10.161 2.1458-4.1655 5.8064-6.69 3.6606-2.5876 8.5834-3.7237 4.9228-1.1992 10.477-1.2623l14.705-0.25245v-3.4712q0-3.7237-0.69424-6.1851-0.63114-2.5245-1.8934-4.1024-1.2623-1.5778-3.1557-2.209-1.8303-0.69425-4.2286-0.69425-2.209 0-3.9761 0.44179-1.7041 0.44179-2.9663 1.5778-1.2623 1.0729-2.0827 2.9663-0.75736 1.8303-1.0729 4.6704l-18.492-0.88359q0.75736-4.481 2.777-8.1416 2.0196-3.7237 5.554-6.4376 3.5975-2.7139 8.7728-4.1655 5.2384-1.5147 12.244-1.5147 6.3744 0 11.36 1.5778 4.986 1.5778 8.4572 4.7335 3.4712 3.0926 5.3015 7.6367 1.8303 4.5442 1.8303 10.54v24.867q0 2.3983 0.18934 4.2917 0.25246 1.8934 0.82048 3.2188 0.63113 1.2623 1.7041 1.9565 1.136 0.63113 2.9032 0.63113 2.0196 0 3.913-0.37868v9.5932q-1.5778 0.37868-2.8401 0.69425t-2.5245 0.50491q-1.2623 0.18934-2.7139 0.31557-1.3885 0.12623-3.2819 0.12623-6.69 0-9.9088-3.2819-3.1557-3.2819-3.7868-9.6563h-0.37868q-3.5344 6.3744-9.0883 9.9088-5.4909 3.5343-13.38 3.5343zm20.638-32.882-9.0883 0.12623q-2.8401 0.12623-5.4277 0.50491-2.5245 0.31557-4.481 1.4516-1.8934 1.0729-3.0294 3.1557-1.136 2.0827-1.136 5.6802 0 4.8597 2.209 7.258 2.2721 2.3352 5.9958 2.3352 3.4081 0 6.1851-1.4516t4.6704-3.7868q1.9565-2.3983 3.0294-5.4909t1.0729-6.3113v-3.4712z"/>
</g>
<g transform="matrix(.99975 -.55366 0 1.0002 0 0)" stroke="url(#linearGradient3260)" stroke-width="2" fill="url(#linearGradient3252)">
<path id="path7414" d="m162.48 215.42q-2.1376 0-3.8368-0.57552-1.6718-0.60293-2.8502-1.7266-1.1784-1.151-1.8088-2.8228-0.63034-1.6718-0.63034-3.8094 0-2.631 0.90439-4.4123 0.9318-1.8088 2.5213-2.905 1.5895-1.1236 3.7272-1.6169 2.1377-0.52071 4.5494-0.54812l6.3856-0.10962v-1.5073q0-1.617-0.30147-2.6858-0.27406-1.0962-0.82217-1.7814-0.54812-0.68515-1.3703-0.95921-0.79477-0.30146-1.8362-0.30146-0.95921 0-1.7266 0.19184-0.73996 0.19184-1.2881 0.68514-0.54811 0.4659-0.90439 1.2881-0.32887 0.79477-0.4659 2.028l-8.0299-0.38368q0.32887-1.9458 1.2058-3.5354 0.87699-1.617 2.4117-2.7954 1.5621-1.1784 3.8094-1.8088 2.2747-0.65774 5.3167-0.65774 2.768 0 4.933 0.68514 2.1651 0.68515 3.6724 2.0554 1.5073 1.3429 2.3021 3.3161 0.79477 1.9732 0.79477 4.5768v10.798q0 1.0414 0.0822 1.8636 0.10962 0.82217 0.35628 1.3977 0.27405 0.54811 0.73995 0.84958 0.49331 0.27406 1.2607 0.27406 0.87699 0 1.6992-0.16444v4.1657q-0.68514 0.16443-1.2333 0.30146-0.54812 0.13703-1.0962 0.21925-0.54812 0.0822-1.1784 0.13703-0.60293 0.0548-1.4251 0.0548-2.905 0-4.3027-1.4251-1.3703-1.4251-1.6444-4.1931h-0.16444q-1.5347 2.768-3.9464 4.3027-2.3843 1.5347-5.81 1.5347zm8.9617-14.278-3.9464 0.0548q-1.2333 0.0548-2.3569 0.21925-1.0962 0.13703-1.9458 0.63033-0.82217 0.4659-1.3155 1.3703-0.4933 0.90439-0.4933 2.4665 0 2.1102 0.9592 3.1517 0.98661 1.014 2.6036 1.014 1.4799 0 2.6858-0.63033 1.2058-0.63034 2.028-1.6444 0.84958-1.0414 1.3155-2.3843 0.4659-1.3429 0.4659-2.7406v-1.5073z" stroke="url(#linearGradient3260)" stroke-width="2" fill="url(#linearGradient3252)"/>
</g>
<g fill="url(#linearGradient5674)" transform="matrix(.99975 -.55366 0 1.0002 0 0)">
<path id="path7411" fill="url(#linearGradient5674)" d="m162.48 215.42q-2.1376 0-3.8368-0.57552-1.6718-0.60293-2.8502-1.7266-1.1784-1.151-1.8088-2.8228-0.63034-1.6718-0.63034-3.8094 0-2.631 0.90439-4.4123 0.9318-1.8088 2.5213-2.905 1.5895-1.1236 3.7272-1.6169 2.1377-0.52071 4.5494-0.54812l6.3856-0.10962v-1.5073q0-1.617-0.30147-2.6858-0.27406-1.0962-0.82217-1.7814-0.54812-0.68515-1.3703-0.95921-0.79477-0.30146-1.8362-0.30146-0.95921 0-1.7266 0.19184-0.73996 0.19184-1.2881 0.68514-0.54811 0.4659-0.90439 1.2881-0.32887 0.79477-0.4659 2.028l-8.0299-0.38368q0.32887-1.9458 1.2058-3.5354 0.87699-1.617 2.4117-2.7954 1.5621-1.1784 3.8094-1.8088 2.2747-0.65774 5.3167-0.65774 2.768 0 4.933 0.68514 2.1651 0.68515 3.6724 2.0554 1.5073 1.3429 2.3021 3.3161 0.79477 1.9732 0.79477 4.5768v10.798q0 1.0414 0.0822 1.8636 0.10962 0.82217 0.35628 1.3977 0.27405 0.54811 0.73995 0.84958 0.49331 0.27406 1.2607 0.27406 0.87699 0 1.6992-0.16444v4.1657q-0.68514 0.16443-1.2333 0.30146-0.54812 0.13703-1.0962 0.21925-0.54812 0.0822-1.1784 0.13703-0.60293 0.0548-1.4251 0.0548-2.905 0-4.3027-1.4251-1.3703-1.4251-1.6444-4.1931h-0.16444q-1.5347 2.768-3.9464 4.3027-2.3843 1.5347-5.81 1.5347zm8.9617-14.278-3.9464 0.0548q-1.2333 0.0548-2.3569 0.21925-1.0962 0.13703-1.9458 0.63033-0.82217 0.4659-1.3155 1.3703-0.4933 0.90439-0.4933 2.4665 0 2.1102 0.9592 3.1517 0.98661 1.014 2.6036 1.014 1.4799 0 2.6858-0.63033 1.2058-0.63034 2.028-1.6444 0.84958-1.0414 1.3155-2.3843 0.4659-1.3429 0.4659-2.7406v-1.5073z"/>
</g>
<path id="path5686" opacity=".3" stroke-linejoin="bevel" d="m141 93.362 49-26v55l-49 26v-55z" stroke="#fff" fill="none"/>
<path id="path5688" opacity=".3" stroke-linejoin="bevel" d="m141 93.362-49-30v55l49 30v-55z" stroke="#fff" fill="none"/>
<path id="path5690" opacity=".3" stroke-linejoin="bevel" d="m190 68.362-48.51-30-49.49 25l48.505 30 49.495-25z" stroke="#fff" fill="none"/>
<g transform="translate(-2,-2)">
<g transform="matrix(.39470 .28901 0 .42094 97.548 138.4)" filter="url(#filter5816)" stroke="#577300" stroke-width="7.3599" fill="url(#linearGradient7126)">
<path id="path7402" fill="url(#linearGradient7126)" d="m35.349-140.48v-13.064h17.735v13.064h-17.735zm0 80.596v-68.289h17.735v68.289h-17.735z"/>
</g>
<g fill="url(#linearGradient7128)" transform="matrix(.96833 .70904 0 1.0327 0 0)">
<path id="path7405" fill="url(#linearGradient7128)" d="m115.15 7.5891v-5.3252h7.2289v5.3252h-7.2289zm0 32.852v-27.835h7.2289v27.835h-7.2289z"/>
</g>
<g transform="matrix(.96833 .70904 0 1.0327 0 0)" stroke="url(#linearGradient5770)" fill="url(#linearGradient2279)">
<path id="path7408" d="m115.15 7.5891v-5.3252h7.2289v5.3252h-7.2289zm0 32.852v-27.835h7.2289v27.835h-7.2289z" stroke="url(#linearGradient5770)" fill="url(#linearGradient2279)"/>
</g>
</g>
<path id="path5866" opacity=".43716" d="m141 147.36 49-26 20 15-49 26-20-15z" filter="url(#filter5912)" fill="url(#linearGradient3307)"/>
<path id="path5916" opacity=".43716" d="m193 187.36 49-26 20 15-49 26-20-15z" transform="matrix(-1,0,0,1,333,-40)" filter="url(#filter5912)" fill="url(#linearGradient3303)"/>
<g fill="url(#linearGradient6015)">
<path id="path7387" fill="url(#linearGradient7428)" d="m175.27 11.613c-2.6 0-4.71 0.354-6.35 1.059-1.63 0.673-2.93 1.616-3.89 2.834-0.93 1.185-1.57 2.596-1.92 4.23-0.36 1.602-0.53 3.348-0.53 5.239v5.863h-7.31v6.297h7.31v45.707h8.65v-45.707h10.14v-6.297h-10.14v-4.662c0-1.25 0.08-2.355 0.24-3.317 0.19-0.961 0.51-1.761 0.96-2.402 0.48-0.673 1.12-1.185 1.92-1.537 0.84-0.353 1.89-0.529 3.18-0.529 0.57 0 1.21 0.048 1.92 0.144 0.74 0.064 1.38 0.144 1.92 0.24v-6.586c-0.83-0.192-1.81-0.335-2.93-0.431-1.09-0.096-2.15-0.145-3.17-0.145zm134.38 3.51v67.719h9.18v-67.719h-9.18zm20.53 0v67.719h9.18v-26.387h19.9c3.87 0 7.27-0.543 10.19-1.633 2.91-1.089 5.33-2.563 7.25-4.422 1.96-1.89 3.41-4.101 4.38-6.632 0.99-2.564 1.49-5.32 1.49-8.268 0-3.044-0.5-5.815-1.49-8.314-1-2.532-2.49-4.678-4.47-6.44-1.99-1.794-4.47-3.173-7.45-4.135-2.98-0.993-6.48-1.488-10.48-1.488h-28.5zm72.43 0l-27.64 67.719h9.52l7.79-19.801h30.85l7.74 19.801h9.37l-27.2-67.719h-10.43zm5.09 6.92c0.04 0.16 0.16 0.609 0.39 1.346 0.25 0.705 0.56 1.602 0.91 2.691 0.35 1.057 0.75 2.243 1.2 3.557 0.48 1.313 0.98 2.611 1.49 3.892l8.7 22.35h-25.33l8.65-22.252c0.49-1.282 0.95-2.581 1.4-3.895 0.48-1.313 0.89-2.514 1.25-3.603 0.38-1.09 0.69-2.003 0.91-2.74 0.23-0.737 0.37-1.186 0.43-1.346zm-68.34 0.434h18.21c5.26 0 9.2 1.12 11.83 3.363 2.62 2.211 3.94 5.464 3.94 9.758 0 4.389-1.25 7.752-3.75 10.091-2.47 2.339-6.35 3.51-11.63 3.51h-18.6v-26.722zm-136.31 7.4c-1.83 0-3.38 0.24-4.66 0.721-1.28 0.448-2.39 1.154-3.32 2.115-0.93 0.929-1.75 2.131-2.45 3.605-0.67 1.442-1.32 3.156-1.92 5.143h-0.2c0-0.641-0.01-1.41-0.04-2.307 0-0.929-0.04-1.891-0.1-2.884-0.03-0.994-0.08-1.954-0.15-2.883-0.03-0.962-0.06-1.812-0.09-2.549h-8.17c0.03 0.737 0.06 1.571 0.09 2.5 0.04 0.929 0.07 1.923 0.1 2.98 0.03 1.058 0.05 2.163 0.05 3.317 0.03 1.121 0.05 2.227 0.05 3.316v39.891h8.65v-27.108c0-2.595 0.21-4.981 0.62-7.16 0.42-2.211 1.06-4.102 1.93-5.672 0.89-1.602 2.03-2.851 3.41-3.748 1.41-0.897 3.11-1.345 5.09-1.345 0.96 0 1.83 0.046 2.6 0.142 0.77 0.064 1.44 0.178 2.02 0.338v-7.932c-0.36-0.096-0.85-0.191-1.49-0.287-0.64-0.128-1.32-0.193-2.02-0.193zm26.91 0c-3.2 0-6.21 0.48-9.03 1.441-2.82 0.93-5.29 2.452-7.4 4.567-2.12 2.115-3.79 4.871-5 8.267-1.22 3.365-1.83 7.482-1.83 12.352 0 9.036 2 15.844 6.01 20.426 4.04 4.582 9.9 6.873 17.59 6.873 3.46 0 6.41-0.369 8.84-1.106 2.47-0.769 4.52-1.729 6.16-2.883 1.63-1.185 2.93-2.499 3.89-3.941 0.99-1.474 1.76-2.931 2.31-4.373l-7.6-2.164c-0.8 2.307-2.34 4.215-4.61 5.721-2.24 1.506-5.24 2.257-8.99 2.257-2.56 0-4.76-0.448-6.58-1.345-1.83-0.929-3.34-2.21-4.52-3.844-1.16-1.666-2.02-3.637-2.6-5.912-0.54-2.307-0.81-4.823-0.81-7.547h37.1v-1.152c0-3.909-0.38-7.546-1.15-10.91-0.74-3.365-2.01-6.281-3.8-8.749-1.76-2.499-4.12-4.453-7.06-5.863-2.92-1.41-6.56-2.115-10.92-2.115zm49.03 0c-3.21 0-6.22 0.48-9.04 1.441-2.82 0.93-5.28 2.452-7.4 4.567-2.11 2.115-3.78 4.871-5 8.267-1.21 3.365-1.82 7.482-1.82 12.352 0 9.036 2 15.844 6 20.426 4.04 4.582 9.91 6.873 17.6 6.873 3.46 0 6.4-0.369 8.84-1.106 2.47-0.769 4.52-1.729 6.15-2.883 1.63-1.185 2.93-2.499 3.89-3.941 1-1.474 1.77-2.931 2.31-4.373l-7.59-2.164c-0.8 2.307-2.34 4.215-4.62 5.721-2.24 1.506-5.23 2.257-8.98 2.257-2.57 0-4.76-0.448-6.59-1.345-1.83-0.929-3.33-2.21-4.52-3.844-1.15-1.666-2.02-3.637-2.59-5.912-0.55-2.307-0.82-4.823-0.82-7.547h37.1v-1.152c0-3.909-0.38-7.546-1.15-10.91-0.74-3.365-2-6.281-3.8-8.749-1.76-2.499-4.11-4.453-7.06-5.863-2.92-1.41-6.55-2.115-10.91-2.115zm-49.17 6.393c4.33 0 7.64 1.265 9.95 3.796 2.31 2.5 3.7 6.49 4.18 11.969h-28.07c0.13-3.14 0.66-5.719 1.59-7.738 0.93-2.051 2.07-3.67 3.41-4.856 1.35-1.185 2.8-2.002 4.37-2.451 1.61-0.48 3.13-0.72 4.57-0.72zm49.02 0c4.33 0 7.65 1.265 9.95 3.796 2.31 2.5 3.7 6.49 4.18 11.969h-28.06c0.12-3.14 0.65-5.719 1.58-7.738 0.93-2.051 2.07-3.67 3.41-4.856 1.35-1.185 2.81-2.002 4.38-2.451 1.6-0.48 3.12-0.72 4.56-0.72z" transform="translate(64.4 36.962)"/>
</g>
<path id="path7348" d="m299.91 92.568v22.102h1.91v-22.102h-1.91zm82 0v22.102h1.91v-22.102h-1.91zm-158.56 0.202v1.98h2.07v-1.98h-2.07zm12 0v4.828 0.345 0.518c0.01 0.177 0.01 0.35 0.01 0.519 0.01 0.162 0.01 0.279 0.01 0.356h-0.02c-0.39-0.753-0.89-1.301-1.52-1.647-0.63-0.345-1.42-0.519-2.37-0.519-3.05 0-4.58 2.174-4.58 6.52 0 2.15 0.37 3.76 1.11 4.82s1.9 1.59 3.47 1.59c0.94 0 1.73-0.17 2.36-0.52s1.14-0.92 1.53-1.72h0.04c0 0.2 0.01 0.41 0.02 0.61 0 0.2 0.01 0.4 0.02 0.58 0.02 0.19 0.03 0.35 0.03 0.49 0.02 0.14 0.03 0.25 0.05 0.33h1.98c-0.01-0.07-0.01-0.19-0.02-0.35-0.01-0.17-0.02-0.37-0.02-0.6-0.01-0.23-0.02-0.48-0.03-0.76v-0.86-14.53h-2.07zm33.52 0v1.98h2.08v-1.98h-2.08zm71.24 0v17.1h2.08v-17.1h-2.08zm4.11 0v1.98h2.07v-1.98h-2.07zm84.36 0v4.828 0.345 0.518c0.01 0.177 0.02 0.35 0.02 0.519 0 0.162 0.01 0.279 0.01 0.356h-0.03c-0.38-0.753-0.89-1.301-1.52-1.647-0.63-0.345-1.41-0.519-2.36-0.519-3.06 0-4.58 2.174-4.58 6.52 0 2.15 0.36 3.76 1.1 4.82 0.75 1.06 1.91 1.59 3.48 1.59 0.94 0 1.72-0.17 2.35-0.52 0.64-0.35 1.15-0.92 1.53-1.72h0.05c0 0.2 0 0.41 0.01 0.61s0.02 0.4 0.02 0.58c0.02 0.19 0.03 0.35 0.04 0.49s0.03 0.25 0.04 0.33h1.99c-0.01-0.07-0.02-0.19-0.03-0.35 0-0.17-0.01-0.37-0.02-0.6s-0.01-0.48-0.02-0.76v-0.86-14.53h-2.08zm4.12 0v1.98h2.08v-1.98h-2.08zm-168.32 1.843l-0.62 2.787h-1.52v1.51h1.44v8.32c0 1.88 0.83 2.82 2.49 2.82 0.43 0 0.81-0.02 1.13-0.08 0.33-0.04 0.65-0.11 0.97-0.19v-1.54c-0.22 0.05-0.43 0.09-0.62 0.12s-0.38 0.04-0.58 0.04c-0.48 0-0.83-0.11-1.03-0.35-0.19-0.25-0.28-0.67-0.28-1.27v-7.87h2.3v-1.51h-2.3v-2.787h-1.38zm9.52 0l-0.61 2.787h-1.52v1.51h1.44v8.32c0 1.88 0.83 2.82 2.49 2.82 0.43 0 0.81-0.02 1.13-0.08 0.33-0.04 0.65-0.11 0.96-0.19v-1.54c-0.22 0.05-0.42 0.09-0.62 0.12-0.18 0.03-0.37 0.04-0.57 0.04-0.49 0-0.83-0.11-1.03-0.35-0.19-0.25-0.29-0.67-0.29-1.27v-7.87h2.2l4.34 10.9-0.2 0.5c-0.39 0.99-0.84 1.71-1.37 2.16-0.52 0.46-1.08 0.68-1.69 0.68-0.13 0-0.29-0.01-0.47-0.02-0.19-0.01-0.35-0.02-0.5-0.05v1.56c0.25 0.05 0.48 0.09 0.7 0.1 0.23 0.02 0.47 0.03 0.73 0.03 0.6 0 1.13-0.12 1.59-0.35 0.46-0.22 0.88-0.55 1.26-0.98 0.37-0.42 0.71-0.94 1.01-1.54 0.31-0.6 0.61-1.28 0.9-2.03l4.79-12.47h-2.19l-2.44 7.12c-0.08 0.23-0.17 0.5-0.29 0.82-0.11 0.31-0.23 0.63-0.34 0.93-0.11 0.31-0.21 0.59-0.3 0.85-0.09 0.24-0.14 0.4-0.16 0.49-0.02-0.07-0.07-0.24-0.16-0.52-0.1-0.27-0.2-0.59-0.33-0.93-0.11-0.35-0.23-0.69-0.35-1.04-0.12-0.34-0.22-0.62-0.29-0.83l-2.63-6.89h-1.5-2.31v-2.787h-1.38zm163.83 0l-0.61 2.787h-1.52v1.51h1.44v8.32c0 1.88 0.83 2.82 2.49 2.82 0.43 0 0.8-0.02 1.13-0.08 0.33-0.04 0.65-0.11 0.96-0.19v-1.54c-0.22 0.05-0.43 0.09-0.62 0.12-0.18 0.03-0.37 0.04-0.57 0.04-0.49 0-0.83-0.11-1.03-0.35-0.19-0.25-0.29-0.67-0.29-1.27v-7.87h2.31v-1.51h-2.31v-2.787h-1.38zm-193.26 2.557c-0.77 0-1.49 0.115-2.17 0.346-0.68 0.222-1.27 0.588-1.77 1.095-0.51 0.507-0.91 1.167-1.2 1.979-0.29 0.81-0.44 1.8-0.44 2.96 0 2.17 0.48 3.8 1.44 4.9 0.97 1.1 2.37 1.65 4.22 1.65 0.83 0 1.53-0.09 2.12-0.27s1.08-0.41 1.47-0.69 0.71-0.6 0.94-0.94c0.23-0.36 0.42-0.71 0.55-1.05l-1.82-0.52c-0.19 0.55-0.56 1.01-1.11 1.37-0.53 0.36-1.25 0.54-2.15 0.54-0.62 0-1.14-0.1-1.58-0.32s-0.8-0.53-1.08-0.92c-0.28-0.4-0.49-0.87-0.63-1.42-0.13-0.55-0.19-1.15-0.19-1.81h8.89v-0.27c0-0.94-0.09-1.81-0.27-2.62s-0.48-1.505-0.91-2.096c-0.43-0.599-0.99-1.068-1.7-1.406-0.7-0.338-1.57-0.508-2.61-0.508zm13.06 0c-0.54 0-1.01 0.059-1.42 0.174-0.41 0.107-0.77 0.265-1.08 0.472-0.32 0.2-0.59 0.445-0.83 0.737s-0.46 0.619-0.66 0.98h-0.03c0-0.153-0.01-0.341-0.02-0.564 0-0.231-0.02-0.455-0.03-0.67-0.01-0.223-0.02-0.417-0.02-0.586-0.01-0.169-0.02-0.274-0.03-0.313h-1.96c0.01 0.054 0.02 0.173 0.03 0.358 0 0.184 0.01 0.407 0.02 0.668 0.01 0.253 0.01 0.526 0.01 0.818 0.01 0.284 0.01 0.557 0.01 0.816v9.81h2.08v-7.23c0-0.62 0.07-1.17 0.23-1.64 0.15-0.49 0.37-0.89 0.64-1.215 0.29-0.33 0.62-0.579 1.02-0.748 0.4-0.177 0.84-0.266 1.33-0.266s0.89 0.055 1.21 0.163c0.33 0.099 0.6 0.275 0.8 0.529 0.2 0.246 0.34 0.577 0.42 0.977 0.1 0.41 0.14 0.92 0.14 1.52v7.91h2.09v-8.31c0-0.77-0.08-1.43-0.23-1.982-0.15-0.561-0.38-1.018-0.71-1.371-0.32-0.353-0.73-0.614-1.23-0.783s-1.09-0.254-1.78-0.254zm75.57 0c-3.72 0-5.59 2.151-5.59 6.45 0 1.1 0.13 2.06 0.37 2.87 0.26 0.81 0.62 1.48 1.09 2.02s1.05 0.94 1.74 1.2c0.68 0.26 1.46 0.39 2.32 0.39 1.83 0 3.23-0.53 4.19-1.6s1.44-2.7 1.44-4.88c0-1.07-0.11-2.01-0.33-2.82-0.21-0.806-0.54-1.479-1-2.017-0.44-0.538-1.02-0.94-1.73-1.209-0.7-0.269-1.53-0.404-2.5-0.404zm20.01 0c-0.45 0-0.89 0.046-1.33 0.139-0.44 0.084-0.86 0.226-1.25 0.425-0.4 0.192-0.76 0.455-1.1 0.786-0.34 0.322-0.63 0.725-0.89 1.209-0.24 0.471-0.43 1.031-0.57 1.681-0.14 0.64-0.21 1.38-0.21 2.21 0 0.92 0.1 1.78 0.29 2.57s0.5 1.47 0.92 2.05c0.43 0.58 0.99 1.03 1.67 1.36s1.52 0.5 2.49 0.5c0.75 0 1.4-0.11 1.97-0.32 0.57-0.23 1.05-0.52 1.44-0.88 0.4-0.36 0.72-0.78 0.95-1.26 0.23-0.47 0.38-0.97 0.45-1.48l-2.1-0.14c-0.12 0.83-0.42 1.44-0.92 1.84s-1.11 0.6-1.85 0.6c-0.59 0-1.09-0.12-1.5-0.35-0.4-0.24-0.72-0.58-0.96-1.01-0.25-0.43-0.43-0.95-0.53-1.55s-0.15-1.26-0.15-1.97c0-0.81 0.05-1.51 0.15-2.11s0.28-1.1 0.53-1.488c0.24-0.399 0.56-0.696 0.95-0.888 0.4-0.2 0.9-0.299 1.49-0.299 0.81 0 1.43 0.204 1.87 0.611 0.43 0.407 0.71 0.954 0.81 1.644l2.14-0.16c-0.1-0.52-0.28-1.007-0.52-1.46-0.25-0.454-0.57-0.846-0.97-1.176-0.39-0.338-0.86-0.603-1.41-0.795-0.54-0.192-1.16-0.289-1.86-0.289zm48.57 0c-0.84 0-1.57 0.085-2.16 0.254-0.6 0.161-1.09 0.392-1.49 0.691-0.39 0.3-0.7 0.658-0.91 1.073-0.22 0.407-0.36 0.852-0.44 1.352l2.17 0.19c0.04-0.39 0.14-0.71 0.28-0.966 0.15-0.262 0.34-0.466 0.58-0.612 0.24-0.153 0.52-0.256 0.84-0.31 0.33-0.062 0.69-0.092 1.08-0.092 0.46 0 0.85 0.053 1.18 0.16 0.34 0.1 0.62 0.262 0.84 0.485 0.23 0.222 0.39 0.513 0.5 0.875 0.1 0.36 0.16 0.8 0.16 1.31v0.68l-2.8 0.05c-0.67 0.01-1.33 0.08-1.97 0.2-0.65 0.11-1.22 0.32-1.73 0.62-0.5 0.3-0.91 0.71-1.22 1.24-0.31 0.52-0.46 1.2-0.46 2.02 0 1.15 0.31 2.06 0.94 2.72s1.57 0.99 2.82 0.99c0.59 0 1.1-0.06 1.55-0.19 0.45-0.12 0.86-0.29 1.21-0.51 0.35-0.23 0.66-0.51 0.92-0.83 0.27-0.33 0.52-0.69 0.74-1.09h0.07c0.02 0.42 0.08 0.78 0.17 1.1 0.09 0.31 0.23 0.57 0.4 0.78 0.18 0.21 0.41 0.37 0.68 0.47 0.29 0.1 0.63 0.15 1.02 0.15 0.29 0 0.56-0.01 0.81-0.04 0.27-0.03 0.53-0.08 0.79-0.14v-1.29l-0.33 0.06c-0.12 0.01-0.23 0.02-0.35 0.02-0.45 0-0.76-0.15-0.92-0.46-0.16-0.32-0.24-0.78-0.24-1.4v-5.36c0-1.36-0.4-2.402-1.19-3.116-0.79-0.722-1.97-1.084-3.54-1.084zm-79.61 0.012c-0.48 0-0.92 0.042-1.31 0.127-0.39 0.076-0.74 0.208-1.05 0.392-0.32 0.177-0.6 0.407-0.84 0.692-0.25 0.276-0.47 0.614-0.66 1.013h-0.04c0-0.199-0.01-0.412-0.03-0.635-0.01-0.222-0.02-0.429-0.03-0.621-0.01-0.199-0.02-0.369-0.04-0.507 0-0.139-0.01-0.22-0.02-0.243h-2.01c0.01 0.07 0.02 0.185 0.03 0.346s0.01 0.358 0.02 0.588c0.01 0.223 0.01 0.473 0.01 0.75 0.01 0.277 0.02 0.564 0.02 0.863v14.823h2.07v-4.88c0-0.22 0-0.44-0.01-0.67 0-0.23-0.01-0.43-0.01-0.62 0-0.18-0.01-0.34-0.02-0.46 0-0.12 0-0.19-0.01-0.21h0.06c0.35 0.77 0.86 1.32 1.53 1.66s1.45 0.51 2.34 0.51c0.86 0 1.58-0.16 2.17-0.48 0.59-0.34 1.06-0.79 1.41-1.36 0.37-0.58 0.62-1.27 0.78-2.07 0.15-0.8 0.23-1.67 0.23-2.61 0-0.96-0.08-1.84-0.23-2.62-0.16-0.79-0.41-1.462-0.78-2.015-0.35-0.56-0.82-0.995-1.41-1.302-0.59-0.308-1.31-0.461-2.17-0.461zm-98.72 0.218v12.47h2.07v-12.47h-2.07zm45.52 0v12.47h2.08v-12.47h-2.08zm75.35 0v12.47h2.07v-12.47h-2.07zm13.26 0l4.94 12.41-0.19 0.5c-0.4 0.99-0.85 1.71-1.37 2.16-0.53 0.46-1.09 0.68-1.7 0.68-0.13 0-0.29-0.01-0.47-0.02-0.19-0.01-0.35-0.02-0.5-0.05v1.56c0.25 0.05 0.48 0.09 0.71 0.1 0.22 0.02 0.46 0.03 0.72 0.03 0.6 0 1.13-0.12 1.59-0.35 0.46-0.22 0.88-0.55 1.26-0.98 0.38-0.42 0.71-0.94 1.01-1.54 0.31-0.6 0.61-1.28 0.9-2.03l4.79-12.47h-2.19l-2.44 7.12c-0.08 0.23-0.17 0.5-0.29 0.82-0.11 0.31-0.23 0.63-0.34 0.93-0.11 0.31-0.21 0.59-0.3 0.85-0.09 0.24-0.14 0.4-0.16 0.49-0.02-0.07-0.07-0.24-0.16-0.52-0.1-0.27-0.2-0.59-0.33-0.93-0.11-0.35-0.23-0.69-0.35-1.04-0.12-0.34-0.21-0.62-0.29-0.83l-2.63-6.89h-2.21zm51.18 0v8.31c0 0.77 0.07 1.44 0.22 1.99s0.39 1.01 0.71 1.36c0.32 0.36 0.73 0.62 1.23 0.79 0.5 0.16 1.1 0.25 1.79 0.25 0.54 0 1.01-0.06 1.42-0.17 0.4-0.11 0.76-0.27 1.08-0.47 0.31-0.2 0.59-0.45 0.83-0.74 0.24-0.3 0.46-0.62 0.66-0.98h0.03c0 0.15 0 0.34 0.01 0.57l0.02 0.67c0.02 0.22 0.03 0.41 0.04 0.58s0.01 0.27 0.02 0.31h1.96c-0.01-0.05-0.01-0.17-0.02-0.36-0.01-0.18-0.02-0.4-0.03-0.66 0-0.26-0.01-0.53-0.02-0.81v-0.83-9.81h-2.07v7.22c0 0.63-0.08 1.18-0.23 1.67-0.16 0.47-0.38 0.87-0.66 1.2s-0.61 0.58-1.01 0.75-0.84 0.26-1.33 0.26c-0.48 0-0.89-0.05-1.22-0.15-0.32-0.11-0.58-0.29-0.78-0.53-0.2-0.26-0.35-0.59-0.44-0.99-0.09-0.41-0.13-0.92-0.13-1.53v-7.9h-2.08zm24.04 0v12.47h2.08v-12.47h-2.08zm-200.68 1.303c0.54 0 1.01 0.085 1.42 0.254 0.41 0.161 0.76 0.43 1.04 0.807 0.29 0.376 0.5 0.876 0.65 1.486 0.14 0.61 0.22 1.35 0.22 2.23 0 0.93-0.08 1.71-0.22 2.34-0.15 0.64-0.36 1.16-0.65 1.56-0.27 0.39-0.62 0.68-1.04 0.85-0.42 0.18-0.9 0.27-1.44 0.27-0.53 0-0.98-0.09-1.35-0.28-0.37-0.18-0.68-0.47-0.91-0.86-0.24-0.4-0.41-0.91-0.52-1.52-0.11-0.62-0.16-1.36-0.16-2.22 0-0.89 0.06-1.64 0.17-2.27 0.12-0.63 0.31-1.14 0.55-1.53 0.25-0.391 0.56-0.675 0.93-0.851 0.36-0.177 0.8-0.266 1.31-0.266zm12.41 0c1.04 0 1.84 0.303 2.39 0.91 0.55 0.597 0.89 1.557 1 2.867h-6.73c0.03-0.75 0.16-1.37 0.38-1.85 0.22-0.49 0.5-0.883 0.82-1.167s0.67-0.48 1.05-0.588c0.38-0.115 0.75-0.172 1.09-0.172zm88.71 0c0.52 0 0.99 0.077 1.4 0.231 0.42 0.146 0.77 0.406 1.05 0.783 0.29 0.373 0.51 0.883 0.66 1.513s0.23 1.43 0.23 2.39c0 0.97-0.08 1.77-0.24 2.41s-0.4 1.15-0.7 1.52c-0.29 0.38-0.66 0.64-1.09 0.8-0.43 0.14-0.91 0.22-1.44 0.22-0.47 0-0.92-0.08-1.32-0.23-0.4-0.16-0.75-0.42-1.05-0.8s-0.53-0.88-0.69-1.51c-0.17-0.64-0.26-1.44-0.26-2.41 0-0.94 0.08-1.73 0.23-2.36 0.16-0.63 0.39-1.13 0.69-1.508 0.3-0.384 0.66-0.653 1.09-0.807 0.43-0.161 0.91-0.242 1.44-0.242zm92.11 0c0.54 0 1.01 0.085 1.42 0.254 0.41 0.161 0.76 0.43 1.05 0.807 0.28 0.376 0.5 0.876 0.65 1.486 0.14 0.61 0.21 1.35 0.21 2.23 0 0.93-0.07 1.71-0.21 2.34-0.15 0.64-0.37 1.16-0.65 1.56-0.28 0.39-0.63 0.68-1.05 0.85-0.41 0.18-0.89 0.27-1.44 0.27-0.53 0-0.98-0.09-1.35-0.28-0.37-0.18-0.67-0.47-0.91-0.86-0.24-0.4-0.41-0.91-0.52-1.52-0.1-0.62-0.16-1.36-0.16-2.22 0-0.89 0.06-1.64 0.17-2.27 0.13-0.63 0.31-1.14 0.56-1.53 0.24-0.391 0.55-0.675 0.92-0.851 0.37-0.177 0.81-0.266 1.31-0.266zm-103.71 0.08c0.57 0 1.04 0.107 1.42 0.322 0.38 0.216 0.67 0.531 0.9 0.945 0.23 0.42 0.39 0.92 0.48 1.52s0.14 1.28 0.14 2.05c0 0.79-0.05 1.49-0.14 2.1s-0.25 1.12-0.48 1.54c-0.23 0.43-0.53 0.75-0.91 0.97-0.38 0.23-0.85 0.34-1.43 0.34-0.54 0-1.02-0.08-1.43-0.25-0.41-0.16-0.76-0.44-1.05-0.81-0.28-0.38-0.49-0.87-0.63-1.48-0.15-0.61-0.22-1.36-0.22-2.24 0-1.04 0.09-1.88 0.26-2.53 0.18-0.65 0.42-1.16 0.72-1.531 0.31-0.369 0.66-0.618 1.07-0.749 0.41-0.13 0.84-0.197 1.3-0.197zm82.77 4.927v1.03c0 0.41-0.08 0.83-0.24 1.28s-0.41 0.86-0.74 1.23c-0.32 0.38-0.73 0.69-1.23 0.94-0.5 0.23-1.07 0.35-1.73 0.35-0.68 0-1.2-0.18-1.57-0.55-0.36-0.37-0.54-0.89-0.54-1.57 0-0.56 0.1-1.01 0.3-1.36 0.21-0.34 0.48-0.61 0.83-0.8 0.34-0.19 0.74-0.32 1.2-0.38 0.46-0.07 0.94-0.11 1.45-0.12l2.27-0.05z" transform="translate(64.4 36.962)" fill="#749b00"/>
</g>
</svg>
