<svg xmlns:rdf="http://www.w3.org/1999/02/22-rdf-syntax-ns#" xmlns="http://www.w3.org/2000/svg" version="1.1" xmlns:cc="http://creativecommons.org/ns#" xmlns:dc="http://purl.org/dc/elements/1.1/" viewBox="0 0 400 500">
<g transform="translate(667.6 185)">
<path id="path3090" style="color:#000000" d="m279.2 54.59c-12.6 0.64-20.4 12.48-26.4 22.22-8.1 14.52-15.9 29.59-20.5 45.59-1.4 6.8 5.3 11.5 11.1 13.1 6.4 3 14.6 5.3 20.7 0.3 12.2-9.3 27.9-11.3 42.7-11.7 3.2-0.7 9.2 0.3 9.8-4-1.4-4-5.5-7.3-9.7-8.3-6.5 0.2-12.7 3.6-19.3 4.3-9.2 1.4-18.9 5.3-28.1 2.3-4.3-2-2.5-7.9-2.5-11.6 4.1-11.47 11.1-22.02 19.5-30.89 3.2-4.49 8.7-1.08 12.3 1 8.1 4.39 16.3 9.61 25.5 11.03 3 0.69 3.3-3.51 0.4-3.5-10.4-5.22-14.6-16.51-21.3-25.22-3.5-3.78-9.2-4.57-14.2-4.63zm107.5 42.22c-1-0.02-2 0.04-2.9 0.1-8.9 0.87-18.1 1.69-26.1 5.69-2.8 3 2.5 4.7 4.7 4.7 5.4 1.5 12.3 2 16.1 6.5 1.1 9.4-2 19.8-9.3 26-5.4 3.4-10.8-2.7-14.6-6-5-4-10.3-9.7-17.1-9.6-3.8 1.9 0.4 6.3 1.6 8.8 1.8 3.8 5.2 7.1 9.8 6.6 5.9 1.8 8.8 8.1 12.7 12.4 3.2 3.3 4.7 10.3 10.5 9.6 6.3 0.7 8-6.9 10.5-11 7.3-15.3 13-32.3 10.7-49.4-0.5-3.53-3.6-4.32-6.6-4.39zm-74.3 63.49c-0.2 0-0.4 0.1-0.6 0.1-5.8 2.1-11.5 5.9-14.9 11.2-1 3.4 4.3 8.2 6.5 4 1.9-4.3 5.2-8.2 9.9-9.2 3-1.4 2.3-6-0.9-6.1zm20.4 11.5c-0.1 0.1-0.2 0.1-0.4 0.1-4 0.8-0.3 6.7 2.2 3.5 1.1-1.4 0-3.6-1.8-3.6zm-11.3 38.3c-0.1 0-0.2 0-0.3 0.1-3.2 1.4-7 0.7-10 2.2-1.6 3.4 2.8 6.5 5.8 4.3 2.1-1.3 6.7-2.5 6.1-5.7-0.5-0.6-1-0.9-1.6-0.9zm-21.4 0.5c-0.1 0-0.2 0-0.3 0.1-3.6 1-8.7 4.7-6.9 8.9 2.5 2.4 5 7.1 8.9 6.3 2.9-3 1.3-8 1.4-11.8-0.2-1.7-1.2-3.5-3.1-3.5z" fill-rule="evenodd" transform="translate(-667.6 -185)" fill="#fff"/>
<path id="path3029" style="color:#000000" d="m241.5 86.56c-0.2 0-0.4 0.02-0.5 0.03-7.3 1.84-11.6 9.53-18.8 11.25-6.7 0.2-12.8-4.36-19.4-4.53-11 9.09-19.9 20.69-28.2 32.29-3.7 5.7-7.6 12.3-13.4 16-7.5 1.4-15.6 0.6-23 3-3.5 0.4-7.6 1.3-6.6 5.7 0.7 8.1 5.5 15.1 9.6 21.8 3.4 1.2 6.2-3.2 9.1-4.5 17.2-12.2 30.7-29 46.9-41.9 10.6-2.4 21.8-1.8 32.5-4.1 4.4-5.8 6-13.4 9.5-19.8 1.6-4.53 5-8.96 5.4-13.71-0.5-1.14-1.9-1.5-3.1-1.5v-0.03zm25.5 5.28l-0.7 0.04h-0.5c-5.4 6.18-9.2 14.92-8.4 23.32 1.5 5.1 8.3 3.2 12.2 3.3 10-0.6 19.3-5.4 27.5-11.1 1.9-3.2-3.6-4-5.8-4.7-8.6-2.4-16.7-6.19-24.3-10.86z" fill-rule="evenodd" transform="translate(-667.6 -185)" fill="#f39a05"/>
<path id="path3525" style="color:#000000" fill-rule="evenodd" fill="#ab9a7e" d="m-344.2 24.48c1.803-0.1035 3.509 2.253 1.31 3.332-3.333 2.685-8.167 6.134-12.7 4.825-2.642-1.972-2.075-6.894 1.723-6.893 3.222-0.5358 6.424-1.098 9.673-1.264zm-11.03-49.49c3.005-0.1137 4.686 3.469 2.941 5.974-3.057 5.491-8.429 11.23-15.03 11.76-4.677-0.1272-4.983-6.543-2.274-9.305 3.267-4.322 8.198-7.966 13.74-8.363 0.2114-0.04191 0.42-0.06102 0.6204-0.06911zm37.31-6.962c3.999 1.442 7.776 5.454 9.466 8.708-3.354-2.678-6.638-5.718-9.466-8.708zm-35.24-0.8961c2.774 1.904 5.525 4.047 7.651 6.709-2.742-1.808-6.036-4.616-7.651-6.709zm32.33-12.2c-0.2269-0.0088-0.462-0.0074-0.6893 0.02279-4.436 0.9804-2.713 7.149-3.354 10.43 0.3713 4.963-0.7905 10.66 1.769 15.1 9.059 5.726 19.27 12.33 30.47 11.17 2.894 0.06176 3.802-3.508 1.264-4.871-10.85-8.732-15.27-23.95-27.48-31.38-0.6298-0.2628-1.295-0.4341-1.976-0.4595zm-117.6-16.86c-0.2254 0.01617-0.4822 0.07279-0.7582 0.1378-2.574 0.1415-5.146 0.272-7.72 0.4136-7.325 0.793-15.14 0.1639-22.08 2.895-2.51 3.177-2.428 8.616-0.1149 11.9 1.795 1.509-1.171 1.138-1.356-0.2528-1.885-2.385 0.4596-8.508-4.09-8.087-7.197 5.493-13.52 12.43-18.54 19.99-2.164 3.787-2.318 8.932-2.711 12.68-0.9051-2.876 1.758-10.34-2.757-9.558-4.548 4.666-9.933 8.727-13.95 13.78-0.2336 2.319-0.4535 9.337-0.8041 9.213-0.6502-2.823 1.523-7.493-1.723-8.685-3.471 1.996-8.574 4.339-9.282 8.524 2.517 6.082 6.622 11.49 8.96 17.55-0.5468 9.276-6.268 17.39-8.914 26.24-1.304 2.292-1.37 6.219 1.93 6.502 8.363 1.642 17.11 1.83 25.34 3.607 6.834 6.175 10.05 15.57 16.08 22.56 2.779 2.698 4.194 7.196 7.697 8.96 3.561-1.042 6.688-3.961 10.34-5.238 7.57-4.054 15.96-7.03 23.04-11.92 2.8-4.903-3.559-8.591-6.594-11.4-7.695-5.729-16.04-11.97-18.68-21.76-1.933-6.701-4.087-13.48-6.295-20.1 5.782 10.37 6.093 23.53 14.93 32.3 4.263 5.494 11.24 7.916 15.69 13.1 1.453 2.48 3.634 7.501 7.053 4.319 4.217-2.345 7.948-6.1 12.29-7.789 5.15 0.9291 11.48-0.1054 16.06 2.366-0.5571 3.362 3.237 4.668 5.698 2.941 4.462-2.379 9.732-3.286 13.97-5.928 0.6954-4.275-4.257-7.014-6.939-9.673-5.619-5.098-12.94-7.946-20.56-7.536-4.033-0.6445-8.564-4.253-7.467-8.869 0.0853-5.67 0.2907-11.39 1.241-16.98-0.1848 6.763-2.097 13.97 0.0228 20.54 3.937 6.081 12.41 4.243 18.5 5.836 4.515 0.8218 10.2-1.724 11.79-6.088-1.038-4.789-6.038-7.708-8.984-11.37-5.027-5.694-11.76-10.23-14.98-17.21-0.8442-5.75 0.4876-11.81-0.7812-17.39-6.126-1.339-12.62-1.268-18.79-2.458 6.777-3.939 14.58-6.783 19.28-13.51 1.301-2.065 5.691-5.638 2.343-7.674-8.338-1.946-17.48-3.91-23.5-10.43-2.469-1.703-0.5002-6.7-3.883-6.456zm88.87-2.458c-5.531 6.03-14.17 3.408-21.37 4.641-15.24 0.9476-31.01 7.016-39.75 20.15-4.167 5.523-9.065 10.87-15.81 13.14-2.464 3.976 4.695 2.985 7.168 3.515 11.89 0.2358 24.6 1.472 35.18-4.917 7.665-3.622 13.92-9.486 20.79-14.22-5.372 6.565-13.23 10.56-20.24 15.21-7.788 4.454-16.94 4.871-25.66 5.146-5.054 1.694-2.856 8.5-3.446 12.45-0.4419 8.489 7.819 13.42 12.57 19.25 6.498 6.61 14.04 13.44 15.21 23.16 1.697 4.612-0.316 10.08 2.137 14.36 3.36 1.8 5.313 4.922 7.329 7.949 1.55 2.007 5.375 1.336 5.192 4.71 0.3661 2.243 1.998 7.927 5.101 5.078 1.871-4.739 0.6867-10.14 1.057-15.12 4.971-0.9784 10.87 0.338 15.35-2.229 0.9623-3.956-5.043-3.134-7.444-3.952-7.001-0.9694-15.42-1.98-18.82-9.144-1.742-4.811 2.509-9.438 7.26-9.902 1.748-0.2885 3.508-1.792 4.664-2.504 0.442 6.55-1.015 13.31-0.0228 19.71 7.568 1.548 15.34 2.507 22.75 4.687 6.661 0.5319 7.908-7.76 9.581-12.5 2.671-6.558 0.0309-13.41-2.435-19.41-2.316-9.555-4.968-19.23-5.009-29.22-0.1632-2.291-0.348-4.441 1.126-1.333 2.298 2.679 8.122 1.338 8.914-2.022 0.1178-2.033-3.438-2.301-3.676-2.872 3.384-0.4942 7.252-2.522 6.387-6.571-0.4112-8.844 1.29-19.02-4.94-26.31-1.218-2.26-5.59-6.599-6.824-2.137-0.6249 2.867-0.1451 7.051-0.5744 9.19-1.488-4.258 0.9005-9.329-0.965-13.28-3.558-1.247-7.021-4.99-10.78-4.71z"/>
<path id="path3054" style="color:#000000" d="m178.8 21.78c-10.5 0.1-21.3 0.01-31.1 4.41-14 5.43-28.5 10.87-40.5 19.97-18.29 16.83-36.63 34.23-49.39 55.74-13.91 19.4-23.2 41.6-30.84 64.1-7.56 23.7-15.51 47.8-15.41 73-0.17 19.8-0.96 39.7 0.69 59.5 3.35 25.9 11.28 51.1 20.63 75.4 7.32 15.6 15.25 31.2 25.74 44.9 10.42 13.2 22.9 24.8 37.29 33.7 16.59 10.8 34.29 19.9 53.89 23.7 13.8 3.7 28.1 4.9 42.3 4.2 20.6 0.1 41.1-4.7 60-12.6 24.3-12 47.3-27.8 64.1-49.3 13.8-19.1 26.2-39.9 31.8-63.1 3.8-14.4 5.7-29.3 6.8-44.2 0.8-24.5 1.3-49.2-2.8-73.4-2.5-20.8-7-41.3-14.7-60.7-2.7-2.3-4.8 2.5-5.5 4.7-0.1 9 3 17.8 6.5 26 1.5 7.7-1.3 15.7-5.2 22.2-2.8 3.5-8 1.5-11.6 3.5-5.1 2.1-11.5 0.1-15.9 3.7-3.1 4.5 0 11.6-4.4 15.3-3.5 1.4-3.2-4.3-5-6.2-1.5-3.4-6-4.5-6.6-8.5-1.3-3.5-5.4-1.1-5 1.9 0.5 5.6 7.7 8.2 8.5 13.8 0.5 4.3 1.6 10.6-2.7 13.3-4 2.1-5.2-3.8-6-6.4-0.1-2.6-4.1-5.2-4.9-1.6-0.6 2.4 0.2 6.2-1.3 7.8-7.1-1.8-14.2-5.4-19.4-10.5-2.3-4.2 1.9-8.6 2.6-12.7 1.5-3.1 1.6-8.6-3-8.7-6.5-1.8-13.8-0.8-19.1 3.6-13.1 9.8-29.3 14.3-42.5 23.9-1.6 2.5-3.5 2.1-4.6-0.6-7.3-9-12.8-19.4-19.9-28.4-4.2-5.1-11.8-3.2-17.5-4.8-4.5-0.9-9.6-1-13.7-2.5 1.2-10 7.6-18.6 9.9-28.3 0.2-7.9-5.4-14.4-8.6-21.3-5.3-8.9-10.8-18.3-12.7-28.5 3.9-4 10.5-4.1 15.8-5.1 5.5-1 11.3-0.2 16.5-1.7 9.9-11.5 17.3-24.8 27.5-36 4.2-4.2 7.8-9.65 12.4-13.22 7.3 1.1 14.3 5.84 21.8 4.97 6.8-2.15 10.5-11.37 18.1-10.78 5.2 1.41 7.7-4.73 9.8-8.28 4-7 9.4-13.34 13.3-20.28-15.1-16.75-36.3-26.47-57.5-33.16-9.2-3.09-19.1-2.29-28.6-2.47zm100.8 52.66l-0.7 0.25-0.5 0.15c-3.6 4.53-10.4 8.7-9.8 15.22 2.8 4.54 8.9 5.76 13.3 8.28 5.2 1.76 10.4 5.06 15.9 4.76 3-2.5-1.7-6-3-8.35-5.2-6.63-9.7-14.11-15.2-20.31zm-0.7 138.4h-0.2c-3 0.8-8 5.1-4.4 8 2.4 1.5 5 5.4 8 4 1-3.6-0.6-7.8-1.8-11.4-0.3-0.4-1-0.7-1.6-0.6z" fill-rule="evenodd" transform="translate(-667.6 -185)" fill="#ffcfab"/>
<path id="path3529" d="m-504.1 295.6c-12.53-2.3-14.5-2.706-21.32-4.381-10.24-2.517-27.93-10.11-35.49-15.24-1.343-0.9115-2.563-1.657-2.711-1.657-0.6053 0-11.06-6.148-11.93-7.011-0.5129-0.513-2.182-1.688-3.709-2.61-1.527-0.9227-4.641-3.271-6.92-5.218-2.279-1.948-4.496-3.541-4.926-3.541-0.4305 0-1.067-0.5073-1.414-1.127-0.347-0.62-2.78-3.35-5.408-6.066-2.627-2.716-6.565-7.089-8.751-9.717s-5.208-6.102-6.715-7.72-5.06-7.538-7.896-13.16c-2.835-5.618-5.934-11.08-6.885-12.13-0.9514-1.054-2.511-3.736-3.466-5.96-0.9548-2.224-2.882-6.525-4.283-9.558-3.023-6.542-10.44-28.3-10.44-30.61 0-0.8916-1.158-4.367-2.573-7.722-1.424-3.376-2.573-7.353-2.573-8.904 0-1.541-0.6323-4.694-1.405-7.007-0.7727-2.312-1.622-6.189-1.887-8.616-0.2652-2.426-0.9376-6.893-1.494-9.925-2.248-12.25-3.223-59.1-1.441-69.23 0.5934-3.372 1.085-7.619 1.093-9.439 0.0294-6.604 3.749-24.47 7.347-35.29 1.143-3.437 2.623-8.4 3.289-11.03 0.6658-2.628 2.203-7.591 3.415-11.03 1.212-3.437 2.631-7.738 3.151-9.558 0.5208-1.82 1.658-4.862 2.526-6.76 0.8687-1.899 1.579-3.627 1.579-3.842 0-0.2142 1.013-2.631 2.252-5.371 8.548-18.91 11.38-24.66 14.12-28.68 5.784-8.489 11.78-17.45 15.14-22.62 7.503-11.56 25.08-30.32 41.44-44.24 5.38-4.577 19.16-12.74 21.51-12.74 0.5571 0 6.017-2.429 10.92-4.857 1.954-0.9678 4.117-1.76 4.807-1.76s2.482-0.6256 3.982-1.39c2.858-1.457 6.012-2.516 7.877-2.644 0.6066-0.0418 2.592-0.5391 4.411-1.105 5.32-1.655 38.63-1.439 44.48 0.2885 2.426 0.7165 5.404 1.566 6.617 1.888 18.01 4.776 39.46 16.19 49.68 26.43 7.304 7.321 6.463 6.97 11.42 4.768 3.85-1.709 4.916-1.869 9.617-1.449 11.75 1.052 14.5 2.908 19.17 12.92 3.699 7.93 11.79 16.25 17.12 17.6 7.144 1.809 8.091 2.901 4.241 4.892-5.463 2.825-18.68-0.808-30.11-8.278-9.508-6.213-9.178-5.119 3.407 11.3 11.37 14.83 11.27 14.35 3.676 18.11-8.329 4.118-6.27 5.68 2.483 1.883 5.87-2.546 11.37-1.048 16.26 4.43 4.697 5.256 11.09 7.71 20.22 7.762 9.05 0.05102 13.85 2.204 17.57 7.883 1.674 2.555 8.366 7.692 10.82 8.303 5.757 1.436 15.21-20.31 11.28-25.93-2.006-2.863-6.524-4.193-21.1-6.208-6.848-0.9467-6.982-1.538-1.19-5.266 4.64-2.986 8.22-4.077 19.76-6.018 18.58-3.126 21.75-1.125 21.06 13.28-0.7405 15.4-2 20.32-9.955 38.86-5.51 12.84-6.782 14.42-11.66 14.43-4.881 0.01757-4.181 1.282 4.488 8.105 6.686 5.262 6.614 5.534-1.731 6.564-10.41 1.284-17.76-0.6686-27.5-7.304-6.612-4.506-6.613-4.506-8.834-0.1231l-1.801 3.555 3.995 11.95c2.197 6.574 3.995 12.6 3.995 13.4 0 0.7982 0.3414 2.089 0.7588 2.869 1.486 2.777 3.903 16.27 7.298 40.76 0.3925 2.831 0.8882 7.959 1.102 11.4 0.2134 3.437 0.6623 7.242 0.9975 8.455 1.396 5.053 0.4546 52.34-1.228 61.67-0.8664 4.804-1.584 10.1-1.595 11.76-0.0107 1.666-0.833 6.338-1.828 10.38-0.9946 4.044-1.813 7.89-1.819 8.547-0.006 0.6573-0.8376 3.065-1.848 5.351-1.011 2.286-1.838 4.933-1.838 5.883 0 1.742-4.045 12.57-5.29 14.16-0.3693 0.472-1.794 3.561-3.167 6.865-2.26 5.44-7.454 13.98-15.2 24.99-1.564 2.224-4.453 6.36-6.42 9.19-7.801 11.23-33.79 32.65-48.37 39.86-2.505 1.24-5.483 2.892-6.617 3.673-1.134 0.7804-3.22 1.938-4.636 2.572-9.41 4.216-13.6 5.794-19.09 7.193-3.422 0.8716-7.372 2.065-8.776 2.652-10.06 4.203-49.18 6.118-65.14 3.188zm48.63-2.456c2.77-0.5943 6.635-1.292 8.59-1.55 1.954-0.2583 4.932-0.9681 6.617-1.577 1.685-0.6092 5.545-1.763 8.578-2.565 6.611-1.747 10.63-3.089 13.6-4.54 1.213-0.5923 3.529-1.668 5.146-2.39 1.618-0.7224 3.922-1.99 5.122-2.817s4.086-2.404 6.415-3.506c13.5-6.383 40.03-28.27 47.89-39.49 2.09-2.986 4.462-6.33 5.27-7.433 0.8087-1.102 2.105-2.96 2.881-4.129 8.917-13.43 11.15-17.14 13.07-21.75 1.231-2.953 2.498-5.701 2.814-6.105 1.159-1.48 5.866-13.94 5.866-15.52 0-0.8988 0.69-3.233 1.533-5.187 0.8433-1.954 2.024-5.869 2.623-8.7 0.5993-2.831 1.551-7.297 2.116-9.925 0.5643-2.628 1.038-6.456 1.053-8.507 0.0148-2.05 0.6988-6.848 1.52-10.66 1.687-7.836 2.213-54.59 0.6811-60.6-0.412-1.618-1.034-6.911-1.383-11.76-0.5918-8.24-1.486-15.48-2.999-24.26-0.3481-2.022-1.028-5.992-1.511-8.823-1.225-7.178-4.817-21.07-7.036-27.2-1.024-2.831-2.344-6.718-2.934-8.639-1.248-4.063-1.533-4.153-3.853-1.217-1.302 1.647-1.609 2.691-1.232 4.187 0.2762 1.096 0.7872 4.143 1.136 6.772 0.7065 5.329 2.925 12.22 5.146 15.98 1.939 3.287 1.847 6.183-0.4632 14.51-2.731 9.845-5.495 13.06-11.02 12.8-2.711-0.1256-4.328 0.1718-5.231 0.9619-0.8873 0.776-3.664 1.31-8.637 1.66-9.146 0.6439-8.478 0.02647-8.478 7.834 0 6.202-0.1197 6.72-1.945 8.412-2.595 2.405-5.407 2.433-5.407 0.05492 0-0.9614-0.4875-2.153-1.083-2.647-0.5958-0.4945-1.287-1.984-1.536-3.311-0.3575-1.906-0.9363-2.55-2.759-3.073-1.808-0.5185-2.471-1.246-3.066-3.366-1.138-4.057-2.243-4.801-3.172-2.136-1.089 3.124-0.4847 4.58 2.905 7.003 5.323 3.803 7.439 13.16 4.588 20.29-1.887 4.717-9.085 4.178-9.126-0.6836-0.0184-2.165-2.742-8.552-3.376-7.918-0.2339 0.234-0.6424 2.847-0.9078 5.807l-0.4824 5.382-2.424-0.1915c-4.911-0.388-19.41-8.921-20.38-12-0.6434-2.027 0.1457-5.064 2.669-10.27 1.627-3.358 2.061-5.089 1.725-6.878l-0.4485-2.391-6.583-0.8765c-6.997-0.9316-9.924-0.0786-14.99 4.368-2.062 1.81-10.52 7.086-13.6 8.484-1.415 0.6422-4.627 2.124-7.138 3.294-2.51 1.17-4.767 2.126-5.014 2.126-0.2472 0-1.9 0.998-3.673 2.218s-5.108 2.939-7.41 3.82c-3.068 1.174-4.57 2.252-5.62 4.032-1.572 2.664-3.27 3.146-4.024 1.143-0.2663-0.7076-3.448-5.251-7.07-10.1-3.622-4.845-7.043-9.902-7.601-11.24-1.365-3.266-7.427-11.44-8.946-12.07-0.6698-0.2749-2.933-0.523-5.03-0.5514-2.096-0.02845-6.067-0.5193-8.823-1.091-2.756-0.5715-7.249-1.272-9.984-1.557s-5.098-0.7272-5.251-0.9828c-0.9722-1.626 2.65-13.03 6.351-20 4.146-7.807 4.939-11.99 2.898-15.28-0.9132-1.473-3.16-5.822-4.993-9.663-1.833-3.842-3.958-7.656-4.723-8.476-2.206-2.366-9.326-17.31-9.884-20.74-0.2788-1.716-0.809-3.308-1.178-3.536-2.176-1.345 3.712-6.21 7.515-6.21 1.106 0 2.942-0.3718 4.08-0.8261 1.138-0.4544 6.306-1.077 11.48-1.384l9.414-0.5582 2.465-2.88c5.523-6.452 7.813-9.574 9.168-12.5 0.7836-1.69 3.628-5.599 6.32-8.686s5.315-6.423 5.829-7.412c0.5134-0.9896 4.288-5.315 8.387-9.611s7.453-8.139 7.453-8.538c0-0.9663 3.968-0.1402 7.702 1.604 1.627 0.7598 4.778 1.789 7.002 2.288 2.224 0.4985 4.631 1.21 5.35 1.581 0.9391 0.4849 1.9 0.251 3.422-0.8324 1.164-0.8287 2.428-1.507 2.809-1.507 0.3811 0 2.125-1.662 3.874-3.694 1.75-2.032 4.034-3.897 5.075-4.145 1.042-0.248 2.305-0.775 2.808-1.171 0.8892-0.7002 3.044-0.5056 5.378 0.4859 1.026 0.436 5.838-5.542 5.838-7.254 0-0.7555 9.236-14.35 11.82-17.41l2.265-2.673-5.391-5.506c-10.31-10.53-31.49-21.84-50.61-27.02-1.82-0.4932-4.774-1.354-6.564-1.913-3.97-1.24-36.27-1.411-40.86-0.2166-1.618 0.4207-4.417 1.078-6.221 1.46-1.804 0.3821-4.544 1.353-6.088 2.158s-3.388 1.464-4.096 1.464c-2.801 0-29.8 12.82-33.52 15.92-19.96 16.62-41.92 40.33-47.89 51.72-0.9541 1.82-3.389 5.624-5.411 8.455-5.823 8.151-8.478 12.23-10.54 16.18-1.945 3.728-7.178 14.99-7.178 15.45 0 0.1379-0.962 2.342-2.138 4.897-3.218 6.994-5.976 13.82-7.081 17.51-0.5439 1.82-1.84 5.624-2.879 8.455-1.04 2.831-2.541 7.793-3.337 11.03-0.7957 3.235-2.122 7.701-2.946 9.925-3.292 8.879-7.312 27.68-7.338 34.31-0.008 2.087-0.5107 6.388-1.117 9.558-1.505 7.866-1.525 51.67-0.0279 62.37 2.506 17.92 3.394 23.36 3.998 24.51 0.3557 0.6733 1.168 4.275 1.804 8.003 0.6368 3.728 1.856 8.147 2.709 9.82 0.8531 1.672 1.979 5.073 2.502 7.558 1.134 5.387 6.578 22.08 8.899 27.29 4.691 10.52 7.882 16.92 9.506 19.05 0.9939 1.303 3.979 6.653 6.632 11.89 2.654 5.236 5.562 10.18 6.462 10.99 0.8999 0.8087 3.166 3.456 5.037 5.882 1.87 2.426 5.342 6.422 7.716 8.88 2.373 2.458 5.495 5.766 6.937 7.352s4.254 4.009 6.249 5.385 3.958 2.872 4.363 3.326c0.8916 1 9.852 7.319 11.4 8.036 0.6066 0.2818 3.419 1.977 6.249 3.767 11.73 7.42 30.83 16.08 37.25 16.9 2.159 0.2742 4.918 0.9336 6.131 1.465 1.213 0.5317 5.68 1.531 9.925 2.221 4.246 0.6896 9.705 1.672 12.13 2.184 6.122 1.291 36.6 0.8526 43.49-0.6251zm79.05-214.9c2.227-5.477 0.463-11.76-4.627-16.48-3.63-3.366-3.695-3.504-3.494-7.303 0.1398-2.635-0.0937-3.972-0.7308-4.184-1.018-0.3392-9.583 2.54-10.72 3.603-0.3842 0.3596-1.133 0.6539-1.665 0.6539-2.376 0-6.074 3.464-7.844 7.348-3.217 7.058-3.198 7.568 0.3841 10.2 4.5 3.31 13.66 7.894 14.37 7.188 0.7351-0.7338 0.6606-8.405-0.1282-13.22-0.5646-3.449-0.5298-3.549 1.146-3.308 2.197 0.3158 8.393 10.17 9.127 14.52 0.6198 3.668 2.871 4.199 4.178 0.9843zm-95.46-3.418c0.2171-0.5658 1.582-1.421 3.032-1.899 1.451-0.4788 4.369-1.843 6.485-3.032 5.424-3.047 17.12-8.633 19.13-9.139 4.922-1.235 3.689-7.624-2.063-10.69-1.956-1.044-4.408-2.9-5.448-4.125s-3.091-2.788-4.556-3.473c-3.047-1.424-8.78-9.286-10.23-14.03-0.4945-1.618-1.328-4.099-1.852-5.514-0.5241-1.415-1.151-4.007-1.392-5.759-0.2417-1.752-1.258-4.801-2.259-6.776-1.992-3.93-2.346-6.581-0.8791-6.581 1.183 0 5.362 8.943 6.013 12.87 1.586 9.568 7.88 21.5 12.38 23.46 1.298 0.5657 3.644 2.384 5.213 4.042 1.569 1.657 3.446 3.013 4.171 3.013 2.028 0 5.611 4.047 6.156 6.954 0.6153 3.28-0.0147 3.452 8.318-2.277l7.1-4.881 7.758 0.4155c9.483 0.5079 10.17 0.7573 10.76 3.904 0.5634 3.003 0.0559 2.968 5.409 0.3749 2.415-1.17 6.184-2.691 8.376-3.38l3.984-1.253-0.8242-2.184c-0.4534-1.201-1.984-3.047-3.401-4.102s-3.92-3.132-5.562-4.615c-3.412-3.082-11.8-5.623-15.97-4.84-2.538 0.4762-4.265-0.3479-8.064-3.848-1.956-1.802-2.02-2.105-1.975-9.261 0.0684-10.76 2.48-20.44 4.064-16.31 0.4785 1.247 0.3 2.87-1.182 10.75-1.898 10.09 1.005 15.89 7.783 15.54 1.688-0.08739 5.387 0.4626 8.219 1.222 5.674 1.522 6.408 1.351 11.77-2.727 3.188-2.426 2.257-3.897-8.961-14.15-4.824-4.41-9.952-9.745-11.4-11.86l-2.624-3.837 0.1363-8.556 0.1364-8.556-2.186-0.4371c-1.202-0.2404-5.32-0.6574-9.151-0.9268-10.8-0.7593-11.78-2.359-3.49-5.732 2.748-1.119 5.821-2.416 6.828-2.882 3.781-1.75 12.41-12.08 11.43-13.67-0.2645-0.4281-1.992-0.7784-3.838-0.7784-3.203 0-8.075-1.685-15.59-5.393-3.676-1.814-7.434-6.444-7.434-9.161 0-1.831-0.01-1.834-5.33-1.354-2.932 0.2641-9.785 0.8136-15.23 1.221-11.37 0.8509-11 0.6536-11.57 6.151-0.377 3.652-0.2244 4.392 1.222 5.932 1.671 1.779 1.517 3.339-0.3293 3.339-2.031 0-4.054-3.718-4.054-7.451 0-4.431 0.0841-4.439-4.941 0.4668-2.278 2.224-4.38 4.044-4.67 4.044-0.2908 0-1.579 1.637-2.863 3.637s-3.591 4.773-5.127 6.161c-3.029 2.736-4.021 6.439-4.067 15.18-0.0177 3.318-0.26 4.072-1.381 4.296-1.261 0.2516-1.341-0.2403-1.103-6.782 0.1414-3.879 0.0884-7.053-0.1178-7.053-0.2062 0.000309-3.597 3.005-7.536 6.677l-7.161 6.677v6.881c0 6.353-0.674 8.745-2.071 7.348-0.2764-0.2764-0.5024-3.287-0.5024-6.691 0-3.403-0.1009-6.188-0.2242-6.188-0.7846 0-8.966 6.072-8.966 6.654 0 0.3948 0.3108 1.292 0.6909 1.994 0.38 0.7022 1.722 3.391 2.982 5.975s3.1 5.758 4.088 7.054c3.127 4.1 2.5 7.522-3.776 20.6-2.135 4.448-4.084 9.612-4.33 11.48l-0.4489 3.388 5.727 0.5133c3.15 0.2823 7.051 0.8105 8.668 1.174 1.618 0.3632 5.443 0.8632 8.502 1.111l5.561 0.4507 4.106 5.678c2.258 3.123 4.586 6.826 5.173 8.23 1.196 2.864 12.8 18.34 13.75 18.34 0.3363 0 0.789-0.463 1.006-1.029zm106.4-10.88c0.5815-1.087 0.7188-3.801 0.4214-8.329l-0.4412-6.718 3.832-0.01823c5.351-0.02544 13.73-1.059 14.15-1.746 0.4227-0.6839-1.812-1.213-9.216-2.184-10.57-1.385-11.63-1.72-15.8-4.986-7.208-5.642-4.669-14.62 4.522-16 2.422-0.3631 3.485-0.8975 3.742-1.88 0.3992-1.526 2.108-1.859 2.562-0.499 0.1602 0.4806 0.0419 2.383-0.2626 4.228-0.3046 1.844-0.5735 6.06-0.5976 9.367l-0.0441 6.013 3.86 0.7558c2.123 0.4157 5.824 0.9812 8.224 1.257 2.4 0.2755 5.8 1.136 7.556 1.913 5.35 2.367 8.178-0.2002 10.96-9.948 2.182-7.644 2.167-9.231-0.1335-14.26-3.039-6.644-3.976-9.893-3.988-13.82-0.007-2.156-0.4927-4.384-1.168-5.348-1.19-1.698-1.376-2.982-2.137-14.73-0.41-6.329-0.3423-6.841 0.8731-6.611 0.8081 0.1533 1.408 1.029 1.55 2.266 0.3964 3.434 8.037 2.442 8.199-1.065 0.0132-0.2789-1.217-0.6097-2.734-0.7352-4.102-0.3395-3.715-2.327 0.5456-2.801 4.614-0.5136 5.532-2.519 4.466-9.758-0.4304-2.923-0.7001-7.465-0.5993-10.09 0.1628-4.247-0.0625-5.147-2.021-8.087-6.183-9.28-8.027-9.225-7.462 0.2249 0.2965 4.959 0.1845 5.708-0.824 5.514-1.667-0.3212-2.434-3.936-1.919-9.048 0.2443-2.426 0.4299-4.714 0.4124-5.083-0.0176-0.3696-1.66-1.362-3.65-2.206-1.99-0.8436-4.16-1.985-4.822-2.536-1.044-0.8696-1.543-0.7042-3.77 1.25-3.181 2.793-6.197 3.388-14.28 2.818-3.476-0.2453-7.481-0.1483-8.9 0.2154-1.419 0.3638-4.566 1.049-6.992 1.523-2.426 0.4738-6.502 1.82-9.058 2.991s-4.909 2.13-5.229 2.13c-0.5277 0-2.532 1.419-8.278 5.863-1.088 0.8416-3.506 3.828-5.373 6.636-3.544 5.331-10.87 12.48-12.83 12.52-0.6269 0.01434-1.929 0.4635-2.894 0.9981l-1.754 0.9721 2.121 0.4746c7.757 1.736 27.12 1.365 32.55-0.6233 5.047-1.848 11.73-5.145 12.58-6.205 0.2022-0.2522 2.742-2.063 5.643-4.025 2.902-1.961 6.358-4.683 7.68-6.047 2.682-2.768 4.322-3.183 4.322-1.096 0 1.665-4.276 5.65-10.09 9.4-2.338 1.509-4.913 3.298-5.721 3.975-6.171 5.168-17.03 8.767-26.44 8.767h-6.806l-0.5478 4.963c-1.352 12.25-1.061 12.77 15.85 28.5 9.44 8.782 12.62 16.15 12.74 29.54 0.0404 4.537 0.0485 4.554 2.713 5.6 2.136 0.8391 2.933 1.733 3.973 4.456 1.11 2.907 1.596 3.406 3.317 3.406 2.315 0 3.874 1.514 3.551 3.448-0.265 1.585 1.5 6.109 2.384 6.109 0.3411 0 1.008-0.7254 1.483-1.612zm8.421-30.9c-2.851-4.07-0.8136-9.218 3.32-8.391 1.388 0.2776 3.07 0.03007 4.373-0.6437 3.664-1.895 8.807-0.5952 8.807 2.226 0 1.36-3.478 4.588-6.249 5.801-7.372 3.225-8.613 3.347-10.25 1.008zm9.628-4.068c4.664-2.947 3.65-4.533-1.272-1.988-1.49 0.7703-3.044 0.9721-4.861 0.6311-2.332-0.4374-2.61-0.34-2.185 0.7659 0.2675 0.6969 0.4863 1.778 0.4863 2.402 0 1.618 3.792 0.7418 7.832-1.811zm-22.21-35.3c-6.417-4.456-1.971-13.65 9.049-18.72 6.85-3.148 12.42 0.4505 9.588 6.2-3.938 8.005-14.71 15.24-18.64 12.52zm5.235-4.937c0.6271-3.343 5.358-7.734 8.332-7.734 2.407 0 3.396-1.595 2.281-3.678-1.321-2.468-6.685 0.02882-13.76 6.402-3.061 2.759-3.084 2.818-2.057 5.18 1.521 3.501 4.529 3.403 5.199-0.1698zm13.7-17.32c-5.062-4.261-6.552-6.593-4.212-6.593 1.485 0 11.56 8.762 11.22 9.763-0.5758 1.727-1.908 1.125-7.011-3.171zm-14.75 67.48c0.8342-13.03-0.5036-15.15-6.33-10.03-3.54 3.108-3.374 4.936 0.7848 8.659 3.808 3.409 5.39 3.8 5.545 1.374zm-21.19-4.716c-1.189-6.94-0.8676-6.688-4.901-3.845-3.911 2.757-3.812 3.267 1.352 6.938 4.716 3.353 4.662 3.401 3.55-3.093zm52.99-44.79c0.6473-1.687 0.5949-1.778-1.024-1.778-1.417 0-1.992 1.439-0.9803 2.451 0.8051 0.8051 1.531 0.5615 2.004-0.6728zm43.01 0.4914c0.7792-0.4934 0.109-1.307-2.795-3.393-3.619-2.6-6.964-6.858-11.25-14.32-2.791-4.858-10.76-14.19-12.99-15.22-6.045-2.777-7.511-0.1601-6.021 10.74 0.7018 5.136 0.6881 6.824-0.0689 8.486-1.075 2.36-1.453 1.955 6.735 7.212 10.1 6.484 21.84 9.371 26.39 6.488zm-19.04-12.1c0-0.9479-3.445-4.304-8.815-8.585-3.875-3.09-1.356-4.232 2.953-1.339 6.895 4.63 11.12 10.93 7.332 10.93-0.8087 0-1.47-0.4541-1.47-1.009zm-208.8 4.393c3.033-2.019 7.343-5.343 9.578-7.387s6.205-5.536 8.823-7.76c2.617-2.224 6.413-5.788 8.435-7.92 9.303-9.81 18.58-18.63 20.62-19.61 1.441-0.69 7.66-1.446 17.5-2.129 8.396-0.5821 15.37-1.178 15.5-1.325 0.4191-0.4677 4.967-11.17 6.248-14.7 0.6788-1.871 1.736-4.187 2.349-5.146 0.6133-0.9592 1.641-3.067 2.283-4.685 0.6422-1.618 1.687-3.929 2.321-5.136 3.027-5.76-3.925-4.837-10.58 1.405-7.005 6.571-8.923 7.433-13.46 6.049-2.099-0.6404-4.809-1.388-6.022-1.662-1.213-0.2735-3.433-1.112-4.933-1.863-1.5-0.7514-3.353-1.366-4.117-1.366-1.333 0-14.18 12.94-15.89 16-0.4376 0.7847-2.207 3.047-3.932 5.027-6.124 7.03-8.995 10.94-8.995 12.26 0 0.7344-0.7515 2.064-1.67 2.954-0.9185 0.8905-2.547 2.942-3.618 4.56s-3.115 4.182-4.542 5.698c-2.796 2.972-2.416 2.885-13.7 3.135-4.311 0.09552-8.216 0.6157-10.2 1.359-1.769 0.6622-3.966 1.204-4.881 1.204-5.666 0-5.425 5.518 0.7542 17.28 4.116 7.833 4.674 8.599 5.773 7.931 0.4596-0.2794 3.317-2.16 6.35-4.179zm226.3-6.794c2.644-0.7083 13.69-25.64 15.5-34.98 1.363-7.037 2.461-19.71 1.948-22.48-1.096-5.908-3.329-6.332-19.63-3.735-13.53 2.156-20.4 5.535-13.47 6.62 20.9 3.269 23.99 7.155 18.08 22.76-6.151 16.25-14.02 17.84-25.1 5.055-7.006-8.087-20.96-11.92-14.69-4.034 1.19 1.498 2.757 4.01 3.482 5.583 1.069 2.32 1.707 2.863 3.381 2.878 5.015 0.0461 8.167 1.513 10.8 5.027 1.415 1.887 3.761 4.758 5.214 6.38 1.452 1.622 3.599 4.676 4.77 6.788s2.63 3.976 3.241 4.142c1.788 0.4865 4.657 0.4882 6.465 0.0037zm-113.7-23.98c1.164-0.9098 3.031-2.352 4.15-3.205 7.855-5.988 23.22-10.11 36.96-9.916 12.02 0.1697 15.55-1.88 10.84-6.292-5.474-5.129-7.224-5.572-12.3-3.118-1.763 0.8516-6.208 2.012-9.88 2.578-3.671 0.5664-8.329 1.506-10.35 2.088-6.724 1.936-16.49 2.743-20.59 1.703-8.066-2.047-7.146-13.91 2.152-27.76 1.849-2.756 3.362-5.232 3.362-5.503 0-0.8355 6.315-8.682 9.318-11.58 4.642-4.476 6.03-4.359 14.83 1.257 7.101 4.53 9.276 5.6 18.85 9.269 3.939 1.51 8.465 1.868 8.465 0.67 0-0.4044-0.7444-0.7469-1.654-0.7613-4.766-0.07505-14.16-9.61-18.56-18.83-3.957-8.3-6.095-9.961-14.48-11.25-13.69-2.1-24.73 9.2-38.75 39.66-1.769 3.842-3.667 7.637-4.218 8.435-0.551 0.7976-1.002 1.992-1.002 2.655 0 0.6628-1.323 4.029-2.941 7.481-4.802 10.25-3.687 15.7 3.865 18.92 2.12 0.9027 5.178 2.23 6.795 2.951 6.182 2.753 12.04 2.965 15.14 0.5471zm14.53-19.76c1.762-0.3759 4.408-1.289 5.882-2.03 1.473-0.7404 5.739-2.882 9.48-4.758 6.95-3.487 8.33-4.883 4.826-4.883-5.47 0-23.7-7.337-28.02-11.28l-1.685-1.537-1.765 2.179c-5.334 6.585-8.963 19.87-6.077 22.24 1.981 1.627 9.904 1.658 17.36 0.06749zm16.96-22.44c-3.317-4.39-6.744-8.809-7.615-9.82-0.8717-1.011-1.998-2.665-2.502-3.676-0.5044-1.011-1.485-2.585-2.179-3.499l-1.262-1.661-2.769 2.283c-4.648 3.832-8.843 10.61-7.708 12.45 2.193 3.564 27.14 13.63 29.84 12.04 0.1255-0.07417-2.486-3.727-5.802-8.117z"/>
<path id="path3531" style="color:#000000" fill-rule="evenodd" fill="#786f6a" d="m-387.3 49.8c-5.645 1.219-11.45 3.374-16.01 6.962-2.271 3.73-5.504 7.801-5.422 12.29 3.6 5.734 10.63 8.351 16.68 10.73 4.015 0.3077 2.68-5.371 2.757-7.812-0.1146-2.568-0.4497-5.352-0.3676-7.812 5.182 3.793 6.513 10.6 9.535 15.88 3.301 2.768 5.786-2.618 5.721-5.399 0.5906-7.003-4.98-11.94-8.432-17.21-0.9442-2.837 0.4307-8.482-4.457-7.628z"/>
<g>
<path id="path3094" d="m-540.6 190.6 4.473-22.42h-19.04l1.778-9.52h30.39l-7.398 37.68c-5.085 2.791-10.63 4.951-16.63 6.48-6.003 1.491-12.04 2.237-18.12 2.237-10.74 0-19.15-2.982-25.23-8.946-6.041-5.964-9.061-14.26-9.061-24.89 0-8.832 1.835-17.22 5.505-25.18 3.709-7.991 8.813-14.64 15.31-19.96 4.091-3.326 8.564-5.792 13.42-7.398 4.855-1.644 10.25-2.466 16.17-2.466 5.352 0.00009 10.48 0.6883 15.37 2.065 4.932 1.338 9.634 3.365 14.11 6.079l-2.351 12.33c-3.441-3.594-7.475-6.327-12.1-8.201-4.626-1.912-9.558-2.867-14.8-2.867-6.079 0.00008-11.43 1.166-16.06 3.498-4.626 2.294-8.755 5.869-12.39 10.72-3.097 4.129-5.544 9.004-7.341 14.62-1.759 5.582-2.638 11.28-2.638 17.09-0.00002 7.991 2.045 14.01 6.136 18.06 4.091 4.014 10.19 6.022 18.29 6.022 4.053 0.00001 7.971-0.4206 11.76-1.262 3.785-0.8793 7.264-2.141 10.44-3.785"/>
<path id="path3096" d="m-432.1 124.4-2.351 12.22c-3.67-3.708-7.57-6.461-11.7-8.258-4.091-1.797-8.526-2.695-13.3-2.695-6.538 0.00008-12.29 1.568-17.26 4.703-4.932 3.135-9.195 7.914-12.79 14.34-2.294 4.129-4.053 8.507-5.276 13.13-1.185 4.588-1.778 9.214-1.778 13.88-0.00002 7.799 2.007 13.74 6.022 17.84 4.053 4.091 9.921 6.136 17.61 6.136 5.314 0.00001 10.42-0.8411 15.31-2.523 4.894-1.72 9.654-4.282 14.28-7.685l-2.695 13.71c-4.55 1.95-9.157 3.422-13.82 4.416-4.626 0.994-9.271 1.491-13.94 1.491-10.97 0-19.56-2.982-25.75-8.946-6.155-5.964-9.233-14.26-9.233-24.89-0.00001-6.805 1.166-13.5 3.498-20.07 2.37-6.576 5.754-12.58 10.15-18.01 4.664-5.773 9.979-10.04 15.94-12.79 6.002-2.753 12.98-4.129 20.93-4.129 4.894 0.00009 9.52 0.6883 13.88 2.065 4.397 1.338 8.488 3.365 12.27 6.079"/>
<path id="path3098" d="m-350 124.4-2.351 12.22c-3.67-3.708-7.57-6.461-11.7-8.258-4.091-1.797-8.526-2.695-13.3-2.695-6.538 0.00008-12.29 1.568-17.26 4.703-4.932 3.135-9.195 7.914-12.79 14.34-2.294 4.129-4.053 8.507-5.276 13.13-1.185 4.588-1.778 9.214-1.778 13.88-0.00002 7.799 2.007 13.74 6.022 17.84 4.053 4.091 9.921 6.136 17.61 6.136 5.314 0.00001 10.42-0.8411 15.31-2.523 4.894-1.72 9.654-4.282 14.28-7.685l-2.695 13.71c-4.55 1.95-9.157 3.422-13.82 4.416-4.626 0.994-9.271 1.491-13.94 1.491-10.97 0-19.56-2.982-25.75-8.946-6.155-5.964-9.233-14.26-9.233-24.89 0-6.805 1.166-13.5 3.498-20.07 2.37-6.576 5.754-12.58 10.15-18.01 4.664-5.773 9.979-10.04 15.94-12.79 6.002-2.753 12.98-4.129 20.93-4.129 4.894 0.00009 9.52 0.6883 13.88 2.065 4.397 1.338 8.488 3.365 12.27 6.079"/>
</g>
</g>
</svg>
