<svg xmlns:rdf="http://www.w3.org/1999/02/22-rdf-syntax-ns#" xmlns="http://www.w3.org/2000/svg" version="1.0" xmlns:cc="http://creativecommons.org/ns#" xmlns:dc="http://purl.org/dc/elements/1.1/" viewBox="0 0 1144 408.4">
<g transform="translate(162.87 -197.31)">
<g transform="matrix(1.2932 0 0 1.2932 -4878.3 -1224.9)">
<g transform="matrix(2.4386 0 0 2.4386 3660 1113.5)">
<g>
<path id="path15047" d="m86.068 0c-24.602 0-29.217 35.041-15.377 35.041 13.838 0 39.979-35.041 15.377-35.041z"/>
<path id="path15049" d="m45.217 30.699c7.369 0.45 15.454-28.122 1.604-26.325-13.845 1.797-8.976 25.875-1.604 26.325z"/>
<path id="path15051" d="m11.445 48.453c5.241-2.307 0.675-24.872-8.237-18.718-8.908 6.155 2.996 21.024 8.237 18.718z"/>
<path id="path15053" d="m26.212 36.642c6.239-1.272 6.581-26.864-4.545-22.273-11.128 4.592-1.689 23.547 4.545 22.273z"/>
<path id="path15055" d="m58.791 93.913c1.107 8.457-6.202 12.627-13.36 7.177-22.787-17.347 37.729-26.002 33.74-49.704-3.311-19.674-63.676-13.617-70.55 17.167-4.653 20.821 19.153 49.707 43.993 49.707 12.22 0 26.315-11.03 28.952-25.012 2.014-10.659-23.699-6.388-22.775 0.665z"/>
</g>
</g>
<path id="path15059" d="m4176.3 1214.4c-15.1 0.4-27 5.9-35.8 16.3-9.1 10.8-13.7 25.8-13.7 44.9 0 19 4.6 34 13.7 44.8s21.7 16.3 37.6 16.3c16.1 0 28.6-5.5 37.7-16.3s13.7-25.8 13.7-44.8c0-19.1-4.6-34.1-13.7-44.9s-21.6-16.3-37.7-16.3h-1.8zm1.1 22h0.7c7.9 0 14 3.5 18.4 10.3 4.3 6.8 6.5 16.5 6.5 28.9s-2.2 21.9-6.5 28.8c-4.4 6.8-10.5 10.3-18.4 10.3-7.8 0-13.9-3.5-18.2-10.3-4.3-6.9-6.5-16.4-6.5-28.8s2.2-22.1 6.5-28.9c4.2-6.6 10-10.1 17.5-10.3z"/>
<path id="path15061" d="m4005.6 1325.6c-13.3 11.2-33.1 11.1-41.3 11.1-16.6 0-29.8-5.5-39.5-16.5-9.7-10.9-14.6-25.8-14.6-44.6 0-19 5-33.9 14.9-44.8 9.8-10.9 23.4-16.4 40.6-16.4 6.6 0 13 0.8 19 2.2 6.1 1.5 11.9 3.7 17.3 6.6l-7 20.4c-3-1.6-6.5-3.2-9.7-4.4-5.5-1.8-11-2.8-16.5-2.8-10.2 0-18.1 3.4-23.7 10.2-5.5 6.8-8.3 16.4-8.3 29 0 12.5 2.7 22.1 8 28.9 5.4 6.8 13.4 10.1 22.8 10.1 9.6 0 15.5-2.4 18.6-4.9v-20.4h-20.7v-20.3h40.1"/>
<path id="path15063" d="m4023.2 1216.6h16.2l51.3 70.8v-70.8h21.9v117.8h-16.2l-51.3-70.8v70.8h-21.9v-117.8"/>
<path id="path15065" d="m4246.3 1216.6h32.8l22.7 73.5 22.8-73.5h27.7l12.5 117.8h-24.3l-7.5-73.7-23 74h-16.3l-23-76.5-7.5 76.2h-24.4l12.5-117.8"/>
<path id="path15067" d="m4382.4 1216.6h69.4v22.9h-43.7v24.5h33.6v20.4h-33.6v27h45.1v23h-70.8v-117.8"/>
<text xml:space="preserve" font-size="30.69px" y="1215.743" x="4474.6182" font-family="Bitstream Vera Sans" fill="black"><tspan y="1215.743" x="4474.6182" style="letter-spacing:11.063"><tspan style="letter-spacing:.25238">TM</tspan></tspan></text>
</g>
</g>
</svg>
