<svg xmlns:rdf="http://www.w3.org/1999/02/22-rdf-syntax-ns#" xmlns="http://www.w3.org/2000/svg" xml:space="preserve" height="135.5" viewBox="0 0 646.23993 135.52969" width="646.2" version="1.1" xmlns:cc="http://creativecommons.org/ns#" xmlns:dc="http://purl.org/dc/elements/1.1/"><g transform="matrix(1.25 0 0 -1.25 -27.97 157.9)"><path id="path16" d="m58.11 76.89-16.21-28.1-16.19 28.1 16.2 28.06 16.2-28.06" fill="#526069"/><path id="path18" d="m74.32 104.9h-32.4l16.2-28.06 32.41 0.0008-16.21 28.06" fill="#b7ac68"/><path id="path20" d="m74.31 48.78 16.21 28.1l16.18-28.1-16.19-28.06-16.2 28.06" fill="#526069"/><path id="path22" d="m58.1 20.72h32.4l-16.2 28.06-32.41-0.002 16.21-28.06" fill="#b7ac68"/><path id="path24" d="m165.4 49.19v55.43h-8.867v-22.91h-26.19v22.91h-8.949v-55.43h8.949v24.88h26.19v-24.88h8.867" fill="#526069"/><path id="path26" d="m191.1 49.19v55.43h-8.951v-55.43h8.951" fill="#526069"/><path id="path28" d="m235.3 65.78c0-5.584-3.859-9.525-11.99-9.525-2.874 0-5.09 0.1649-6.486 0.411v17.65c1.232 0.0828 4.105 0.0828 5.008 0.0828 7.801 0 13.47-2.3 13.47-8.622zm-1.067 24.22c0-5.584-4.351-8.95-12.64-8.95-1.889 0-3.284 0-4.762 0.082v16.42c2.134 0.0816 4.516 0.1644 6.98 0.1644 7.881 0 10.43-3.203 10.43-7.719zm10.51-24.06c0 5.748-3.366 11.25-10.59 12.64v0.1645c5.666 1.971 9.443 6.98 9.443 12.65 0 8.539-6.24 13.47-18.31 13.47-6.733 0-13.06-0.164-17.41-0.247v-55.43c6.159-0.082 11.74-0.2461 15.11-0.2461 17 0 21.76 9.772 21.76 17" fill-rule="evenodd" fill="#526069"/><path id="path30" d="m287.2 49.19v7.637h-20.28v17.24h19.3v7.307h-19.3v15.77h20.28v7.472h-29.23v-55.43h29.23" fill="#526069"/><path id="path32" d="m326 88.94c0-5.502-4.353-9.196-11.58-9.196-1.97 0-3.53 0.082-4.351 0.1641v17.57c1.313 0.082 2.956 0.1636 4.68 0.1636 7.472 0 11.25-2.627 11.25-8.704zm12.97-39.74-14.62 19.3c-1.396 1.806-3.12 3.941-4.681 5.912 9.033 0.9844 15.68 6.65 15.68 15.52 0 11-7.883 15.03-19.38 15.03-6.241 0-10.84-0.082-14.86-0.329v-55.43h8.95v23.98h0.41l17.24-23.98h11.25" fill-rule="evenodd" fill="#526069"/><path id="path34" d="m394.9 49.19v55.43h-8.704v-16.42c0-8.129 0.247-20.04 0.575-26.36-2.053 4.024-4.27 8.457-6.733 12.56l-18.31 30.22h-11.74v-55.43h8.704v18.64c0 7.883-0.164 19.13-0.493 24.55 1.724-3.695 3.695-7.636 6.159-11.66l18.97-31.53h11.58" fill="#b7ac68"/><path id="path36" d="m437.5 68.57h-17.74l6.24 17.16c1.068 2.956 1.971 5.994 2.546 8.786h0.164c0.658-3.038 1.396-5.666 2.464-8.539l6.322-17.41zm16.59-19.38-20.12 55.43h-9.935l-19.87-55.43h9.032l4.269 12.24h22.42l4.27-12.24h9.935" fill-rule="evenodd" fill="#b7ac68"/><path id="path38" d="m491.6 97.07v7.554h-39.41v-7.554h15.19v-47.87h8.951v47.87h15.27" fill="#b7ac68"/><path id="path40" d="m530.1 49.19v7.637h-20.28v17.24h19.3v7.307h-19.3v15.77h20.28v7.472h-29.23v-55.43h29.23" fill="#b7ac68"/></g></svg>
