<?xml version="1.0" encoding="UTF-8" standalone="no"?>
<svg
   xmlns:dc="http://purl.org/dc/elements/1.1/"
   xmlns:cc="http://creativecommons.org/ns#"
   xmlns:rdf="http://www.w3.org/1999/02/22-rdf-syntax-ns#"
   xmlns:svg="http://www.w3.org/2000/svg"
   xmlns="http://www.w3.org/2000/svg"
   xmlns:sodipodi="http://sodipodi.sourceforge.net/DTD/sodipodi-0.dtd"
   xmlns:inkscape="http://www.inkscape.org/namespaces/inkscape"
   enable-background="new 0 0 612 792"
   xml:space="preserve"
   viewBox="0 0 195 60"
   version="1.1"
   y="0px"
   x="0px"
   id="svg2"
   inkscape:version="0.91 r13725"
   sodipodi:docname="htcondor.svg"><metadata
     id="metadata15"><rdf:RDF><cc:Work
         rdf:about=""><dc:format>image/svg+xml</dc:format><dc:type
           rdf:resource="http://purl.org/dc/dcmitype/StillImage" /><dc:title></dc:title></cc:Work></rdf:RDF></metadata><defs
     id="defs13" /><sodipodi:namedview
     pagecolor="#ffffff"
     bordercolor="#666666"
     borderopacity="1"
     objecttolerance="10"
     gridtolerance="10"
     guidetolerance="10"
     inkscape:pageopacity="0"
     inkscape:pageshadow="2"
     inkscape:window-width="640"
     inkscape:window-height="480"
     id="namedview11"
     showgrid="false"
     inkscape:zoom="8.2615385"
     inkscape:cx="75.712291"
     inkscape:cy="30"
     inkscape:current-layer="svg2" /><g
     id="g7200"><path
       id="path5"
       d="M 61.435547 10.980469 C 61.173093 10.980469 60.924832 11.005793 60.667969 11.015625 L 60.75 10.982422 L 51.816406 10.982422 L 53.152344 13.029297 C 51.855193 13.763648 50.703413 14.67157 49.720703 15.736328 C 46.990489 18.694493 45.521484 22.804145 45.521484 27.410156 C 45.521484 31.886424 46.990541 35.930322 49.720703 38.855469 C 52.450865 41.780615 56.440184 43.578125 61.435547 43.578125 C 69.353046 43.578125 74.967304 38.578777 75.691406 30.830078 L 75.710938 30.611328 L 68.513672 30.611328 L 68.490234 30.785156 C 68.225585 32.775929 67.50087 34.453287 66.330078 35.630859 C 65.159287 36.808432 63.540001 37.496094 61.435547 37.496094 C 58.33358 37.496094 56.236445 36.242501 54.886719 34.357422 C 53.536992 32.472343 52.947266 29.94075 52.947266 27.410156 C 52.947266 27.078125 52.957762 26.746395 52.976562 26.416016 C 53.116906 23.944691 53.795526 21.599064 55.150391 19.882812 C 56.505256 18.166562 58.52769 17.0625 61.435547 17.0625 C 64.838811 17.0625 67.791394 19.330649 68.222656 22.273438 L 68.248047 22.443359 L 75.451172 22.443359 L 75.423828 22.220703 C 74.56086 15.01783 68.538694 10.980469 61.435547 10.980469 z M 1 10.982422 L 1 43.357422 L 8.453125 43.357422 L 8.453125 30.488281 L 21.056641 30.488281 L 21.056641 43.357422 L 28.509766 43.357422 L 28.509766 17.818359 L 21.056641 17.818359 L 21.056641 23.851562 L 8.453125 23.851562 L 8.453125 10.982422 L 1 10.982422 z M 142.65039 12.523438 L 142.65039 24.216797 L 142.56055 24.216797 C 141.34055 20.886797 137.97 19.132812 134.5 19.132812 C 127.44 19.132812 124.06055 24.846016 124.06055 31.416016 C 124.06055 37.986016 127.44 43.701172 134.5 43.701172 C 137.88 43.701172 141.5693 41.632188 142.7793 38.617188 L 142.86914 38.617188 L 142.86914 43.027344 L 145.48047 43.027344 L 145.48047 14.628906 L 142.65039 12.523438 z M 89.279297 19.134766 C 82.169297 19.134766 78.300781 24.757969 78.300781 31.417969 C 78.300781 38.077969 82.169297 43.703125 89.279297 43.703125 C 96.388297 43.703125 100.25977 38.077969 100.25977 31.417969 C 100.25977 24.757969 96.388297 19.134766 89.279297 19.134766 z M 112.99023 19.134766 C 109.71023 19.134766 106.61031 21.023453 105.57031 23.814453 L 105.48047 23.814453 L 105.48047 19.808594 L 102.64062 19.808594 L 102.64062 43.025391 L 105.48047 43.025391 L 105.48047 29.482422 C 105.57047 24.939422 108.26953 21.519531 112.76953 21.519531 C 117.35953 21.519531 118.66016 24.533063 118.66016 28.539062 L 118.66016 43.027344 L 121.5 43.027344 L 121.5 28.087891 C 121.5 22.552891 119.52023 19.134766 112.99023 19.134766 z M 184.71094 19.488281 C 180.91094 19.597281 178.04922 21.752906 176.69922 25.253906 L 176.60938 25.253906 L 176.60938 19.808594 L 174 19.808594 L 174 43.027344 L 176.83984 43.027344 L 176.83984 30.654297 C 176.83984 25.838297 180.35047 22.058125 185.48047 22.328125 L 185.48047 19.494141 C 185.22047 19.483141 184.96094 19.481281 184.71094 19.488281 z M 153.33008 21.236328 C 150.44008 23.465328 148.91016 27.234969 148.91016 31.417969 C 148.91016 38.077969 152.78063 43.703125 159.89062 43.703125 C 167.00062 43.703125 170.86914 38.077969 170.86914 31.417969 C 170.86914 27.587969 169.58039 24.109891 167.15039 21.837891 L 165.2207 23.708984 C 167.1007 25.612984 168.0293 28.511969 168.0293 31.417969 C 168.0293 36.366969 165.33062 41.318359 159.89062 41.318359 C 154.44063 41.318359 151.74023 36.366969 151.74023 31.417969 C 151.74023 28.148969 152.93078 24.889875 155.30078 23.046875 L 153.33008 21.236328 z M 89.279297 21.519531 C 94.724297 21.519531 97.425781 26.468969 97.425781 31.417969 C 97.425781 36.366969 94.724297 41.318359 89.279297 41.318359 C 83.834297 41.318359 81.134766 36.366969 81.134766 31.417969 C 81.134766 26.468969 83.834297 21.519531 89.279297 21.519531 z M 134.5 21.519531 C 140.53 21.519531 142.65039 26.603969 142.65039 31.417969 C 142.65039 36.231969 140.53 41.318359 134.5 41.318359 C 129.1 41.318359 126.90039 36.232969 126.90039 31.417969 C 126.90039 26.602969 129.1 21.519531 134.5 21.519531 z " /><path
       style="fill:#d31245;fill-opacity:1"
       id="polyline15"
       d="M 193.56836 0.56445312 C 193.00868 0.62039258 191.92905 0.86423437 190.16992 1.3652344 C 182.03292 3.6812344 169.83027 6.5383438 160.44727 14.277344 C 150.75227 5.7873437 135.17023 2.1054687 131.49023 1.3554688 C 128.22023 0.68846875 122.92039 -0.094734375 127.52539 1.5722656 C 138.75239 5.1552656 156.64819 20.226516 159.74219 24.978516 C 160.14819 25.601516 160.5473 25.600094 161.0293 24.996094 C 164.7563 20.323094 174.60539 11.570297 192.77539 1.5292969 C 193.99039 0.89992187 194.50116 0.4712207 193.56836 0.56445312 z M 21.054688 10.982422 L 21.054688 17.816406 L 33.802734 17.816406 L 33.802734 43.357422 L 41.625 43.357422 L 41.625 17.839844 L 54.4375 17.839844 L 54.4375 10.982422 L 21.054688 10.982422 z " /></g><path
     id="path23"
     fill="#d31245"
     d="m115.49 49.414c-1.99 0-2.6 1.277-2.6 4.082 0 2.807 0.61 4.082 2.59 4.082 1.85 0 2.42-1.386 2.42-2.805v-0.166h-1.25v0.133c0 0.726-0.12 1.893-1.17 1.893-0.92 0-1.34-0.637-1.34-3.168s0.42-3.104 1.34-3.104c0.9-0.033 1.12 0.803 1.12 1.53v0.132h1.26v-0.144c0-0.814-0.13-2.465-2.37-2.465zm-105.92 0.066v1.188h1.1898v-1.188h-1.1898zm150.91 0v1.188h1.19v-1.188h-1.19zm-159.47 0.088v7.854h1.2539v-3.651h2.3105v3.651h1.2539v-7.854h-1.2539v3.147h-2.3105v-3.147h-1.2539zm21.197 0v7.854h1.19v-3.971c0-0.77 0.463-1.156 0.947-1.156 0.594 0 0.822 0.297 0.822 1.068v4.059h1.19v-4.467c0-1.199-0.574-1.603-1.475-1.603-0.605 0-1.123 0.306-1.453 0.812l-0.033-0.021v-2.575h-1.188zm11.969 0v1.055h1.869v6.799h1.256v-6.799h1.836v-1.055h-4.961zm8.074 0v7.854h1.188v-3.971c0-0.77 0.463-1.156 0.947-1.156 0.594 0 0.824 0.297 0.824 1.068v4.059h1.188v-4.467c0-1.199-0.572-1.603-1.473-1.603-0.604 0-1.123 0.306-1.453 0.812l-0.033-0.021v-2.575h-1.188zm36.807 0v7.854h1.187v-3.971c0-0.77 0.462-1.156 0.946-1.156 0.594 0 0.826 0.297 0.826 1.068v4.059h1.187v-4.467c0-1.199-0.572-1.603-1.474-1.603-0.605 0-1.124 0.306-1.454 0.812l-0.033-0.021v-2.575h-1.185zm23.577 0.252v1.684h-0.81v0.881h0.81v3.676c0 1.21 0.4 1.429 1.2 1.429 0.38 0 0.71-0.033 0.96-0.099v-0.881c-0.11 0.021-0.25 0.033-0.43 0.033-0.41 0-0.54-0.165-0.54-0.627v-3.531h0.97v-0.881h-0.97v-1.684h-1.19zm52.55 0v1.684h-0.81v0.881h0.81v3.676c0 1.21 0.4 1.429 1.2 1.429 0.38 0 0.71-0.033 0.96-0.099v-0.881c-0.11 0.021-0.25 0.033-0.43 0.033-0.41 0-0.54-0.165-0.54-0.627v-3.531h0.97v-0.881h-0.97v-1.684h-1.19zm-23.8 1.53c-0.56 0-1.12 0.318-1.42 0.847h-0.03v-0.693h-1.13v5.918h1.19v-3.971c0-0.77 0.46-1.156 0.94-1.156 0.49 0 0.72 0.297 0.72 1.068v4.059h1.19v-3.971c0-0.77 0.46-1.156 0.95-1.156 0.48 0 0.71 0.297 0.71 1.068v4.059h1.19v-4.5c0-1.144-0.6-1.572-1.44-1.572-0.71 0-1.15 0.33-1.5 0.902-0.17-0.496-0.52-0.902-1.37-0.902zm36.64 0c-0.66 0-1.22 0.318-1.52 0.847h-0.03v-0.693h-1.12v5.918h1.19v-3.971c0-0.77 0.46-1.156 0.94-1.156 0.6 0 0.83 0.297 0.83 1.068v4.059h1.18v-4.467c0-1.199-0.57-1.605-1.47-1.605zm-151.79 0.002c-1.684 0-1.88 1.748-1.88 3.046 0 1.617 0.384 2.981 1.771 2.981 0.572 0 1.121-0.295 1.342-0.813h0.021v0.957c0 0.681-0.386 1.11-1.002 1.11-0.528 0-0.857-0.34-0.857-0.703h-1.121c0 0.485 0.197 1.519 1.957 1.519 1.596 0 2.213-0.869 2.213-2.31v-5.635h-1.123v0.726h-0.022c-0.111-0.429-0.606-0.878-1.299-0.878zm36.368 0c-0.671 0-1.11 0.418-1.375 1.078h-0.024v-0.926h-1.187v5.92h1.187v-3.543c0-1.101 0.651-1.342 1.19-1.342 0.198 0 0.406 0.045 0.494 0.066v-1.21c-0.076-0.023-0.153-0.043-0.285-0.043zm5.322 0c-1.716 0-2.199 1.273-2.199 3.111s0.56 3.113 2.199 3.113c1.65 0 2.211-1.275 2.211-3.113s-0.483-3.111-2.211-3.111zm15.158 0c-1.684 0-1.881 1.748-1.881 3.046 0 1.617 0.385 2.981 1.772 2.981 0.572 0 1.121-0.295 1.342-0.813h0.021v0.957c0 0.681-0.386 1.11-1.002 1.11-0.528 0-0.857-0.34-0.857-0.703h-1.121c0 0.485 0.197 1.519 1.957 1.519 1.596 0 2.212-0.869 2.212-2.31v-5.635h-1.123v0.726h-0.019c-0.111-0.429-0.608-0.878-1.301-0.878zm16.215 0c-0.649 0-1.09 0.35-1.332 0.878h-0.022v-0.726h-1.123v7.855h1.19v-2.629h0.019c0.221 0.529 0.704 0.846 1.342 0.846 0.814 0 1.826-0.549 1.826-3.035 0-2.035-0.546-3.189-1.9-3.189zm33.857 0c-1.72 0-2.2 1.273-2.2 3.111s0.56 3.113 2.2 3.113c1.65 0 2.21-1.275 2.21-3.113s-0.48-3.111-2.21-3.111zm18.69 0c-0.65 0-1.09 0.35-1.33 0.878h-0.02v-0.726h-1.13v7.855h1.19v-2.629h0.02c0.22 0.529 0.71 0.846 1.34 0.846 0.82 0 1.83-0.549 1.83-3.035 0-2.035-0.55-3.189-1.9-3.189zm33.06 0c-1.68 0-1.88 1.748-1.88 3.046 0 1.617 0.39 2.981 1.77 2.981 0.58 0 1.13-0.295 1.35-0.813h0.02v0.957c0 0.681-0.39 1.11-1 1.11-0.53 0-0.86-0.34-0.86-0.703h-1.12c0 0.485 0.19 1.519 1.96 1.519 1.59 0 2.21-0.869 2.21-2.31v-5.635h-1.13v0.726h-0.02c-0.11-0.429-0.6-0.878-1.3-0.878zm-165.33 0.152v5.918h1.1898v-5.918h-1.1898zm53.946 0v4.139c0 1.53 0.592 1.935 1.472 1.935 0.661 0 1.223-0.32 1.52-0.848h0.033 0.002v0.692h1.121v-5.918h-1.189v4.139c0 0.66-0.463 0.988-0.969 0.988s-0.803-0.221-0.803-0.881v-4.246h-1.187zm31.062 0v4.139c0 1.53 0.595 1.935 1.475 1.935 0.661 0 1.22-0.32 1.517-0.848h0.033v0.692h1.123v-5.918h-1.187v4.139c0 0.66-0.465 0.988-0.971 0.988s-0.802-0.221-0.802-0.881v-4.246h-1.188zm52.548 0v4.139c0 1.53 0.59 1.935 1.47 1.935 0.66 0 1.22-0.32 1.52-0.848h0.03v0.692h1.13v-5.918h-1.19v4.139c0 0.66-0.46 0.988-0.97 0.988s-0.8-0.221-0.8-0.881v-4.246h-1.19zm13.35 0v5.918h1.19v-5.918h-1.19zm-102.56 0.728c0.869 0 1.023 0.924 1.023 2.233 0 1.507-0.154 2.232-1.023 2.232-0.857 0-1.012-0.725-1.012-2.232 0-1.308 0.155-2.233 1.012-2.233zm65.23 0c0.87 0 1.02 0.924 1.02 2.233 0 1.507-0.15 2.232-1.02 2.232-0.86 0-1.01-0.725-1.01-2.232 0-1.308 0.15-2.233 1.01-2.233zm-106.61 0.063c0.824 0 0.945 1.069 0.945 2.037 0 0.935-0.098 2.102-1.023 2.102-0.879 0-0.924-1.146-0.924-2.159 0-1.099 0.144-1.98 1.002-1.98zm56.848 0c0.824 0 0.945 1.069 0.945 2.037 0 0.935-0.098 2.102-1.023 2.102-0.879 0-0.924-1.146-0.924-2.159 0-1.099 0.144-1.98 1.002-1.98zm101.82 0c0.83 0 0.95 1.069 0.95 2.037 0 0.935-0.1 2.102-1.02 2.102-0.88 0-0.93-1.146-0.93-2.159 0-1.099 0.15-1.98 1-1.98zm-86.271 0.002c0.825 0 1.002 0.847 1.002 2.189 0 1.639-0.307 2.145-0.99 2.145-0.836 0-1.012-0.814-1.012-2.233 0-1.265 0.187-2.101 1-2.101zm52.551 0c0.82 0 1 0.847 1 2.189 0 1.639-0.31 2.145-0.99 2.145-0.84 0-1.01-0.814-1.01-2.233 0-1.265 0.18-2.101 1-2.101z" /></svg>