<svg xmlns:rdf="http://www.w3.org/1999/02/22-rdf-syntax-ns#" xmlns="http://www.w3.org/2000/svg" version="1.1" xml:space="preserve" height="80.829" width="585.02" enable-background="new 0 0 600 100" y="0px" x="0px" xmlns:cc="http://creativecommons.org/ns#" xmlns:dc="http://purl.org/dc/elements/1.1/" viewBox="0 0 585.01501 80.829002"><g fill="#00274d" transform="translate(-6.125,-13.001)"><path id="path7" d="m102.5 76.28c0 4.813-2.157 8.635-7.374 8.635-0.99 0-2.295-0.18-3.237-0.539v-2.742c0.808 0.403 2.021 0.584 2.923 0.584 3.464 0 4.587-2.743 4.587-5.847v-23.38h3.102v23.29z"/><path id="path9" d="m108.9 52.99h7.466c5.125 0 9.938 1.708 9.938 7.736 0 4.001-1.844 6.384-5.712 7.149v0.09c3.957 0.721 6.655 3.327 6.655 7.465 0 6.836-5.576 8.949-12.1 8.949h-6.251v-31.4zm3.1 28.69h3.237c4.184 0 8.905-1.123 8.905-6.115 0-5.576-4.811-6.16-9.4-6.16h-2.742v12.28zm0.1-14.97h3.462c3.284 0 7.645-0.854 7.645-5.846 0-4.543-4.183-5.172-6.834-5.172h-4.272v11.02z"/><path id="path11" d="m141.9 60.91c7.42 0 10.7 5.757 10.7 12.01 0 6.251-3.284 12.01-10.7 12.01-7.418 0-10.7-5.756-10.7-12.01 0-6.26 3.3-12.01 10.7-12.01zm0 21.58c4.948 0 7.601-4.272 7.601-9.579s-2.652-9.578-7.601-9.578c-4.946 0-7.6 4.271-7.6 9.578s2.7 9.58 7.6 9.58z"/><path id="path13" d="m155.3 81.05c1.708 0.854 3.778 1.439 5.982 1.439 2.698 0 5.081-1.483 5.081-4.092 0-5.441-11.02-4.588-11.02-11.24 0-4.543 3.688-6.252 7.465-6.252 1.214 0 3.642 0.27 5.668 1.033l-0.271 2.474c-1.485-0.674-3.509-1.078-5.082-1.078-2.925 0-4.946 0.899-4.946 3.823 0 4.271 11.29 3.732 11.29 11.24 0 4.855-4.542 6.52-8.007 6.52-2.202 0-4.406-0.27-6.43-1.078l0.1-2.78z"/><path id="path15" d="m171.9 81.05c1.709 0.854 3.777 1.439 5.98 1.439 2.698 0 5.083-1.483 5.083-4.092 0-5.441-11.02-4.588-11.02-11.24 0-4.543 3.687-6.252 7.466-6.252 1.213 0 3.642 0.27 5.666 1.033l-0.27 2.474c-1.484-0.674-3.511-1.078-5.084-1.078-2.922 0-4.946 0.899-4.946 3.823 0 4.271 11.29 3.732 11.29 11.24 0 4.855-4.542 6.52-8.004 6.52-2.204 0-4.407-0.27-6.433-1.078l0.1-2.78z"/><path id="path17" d="m206.6 52.99h7.106l12.32 31.39h-6.969l-2.699-7.195h-12.73l-2.744 7.195h-6.52l12.2-31.39zm3.4 6.3h-0.089l-4.543 12.95h9.174l-4.6-12.95z"/><path id="path19" d="m228.6 61.22h5.755v3.283h0.092c1.35-2.247 3.645-3.822 7.196-3.822 7.105 0 9.711 5.667 9.711 12.05 0 6.341-2.605 12.19-9.847 12.19-2.562 0-4.677-0.63-6.792-3.191h-0.089v12.1h-6.026v-32.61zm6.1 11.51c0 3.282 1.305 7.51 5.307 7.51 3.958 0 5.083-4.316 5.083-7.51 0-3.103-1.08-7.376-4.992-7.376-3.9 0.01-5.4 4.15-5.4 7.38z"/><path id="path21" d="m255.2 61.22h5.756v3.283h0.09c1.349-2.247 3.643-3.822 7.196-3.822 7.104 0 9.713 5.667 9.713 12.05 0 6.341-2.608 12.19-9.849 12.19-2.563 0-4.676-0.63-6.791-3.191h-0.088v12.1h-6.027v-32.61zm6.1 11.51c0 3.282 1.306 7.51 5.307 7.51 3.959 0 5.082-4.316 5.082-7.51 0-3.103-1.08-7.376-4.992-7.376-3.9 0.01-5.4 4.15-5.4 7.38z"/><path id="path23" d="m281.9 50.65h6.027v33.73h-6v-33.73z"/><path id="path25" d="m293.5 51.24h6.025v5.756h-6.025v-5.76zm0 9.98h6.025v23.16h-6.025v-23.16z"/><path id="path27" d="m320 66.21c-1.079-0.494-2.248-0.855-4.092-0.855-3.733 0-6.116 2.969-6.116 7.331 0 4.272 2.023 7.555 6.25 7.555 1.71 0 3.599-0.629 4.633-1.079l0.268 4.991c-1.75 0.54-3.552 0.765-6.024 0.765-7.6 0-11.42-5.171-11.42-12.23 0-6.701 3.957-12.01 11.2-12.01 2.43 0 4.183 0.271 5.847 0.766l-0.5 4.76z"/><path id="path29" d="m325.1 62.44c2.337-1.079 5.486-1.755 8.05-1.755 7.059 0 9.983 2.924 9.983 9.76v2.967c0 2.34 0.044 4.094 0.09 5.802 0.045 1.754 0.136 3.373 0.27 5.172h-5.307c-0.225-1.213-0.225-2.742-0.27-3.463h-0.09c-1.396 2.563-4.407 4.002-7.151 4.002-4.092 0-8.096-2.473-8.096-6.881 0-3.462 1.667-5.485 3.959-6.609 2.292-1.125 5.261-1.35 7.78-1.35h3.326c0-3.732-1.662-4.992-5.216-4.992-2.562 0-5.125 0.989-7.15 2.519l-0.3-5.17zm7 18.07c1.845 0 3.282-0.809 4.229-2.068 0.989-1.305 1.258-2.968 1.258-4.766h-2.607c-2.698 0-6.701 0.448-6.701 4.002 0 1.99 1.7 2.84 3.8 2.84z"/><path id="path31" d="m350.1 65.63h-4.453v-4.41h4.453v-4.63l6.025-1.935v6.564h5.352v4.407h-5.352v10.79c0 1.979 0.539 3.822 2.834 3.822 1.078 0 2.112-0.226 2.742-0.629l0.18 4.767c-1.258 0.359-2.654 0.539-4.451 0.539-4.723 0-7.33-2.923-7.33-7.509v-11.78z"/><path id="path33" d="m364.9 51.24h6.025v5.756h-6.025v-5.76zm0 9.98h6.025v23.16h-6.025v-23.16z"/><path id="path35" d="m387 60.68c6.878 0 12.14 4.633 12.14 12.28 0 6.655-4.451 11.96-12.14 11.96-7.647 0-12.1-5.306-12.1-11.96 0-7.65 5.2-12.28 12.1-12.28zm0 19.56c4.63 0 5.845-4.138 5.845-8.004 0-3.552-1.889-6.882-5.845-6.882-3.913 0-5.804 3.418-5.804 6.882 0 3.82 1.2 8 5.8 8z"/><path id="path37" d="m402.9 61.22h5.709v3.149h0.091c1.889-2.654 4.452-3.688 7.601-3.688 5.487 0 7.869 3.869 7.869 9.084v14.62h-6.025v-12.36c0-2.835-0.045-6.657-3.912-6.657-4.362 0-5.307 4.723-5.307 7.69v11.33h-6.025v-23.16z"/><path id="path39" d="m453.2 58.75c-1.98-0.854-4.184-1.349-6.387-1.349-2.158 0-4.946 0.945-4.946 4.364 0 5.44 13.76 3.146 13.76 13.67 0 6.881-5.439 9.488-11.78 9.488-3.42 0-4.947-0.449-8.052-1.214l0.586-5.667c2.159 1.17 4.632 1.935 7.106 1.935 2.383 0 5.576-1.214 5.576-4.047 0-5.981-13.76-3.508-13.76-13.9 0-7.016 5.443-9.578 10.97-9.578 2.697 0 5.217 0.359 7.509 1.123l-0.6 5.18z"/><path id="path41" d="m478.5 83.08c-2.204 1.213-4.721 1.843-7.96 1.843-7.643 0-12.1-4.407-12.1-12.01 0-6.7 3.552-12.23 10.75-12.23 8.59 0 11.02 5.893 11.02 13.99h-16.01c0.271 3.733 2.878 5.846 6.61 5.846 2.923 0 5.441-1.078 7.689-2.338v4.9zm-4.1-12.55c-0.179-2.923-1.527-5.441-4.903-5.441-3.371 0-5.079 2.339-5.35 5.441h10.2z"/><path id="path43" d="m484.2 61.22h5.353v5.263h0.089c0.271-2.159 2.744-5.802 6.34-5.802 0.586 0 1.216 0 1.844 0.181v6.071c-0.536-0.315-1.617-0.495-2.697-0.495-4.902 0-4.902 6.116-4.902 9.444v8.499h-6.025v-23.16z"/><path id="path45" d="m498 61.22h6.477l5.757 16.86h0.091l5.574-16.86h6.026l-8.543 23.16h-6.792l-8.7-23.16z"/><path id="path47" d="m543.3 83.08c-2.203 1.213-4.724 1.843-7.96 1.843-7.646 0-12.1-4.407-12.1-12.01 0-6.7 3.553-12.23 10.75-12.23 8.59 0 11.02 5.893 11.02 13.99h-16.01c0.269 3.733 2.879 5.846 6.611 5.846 2.925 0 5.441-1.078 7.69-2.338v4.9zm-4.1-12.55c-0.182-2.923-1.53-5.441-4.902-5.441-3.373 0-5.084 2.339-5.353 5.441h10.3z"/><path id="path49" d="m549 61.22h5.352v5.263h0.092c0.27-2.159 2.741-5.802 6.341-5.802 0.583 0 1.213 0 1.844 0.181v6.071c-0.541-0.315-1.62-0.495-2.698-0.495-4.901 0-4.901 6.116-4.901 9.444v8.499h-6.028v-23.16z"/><path id="path51" d="m570.9 52.99h20.24v5.217l-11.15 26.17h-6.835l11.65-26.44h-13.9v-4.95z"/></g><path id="path53" fill="#5d87a1" d="m63.755 53.899c0 2.619-2.124 4.742-4.743 4.742h-54.27c-2.62 0-4.742-2.123-4.742-4.742v-23.18c0-2.619 2.122-4.742 4.742-4.742h54.27c2.619 0 4.743 2.123 4.743 4.742v23.18z"/><radialGradient id="SVGID_1_" gradientUnits="userSpaceOnUse" cy="51.65" cx="30.76" gradientTransform="translate(-6.125,-13.001)" r="27.74"><stop stop-color="#fff" offset="0"/><stop stop-color="#ADAFB2" offset="1"/></radialGradient><path id="path60" fill="url(#SVGID_1_)" d="m63.755 53.899c0 2.619-2.124 4.742-4.743 4.742h-54.27c-2.62 0-4.742-2.123-4.742-4.742v-23.18c0-2.619 2.122-4.742 4.742-4.742h54.27c2.619 0 4.743 2.123 4.743 4.742v23.18z"/><linearGradient id="SVGID_2_" y2="48.12" gradientUnits="userSpaceOnUse" y1="82.98" gradientTransform="translate(-6.125,-13.001)" x2="46.6" x1="53.91"><stop stop-color="#CBD6DF" offset="0"/><stop stop-color="#B9C7D4" offset="1"/></linearGradient><path id="path67" fill="url(#SVGID_2_)" d="m60.965 0.109c3.176 0 5.104 0.84 5.789 2.521 0.31 0.56 0.466 1.246 0.466 2.054 0 1.369-0.436 3.236-1.307 5.602l-2.498 7.032-22.1 63.13h-17.93c-2.116 0-3.548-0.123-4.293-0.374-2.116-0.621-3.175-1.99-3.175-4.106v-0.28c0-1.308 0.436-3.081 1.307-5.321l18.48-53.03c1.805-4.979-0.622-7.344-7.282-7.095h-26.23l3.224-10.12h55.55z"/><linearGradient id="SVGID_3_" y2="24.08" gradientUnits="userSpaceOnUse" y1="54.76" gradientTransform="translate(-6.125,-13.001)" x2="39.96" x1="42.65"><stop stop-color="#5D87A1" offset="0"/><stop stop-color="#fff" offset="1"/></linearGradient><path id="path74" opacity="0.69" fill="url(#SVGID_3_)" d="m26.325 57.289c1.336 0 2.702-0.027 4.101-0.081 1.397-0.052 2.801-0.132 4.208-0.239-1.881 2.352-3.024 3.954-3.431 4.808l-6.775 15.13 25.83-29.43h-11.27l25.5-46.98c-0.915-0.325-2.056-0.497-3.452-0.497h-55.64l-3.229 10.14h26.27c6.67-0.249 9.101 2.12 7.294 7.106l-13.96 39.93h3.158l1.39 0.11z"/><path id="path76" fill="#fff" d="m53.695 34.209h-10.15c-2.479 0-4.853-0.316-4.853 2.955 0 3.06 2.427 2.849 4.853 2.849 2.743 0 8.756-0.476 11.18 1.317 3.798 2.849 3.007 11.18-1.372 13.19-1.582 0.739-4.271 0.687-5.96 0.687h-16.11l2.078-4.694h12.98c2.32 0 5.327 0.475 5.327-2.743 0-1.16-0.263-2.215-1.477-2.637-0.686-0.265-2.585-0.212-3.324-0.212-2.953 0-8.703 0.527-11.13-1.529-3.64-3.06-3.692-10.28 0.58-12.82 1.688-1.002 3.955-1.055 5.854-1.055h13.87l-2.35 4.69z"/><path id="path78" fill="#fff" d="m13.705 44.509c0.634-0.264 1.215-0.317 2.797-0.317h14.35v-4.696c0-3.905-0.526-5.752-1.952-7.441-1.689-2.005-3.641-2.586-9.024-2.586h-11.19l-1.422 4.698h12.03c2.955 0 4.063 0.369 4.855 1.477 0.633 0.898 0.738 1.636 0.738 3.853h-8.92c-2.954 0-4.854 0.264-6.067 0.845-2.481 1.107-4.012 3.852-4.012 7.124 0 2.586 1.003 4.803 2.797 6.175 1.689 1.267 3.113 1.53 8.338 1.53h11.69l2.134-4.696v-3.362h-6.067v3.362h-8.287c-3.271 0-4.485-0.845-4.485-3.114 0-1.37 0.64-2.43 1.69-2.85z"/></svg>
