<svg xmlns:rdf="http://www.w3.org/1999/02/22-rdf-syntax-ns#" xmlns="http://www.w3.org/2000/svg" xml:space="preserve" height="194.03" viewBox="0 0 764.68604 194.0267" width="764.69" version="1.1" xmlns:cc="http://creativecommons.org/ns#" xmlns:xlink="http://www.w3.org/1999/xlink" xmlns:dc="http://purl.org/dc/elements/1.1/"><defs><linearGradient id="linearGradient7379" y2="300.84" gradientUnits="userSpaceOnUse" x2="584.47" gradientTransform="matrix(1.275 0 0 1.275 -.15094 -285.49)" y1="300.84" x1="17.66"><stop stop-color="#e6e6e6" offset="0"/><stop stop-color="#595959" offset="1"/></linearGradient></defs><g transform="matrix(1.25 0 0 -1.25 -.15094 592.01)"><path id="path18" d="m137.8 425.21c-0.383-0.012-0.742 0.195-0.926 0.531l-16.23 28.133c-0.2 0.332-0.559 0.531-0.95 0.531h-66.195c-0.387 0.012-0.746-0.195-0.93-0.531l-16.866-29.19-16.238-28.14c-0.188-0.332-0.188-0.738 0-1.07l16.238-28.13 16.863-29.23c0.184-0.336 0.543-0.543 0.926-0.527h66.207c0.391-0.004 0.75 0.199 0.95 0.527l16.238 28.133c0.187 0.34 0.543 0.543 0.929 0.531h20.208c0.32 0 0.628 0.129 0.855 0.356 0.23 0.226 0.355 0.535 0.355 0.859v55.996c0 0.324-0.125 0.633-0.355 0.86-0.227 0.226-0.535 0.355-0.855 0.355h-20.219v0.008z" fill="#4d4d4d"/><path id="path36" d="m559.15 58.85c-2.91-0.02-5.81 0.268-8.67 0.853-4.66 0.933-9.09 2.789-13.03 5.455-1.96 1.328-3.8 2.827-5.49 4.487-5.4 5.151-9.04 11.874-10.38 19.212l-0.54 0.807 0.34 0.484c-0.33 2.109-0.49 4.242-0.48 6.375-0.23 9.047 2.96 17.847 8.93 24.647 0.65 0.75 1.35 1.48 2.08 2.19 1.8 1.78 3.77 3.38 5.89 4.77 6.35 4.08 13.77 6.18 21.32 6.03 0.89 0 1.78-0.09 2.65-0.09 7.43-0.31 14.61-2.84 20.57-7.29 1.41-1.05 2.74-2.19 4-3.42 2.84-2.75 5.21-5.95 7.04-9.46 0.54-1.05 1.02-2.14 1.45-3.25h-0.03c1.76-4.51 2.66-9.32 2.63-14.164 0-1.377-0.05-2.754-0.18-4.029-0.72-8.676-4.59-16.786-10.88-22.812-7.22-7.143-17.05-11.045-27.22-10.795zm-123.36 0.062c-10.16-0.219-19.97 3.696-27.18 10.85-1.32 1.293-2.54 2.676-3.67 4.146-5.01 6.581-7.63 14.678-7.43 22.949-0.06 4.733 0.75 9.443 2.37 13.893 0.93 2.52 2.16 4.92 3.66 7.14 1.4 2.09 3.02 4.03 4.83 5.78 2.19 2.14 4.63 4 7.27 5.53 0.65 0.37 1.27 0.74 2 1.09 0.48 0.24 0.98 0.47 1.49 0.68 5.35 2.27 11.11 3.4 16.92 3.31 1.81 0 3.62-0.13 5.41-0.39 1.12-0.15 2.24-0.37 3.34-0.63 6.37-1.6 12.22-4.83 16.97-9.38 1.03-0.94 2.05-1.97 3.04-3.05 0.27-0.29 0.27-0.72 0-1l-9.4-9.68c-0.17-0.17-0.4-0.24-0.63-0.2-0.16 0.04-0.31 0.12-0.42 0.26-4.64 5.78-11.71 9.07-19.13 8.92-2.51 0.01-5-0.42-7.36-1.28-2.84-1.06-5.42-2.74-7.54-4.9-2.14-2.13-3.77-4.73-4.77-7.58-0.96-2.81-1.43-5.765-1.38-8.733 0-6.314 1.88-11.416 5.65-15.297 0.28-0.284 0.57-0.562 0.86-0.846 4.25-3.96 9.88-6.113 15.69-5.99 7.27-0.069 14.16 3.227 18.67 8.926 0.13 0.156 0.33 0.248 0.54 0.248 0.2 0 0.4-0.092 0.53-0.248l9.15-10.377c0.25-0.279 0.25-0.693 0-0.971-6.61-7.589-15.94-12.266-25.98-13.018l0.07-0.015c-1.18-0.098-2.36-0.137-3.57-0.137zm-390.13 1.567c-0.472 0.005-0.906 0.25-1.16 0.65l-0.752 1.273-9.283 16.094-10.199 17.775c-0.249 0.41-0.249 0.926 0 1.336l2.23 3.823 17.979 31.42c0.245 0.42 0.688 0.68 1.172 0.67h151.74c0.82 0 1.48-0.67 1.48-1.5v-69.997c0-0.825-0.65-1.5-1.48-1.519v-0.025h-151.72zm675.9 0.08c-0.2 0-0.38 0.082-0.52 0.228l-5.71 6.205-12.18 13.248-8.18 8.926c-0.19 0.249-0.53 0.338-0.82 0.23-0.29-0.112-0.48-0.4-0.46-0.712v-27.375c0-0.395-0.32-0.717-0.71-0.717h-14.83c-0.4 0-0.71 0.322-0.71 0.717v71.401c0 0.39 0.31 0.71 0.71 0.71h14.89c0.39-0.01 0.71-0.32 0.72-0.71v-19.58c0-0.17 0.06-0.34 0.18-0.46l0.66-0.76 5.86-6.52c0.14-0.17 0.34-0.26 0.55-0.26s0.41 0.09 0.55 0.26l5.59 7.54 10.03 13.49 3.67 4.94 1.34 1.82c0.13 0.18 0.35 0.29 0.58 0.29h17.21c0.27 0.03 0.53-0.11 0.68-0.34 0.14-0.24 0.14-0.53-0.01-0.76l-3.56-4.98-5.1-7.16-4.88-6.84-0.79-1.11-6.45-9.09-7.09-9.903c-0.21-0.259-0.21-0.626 0-0.885l5.68-6.371 13.65-15.176 8.19-9.115c0.11-0.126 0.17-0.28 0.18-0.445 0.01-0.196-0.06-0.38-0.2-0.522-0.13-0.137-0.32-0.214-0.51-0.214h-18.21zm-471.58 0.023c-0.2-0.005-0.4 0.084-0.54 0.23l-11.28 12.25-14.79 16.09c-0.2 0.249-0.52 0.341-0.82 0.229-0.29-0.111-0.47-0.401-0.45-0.713v-27.359c0-0.19-0.08-0.37-0.22-0.502-0.13-0.132-0.31-0.205-0.5-0.2h-14.79c-0.39 0-0.71 0.318-0.71 0.713v71.4c0 0.4 0.32 0.71 0.71 0.71h14.83c0.39 0 0.71-0.31 0.71-0.71v-19.63c0-0.18 0.06-0.34 0.18-0.48l3.09-3.45 3.44-3.83c0.14-0.16 0.33-0.25 0.54-0.25 0.22 0 0.42 0.09 0.56 0.25l10.28 13.84 7.4 9.94 2.97 4.01c0.13 0.18 0.35 0.29 0.57 0.29h17.23c0.27 0 0.51-0.16 0.63-0.39 0.12-0.24 0.11-0.52-0.05-0.74l-0.62-0.85c-1.85-2.55-4.11-5.71-6.76-9.47-2.07-2.9-4.38-6.14-6.92-9.72l-0.26-0.36c-6.32-8.9-10.75-15.111-13.29-18.648-0.21-0.258-0.21-0.62 0-0.878l6.49-7.202 5.34-5.941 5.1-5.715 10.55-11.726c0.19-0.21 0.24-0.514 0.12-0.768-0.12-0.259-0.37-0.42-0.65-0.42h-18.09zm86.06 0c-0.25 0-0.49 0.137-0.61 0.357-0.13 0.224-0.13 0.493 0 0.713l6.93 12.114 12.54 21.966 5.1 8.838c0.06 0.11 0.1 0.23 0.1 0.36v27.78c0 0.39 0.32 0.71 0.71 0.71h14.78c0.4 0 0.71-0.32 0.71-0.71v-27.83c0.01-0.13 0.04-0.25 0.11-0.36l3.57-6.247 13.56-23.732 2.78-4.832 1.84-3.223 0.06-0.015 2.77-4.819c0.13-0.22 0.13-0.489 0-0.713-0.13-0.22-0.36-0.357-0.61-0.357h-16.05c-0.26 0.005-0.49 0.137-0.62 0.357l-14.48 24.926-0.78 0.573-0.58 0.447c-0.13-0.063-0.24-0.16-0.31-0.281l-0.25-0.407-0.36-0.615-14.31-24.643c-0.13-0.22-0.36-0.352-0.61-0.357h-15.99zm-58.6 0.01c-0.39 0-0.71 0.322-0.71 0.717v71.401c0 0.39 0.32 0.71 0.71 0.71h52.28c0.39 0 0.71-0.32 0.71-0.71v-12.92c0-0.4-0.32-0.71-0.71-0.71h-36.01c-0.4 0-0.71-0.32-0.71-0.71v-13.71c0-0.39 0.32-0.71 0.71-0.72h31.27c0.39 0 0.71-0.32 0.71-0.71v-12.433c0-0.39-0.32-0.713-0.71-0.713h-31.27c-0.4 0-0.71-0.318-0.71-0.713v-13.58c0-0.395 0.31-0.711 0.71-0.711h34.86c0.4 0 0.71-0.323 0.71-0.713v-13.058c0-0.395-0.31-0.717-0.71-0.717h-51.13zm196.58 0c-0.39 0-0.71 0.322-0.71 0.717v71.401c0 0.39 0.32 0.71 0.71 0.71h45.9c0.4 0 0.71-0.32 0.71-0.71v-13.03c0-0.4-0.31-0.72-0.71-0.72l0.06 0.02h-29.7c-0.19 0-0.37-0.07-0.5-0.2-0.14-0.14-0.22-0.32-0.22-0.51v-56.961c0-0.273-0.15-0.523-0.4-0.639-0.1-0.049-0.2-0.078-0.31-0.078h-14.83zm151.38 0.029c-0.28 0.005-0.54 0.171-0.65 0.43l-19.13 44.209-2.46 5.73-0.15 0.36-0.31 0.72-0.27 0.61-7.43 17.2-1.1 2.55c-0.1 0.22-0.08 0.48 0.05 0.68s0.36 0.32 0.6 0.32h15.77c0.27 0 0.52-0.16 0.64-0.4l5.49-12.76 0.91-2.09c0.11-0.27 0.38-0.44 0.66-0.44h29.61c0.28 0 0.54 0.17 0.65 0.44l6.09 14.16 0.32 0.7c0.11 0.26 0.36 0.43 0.65 0.43h15.78c0.24 0 0.46-0.13 0.59-0.33 0.14-0.2 0.16-0.45 0.06-0.67l-0.19-0.3-10.39-24.06-5.49-12.747-4.91-11.357-9.93-22.955c-0.11-0.259-0.37-0.435-0.65-0.43h-14.81zm-66.22 12.496c5.89-0.089 11.51 2.426 15.38 6.869 0.22 0.239 0.43 0.489 0.63 0.752 3.74 4.439 5.74 10.089 5.61 15.889l-0.06-0.014c0.1 4.027-0.8 8.017-2.62 11.597-0.95 1.82-2.14 3.5-3.52 5-0.21 0.23-0.43 0.45-0.64 0.67-1.5 1.53-3.22 2.81-5.1 3.82-5.97 3.05-13.04 3.1-19.06 0.15-1.48-0.76-2.85-1.71-4.1-2.81-0.67-0.58-1.29-1.19-1.89-1.84-4.15-4.5-6.4-10.44-6.26-16.573v-0.576c-0.01-5.946 2.23-11.685 6.25-16.065 2.8-3.198 6.53-5.429 10.67-6.377 1.55-0.331 3.13-0.497 4.71-0.492zm73.71 10.293c0.26 0 0.51 0.14 0.64 0.375l3.47 8.057 3.5 8.168 1.04 2.43h-0.04c0.1 0.21 0.08 0.46-0.04 0.66-0.12 0.19-0.34 0.32-0.57 0.33h-16.08c-0.24 0-0.45-0.12-0.59-0.32-0.13-0.2-0.15-0.45-0.05-0.67l1.88-4.364 6.2-14.291c0.13-0.235 0.37-0.375 0.64-0.375z" transform="matrix(.8 0 0 -.8 .12075 473.61)" fill="url(#linearGradient7379)"/><path id="path40" d="m39.391 398.95-18.133-6.582-1.785 3.063c-0.203 0.328-0.203 0.742 0 1.07l8.16 14.219 11.758-11.77z" fill="#e1e1e1"/><path id="path42" d="m592.1 366.83h-7.489l-6.836 4.285 11.946 0.602 2.847-3.981c0.118-0.175 0.133-0.402 0.035-0.593-0.097-0.188-0.293-0.309-0.503-0.313z" fill="#585858"/><path id="path44" d="m584.61 366.83h-6.273c-0.184 0-0.36 0.086-0.469 0.234l-1.07 1.458 1.019 2.601 6.793-4.293z" fill="#585858"/><path id="path46" d="m592.51 424.56c-0.012-0.129-0.059-0.254-0.145-0.356l-6.558-7.293-0.407 4.078 7.11 3.571z" fill="#696969"/><path id="path48" d="m589.72 371.72-11.946-0.602 7.875 6.332 4.071-5.73z" fill="#5e5e5e"/><path id="path50" d="m592.51 424.56-7.141-3.559 1.215 4.152h5.336c0.156 0.004 0.312-0.054 0.422-0.168 0.113-0.113 0.172-0.265 0.168-0.425z" fill="#6d6d6d"/><path id="path52" d="m585.65 377.44-7.875-6.332 3.969 11.801 3.906-5.469z" fill="#636363"/><path id="path54" d="m586.6 425.14-1.215-4.153-6.903 4.153h8.118z" fill="#737373"/><path id="path56" d="m555.09 424.56v-5.907l-13.004-1.019v6.926c0 0.316 0.254 0.574 0.57 0.574h11.863c0.317 0 0.571-0.258 0.571-0.574z" fill="#757575"/><path id="path58" d="m585.39 420.99-13.004-1.019 4.57 4.969c0.109 0.117 0.258 0.183 0.418 0.183h1.113l6.903-4.133z" fill="#757575"/><path id="path60" d="m581.75 382.91-3.969-11.801-3.933 1.344-8.02 10.793 10.129 7.824 5.16-7.273 0.633-0.887z" fill="#646464"/><path id="path62" d="m555.1 418.66v-6.406l-13.015 4.926v0.472l13.015 1.008z" fill="#6d6d6d"/><path id="path64" d="m585.8 416.9-10.914-12.136-12.242 4.64 9.742 10.59 13.004 0.996 0.41-4.09z" fill="#6d6d6d"/><path id="path66" d="m575.96 391.07-10.129-7.824-4.481 6.039c-0.105 0.129-0.269 0.203-0.437 0.203s-0.328-0.074-0.438-0.203l-4.691-5.223-13.691 31.071v2.039l13.007-4.926v-9.59c-0.015-0.25 0.133-0.48 0.368-0.57 0.234-0.086 0.496-0.016 0.652 0.183l6.547 7.141 12.242-4.633-4.551-5.097c-0.164-0.207-0.164-0.5 0-0.707l5.602-7.903z" fill="#6c6c6c"/><path id="path68" d="m577.78 371.12-0.988-2.601-2.937 3.949 3.925-1.348z" fill="#606060"/><path id="path70" d="m555.78 384.12-0.531-0.601c-0.09-0.106-0.144-0.239-0.141-0.379v-2.438l-13.007 11.039v23.457l13.679-31.078z" fill="#707070"/><path id="path72" d="m537.54 367.63c0.074-0.176 0.059-0.379-0.047-0.539-0.105-0.16-0.281-0.262-0.472-0.266h-1.926l2.304 1.02 0.141-0.215z" fill="#636363"/><path id="path74" d="m555.09 376.06v-8.618c-0.004-0.316-0.258-0.566-0.571-0.574h-11.882c-0.317 0-0.571 0.258-0.571 0.574v2.653l13.024 5.965z" fill="#636363"/><path id="path76" d="m537.4 367.9-2.304-1.019h-10.703c-0.227 0-0.434 0.137-0.52 0.348l-0.254 0.558 5.469 19.383 8.312-19.27z" fill="#6d6d6d"/><path id="path78" d="m555.1 380.67v-4.609l-13.015-5.997v21.645l13.015-11.039z" fill="#6d6d6d"/><path id="path80" d="m529.09 387.14-5.469-19.379-4.875 11.332c-0.086 0.211-0.293 0.347-0.519 0.347h-23.696c-0.23 0-0.437-0.136-0.531-0.347l-0.723-1.684-11.015 6.52 0.254 0.57 20.961 6.394h9.332c0.191 0.004 0.367 0.102 0.472 0.262 0.106 0.16 0.121 0.36 0.047 0.535l-0.836 1.95 12.242 3.71 4.356-10.21z" fill="#767676"/><path id="path82" d="m503.47 390.9-21.012-6.414 0.109 0.286 18.301 10.382-1.508-3.488c-0.078-0.176-0.058-0.375 0.047-0.535 0.102-0.16 0.281-0.258 0.473-0.258h3.527l0.063 0.027z" fill="#797979"/><path id="path84" d="m524.69 397.32-12.2-3.714-2.785 6.531 11.059 6.269 3.926-9.086z" fill="#797979"/><path id="path86" d="m493.27 377.4-4.398-10.2-6.824 16.258 0.215 0.492 11.007-6.55z" fill="#757575"/><path id="path88" d="m520.76 406.4-11.059-6.269-2.762 6.445c-0.101 0.188-0.3 0.301-0.511 0.301s-0.407-0.113-0.508-0.301l-4.961-11.433-18.336-10.364 1.977 4.59 20.238 35.699h7.402c0.231 0 0.434-0.136 0.524-0.347l7.996-18.321z" fill="#7f7f7f"/><path id="path90" d="m475.54 408.68c1.254-2.887 2.031-5.953 2.293-9.09l-2.293 9.09z" fill="#868686"/><path id="path92" d="m504.9 425.14-20.234-35.7 15.301 35.364c0.09 0.207 0.293 0.343 0.519 0.347h4.414v-0.011z" fill="#868686"/><path id="path94" d="m477.97 396.36c0.031-3.851-0.661-7.675-2.039-11.269l-13.426 1.969c1.484 2.863 2.234 6.047 2.183 9.273 0.098 4.641-1.496 9.156-4.488 12.707l5.242 11.895c1.301-0.922 2.524-1.946 3.664-3.063 2.711-2.609 4.887-5.73 6.395-9.179l2.293-9.086c0.125-1.071 0.176-2.145 0.176-3.247z" fill="#8a8a8a"/><path id="path96" d="m463.08 379.52 11.731 2.968c-1.454-2.808-3.356-5.367-5.629-7.566l-6.102 4.598z" fill="#7d7d7d"/><path id="path98" d="m488.87 367.16c-0.094-0.195-0.293-0.324-0.512-0.324h-8.507l-3.743 2.832 5.946 13.762 6.816-16.27z" fill="#7d7d7d"/><path id="path100" d="m463.08 379.52 6.121-4.598c-1-0.984-2.066-1.898-3.191-2.734l-2.93 7.332z" fill="#797979"/><path id="path102" d="m479.85 366.83h-4.078c-0.196 0-0.375 0.098-0.481 0.262-0.105 0.164-0.121 0.367-0.039 0.543l0.875 2.039 3.723-2.844z" fill="#797979"/><path id="path104" d="m475.95 385.09c-0.34-0.887-0.726-1.758-1.164-2.602l-11.711-2.968-3.863 3.011c0.172 0.172 0.347 0.344 0.508 0.528 1.113 1.207 2.062 2.55 2.828 4l13.402-1.969z" fill="#868686"/><path id="path106" d="m465.94 372.15c-4.773-3.558-10.511-5.59-16.461-5.836l13.594 13.2 2.867-7.364z" fill="#7d7d7d"/><path id="path108" d="m465.46 420.93-5.242-11.895c-0.157 0.211-0.328 0.41-0.508 0.602-3.09 3.554-7.594 5.566-12.301 5.5-1.266 0-2.527-0.133-3.766-0.399l-3.222 11.055c2.281 0.469 4.605 0.699 6.937 0.684 6.473 0.14 12.821-1.805 18.102-5.547z" fill="#919191"/><path id="path110" d="m463.08 379.52-13.594-13.2c-0.695 0-1.41-0.07-2.121-0.07-6.039-0.117-11.976 1.563-17.054 4.824l1.519 8.16 8.078 0.071c4.817-2.356 10.461-2.313 15.239 0.125l7.933 0.09z" fill="#858585"/><path id="path112" d="m443.65 414.73c-3.312-0.754-6.3-2.539-8.535-5.098-3.222-3.508-5.008-8.094-5-12.856l-12.933 4.938-0.297 0.113 0.429 0.645 12.68 18.95c3.152 2.132 6.695 3.617 10.426 4.363l3.222-11.066z" fill="#929292"/><path id="path114" d="m436.62 381.59c0.996-0.883 2.102-1.641 3.285-2.254l-8.078-0.07 4.793 2.324z" fill="#898989"/><path id="path116" d="m463.08 379.52-7.914-0.071c1.512 0.805 2.887 1.836 4.082 3.059l3.832-2.988z" fill="#898989"/><path id="path118" d="m436.62 381.59-4.785-2.324-14.656 22.164-0.266 0.386 0.266-0.101 12.933-4.938v-0.457c-0.113-4.902 1.684-9.656 5.008-13.261 0.469-0.52 0.969-1.012 1.5-1.469z" fill="#8f8f8f"/><path id="path120" d="m429.99 421.43-12.691-18.961c1.078 5.871 3.984 11.25 8.304 15.371 1.348 1.328 2.817 2.527 4.387 3.59z" fill="#999"/><path id="path122" d="m394.37 366.83 22.258 7.383v-6.77c0-0.316-0.254-0.574-0.57-0.574h-21.688v-0.039z" fill="#898989"/><path id="path124" d="m431.83 379.26-1.519-8.16c-1.692 1.113-3.27 2.39-4.715 3.816-0.582 0.57-1.141 1.152-1.66 1.754l7.894 2.59z" fill="#898989"/><path id="path126" d="m416.63 377.86v-3.64l-22.258-7.383h-12.055l11.454 11.605h22.289c0.152 0 0.3-0.062 0.406-0.172 0.109-0.109 0.168-0.253 0.164-0.41z" fill="#919191"/><path id="path128" d="m431.83 379.26-7.887-2.641c-4.773 5.441-7.32 12.481-7.14 19.715-0.004 1.707 0.121 3.414 0.379 5.102l14.648-22.176z" fill="#919191"/><path id="path130" d="m393.77 378.44-11.454-11.61h-2.976c-0.317 0-0.574 0.254-0.574 0.57l13.007 36.723v-25.215c0-0.152 0.059-0.297 0.168-0.402 0.106-0.106 0.25-0.164 0.403-0.16h1.426v0.094z" fill="#979797"/><path id="path132" d="m391.77 424.56v-3.243l-0.328 3.766c0.203-0.094 0.332-0.301 0.328-0.523z" fill="#9f9f9f"/><path id="path134" d="m372.37 415.94c0.191-0.222 0.191-0.554 0-0.777l-7.324-8.301c-0.106-0.125-0.262-0.199-0.426-0.199-0.168 0-0.324 0.074-0.43 0.199-2.515 3.129-5.941 5.399-9.8 6.496l-2.848 12.985c8.043-0.586 15.527-4.324 20.828-10.403z" fill="#a6a6a6"/><path id="path136" d="m384.63 425.14-5.867-5.957v5.375c0 0.316 0.257 0.574 0.574 0.574h5.293v0.008z" fill="#a6a6a6"/><path id="path138" d="m391.77 421.33v-14.047l-13.007-3.601v15.504l5.867 5.957h6.566c0.086 0 0.172-0.02 0.246-0.059l0.328-3.754z" fill="#a0a0a0"/><path id="path140" d="m371.99 377.74c0.211-0.222 0.211-0.57 0-0.797-0.793-0.875-1.609-1.691-2.437-2.445l-5.61 11.156c0.184 0.035 0.371-0.027 0.5-0.164l7.547-7.75z" fill="#9b9b9b"/><path id="path142" d="m391.77 407.28v-3.07l-13.007-36.762v36.231l13.007 3.601z" fill="#9b9b9b"/><path id="path144" d="m369.59 374.49c-3.81-3.64-8.5-6.22-13.61-7.49l0.766 13.109c2.649 1.254 4.992 3.079 6.852 5.344 0.09 0.102 0.207 0.176 0.34 0.203l5.648-11.168z" fill="#999"/><path id="path146" d="m356.78 380.1-0.8-13.1c-0.878-0.211-1.773-0.387-2.671-0.508l-17.86 2.336c-0.41 0.176-0.808 0.36-1.195 0.551l8.242 9.965c1.891-0.688 3.887-1.032 5.895-1.02 2.89-0.027 5.754 0.578 8.386 1.774z" fill="#9d9d9d"/><path id="path148" d="m342.46 379.34-8.242-9.965c-0.539 0.273-1.071 0.559-1.602 0.867l-9.68 9.055c-1.199 1.785-2.179 3.699-2.925 5.715l12.636 4.293c0.797-2.282 2.102-4.356 3.817-6.059 1.687-1.723 3.734-3.059 5.996-3.906z" fill="#a3a3a3"/><path id="path150" d="m314.5 419.16 4.152 1.254-1.468-2.578-2.684 1.324z" fill="#aaa"/><path id="path152" d="m354.41 413.34c-1.664 0.453-3.379 0.68-5.101 0.672-4.649 0.097-9.153-1.621-12.555-4.793-0.246-0.223-0.469-0.449-0.684-0.672l-12.015 5.894c0.898 1.172 1.879 2.282 2.937 3.317 5.766 5.722 13.613 8.855 21.735 8.68 1.019 0 1.918 0 2.855-0.114l2.828-12.984z" fill="#aaa"/><path id="path154" d="m314.5 419.16 2.684-1.324-2.223-3.867-0.461 5.191z" fill="#a9a9a9"/><path id="path156" d="m331.5 396.33c-0.035-2.379 0.344-4.742 1.113-6.988l-12.64-4.293c-1.297 3.558-1.942 7.328-1.895 11.117-0.16 6.617 1.934 13.094 5.945 18.359l12.016-5.894c-3.027-3.149-4.539-7.25-4.539-12.301z" fill="#a9a9a9"/><path id="path158" d="m353.31 366.48c-1.434-0.203-2.879-0.308-4.325-0.304-4.648-0.074-9.257 0.824-13.535 2.64l17.86-2.336z" fill="#989898"/><path id="path160" d="m320.86 424.28-2.215-3.805-4.16-1.277-2.093 5.981h7.968c0.215 0.011 0.422-0.102 0.528-0.293 0.109-0.192 0.097-0.426-0.028-0.606z" fill="#b1b1b1"/><path id="path162" d="m301.16 373.84v-1.531l-2.945 1.961 2.945-0.43z" fill="#9e9e9e"/><path id="path164" d="m301.16 372.3v-4.864c0-0.316-0.254-0.574-0.57-0.574h-2.754l0.398 7.438 2.926-2z" fill="#9d9d9d"/><path id="path166" d="m298.22 374.27 2.945 1.519v-1.949l-2.945 0.43z" fill="#a4a4a4"/><path id="path168" d="m332.61 370.25c-2.117 1.227-4.07 2.715-5.816 4.426-1.445 1.402-2.742 2.949-3.863 4.621l9.679-9.047z" fill="#a4a4a4"/><path id="path170" d="m314.96 413.97-10.855-18.985-10.606 8.418 0.906 0.684 0.469 0.355 0.621 0.461v0.008l0.012 0.012 18.992 14.238 0.461-5.191z" fill="#aeaeae"/><path id="path172" d="m304.1 394.98-2.856-5c-0.051-0.085-0.078-0.183-0.082-0.285v-13.933l-2.945-1.508-4.723 29.141 10.606-8.415z" fill="#ababab"/><path id="path174" d="m294.17 404.31c0.059-0.097 0.144-0.175 0.246-0.222l-0.91-0.684 0.48 1.235 0.184-0.329z" fill="#b4b4b4"/><path id="path176" d="m314.5 419.16-18.992-14.281 11.586 19.941c0.105 0.176 0.289 0.281 0.492 0.285h4.813l2.101-5.945z" fill="#b4b4b4"/><path id="path178" d="m298.22 374.27-0.399-7.438h-9.008l9.407 7.438z" fill="#a2a2a2"/><path id="path180" d="m263.55 424.56v-3.977l-7.914 4.551h7.344c0.316 0 0.57-0.258 0.57-0.574z" fill="#bcbcbc"/><path id="path182" d="m293.68 405.18-0.184-1.723-19.492 11.219-5.551 9.691c-0.101 0.176-0.101 0.391 0 0.567 0.102 0.179 0.285 0.289 0.492 0.289h12.789c0.204-0.004 0.387-0.114 0.489-0.285l11.45-19.76z" fill="#bcbcbc"/><path id="path184" d="m293.97 404.64-0.477-1.235 0.184 1.723 0.293-0.488z" fill="#b8b8b8"/><path id="path186" d="m298.22 374.27-9.407-7.438h-0.089c-0.317 0-0.575 0.254-0.575 0.57v4.426l10.071 2.442z" fill="#a9a9a9"/><path id="path188" d="m288.16 379.54v10.199c-0.004 0.098-0.031 0.2-0.082 0.285l-4.078 7.067 9.465 6.355 4.723-29.14-10.028 5.234z" fill="#b0b0b0"/><path id="path190" d="m261.22 366.83 3.234 7.016v-6.403c0-0.316-0.258-0.574-0.574-0.574h-2.66v-0.039z" fill="#aeaeae"/><path id="path192" d="m298.22 374.27-10.071-2.442v7.715l10.071-5.273z" fill="#aeaeae"/><path id="path194" d="m263.55 420.59v-6.481c0-0.312-0.254-0.57-0.57-0.57h-5.497l-6.324 11.598h4.465l7.926-4.547z" fill="#b9b9b9"/><path id="path196" d="m293.5 403.41-9.457-6.344-10.035 17.532 19.492-11.188z" fill="#b9b9b9"/><path id="path198" d="m257.49 413.54h-5.781l-8.621 11.129 0.684 0.469h7.394l6.324-11.598z" fill="#bfbfbf"/><path id="path200" d="m264.46 377.77v-3.929l-3.235-7.016h-4.433l-33.906 16.32 11.636 1.266v-5.539c0-0.316 0.258-0.57 0.575-0.57h28.804c0.293-0.008 0.539-0.239 0.559-0.532z" fill="#b5b5b5"/><path id="path202" d="m251.71 413.54h-14.035l5.414 11.129 8.621-11.129z" fill="#bdbdbd"/><path id="path204" d="m260.63 400.97v-9.946c0-0.316-0.254-0.57-0.57-0.57h-24.969c-0.313-0.008-0.567-0.262-0.57-0.574v-5.414l-11.641-1.266 11.641 23.887v-4.965c0-0.316 0.253-0.574 0.57-0.574h25.012c0.3-0.02 0.535-0.274 0.527-0.578z" fill="#bdbdbd"/><path id="path206" d="m256.78 366.83h-28.765l-5.141 16.371 33.906-16.371z" fill="#b6b6b6"/><path id="path208" d="m243.09 424.66-5.426-11.117h-2.582c-0.312 0-0.57-0.254-0.57-0.57v-5.895l-11.637-23.89-1.367 2.246v29.16l21.582 10.066z" fill="#c3c3c3"/><path id="path210" d="m215.09 424.19-8.445-9.382-1.559 10.332h9.578c0.223 0 0.426-0.129 0.52-0.336 0.093-0.203 0.054-0.446-0.094-0.614z" fill="#c9c9c9"/><path id="path212" d="m243.09 424.66-21.582-10.066v9.965c0 0.316 0.254 0.574 0.57 0.574h17.953l3.059-0.473z" fill="#c9c9c9"/><path id="path214" d="m209.4 376.03c2.121-2.984 3.925-5.511 5.406-7.578l-13.188 3.449 7.782 4.129z" fill="#bbb"/><path id="path216" d="m228.02 366.83h-5.946c-0.316 0-0.57 0.254-0.57 0.57v15.067l1.367 0.723 5.149-16.36z" fill="#bbb"/><path id="path218" d="m214.84 366.83h-11.699l-1.52 5.102 13.176-3.469 0.5-0.703c0.133-0.176 0.152-0.41 0.054-0.606-0.097-0.195-0.293-0.32-0.511-0.324z" fill="#b6b6b6"/><path id="path220" d="m203.86 383.76c2.043-2.871 3.887-5.461 5.54-7.774l-7.77-4.082 2.039 12.242 0.191-0.386z" fill="#c1c1c1"/><path id="path222" d="m222.88 383.2-1.367-0.734v2.969l1.367-2.235z" fill="#c1c1c1"/><path id="path224" d="m203.65 384.1-2.039-12.243-9.301 6.325-8.234 11.066c-0.105 0.133-0.269 0.207-0.437 0.207s-0.329-0.074-0.438-0.207l-2.754-3.058-14.789 10.046 32.637 9.18-5.192-5.762c-0.16-0.207-0.16-0.496 0-0.703 1.965-2.781 5.481-7.734 10.547-14.851z" fill="#c6c6c6"/><path id="path226" d="m203.14 366.83h-2.043c-0.18 0-0.352 0.086-0.457 0.234l-2.375 3.204 3.394 1.64 1.481-5.078z" fill="#b8b8b8"/><path id="path228" d="m171.43 423.09 6.398 1.492v-4.133l-6.398 2.641z" fill="#cdcdcd"/><path id="path230" d="m206.65 414.81-4.082-4.571-11.882 4.918 9.027 9.801c0.113 0.117 0.265 0.188 0.43 0.184h4.988l1.519-10.332z" fill="#cdcdcd"/><path id="path232" d="m202.54 410.28-4.273-4.754-32.641-9.179 5.773 26.773 6.395-2.641v-17.777c-0.016-0.25 0.133-0.484 0.367-0.57 0.234-0.09 0.496-0.016 0.652 0.179l11.844 12.876 11.883-4.907z" fill="#ccc"/><path id="path234" d="m165.65 396.33 14.79-10.047-2.469-2.765c-0.094-0.106-0.145-0.239-0.141-0.379v-15.696c0-0.316-0.258-0.574-0.574-0.574h-0.16l-11.446 29.461z" fill="#c2c2c2"/><path id="path236" d="m201.61 371.9-3.386-1.632-5.915 7.957 9.301-6.325z" fill="#c2c2c2"/><path id="path238" d="m147.28 393.7 11.953 1.703v-13.863l-11.953 12.16z" fill="#c8c8c8"/><path id="path240" d="m177.09 366.83h-3.387l-8.887 9.035v20.34l0.828 0.113 11.446-29.488z" fill="#c8c8c8"/><path id="path242" d="m147.28 393.7 11.953-12.16v-13.543c0-0.664-0.531-1.199-1.191-1.203h-13.902l3.14 26.906z" fill="#c2c2c2"/><path id="path244" d="m173.71 366.83h-8.312c-0.317 0-0.575 0.254-0.575 0.57v8.465l8.887-9.035z" fill="#c2c2c2"/><path id="path246" d="m147.28 393.7-3.14-26.898h-16.731l-5.066 12.199 24.937 14.699z" fill="#c7c7c7"/><path id="path248" d="m147.28 393.7 11.953 14.543v-12.84l-11.953-1.703z" fill="#cecece"/><path id="path250" d="m171.43 423.09-5.782-26.774-0.828-0.113v18.852l6.61 8.035z" fill="#cecece"/><path id="path252" d="m159.23 424v-15.762l-11.953-14.554-9.015 31.519h19.758c0.664 0 1.207-0.539 1.21-1.203z" fill="#d3d3d3"/><path id="path254" d="m171.43 423.09-6.61-8.035v9.445l6.61-1.41z" fill="#d3d3d3"/><path id="path256" d="m127.41 366.8h-8.82l-2.285 3.273 6.039 8.926 5.066-12.199z" fill="#c6c6c6"/><path id="path258" d="m147.28 393.7-33.078 13.985 17.403 17.531h6.668l9.007-31.516z" fill="#d5d5d5"/><path id="path260" d="m114.24 407.68 8.16-28.684 24.942 14.699-33.102 13.985z" fill="#d0d0d0"/><path id="path262" d="m118.59 366.8h-2.387l0.102 3.273 2.285-3.273z" fill="#bfbfbf"/><path id="path264" d="m131.6 425.21-17.403-17.531-3.14 15.675 6.711 1.856h13.832z" fill="#d9d9d9"/><path id="path266" d="m114.24 407.68-40.156-9.262 42.199-28.348-2.043 37.61z" fill="#d4d4d4"/><path id="path268" d="m114.24 407.68 2.043-37.61 6.039 8.926-8.082 28.684z" fill="#d0d0d0"/><path id="path270" d="m111.06 423.36-37.016-24.937 40.195 9.262-3.179 15.675z" fill="#d9d9d9"/><path id="path272" d="m74.043 398.42-17.414-31.621h-9.914l-7.324 32.152 34.652-0.531z" fill="#d8d8d8"/><path id="path274" d="m56.191 425.21-16.8-26.262-4.282 24.684 0.602 1.019c0.199 0.321 0.551 0.516 0.926 0.52h19.554v0.039z" fill="#e2e2e2"/><path id="path276" d="m46.715 366.8h-10.067c-0.39-0.004-0.753 0.203-0.949 0.543l-14.453 25.027 18.137 6.582 7.332-32.152z" fill="#d8d8d8"/><path id="path278" d="m39.391 398.95-11.719 11.809 7.426 12.875 4.293-24.684z" fill="#e4e4e4"/><path id="path280" d="m92.383 425.21h-29.317l10.977-26.793 37.016 24.937-11.161 1.856h-7.515z" fill="#dedede"/><path id="path282" d="m58.488 425.21h-2.297l-16.8-26.262 34.652-0.531-10.977 26.793h-4.578z" fill="#dedede"/><path id="path284" d="m108.24 366.8h7.957l0.102 3.273-8.059-3.273z" fill="#c5c5c5"/><path id="path286" d="m116.3 370.07-42.258 28.348 7.609-31.621h26.59l8.059 3.273z" fill="#d0d0d0"/><path id="path288" d="m56.629 366.8h25.023l-7.609 31.621-17.414-31.621z" fill="#d1d1d1"/><path id="path290" d="m243.77 425.14-0.684-0.469-0.324 0.469h1.008z" fill="#c8c8c8"/><path id="path292" d="m243.09 424.67-3.051 0.469h2.727l0.324-0.469z" fill="#cbcbcb"/><path id="path294" d="m177.83 424.56-6.398-1.477 1.758 2.039h4.078c0.308 0 0.562-0.25 0.562-0.562z" fill="#d1d1d1"/><path id="path296" d="m173.19 425.14-1.758-2.051-0.356 2.051h2.114z" fill="#d7d7d7"/><path id="path298" d="m171.43 423.09-6.61 1.41v0.059c0 0.316 0.258 0.574 0.575 0.574h5.679l0.356-2.043z" fill="#d9d9d9"/><path id="path300" d="m111.17 425.21-0.109-1.856 6.711 1.856h-6.602z" fill="#ddd"/><path id="path302" d="m99.898 425.21 11.161-1.856-1.032 1.856h-10.129z" fill="#e3e3e3"/><path id="path304" d="m110.03 425.21 1.032-1.856 0.109 1.856h-1.141z" fill="#e2e2e2"/><path id="path306" d="m80.691 424.7-16.32-28.27c-0.07-0.133-0.109-0.282-0.109-0.43h-11.395l22.438 38.812c0.14-0.078 0.257-0.191 0.34-0.328l5.097-8.824c0.145-0.308 0.125-0.668-0.051-0.957z" fill="#00b8e3"/><path id="path308" d="m80.672 366.26-5.102-8.781c-0.086-0.137-0.207-0.25-0.343-0.329l-22.372 38.85h11.407c-0.004-0.152 0.035-0.305 0.109-0.438l16.32-28.253c0.204-0.325 0.196-0.739-0.019-1.051z" fill="#33c6e9"/><path id="path310" d="m75.254 434.76-22.387-38.76l-5.621-9.73-5.426 9.261c-0.074 0.133-0.113 0.285-0.113 0.438 0.004 0.16 0.043 0.32 0.125 0.461l5.434 9.414 16.504 28.558c0.171 0.305 0.492 0.493 0.835 0.493h10.129c0.184 0 0.364-0.043 0.52-0.133z" fill="#008aaa"/><path id="path312" d="m75.254 357.15c-0.145-0.082-0.309-0.128-0.477-0.132h-10.129c-0.347 0-0.668 0.187-0.836 0.488l-15.085 26.133-1.493 2.59 5.621 9.773 22.399-38.852z" fill="#00b8e3"/><path id="path314" d="m120.36 396-22.438-38.85c-0.137 0.082-0.254 0.192-0.34 0.329l-5.098 8.8c-0.144 0.285-0.144 0.621 0 0.907l16.321 28.277c0.086 0.148 0.133 0.316 0.133 0.488h11.421v0.051z" fill="#008aaa"/><path id="path316" d="m131.41 396c0-0.172-0.043-0.34-0.133-0.488l-21.949-38.008c-0.176-0.277-0.484-0.449-0.816-0.449h-10.117c-0.172 0.004-0.34 0.05-0.493 0.133l22.461 38.812 5.621 9.719 5.336-9.239c0.071-0.148 0.102-0.316 0.09-0.48z" fill="#00b8e3"/><path id="path318" d="m120.36 396h-11.445c0 0.168-0.043 0.336-0.133 0.48l-16.316 28.243c-0.199 0.312-0.199 0.707 0 1.019l5.097 8.793c0.102 0.098 0.223 0.176 0.36 0.227l22.429-38.76z" fill="#00b8e3"/><path id="path320" d="m125.93 405.71-5.57-9.71-22.438 38.76c0.148 0.082 0.316 0.129 0.488 0.133h10.117c0.332 0 0.641-0.172 0.817-0.45l16.586-28.734z" fill="#33c6e9"/></g></svg>
