<svg xmlns:rdf="http://www.w3.org/1999/02/22-rdf-syntax-ns#" xmlns="http://www.w3.org/2000/svg" version="1.1" xmlns:cc="http://creativecommons.org/ns#" xmlns:xlink="http://www.w3.org/1999/xlink" viewBox="0 0 1780 570" xmlns:dc="http://purl.org/dc/elements/1.1/">
<defs>
<filter id="filter28927-8-8" style="color-interpolation-filters:sRGB" height="1.418" width="1.316" y="-.2092" x="-.1580">
<feGaussianBlur stdDeviation="0.24891089"/>
</filter>
<linearGradient id="linearGradient29336-6-4">
<stop stop-color="#646464" stop-opacity="0" offset="0"/>
<stop stop-color="#646464" stop-opacity=".5825" offset=".3063"/>
<stop stop-color="#646464" offset="0.47"/>
<stop stop-color="#646464" stop-opacity=".2573" offset=".7283"/>
<stop stop-color="#646464" stop-opacity="0" offset="1"/>
</linearGradient>
<linearGradient id="linearGradient29529-6-3">
<stop stop-color="#3a2903" offset="0"/>
<stop stop-color="#735208" offset=".5547"/>
<stop stop-color="#ac8c04" offset="1"/>
</linearGradient>
<filter id="filter15177-1-2" style="color-interpolation-filters:sRGB">
<feGaussianBlur stdDeviation="0.11039302"/>
</filter>
<filter id="filter15173-0-7" style="color-interpolation-filters:sRGB" height="1.211" width="1.233" y="-.1057" x="-.1164">
<feGaussianBlur stdDeviation="0.11039302"/>
</filter>
<linearGradient id="linearGradient4417-8-5-9">
<stop offset="0"/>
<stop stop-opacity=".2489" offset="1"/>
</linearGradient>
<filter id="filter15211-9-2" style="color-interpolation-filters:sRGB" height="1.547" width="1.939" y="-.2737" x="-.4693">
<feGaussianBlur stdDeviation="0.85991809"/>
</filter>
<clipPath id="clipPath7456" clipPathUnits="userSpaceOnUse">
<path id="path7458" d="m-709.5 949.1c4.984-11.99 12.49-22.92 21.88-31.88 5.408-5.158 11.59-9.866 14.93-16.55 2.923-5.846 3.35-12.6 3.299-19.14-0.0371-4.757-0.2983-9.522 0.054-14.27 0.1572-2.116 0.4503-4.27 1.405-6.165 0.4773-0.9475 1.12-1.819 1.931-2.503 0.8115-0.6834 1.796-1.173 2.844-1.339 1.367-0.2163 2.817 0.1423 3.925 0.9714-1.102 0.9543-1.954 2.195-2.448 3.567-0.6175 1.714-0.6721 3.576-0.6202 5.397 0.2451 8.592 2.704 17 3.03 25.59 0.2033 5.353-0.4676 10.86-2.912 15.62-1.955 3.812-4.942 6.973-7.604 10.33-7.805 9.84-12.91 21.52-17.5 33.21-2.756 7.021-5.361 14.11-8.596 20.93-3.635 7.656-8.284 15.18-15.34 19.88-6.358 4.235-14.11 5.799-21.7 6.625-3.834 0.4173-7.705 0.6699-11.55 0.319-3.84-0.3508-7.666-1.325-11.02-3.235-2.538-1.447-4.774-3.419-6.526-5.757 5.225-2.639 10.48-5.21 15.78-7.711 7.684-3.632 15.54-7.18 22.08-12.6 6.718-5.564 11.85-13.02 14.65-21.28h0.0002z" stroke="#020204" stroke-width="2" fill="#fff"/>
</clipPath>
<clipPath id="clipPath7574" clipPathUnits="userSpaceOnUse">
<path id="path7576" d="m-961 1056c-14.06 5.35-27.37 12.69-39.39 21.74-5.998 0.1744-12.01-2.679-15.66-7.438-3.656-4.759-4.865-11.3-3.151-17.05 1.705-5.722 5.967-10.3 10.37-14.33 8.05-7.367 17.01-13.68 26.19-19.57 12.94-8.306 26.46-15.88 40.98-20.94 11.01-3.838 22.53-6.204 34.17-7.014-4.853 10.31-9.907 20.53-15.16 30.64-4.708 9.07-9.574 18.06-14.59 26.96-8.086 1.712-16.04 4.052-23.76 6.991z" fill="#020204"/>
</clipPath>
<clipPath id="clipPath7634" clipPathUnits="userSpaceOnUse">
<path id="path7636" d="m-745.7 981.7c5.21 11.34 11.03 22.4 16.19 33.77 9.946 21.87 17.5 44.96 20.64 68.78 3.138 23.82 1.768 48.41-5.686 71.25-8.413 25.78-24.38 48.72-43.95 67.49-23.15 22.21-52.86 39.33-84.92 40.59-20.89 0.8222-41.68-5.149-60.18-14.88-15.54-8.181-29.73-19.08-41.06-32.51-11.32-13.43-19.73-29.42-23.62-46.55-4.793-21.09-2.626-43.48 4.63-63.86 5.189-14.57 12.88-28.14 18.35-42.61 5.984-15.81 9.325-32.69 17.25-47.62 7.186-13.53 17.96-25.1 23.69-39.31 3.419-8.49 4.902-17.61 7.109-26.49 2.208-8.882 5.299-17.83 11.31-24.73 7.246-8.314 18.15-12.82 29.1-14.09 10.96-1.264 22.04 0.443 32.8 2.894 8.561 1.951 17.02 4.376 25.29 7.319 7.061 2.511 14.06 5.436 20.16 9.782 8.318 5.92 14.66 14.26 19.7 23.13 5.048 8.875 8.913 18.36 13.17 27.64z" fill="#020204"/>
</clipPath>
<radialGradient id="radialGradient9489" gradientUnits="userSpaceOnUse" cx="426.5" cy="170" r="50" gradientTransform="matrix(1.687 -8.702e-8 8.702e-8 1.687 -1931 983.4)">
<stop stop-color="#d3efb3" offset="0"/>
<stop stop-color="#70c809" offset="0.3"/>
<stop stop-color="#366004" offset="1"/>
</radialGradient>
<radialGradient id="radialGradient9499" gradientUnits="userSpaceOnUse" cx="426.5" cy="170" r="50" gradientTransform="matrix(1.607 -8.288e-8 8.288e-8 1.607 -259.5 -103.5)">
<stop stop-color="#b1e4fc" offset="0"/>
<stop stop-color="#04a7f3" offset="0.3"/>
<stop stop-color="#023f5c" offset="1"/>
</radialGradient>
<radialGradient id="radialGradient9551" gradientUnits="userSpaceOnUse" cx="223.2" cy="137.7" r="14.57" gradientTransform="matrix(1.304 -.05490 .04738 1.997 -560.4 501.7)">
<stop stop-color="#fefefc" offset="0"/>
<stop stop-color="#fefefc" offset=".7573"/>
<stop stop-color="#d4d4d4" offset="1"/>
</radialGradient>
<radialGradient id="radialGradient9557" gradientUnits="userSpaceOnUse" cx="223.2" cy="137.7" r="14.57" gradientTransform="matrix(1.737 -.05490 .06310 1.997 -600.6 501.7)">
<stop stop-color="#fefefc" offset="0"/>
<stop stop-color="#fefefc" offset=".7573"/>
<stop stop-color="#d4d4d4" offset="1"/>
</radialGradient>
<linearGradient id="linearGradient9579" y2="140.7" gradientUnits="userSpaceOnUse" y1="132.8" gradientTransform="translate(90)" x2="219.7" x1="213">
<stop stop-color="#949494" stop-opacity=".3922" offset="0"/>
<stop stop-color="#949494" offset=".5"/>
<stop stop-color="#949494" stop-opacity=".3922" offset="1"/>
</linearGradient>
<linearGradient id="linearGradient9583" y2="128" xlink:href="#linearGradient29336-6-4" gradientUnits="userSpaceOnUse" y1="114.6" gradientTransform="matrix(1.6 0 0 1.6 -673.3 544.2)" x2="308.7" x1="294.5"/>
<linearGradient id="linearGradient9587" y2="128.6" xlink:href="#linearGradient29336-6-4" gradientUnits="userSpaceOnUse" y1="115.7" gradientTransform="matrix(1.6 0 0 1.6 -673.3 544.2)" x2="266.6" x1="253.2"/>
<linearGradient id="linearGradient9595" y2="142.5" gradientUnits="userSpaceOnUse" y1="132.1" x2="169.9" x1="164">
<stop stop-color="#757574" stop-opacity="0" offset="0"/>
<stop stop-color="#757574" offset=".2629"/>
<stop stop-color="#757574" offset=".5"/>
<stop stop-color="#757574" stop-opacity="0" offset="1"/>
</linearGradient>
<radialGradient id="radialGradient9615" gradientUnits="userSpaceOnUse" cx="294.5" cy="193.1" r="31.11" gradientTransform="matrix(.9362 -.3864 .2713 .6574 -244.5 146.7)">
<stop stop-color="#d2940a" offset="0"/>
<stop stop-color="#d89c08" offset=".7514"/>
<stop stop-color="#b67e07" offset=".8658"/>
<stop stop-color="#946106" offset="1"/>
</radialGradient>
<linearGradient id="linearGradient9617" y2="157.9" gradientUnits="userSpaceOnUse" y1="158.3" gradientTransform="translate(-210)" x2="313.3" x1="256.9">
<stop stop-color="#ad780a" offset="0"/>
<stop stop-color="#d89e08" offset=".1197"/>
<stop stop-color="#edb80b" offset=".2551"/>
<stop stop-color="#ebc80d" offset=".3919"/>
<stop stop-color="#f5d838" offset=".5274"/>
<stop stop-color="#f6d811" offset=".7691"/>
<stop stop-color="#f5cd31" offset="1"/>
</linearGradient>
<radialGradient id="radialGradient9619" gradientUnits="userSpaceOnUse" xlink:href="#linearGradient29529-6-3" cx="77.67" cy="147.1" r="3.23" gradientTransform="matrix(1 0 0 .5833 -.00003457 61.42)"/>
<radialGradient id="radialGradient9621" gradientUnits="userSpaceOnUse" xlink:href="#linearGradient29529-6-3" cx="63.13" cy="147.4" r="1.535" gradientTransform="matrix(1 0 0 1.075 0 -11.09)"/>
<linearGradient id="linearGradient9623" y2="159.8" gradientUnits="userSpaceOnUse" y1="157" x2="243.5" x1="243">
<stop stop-color="#f5ce2d" offset="0"/>
<stop stop-color="#d79b08" offset="1"/>
</linearGradient>
<radialGradient id="radialGradient9627" gradientUnits="userSpaceOnUse" cx="336.2" cy="220.5" r="27.39" gradientTransform="matrix(-1.29 0 0 1.221 124 624.6)">
<stop offset="0"/>
<stop stop-opacity=".2489" offset="1"/>
</radialGradient>
<radialGradient id="radialGradient9631" gradientUnits="userSpaceOnUse" xlink:href="#linearGradient4417-8-5-9" cx="312.1" cy="236.4" r="27.39" gradientTransform="matrix(1.6 0 0 1.221 -689.3 624.6)"/>
<radialGradient id="radialGradient9635" gradientUnits="userSpaceOnUse" xlink:href="#linearGradient4417-8-5-9" cx="275.6" cy="225.1" r="10.85" gradientTransform="matrix(1.6 0 0 1.711 -689.3 520.4)"/>
<radialGradient id="radialGradient8359" gradientUnits="userSpaceOnUse" cy="150.7" cx="275.5" gradientTransform="matrix(1.117 -.8115 .7365 1.013 -660.6 851.4)" r="15.38">
<stop stop-color="#020204" offset="0"/>
<stop stop-color="#020204" offset=".7345"/>
<stop stop-color="#5c5c5c" offset="1"/>
</radialGradient>
<radialGradient id="radialGradient8424" gradientUnits="userSpaceOnUse" cy="170" cx="426.5" gradientTransform="matrix(1.687 -8.702e-8 8.702e-8 1.687 -2255 1137)" r="50">
<stop stop-color="#eeb0d3" offset="0"/>
<stop stop-color="#c6006e" offset="0.3"/>
<stop stop-color="#2b0018" offset="1"/>
</radialGradient>
<linearGradient id="linearGradient8582" y2="968" gradientUnits="userSpaceOnUse" x2="588.8" gradientTransform="translate(454.5 -965.4)" y1="1414" x1="588.8">
<stop stop-color="#353844" offset="0"/>
<stop stop-color="#595b67" offset=".5"/>
<stop stop-color="#6c6f7a" offset="1"/>
</linearGradient>
</defs>
<g transform="translate(445.9 -421.3)">
<path id="path8576" d="m396.9 10.79v452.8h94.8v-165.2l55.9-42.7 162.6 207.9h111.9l-209.2-261.3 193.4-191.5-110.5-0.01-204.1 205.4v-205.4l-94.8-0.01zm436.1 0l167 452.8h97l166-452.8-98-0.01-93 290.8c-3 10.1-6 20.3-9 30.6-3 10-5 19.2-7 27.3-3 9.6-5 18.9-7 27.6-2-9-5-18.4-7-28.2-3-8.4-5-17.6-8-27.7s-6-19.9-9-29.6l-93-290.8-99-0.01zm479 0v452.8h84v-274.4-29.6c-1-11.4-1-22.2-2-32.5 0-12-1-24.2-1-36.6 4 16.9 9 33 13 48.2 2 6.4 4 13.1 6 19.9 2 6.9 4 13.5 5 20 2 6.4 4 12.4 5 18 2 5.5 4 10.3 5 14.4l82 252.6h67l82-252.6c1-4.1 2-8.9 4-14.4 2-5.6 4-11.6 5-18 2-6.5 4-13.1 6-20 2-6.8 4-13.5 6-19.9 4-15.2 8-31.3 12-48.2 0 10.7-1 21.7-1 33.1-1 9.6-1 20.2-1 31.8-1 11.6-1 22.8-1 33.8v274.4h84v-452.8l-126-0.01-80 254.9c-1 3.2-2 6.8-3 10.9s-3 8.3-4 12.8-3 9.1-4 13.9c-1 4.7-2 9.3-4 13.8-2 10.3-5 21-8 32.1-3-11.3-6-22.3-9-32.8-2-9-5-18.3-7-27.9-2-9.7-5-17.8-7-24.5l-81-253.2-127-0.01z" transform="translate(-445.9 421.3)" fill="url(#linearGradient8582)"/>
<g transform="translate(1186 -681.1)">
<path id="path9485" style="color:#000000" d="m-1176 1304a52.5 52.5 0 0 1 -52.5 52.5 52.5 52.5 0 0 1 -52.5 -52.5 52.5 52.5 0 0 1 52.5 -52.5 52.5 52.5 0 0 1 52.5 52.5z" fill="url(#radialGradient9489)"/>
</g>
<g transform="translate(1186 -681.1)">
<path id="path9495" style="color:#000000" d="m459.6 201.9a50 50 0 0 1 -50 50 50 50 0 0 1 -50 -50 50 50 0 0 1 50 -50 50 50 0 0 1 50 50z" transform="matrix(1.05 0 0 1.05 -1920 948)" fill="url(#radialGradient9499)"/>
</g>
<g transform="translate(1186 -681.1)">
<path id="path9505" style="color:#000000" d="m-1500 1458a52.5 52.5 0 0 1 -52.5 52.5 52.5 52.5 0 0 1 -52.5 -52.5 52.5 52.5 0 0 1 52.5 -52.5 52.5 52.5 0 0 1 52.5 52.5z" fill="url(#radialGradient8424)"/>
</g>
<g transform="translate(617.3 -146.7)">
<path id="path9515" d="m-954.4 1058c-8.243 4.069-15.9 9.273-24.29 13.03-8.387 3.761-17.87 6.036-26.79 3.808-3.892-0.9729-7.606-2.784-11.61-3.086-2-0.1509-4.065 0.097-5.865 0.9844-1.799 0.8869-3.307 2.46-3.863 4.387-0.4222 1.465-0.2851 3.022-0.2863 4.547 0 4.275-1.224 8.681-4.098 11.85-1.525 1.68-3.536 2.987-5.775 3.358-2.529 0.4191-5.142-0.3862-7.325-1.73s-4-3.197-5.76-5.062c-2.118-2.244-4.198-4.548-5.859-7.148-1.662-2.6-2.899-5.527-3.181-8.599-0.2717-2.962 0.3548-5.958 1.467-8.716s2.698-5.301 4.398-7.742c5.158-7.404 11.44-14.01 18.47-19.66 7.217-5.802 15.18-10.59 23.15-15.32 9.095-5.398 18.24-10.75 27.76-15.34 14.46-6.982 29.72-12.18 45.07-16.88 10.17-3.111 20.89-6.034 31.31-3.927 4.299 0.8692 8.427 2.594 12.04 5.076 8.298 5.697 13.62 15.54 13.74 25.6 0.0372 3.169-0.4202 6.37-1.611 9.308-1.19 2.937-3.14 5.604-5.745 7.409-2.317 1.605-5.062 2.484-7.82 3.065-2.758 0.5815-5.568 0.8874-8.327 1.469-7.125 1.503-13.72 4.799-20.43 7.62-9.548 4.012-19.49 7.113-28.77 11.7z" fill="#020204"/>
<path id="path9517" d="m352 200.9c-1.452 0.3888-1.23 3.994-0.296 5.498 0.7889 1.27 3.072 2.271 3.759 1.005 1.114-2.056-1.472-7.036-3.462-6.503z" transform="matrix(-.1119 1.531 -.9032 -.1897 -688.1 495.7)" filter="url(#filter15211-9-2)" fill="#020204"/>
<path id="path9519" d="m-961 1056c-14.06 5.35-27.37 12.69-39.39 21.74-5.998 0.1744-12.01-2.679-15.66-7.438-3.656-4.759-4.865-11.3-3.151-17.05 1.705-5.722 5.967-10.3 10.37-14.33 8.05-7.368 17.01-13.68 26.19-19.57 12.94-8.306 26.46-15.88 40.98-20.94 11.01-3.838 22.53-6.204 34.17-7.014-4.853 10.31-9.907 20.53-15.16 30.64-4.708 9.07-9.574 18.06-14.59 26.96-8.086 1.712-16.04 4.052-23.76 6.991z" stroke="#020204" stroke-width="2" fill="#fff"/>
<path id="path9521" d="m-961 1056c-14.06 5.35-27.37 12.69-39.39 21.74-5.998 0.1744-12.01-2.679-15.66-7.438-3.656-4.759-4.865-11.3-3.151-17.05 1.705-5.722 5.967-10.3 10.37-14.33 8.05-7.367 17.01-13.68 26.19-19.57 12.94-8.306 26.46-15.88 40.98-20.94 11.01-3.838 22.53-6.204 34.17-7.014-4.853 10.31-9.907 20.53-15.16 30.64-4.708 9.07-9.574 18.06-14.59 26.96-8.086 1.712-16.04 4.052-23.76 6.991z" stroke="#020204" stroke-width="2" fill="#020204"/>
<path id="path9523" d="m-964.5 1056c-9.592 4.422-19.19 8.842-28.78 13.26-5.207-1.684-9.881-4.98-13.22-9.32-3.334-4.34-5.315-9.705-5.6-15.17-0.1922-3.681 0.3812-7.426 1.886-10.79 2.277-5.091 6.554-9.058 11.26-12.05 4.708-2.989 9.897-5.121 14.93-7.522 13.85-6.608 26.69-15.34 40.98-20.94 10.88-4.263 22.49-6.647 34.17-7.014-4.853 10.31-9.907 20.53-15.16 30.64-4.708 9.07-9.574 18.06-14.59 26.96-8.628 3.982-17.26 7.962-25.89 11.94z" clip-path="url(#clipPath7574)" fill="#fff"/>
</g>
<path id="path9525" d="m214.5 342.5c-2.7 0-5.5 0.1-8.2 0.4-11 1.3-21.9 5.8-29.1 14.1-6 6.9-9.1 15.8-11.3 24.7s-3.7 18-7.1 26.5c-5.8 14.2-16.5 25.8-23.7 39.3-7.9 14.9-11.3 31.8-17.3 47.6-5.4 14.5-13.1 28.1-18.32 42.6-3.36 9.5-5.61 19.3-6.6 29.3h260.7c2.8-16.7 2.9-33.9 0.7-50.8-3.2-23.8-10.7-46.9-20.7-68.8-5.2-11.3-11-22.4-16.2-33.7-4.2-9.3-8.1-18.8-13.2-27.7-5-8.8-11.3-17.2-19.7-23.1-6.1-4.4-13.1-7.3-20.1-9.8-8.3-2.9-16.7-5.4-25.3-7.3-8.1-1.8-16.3-3.3-24.6-3.3z" transform="translate(-445.9 421.3)" fill="#020204"/>
<path id="path9537" fill="#020204" d="m-287.6 811.1c-0.1316-12.44-0.5473-24.88-1.247-37.3-0.6726-11.95-1.608-23.91-1.144-35.86 0.4726-12.17 2.465-24.49 7.862-35.41 5.401-10.93 14.2-20.18 24.94-25.95 10.1-5.437 21.71-7.763 33.17-7.64 15.55 0.1673 31.14 4.866 43.73 13.99 7.892 5.718 14.54 13.09 19.77 21.3 4.469 7.015 7.941 14.68 10.12 22.71 4.469 16.46 3.409 33.84 4.278 50.87 0.8237 16.15 3.409 32.26 2.53 48.4-0.1909 3.506-0.5702 7.094-2.133 10.24-1.523 3.064-4.109 5.528-7.079 7.226s-6.315 2.665-9.697 3.187c-6.763 1.044-13.68 0.355-20.49 0.9872-9.888 0.9174-19.32 4.586-29.13 6.102-11.7 1.806-23.61 0.5188-35.44 0.054-4.736-0.1862-9.488-0.2403-14.19-0.8282-4.704-0.5879-9.393-1.73-13.57-3.968-2.573-1.378-4.938-3.171-6.857-5.369-1.92-2.199-3.388-4.81-4.138-7.631-1.127-4.239-0.6076-8.713-0.5044-13.1 0.0945-4.013-0.1679-8.034-0.7831-12v-0.0002z"/>
<path id="path9541" d="m195.4 377.8h-2.3c-3 0.2-6.1 0.8-8.9 1.9-2.8 1.2-5.4 2.9-7.3 5.3-1.7 2.1-2.7 4.6-3.4 7.2s-0.9 5.3-1 8c-0.2 5.4 0.1 10.8-1.3 16-1.5 5.5-4.9 10.3-8.3 15-5.7 8.1-11.6 16.4-14.4 25.9-1.7 5.8-2.3 11.9-1.7 17.9-6.4 9.5-12 19.5-16.7 30-7 15.9-11.8 32.9-13.5 50.2-0.4 3.9-0.6 7.9-0.6 11.8h199.3c2.4-26.1 1.5-53.1-9.9-76.6-4.3-8.9-10-17.2-16.9-24.3-1.8-12.4-5.5-24.6-10.7-36-3.8-8.3-8.4-16.1-12-24.5-1.4-3.4-2.7-6.9-4.3-10.3s-3.6-6.6-6.3-9.2-6.1-4.5-9.8-5.7c-3.6-1.2-7.4-1.7-11.2-1.9-7.6-0.4-15.3 0.6-22.9 0.3-5.3-0.2-10.6-1.1-15.9-1z" transform="translate(-445.9 421.3)" fill="#fdfdfb"/>
<path id="path9549" fill="url(#radialGradient9551)" d="m-266.5 740c-2.849 0.1552-5.575 1.47-7.66 3.419-2.085 1.948-3.554 4.499-4.458 7.206-1.807 5.414-1.401 11.28-0.9899 16.98 0.372 5.154 0.7526 10.41 2.683 15.2 0.9651 2.397 2.32 4.656 4.128 6.502s4.083 3.267 6.589 3.895c2.35 0.5889 4.861 0.4669 7.172-0.2593s4.422-2.046 6.154-3.741c2.526-2.472 4.229-5.706 5.205-9.103 0.9763-3.397 1.255-6.962 1.204-10.5-0.0636-4.423-0.6414-8.861-2.025-13.06-1.384-4.201-3.593-8.165-6.676-11.34-1.493-1.536-3.196-2.888-5.118-3.836-1.921-0.9477-4.069-1.481-6.209-1.364z"/>
<path id="path9555" fill="url(#radialGradient9557)" d="m-216.1 740c-4.449 3.056-8.177 7.32-10 12.4-2.298 6.402-1.417 13.57 0.8 20 2.271 6.587 6.07 12.87 11.81 16.82 2.868 1.977 6.189 3.333 9.648 3.742 3.46 0.4089 7.055-0.1518 10.14-1.761 3.765-1.962 6.636-5.396 8.419-9.249s2.542-8.112 2.78-12.35c0.3038-5.401-0.2247-10.89-2-16-1.928-5.55-5.424-10.67-10.36-13.87-2.466-1.597-5.267-2.694-8.177-3.096-2.91-0.4025-5.927-0.1012-8.666 0.9628-1.561 0.6064-3.02 1.452-4.4 2.4z"/>
<path id="path9561" opacity=".3" d="m-25.36 142.2c-1.786 1.477-3.501 3.042-5.136 4.685-0.9038 0.9087-1.809 1.884-2.215 3.099-0.3606 1.081-0.292 2.253-0.4688 3.379-0.06057 0.3856-0.1504 0.7694-0.1521 1.16-0.000812 0.1952 0.02083 0.3915 0.0782 0.578 0.05736 0.1866 0.1513 0.3634 0.2846 0.5059 0.2218 0.2372 0.5382 0.3658 0.8564 0.4306s0.6449 0.0725 0.9677 0.1075c1.456 0.1575 2.798 0.8634 4.004 1.695 1.206 0.8315 2.315 1.8 3.551 2.585 2.731 1.734 5.993 2.505 9.226 2.628 3.233 0.1234 6.458-0.3706 9.63-1.005 2.521-0.5041 5.034-1.101 7.425-2.044 3.663-1.444 6.964-3.667 10.12-6.022 1.433-1.07 2.846-2.173 4.133-3.415 0.4367-0.4216 0.8592-0.8595 1.328-1.246 0.4684-0.386 0.9882-0.7218 1.566-0.9077 0.8808-0.2834 1.836-0.202 2.748-0.0495 0.6873 0.1149 1.376 0.269 2.072 0.2413 0.3482-0.0139 0.6966-0.0742 1.02-0.2037 0.3235-0.1295 0.6216-0.3303 0.8433-0.599 0.2914-0.3532 0.44-0.8144 0.4416-1.272 0.0016-0.4579-0.1387-0.911-0.3711-1.305-0.4647-0.789-1.268-1.323-2.105-1.695-1.146-0.5094-2.386-0.7614-3.606-1.056-3.745-0.9043-7.385-2.241-10.84-3.954-1.716-0.8517-3.384-1.796-5.072-2.7-1.736-0.9302-3.505-1.824-5.389-2.395-4.213-1.277-8.819-0.8583-12.98 0.5861-4.62 1.604-8.797 4.463-11.97 8.188v0.00002z" transform="matrix(1.6 0 0 1.6 -226.9 558.6)" fill="#a2a2a2"/>
<path id="path9563" fill="url(#radialGradient8359)" d="m-253.1 777.6c2.828-3.179 4.762-7.057 7.478-10.33 1.358-1.637 2.925-3.128 4.771-4.187 1.845-1.058 3.987-1.666 6.106-1.482 2.359 0.2043 4.567 1.38 6.294 2.999 1.727 1.62 3.008 3.664 4.03 5.8 0.9788 2.045 1.756 4.224 3.167 6 1.504 1.894 3.615 3.187 5.522 4.677 0.9532 0.7445 1.868 1.551 2.621 2.497 0.7535 0.9462 1.343 2.041 1.586 3.227 0.246 1.203 0.1234 2.472-0.2963 3.626s-1.131 2.195-2.015 3.047c-1.769 1.704-4.182 2.623-6.614 2.967-4.865 0.6882-9.783-0.7613-14.69-0.6262-4.971 0.1367-9.826 1.894-14.8 1.712-2.485-0.0909-5.005-0.698-7.047-2.117-1.021-0.7094-1.91-1.617-2.553-2.681-0.6429-1.064-1.035-2.286-1.077-3.529-0.04-1.185 0.2369-2.369 0.7105-3.457 0.4736-1.087 1.14-2.083 1.891-3.001 1.502-1.836 3.339-3.37 4.916-5.142z"/>
<path id="path9569" d="m-197.7 689.6c-4.102 2.894-2.31 6.508-0.5458 10.14 1.764 3.627-3.879 14.08-3.939 14.53-0.0594 0.451 11.11-5.301 14.15-9.037 3.594-4.412 12.68 5.969 12.18 4.39 0.004-2.826-17.75-22.92-21.85-20.02z" fill="#232323"/>
<g transform="matrix(1.6 0 0 1.6 -693.3 524.7)">
<path id="path9573" fill="#020204" d="m302.2 130.8c-1.045 0.0749-2.064 0.4318-2.951 0.9903s-1.643 1.315-2.237 2.179c-1.187 1.728-1.709 3.847-1.793 5.941-0.0631 1.572 0.111 3.165 0.6324 4.65 0.5215 1.485 1.401 2.859 2.613 3.863 1.24 1.027 2.816 1.644 4.425 1.721 1.608 0.0773 3.239-0.3866 4.561-1.307 1.053-0.7329 1.902-1.742 2.507-2.873 0.6046-1.131 0.9688-2.383 1.135-3.655 0.2941-2.247-0.0385-4.593-1.077-6.607s-2.801-3.673-4.927-4.456c-0.9209-0.3393-1.909-0.5158-2.888-0.4456z"/>
<path id="path9575" d="m304.7 137.6c-0.8659 0.3416-2.237 0.1268-2.616 0.9767-0.2249 0.5036 0.0927 1.333 0.6034 1.541 1.032 0.4206 2.632-0.3411 3.049-1.375 0.181-0.4491-0.0934-1.161-0.5397-1.349-0.1652-0.0694-0.3296 0.1407-0.4962 0.2064z" filter="url(#filter28927-8-8)" fill="#141413"/>
<path id="path9577" d="m308.6 139.9c1.161-1.161-0.8261-4.24-2.375-5.5-1.122-0.913-4.391-1.869-4.25-0.875 0.1406 0.9935 1.61 2.266 2.595 3.237 1.212 1.195 3.479 3.689 4.03 3.138z" fill="url(#linearGradient9579)"/>
</g>
<path id="path9581" d="m-200.6 726.8c-0.7631 0.9597-1.453 2.004-2 3.15 3.434 0.7399 6.718 2.153 9.65 4.1 5.672 3.767 9.979 9.274 13 15.4 0.7052-0.7809 1.347-1.619 1.9-2.55-3.036-6.38-7.43-12.15-13.3-16.05-2.82-1.873-5.959-3.286-9.25-4.05z" fill="url(#linearGradient9583)"/>
<path id="path9585" d="m-266.8 729.9c-0.3869-0.008-0.7628 0.0266-1.15 0.0454-0.2488 0.0112-0.5026 0.0221-0.75 0.0454 2.261 0.2054 4.508 0.8129 6.55 1.73 2.782 1.249 5.238 3.029 7.4 5.054 4.006 3.752 6.984 8.383 9 13.29-0.4981-3.784-1.642-7.366-3.3-10.65-0.7897-0.9141-1.609-1.806-2.5-2.641-2.162-2.025-4.618-3.804-7.4-5.054-2.434-1.093-5.142-1.773-7.85-1.821z" fill="url(#linearGradient9587)"/>
<g transform="matrix(1.6 0 0 1.6 -533.8 525.7)">
<path id="path9591" fill="#020204" d="m159.9 137.1c-0.3721 2.246-0.3856 4.602 0.3864 6.743 0.5098 1.414 1.35 2.697 2.372 3.799 0.669 0.7218 1.428 1.378 2.316 1.803 0.8875 0.4254 1.916 0.6064 2.87 0.3667 0.8811-0.2212 1.652-0.7886 2.22-1.497 0.5686-0.7086 0.9476-1.553 1.218-2.42 0.7974-2.561 0.6693-5.362-0.1224-7.924-0.5768-1.867-1.532-3.668-3.027-4.927-0.7131-0.6006-1.548-1.071-2.455-1.287-0.9071-0.2155-1.889-0.165-2.738 0.2206-0.9423 0.4282-1.672 1.243-2.149 2.161-0.4775 0.9183-0.7229 1.939-0.8921 2.96z"/>
<path id="path9593" d="m164.7 135.5c0.2418 0.6337 1.054 0.8638 1.5 1.375 0.433 0.4965 0.8874 1.011 1.125 1.625 0.4549 1.176-0.4488 2.919 0.5 3.75 0.2978 0.2608 0.8947 0.2664 1.188 0 1.145-1.042 0.8909-3.144 0.4375-4.625-0.4115-1.344-1.427-2.616-2.679-3.255-0.5788-0.2954-1.451-0.5409-1.946-0.1199-0.319 0.2713-0.2743 0.8588-0.125 1.25z" fill="url(#linearGradient9595)"/>
</g>
<g transform="matrix(1.6 0 0 1.6 -353.3 544.2)">
<path id="path9599" fill="url(#radialGradient9615)" d="m45.75 165c0.06146 0.2954 0.1725 0.5804 0.3271 0.8395 0.2657 0.4453 0.6539 0.8063 1.073 1.111 0.4193 0.3051 0.8728 0.5595 1.312 0.8354 2.334 1.467 4.235 3.529 5.925 5.707 2.267 2.922 4.272 6.165 7.299 8.289 2.138 1.5 4.696 2.355 7.294 2.616 3.051 0.3066 6.14-0.186 9.082-1.052 2.726-0.8027 5.363-1.93 7.782-3.421 4.599-2.836 8.439-6.993 13.51-8.857 1.107-0.407 2.259-0.6982 3.326-1.2 1.067-0.5021 2.071-1.254 2.581-2.318 0.49-1.022 0.471-2.202 0.6305-3.325 0.1707-1.201 0.5537-2.362 0.7638-3.556 0.2101-1.195 0.2352-2.472-0.2814-3.57-0.4278-0.9088-1.205-1.628-2.1-2.085-0.8945-0.4569-1.901-0.6645-2.904-0.7137-2.006-0.0985-3.988 0.4152-5.988 0.5978-2.65 0.2419-5.318-0.0982-7.977-0.019-3.308 0.0986-6.568 0.8447-9.874 1.005-3.772 0.1829-7.535-0.3985-11.31-0.5514-1.634-0.0662-3.28-0.0512-4.892 0.2253s-3.195 0.8236-4.541 1.753c-1.311 0.9055-2.356 2.14-3.56 3.184-0.6021 0.5219-1.249 0.9993-1.966 1.347-0.7168 0.3481-1.507 0.564-2.304 0.5471-0.4096-0.009-0.8309-0.0769-1.221 0.0472-0.2439 0.0775-0.4605 0.227-0.6435 0.4059-0.1831 0.1789-0.3348 0.387-0.4778 0.5993-0.3325 0.4936-0.6231 1.015-0.8674 1.558z"/>
<path id="path9601" fill="#d9b30d" d="m60.56 169.1c-0.3865 1.596-0.152 3.334 0.6436 4.771s2.144 2.558 3.702 3.077c1.978 0.6592 4.207 0.3364 6.055-0.6281 1.071-0.5591 2.051-1.346 2.669-2.384 0.3091-0.5192 0.524-1.097 0.6045-1.696 0.08054-0.5988 0.02471-1.218-0.1849-1.785-0.2297-0.6211-0.6403-1.168-1.146-1.596-0.5058-0.4275-1.105-0.7378-1.733-0.9457-1.258-0.4158-2.611-0.424-3.934-0.3605-2.005 0.0963-4.003 0.3484-5.969 0.7532"/>
<path id="path9603" fill="#604405" d="m54.07 156.7c-1.339 0.7915-2.629 1.664-3.898 2.563-0.6567 0.4655-1.334 0.969-1.681 1.696-0.2455 0.515-0.3018 1.099-0.3096 1.669-0.0078 0.5704 0.02884 1.144-0.04618 1.71-0.05124 0.3862-0.1543 0.7662-0.1715 1.155-0.0086 0.1946 0.0047 0.3914 0.05602 0.5794 0.05134 0.1879 0.1419 0.367 0.2755 0.5088 0.1726 0.1832 0.4079 0.2959 0.6486 0.3693s0.4906 0.1112 0.7356 0.1688c1.175 0.2761 2.197 0.9968 3.094 1.804 0.8972 0.8069 1.703 1.715 2.639 2.476 2.537 2.064 5.89 2.919 9.161 2.973 3.271 0.0538 6.504-0.6307 9.695-1.349 2.506-0.5646 5.015-1.155 7.425-2.044 3.703-1.365 7.141-3.432 10.12-6.022 1.35-1.174 2.617-2.464 4.133-3.415 1.341-0.8421 2.843-1.398 4.206-2.203 0.1219-0.072 0.2432-0.1462 0.3521-0.2366 0.1089-0.0905 0.2057-0.1981 0.2689-0.3248 0.1092-0.2189 0.1094-0.4812 0.0389-0.7155-0.0704-0.2343-0.2063-0.4439-0.36-0.6342-0.17-0.2106-0.3634-0.4016-0.569-0.5776-1.424-1.219-3.357-1.662-5.226-1.811-1.869-0.1482-3.761-0.0434-5.61-0.3524-1.739-0.2905-3.393-0.9388-5.072-1.477-1.762-0.5653-3.563-1.013-5.389-1.31-4.295-0.7006-8.717-0.5664-12.98 0.3206-4.058 0.8449-7.971 2.371-11.54 4.48z"/>
<path id="path9605" fill="url(#linearGradient9617)" d="m53.64 152.2c-1.929 1.299-3.666 2.883-5.136 4.685-0.8407 1.031-1.604 2.151-2.027 3.412-0.333 0.9918-0.4465 2.042-0.6563 3.067-0.07861 0.384-0.1714 0.7692-0.1697 1.161 0.000822 0.196 0.02568 0.3928 0.08646 0.5791 0.06079 0.1863 0.1583 0.362 0.2941 0.5034 0.2247 0.2339 0.5404 0.361 0.8581 0.4263s0.6438 0.0751 0.9661 0.1118c1.455 0.1654 2.794 0.872 4 1.702 1.206 0.8302 2.317 1.795 3.554 2.578 2.734 1.729 5.995 2.498 9.227 2.623 3.232 0.1246 6.457-0.3664 9.629-0.9998 2.521-0.5033 5.034-1.101 7.425-2.044 3.662-1.444 6.964-3.667 10.12-6.022 1.433-1.07 2.846-2.173 4.133-3.415 0.4367-0.4216 0.8592-0.8595 1.328-1.246 0.4684-0.386 0.9882-0.7218 1.566-0.9077 0.8808-0.2834 1.836-0.202 2.748-0.0495 0.6873 0.1149 1.376 0.269 2.072 0.2413 0.3482-0.0139 0.6966-0.0742 1.02-0.2037s0.6216-0.3303 0.8433-0.599c0.2914-0.3532 0.44-0.8144 0.4416-1.272 0.002-0.4579-0.1387-0.911-0.371-1.305-0.4647-0.789-1.268-1.323-2.105-1.695-1.146-0.5094-2.386-0.7614-3.606-1.056-3.745-0.9043-7.385-2.241-10.84-3.954-1.716-0.8517-3.384-1.796-5.072-2.7-1.736-0.9302-3.505-1.824-5.389-2.395-4.213-1.277-8.819-0.8583-12.98 0.5861-4.62 1.604-8.797 4.463-11.97 8.188v0.00002z"/>
<path id="path9607" fill="#f6da4a" d="m83.24 153.1c-0.2265-0.2862-0.5511-0.488-0.9013-0.591s-0.7247-0.1104-1.084-0.0488c-0.7195 0.1232-1.364 0.5105-1.966 0.9245-1.709 1.176-3.219 2.628-4.537 4.23-1.745 2.12-3.185 4.572-3.668 7.275-0.08131 0.4555-0.1351 0.9213-0.07821 1.38 0.0569 0.4592 0.2328 0.9148 0.5587 1.243 0.2862 0.2884 0.6757 0.4642 1.078 0.522 0.4021 0.0578 0.8159 0.002 1.201-0.1284 0.7697-0.2602 1.409-0.7994 2.014-1.341 3.336-2.985 6.353-6.568 7.56-10.88 0.1211-0.4326 0.224-0.8757 0.2212-1.325-0.0028-0.4492-0.1192-0.9095-0.398-1.262z"/>
<path id="path9609" opacity=".8" d="m75.25 146.9c0.2313 0.7424 1.428 0.6194 2.119 0.9754 0.6066 0.3124 1.094 0.9972 1.777 1.017 0.6509 0.0188 1.664-0.2254 1.749-0.8711 0.1119-0.853-1.134-1.395-1.935-1.708-1.031-0.4022-2.353-0.6062-3.321-0.0682-0.2217 0.1233-0.4637 0.4124-0.3883 0.6546z" filter="url(#filter15177-1-2)" fill="url(#radialGradient9619)"/>
<path id="path9611" opacity=".8" d="m63.83 146.5c-0.8882-0.2885-2.357 1.277-1.878 2.079 0.1317 0.2201 0.5349 0.4992 0.8064 0.3499 0.4092-0.225 0.744-1.03 1.187-1.345 0.2961-0.2106 0.2297-0.9716-0.1158-1.084z" filter="url(#filter15173-0-7)" fill="url(#radialGradient9621)"/>
<path id="path9613" style="color:#000000" d="m245.9 158.3a2.608 2.328 0 0 1 -2.608 2.328 2.608 2.328 0 0 1 -2.608 -2.328 2.608 2.328 0 0 1 2.608 -2.328 2.608 2.328 0 0 1 2.608 2.328z" transform="matrix(1.096 0 -.1702 1.518 -136.2 -82.12)" fill="url(#linearGradient9623)"/>
</g>
<path id="path9625" opacity=".25" d="m-295.8 882.7c1.625 2.438-1.011 10.85 36.87 5.464 0 0-6.652 0.7317-13.21 2.247-10.2 3.413-19.08 7.227-25.93 12.28-6.788 4.995-11.76 11.51-17.99 17.11 0 0 10.09-18.43 12.6-23.98 2.515-5.55-0.421-5.296 1.568-13.46 1.989-8.166 6.858-16.01 6.858-16.01s-3.975 11.54-0.7697 16.35z" fill="url(#radialGradient9627)"/>
<path id="path9629" opacity="0.42" d="m-174 880.5c-7.72 5.378-12.24 4.741-21.61 5.793-9.367 1.052-34.72 0.6711-34.72 0.6711s3.67-0.0683 11.8 1.447c8.134 1.515 24.72 2.964 34.07 6.519 9.342 3.556 12.75 4.57 18.43 8.161 8.082 5.11 14.01 13.11 21.74 18.71 0 0 0.374-7.43-2.745-12.98s-11.5-14.3-13.97-22.46c-2.467-8.166-3.639-24.21-3.639-24.21s-1.634 12.97-9.354 18.35z" fill="url(#radialGradient9631)"/>
<path id="path9633" opacity=".2" d="m-246.6 869.1c-0.287 2.329-0.659 4.648-1.115 6.951-0.2248 1.135-0.4718 2.272-0.8944 3.349s-1.031 2.099-1.89 2.874c-0.7531 0.6791-1.671 1.145-2.593 1.568-3.597 1.647-7.447 2.74-11.37 3.23 1.568 0.115 3.134 0.258 4.696 0.4291 0.9845 0.1078 1.971 0.2273 2.931 0.4734 0.9594 0.246 1.896 0.6233 2.695 1.208 0.8765 0.6416 1.565 1.517 2.079 2.474 1.024 1.906 1.367 4.1 1.556 6.256 0.2422 2.757 0.2599 5.534 0.0528 8.295 0.1854-1.847 0.5724-3.673 1.152-5.437 1.045-3.178 2.727-6.156 4.991-8.618 0.8987-0.9768 1.889-1.873 2.974-2.637 3.325-2.341 7.549-3.369 11.58-2.818-4.094 0.1808-8.238-1.105-11.51-3.573-1.667-1.257-3.118-2.821-4.128-4.647-1.561-2.825-2-6.251-1.202-9.378h0.00002z" fill="url(#radialGradient9635)"/>
<path id="path9637" opacity="0.11" style="color:#000000" d="m189.4 502.2c-2 7.5-3.3 15.2-4.1 22.9-1 10.9-0.7 21.8-1.3 32.8-0.2 3-0.4 6.1-0.6 9.1h4.2c-0.2-11.6 1.3-23.2 2-34.7 0.6-10 0.5-20.1-0.2-30.1z" transform="translate(-445.9 421.3)"/>
<path id="path9639" d="m-166.6 811.2c-3.459 3.151 1.622 7.884 4.031 13.45 1.498 3.458 5.643 8.328 9.652 7.548 3.016-0.5868 4.887-4.927 4.601-7.986-0.5506-5.901-5.531-7.284-9.147-9.311-2.866-1.606-6.708-5.91-9.137-3.698z" fill="#232323"/>
<g transform="translate(617.3 -146.7)">
<path id="path9667" fill="#020204" d="m-708.5 948.2c5.805-10.83 12.34-21.43 21.01-30.13 5.498-5.521 11.94-10.4 15.55-17.3 3.336-6.366 3.904-13.85 3.299-21.01-0.3522-4.17-1.079-8.348-0.6958-12.52 0.196-2.134 0.6988-4.279 1.806-6.114s2.875-3.337 4.968-3.8c1.287-0.2846 2.648-0.1681 3.901 0.2436 1.253 0.4118 2.4 1.111 3.404 1.966 2.008 1.709 3.425 3.996 4.766 6.267 4.187 7.092 7.971 14.45 10.75 22.2 5.281 14.71 6.821 30.94 3.119 46.12-3.829 15.71-12.99 29.61-23.35 42.02-11.57 13.86-24.84 26.29-39.34 37.05-6.908 5.123-14.1 9.868-21.56 14.15-2.707 1.554-5.462 3.052-8.388 4.14s-6.042 1.76-9.16 1.61c-3.02-0.1453-5.982-1.065-8.631-2.523s-4.989-3.446-6.975-5.724c-3.973-4.558-6.499-10.2-8.455-15.92-1.027-3.004-1.919-6.094-2.039-9.266-0.1199-3.172 0.5939-6.463 2.514-8.991 1.729-2.277 4.306-3.781 6.99-4.768 2.683-0.9874 5.51-1.511 8.286-2.193 7.769-1.91 15.34-5.178 21.33-10.48 7.587-6.707 12.12-16.11 16.9-25.03z"/>
<path id="path9671" d="m-709.5 949.1c6.157-11.38 12.7-22.77 21.88-31.88 5.299-5.264 11.55-9.887 14.93-16.55 2.954-5.832 3.358-12.6 3.299-19.14-0.0426-4.757-0.2996-9.522 0.0542-14.27 0.1578-2.116 0.451-4.27 1.405-6.165 0.4772-0.9475 1.119-1.819 1.931-2.503 0.8114-0.6834 1.796-1.173 2.844-1.339 1.367-0.2164 2.817 0.1422 3.925 0.9714-1.102 0.9543-1.954 2.195-2.448 3.567-0.6174 1.714-0.6721 3.576-0.6202 5.397 0.2451 8.592 2.704 17 3.03 25.59 0.2033 5.353-0.4676 10.86-2.913 15.62-1.955 3.812-4.942 6.973-7.604 10.33-7.805 9.84-12.91 21.52-17.5 33.21-2.756 7.021-5.361 14.11-8.596 20.93-3.635 7.656-8.284 15.18-15.34 19.88-6.358 4.235-14.11 5.799-21.7 6.625-3.834 0.4173-7.705 0.6698-11.55 0.319-3.84-0.3508-7.666-1.325-11.02-3.234-2.538-1.447-4.774-3.419-6.526-5.757 5.19-2.708 10.45-5.28 15.78-7.711 7.744-3.536 15.78-6.877 22.08-12.6 6.407-5.822 10.53-13.67 14.65-21.28z" stroke="#020204" fill="#fff"/>
<path id="path9675" opacity=".25" d="m-654.9 859.2c0.01 4.485-8.251 4.871-10 9-2.111 4.985-2.326 13.41-0.9778 19.03 1.476 6.155 4.545 9.515 2.228 14.97-1.647 3.878-10.16 4.735-13.5 7.369-6.058 4.781-8.058 10.55-13 16.38-3.514 4.143-6.456 8.826-8.75 13.75-6.851 14.7-17.69 36.82-38 45.75-11.29 4.965-33.21 11.24-37-0.5-10.72-33.22 85.71-84.85 100.5-142.2 2.062-8.002 18.48 8.237 18.5 16.5z" clip-path="url(#clipPath7456)" stroke-width="0" fill="#848484"/>
</g>
<path id="path9677" opacity=".25" d="m36.38 499.4c-1.68-0.1-3.37 0.3-4.97 0.8-2.12 0.8-4.08 2-5.84 3.3-3.54 2.8-6.31 6.5-9.27 9.9-2.46 2.8-5.08 5.5-7.103 8.6-2.02 3.2-3.424 6.9-3.113 10.6 0.194 2.3 1.054 4.6 2.318 6.6 1.265 1.9 2.928 3.6 4.768 5 3.68 2.9 8.02 4.8 12.21 6.9 6.04 2.9 11.87 6.3 18.03 9 5.84 2.6 12.12 4.5 18.49 4.2 6.22-0.3 12.12-2.7 18.1-4.4 6.97-2.1 14.29-3.3 21.5-2.4 5.5 0.7 10.8 2.6 15.7 5.1 2.6 1.3 5 2.8 7.4 4.4h16.2c1-2.8 1.3-5.8 1-8.8-0.3-3.5-1.3-6.9-2.9-10-3.7-7.2-10.1-12.6-16.9-17.1-9.8-6.5-21.2-11.5-32.96-11.2-4.66 0.1-9.27 1-13.92 1.3s-9.5 0-13.62-2.2c-4.57-2.5-7.68-6.9-10.98-10.9-1.65-2-3.39-3.9-5.45-5.5-2.06-1.5-4.44-2.7-7.01-3.1-0.55-0.1-1.11-0.1-1.68-0.1z" clip-path="url(#clipPath7634)" transform="translate(-445.9 421.3)" fill="#020204"/>
<g transform="translate(617.3 -146.7)">
<path id="path9681" d="m-1020 1108c5.838 2.555 12.12 4.479 18.48 4.177 6.222-0.2947 12.12-2.682 18.1-4.431 6.97-2.04 14.3-3.238 21.51-2.346 5.49 0.6793 10.79 2.559 15.72 5.069 4.102 2.088 7.973 4.614 11.64 7.4 1.063 0.8088 2.121 1.647 3.327 2.221 1.206 0.5738 2.598 0.8676 3.89 0.5261 0.9996-0.2643 1.877-0.8945 2.559-1.672 0.6815-0.7776 1.18-1.699 1.595-2.646 1.403-3.198 1.902-6.764 1.607-10.24-0.2945-3.48-1.368-6.874-2.97-9.978-3.711-7.19-10.09-12.64-16.83-17.12-9.83-6.532-21.2-11.49-33-11.23-4.659 0.1-9.264 1.006-13.91 1.32-4.65 0.3138-9.507-0.014-13.62-2.204-4.57-2.433-7.678-6.84-10.98-10.83-1.65-1.995-3.398-3.932-5.454-5.506s-4.444-2.778-7.006-3.154c-2.229-0.3268-4.528-0.014-6.652 0.7378s-4.08 1.932-5.847 3.329c-3.536 2.794-6.307 6.413-9.267 9.81-2.458 2.821-5.082 5.529-7.102 8.679s-3.423 6.848-3.112 10.58c0.194 2.328 1.053 4.575 2.317 6.539 1.265 1.964 2.927 3.652 4.767 5.091 3.68 2.878 8.021 4.752 12.21 6.813 6.041 2.969 11.87 6.38 18.03 9.079z" fill="#020204"/>
</g>
</g>
</svg>
