<svg xmlns:rdf="http://www.w3.org/1999/02/22-rdf-syntax-ns#" xmlns="http://www.w3.org/2000/svg" version="1.1" xmlns:cc="http://creativecommons.org/ns#" xmlns:dc="http://purl.org/dc/elements/1.1/" viewBox="0 0 181.37 36">
<title>LibreOffice Initial Artwork</title>
<defs>
<style type="text/css">.str0 {stroke:#1F1A17;stroke-width:3}
    .fil0 {fill:none}</style>
<style type="text/css">.str0 {stroke:#1F1A17;stroke-width:0.0762}
    .fil0 {fill:none}
    .fil1 {fill:none;fill-rule:nonzero}</style>
<style type="text/css">.str0 {stroke:#000000;stroke-width:63}
    .str1 {stroke:#09098F;stroke-width:63}
    .fil5 {fill:none}
    .fil1 {fill:#000000}
    .fil2 {fill:#000000}
    .fil3 {fill:#4D66CC}
    .fil0 {fill:#576ECD}
    .fil4 {fill:#89A1D4}</style>
<style type="text/css">.str0 {stroke:#1F1A17;stroke-width:3}
    .fil0 {fill:none}</style>
<style type="text/css">.str0 {stroke:#1F1A17;stroke-width:0.0762}
    .fil0 {fill:none}
    .fil1 {fill:none;fill-rule:nonzero}</style>
<style type="text/css">.str0 {stroke:#000000;stroke-width:63}
    .str1 {stroke:#09098F;stroke-width:63}
    .fil5 {fill:none}
    .fil1 {fill:#000000}
    .fil2 {fill:#000000}
    .fil3 {fill:#4D66CC}
    .fil0 {fill:#576ECD}
    .fil4 {fill:#89A1D4}</style>
</defs>
<g transform="translate(-8 -1820.7)">
<g transform="matrix(.44738 0 0 .44738 4.4209 1026.1)">
<g transform="translate(-540 15.185)">
<path id="path3245" d="m643.41 1779.8v45.902h29.599v-6.9732h-20.564v-38.928h-9.0347" fill="#18a303"/>
<path id="path3247" d="m678.47 1825.7h9.0347v-33.038h-9.0347v33.038m4.5174-35.882c2.8318 0 5.1916-2.3018 5.1916-5.213 0-2.8434-2.3598-5.213-5.1916-5.213-2.8992 0-5.1916 2.3696-5.1916 5.213 0 2.9112 2.2924 5.213 5.1916 5.213" fill="#18a303"/>
<path id="path3249" d="m703.23 1796.5h-0.13485v-19.566h-9.0347v48.745h8.8325l0.20226-3.8589h0.13485c2.8318 3.182 5.6636 4.5359 10.316 4.5359 8.765 0 14.563-7.9211 14.563-17.806 0-9.5458-5.1916-16.587-14.159-16.587-4.7871 0-7.6188 1.4217-10.72 4.5359m-0.13485 11.916c0-5.6869 2.5621-9.4782 7.4166-9.4782 5.3939 0 8.0908 3.859 8.0908 10.155 0 6.2286-2.6295 10.291-7.956 10.291-4.6522 0-7.5514-3.6559-7.5514-9.4782v-1.4895" fill="#18a303"/>
<path id="path3251" d="m752.36 1792c-4.3151 0.2707-8.4279 2.9112-10.316 6.567h-0.13484l-0.20227-5.89h-8.8325v33.038h9.0347v-12.457c0-6.6347 1.2136-9.0043 3.3037-10.494 1.8204-1.2863 3.978-1.8279 6.9446-1.9633l0.20227-8.8012" fill="#18a303"/>
<path id="path3253" d="m785.6 1807.2c0-8.1918-4.9893-15.233-13.62-15.233-10.383 0-17.058 7.1764-17.058 18.076 0 10.629 6.8772 16.316 17.058 16.316 4.7871 0 8.1582-0.7447 11.327-2.1664l-0.94392-6.7701c-2.9666 1.2186-6.0007 1.9633-9.237 1.9633-5.4613 0-8.9673-2.505-9.3044-7.6502h21.373c0.2697-1.2187 0.40454-3.1143 0.40454-4.5361m-14.563-8.2596c3.9106 0 5.731 3.182 5.8658 6.567h-12.743c0.67423-3.7913 3.3038-6.567 6.8772-6.567" fill="#18a303"/>
<path id="path3255" d="m813.02 1779.1c-12.136 0-22.115 8.869-22.115 23.628s9.9787 23.628 22.115 23.628 22.115-8.8688 22.115-23.628-9.9787-23.628-22.115-23.628m0 4.6038c9.0347 0 15.912 6.7701 15.912 19.024s-6.8772 19.024-15.912 19.024c-9.0347 0-15.912-6.7703-15.912-19.024s6.8772-19.024 15.912-19.024"/>
<path id="path3257" d="m843.77 1790.8v2.0987h-5.3264v4.333h5.3264v28.435h5.6636v-28.435h8.3605v-4.333h-8.3605v-2.9788c0-5.89 2.4947-9.3428 7.012-9.3428 2.0901 0 3.4386 0.3385 4.7196 0.8124l0.53938-4.1975c-1.2136-0.4739-3.506-0.9478-5.3264-0.9478-8.0234 0-12.608 5.213-12.608 14.556"/>
<path id="path3259" d="m862.6 1790.8v2.0987h-5.3264v4.333h5.3264v28.435h5.6636v-28.435h8.3605v-4.333h-8.3605v-2.9788c0-5.89 2.4947-9.3428 7.012-9.3428 2.0901 0 3.4386 0.3385 4.7196 0.8124l0.53939-4.1975c-1.2136-0.4739-3.506-0.9478-5.3264-0.9478-8.0234 0-12.608 5.213-12.608 14.556"/>
<path id="path3261" d="m883.19 1825.7h5.6636v-32.768h-5.6636v32.768m2.8318-37.574c1.9553 0 3.506-1.5571 3.506-3.5205 0-1.9633-1.5507-3.5205-3.506-3.5205s-3.506 1.5572-3.506 3.5205c0 1.9634 1.5507 3.5205 3.506 3.5205"/>
<path id="path3263" d="m900.63 1809.2c0-8.2596 4.9219-12.592 11.327-12.592 3.3712 0 6.3378 0.8124 8.765 1.9633l0.53939-4.3329c-2.0227-1.0155-5.259-1.9634-8.8325-1.9634-10.114 0-17.732 6.1609-17.732 17.67 0 10.832 6.8772 16.451 15.979 16.451 4.0454 0 6.9446-0.4738 10.248-1.8956l-0.53938-4.3329c-2.8318 1.2864-5.8658 1.8956-8.6976 1.8956-6.5401 0-11.057-4.1298-11.057-12.863"/>
<path id="path3265" d="m953.2 1810.6c0.13484-1.2186 0.20227-2.2341 0.20227-3.2497 0-8.395-4.3825-15.098-12.81-15.098-9.1022 0-15.777 7.5826-15.777 17.67 0 11.103 6.6749 16.451 15.777 16.451 4.0454 0 7.0794-0.6092 10.248-1.8956l-0.53938-4.3329c-2.4947 1.2186-6.0681 1.8956-8.8999 1.8956-6.5401 0-10.788-3.9943-10.923-11.442h22.722m-13.08-14.014c4.9893 0 7.6863 4.1298 7.6863 9.5459h-17.058c0.80907-5.7546 3.978-9.5459 9.3718-9.5459"/>
</g>
<g fill-rule="evenodd" transform="matrix(1.003 0 0 1.003 -694.19 676.47)">
<path id="path2919" style="block-progression:tb;text-indent:0;color:#000000;text-transform:none" d="m746.52 1098.7c-0.75464-0.019-1.4981 0.4529-1.7931 1.1382-0.29499 0.6853-0.12281 1.5407 0.4153 2.0629l16.196 16.248c0.52235 0.5232 1.3729 0.6967 2.0627 0.4206 0.68985-0.276 1.1775-0.985 1.1827-1.7192v-16.278c0.002-0.9808-0.90388-1.8741-1.8982-1.8724l-16.17 0.1z"/>
<path id="path2921" style="block-progression:tb;text-indent:0;color:#000000;text-transform:none" d="m701.98 1098.7c-0.99608 0.014-1.8921 0.9251-1.8903 1.9213v74.157c-0.002 0.9961 0.89428 1.9067 1.8903 1.9212h60.677c1.0064 0 1.9229-0.9148 1.9213-1.9212v-47.754c0.003-0.504-0.20246-1.0061-0.5578-1.3635l-26.248-26.372c-0.35229-0.3665-0.85519-0.5837-1.3635-0.5888l-34.43 0.1z" fill="#fff"/>
<path id="path2923" style="block-progression:tb;text-indent:0;color:#000000;text-transform:none" d="m701.98 1098.7a1.9182 1.9182 0 0 0 -1.8903 1.9213v74.157a1.9182 1.9182 0 0 0 1.8903 1.9212h60.677a1.9182 1.9182 0 0 0 1.9213 -1.9212v-47.754a1.9182 1.9182 0 0 0 -0.5578 -1.3635l-26.248-26.372a1.9182 1.9182 0 0 0 -1.3635 -0.5888l-34.43 0.1zm1.9213 3.8426h31.702l25.132 25.256v45.058h-56.834l0.01-70.3z"/>
</g>
</g>
</g>
</svg>
