<svg xmlns:rdf="http://www.w3.org/1999/02/22-rdf-syntax-ns#" xmlns="http://www.w3.org/2000/svg" version="1.1" xmlns:cc="http://creativecommons.org/ns#" xmlns:xlink="http://www.w3.org/1999/xlink" viewBox="0 0 617.3 337.6" xmlns:dc="http://purl.org/dc/elements/1.1/">
<defs>
<linearGradient id="linearGradient4883" y2="267.8" xlink:href="#linearGradient3821" gradientUnits="userSpaceOnUse" x2="138.6" y1="239.4" x1="128.6"/>
<linearGradient id="linearGradient3821">
<stop stop-color="#3e3e3e" offset="0"/>
<stop stop-color="#3e3e3e" stop-opacity="0" offset="1"/>
</linearGradient>
<linearGradient id="linearGradient4885" y2="246.6" gradientUnits="userSpaceOnUse" x2="166.7" gradientTransform="translate(79.68 433.1)" y1="267.1" x1="173.7">
<stop stop-color="#c8c7c5" offset="0"/>
<stop stop-color="#c8c7c5" stop-opacity="0" offset="1"/>
</linearGradient>
<radialGradient id="radialGradient4891" xlink:href="#linearGradient4485" gradientUnits="userSpaceOnUse" cy="252.7" cx="197.6" gradientTransform="matrix(1.543 -.1032 .09131 1.365 -130.4 -95.01)" r="166.5"/>
<linearGradient id="linearGradient4485">
<stop stop-color="#fff" offset="0"/>
<stop stop-color="#fff" stop-opacity="0" offset="1"/>
</linearGradient>
<radialGradient id="radialGradient4897" xlink:href="#linearGradient4485" gradientUnits="userSpaceOnUse" cy="12" cx="135.6" gradientTransform="matrix(1.87 -.6430 .2566 .7465 -116.7 109.7)" r="161.7"/>
<linearGradient id="linearGradient4903" y2="151.6" xlink:href="#linearGradient3355" gradientUnits="userSpaceOnUse" x2="145.5" y1="168.6" x1="110.8"/>
<linearGradient id="linearGradient3355">
<stop stop-color="#005f61" offset="0"/>
<stop offset="1"/>
</linearGradient>
<mask id="mask3813" maskUnits="userSpaceOnUse">
<g filter="url(#filter3795)">
<path id="path3817" d="m17.75 121.5c-4.5-13 2.44-27.25 15.5-31.75l211.2-72.72c13.06-4.495 27.28 2.444 31.78 15.5l38.94 113.1c4.495 13.06-2.444 27.28-15.5 31.78l-211.1 72.7c-13.09 4.5-27.32-2.4-31.81-15.5l-38.94-113.1z" fill="#2f6962"/>
</g>
</mask>
<filter id="filter3795" color-interpolation-filters="sRGB">
<feGaussianBlur stdDeviation="4.575671"/>
</filter>
<linearGradient id="linearGradient4905" y2="-8.081" xlink:href="#linearGradient4001" gradientUnits="userSpaceOnUse" x2="270.6" gradientTransform="translate(79.68 435.1)" y1="100.3" x1="308.9"/>
<linearGradient id="linearGradient4001">
<stop stop-color="#005f61" offset="0"/>
<stop stop-color="#91c4b7" offset="1"/>
</linearGradient>
<radialGradient id="radialGradient4907" gradientUnits="userSpaceOnUse" cy="-6.509" cx="228.5" gradientTransform="matrix(1.548 -.1769 .1768 1.547 -50.19 473.9)" r="111.4">
<stop stop-color="#91c4b7" offset="0"/>
<stop stop-color="#005f61" offset="1"/>
</radialGradient>
<linearGradient id="linearGradient4909" y2="6.778" xlink:href="#linearGradient4001" gradientUnits="userSpaceOnUse" x2="397.3" gradientTransform="translate(79.68 435.1)" y1="165.5" x1="396.6"/>
<mask id="mask3913" maskUnits="userSpaceOnUse">
<path id="path3915" d="m95.11 61.78 149.5-51.47c15.67-5.394 32.74 2.933 38.13 18.6l39.8 115.6c5.394 15.67-2.932 32.74-18.6 38.13l-104 35.8-104.8-156.6z" fill="#2f6962"/>
</mask>
<filter id="filter3973" color-interpolation-filters="sRGB">
<feGaussianBlur stdDeviation="1.6345834"/>
</filter>
<linearGradient id="linearGradient4911" y2="275" gradientUnits="userSpaceOnUse" x2="227.7" gradientTransform="translate(79.68 435.1)" y1="217.9" x1="227.7">
<stop stop-color="#fff" offset="0"/>
<stop stop-color="#868686" offset="1"/>
</linearGradient>
<mask id="mask4481" maskUnits="userSpaceOnUse">
<path id="path4483" d="m214 236.8c-1.976 1.501-5.717 14.76-3.574 17.84 3.186 4.585 22.42-12.7 20.66-17.25-1.813-4.675-15.36-1.412-17.09-0.5942zm-9.629-7.347 2.489 3.782s0.6902 1.044 0.2963 3.403c-0.6156 3.69-3.175 13.26-3.326 21.12-0.0183 0.9498-0.9191 9.504 7.219 7.07 8.139-2.433 24.97-17.86 28.33-24.69 3.364-6.834-0.9648-10.64-6.216-10.99-5.251-0.3492-13.35 0.2196-17.07 0.848-3.723 0.6283-3.494-0.7582-6.677-4.351-0.239-0.2696-5.049 3.805-5.049 3.805z" fill-rule="evenodd" clip-rule="evenodd" fill="#aaa"/>
</mask>
<filter id="filter4475" width="1.357" y="-.1813" x="-.1787" height="1.363" color-interpolation-filters="sRGB">
<feGaussianBlur stdDeviation="1.0178857"/>
</filter>
<mask id="mask4168" maskUnits="userSpaceOnUse">
<path id="path4170" d="m113.1 36.66c17.23 36.62 75.37 131.7 105.4 171.1-4.069 13.5-18.43 20.81-30.3 17.44l-115.4-166.6c-0.02-12.39 22.95-26.64 40.3-21.94z" fill="#7c858c"/>
</mask>
<filter id="filter4127" color-interpolation-filters="sRGB">
<feGaussianBlur stdDeviation="1.2154263"/>
</filter>
<radialGradient id="radialGradient9472" gradientUnits="userSpaceOnUse" cx="143.6" cy="139.9" r="68.38" gradientTransform="matrix(1.337 .07830 -.1079 1.841 46.43 306.1)">
<stop stop-color="#fff" offset="0"/>
<stop stop-color="#fff" stop-opacity="0" offset="1"/>
</radialGradient>
</defs>
<g transform="translate(11.53 -255)">
<g transform="matrix(1.157 0 0 1.157 -99.99 -248.5)">
<g fill="#7c858c" transform="translate(79.68 435.1)">
<path id="path2645" d="m11 141.6c-6.289-18.3 3.42-38.2 21.7-44.47l216.7-74.62c18.28-6.293 38.2 3.422 44.49 21.7l43.58 126.6c6.293 18.28-3.421 38.19-21.7 44.49l-216.7 74.6c-18.31 6.3-38.23-3.5-44.52-21.7l-43.58-126.6z"/>
</g>
<g fill="url(#linearGradient4883)" transform="translate(79.68 435.1)">
<path id="path2651" d="m7.097 130.3c-6.294-18.3 3.423-38.22 21.7-44.52l216.7-74.61c18.28-6.293 38.19 3.422 44.49 21.7l43.58 126.6c6.293 18.28-3.421 38.19-21.7 44.49l-216.7 74.5c-18.32 6.3-38.23-3.4-44.53-21.7l-43.57-126.5z"/>
</g>
<path id="path2655" opacity=".7" d="m236.3 681.9 13.56-4.67 6.521 18.94-13.56 4.67-6.521-18.94zm25.04-8.622 13.56-4.67 6.521 18.94-13.56 4.67-6.521-18.94zm25.04-8.622 13.56-4.67 6.521 18.94-13.56 4.67-6.522-18.94zm25.04-8.623 13.56-4.67 6.521 18.94-13.56 4.67-6.521-18.94zm25.04-8.622 13.56-4.67 6.521 18.94-13.56 4.67-6.521-18.94zm-125.2 43.11 13.56-4.67 6.521 18.94-13.56 4.67-6.521-18.94z" fill-rule="evenodd" clip-rule="evenodd" fill="url(#linearGradient4885)"/>
<g fill="url(#radialGradient4891)" transform="translate(79.68 435.1)">
<path id="path2659" d="m2.568 124.5c-6.293-18.3 3.421-38.22 21.7-44.52l221.2-76.17c18.28-6.292 38.2 3.422 44.49 21.7l41.75 121.3c6.293 18.28-3.421 38.19-21.7 44.49l-221.3 76.1c-18.27 6.3-38.19-3.4-44.48-21.7l-41.75-121.2z"/>
</g>
<g fill="#7c858c" transform="translate(79.68 435.1)">
<path id="path2665" d="m1.917 122.6c-6.293-18.3 3.421-38.21 21.7-44.51l221.3-76.17c18.28-6.293 38.19 3.422 44.49 21.7l41.75 121.3c6.293 18.28-3.421 38.19-21.7 44.49l-221.3 76.1c-18.32 6.3-38.24-3.4-44.53-21.7l-41.75-121.2z"/>
</g>
<g opacity=".9" transform="translate(79.68 435.1)" fill="url(#radialGradient4897)">
<path id="path2671" d="m5.763 123.2c-6.113-17.8 3.323-37.13 21.08-43.24l216.5-74.54c17.76-6.113 37.1 3.324 43.22 21.08l38.79 112.6c6.113 17.76-3.323 37.1-21.08 43.22l-216.4 74.6c-17.79 6.1-37.14-3.3-43.25-21.1l-38.79-112.6z"/>
</g>
<g fill="#3e3e3e" transform="translate(79.68 435.1)">
<path id="path2677" d="m7.427 123.7c-5.934-17.2 3.223-35.97 20.45-41.9l215.9-74.34c17.23-5.933 36.01 3.226 41.95 20.46l39.77 115.5c5.934 17.23-3.226 36.01-20.46 41.94l-216 74.4c-17.19 5.9-35.97-3.2-41.9-20.5l-39.77-115.5z"/>
</g>
<g fill="url(#linearGradient4903)" transform="translate(79.68 435.1)">
<path id="path3801" d="m10.41 122.7c-5.39-15.7 2.94-32.77 18.6-38.17l215.6-74.22c15.67-5.394 32.74 2.933 38.13 18.6l39.8 115.6c5.394 15.67-2.932 32.74-18.6 38.13l-215.6 74.2c-15.67 5.394-32.74-2.933-38.13-18.6l-39.8-115.6z"/>
</g>
<g mask="url(#mask3813)" transform="translate(67.68 431.1)" fill="#3c857c">
<path id="path2683" d="m10.41 122.7c-5.39-15.7 2.94-32.77 18.6-38.17l215.6-74.22c15.67-5.394 32.74 2.933 38.13 18.6l39.8 115.6c5.394 15.67-2.932 32.74-18.6 38.13l-215.6 74.2c-15.67 5.394-32.74-2.933-38.13-18.6l-39.8-115.6z"/>
</g>
<g transform="translate(79.68 435.1)">
<path id="path2697" d="m30 102.1c-1.771-7.695 2.602-9.355 2.672-9.379 1.371-0.472 6.183-1.554 7.316 1.737 1.025 2.977-4.531 7.82-9.583 9.56-5.015 1.727-12.47 1.364-13.49-1.613-1.133-3.291 3.325-5.401 4.696-5.873 0.069-0.024 4.342-2.237 7.88 5.746 0.13 0.293 0.571 0.074 0.513-0.178z" fill-rule="evenodd" clip-rule="evenodd" fill="#ffe600"/>
<path id="path2699" d="m32.87 154.3c7.274 17.05 17.31 28.32 23.92 26.04 6.602-2.273 7.575-17.33 2.812-35.25-0.367-3.303-0.911-9.542-0.275-13.13 0.464-2.615-0.112-3.379-2.212-1.079-0.634 0.694-1.14 1.345-1.514 2.022-7.335-18.7-18.16-31.44-25.14-29.04-6.982 2.404-7.669 19.11-1.934 38.36-0.712-0.304-1.51-0.505-2.438-0.662-3.071-0.52-3.054 0.437-1.079 2.212 2.709 2.435 6.121 7.686 7.865 10.52z"/>
<path id="path2701" d="m30.62 139.5c5.498 15.97 14.8 27.24 20.77 25.19 5.971-2.056 6.355-16.67 0.857-32.63-5.498-15.97-14.8-27.24-20.77-25.19-5.971 2.056-6.354 16.66-0.857 32.63zm23.2 28.56c0.536 1.558 1.515 2.634 2.186 2.403s0.78-1.681 0.243-3.239c-0.536-1.558-1.515-2.633-2.186-2.403-0.67 0.231-0.779 1.682-0.243 3.239zm-4.7 1.619c0.536 1.558 1.515 2.634 2.186 2.403 0.67-0.231 0.779-1.681 0.243-3.239s-1.515-2.634-2.186-2.402c-0.671 0.23-0.78 1.68-0.243 3.238z" fill-rule="evenodd" clip-rule="evenodd" fill="#fff"/>
<g fill="#ffe600">
<ellipse cx="50.87" cy="163.3" rx="4.428" ry="2.142" transform="matrix(-.9455 .3255 -.3255 -.9455 152.1 301.2)"/>
</g>
<path id="path2711" d="m64.28 90.31c-1.771-7.695 2.603-9.355 2.672-9.379 1.371-0.472 6.183-1.554 7.316 1.737 1.025 2.978-4.531 7.82-9.583 9.56-5.015 1.727-12.47 1.364-13.49-1.613-1.133-3.291 3.325-5.401 4.696-5.873 0.07-0.024 4.342-2.237 7.88 5.746 0.13 0.292 0.572 0.074 0.513-0.178z" fill-rule="evenodd" clip-rule="evenodd" fill="#ffe600"/>
<path id="path2713" d="m67.15 142.5c7.274 17.05 17.31 28.32 23.92 26.04 6.602-2.273 7.575-17.33 2.812-35.25-0.367-3.303-0.911-9.542-0.275-13.13 0.464-2.615-0.112-3.379-2.212-1.079-0.634 0.694-1.139 1.345-1.514 2.022-7.334-18.7-18.16-31.44-25.14-29.04-6.982 2.404-7.669 19.11-1.934 38.36-0.712-0.304-1.51-0.505-2.438-0.662-3.071-0.52-3.054 0.437-1.079 2.211 2.709 2.436 6.121 7.687 7.865 10.52z"/>
<path id="path2715" d="m64.9 127.7c5.498 15.97 14.8 27.24 20.77 25.19 5.971-2.056 6.355-16.67 0.857-32.63-5.498-15.97-14.8-27.24-20.77-25.19-5.971 2.056-6.355 16.67-0.857 32.63zm23.2 28.56c0.536 1.558 1.515 2.633 2.186 2.402s0.779-1.681 0.243-3.239c-0.537-1.558-1.515-2.633-2.186-2.402s-0.779 1.681-0.243 3.239zm-4.7 1.619c0.536 1.558 1.515 2.633 2.185 2.402s0.78-1.681 0.243-3.239c-0.536-1.558-1.515-2.633-2.186-2.402s-0.779 1.681-0.242 3.239z" fill-rule="evenodd" clip-rule="evenodd" fill="#fff"/>
<g fill="#ffe600">
<ellipse cx="85.15" cy="151.5" rx="4.428" ry="2.142" transform="matrix(-.9455 .3255 -.3255 -.9455 215 267.1)"/>
</g>
<path id="path2725" d="m98.56 78.5c-1.771-7.694 2.602-9.355 2.672-9.379 1.371-0.472 6.183-1.554 7.316 1.736 1.025 2.978-4.531 7.82-9.583 9.56-5.015 1.727-12.47 1.364-13.49-1.613-1.133-3.291 3.325-5.401 4.696-5.873 0.069-0.024 4.342-2.237 7.88 5.746 0.13 0.293 0.572 0.075 0.513-0.177z" fill-rule="evenodd" clip-rule="evenodd" fill="#ffe600"/>
<path id="path2727" d="m101.4 130.7c7.274 17.05 17.31 28.32 23.92 26.04 6.602-2.274 7.576-17.33 2.812-35.25-0.367-3.303-0.911-9.542-0.275-13.13 0.464-2.615-0.112-3.379-2.212-1.079-0.634 0.695-1.139 1.345-1.514 2.022-7.3-18.69-18.1-31.43-25.08-29.03-6.982 2.404-7.669 19.11-1.934 38.36-0.712-0.303-1.51-0.504-2.438-0.662-3.071-0.52-3.054 0.437-1.079 2.212 2.709 2.435 6.121 7.686 7.865 10.52z"/>
<path id="path2729" d="m99.19 115.9c5.498 15.97 14.8 27.24 20.77 25.19 5.971-2.056 6.355-16.67 0.857-32.63-5.498-15.97-14.8-27.24-20.77-25.19-5.971 2.056-6.355 16.66-0.857 32.63zm23.2 28.56c0.536 1.558 1.515 2.633 2.186 2.403 0.67-0.231 0.779-1.681 0.243-3.239s-1.515-2.634-2.185-2.403c-0.671 0.232-0.78 1.682-0.244 3.239zm-4.701 1.619c0.536 1.558 1.515 2.633 2.186 2.402 0.671-0.23 0.78-1.681 0.243-3.239-0.536-1.558-1.515-2.633-2.185-2.402-0.671 0.231-0.78 1.681-0.244 3.239z" fill-rule="evenodd" clip-rule="evenodd" fill="#fff"/>
<g fill="#ffe600">
<ellipse cx="119.4" cy="139.7" rx="4.428" ry="2.142" transform="matrix(-.9455 .3255 -.3255 -.9455 277.8 232.9)"/>
</g>
</g>
<g transform="translate(79.68 435.1)">
<path id="path2741" d="m96.58 239c3.342 7.154 7.811 5.77 7.88 5.746 1.371-0.472 5.829-2.583 4.696-5.873-1.025-2.977-8.385-3.373-13.44-1.633-5.015 1.727-10.66 6.602-9.64 9.579 1.133 3.291 5.946 2.208 7.316 1.736 0.07-0.023 4.799-0.91 2.672-9.379-0.078-0.31 0.403-0.41 0.513-0.176z" fill-rule="evenodd" clip-rule="evenodd" fill="#ffe600"/>
<path id="path2743" d="m66.7 196.1c-4.764-17.91-3.791-32.97 2.812-35.25 6.602-2.273 16.64 8.995 23.92 26.04 1.744 2.829 5.156 8.08 7.865 10.51 1.976 1.775 1.992 2.732-1.079 2.212-0.927-0.157-1.726-0.358-2.438-0.662 5.735 19.25 5.048 35.96-1.934 38.36-6.982 2.404-17.81-10.33-25.14-29.04-0.374 0.677-0.88 1.328-1.514 2.022-2.1 2.3-2.675 1.536-2.212-1.079 0.637-3.583 0.093-9.822-0.274-13.12z"/>
<path id="path2745" d="m74.05 209.1c-5.498-15.97-5.114-30.58 0.857-32.63 5.971-2.056 15.27 9.22 20.77 25.19 5.498 15.97 5.114 30.58-0.857 32.63-5.971 2.054-15.27-9.222-20.77-25.19zm0.699-36.78c-0.536-1.558-0.428-3.008 0.243-3.239 0.67-0.231 1.649 0.845 2.185 2.403 0.537 1.558 0.427 3.008-0.243 3.239s-1.649-0.845-2.185-2.403zm-4.701 1.619c-0.536-1.558-0.427-3.008 0.243-3.239s1.649 0.845 2.186 2.403c0.536 1.558 0.427 3.008-0.243 3.239s-1.65-0.845-2.186-2.403z" fill-rule="evenodd" clip-rule="evenodd" fill="#fff"/>
<g fill="#ffe600">
<ellipse cx="75.36" cy="178" rx="4.428" ry="2.142" transform="matrix(-.9455 .3255 -.3255 -.9455 204.6 321.7)"/>
</g>
<path id="path2755" d="m130.9 227.2c3.341 7.154 7.81 5.77 7.88 5.746 1.371-0.472 5.829-2.582 4.696-5.873-1.025-2.977-8.385-3.373-13.44-1.633-5.015 1.727-10.66 6.602-9.64 9.579 1.133 3.291 5.946 2.208 7.316 1.737 0.069-0.024 4.799-0.91 2.672-9.379-0.078-0.312 0.404-0.412 0.513-0.177z" fill-rule="evenodd" clip-rule="evenodd" fill="#ffe600"/>
<path id="path2757" d="m101 184.3c-4.764-17.91-3.791-32.97 2.812-35.25 6.602-2.273 16.64 8.995 23.92 26.04 1.745 2.829 5.157 8.08 7.865 10.51 1.976 1.775 1.993 2.732-1.079 2.212-0.927-0.157-1.726-0.358-2.438-0.662 5.736 19.25 5.048 35.96-1.934 38.36-6.981 2.404-17.81-10.33-25.14-29.04-0.374 0.678-0.879 1.328-1.513 2.022-2.1 2.301-2.676 1.537-2.212-1.079 0.636-3.584 0.092-9.822-0.275-13.12z"/>
<path id="path2759" d="m108.3 197.3c-5.498-15.97-5.114-30.58 0.857-32.63 5.971-2.056 15.27 9.22 20.77 25.19 5.498 15.97 5.114 30.58-0.857 32.63-5.971 2.056-15.27-9.22-20.77-25.19zm0.699-36.78c-0.536-1.558-0.428-3.008 0.243-3.239s1.649 0.845 2.186 2.402c0.536 1.558 0.427 3.008-0.243 3.239-0.671 0.231-1.65-0.845-2.186-2.402zm-4.701 1.618c-0.536-1.558-0.427-3.008 0.243-3.239s1.649 0.845 2.185 2.402 0.428 3.008-0.243 3.239-1.649-0.844-2.185-2.402z" fill-rule="evenodd" clip-rule="evenodd" fill="#fff"/>
<g fill="#ffe600">
<ellipse cx="109.6" cy="166.2" rx="4.428" ry="2.142" transform="matrix(-.9455 .3255 -.3255 -.9455 267.4 287.6)"/>
</g>
<path id="path2769" d="m165.1 215.4c3.342 7.154 7.811 5.77 7.88 5.746 1.371-0.472 5.829-2.582 4.696-5.873-1.025-2.977-8.385-3.372-13.44-1.633-5.015 1.727-10.66 6.602-9.64 9.579 1.133 3.291 5.945 2.208 7.316 1.737 0.069-0.024 4.799-0.91 2.672-9.379-0.078-0.311 0.404-0.411 0.514-0.177z" fill-rule="evenodd" clip-rule="evenodd" fill="#ffe600"/>
<path id="path2771" d="m135.3 172.5c-4.764-17.91-3.791-32.97 2.812-35.25 6.603-2.273 16.64 8.995 23.92 26.04 1.744 2.829 5.156 8.08 7.865 10.51 1.975 1.775 1.992 2.731-1.079 2.212-0.927-0.157-1.726-0.358-2.438-0.662 5.735 19.25 5.048 35.96-1.934 38.36-6.982 2.404-17.81-10.33-25.14-29.04-0.374 0.678-0.88 1.328-1.514 2.022-2.1 2.301-2.676 1.537-2.212-1.079 0.636-3.584 0.092-9.823-0.275-13.13z"/>
<path id="path2773" d="m142.6 185.5c-5.498-15.97-5.114-30.58 0.857-32.63 5.971-2.056 15.27 9.221 20.77 25.19 5.497 15.97 5.114 30.58-0.857 32.63-5.971 2.056-15.27-9.22-20.77-25.19zm0.699-36.78c-0.537-1.558-0.428-3.008 0.243-3.239s1.649 0.845 2.186 2.402c0.537 1.558 0.428 3.008-0.243 3.239s-1.65-0.844-2.186-2.402zm-4.701 1.619c-0.536-1.558-0.427-3.008 0.243-3.239 0.671-0.231 1.649 0.845 2.186 2.402 0.537 1.558 0.428 3.008-0.243 3.239s-1.65-0.845-2.186-2.402z" fill-rule="evenodd" clip-rule="evenodd" fill="#fff"/>
<g fill="#ffe600">
<ellipse cx="143.9" cy="154.4" rx="4.429" ry="2.142" transform="matrix(-.9455 .3256 -.3256 -.9455 330.3 253.5)"/>
</g>
</g>
<path id="path2781" fill="url(#linearGradient4905)" d="m174.8 496.9 149.5-51.47c15.67-5.394 32.74 2.933 38.13 18.6l39.8 115.6c5.394 15.67-2.932 32.74-18.6 38.13l-104 35.8-104.8-156.6z"/>
<path id="path2783" fill="url(#radialGradient4907)" d="m177 500.1 149.1-51.33c13.36-4.601 27.92 2.502 32.52 15.86l39.86 115.8c4.602 13.36-2.5 27.92-15.86 32.52l-105.7 36.4-99.87-149.2z"/>
<path id="path2785" d="m369.5 564.9c0 12.98-2.517 16.03-7.42 16.03-3.71 0-6.094-1.327-8.614-3.314v-26.64c2.52-1.988 5.037-3.312 8.482-3.312 5.035 0 7.552 3.312 7.552 17.23zm23.59-0.797c0-25.84-10.07-36.04-23.19-36.04-7.289 0-11.66 2.648-16.43 6.359v-31.94l-23.85 9.542v87.06h23.85v-4.638c3.844 2.916 8.614 6.096 15.5 6.096 15.24 0 24.12-11.53 24.12-36.44zm-73.64 34.98v-69.57h-23.85v69.57h23.85v0.001zm1.987-86.4c0-6.759-5.698-11.53-13.91-11.53-7.819 0-13.65 4.77-13.65 11.53 0 7.287 5.829 11.79 13.65 11.79 8.216 0 13.91-4.505 13.91-11.79zm-39 86.4v-96.6l-23.85 9.542v87.06h23.85z" fill-rule="evenodd" clip-rule="evenodd" fill="#fff"/>
<path id="path2787" d="m469 529.6h-25.18l-6.361 25.57c-1.456 5.832-3.444 14.18-4.372 20.8-0.795-6.626-2.782-14.97-4.24-20.8l-6.229-25.57h-25.31l24.12 69.57h23.45l24.12-69.57zm31.35-16.83c0-6.759-5.698-11.53-13.91-11.53-7.819 0-13.65 4.77-13.65 11.53 0 7.287 5.83 11.79 13.65 11.79 8.215 0 13.91-4.505 13.91-11.79zm-1.988 86.4v-69.57h-23.85v69.57h23.85v0.001zm58.66-68.11c-2.782-1.721-6.228-2.914-11.26-2.914-6.096 0-10.73 2.517-14.84 6.492v-5.035h-23.85v69.57h23.85v-37.9c0-8.482 3.579-11.26 9.41-11.26 4.636 0 8.082 2.517 11.13 5.832l5.564-24.78zm52.95 45.58c-3.71 2.517-6.361 3.71-9.542 3.71-3.975 0-5.963-1.591-5.963-6.891v-25.18h15.11v-18.68h-15.11v-27.03l-23.19 9.408v17.62h-10.6v18.68h10.6v30.21c0 15.77 5.832 22.13 18.42 22.13 6.758 0 12.59-1.458 17.23-3.71l3.048-20.27z" fill-rule="evenodd" clip-rule="evenodd" fill="url(#linearGradient4909)"/>
<path id="path2789" d="m127.1 43.55c17.23 36.62 72.86 128.9 102.9 168.3-2.858 14.11-18.67 23.31-29.81 18.79l-115.4-166.6c-0.07-12.35 22.06-27.27 42.29-20.48z" mask="url(#mask3913)" transform="translate(77.68 435.1)" filter="url(#filter3973)" fill="#25514b"/>
<path id="path2795" d="m298 676.3c-2.9 1.834-8.917 18.76-6.01 22.86 4.325 6.093 32.7-15.21 30.4-21.18-2.356-6.136-21.88-2.64-24.4-1.675zm-14.34-9.677 3.368 5.018s0.934 1.385 0.252 4.412c-1.066 4.734-5.207 16.96-5.819 27.11-0.074 1.226-1.793 12.23 9.964 9.517 11.76-2.711 36.59-21.74 41.75-30.4 5.153-8.65-0.843-13.8-8.332-14.52-7.489-0.73-19.09-0.425-24.44 0.189-5.354 0.614-4.956-1.165-9.326-5.975-0.327-0.361-7.41 4.647-7.41 4.647z" fill-rule="evenodd" clip-rule="evenodd" fill="#3e3e3e"/>
<path id="path2797" d="m296.2 673.6c-2.9 1.834-8.917 18.76-6.009 22.86 4.324 6.092 32.7-15.21 30.4-21.18-2.356-6.136-21.88-2.64-24.4-1.675zm-13.39-10 3.368 5.018s0.934 1.385 0.252 4.412c-1.066 4.734-5.207 16.96-5.819 27.11-0.074 1.226-1.793 12.23 9.964 9.517 11.76-2.711 36.59-21.74 41.75-30.4 5.153-8.65-0.843-13.8-8.332-14.52-7.489-0.73-19.09-0.425-24.44 0.189-5.354 0.614-4.956-1.165-9.326-5.975-0.328-0.361-7.41 4.647-7.41 4.647z" fill-rule="evenodd" clip-rule="evenodd" fill="url(#linearGradient4911)"/>
<path id="path2799" d="m214.8 227.9c-2.797 3.296-6.24 5.845-9.926 7.474 0.432-2.596-0.374-3.792-0.374-3.792l-3.368-5.018s7.083-5.008 7.41-4.647c3.294 3.624 3.879 5.527 6.258 5.983z" mask="url(#mask4481)" transform="matrix(1.43 .05311 -.05041 1.292 2.244 356.3)" filter="url(#filter4475)" fill="#54575a"/>
<path id="path2803" fill="#c8c7c5" d="m195.7 480.7c17.23 36.62 72.86 128.9 102.9 168.3-2.858 14.11-18.67 23.31-29.81 18.79l-115.3-166.6c-0.07-12.35 22.06-27.27 42.29-20.48z"/>
<path id="path2805" fill="#7c858c" d="m192.8 479.8c17.23 36.62 75.37 131.7 105.4 171.1-4.069 13.5-18.43 20.81-30.3 17.44l-115.3-166.6c-0.07-12.35 22.9-26.6 40.28-21.89z"/>
<path id="path2807" d="m192.1 225.9-118.6-171.2c3.174-9.061 16.87-17.99 30.22-18.88 22.16 44.22 78.16 134.4 111.8 178.2-5.194 8.137-14.62 12.65-23.47 11.85z" mask="url(#mask4168)" transform="translate(79.68 443.1)" filter="url(#filter4127)" fill="#c8c7c5"/>
<path id="path2809" d="m283.6 667-123.5-178.4c3.583-3.084 8.164-5.73 13.12-7.479 6.902 12.48 25.22 44.61 54.34 88.54 22.71 34.27 46.08 68.02 64.14 91.97-2.35 2.316-5.102 4.145-8.047 5.413zm-3.597 1.245c-1.392 0.368-2.805 0.615-4.223 0.733l-120.9-174.6c0.699-1.099 1.537-2.181 2.494-3.23l122.6 177.1z" fill-rule="evenodd" clip-rule="evenodd" fill="url(#radialGradient9472)"/>
</g>
</g>
</svg>
