<svg xmlns:rdf="http://www.w3.org/1999/02/22-rdf-syntax-ns#" xmlns="http://www.w3.org/2000/svg" xml:space="preserve" viewBox="0 0 960 320" version="1.1" xmlns:cc="http://creativecommons.org/ns#" xmlns:dc="http://purl.org/dc/elements/1.1/"><g transform="matrix(1.25 0 0 -1.25 -50.4 562.47)"><g transform="translate(17.16 16.02)"><path id="path22" d="m322.54 242.58v3.8711h22.535v56.174h4.668v-56.174h22.539v-3.8711h-49.742zm65.328 0v60.045h4.6621v-28.438h40.059v28.438h4.6699v-60.045h-4.6699v27.729h-40.059v-27.729h-4.6621zm71.666 0v60.045h33.451v-3.8789h-28.789v-24.385h27.383v-3.8711h-27.383v-24.039h28.086v-3.8711h-32.748zm-130.09 77.637v121.52h92.652v-29.035h-55.953v-92.484h-36.699zm114.12 0v121.52h36.559v-121.52h-36.559zm67.74 0v121.52h36.158v-67.906l63.348 67.906h32.555v-121.52h-36.312v68.012l-62.764-68.012h-32.984zm161.32 0v68.379c0 32.139 22.447 54.502 64.195 54.502 41.752 0 64.199-22.363 64.199-54.502v-68.379h-36.338v58.945c0 19.736-8.4713 33.887-27.861 33.887s-27.861-14.15-27.861-33.887v-58.945h-36.334zm145.55 0 48.643 58.623-51.494 62.896h46.66l28.471-36.197 28.928 36.197h48.109l-53.627-62.896 47.162-58.623h-46.1l-24.473 32.393-25.742-32.393h-46.537zm-411.3 140.68c-17.784 0-31.695 13.552-31.695 30.809 0 17.256 13.912 30.816 31.695 30.816 17.871 0 31.871-13.56 31.871-30.816s-14-30.809-31.871-30.809zm451.74 0c-17.782 0-31.693 13.552-31.693 30.809 0 17.256 13.911 30.816 31.693 30.816 17.871 0 31.871-13.56 31.871-30.816s-14-30.809-31.871-30.809zm-156.62 0.35156-27.73 60.482h4.8379l9.5137-20.775h29.316l9.5059 20.775h4.8438l-27.734-60.482h-2.5527zm-372.94 0.4375v60.045h4.668v-29.496h23.684v-3.873h-23.684v-22.803h26.236v-3.873h-30.904zm129.68 0v33.809c0 18.048 11.533 27.027 25.092 27.027 12.236 0 25.182-7.4859 25.182-28.086v-32.75h-4.668v33.014c0 17.08-10.299 23.51-20.514 23.51-10.741 0-20.424-7.1324-20.424-22.889v-33.635h-4.668zm72.637 0v60.045h4.6621v-52.477l45.605 52.477h3.8789v-60.045h-4.668v52.471l-45.518-52.471h-3.9609zm77.916 0v60.045h21.83c23.775 0 31.963-16.114 31.963-30.025 0-13.202-7.2227-30.02-32.754-30.02h-21.039zm124.84 0v3.873h22.539v56.172h4.6621v-56.172h22.539v-3.873h-49.74zm66.908 0v60.045h4.668v-60.045h-4.668zm110.67 0v60.045h4.6641v-52.477l45.605 52.477h3.877v-60.045h-4.668v52.471l-45.518-52.471h-3.9609zm-504.65 3.5215c15.054 0 26.674 11.532 26.674 26.498 0 14.971-11.62 26.504-26.674 26.504s-26.85-11.533-26.85-26.504c0-14.966 11.796-26.498 26.85-26.498zm451.74 0c15.054 0 26.68 11.532 26.68 26.498 0 14.971-11.626 26.504-26.68 26.504s-26.85-11.533-26.85-26.504c0-14.966 11.796-26.498 26.85-26.498zm-244.84 0.35157h16.641c16.289 0 27.471 10.741 27.471 26.146 0 16.905-12.77 26.148-27.207 26.148h-16.904v-52.295zm89.277 3.2578 12.939 28.262h-25.795l12.855-28.262z" transform="matrix(.8 0 0 -.8 0 612)" fill="#0d3a63"/><path id="path164" d="m124.59 255.95h-35.742c-6.25 0-11.321 5.067-11.321 11.32v74.731h-37.207v-111.94c0-6.25 5.067-11.316 11.321-11.316h72.949v37.207z" fill="#6dbcea"/><path id="path174" d="m208.86 398.6h-157.21c-6.254 0-11.321-5.071-11.321-11.321v-36.472h37.235c0.386 5.953 5.328 10.582 11.293 10.586h82.8c6.25 0 11.321-5.071 11.321-11.321v-82.801c0-6.253-5.071-11.32-11.321-11.32h-38.257v-37.207h75.464c6.254 0 11.321 5.066 11.321 11.316v157.22c0 6.25-5.067 11.321-11.321 11.321z" fill="#0d3a63"/></g></g></svg>
