<svg xmlns:rdf="http://www.w3.org/1999/02/22-rdf-syntax-ns#" xmlns="http://www.w3.org/2000/svg" version="1.1" xmlns:cc="http://creativecommons.org/ns#" xmlns:xlink="http://www.w3.org/1999/xlink" viewBox="0 0 280 330" xmlns:dc="http://purl.org/dc/elements/1.1/">
<title>Tux</title>
<defs>
<radialGradient id="radialGradient29032" gradientUnits="userSpaceOnUse" cx="223.2" cy="137.7" r="14.57" gradientTransform="matrix(1.086 -.03431 .03944 1.248 -154.5 -26.54)">
<stop stop-color="#fefefc" offset="0"/>
<stop stop-color="#fefefc" offset=".7573"/>
<stop stop-color="#d4d4d4" offset="1"/>
</radialGradient>
<radialGradient id="radialGradient29648" gradientUnits="userSpaceOnUse" cx="223.2" cy="137.7" r="14.57" gradientTransform="matrix(.8152 -.03431 .02961 1.248 -129.4 -26.54)">
<stop stop-color="#fefefc" offset="0"/>
<stop stop-color="#fefefc" offset=".7573"/>
<stop stop-color="#d4d4d4" offset="1"/>
</radialGradient>
<linearGradient id="linearGradient14392-7">
<stop stop-color="#3e2a06" offset="0"/>
<stop stop-color="#ad780a" offset="1"/>
</linearGradient>
<linearGradient id="linearGradient14477" y2="293.6" xlink:href="#linearGradient14392-7" gradientUnits="userSpaceOnUse" x2="490.1" gradientTransform="matrix(.8749 0 0 .8115 60.37 62.59)" y1="371.5" x1="442"/>
<linearGradient id="linearGradient14485" y2="293.6" xlink:href="#linearGradient14392-7" gradientUnits="userSpaceOnUse" x2="490.1" gradientTransform="translate(4e-6,9.6185359e-6)" y1="371.5" x1="442"/>
<filter id="filter14148-8" height="1.217" width="1.215" color-interpolation-filters="sRGB" y="-.1085" x="-.1075">
<feGaussianBlur stdDeviation="3.9237191"/>
</filter>
<filter id="filter14140-3" color-interpolation-filters="sRGB">
<feGaussianBlur stdDeviation="2.4365744"/>
</filter>
<filter id="filter14176-5" color-interpolation-filters="sRGB">
<feGaussianBlur stdDeviation="0.3702557"/>
</filter>
<clipPath id="clipPath15031-3" clipPathUnits="userSpaceOnUse">
<path id="path15033-2" d="m248.1 184.6c-2.601 3.44-5.233 6.856-7.897 10.25-2.833 3.607-5.701 7.187-8.587 10.75-3.541 4.374-7.152 8.793-9.449 13.93-1.974 4.414-2.91 9.207-4.265 13.85-1.539 5.272-3.626 10.37-5.971 15.34-2.165 4.585-4.55 9.063-6.939 13.54-1.738 3.254-3.505 6.581-4.108 10.22-0.4763 2.876-0.1985 5.844 0.5338 8.666 0.7322 2.822 1.91 5.511 3.238 8.106 5.667 11.08 14.17 20.62 24.24 27.92 4.571 3.314 9.467 6.181 14.6 8.526 2.782 1.27 5.714 2.404 8.772 2.457 1.529 0.0265 3.074-0.2254 4.474-0.8406 1.4-0.6151 2.651-1.604 3.483-2.887 1.023-1.578 1.37-3.538 1.165-5.407-0.2053-1.869-0.9348-3.653-1.913-5.259-2.39-3.923-6.165-6.761-9.796-9.573-7.841-6.074-15.42-12.48-22.68-19.24-2.049-1.909-4.098-3.878-5.53-6.284-1.394-2.344-2.148-5.014-2.658-7.693-1.4-7.349-1.04-15.08 1.46-22.13 0.978-2.758 2.271-5.392 3.518-8.04 2.162-4.589 4.211-9.263 7.049-13.47 3.533-5.233 8.245-9.673 11.15-15.28 2.455-4.734 3.494-10.06 4.362-15.32 0.6653-4.031 1.248-8.075 1.746-12.13" stroke="#729fcf" stroke-width=".125" fill="none"/>
</clipPath>
<filter id="filter15053-7" height="1.085" width="1.202" color-interpolation-filters="sRGB" y="-.04267" x="-.1010">
<feGaussianBlur stdDeviation="1.1322032"/>
</filter>
<clipPath id="clipPath14822-9" clipPathUnits="userSpaceOnUse">
<path id="path14824-1" d="m386.2 285.3c-0.4052-1.104-1.118-2.082-1.991-2.87-0.8723-0.7883-1.9-1.392-2.983-1.852-2.165-0.9185-4.521-1.261-6.832-1.696-2.179-0.4093-4.342-0.9063-6.528-1.277-2.271-0.3855-4.618-0.6321-6.865-0.1253-1.966 0.4433-3.784 1.459-5.272 2.819-1.487 1.36-2.649 3.056-3.485 4.89-1.472 3.23-1.935 6.865-1.654 10.4 0.2088 2.633 0.8753 5.346 2.609 7.339 1.401 1.611 3.387 2.615 5.434 3.221 3.525 1.043 7.367 0.9882 10.86-0.1553 5.767-1.931 10.88-5.774 14.33-10.78 1.139-1.65 2.112-3.448 2.553-5.403 0.336-1.49 0.3483-3.081-0.1779-4.515" stroke="#ce5c00" stroke-width="1px" fill="none"/>
</clipPath>
<filter id="filter14812-5" height="1.301" width="1.141" color-interpolation-filters="sRGB" y="-.1506" x="-.07046">
<feGaussianBlur stdDeviation="1.0252435"/>
</filter>
<clipPath id="clipPath14822-2-4" clipPathUnits="userSpaceOnUse">
<path id="path14824-6-5" d="m386.2 285.3c-0.4052-1.104-1.118-2.082-1.991-2.87-0.8723-0.7883-1.9-1.392-2.983-1.852-2.165-0.9185-4.521-1.261-6.832-1.696-2.179-0.4093-4.342-0.9063-6.528-1.277-2.271-0.3855-4.618-0.6321-6.865-0.1253-1.966 0.4433-3.784 1.459-5.272 2.819-1.487 1.36-2.649 3.056-3.485 4.89-1.472 3.23-1.935 6.865-1.654 10.4 0.2088 2.633 0.8753 5.346 2.609 7.339 1.401 1.611 3.387 2.615 5.434 3.221 3.525 1.043 7.367 0.9882 10.86-0.1553 5.767-1.931 10.88-5.774 14.33-10.78 1.139-1.65 2.112-3.448 2.553-5.403 0.336-1.49 0.3483-3.081-0.1779-4.515" stroke="#ce5c00" stroke-width="1px" fill="none"/>
</clipPath>
<filter id="filter14812-0-9" width="1.141" y="-.1506" x="-.07046" height="1.301" color-interpolation-filters="sRGB">
<feGaussianBlur stdDeviation="1.0252435"/>
</filter>
<filter id="filter14897-2" height="1.468" width="1.401" color-interpolation-filters="sRGB" y="-.2341" x="-.2005">
<feGaussianBlur stdDeviation="2.8444356"/>
</filter>
<filter id="filter14951-8" height="1.213" width="1.183" color-interpolation-filters="sRGB" y="-.1067" x="-.09141">
<feGaussianBlur stdDeviation="1.2967831"/>
</filter>
<filter id="filter15211-9" width="1.939" y="-.2737" x="-.4693" height="1.547" color-interpolation-filters="sRGB">
<feGaussianBlur stdDeviation="0.85991809"/>
</filter>
<filter id="filter14706-3" height="1.965" width="2.208" color-interpolation-filters="sRGB" y="-.4823" x="-.6039">
<feGaussianBlur stdDeviation="2.6400036"/>
</filter>
<clipPath id="clipPath14489-3" clipPathUnits="userSpaceOnUse">
<path id="path14491-6" d="m516 331.9c-0.6714 1.719-1.627 3.327-2.816 4.738-2.624 3.115-6.268 5.17-9.896 7.02-6.189 3.154-12.6 5.922-18.42 9.717-3.898 2.542-7.496 5.527-10.86 8.742-2.877 2.75-5.606 5.687-8.832 8.018-3.256 2.351-7.019 4.054-10.99 4.65-4.83 0.7248-9.821-0.2129-14.3-2.164-3.138-1.367-6.156-3.323-7.963-6.229-1.814-2.918-2.228-6.488-2.233-9.924-0.008-6.077 1.118-12.09 2.178-18.07 0.881-4.972 1.719-9.955 2.26-14.98 0.9834-9.131 0.9763-18.35 0.3199-27.51-0.1099-1.534-0.2375-3.083-0.008-4.604 0.2292-1.521 0.8548-3.037 2.021-4.04 1.077-0.9266 2.521-1.336 3.939-1.414 1.419-0.0785 2.834 0.1466 4.24 0.352 3.313 0.484 6.652 0.8649 9.889 1.717 2.043 0.5374 4.033 1.259 6.072 1.811 3.403 0.9204 6.966 1.361 10.47 0.9519 3.769-0.4409 7.43-1.857 11.22-1.765 1.557 0.0378 3.102 0.3317 4.586 0.7998 1.515 0.4777 3.009 1.162 4.123 2.295 0.8464 0.8613 1.436 1.945 1.879 3.069 0.6598 1.674 1.015 3.457 1.167 5.249 0.1348 1.588 0.1134 3.194 0.4143 4.759 0.495 2.575 1.847 4.923 3.528 6.935s3.69 3.72 5.696 5.408c1.999 1.681 4.011 3.355 6.167 4.828 1.012 0.6916 2.056 1.339 3.017 2.101 0.9609 0.7611 1.845 1.647 2.445 2.715 0.8149 1.449 1.064 3.208 0.6831 4.826h0.00002" fill="url(#linearGradient14485)"/>
</clipPath>
<clipPath id="clipPath14481-1" clipPathUnits="userSpaceOnUse">
<path id="path14483-3" d="m516 331.9c-0.6714 1.719-1.627 3.327-2.816 4.738-2.624 3.115-6.268 5.17-9.896 7.02-6.189 3.154-12.6 5.922-18.42 9.717-3.898 2.542-7.496 5.527-10.86 8.742-2.877 2.75-5.606 5.687-8.832 8.018-3.256 2.351-7.019 4.054-10.99 4.65-4.83 0.7248-9.821-0.2129-14.3-2.164-3.138-1.367-6.156-3.323-7.963-6.229-1.814-2.918-2.228-6.488-2.233-9.924-0.008-6.077 1.118-12.09 2.178-18.07 0.881-4.972 1.719-9.955 2.26-14.98 0.9834-9.131 0.9763-18.35 0.3199-27.51-0.1099-1.534-0.2375-3.083-0.008-4.604 0.2292-1.521 0.8548-3.037 2.021-4.04 1.077-0.9266 2.521-1.336 3.939-1.414 1.419-0.0785 2.834 0.1466 4.24 0.352 3.313 0.484 6.652 0.8649 9.889 1.717 2.043 0.5374 4.033 1.259 6.072 1.811 3.403 0.9204 6.966 1.361 10.47 0.9519 3.769-0.4409 7.43-1.857 11.22-1.765 1.557 0.0378 3.102 0.3317 4.586 0.7998 1.515 0.4777 3.009 1.162 4.123 2.295 0.8464 0.8613 1.436 1.945 1.879 3.069 0.6598 1.674 1.015 3.457 1.167 5.249 0.1348 1.588 0.1134 3.194 0.4143 4.759 0.495 2.575 1.847 4.923 3.528 6.935s3.69 3.72 5.696 5.408c1.999 1.681 4.011 3.355 6.167 4.828 1.012 0.6916 2.056 1.339 3.017 2.101 0.9609 0.7611 1.845 1.647 2.445 2.715 0.8149 1.449 1.064 3.208 0.6831 4.826h0.00002" fill="url(#linearGradient14485)"/>
</clipPath>
<filter id="filter14416-8" height="1.286" width="1.29" color-interpolation-filters="sRGB" y="-.1430" x="-.1450">
<feGaussianBlur stdDeviation="4.7787162"/>
</filter>
<clipPath id="clipPath14473-5" clipPathUnits="userSpaceOnUse">
<path id="path14475-9" d="m511.8 331.9c-0.6062 1.404-1.442 2.708-2.464 3.845-2.325 2.588-5.507 4.222-8.659 5.697-5.42 2.535-11 4.779-16.12 7.885-3.383 2.054-6.537 4.472-9.502 7.094-2.525 2.233-4.93 4.627-7.728 6.506-2.883 1.936-6.175 3.299-9.616 3.774-4.218 0.582-8.553-0.1834-12.51-1.756-2.709-1.077-5.366-2.618-6.967-5.055-1.538-2.341-1.933-5.252-1.953-8.053-0.0354-4.939 0.965-9.818 1.906-14.67 0.7822-4.03 1.527-8.072 1.977-12.15 0.8178-7.406 0.6611-14.89 0.2799-22.33-0.064-1.249-0.1336-2.51 0.0789-3.743 0.2126-1.233 0.7365-2.452 1.682-3.271 0.9391-0.8137 2.21-1.159 3.451-1.212 1.242-0.0521 2.476 0.1638 3.705 0.3493 2.89 0.4362 5.811 0.7091 8.652 1.393 1.787 0.43 3.531 1.02 5.313 1.469 2.986 0.7531 6.096 1.107 9.158 0.7725 3.294-0.36 6.507-1.51 9.82-1.432 1.358 0.0318 2.708 0.2714 4.013 0.6491 1.313 0.3798 2.617 0.9202 3.607 1.862 0.7254 0.6906 1.25 1.569 1.644 2.49 0.5762 1.348 0.8863 2.8 1.021 4.26 0.119 1.289 0.1047 2.594 0.3625 3.862 0.4369 2.149 1.64 4.081 3.115 5.704 1.475 1.622 3.224 2.968 4.956 4.312 1.756 1.364 3.51 2.74 5.396 3.918 0.8823 0.5513 1.793 1.059 2.635 1.671 0.8412 0.6121 1.619 1.339 2.145 2.237 0.6839 1.167 0.9023 2.599 0.5976 3.917h0.00002" fill="url(#linearGradient14477)"/>
</clipPath>
<filter id="filter14432-2" height="1.25" width="1.231" color-interpolation-filters="sRGB" y="-.1249" x="-.1153">
<feGaussianBlur stdDeviation="3.1725155"/>
</filter>
<filter id="filter17044" width="1.042" y="-.1293" x="-.02091" height="1.259" color-interpolation-filters="sRGB">
<feGaussianBlur stdDeviation="0.47946431"/>
</filter>
<filter id="filter15185-2" width="1.355" y="-.1594" x="-.1775" height="1.319" color-interpolation-filters="sRGB">
<feGaussianBlur stdDeviation="0.90083196"/>
</filter>
<filter id="filter4592-2" height="1.116" width="2.633" color-interpolation-filters="sRGB" y="-.05782" x="-.8166">
<feGaussianBlur stdDeviation="1.4463082"/>
</filter>
<linearGradient id="linearGradient4417-8-5">
<stop offset="0"/>
<stop stop-opacity=".2489" offset="1"/>
</linearGradient>
<filter id="filter4538-7" color-interpolation-filters="sRGB">
<feGaussianBlur stdDeviation="0.7854602"/>
</filter>
<filter id="filter4427-5-7" color-interpolation-filters="sRGB">
<feGaussianBlur stdDeviation="1.1383167"/>
</filter>
<filter id="filter4487-6" color-interpolation-filters="sRGB">
<feGaussianBlur stdDeviation="0.6434074"/>
</filter>
<clipPath id="clipPath14656-7" clipPathUnits="userSpaceOnUse">
<path id="path14658-9" d="m304.8 225.4c6.016 4.923 9.777 12.32 10.94 20 1.825 12.03-2.346 24.07-6.446 35.53-0.8175 2.285-1.64 4.59-1.965 6.995s-0.119 4.948 1.029 7.086c1.303 2.425 3.732 4.125 6.367 4.923 2.589 0.7844 5.394 0.761 8.015 0.0922s5.061-1.968 7.187-3.64c5.48-4.31 8.758-10.99 10.01-17.84 1.252-6.858 0.6391-13.93-0.551-20.8-1.623-9.369-4.309-18.54-7.74-27.41-2.518-6.507-5.468-12.91-9.618-18.52-4.046-5.469-9.162-10.09-13.1-15.64-2.732-3.844-4.9-8.131-8.192-11.51-1.646-1.689-3.577-3.135-5.77-4.001-2.193-0.8662-4.664-1.124-6.933-0.4825-1.505 0.4257-2.892 1.237-4.038 2.301s-2.053 2.376-2.693 3.803c-1.28 2.853-1.477 6.112-0.9651 9.198 0.6611 3.983 2.444 7.693 4.466 11.19 2.274 3.932 4.918 7.719 8.384 10.65 3.598 3.047 7.962 5.074 11.61 8.06" stroke="#c17d11" stroke-width="1px" fill="none"/>
</clipPath>
<filter id="filter14666-9" height="1.08" width="1.235" color-interpolation-filters="sRGB" y="-.04005" x="-.1175">
<feGaussianBlur stdDeviation="1.352085"/>
</filter>
<clipPath id="clipPath29644-8" clipPathUnits="userSpaceOnUse">
<path id="path29646-8" d="m54.23 122.4c-1.781 0.097-3.485 0.919-4.788 2.137s-2.221 2.812-2.786 4.504c-1.13 3.384-0.8755 7.052-0.6187 10.61 0.2325 3.222 0.4704 6.505 1.677 9.502 0.6032 1.498 1.45 2.91 2.58 4.064s2.552 2.042 4.118 2.434c1.469 0.3681 3.038 0.2918 4.483-0.1621s2.764-1.279 3.846-2.338c1.579-1.545 2.643-3.566 3.253-5.689 0.6102-2.123 0.7842-4.352 0.7524-6.561-0.03974-2.764-0.4009-5.539-1.266-8.164-0.8648-2.626-2.246-5.103-4.173-7.086-0.9333-0.9601-1.998-1.805-3.199-2.397-1.201-0.5923-2.543-0.9254-3.88-0.8525" fill="url(#radialGradient29648)"/>
</clipPath>
<filter id="filter28502-8" color-interpolation-filters="sRGB" width="1.31" y="-.2149" x="-.1548" height="1.43">
<feGaussianBlur stdDeviation="0.89858666"/>
</filter>
<filter id="filter15145-6" color-interpolation-filters="sRGB">
<feGaussianBlur stdDeviation="0.75821369"/>
</filter>
<filter id="filter14963-7" height="1.261" width="1.322" color-interpolation-filters="sRGB" y="-.1303" x="-.1610">
<feGaussianBlur stdDeviation="0.84878819"/>
</filter>
<linearGradient id="linearGradient29529-6">
<stop stop-color="#3a2903" offset="0"/>
<stop stop-color="#735208" offset=".5547"/>
<stop stop-color="#ac8c04" offset="1"/>
</linearGradient>
<filter id="filter15177-1" color-interpolation-filters="sRGB">
<feGaussianBlur stdDeviation="0.11039302"/>
</filter>
<filter id="filter15173-0" width="1.233" y="-.1057" x="-.1164" height="1.211" color-interpolation-filters="sRGB">
<feGaussianBlur stdDeviation="0.11039302"/>
</filter>
<filter id="filter28584-4" color-interpolation-filters="sRGB" width="1.215" y="-.1361" x="-.1073" height="1.272">
<feGaussianBlur stdDeviation="0.2640625"/>
</filter>
<filter id="filter29493-2" color-interpolation-filters="sRGB" width="1.469" y="-.1461" x="-.2345" height="1.292">
<feGaussianBlur stdDeviation="0.51262416"/>
</filter>
<linearGradient id="linearGradient29336-6">
<stop stop-color="#646464" stop-opacity="0" offset="0"/>
<stop stop-color="#646464" stop-opacity=".5825" offset=".3063"/>
<stop stop-color="#646464" offset="0.47"/>
<stop stop-color="#646464" stop-opacity=".2573" offset=".7283"/>
<stop stop-color="#646464" stop-opacity="0" offset="1"/>
</linearGradient>
<filter id="filter29447-1" color-interpolation-filters="sRGB">
<feGaussianBlur stdDeviation="0.13475369"/>
</filter>
<filter id="filter29350-1" color-interpolation-filters="sRGB">
<feGaussianBlur stdDeviation="0.1475"/>
</filter>
<clipPath id="clipPath29028-5" clipPathUnits="userSpaceOnUse">
<path id="path29030-7" d="m85.75 122.4c-2.78 1.91-5.111 4.575-6.25 7.75-1.436 4.002-0.8858 8.481 0.5 12.5 1.419 4.117 3.794 8.041 7.379 10.51 1.793 1.236 3.868 2.083 6.03 2.339 2.162 0.2556 4.409-0.0949 6.34-1.101 2.353-1.226 4.148-3.373 5.262-5.781s1.589-5.07 1.738-7.719c0.1899-3.375-0.1405-6.806-1.25-10-1.205-3.469-3.39-6.671-6.473-8.667-1.541-0.998-3.292-1.684-5.111-1.935-1.819-0.2516-3.705-0.0633-5.416 0.6018-0.9755 0.379-1.887 0.9074-2.75 1.5" fill="url(#radialGradient29032)"/>
</clipPath>
<filter id="filter28927-8" color-interpolation-filters="sRGB" width="1.316" y="-.2092" x="-.1580" height="1.418">
<feGaussianBlur stdDeviation="0.24891089"/>
</filter>
<filter id="filter28949-8" color-interpolation-filters="sRGB" width="1.357" y="-.1813" x="-.1787" height="1.363">
<feGaussianBlur stdDeviation="0.51947927"/>
</filter>
<filter id="filter15133-1" width="1.584" y="-.3083" x="-.2922" height="1.617" color-interpolation-filters="sRGB">
<feGaussianBlur stdDeviation="1.7403319"/>
</filter>
<filter id="filter4394-6" height="1.215" width="1.108" color-interpolation-filters="sRGB" y="-.1074" x="-.05416">
<feGaussianBlur stdDeviation="1.3605322"/>
</filter>
<filter id="filter30475-4" color-interpolation-filters="sRGB">
<feGaussianBlur stdDeviation="0.93152507"/>
</filter>
<filter id="filter30479-2" height="1.258" width="1.153" color-interpolation-filters="sRGB" y="-.1292" x="-.07638">
<feGaussianBlur stdDeviation="2.0355046"/>
</filter>
<radialGradient id="radialGradient18806" gradientUnits="userSpaceOnUse" cy="137.7" cx="223.2" gradientTransform="matrix(.8152 -.03431 .02961 1.248 -229.4 -27.54)" r="14.57">
<stop stop-color="#fefefc" offset="0"/>
<stop stop-color="#fefefc" offset=".7573"/>
<stop stop-color="#d4d4d4" offset="1"/>
</radialGradient>
<radialGradient id="radialGradient18808" gradientUnits="userSpaceOnUse" cy="137.7" cx="223.2" gradientTransform="matrix(1.086 -.03431 .03944 1.248 -254.5 -27.54)" r="14.57">
<stop stop-color="#fefefc" offset="0"/>
<stop stop-color="#fefefc" offset=".7573"/>
<stop stop-color="#d4d4d4" offset="1"/>
</radialGradient>
<radialGradient id="radialGradient18810" gradientUnits="userSpaceOnUse" cy="150.7" cx="275.5" gradientTransform="matrix(.6978 -.5072 .4603 .6334 -292.1 191)" r="15.38">
<stop stop-color="#020204" offset="0"/>
<stop stop-color="#020204" offset=".7345"/>
<stop stop-color="#5c5c5c" offset="1"/>
</radialGradient>
<linearGradient id="linearGradient18812" y2="140.7" gradientUnits="userSpaceOnUse" x2="219.7" gradientTransform="translate(-220 -1)" y1="132.8" x1="213">
<stop stop-color="#949494" stop-opacity=".3922" offset="0"/>
<stop stop-color="#949494" offset=".5"/>
<stop stop-color="#949494" stop-opacity=".3922" offset="1"/>
</linearGradient>
<linearGradient id="linearGradient18814" y2="132.5" gradientUnits="userSpaceOnUse" x2="358.6" gradientTransform="translate(-250)" y1="120" x1="337.2">
<stop stop-color="#747474" offset="0"/>
<stop stop-color="#8c8c8c" offset=".125"/>
<stop stop-color="#a4a4a4" offset=".25"/>
<stop stop-color="#d4d4d4" offset=".5"/>
<stop stop-color="#d4d4d4" offset=".6192"/>
<stop stop-color="#7c7c7c" offset="1"/>
</linearGradient>
<linearGradient id="linearGradient18816" y2="128" xlink:href="#linearGradient29336-6" gradientUnits="userSpaceOnUse" x2="308.7" gradientTransform="translate(-300 -1)" y1="114.6" x1="294.5"/>
<linearGradient id="linearGradient18818" y2="128.6" xlink:href="#linearGradient29336-6" gradientUnits="userSpaceOnUse" x2="266.6" gradientTransform="translate(-300 -1)" y1="115.7" x1="253.2"/>
<linearGradient id="linearGradient18820" y2="142.5" gradientUnits="userSpaceOnUse" x2="169.9" gradientTransform="translate(-210 -1)" y1="132.1" x1="164">
<stop stop-color="#757574" stop-opacity="0" offset="0"/>
<stop stop-color="#757574" offset=".2629"/>
<stop stop-color="#757574" offset=".5"/>
<stop stop-color="#757574" stop-opacity="0" offset="1"/>
</linearGradient>
<radialGradient id="radialGradient18822" gradientUnits="userSpaceOnUse" cy="193.1" cx="294.5" gradientTransform="matrix(.9362 -.3864 .2713 .6574 -344.5 145.7)" r="31.11">
<stop stop-color="#d2940a" offset="0"/>
<stop stop-color="#d89c08" offset=".7514"/>
<stop stop-color="#b67e07" offset=".8658"/>
<stop stop-color="#946106" offset="1"/>
</radialGradient>
<linearGradient id="linearGradient18824" y2="157.9" gradientUnits="userSpaceOnUse" x2="313.3" gradientTransform="translate(-310 -1)" y1="158.3" x1="256.9">
<stop stop-color="#ad780a" offset="0"/>
<stop stop-color="#d89e08" offset=".1197"/>
<stop stop-color="#edb80b" offset=".2551"/>
<stop stop-color="#ebc80d" offset=".3919"/>
<stop stop-color="#f5d838" offset=".5274"/>
<stop stop-color="#f6d811" offset=".7691"/>
<stop stop-color="#f5cd31" offset="1"/>
</linearGradient>
<radialGradient id="radialGradient18826" xlink:href="#linearGradient29529-6" gradientUnits="userSpaceOnUse" cy="147.1" cx="77.67" gradientTransform="matrix(1 0 0 .5833 -100 60.42)" r="3.23"/>
<radialGradient id="radialGradient18828" xlink:href="#linearGradient29529-6" gradientUnits="userSpaceOnUse" cy="147.4" cx="63.13" gradientTransform="matrix(1 0 0 1.075 -100 -12.09)" r="1.535"/>
<linearGradient id="linearGradient18830" y2="159.8" gradientUnits="userSpaceOnUse" x2="243.5" y1="157" x1="243">
<stop stop-color="#f5ce2d" offset="0"/>
<stop stop-color="#d79b08" offset="1"/>
</linearGradient>
<radialGradient id="radialGradient18832" gradientUnits="userSpaceOnUse" cy="126.5" cx="268.1" gradientTransform="matrix(.2014 -.03316 .03065 .1862 -3.126 114)" r="35.51">
<stop stop-color="#c8c8c8" offset="0"/>
<stop stop-color="#797978" offset="1"/>
</radialGradient>
<radialGradient id="radialGradient18834" gradientUnits="userSpaceOnUse" cy="220.5" cx="336.2" gradientTransform="matrix(-.6984 0 0 .7634 166.3 50.22)" r="27.39">
<stop offset="0"/>
<stop stop-opacity=".2489" offset="1"/>
</radialGradient>
<radialGradient id="radialGradient18836" xlink:href="#linearGradient4417-8-5" gradientUnits="userSpaceOnUse" cy="236.4" cx="312.1" gradientTransform="matrix(1 0 0 .7634 -310 49.22)" r="27.39"/>
<radialGradient id="radialGradient18838" xlink:href="#linearGradient4417-8-5" gradientUnits="userSpaceOnUse" cy="225.1" cx="275.6" gradientTransform="matrix(1 0 0 1.069 -310 -15.86)" r="10.85"/>
<linearGradient id="linearGradient18842" y2="293.6" gradientUnits="userSpaceOnUse" x2="490.1" y1="371.5" x1="442">
<stop stop-color="#3e2a06" offset="0"/>
<stop stop-color="#ad780a" offset="1"/>
</linearGradient>
<linearGradient id="linearGradient18844" y2="302.3" gradientUnits="userSpaceOnUse" x2="353.7" gradientTransform="translate(-310 -1)" y1="289.6" x1="355.2">
<stop stop-color="#f3cd0c" offset="0"/>
<stop stop-color="#f3cd0c" stop-opacity="0" offset="1"/>
</linearGradient>
<radialGradient id="radialGradient18846" gradientUnits="userSpaceOnUse" cy="303.4" cx="363.3" gradientTransform="matrix(1.308 .3505 -.3680 1.373 -310.5 -241.3)" r="16.85">
<stop stop-color="#110800" offset="0"/>
<stop stop-color="#a65a00" stop-opacity="0.8" offset=".5907"/>
<stop stop-color="#ff921e" stop-opacity="0" offset="1"/>
</radialGradient>
<radialGradient id="radialGradient18848" gradientUnits="userSpaceOnUse" cy="303.4" cx="363.3" gradientTransform="matrix(1.308 .3505 -.3680 1.373 -310.5 -240.3)" r="16.85">
<stop stop-color="#110800" offset="0"/>
<stop stop-color="#a65a00" stop-opacity="0.8" offset=".5907"/>
<stop stop-color="#ff921e" stop-opacity="0" offset="1"/>
</radialGradient>
<radialGradient id="radialGradient18850" gradientUnits="userSpaceOnUse" cy="246.9" cx="382.2" gradientTransform="matrix(.3603 .1568 -.07247 .1665 260.6 181.9)" r="20.54">
<stop stop-color="#7c7c7c" offset="0"/>
<stop stop-color="#7c7c7c" stop-opacity=".3294" offset="1"/>
</radialGradient>
<linearGradient id="linearGradient18852" y2="279.2" gradientUnits="userSpaceOnUse" x2="361.5" y1="279.4" x1="358.5">
<stop stop-color="#7c7c7c" offset="0"/>
<stop stop-color="#7c7c7c" stop-opacity=".3294" offset="1"/>
</linearGradient>
<linearGradient id="linearGradient18854" y2="381.6" gradientUnits="userSpaceOnUse" x2="170.9" gradientTransform="translate(-240 -1)" y1="301.5" x1="123.1">
<stop stop-color="#b98309" offset="0"/>
<stop stop-color="#382605" offset="1"/>
</linearGradient>
<linearGradient id="linearGradient18856" y2="352.3" gradientUnits="userSpaceOnUse" x2="186.6" gradientTransform="translate(-240.5 -2.768)" y1="324" x1="171.6">
<stop stop-color="#ebc40c" offset="0"/>
<stop stop-color="#ebc40c" stop-opacity="0" offset="1"/>
</linearGradient>
</defs>
<g transform="translate(160 -57.36)">
<path id="path29670-2" d="m40.52 180.7c3.256 7.091 6.891 14 10.12 21.11 6.216 13.67 10.94 28.1 12.9 42.99 1.962 14.89 1.105 30.26-3.554 44.53-5.258 16.11-15.24 30.45-27.47 42.18-14.47 13.88-33.04 24.58-53.07 25.37-13.05 0.5139-26.05-3.218-37.61-9.303-9.715-5.113-18.58-11.93-25.66-20.32-7.077-8.394-12.33-18.39-14.76-29.09-2.996-13.18-1.641-27.18 2.894-39.91 3.243-9.108 8.05-17.59 11.47-26.63 3.74-9.881 5.828-20.43 10.78-29.76 4.491-8.459 11.23-15.69 14.8-24.57 2.137-5.306 3.064-11.01 4.444-16.56 1.38-5.551 3.312-11.14 7.07-15.46 4.529-5.197 11.34-8.014 18.19-8.805 6.848-0.7902 13.78 0.2769 20.5 1.809 5.351 1.219 10.63 2.735 15.81 4.574 4.413 1.57 8.786 3.398 12.6 6.114 5.199 3.7 9.16 8.911 12.32 14.46 3.155 5.547 5.57 11.48 8.234 17.27z" fill="#020204"/>
<path id="path29676-3" d="m-16.96 357c5.501 0.32 10.99 0.8545 16.44 1.677 4.792 0.7237 9.55 1.67 14.26 2.812 7.377 1.788 14.73 4.068 22.32 4.284 1.997 0.0569 4.01-0.0321 5.961-0.4663 1.95-0.4343 3.842-1.225 5.405-2.471 2.329-1.857 3.81-4.658 4.357-7.587 0.5471-2.928 0.2083-5.976-0.6493-8.829-1.715-5.706-5.39-10.58-8.437-15.7-1.745-2.932-3.3-5.98-5.189-8.821-1.89-2.841-4.151-5.501-7.019-7.35-3.968-2.558-8.888-3.392-13.59-2.924-4.697 0.4683-9.2 2.165-13.39 4.336-5.876 3.042-11.41 7.22-14.61 13.01-1.115 2.015-1.925 4.181-2.872 6.28-0.9472 2.099-2.056 4.166-3.66 5.818-1.789 1.842-4.112 3.084-5.963 4.863-0.9255 0.8897-1.735 1.925-2.21 3.118-0.4744 1.193-0.5917 2.556-0.1588 3.765 0.2968 0.8288 0.8411 1.558 1.511 2.13 0.6698 0.5713 1.462 0.9886 2.293 1.28 1.661 0.5836 3.449 0.6694 5.207 0.7717z" fill="#020204"/>
<path id="path29676-7-1" d="m-33.31 356.7c-4.584 0.1058-9.12 0.9259-13.61 1.854-4.292 0.8872-8.564 1.875-12.8 2.988-7.154 1.878-14.32 4.127-21.71 4.284-1.946 0.0414-3.906-0.065-5.803-0.5038-1.896-0.4387-3.733-1.22-5.255-2.434-2.325-1.854-3.803-4.649-4.35-7.572-0.5477-2.923-0.2131-5.964 0.6353-8.814 1.697-5.7 5.336-10.58 8.316-15.73 1.693-2.925 3.187-5.966 5.018-8.807 1.831-2.84 4.036-5.507 6.86-7.364 3.848-2.531 8.647-3.387 13.23-2.936 4.584 0.4518 8.975 2.14 13.02 4.348 5.706 3.117 10.92 7.406 14.22 13.01 2.315 3.931 3.651 8.425 6.356 12.1 1.457 1.978 3.289 3.686 4.501 5.823 0.6059 1.068 1.05 2.245 1.153 3.469 0.1035 1.224-0.1514 2.498-0.8401 3.515-0.4555 0.6726-1.087 1.217-1.793 1.618-0.706 0.4017-1.485 0.6647-2.28 0.8307-1.59 0.3321-3.231 0.2811-4.855 0.3186z" fill="#020204"/>
<path id="path28712-2" d="m-58.93 165.8c-0.6442-7.751-0.49-15.54-0.7792-23.32-0.2781-7.473-0.9664-14.94-0.7149-22.42 0.2561-7.611 1.53-15.31 4.914-22.13 3.385-6.825 8.879-12.61 15.59-16.22 6.31-3.401 13.57-4.853 20.73-4.775 9.719 0.1057 19.46 3.042 27.33 8.744 4.933 3.574 9.085 8.178 12.36 13.32 2.793 4.385 4.963 9.174 6.325 14.19 2.793 10.29 2.131 21.15 2.674 31.8 0.5148 10.09 2.131 20.16 1.581 30.25-0.1193 2.191-0.3564 4.434-1.333 6.399-0.9518 1.915-2.568 3.455-4.425 4.517-1.857 1.061-3.947 1.666-6.061 1.992-4.227 0.6523-8.549 0.2219-12.81 0.6168-6.18 0.5731-12.07 2.865-18.21 3.814-7.31 1.13-14.76 0.3287-22.15 0.0336-2.96-0.1182-5.929-0.1551-8.868-0.5235-2.939-0.3685-5.87-1.081-8.484-2.474-1.611-0.8584-3.093-1.975-4.295-3.349s-2.119-3.009-2.577-4.777c-0.6873-2.653-0.3248-5.446-0.3152-8.187 0.0088-2.506-0.2818-5.003-0.4894-7.501z" fill="#020204"/>
<path id="path29719-5" d="m-47.3 162.8c-1.046 1.311-1.728 2.887-2.139 4.514-0.4115 1.626-0.5623 3.308-0.6265 4.984-0.1285 3.353 0.07646 6.77-0.811 10.01-0.9487 3.46-3.076 6.456-5.158 9.378-3.605 5.059-7.249 10.25-9.027 16.2-1.077 3.605-1.436 7.423-1.048 11.16-4.035 5.926-7.529 12.22-10.42 18.78-4.386 9.942-7.396 20.53-8.455 31.34-1.296 13.24 0.3976 26.86 5.627 39.1 3.781 8.846 9.418 16.94 16.69 23.25 3.695 3.205 7.8 5.939 12.19 8.097 15.21 7.477 34.01 7.491 48.97-0.4803 7.818-4.166 14.42-10.26 20.78-16.42 3.832-3.712 7.644-7.512 10.57-11.98 5.627-8.592 7.587-19.04 8.805-29.23 2.13-17.83 2.198-36.67-5.621-52.84-2.692-5.566-6.279-10.7-10.58-15.14-1.145-7.781-3.406-15.4-6.692-22.54-2.37-5.155-5.268-10.06-7.471-15.29-0.9042-2.147-1.69-4.345-2.693-6.447-1.004-2.102-2.241-4.125-3.924-5.735-1.723-1.649-3.871-2.818-6.136-3.566-2.265-0.7481-4.649-1.087-7.031-1.207-4.765-0.2397-9.539 0.3835-14.31 0.1942-3.795-0.1507-7.578-0.8157-11.37-0.5919-1.896 0.1119-3.791 0.4506-5.55 1.165-1.759 0.7143-3.382 1.817-4.566 3.301z" fill="#fdfdfb"/>
<path id="path28461-8-7" d="m-49.63 180.6c1.703 4.938 5.13 9.152 9.186 12.44 1.349 1.095 2.782 2.104 4.366 2.817 1.584 0.7126 3.332 1.119 5.062 0.9724 1.695-0.144 3.307-0.8094 4.789-1.646 1.481-0.8364 2.856-1.847 4.293-2.757 2.463-1.56 5.1-2.821 7.657-4.221 3.082-1.687 6.07-3.59 8.665-5.959 1.188-1.085 2.296-2.268 3.608-3.199 1.312-0.9309 2.883-1.606 4.488-1.497 1.204 0.0819 2.333 0.5939 3.512 0.8479 0.5898 0.127 1.201 0.1893 1.797 0.0984 0.5964-0.0909 1.18-0.3444 1.598-0.7793 0.5124-0.5329 0.7364-1.3 0.7096-2.039-0.0268-0.7387-0.2844-1.453-0.6289-2.107-0.6888-1.308-1.735-2.435-2.2-3.838-0.4144-1.249-0.3305-2.599-0.2939-3.914 0.03652-1.315 0.00754-2.689-0.5986-3.857-0.4616-0.8892-1.236-1.595-2.122-2.064-0.8855-0.4687-1.879-0.71-2.876-0.8036-1.995-0.1873-3.994 0.2-5.994 0.3135-2.656 0.1507-5.322-0.1818-7.977-0.0221-3.311 0.1991-6.557 1.161-9.874 1.166-3.786 0.007-7.568-1.232-11.31-0.64-1.605 0.254-3.135 0.8376-4.676 1.352-1.541 0.5146-3.133 0.9672-4.757 0.9437-1.844-0.0267-3.629-0.6654-5.469-0.7967-0.9199-0.0656-1.862-0.00018-2.726 0.3233-0.8636 0.3234-1.645 0.9236-2.068 1.743-0.2429 0.4693-0.3632 0.9968-0.3859 1.525-0.02266 0.528 0.05026 1.057 0.1778 1.57 0.2551 1.026 0.7242 1.983 1.11 2.967 1.393 3.554 1.692 7.448 2.937 11.06z" fill-opacity=".2588" filter="url(#filter30479-2)"/>
<path id="path28461-84-3" opacity=".3" d="m-54.38 165.5c3.308 2.219 6.277 4.944 8.769 8.052 2.313 2.884 4.281 6.154 7.299 8.289 2.133 1.508 4.695 2.358 7.294 2.616 3.052 0.3032 6.14-0.1868 9.082-1.052 2.727-0.8019 5.363-1.929 7.782-3.421 4.598-2.836 8.439-6.993 13.51-8.857 1.107-0.407 2.259-0.6982 3.327-1.2 1.067-0.5021 2.071-1.254 2.581-2.318 0.49-1.022 0.471-2.202 0.6305-3.325 0.1707-1.201 0.5538-2.362 0.7639-3.556 0.2101-1.195 0.2352-2.472-0.2814-3.57-0.4278-0.9088-1.205-1.628-2.1-2.085-0.8945-0.4569-1.901-0.6644-2.904-0.7136-2.006-0.0985-3.988 0.4152-5.988 0.5977-2.65 0.2417-5.318-0.0991-7.977-0.019-3.308 0.0996-6.568 0.8488-9.874 1.005-3.772 0.1782-7.534-0.4175-11.31-0.5514-1.632-0.0579-3.275-0.0286-4.884 0.2525s-3.188 0.8217-4.549 1.726c-1.32 0.8771-2.397 2.067-3.607 3.091-0.6049 0.5119-1.248 0.9851-1.954 1.345s-1.479 0.6045-2.27 0.6426c-0.4073 0.0196-0.8183-0.0152-1.221 0.0472-0.6762 0.1046-1.304 0.4936-1.698 1.053-0.3946 0.559-0.5509 1.281-0.423 1.953v0.00001z" transform="matrix(1 0 0 .9211 -.000155 14.11)" filter="url(#filter30475-4)"/>
<path id="path28795-9-5" d="m-45.77 121.4c-1.781 0.097-3.485 0.919-4.788 2.137s-2.221 2.812-2.786 4.504c-1.13 3.384-0.8755 7.052-0.6187 10.61 0.2325 3.222 0.4704 6.505 1.677 9.502 0.6032 1.498 1.45 2.91 2.58 4.064s2.552 2.042 4.118 2.434c1.469 0.3681 3.038 0.2918 4.483-0.1621s2.764-1.279 3.846-2.338c1.579-1.545 2.643-3.566 3.253-5.689 0.6102-2.123 0.7842-4.352 0.7524-6.561-0.03974-2.764-0.4009-5.539-1.266-8.164-0.8648-2.626-2.246-5.103-4.173-7.086-0.9333-0.9601-1.998-1.805-3.199-2.397-1.201-0.5923-2.543-0.9254-3.88-0.8525z" fill="url(#radialGradient18806)"/>
<path id="path28795-3" d="m-14.25 121.4c-2.78 1.91-5.111 4.575-6.25 7.75-1.436 4.002-0.8858 8.481 0.5 12.5 1.419 4.117 3.794 8.041 7.379 10.51 1.793 1.236 3.868 2.083 6.03 2.339 2.162 0.2556 4.409-0.0949 6.34-1.101 2.353-1.226 4.148-3.373 5.262-5.781s1.589-5.07 1.738-7.719c0.1899-3.375-0.1405-6.806-1.25-10-1.205-3.469-3.39-6.671-6.473-8.667-1.541-0.998-3.292-1.684-5.111-1.935-1.819-0.2516-3.705-0.0633-5.416 0.6018-0.9755 0.379-1.887 0.9074-2.75 1.5z" fill="url(#radialGradient18808)"/>
<path id="path27476-76-1" opacity=".3" d="m-46.36 150.2c-1.786 1.477-3.501 3.042-5.136 4.685-0.9038 0.9087-1.809 1.884-2.215 3.099-0.3606 1.081-0.292 2.253-0.4688 3.379-0.06057 0.3856-0.1504 0.7694-0.1521 1.16-0.000812 0.1952 0.02083 0.3915 0.0782 0.578 0.05736 0.1866 0.1513 0.3634 0.2846 0.5059 0.2218 0.2372 0.5382 0.3658 0.8564 0.4306s0.6449 0.0725 0.9677 0.1075c1.456 0.1575 2.798 0.8634 4.004 1.695 1.206 0.8315 2.315 1.8 3.551 2.585 2.731 1.734 5.993 2.505 9.226 2.628 3.233 0.1234 6.458-0.3706 9.63-1.005 2.521-0.5041 5.034-1.101 7.425-2.044 3.663-1.444 6.964-3.667 10.12-6.022 1.433-1.07 2.846-2.173 4.133-3.415 0.4367-0.4216 0.8592-0.8595 1.328-1.246 0.4684-0.386 0.9882-0.7218 1.566-0.9077 0.8808-0.2834 1.836-0.202 2.748-0.0495 0.6873 0.1149 1.376 0.269 2.072 0.2413 0.3481-0.0139 0.6966-0.0742 1.02-0.2037 0.3235-0.1295 0.6216-0.3303 0.8433-0.599 0.2914-0.3532 0.44-0.8144 0.4416-1.272 0.00164-0.4579-0.1387-0.911-0.3711-1.305-0.4647-0.789-1.268-1.323-2.105-1.695-1.146-0.5094-2.386-0.7614-3.606-1.056-3.745-0.9043-7.385-2.241-10.84-3.954-1.716-0.8517-3.384-1.796-5.072-2.7-1.736-0.9302-3.505-1.824-5.389-2.395-4.213-1.277-8.819-0.8583-12.98 0.5861-4.62 1.604-8.797 4.463-11.97 8.188v0.00002z" filter="url(#filter4394-6)"/>
<path id="path28849-2" d="m-37.4 144.9c1.767-1.987 2.976-4.411 4.674-6.457 0.849-1.023 1.828-1.955 2.982-2.617 1.153-0.6615 2.492-1.041 3.817-0.9264 1.474 0.1277 2.855 0.8623 3.934 1.875 1.08 1.012 1.88 2.29 2.519 3.625 0.6117 1.278 1.098 2.64 1.979 3.75 0.9403 1.184 2.26 1.992 3.451 2.923 0.5958 0.4654 1.167 0.9691 1.638 1.56 0.4709 0.5914 0.8396 1.276 0.991 2.017 0.1537 0.7521 0.07715 1.545-0.1852 2.267-0.2623 0.7215-0.7067 1.372-1.26 1.904-1.106 1.065-2.614 1.64-4.134 1.855-3.04 0.4302-6.115-0.4758-9.184-0.3914-3.107 0.0854-6.142 1.184-9.248 1.07-1.553-0.0568-3.128-0.4362-4.404-1.323-0.6381-0.4434-1.194-1.011-1.596-1.676-0.4018-0.665-0.6467-1.429-0.6729-2.206-0.02497-0.7409 0.148-1.481 0.4441-2.161 0.296-0.6797 0.7127-1.302 1.182-1.876 0.9389-1.148 2.087-2.106 3.072-3.214z" fill="url(#radialGradient18810)"/>
<path id="path28767-3" d="m278 90.86c-2.225 1.57-1.253 3.53-0.296 5.498 0.9568 1.967-2.104 7.64-2.137 7.884-0.0322 0.2446 6.025-2.875 7.676-4.902 1.95-2.393 6.877 3.238 6.609 2.381 0.002-1.533-9.627-12.43-11.85-10.86z" transform="matrix(1.152 0 0 1.152 -323 -14.84)" filter="url(#filter15133-1)" fill="#7c7c7c"/>
<path id="path28879-6" d="m-7.839 129.8c-1.045 0.0749-2.064 0.4318-2.951 0.9903s-1.643 1.315-2.237 2.179c-1.187 1.728-1.709 3.847-1.793 5.941-0.0631 1.572 0.111 3.165 0.6324 4.65 0.5215 1.485 1.401 2.859 2.613 3.863 1.24 1.027 2.816 1.644 4.425 1.721 1.608 0.0773 3.239-0.3866 4.561-1.307 1.053-0.7329 1.902-1.742 2.507-2.873 0.6046-1.131 0.9688-2.383 1.135-3.655 0.2941-2.247-0.0385-4.593-1.077-6.607s-2.801-3.673-4.927-4.456c-0.9209-0.3393-1.909-0.5158-2.888-0.4456z" fill="#020204"/>
<path id="path28891-5" d="m-5.344 136.6c-0.8659 0.3416-2.237 0.1268-2.616 0.9767-0.2249 0.5036 0.0927 1.333 0.6034 1.541 1.032 0.4206 2.632-0.3411 3.049-1.375 0.181-0.4491-0.0934-1.161-0.5397-1.349-0.1652-0.0694-0.3296 0.1407-0.4962 0.2064z" filter="url(#filter28927-8)" fill="#141413"/>
<path id="path28887-6" d="m-1.375 138.9c1.161-1.161-0.8261-4.24-2.375-5.5-1.122-0.913-4.391-1.869-4.25-0.875 0.1406 0.9935 1.61 2.266 2.595 3.237 1.212 1.195 3.479 3.689 4.03 3.138z" filter="url(#filter28949-8)" fill="url(#linearGradient18812)"/>
<path id="path28972-5" transform="translate(-100 -1)" clip-path="url(#clipPath29028-5)" fill="url(#linearGradient18814)" d="m75.25 132.5c2.384-1.98 5.161-3.485 8.122-4.4 6.086-1.881 13-1.137 18.38 2.275 1.857 1.178 3.512 2.642 5.239 4.004s3.561 2.641 5.636 3.371c1.121 0.3945 2.318 0.6234 3.5 0.5 1.068-0.1115 2.099-0.5118 2.984-1.119 0.8852-0.6074 1.625-1.418 2.181-2.337 1.112-1.837 1.47-4.065 1.278-6.203-0.3832-4.277-2.796-8.053-4.818-11.84-0.6334-1.186-1.236-2.393-2-3.5-2.343-3.396-6.073-5.636-9.985-6.948s-8.046-1.786-12.14-2.302c-1.826-0.23-3.673-0.47-5.5-0.25-2.1 0.2528-4.076 1.101-6.125 1.625-0.9726 0.2487-1.964 0.4248-2.928 0.7039-0.9644 0.2791-1.913 0.669-2.697 1.296-1.145 0.9157-1.865 2.291-2.177 3.723-0.3114 1.432-0.2405 2.924-0.01161 4.372 0.4578 2.896 1.541 5.724 1.438 8.654-0.07058 2.012-0.7023 3.988-0.625 6 0.02266 0.5899 0.1066 1.177 0.25 1.75"/>
<path id="path28795-92-2" d="m-4.594 113.1c-0.477 0.5998-0.908 1.252-1.25 1.969 2.146 0.4625 4.199 1.346 6.031 2.562 3.545 2.354 6.237 5.796 8.125 9.625 0.4408-0.4881 0.842-1.012 1.188-1.594-1.898-3.988-4.644-7.595-8.312-10.03-1.762-1.17-3.725-2.054-5.781-2.531z" filter="url(#filter29350-1)" fill="url(#linearGradient18816)"/>
<path id="path28795-9-2-2" d="m-45.97 115.1c-0.2418-0.005-0.4768 0.0166-0.7188 0.0284-0.1555 0.007-0.3142 0.0138-0.4688 0.0284 1.413 0.1284 2.818 0.5081 4.094 1.081 1.739 0.781 3.274 1.893 4.625 3.159 2.504 2.345 4.365 5.24 5.625 8.309-0.3113-2.365-1.026-4.604-2.062-6.659-0.4936-0.5713-1.006-1.129-1.562-1.65-1.351-1.266-2.886-2.378-4.625-3.159-1.521-0.6833-3.214-1.108-4.906-1.138z" filter="url(#filter29447-1)" fill="url(#linearGradient18818)"/>
<path id="path29453-9" d="m-50.06 136.1c-0.3721 2.246-0.3856 4.602 0.3864 6.743 0.5098 1.414 1.35 2.697 2.372 3.799 0.669 0.7218 1.428 1.378 2.316 1.803 0.8875 0.4254 1.916 0.6064 2.87 0.3667 0.8811-0.2212 1.652-0.7886 2.22-1.497 0.5686-0.7086 0.9476-1.553 1.218-2.42 0.7974-2.561 0.6693-5.362-0.1224-7.924-0.5768-1.867-1.532-3.668-3.027-4.927-0.7131-0.6006-1.548-1.071-2.455-1.287-0.9071-0.2155-1.889-0.165-2.738 0.2206-0.9423 0.4282-1.672 1.243-2.149 2.161-0.4775 0.9183-0.7229 1.939-0.8921 2.96z" fill="#020204"/>
<path id="path29465-8" d="m-45.31 134.5c0.2418 0.6337 1.054 0.8638 1.5 1.375 0.433 0.4965 0.8874 1.011 1.125 1.625 0.4549 1.176-0.4488 2.919 0.5 3.75 0.2978 0.2608 0.8947 0.2664 1.188 0 1.145-1.042 0.8909-3.144 0.4375-4.625-0.4115-1.344-1.427-2.616-2.679-3.255-0.5788-0.2954-1.451-0.5409-1.946-0.1199-0.319 0.2713-0.2743 0.8588-0.125 1.25z" filter="url(#filter29493-2)" fill="url(#linearGradient18820)"/>
<path id="path28461-2" d="m-54.25 164c0.06146 0.2954 0.1725 0.5804 0.3271 0.8395 0.2657 0.4453 0.6539 0.8063 1.073 1.111 0.4193 0.3051 0.8728 0.5595 1.312 0.8354 2.334 1.467 4.235 3.529 5.925 5.707 2.267 2.922 4.272 6.165 7.299 8.289 2.138 1.5 4.696 2.355 7.294 2.616 3.051 0.3066 6.14-0.186 9.082-1.052 2.726-0.8027 5.363-1.93 7.782-3.421 4.599-2.836 8.439-6.993 13.51-8.857 1.107-0.407 2.259-0.6982 3.326-1.2 1.067-0.5021 2.071-1.254 2.581-2.318 0.49-1.022 0.471-2.202 0.6305-3.325 0.1707-1.201 0.5537-2.362 0.7638-3.556 0.2101-1.195 0.2352-2.472-0.2814-3.57-0.4278-0.9088-1.205-1.628-2.1-2.085-0.8945-0.4569-1.901-0.6645-2.904-0.7137-2.006-0.0985-3.988 0.4152-5.988 0.5978-2.65 0.2419-5.318-0.0982-7.977-0.019-3.308 0.0986-6.568 0.8447-9.874 1.005-3.772 0.1829-7.535-0.3985-11.31-0.5514-1.634-0.0662-3.28-0.0512-4.892 0.2253s-3.195 0.8236-4.541 1.753c-1.311 0.9055-2.356 2.14-3.56 3.184-0.6021 0.5219-1.249 0.9993-1.966 1.347-0.7168 0.3481-1.507 0.564-2.304 0.5471-0.4096-0.009-0.8309-0.0769-1.221 0.0472-0.2439 0.0775-0.4605 0.227-0.6435 0.4059-0.1831 0.1789-0.3348 0.387-0.4778 0.5993-0.3325 0.4936-0.6231 1.015-0.8674 1.558z" fill="url(#radialGradient18822)"/>
<path id="path28487-2" d="m-39.44 168.1c-0.3865 1.596-0.152 3.334 0.6436 4.771s2.144 2.558 3.702 3.077c1.978 0.6592 4.207 0.3364 6.055-0.6281 1.071-0.5591 2.051-1.346 2.669-2.384 0.3091-0.5192 0.524-1.097 0.6045-1.696 0.08054-0.5988 0.02471-1.218-0.1849-1.785-0.2297-0.6211-0.6403-1.168-1.146-1.596-0.5058-0.4275-1.105-0.7378-1.733-0.9457-1.258-0.4158-2.611-0.424-3.934-0.3605-2.005 0.0963-4.003 0.3484-5.969 0.7532" filter="url(#filter28502-8)" fill="#d9b30d"/>
<path id="path27476-7-8" d="m-45.93 155.7c-1.339 0.7915-2.629 1.664-3.898 2.563-0.6567 0.4655-1.334 0.969-1.681 1.696-0.2455 0.515-0.3018 1.099-0.3096 1.669-0.0078 0.5704 0.02884 1.144-0.04618 1.71-0.05124 0.3862-0.1543 0.7662-0.1715 1.155-0.0086 0.1946 0.0047 0.3914 0.05601 0.5794 0.05134 0.1879 0.1419 0.367 0.2755 0.5088 0.1726 0.1832 0.4079 0.2959 0.6486 0.3693s0.4906 0.1112 0.7356 0.1688c1.175 0.2761 2.197 0.9968 3.094 1.804 0.8972 0.8069 1.703 1.715 2.639 2.476 2.537 2.064 5.89 2.919 9.161 2.973 3.271 0.0538 6.504-0.6307 9.695-1.349 2.506-0.5646 5.015-1.155 7.425-2.044 3.703-1.365 7.141-3.432 10.12-6.022 1.35-1.174 2.617-2.464 4.133-3.415 1.341-0.8421 2.843-1.398 4.206-2.203 0.1219-0.072 0.2432-0.1462 0.3521-0.2366 0.1089-0.0905 0.2057-0.1981 0.2689-0.3248 0.1092-0.2189 0.1094-0.4812 0.03895-0.7155-0.07042-0.2343-0.2063-0.4439-0.36-0.6342-0.17-0.2106-0.3634-0.4016-0.569-0.5776-1.424-1.219-3.357-1.662-5.226-1.811-1.869-0.1482-3.761-0.0434-5.61-0.3524-1.739-0.2905-3.393-0.9388-5.072-1.477-1.762-0.5653-3.563-1.013-5.389-1.31-4.295-0.7006-8.717-0.5664-12.98 0.3206-4.058 0.8449-7.971 2.371-11.54 4.48z" filter="url(#filter15145-6)" fill="#604405"/>
<path id="path27476-4" d="m-46.36 151.2c-1.929 1.299-3.666 2.883-5.136 4.685-0.8407 1.031-1.604 2.151-2.027 3.412-0.333 0.9918-0.4465 2.042-0.6563 3.067-0.07861 0.384-0.1714 0.7692-0.1697 1.161 0.000822 0.196 0.02568 0.3928 0.08646 0.5791 0.06079 0.1863 0.1583 0.362 0.2941 0.5034 0.2247 0.2339 0.5404 0.361 0.8581 0.4263s0.6438 0.0751 0.9661 0.1118c1.455 0.1654 2.794 0.872 4 1.702 1.206 0.8302 2.317 1.795 3.554 2.578 2.734 1.729 5.995 2.498 9.227 2.623 3.232 0.1246 6.457-0.3664 9.629-0.9998 2.521-0.5033 5.034-1.101 7.425-2.044 3.662-1.444 6.964-3.667 10.12-6.022 1.433-1.07 2.846-2.173 4.133-3.415 0.4367-0.4216 0.8592-0.8595 1.328-1.246 0.4684-0.386 0.9882-0.7218 1.566-0.9077 0.8808-0.2834 1.836-0.202 2.748-0.0495 0.6873 0.1149 1.376 0.269 2.072 0.2413 0.3481-0.0139 0.6966-0.0742 1.02-0.2037 0.3235-0.1295 0.6216-0.3303 0.8433-0.599 0.2914-0.3532 0.44-0.8144 0.4416-1.272 0.00164-0.4579-0.1387-0.911-0.3711-1.305-0.4647-0.789-1.268-1.323-2.105-1.695-1.146-0.5094-2.386-0.7614-3.606-1.056-3.745-0.9043-7.385-2.241-10.84-3.954-1.716-0.8517-3.384-1.796-5.072-2.7-1.736-0.9302-3.505-1.824-5.389-2.395-4.213-1.277-8.819-0.8583-12.98 0.5861-4.62 1.604-8.797 4.463-11.97 8.188v0.00002z" fill="url(#linearGradient18824)"/>
<path id="path28357-7" d="m-16.76 152.1c-0.2265-0.2862-0.5511-0.488-0.9013-0.591s-0.7247-0.1104-1.084-0.0488c-0.7195 0.1232-1.364 0.5105-1.966 0.9245-1.709 1.176-3.219 2.628-4.537 4.23-1.745 2.12-3.185 4.572-3.668 7.275-0.08131 0.4555-0.1351 0.9213-0.07821 1.38 0.0569 0.4592 0.2328 0.9148 0.5587 1.243 0.2862 0.2884 0.6757 0.4642 1.078 0.522 0.4021 0.0578 0.8159 0.002 1.201-0.1284 0.7697-0.2602 1.409-0.7994 2.014-1.341 3.336-2.985 6.353-6.568 7.56-10.88 0.1211-0.4326 0.224-0.8757 0.2212-1.325-0.0028-0.4492-0.1192-0.9095-0.398-1.262z" filter="url(#filter14963-7)" fill="#f6da4a"/>
<path id="path28396-7" opacity=".8" d="m-24.75 145.9c0.2313 0.7424 1.428 0.6194 2.119 0.9754 0.6066 0.3124 1.094 0.9972 1.777 1.017 0.6509 0.0188 1.664-0.2254 1.749-0.8711 0.1119-0.853-1.134-1.395-1.935-1.708-1.031-0.4022-2.353-0.6062-3.321-0.0682-0.2217 0.1233-0.4637 0.4124-0.3883 0.6546z" filter="url(#filter15177-1)" fill="url(#radialGradient18826)"/>
<path id="path28398-7" opacity=".8" d="m-36.17 145.5c-0.8882-0.2885-2.357 1.277-1.878 2.079 0.1317 0.2201 0.5349 0.4992 0.8064 0.3499 0.4092-0.225 0.744-1.03 1.187-1.345 0.2961-0.2106 0.2297-0.9716-0.1158-1.084z" filter="url(#filter15173-0)" fill="url(#radialGradient18828)"/>
<ellipse id="path28570-8" style="color:#000000" rx="2.608" transform="matrix(1.096 0 -.1702 1.518 -236.2 -83.12)" ry="2.328" filter="url(#filter28584-4)" cy="158.3" cx="243.3" fill="url(#linearGradient18830)"/>
<path id="path29551-9" d="m50.39 129.5c2.685-1.599 5.955-1.97 9.067-1.676 3.112 0.2947 6.125 1.208 9.141 2.029 2.212 0.6019 4.452 1.161 6.525 2.138 2.074 0.9763 4 2.416 5.142 4.403 0.1832 0.3188 0.3453 0.6497 0.5393 0.962s0.4231 0.6087 0.7165 0.8303c0.2933 0.2216 0.657 0.3643 1.024 0.3442 0.1836-0.01 0.3656-0.0609 0.5242-0.1539s0.2929-0.2287 0.378-0.3917c0.09778-0.1874 0.1281-0.4045 0.1171-0.6155-0.01094-0.2111-0.06122-0.418-0.1171-0.6219-0.7552-2.753-2.535-5.088-3.889-7.601-0.8126-1.508-1.477-3.093-2.298-4.596-2.818-5.16-7.444-9.216-12.7-11.85-5.258-2.632-11.13-3.896-17-4.239-6.801-0.3977-13.62 0.4094-20.33 1.591-2.909 0.5122-5.861 1.115-8.436 2.562-1.287 0.7232-2.467 1.657-3.388 2.811s-1.576 2.535-1.788 3.997c-0.2035 1.409 0.0088 2.861 0.5013 4.196s1.258 2.558 2.157 3.662c1.797 2.208 4.101 3.934 6.222 5.831s4.09 3.992 6.463 5.563c1.186 0.7854 2.473 1.435 3.843 1.817 1.371 0.3817 2.83 0.4892 4.224 0.2036 1.445-0.2961 2.783-1.005 3.954-1.902s2.186-1.98 3.148-3.098c1.925-2.236 3.723-4.686 6.257-6.196z" clip-path="url(#clipPath29644-8)" transform="translate(-100 -1)" fill="url(#radialGradient18832)"/>
<path id="path29705-5-0" d="m45.1 224.4c6.085 4.895 9.946 12.29 11.14 20 0.9323 6.019 0.3263 12.19-1.031 18.13-1.357 5.937-3.452 11.68-5.532 17.4-0.8292 2.283-1.662 4.587-1.992 6.993-0.3295 2.406-0.1208 4.954 1.04 7.088 1.33 2.446 3.813 4.13 6.482 4.923 2.635 0.7826 5.481 0.7662 8.148 0.1015s5.157-1.963 7.328-3.649c5.516-4.283 8.844-10.95 10.13-17.81 1.288-6.863 0.6964-13.95-0.5015-20.83-1.633-9.381-4.382-18.55-7.88-27.41-2.573-6.515-5.584-12.92-9.791-18.52-4.117-5.48-9.307-10.09-13.34-15.64-2.803-3.851-5.048-8.149-8.406-11.53-1.679-1.688-3.64-3.132-5.86-3.995-2.22-0.8623-4.713-1.116-7.005-0.4711-3.021 0.8503-5.49 3.231-6.803 6.082s-1.543 6.123-1.032 9.22c0.6591 3.995 2.486 7.703 4.546 11.19 2.327 3.937 5.022 7.727 8.536 10.65 3.667 3.055 8.102 5.069 11.82 8.06z" fill="#020204"/>
<path id="path29705-9" d="m290.8 216c0.4848 0.4677 0.9809 0.9426 1.5 1.375 3.667 3.055 5.619 6.485 9.338 9.477 6.085 4.895 12.26 13.34 13.45 21.06 0.9323 6.019-0.3009 9.289-1.805 16.39-1.504 7.098-5.769 17.15-8.074 23.99-0.9189 2.729 1.861 1.603 1.496 4.48-0.1794 1.414-0.1977 2.842-0.0346 4.259 0.0227-0.271 0.0388-0.5525 0.0693-0.8219 0.4428-3.923 1.623-7.695 2.909-11.4 2.474-7.122 5.314-14.1 7.272-21.41 1.958-7.307 1.74-12.56 0.7188-18.84-1.285-7.896-5.797-15.19-12.19-20-4.519-3.403-9.847-5.585-14.66-8.562z" clip-path="url(#clipPath14656-7)" transform="matrix(1.018 0 0 1 -265.3 -1)" filter="url(#filter14666-9)" fill="#838384"/>
<path id="path4400-1" opacity=".25" d="m-61 211.6c0.88 1.524-0.5474 6.778 19.96 3.415 0 0-3.602 0.4573-7.153 1.404-5.521 2.133-10.33 4.517-14.04 7.675-3.676 3.122-6.367 7.197-9.74 10.7 0 0 5.462-11.52 6.823-14.99 1.362-3.469-0.228-3.31 0.8489-8.414s3.713-10.01 3.713-10.01-2.152 7.211-0.4168 10.22z" transform="matrix(1.154 0 0 1 6.332 -1)" filter="url(#filter4487-6)" fill="url(#radialGradient18834)"/>
<path id="path4400-2-8" opacity="0.42" d="m12.05 209.2c-4.825 3.361-7.652 2.963-13.51 3.621-5.854 0.6575-21.7 0.4194-21.7 0.4194s2.294-0.0427 7.378 0.9042 15.45 1.852 21.29 4.075c5.839 2.222 7.968 2.857 11.52 5.101 5.051 3.194 8.758 8.197 13.59 11.7 0 0 0.2338-4.644-1.716-8.112-1.949-3.469-7.19-8.935-8.732-14.04-1.542-5.104-2.274-15.13-2.274-15.13s-1.021 8.105-5.846 11.47z" filter="url(#filter4427-5-7)" fill="url(#radialGradient18836)"/>
<path id="path4491-9" opacity=".2" d="m-33.33 202c-0.1794 1.456-0.4119 2.905-0.697 4.344-0.1405 0.7094-0.2949 1.42-0.559 2.093-0.2641 0.6732-0.6442 1.312-1.181 1.796-0.4707 0.4244-1.044 0.716-1.621 0.9798-2.248 1.029-4.654 1.713-7.108 2.019 0.9799 0.0719 1.959 0.1613 2.935 0.2682 0.6153 0.0674 1.232 0.1421 1.832 0.2959 0.5996 0.1538 1.185 0.3896 1.684 0.7552 0.5478 0.401 0.978 0.9483 1.299 1.546 0.6402 1.192 0.8543 2.563 0.9727 3.91 0.1514 1.723 0.1624 3.459 0.033 5.184 0.1159-1.154 0.3577-2.296 0.72-3.398 0.6528-1.986 1.704-3.848 3.12-5.386 0.5617-0.6105 1.18-1.17 1.859-1.648 2.078-1.463 4.718-2.106 7.236-1.761-2.559 0.113-5.149-0.6909-7.194-2.233-1.042-0.7854-1.949-1.763-2.58-2.905-0.9758-1.766-1.25-3.907-0.751-5.861h0.00001z" filter="url(#filter4538-7)" fill="url(#radialGradient18838)"/>
<path id="path4542-7" opacity="0.11" style="color:#000000" d="m-39.5 236.1c-1.23 4.679-2.075 9.459-2.526 14.28-0.637 6.812-0.4837 13.67-0.8493 20.5-0.3103 5.798-0.9911 11.66 0.0159 17.37 0.4802 2.727 1.343 5.385 2.555 7.875 0.1925-0.9501 0.3336-1.911 0.4224-2.876 0.4266-4.636-0.3541-9.287-0.6178-13.94-0.4622-8.147 0.6657-16.29 1.125-24.44 0.3526-6.255 0.3108-12.53-0.125-18.78h-0.00004z" filter="url(#filter4592-2)"/>
<path id="path4596-3" d="m16.69 165.9c-2.162 1.969 1.014 4.928 2.52 8.404 0.9363 2.161 3.527 5.205 6.032 4.718 1.885-0.3668 3.054-3.079 2.876-4.991-0.3442-3.689-3.457-4.553-5.717-5.819-1.791-1.004-4.193-3.694-5.711-2.311z" filter="url(#filter15185-2)" fill="#838384"/>
<path id="path14296-0" d="m516 331.9c-0.6714 1.719-1.627 3.327-2.816 4.738-2.624 3.115-6.268 5.17-9.896 7.02-6.189 3.154-12.6 5.922-18.42 9.717-3.898 2.542-7.496 5.527-10.86 8.742-2.877 2.75-5.606 5.687-8.832 8.018-3.256 2.351-7.019 4.054-10.99 4.65-4.83 0.7248-9.821-0.2129-14.3-2.164-3.138-1.367-6.156-3.323-7.963-6.229-1.814-2.918-2.228-6.488-2.233-9.924-0.008-6.077 1.118-12.09 2.178-18.07 0.881-4.972 1.719-9.955 2.26-14.98 0.9834-9.131 0.9763-18.35 0.3199-27.51-0.1099-1.534-0.2375-3.083-0.008-4.604 0.2292-1.521 0.8548-3.037 2.021-4.04 1.077-0.9266 2.521-1.336 3.939-1.414 1.419-0.0785 2.834 0.1466 4.24 0.352 3.313 0.484 6.652 0.8649 9.889 1.717 2.043 0.5374 4.033 1.259 6.072 1.811 3.403 0.9204 6.966 1.361 10.47 0.9519 3.769-0.4409 7.43-1.857 11.22-1.765 1.557 0.0378 3.102 0.3317 4.586 0.7998 1.515 0.4777 3.009 1.162 4.123 2.295 0.8464 0.8613 1.436 1.945 1.879 3.069 0.6598 1.674 1.015 3.457 1.167 5.249 0.1348 1.588 0.1134 3.194 0.4143 4.759 0.495 2.575 1.847 4.923 3.528 6.935s3.69 3.72 5.696 5.408c1.999 1.681 4.011 3.355 6.167 4.828 1.012 0.6916 2.056 1.339 3.017 2.101 0.9609 0.7611 1.845 1.647 2.445 2.715 0.8149 1.449 1.064 3.208 0.6831 4.826h0.00002z" clip-path="url(#clipPath14489-3)" transform="translate(-410 -1)" fill="url(#linearGradient18842)"/>
<path id="path14296-3-7" d="m512.9 328.7c-0.6172 1.547-1.49 2.993-2.571 4.26-2.402 2.814-5.729 4.654-9.038 6.311-5.653 2.83-11.5 5.318-16.82 8.735-3.554 2.284-6.841 4.966-9.918 7.86-2.629 2.473-5.125 5.116-8.066 7.208-2.981 2.12-6.418 3.647-10.04 4.181-4.409 0.6504-8.96-0.1931-13.06-1.946-2.857-1.222-5.617-2.97-7.272-5.6-1.646-2.617-2.031-5.83-2.039-8.922-0.0135-5.465 1.018-10.87 1.989-16.25 0.807-4.469 1.575-8.948 2.064-13.46 0.8885-8.208 0.8481-16.5 0.2921-24.74-0.0931-1.38-0.2002-2.774 0.0118-4.141s0.778-2.727 1.826-3.63c0.9828-0.8469 2.303-1.218 3.599-1.286s2.587 0.1418 3.871 0.3307c3.023 0.4449 6.072 0.7792 9.031 1.543 1.865 0.4817 3.684 1.132 5.545 1.628 3.109 0.829 6.362 1.225 9.559 0.8558 3.441-0.3973 6.787-1.671 10.25-1.587 1.421 0.0348 2.831 0.3004 4.188 0.7191 1.382 0.426 2.749 1.034 3.765 2.063 0.7657 0.7754 1.295 1.754 1.716 2.759 0.6257 1.497 1.033 3.097 1.066 4.719 0.0347 1.694-0.3355 3.395-0.1059 5.073 0.1864 1.363 0.7635 2.648 1.501 3.809 0.7371 1.161 1.634 2.211 2.523 3.261 1.717 2.029 3.439 4.097 5.593 5.655 2.452 1.774 5.362 2.811 7.895 4.467 0.7551 0.4936 1.486 1.052 2.018 1.781 0.8972 1.228 1.139 2.908 0.6238 4.339h0.00002z" clip-path="url(#clipPath14481-1)" filter="url(#filter14416-8)" transform="translate(-410 -1)" fill="#cd8907"/>
<path id="path14296-3-1-9" d="m508.8 327.9c-0.6015 1.265-1.382 2.444-2.311 3.491-2.153 2.428-5.061 4.099-8.123 5.172-5.042 1.767-10.55 2.004-15.49 4.016-3.016 1.226-5.731 3.073-8.479 4.819-2.222 1.411-4.492 2.769-6.932 3.756-2.755 1.115-5.686 1.74-8.626 2.179-1.871 0.2788-3.763 0.4842-5.652 0.387s-3.784-0.5074-5.451-1.401c-1.264-0.6775-2.401-1.653-3.076-2.918-0.7496-1.406-0.8796-3.056-0.8624-4.649 0.0457-4.246 1.026-8.446 0.9962-12.69-0.0256-3.696-0.8152-7.345-1.042-11.03-0.4366-7.095 1.205-14.31-0.2399-21.27-0.2312-1.114-0.5421-2.227-0.527-3.365 0.008-0.5689 0.0988-1.141 0.3154-1.667 0.2166-0.5261 0.5629-1.005 1.025-1.338 0.3888-0.2799 0.8504-0.4502 1.323-0.5268 0.4729-0.0765 0.9575-0.0616 1.432 0.007 0.9484 0.1366 1.852 0.4822 2.775 0.7372 2.642 0.7295 5.433 0.7143 8.117 1.265 1.685 0.3456 3.317 0.9115 4.984 1.334 2.8 0.71 5.72 1.013 8.592 0.7014 3.088-0.3354 6.107-1.375 9.213-1.3 1.273 0.0307 2.537 0.25 3.765 0.5894s2.455 0.8195 3.384 1.691c0.6693 0.6281 1.151 1.431 1.542 2.261 0.5703 1.212 0.9673 2.529 0.958 3.868-0.005 0.6968-0.119 1.388-0.1867 2.081-0.0677 0.6935-0.0878 1.404 0.0914 2.077 0.1801 0.6766 0.5542 1.287 0.9827 1.84 0.4285 0.5536 0.9147 1.06 1.358 1.602 1.242 1.517 2.13 3.285 3.097 4.991 0.9676 1.705 2.052 3.393 3.58 4.621 2.08 1.672 4.778 2.34 7.096 3.661 0.6788 0.3868 1.337 0.8408 1.814 1.459 0.3823 0.4955 0.6376 1.088 0.7351 1.706 0.0975 0.6182 0.0369 1.261-0.1744 1.85h0.00009z" clip-path="url(#clipPath14473-5)" filter="url(#filter14432-2)" transform="matrix(1.143 0 0 1.232 -479 -78.13)" fill="#f5c021"/>
<path id="path16493" d="m27.31 289.6c3.276-0.887 6.066 1.597 8.442 3.472 1.535 1.309 3.753 0.9799 5.637 1.042 3.121-0.1132 6.225 0.5228 9.347 0.1358 6.145-0.5193 12.17-2.03 18.34-2.29 2.949-0.1858 6.26-0.3572 8.808 1.365 1.033 0.7155 2.547 3.741 3.566 2.605-0.4203-3.178-2.777-6.256-5.939-7.102-2.475-0.3894-4.99 0.2913-7.489 0.0711-7.423-0.1771-14.79-1.555-22.23-1.16-5.176 0.0448-10.35-0.195-15.52-0.3966-2.031-0.4149-2.747 1.389-3.849 2.081" filter="url(#filter17044)" fill="url(#linearGradient18844)"/>
<path id="path15189-4" opacity=".75" d="m361.8 209.3c0.002-1.533-7.565-10.06-9.79-8.486-2.225 1.57-0.4917 3.784-0.296 5.498s-0.9454 6.609 0.2385 7.259 3.366-2.52 5.301-4.277c1.558-1.415 4.544 1.539 4.546 0.006z" transform="matrix(-.09596 -.9570 -.7748 .1185 238.9 550.6)" filter="url(#filter14706-3)" fill="#7c7c7c"/>
<path id="path28767-9-3" opacity=".25" d="m352 200.9c-1.452 0.3888-1.23 3.994-0.296 5.498 0.7889 1.27 3.072 2.271 3.759 1.005 1.114-2.056-1.472-7.036-3.462-6.503z" transform="matrix(-.06992 .9570 -.5645 -.1185 76.57 -123)" filter="url(#filter15211-9)" fill="#7c7c7c"/>
<path id="path29714-8-2" opacity=".35" d="m71.48 294.6c-0.5626-1.102-1.587-1.926-2.729-2.403-1.142-0.4767-2.397-0.6289-3.634-0.6194-2.475 0.0191-4.935 0.6636-7.4 0.4503-2.083-0.1802-4.059-0.963-6.09-1.457-2.097-0.5105-4.322-0.7097-6.405-0.143-2.226 0.6057-4.189 2.094-5.419 4.045-1.084 1.721-1.599 3.753-1.761 5.78-0.162 2.028 0.01297 4.066 0.2182 6.089 0.1484 1.464 0.3135 2.931 0.6676 4.359s0.9042 2.823 1.766 4.015c1.241 1.716 3.083 2.94 5.069 3.675 3.242 1.201 6.934 1.136 10.13-0.1772 5.659-2.457 10.45-6.864 13.37-12.3 1.045-1.946 1.857-4.019 2.382-6.165 0.2085-0.8528 0.3722-1.722 0.3798-2.6 0.0076-0.8779-0.1466-1.769-0.5457-2.551z" filter="url(#filter14897-2)" fill="url(#radialGradient18846)"/>
<path id="path29714-8-3-0" opacity=".35" d="m71.48 295.6c-0.5626-1.102-1.587-1.926-2.729-2.403-1.142-0.4767-2.397-0.6289-3.634-0.6194-2.475 0.0191-4.935 0.6636-7.4 0.4503-2.083-0.1802-4.059-0.963-6.09-1.457-2.097-0.5105-4.322-0.7097-6.405-0.143-2.226 0.6057-4.189 2.094-5.419 4.045-1.084 1.721-1.599 3.753-1.761 5.78-0.162 2.028 0.01297 4.066 0.2182 6.089 0.1484 1.464 0.3135 2.931 0.6676 4.359s0.9042 2.823 1.766 4.015c1.241 1.716 3.083 2.94 5.069 3.675 3.242 1.201 6.934 1.136 10.13-0.1772 5.659-2.457 10.45-6.864 13.37-12.3 1.045-1.946 1.857-4.019 2.382-6.165 0.2085-0.8528 0.3722-1.722 0.3798-2.6 0.0076-0.8779-0.1466-1.769-0.5457-2.551z" filter="url(#filter14951-8)" transform="matrix(1 0 0 .7229 -.000155 79.76)" fill="url(#radialGradient18848)"/>
<path id="path29714-5-4" d="m76.19 284.3c-0.4052-1.104-1.118-2.082-1.991-2.87-0.8723-0.7883-1.9-1.392-2.983-1.852-2.165-0.9185-4.521-1.261-6.832-1.696-2.179-0.4093-4.342-0.9063-6.528-1.277-2.271-0.3855-4.618-0.6321-6.865-0.1253-1.966 0.4433-3.784 1.459-5.272 2.819-1.487 1.36-2.649 3.056-3.485 4.89-1.472 3.23-1.935 6.865-1.654 10.4 0.2088 2.633 0.8753 5.346 2.609 7.339 1.401 1.611 3.387 2.615 5.434 3.221 3.525 1.043 7.367 0.9882 10.86-0.1553 5.767-1.931 10.88-5.774 14.33-10.78 1.139-1.65 2.112-3.448 2.553-5.403 0.336-1.49 0.3483-3.081-0.1779-4.515z" fill="#020204"/>
<path id="path29714-3-9-9" d="m362.2 276.5c-0.5493 0.0306-1.081 0.0909-1.625 0.1875-3.47 0.6169-6.647 2.809-8.438 5.844-1.264 2.143-1.84 4.676-1.656 7.156 0.0732-1.742 0.5295-3.447 1.375-4.969 1.434-2.582 4.032-4.53 6.938-5.062 1.79-0.3282 3.632-0.131 5.438 0.0937 1.733 0.2156 3.481 0.4429 5.188 0.8125 2.641 0.5721 5.254 1.451 7.469 3 0.5165 0.3612 0.9996 0.7686 1.406 1.25 0.4067 0.4814 0.7219 1.038 0.8438 1.656 0.1782 0.9043-0.0794 1.853-0.5312 2.656-0.4519 0.8033-1.065 1.507-1.719 2.156-0.5292 0.5258-1.095 1.034-1.656 1.531 2.559-0.4957 5.152-1.198 7.281-2.688 0.8998-0.6296 1.715-1.385 2.25-2.344 0.5348-0.9591 0.7624-2.121 0.5-3.188-0.1771-0.7197-0.5714-1.382-1.062-1.938-0.4911-0.5551-1.08-1.012-1.688-1.438-2.679-1.877-5.815-3.079-9.062-3.469-2.081-0.3829-4.181-0.706-6.281-0.9688-1.643-0.2056-3.321-0.3731-4.969-0.2812z" clip-path="url(#clipPath14822-9)" transform="translate(-310 -1)" filter="url(#filter14812-5)" fill="url(#radialGradient18850)"/>
<path id="path29714-3-9-3-8" d="m362.2 276.5c-0.5493 0.0306-1.081 0.0909-1.625 0.1875-3.47 0.6169-6.647 2.809-8.438 5.844-1.264 2.143-1.84 4.676-1.656 7.156 0.0732-1.742 0.5295-3.447 1.375-4.969 1.434-2.582 4.032-4.53 6.938-5.062 1.79-0.3282 3.632-0.131 5.438 0.0937 1.733 0.2156 3.481 0.4429 5.188 0.8125 2.641 0.5721 5.254 1.451 7.469 3 0.5165 0.3612 0.9996 0.7686 1.406 1.25 0.4067 0.4814 0.7219 1.038 0.8438 1.656 0.1782 0.9043-0.0794 1.853-0.5312 2.656-0.4519 0.8033-1.065 1.507-1.719 2.156-0.5292 0.5258-1.095 1.034-1.656 1.531 2.559-0.4957 5.152-1.198 7.281-2.688 0.8998-0.6296 1.715-1.385 2.25-2.344 0.5348-0.9591 0.7624-2.121 0.5-3.188-0.1771-0.7197-0.5714-1.382-1.062-1.938-0.4911-0.5551-1.08-1.012-1.688-1.438-2.679-1.877-5.815-3.079-9.062-3.469-2.081-0.3829-4.181-0.706-6.281-0.9688-1.643-0.2056-3.321-0.3731-4.969-0.2812z" clip-path="url(#clipPath14822-2-4)" transform="translate(-310 -1)" filter="url(#filter14812-0-9)" fill="url(#linearGradient18852)"/>
<path id="path14967-1-0" d="m-61.5 183.4c-2.784 3.474-5.562 6.952-8.334 10.43-2.857 3.588-5.708 7.181-8.587 10.75-3.533 4.381-7.149 8.794-9.449 13.93-1.976 4.413-2.911 9.207-4.265 13.85-1.538 5.272-3.626 10.37-5.971 15.34-2.165 4.585-4.55 9.063-6.939 13.54-1.738 3.254-3.505 6.581-4.108 10.22-0.4763 2.876-0.1985 5.844 0.5338 8.666 0.7322 2.822 1.91 5.511 3.238 8.106 5.667 11.08 14.17 20.62 24.24 27.92 4.571 3.314 9.467 6.181 14.6 8.526 2.782 1.27 5.714 2.404 8.772 2.457 1.529 0.0265 3.074-0.2254 4.474-0.8406 1.4-0.6151 2.651-1.604 3.483-2.887 1.023-1.578 1.37-3.538 1.165-5.407-0.2053-1.869-0.9348-3.653-1.913-5.259-2.39-3.923-6.165-6.761-9.796-9.573-7.841-6.074-15.42-12.48-22.68-19.24-2.049-1.909-4.098-3.878-5.53-6.284-1.394-2.344-2.148-5.014-2.658-7.693-1.4-7.349-1.041-15.08 1.46-22.13 0.9782-2.758 2.271-5.392 3.518-8.04 2.161-4.589 4.207-9.266 7.049-13.47 3.538-5.23 8.267-9.66 11.15-15.28 2.434-4.741 3.42-10.07 4.362-15.32 0.7369-4.104 1.465-8.21 2.184-12.32z" fill="#020204"/>
<path id="path15007-0" opacity=".95" d="m232.3 224.3c-2.321 2.137-4.333 4.611-5.953 7.318-2.668 4.459-4.239 9.468-6.178 14.29-1.444 3.589-3.125 7.193-3.327 11.06-0.1035 1.984 0.1906 3.966 0.2567 5.952 0.0662 1.986-0.1176 4.051-1.09 5.784-0.8134 1.45-2.166 2.589-3.733 3.144 2.115 0.7069 4.005 2.075 5.335 3.865 1.115 1.499 1.828 3.254 2.796 4.851 0.7872 1.298 1.753 2.501 2.943 3.445 1.19 0.9434 2.611 1.62 4.117 1.813 2.066 0.2651 4.236-0.4282 5.765-1.842-1.925-18.04-0.162-36.46 5.15-53.8 0.3354-1.095 0.6872-2.198 0.7703-3.341 0.0831-1.142-0.129-2.348-0.8241-3.258-0.3701-0.4847-0.8684-0.8706-1.43-1.108-0.5618-0.2372-1.186-0.3251-1.791-0.2524-0.6055 0.0727-1.191 0.306-1.681 0.6695-0.4896 0.3636-0.8823 0.8565-1.127 1.415h-0.00002z" clip-path="url(#clipPath15031-3)" filter="url(#filter15053-7)" transform="translate(-310 -1)" fill="#7c7c7c"/>
<path id="path4635-1" d="m-102.4 280c1.599-0.663 3.398-0.7836 5.101-0.4696s3.311 1.049 4.743 2.022c2.864 1.946 4.988 4.778 7.023 7.58 4.672 6.434 9.169 13 13.24 19.83 3.306 5.538 6.344 11.26 10.16 16.45 2.494 3.392 5.307 6.539 7.813 9.922s4.728 7.056 5.839 11.12c1.444 5.277 0.8846 11.09-1.627 15.95-1.767 3.419-4.476 6.352-7.772 8.339s-7.171 3.014-11.02 2.87c-6.114-0.2293-11.7-3.285-17.38-5.549-11.58-4.612-24.16-6.059-36.1-9.652-3.669-1.104-7.276-2.411-10.97-3.426-1.641-0.4512-3.309-0.8482-4.859-1.551-1.55-0.7032-3-1.749-3.862-3.217-0.6664-1.134-0.9484-2.47-0.9302-3.786s0.3259-2.615 0.7738-3.852c0.8958-2.474 2.343-4.714 3.32-7.157 1.595-3.989 1.882-8.388 1.667-12.68-0.2151-4.291-0.9108-8.545-1.205-12.83-0.1312-1.914-0.1807-3.853 0.1848-5.736 0.3654-1.883 1.176-3.725 2.558-5.055 1.274-1.227 2.965-1.955 4.696-2.317 1.732-0.3612 3.515-0.3775 5.284-0.3376 1.768 0.0399 3.541 0.1342 5.304-0.0106 1.763-0.1449 3.533-0.5406 5.069-1.418 1.46-0.8345 2.654-2.074 3.644-3.434 0.9894-1.36 1.789-2.846 2.609-4.314 0.8198-1.468 1.668-2.932 2.742-4.226 1.073-1.295 2.389-2.423 3.943-3.067z" fill="url(#linearGradient18854)"/>
<path id="path13596-6" d="m-99.89 282.8c1.455-0.5862 3.094-0.6506 4.623-0.3041 1.528 0.3466 2.95 1.09 4.188 2.047 2.478 1.914 4.2 4.614 5.854 7.269 3.97 6.433 7.851 12.93 11.52 19.57 2.777 4.993 5.425 10.09 8.837 14.68 2.264 3.042 4.847 5.831 7.158 8.837 2.311 3.005 4.371 6.282 5.393 9.933 1.316 4.706 0.7826 9.91-1.495 14.23-1.638 3.106-4.152 5.746-7.186 7.513-3.034 1.766-6.579 2.649-10.09 2.488-5.598-0.2577-10.71-3.054-15.98-4.951-10.1-3.666-21.05-4.158-31.42-7.02-3.715-1.008-7.337-2.353-11.07-3.294-1.652-0.4166-3.333-0.7571-4.902-1.419-1.569-0.6622-3.047-1.689-3.898-3.165-0.6328-1.097-0.8856-2.388-0.8465-3.654s0.3592-2.51 0.8099-3.694c0.9016-2.367 2.32-4.51 3.229-6.875 1.379-3.574 1.55-7.504 1.294-11.33-0.256-3.822-0.9211-7.609-1.153-11.43-0.1037-1.709-0.1193-3.439 0.2263-5.116s1.076-3.31 2.295-4.512c1.321-1.309 3.141-2.024 4.977-2.304 1.836-0.2801 3.706-0.1581 5.555 0.007 1.849 0.165 3.705 0.3727 5.561 0.2616s3.736-0.5633 5.269-1.607c1.397-0.9446 2.446-2.324 3.244-3.798 0.7986-1.474 1.368-3.055 1.976-4.617 0.6088-1.561 1.267-3.122 2.222-4.51 0.9551-1.388 2.236-2.605 3.806-3.235" filter="url(#filter14148-8)" fill="#d99a03"/>
<path id="path4635-2-4" d="m138.8 281.2c1.409-0.7122 3.071-0.8581 4.616-0.5368 1.546 0.3213 2.978 1.091 4.196 2.096 2.435 2.01 3.98 4.875 5.419 7.685 3.305 6.455 6.383 13.05 10.34 19.13 2.869 4.41 6.18 8.517 9.082 12.9 3.936 5.951 7.136 12.5 8.456 19.51 0.8882 4.716 0.859 9.81-1.372 14.06-1.469 2.796-3.85 5.09-6.663 6.525s-6.043 2.017-9.189 1.734c-4.954-0.4451-9.454-2.925-14.12-4.655-8.275-3.069-17.22-3.803-25.73-6.119-3.592-0.9766-7.11-2.235-10.75-3.01-1.606-0.3416-3.244-0.5912-4.777-1.179-1.533-0.5882-2.986-1.566-3.77-3.009-0.5514-1.016-0.7366-2.205-0.6543-3.357 0.0822-1.153 0.4208-2.275 0.8646-3.342 0.8876-2.134 2.201-4.089 2.89-6.296 1.013-3.242 0.5967-6.757-0.1636-10.07-0.7603-3.311-1.857-6.561-2.194-9.941-0.1505-1.505-0.1468-3.04 0.1914-4.515s1.027-2.892 2.109-3.95c1.393-1.362 3.344-2.04 5.283-2.229 1.939-0.1893 3.892 0.0689 5.82 0.3512s3.868 0.59 5.815 0.4999c1.947-0.0902 3.928-0.6108 5.453-1.824 1.508-1.2 2.456-2.987 2.999-4.836 0.5436-1.849 0.72-3.782 0.9427-5.696s0.5004-3.846 1.23-5.63c0.7293-1.784 1.961-3.428 3.681-4.297z" filter="url(#filter14140-3)" transform="matrix(1 0 0 .9820 -240 2.959)" fill="#f5bd0c"/>
<path id="path4792-8" d="m-83.59 295c2.606 4.713 4.196 10.12 6.781 14.88 2.378 4.372 5.084 8.874 7.5 12.91 1.075 1.795 3.583 4.555 6.119 8.837 2.298 3.881 4.618 9.297 5.917 11.12-0.7455-2.129-2.279-7.847-4.109-11.92-1.71-3.809-3.7-5.982-4.927-8.031-2.416-4.032-5.017-7.656-7.5-11.5-3.425-5.302-6.036-11.24-9.781-16.28z" filter="url(#filter14176-5)" fill="url(#linearGradient18856)"/>
</g>
</svg>
