<svg xmlns:rdf="http://www.w3.org/1999/02/22-rdf-syntax-ns#" xmlns="http://www.w3.org/2000/svg" xml:space="preserve" height="128.01" viewBox="0 0 488.45276 128.0125" width="488.45" version="1.1" xmlns:cc="http://creativecommons.org/ns#" xmlns:dc="http://purl.org/dc/elements/1.1/"><g transform="matrix(1.25 0 0 -1.25 -250.77 486.75)"><g><path id="path124" d="m220.62 55.865c-17.06 0-24.473 13.007-24.473 24.963 0 12.936 8.3192 25.312 24.543 25.312 16.291 0 24.542-12.237 24.613-25.172 0-12.865-8.1811-25.174-24.684-25.104zm34.689 0.63086v48.945h2.2383v-17.551h18.809c20.558 0.07 20.558-31.395 0-31.395h-21.047zm45.178 0v48.945h34.123v-2.168h-31.885v-21.465h29.367v-2.168h-29.367v-20.977h30.836v-2.168h-33.074zm45.59 0v48.945h2.2363v-31.744l-0.20898-11.539 35.174 43.283v-48.945h-2.2383v31.744l0.20899 11.328-34.961-43.072h-0.21094zm-125.46 1.537c14.755 0 22.445 10.768 22.445 22.936 0.07 11.748-7.7625 23.004-22.375 23.004-14.685 0-22.235-11.538-22.305-23.074-0.07-11.468 7.2706-22.865 22.234-22.865zm36.928 0.63086h18.809c17.479 0 17.479 27.059 0 27.059h-18.809v-27.059z" transform="matrix(0.8 0 0 -0.8 161.04 429.87)" fill="#3e3935"/><path id="path140" d="m420.95 123.22c-14.892 0-25.313 10-25.242 25.312 0 13.356 8.6022 24.963 25.242 24.963 7.2725 0 13.356-2.7979 18.459-7.9004v-18.32h-20.627v3.2871h17.062v13.703c-4.1962 3.8475-9.6508 5.6641-14.895 5.6641-14.262 0-21.607-9.9298-21.607-21.465-0.0687-11.329 7.2737-21.816 21.607-21.816 5.525 0 11.467 2.0973 15.732 6.291l2.166-2.375c-4.9625-4.895-11.465-7.3438-17.898-7.3438zm-224.79 0.69922v48.947h16.572c17.131 0 25.103-12.587 24.824-25.033-0.28125-12.026-8.253-23.914-24.824-23.914h-16.572zm68.098 0.002-21.955 48.945h4.0547l5.3144-12.027h29.229l5.3828 12.027h4.0566l-21.957-48.945h-4.125zm22.812 0v0.0683l19.088 29.299v19.576h3.7773v-19.576l19.158-29.299v-0.0683h-4.4043l-16.641 25.732-16.572-25.732h-4.4062zm53.475 0v48.943h31.324v-3.5625h-27.549v-45.381h-3.7754zm40.688 0v48.945h3.707v-48.945h-3.707zm70.822 0v48.945h3.7754v-22.234h31.186v22.234h3.7773v-48.945h-3.7773v23.283h-31.186v-23.283h-3.7754zm47.957 0.0664v3.3574h17.689v45.521h3.7774v-45.521h16.441v-3.3574h-37.908zm-300.07 3.498h12.795c14.125 0 20.838 10.138 21.047 20.348 0.21 10.489-6.5031 21.396-21.047 21.396h-12.795v-41.744zm66.348 0.0703 13.146 29.787h-26.291l13.145-29.787z" transform="matrix(0.8 0 0 -0.8 161.04 429.87)" fill="#ffb700"/><path id="path120" d="m303.03 350.28h-22.018l15.569 15.569-17.097 17.098-15.569-15.569v22.017h-24.18v-22.017l-15.569 15.569-17.097-17.098 15.568-15.569h-22.017v-24.18h22.017l-15.568-15.568 17.097-17.098 15.569 15.569v-22.018h24.18v22.018l15.569-15.569 17.097 17.098-15.568 15.568h22.017v24.18z" fill="#fcb813"/><path id="path174" d="m239.73 333.19v10.015" fill="#fcb814"/><path id="path178" d="m281.01 350.28h-17.099v17.097l-12.089-12.09-12.09 12.091v-17.098h-17.098l12.09-12.09-12.089-12.09h17.097v-17.099l12.091 12.091 12.088-12.089v17.097h17.098l-12.089 12.09 12.09 12.09z" fill="#f48120"/><path id="path182" d="m263.91 343.2v7.082h-7.082l-5.007 5.007-5.008-5.007h-7.083v-7.083l-5.007-5.007 5.007-5.008v-7.082h7.082l5.009-5.008 5.008 5.008h7.081v7.081l5.008 5.009-5.008 5.008z" fill="#ef4e25"/><path id="path186" d="m256.83 350.28h-10.015l-7.083-7.083v-10.015l7.082-7.082h10.017l7.081 7.081v10.017l-7.082 7.082z" fill="#ed3024"/></g></g></svg>
