<svg xmlns:rdf="http://www.w3.org/1999/02/22-rdf-syntax-ns#" xmlns="http://www.w3.org/2000/svg" height="150" width="694" version="1.1" xmlns:cc="http://creativecommons.org/ns#" xmlns:dc="http://purl.org/dc/elements/1.1/" viewBox="0 0 694.00001 150">
<g transform="translate(156.69 51.8)">
<g>
<path id="path1458" d="m62.962-39.768c-19 0-34.899 15.899-34.899 35.118v62.519c0 19.219 15.899 34.899 34.899 34.899h25.181c19.219 0 34.899-15.679 34.899-34.899v-62.519c0-19.219-15.679-35.118-34.899-35.118h-25.181zm69.083 0v132.75h27.61v-39.986l42.416-11.042c15.244-3.9756 27.391-17.665 27.391-34.232v-12.376c0-19.439-15.689-35.118-35.127-35.118h-62.29zm105.32 0v132.54h27.62v-104.92h33.127c3.9817 0 7.0693 3.532 7.0693 7.5076v97.417h27.61v-97.417c0-19.219-15.899-35.118-34.68-35.118h-60.746zm141.25 0c-19.658 0-34.899 15.899-34.899 35.118v97.417h27.61v-40.425l40.644-10.823v-28.715l-40.644 10.823v-28.277c0-3.9756 3.3129-7.5076 7.2885-7.5076h46.389v-27.61h-46.389zm50.79 0 39.329 132.54h28.487l39.319-132.54h-29.373l-24.304 83.269-24.076-83.269h-29.382zm-366.44 27.829h25.181c3.9817 0 7.2884 3.3129 7.2884 7.2885v62.519c0 3.9756-3.3067 7.2885-7.2884 7.2885h-25.181c-3.9756 0-7.2884-3.3129-7.2884-7.2885v-62.519c0-3.9756 3.3128-7.2885 7.2884-7.2885zm96.693 0h34.68c3.9756 0 7.5171 3.3129 7.5171 7.2885v12.376c0 2.6463-1.7691 5.0792-3.9825 6.4024l-38.214 9.9466v-36.013z" fill="#393b36"/>
<g fill-rule="evenodd">
<path id="path1478" d="m-80.353-31.928c12.067 8.3414 12.378 26.957 0 35.146-12.628-8.4572-13.134-27.536 0-35.146" fill="#c9e3b3"/>
<path id="path1482" d="m-119.26-16.272c14.421-2.6341 27.817 10.305 24.841 24.847-14.902 2.9512-28.75-10.183-24.841-24.847" fill="#5d9a93"/>
<path id="path1486" d="m-135.71 22.312c8.3353-12.067 26.963-12.384 35.146 0-8.4572 12.622-27.536 13.134-35.146 0" fill="#187971"/>
<path id="path1490" d="m-120.05 61.221c-2.6402-14.427 10.311-27.817 24.847-24.853 2.9512 14.908-10.183 28.762-24.847 24.853" fill="#65c9d1"/>
<path id="path1494" d="m-42.552 62.006c-14.427 2.6402-27.823-10.305-24.853-24.847 14.908-2.9573 28.756 10.177 24.853 24.847" fill="#afd8ce"/>
<path id="path1498" d="m-26.116 23.426c-8.3353 12.067-26.951 12.378-35.14 0 8.4572-12.628 27.536-13.134 35.14 0" fill="#bbe0c5"/>
<path id="path1502" d="m-41.773-15.487c2.6341 14.421-10.305 27.823-24.841 24.847-2.9512-14.902 10.171-28.75 24.841-24.847" fill="#a3d283"/>
<path id="path1506" d="m-48.407-51.344c7.4634 12.622-0.03049 29.664-14.701 31.92-7.939-12.963-0.40853-30.5 14.701-31.92" fill="#e0efd3"/>
<path id="path1510" d="m-111.31-51.8c14.262 3.3658 21.347 20.597 12.786 32.725-14.829-3.2744-22.256-20.86-12.786-32.725" fill="#93bab4"/>
<path id="path1514" d="m-154.31-9.1811c12.573-7.5426 29.67-0.15244 32.012 14.512-12.908 8.006-30.506 0.59146-32.012-14.512" fill="#0e6960"/>
<path id="path1518" d="m-155.92 49.815c4.0305-14.097 21.567-20.372 33.292-11.268-3.9634 14.665-21.878 21.274-33.292 11.268" fill="#13aebc"/>
<path id="path1522" d="m-110.74 96.771c-7.756-12.451-0.62804-29.652 13.988-32.244 8.2072 12.786 1.0854 30.494-13.988 32.244" fill="#b8e3e9"/>
<path id="path1526" d="m-53.851 98.2c-14.048-4.189-20.109-21.799-10.872-33.415 14.616 4.1341 21.006 22.116 10.872 33.414" fill="#0d7666"/>
<path id="path1530" d="m-7.4383 56.012c-12.78 7.189-29.652-0.70121-31.579-15.427 13.14-7.6341 30.506 0.28658 31.579 15.427" fill="#41ba78"/>
<path id="path1534" d="m-5.1054-5.6848c-3.9146 14.134-21.403 20.543-33.195 11.536 3.835-14.707 21.695-21.444 33.195-11.536" fill="#73c590"/>
</g>
</g>
</g>
</svg>
