<?xml version="1.0" encoding="UTF-8" standalone="no"?>
<!-- Generator: Adobe Illustrator 16.0.3, SVG Export Plug-In . SVG Version: 6.00 Build 0)  -->

<svg
   xmlns:dc="http://purl.org/dc/elements/1.1/"
   xmlns:cc="http://creativecommons.org/ns#"
   xmlns:rdf="http://www.w3.org/1999/02/22-rdf-syntax-ns#"
   xmlns:svg="http://www.w3.org/2000/svg"
   xmlns="http://www.w3.org/2000/svg"
   xmlns:sodipodi="http://sodipodi.sourceforge.net/DTD/sodipodi-0.dtd"
   xmlns:inkscape="http://www.inkscape.org/namespaces/inkscape"
   version="1.1"
   id="Layer_1"
   x="0px"
   y="0px"
   width="220px"
   height="40px"
   viewBox="0 0 220 40"
   enable-background="new 0 0 220 40"
   xml:space="preserve"
   inkscape:version="0.91 r13725"
   sodipodi:docname="patternfly-logo.svg"><metadata
     id="metadata36"><rdf:RDF><cc:Work
         rdf:about=""><dc:format>image/svg+xml</dc:format><dc:type
           rdf:resource="http://purl.org/dc/dcmitype/StillImage" /><dc:title></dc:title></cc:Work></rdf:RDF></metadata><defs
     id="defs34" /><sodipodi:namedview
     pagecolor="#ffffff"
     bordercolor="#666666"
     borderopacity="1"
     objecttolerance="10"
     gridtolerance="10"
     guidetolerance="10"
     inkscape:pageopacity="0"
     inkscape:pageshadow="2"
     inkscape:window-width="640"
     inkscape:window-height="480"
     id="namedview32"
     showgrid="false"
     inkscape:zoom="1"
     inkscape:cx="37.77095"
     inkscape:cy="76.828057"
     inkscape:current-layer="g3" /><g
     id="g3"><path
       d="M 166.09375 14.40625 L 166.09375 20.900391 C 166.09375 21.007391 166.09742 21.139922 166.10742 21.294922 C 166.11742 21.446922 166.12563 21.603906 166.14062 21.753906 C 166.07662 21.607906 165.99725 21.454828 165.90625 21.298828 C 165.82025 21.142828 165.74183 21.007344 165.67383 20.902344 L 161.30859 14.408203 L 159.26562 14.408203 L 159.26562 25.685547 L 161.42969 25.685547 L 161.42969 19.111328 C 161.42969 18.992328 161.42111 18.8495 161.41211 18.6875 C 161.40411 18.5235 161.39891 18.382672 161.37891 18.263672 C 161.44591 18.399672 161.51747 18.546078 161.60547 18.705078 C 161.69347 18.864078 161.7717 19.002328 161.8457 19.111328 L 166.32031 25.685547 L 168.24805 25.683594 L 168.24805 14.40625 L 166.09375 14.40625 z M 56.378906 14.408203 L 56.378906 25.685547 L 58.556641 25.683594 L 58.556641 21.533203 L 61.216797 21.533203 C 61.672797 21.533203 62.084078 21.484766 62.455078 21.384766 C 62.825078 21.284766 63.1515 21.147656 63.4375 20.972656 C 63.7225 20.797656 63.968828 20.593281 64.173828 20.363281 C 64.378828 20.130281 64.545734 19.884141 64.677734 19.619141 C 64.808734 19.354141 64.903797 19.079781 64.966797 18.800781 C 65.031797 18.519781 65.0625 18.241703 65.0625 17.970703 C 65.0625 17.535703 64.994328 17.106641 64.861328 16.681641 C 64.727328 16.255641 64.509078 15.876109 64.205078 15.537109 C 63.901078 15.197109 63.505578 14.92675 63.017578 14.71875 C 62.529578 14.51275 61.929797 14.408203 61.216797 14.408203 L 56.378906 14.408203 z M 75.990234 14.408203 L 71.669922 25.685547 L 74.007812 25.685547 L 74.871094 23.351562 L 79.222656 23.351562 L 80.097656 25.685547 L 82.431641 25.685547 L 78.111328 14.408203 L 75.990234 14.408203 z M 89.277344 14.408203 L 89.277344 16.507812 L 92.503906 16.507812 L 92.503906 25.685547 L 94.673828 25.685547 L 94.673828 16.507812 L 97.898438 16.507812 L 97.898438 14.408203 L 89.277344 14.408203 z M 106.1582 14.408203 L 106.1582 16.507812 L 109.38477 16.507812 L 109.38477 25.685547 L 111.55469 25.685547 L 111.55469 16.507812 L 114.7793 16.507812 L 114.7793 14.408203 L 106.1582 14.408203 z M 123.76562 14.408203 L 123.76562 25.685547 L 131.80078 25.689453 L 131.80078 23.626953 L 125.94336 23.626953 L 125.94336 20.904297 L 129.19141 20.904297 L 129.19141 18.84375 L 125.94336 18.84375 L 125.94336 16.476562 L 131.46484 16.476562 L 131.46484 14.408203 L 123.76562 14.408203 z M 140.95312 14.408203 L 140.95312 25.685547 L 143.12891 25.685547 L 143.12891 21.480469 L 145.39844 21.480469 L 147.50781 25.685547 L 149.95508 25.685547 L 147.76758 21.195312 C 148.12858 21.067312 148.44775 20.879625 148.71875 20.640625 C 148.99375 20.401625 149.21925 20.13775 149.40625 19.84375 C 149.58825 19.54975 149.72241 19.238156 149.81641 18.910156 C 149.90941 18.583156 149.95703 18.258453 149.95703 17.939453 C 149.95703 17.478453 149.89253 17.034375 149.76953 16.609375 C 149.64453 16.185375 149.43162 15.810375 149.14062 15.484375 C 148.84762 15.159375 148.45947 14.899125 147.98047 14.703125 C 147.50147 14.504125 146.90441 14.408203 146.19141 14.408203 L 140.95312 14.408203 z M 177.96289 14.408203 L 177.96289 25.685547 L 180.14258 25.6875 L 180.14258 20.904297 L 183.55469 20.904297 L 183.55469 18.84375 L 180.14258 18.84375 L 180.14258 16.476562 L 185.52539 16.476562 L 185.52539 14.408203 L 177.96289 14.408203 z M 194.35156 14.408203 L 194.35156 25.685547 L 201.97461 25.685547 L 201.97461 23.59375 L 196.5332 23.59375 L 196.5332 14.408203 L 194.35156 14.408203 z M 208.2168 14.408203 L 212.39648 21.289062 L 212.39648 25.685547 L 214.55078 25.685547 L 214.55078 21.289062 L 218.72852 14.408203 L 216.25586 14.408203 L 213.47461 19.017578 L 210.6875 14.408203 L 208.2168 14.408203 z M 143.13281 16.474609 L 146.22461 16.474609 C 146.51861 16.474609 146.76512 16.515609 146.95312 16.599609 C 147.14113 16.683609 147.29725 16.794641 147.40625 16.931641 C 147.51225 17.072641 147.58777 17.228297 147.63477 17.404297 C 147.67777 17.580297 147.69922 17.7595 147.69922 17.9375 C 147.69922 18.1315 147.67795 18.316141 147.62695 18.494141 C 147.57795 18.674141 147.49295 18.83175 147.37695 18.96875 C 147.26395 19.10475 147.10987 19.212922 146.92188 19.294922 C 146.73734 19.376715 146.49972 19.417763 146.22461 19.417969 L 146.22461 19.416016 L 143.13281 19.416016 L 143.13281 16.474609 z M 58.558594 16.476562 L 61.310547 16.476562 C 61.604547 16.476562 61.847969 16.524141 62.042969 16.619141 C 62.234969 16.712141 62.390906 16.832516 62.503906 16.978516 C 62.615906 17.127516 62.694281 17.287938 62.738281 17.460938 C 62.784281 17.638938 62.806641 17.808703 62.806641 17.970703 C 62.806641 18.150703 62.779562 18.326859 62.726562 18.505859 C 62.674563 18.682859 62.589703 18.842375 62.470703 18.984375 C 62.351703 19.127375 62.199719 19.241031 62.011719 19.332031 C 61.823719 19.420031 61.588547 19.464844 61.310547 19.464844 L 58.558594 19.464844 L 58.558594 16.476562 z M 77.052734 17.419922 C 77.099734 17.583922 77.157703 17.756266 77.220703 17.947266 C 77.286703 18.135266 77.34825 18.300547 77.40625 18.435547 L 78.515625 21.369141 L 75.580078 21.369141 L 76.697266 18.435547 C 76.756266 18.300547 76.819719 18.135266 76.886719 17.947266 C 76.954719 17.756266 77.009734 17.584922 77.052734 17.419922 z "
       id="path5" /></g><linearGradient
     id="SVGID_1_"
     gradientUnits="userSpaceOnUse"
     x1="20.9707"
     y1="1.3931"
     x2="20.9707"
     y2="38.0593"><stop
       offset="0"
       style="stop-color:#60EFFF"
       id="stop26" /><stop
       offset="1"
       style="stop-color:#1F89C7"
       id="stop28" /></linearGradient><path
     fill="url(#SVGID_1_)"
     d="M41.941,20.701L20.972,0.192L0,20.701l8.36,11.844l6.378-1.465l6.274,8.821l6.262-8.805l6.307,1.448  L41.941,20.701z M20.101,3.995l-2.716,25.101l-5.186-7.074L20.101,3.995z M11.63,21.246L8.4,16.84L19.507,3.35L11.63,21.246z   M16.524,29.33L16.524,29.33l0.302,0.416l-1.732,0.397l-3.998-5.62l0.714-1.622L16.524,29.33z M20.971,3.662l2.73,26.611  l-2.736,3.749l-2.726-3.749L20.971,3.662z M25.416,29.331l4.766-6.5l0.746,1.692l-4.009,5.637l-1.801-0.414l0.301-0.413  L25.416,29.331z M24.556,29.096L21.875,3.974l7.919,17.977L24.556,29.096z M22.507,3.346L33.541,16.84l-3.178,4.335L22.507,3.346z   M8.718,31.607L1.089,20.801L16.017,6.209l-8.67,10.604l3.896,5.313l-1.099,2.494l4.072,5.726L8.718,31.607z M21.012,38.464  l-5.396-7.585l1.742-0.401l3.605,4.959l3.617-4.959l1.814,0.418L21.012,38.464z M27.796,30.362l4.083-5.742l-1.129-2.564  l3.844-5.243l-8.67-10.604l14.927,14.592l-7.628,10.807L27.796,30.362z"
     id="path30" /></svg>