<svg xmlns:rdf="http://www.w3.org/1999/02/22-rdf-syntax-ns#" xmlns="http://www.w3.org/2000/svg" height="34.796" viewBox="0 0 141.83971 34.796014" width="141.84" version="1.1" xmlns:cc="http://creativecommons.org/ns#" xmlns:xlink="http://www.w3.org/1999/xlink" xmlns:dc="http://purl.org/dc/elements/1.1/">
<defs>
<linearGradient id="linearGradient7453" y2="1055.4" gradientUnits="userSpaceOnUse" x2="800.99" y1="633.44" x1="379.06">
<stop stop-color="#f0df79" stop-opacity=".99608" offset="0"/>
<stop stop-color="#e7ca56" offset="1"/>
</linearGradient>
<linearGradient id="linearGradient7461" y2="730.46" gradientUnits="userSpaceOnUse" x2="548.29" y1="294.99" x1="112.82">
<stop stop-color="#5c7aa0" stop-opacity=".99608" offset="0"/>
<stop stop-color="#455d7e" offset="1"/>
</linearGradient>
</defs>
<g transform="scale(.029883)">
<path id="path7185" fill="url(#linearGradient7453)" d="m739.12 1071.9c41.802-6.5952 58.928-59.046 29.1-89.12-27.714-27.943-73.66-17.374-86.158 19.82-12.507 37.218 18.869 75.326 57.058 69.301zm-192.6 91.747c-32.604-2.0292-71.508-9.0777-106.8-19.349-84.334-24.545-132.94-67.708-141.28-125.47-1.6948-11.728-1.0375-295.8 0.70464-304.5 12.454-62.198 57.069-106.43 117.78-116.77 5.898-1.0043 16.083-1.0956 159.6-1.4308 168.39-0.3933 155.4-0.096 172.68-3.9448 64.104-14.274 117.33-66.986 133.34-132.04 4.5719-18.585 4.4059-15.236 4.6279-93.369l0.19902-70.05h56.313c58.982 0 63.264 0.153 76.028 2.7174 55.6 11.171 91.135 56.486 112.2 143.08 28.198 115.9 26.822 197.16-4.8844 288.3-29.778 85.594-58.491 118.39-112.51 128.52-5.3774 1.0078-17.661 1.0759-222.44 1.2335l-216.75 0.1668v17.692 17.692h138.95 138.95l-0.261 58.65c-0.22596 50.777-0.39438 59.496-1.2547 64.949-9.5961 60.834-57.272 101.59-147.74 126.3-54.147 14.788-107.34 20.743-157.44 17.624z"/>
<path id="path7169" fill="url(#linearGradient7461)" d="m434.32 188.18c46.391-15.216 48.783-81.597 3.5903-99.612-47.764-19.04-91.104 36.633-61.911 79.529 12.604 18.52 37.231 27.001 58.321 20.083zm-280.5 672.09c-68.611-5.99-114.45-55.47-135.95-146.74-21.709-92.167-23.415-157.21-6.3182-240.75 5.3002-25.897 9.2254-41.874 13.288-54.084 23.377-70.265 79.081-114.9 151.49-121.39 4.5654-0.4092 73.234-0.6191 202.95-0.6205h196.05v-17.7-17.7h-138.9-138.9v-61.113c0-77.018 0.70614-86.791 7.8102-108.09 18.771-56.272 81.819-82.312 221.09-91.317 15.795-1.0212 78.627-1.0192 94.2 0 38.88 2.5522 71.033 6.1409 95.7 10.681 73.815 13.587 128.55 65.876 135.59 129.53 0.4719 4.2651 0.61158 47.897 0.483 150.9l-0.18084 144.9-1.4065 7.5c-10.708 57.103-52.512 101.61-106.59 113.49-15.138 3.3249-3.3711 3.0843-170.4 3.4841-169.89 0.4066-155.87 0.083-173.7 4.0073-64.69 14.235-119.11 68.444-133.46 132.94-3.7125 16.688-3.5551 12.902-3.7802 90.932l-0.20644 71.55-53.227-0.10086c-29.275-0.0545-54.307-0.19412-55.627-0.30932z"/>
<g fill="#32322f">
<path id="path7181" d="m1634.7 799.24c83.902-12.452 122.51-86.964 118.99-229.67-2.8964-117.67-36.069-185.15-99.045-201.47-19.911-5.1603-48.74-5.4778-76.077-0.8378-33.024 5.6052-78.248 23.226-94.05 36.644l-3.15 2.6749v173.85 173.85l7.65 4.5365c55.693 33.026 104.42 46.545 145.68 40.421zm-195.03 316.39c-22.77-8.2132-42.548-15.365-43.95-15.893l-2.55-0.9596v-349.97-349.97l1.65-2.0731c29.937-37.612 91.682-69.891 159.86-83.572 26.992-5.4164 83.24-10.697 88.214-8.2812 0.7563 0.3673 6.1 0.8188 11.875 1.0035 73.83 2.3604 128.69 40.084 165.68 113.92 39.309 78.468 47.628 201.29 19.436 286.93-20.881 63.434-62.855 114.9-112.36 137.78-70.196 32.434-155.46 23.802-237.01-23.996l-9.1489-5.3626-0.1511 157.68-0.1511 157.68-41.4-14.933z"/>
<path id="path7179" d="m2110.1 1128c0-0.1709-3.248-12.763-7.2178-27.982s-7.1423-27.725-7.05-27.79c0.092-0.066 2.8678-0.4606 6.1678-0.8779 94.006-11.887 142.87-28.824 174.93-60.638 19.941-19.786 28.55-38.333 34.412-74.137 3.7149-22.687 5.1804-44.835 5.5845-84.396l0.3293-32.233-7.7273 3.3461c-76.16 32.979-171.53 46.7-228.23 32.838-59.128-14.456-108.9-60.537-122.4-113.32-4.8632-19.016-4.4986-1.4683-4.4986-216.55v-191.35l44.7-15.124 44.7-15.124 0.3406 192.97c0.3444 195.13 0.3424 194.95 2.4109 206.77 8.0151 45.795 39.862 78.76 87.805 90.888 54.025 13.667 110.74 0.9064 172.69-38.856l5.25-3.3693v-217.68-217.68h44.4 44.4v259.35c0 162.76-0.2244 264.6-0.6003 273.45-3.619 85.191-14.962 137.68-36.797 170.27-39.912 59.57-131.79 100.36-240.83 106.91-11.84 0.7116-12.773 0.7342-12.773 0.3097z"/>
<path id="path7173" d="m3666.5 806.45c75.7-10.606 115.79-70.997 124.92-188.17 1.061-13.616 1.0511-66.504-0.014-77.4-7.5157-76.855-35.396-130.79-81.474-157.62-21.33-12.417-52.837-19.487-75.904-17.031-51.885 5.5235-89.037 30.89-111.23 75.946-17.356 35.23-24.632 74.858-24.565 133.8 0.088 78.462 16.099 139.96 47.445 182.24 28.494 38.435 70.638 55.256 120.82 48.224zm-43.2 55.423c-81.388-6.705-141.37-46.093-182.7-119.97-51.147-91.43-52.458-227.68-3.0288-314.72 53.584-94.365 147.74-137.91 256.1-118.45 103.81 18.653 181.37 109.19 194.48 227.05 16.267 146.2-51.655 277.09-163.15 314.4-28.545 9.5514-69.924 14.307-101.7 11.69z"/>
<path id="path7167" d="m2698.1 859.46c-73.196-6.2511-120.55-40.918-133.99-98.082-3.9894-16.973-3.6641 0.1201-3.8565-202.65l-0.1742-183.45h-30.59-30.59v-28.8-28.8h30.6 30.6v-74.25-74.25l43.649-15.528c24.007-8.5406 43.987-15.657 44.399-15.814 0.598-0.2279 0.75 17.975 0.75 89.778v90.064h50.1 50.1v28.8 28.8h-50.111-50.112l0.1763 181.35c0.1661 170.95 0.2377 181.71 1.2483 187.58 7.8915 45.831 32.307 63.637 93.548 68.222l5.25 0.3931v22.961 22.961l-1.95 0.36396c-3.3938 0.63342-42.476 0.9156-49.05 0.35418z"/>
<path id="path7137" d="m2870.5 440.89 0.1504-410.79 44.1-13.888 44.1-13.888 0.151 186.78c0.083 102.73 0.299 186.78 0.48 186.78 0.1809 0 4.028-2.531 8.549-5.6245 54.273-37.136 112.87-55.679 176.22-55.764 19.081-0.026 29.353 1.121 45.3 5.0566 55.428 13.679 98.852 61.205 110.95 121.43 3.5235 17.54 3.2753 2.176 3.482 215.55l0.1889 195.15h-45.011-45.011v-175.05c0-200.99 0.2011-193.91-6.2677-217.49-19.694-71.776-72.721-99.209-145.23-75.135-28.853 9.5793-77.055 35.485-101.25 54.417l-2.25 1.7605v205.75 205.75h-44.4-44.4l0.1505-410.79z"/>
<path id="path7135" d="m3987.5 622.57v-229.11l7.05-5.0345c68.407-48.85 124.61-71.532 201.2-81.203 119.26-15.059 211.73 35.813 221.34 121.77 0.393 3.5164 0.6052 78.178 0.6084 214.05l0.01 208.65h-44.389-44.389l-0.1969-190.35c-0.2204-213.01 0.1642-193.96-4.2691-211.44-11.353-44.746-45.555-75.923-92.386-84.214-48.941-8.6648-102.98 3.7892-148.87 34.31l-6.6 4.3895-0.1508 223.65-0.1508 223.65h-44.399-44.399v-229.11z"/>
</g>
<g fill="#32322f">
<path id="path7234" d="m4589.4 223.95h13.948v-97.302h32.877v-11.623h-79.701v11.623h32.877v97.302z"/>
<path id="path7236" d="m4655.7 223.95h12.785v-59.942c0-9.6305-1.1623-22.582-1.8265-32.212h0.6642l8.6342 24.242 21.088 56.953h7.8041l20.922-56.953 8.8003-24.242h0.6642c-0.8302 9.6305-1.8265 22.582-1.8265 32.212v59.942h13.117v-108.92h-16.272l-20.922 58.447-7.638 22.25h-0.6641l-7.9701-22.25-21.088-58.447h-16.272v108.92z"/>
</g>
</g>
</svg>
