<?xml version="1.0" encoding="UTF-8" standalone="no"?>
<!-- Created with Inkscape (http://www.inkscape.org/) -->

<svg
   xmlns:dc="http://purl.org/dc/elements/1.1/"
   xmlns:cc="http://creativecommons.org/ns#"
   xmlns:rdf="http://www.w3.org/1999/02/22-rdf-syntax-ns#"
   xmlns:svg="http://www.w3.org/2000/svg"
   xmlns="http://www.w3.org/2000/svg"
   xmlns:xlink="http://www.w3.org/1999/xlink"
   xmlns:sodipodi="http://sodipodi.sourceforge.net/DTD/sodipodi-0.dtd"
   xmlns:inkscape="http://www.inkscape.org/namespaces/inkscape"
   id="svg2"
   version="1.1"
   inkscape:version="0.49 r12742"
   width="192"
   height="43"
   viewBox="0 0 192 43.000001"
   sodipodi:docname="python-software-foundation.svg"
   inkscape:export-filename="/home/garrett/Source/community-middleman/source/images/software/python-software-foundation.png"
   inkscape:export-xdpi="2.6890757"
   inkscape:export-ydpi="2.6890757">
  <metadata
     id="metadata8">
    <rdf:RDF>
      <cc:Work
         rdf:about="">
        <dc:format>image/svg+xml</dc:format>
        <dc:type
           rdf:resource="http://purl.org/dc/dcmitype/StillImage" />
        <dc:title></dc:title>
      </cc:Work>
    </rdf:RDF>
  </metadata>
  <defs
     id="defs6">
    <linearGradient
       inkscape:collect="always"
       id="linearGradient7484">
      <stop
         style="stop-color:#000000;stop-opacity:0.2"
         offset="0"
         id="stop7486" />
      <stop
         id="stop7492"
         offset="0.12529707"
         style="stop-color:#000000;stop-opacity:0.2" />
      <stop
         style="stop-color:#000000;stop-opacity:0;"
         offset="1"
         id="stop7488" />
    </linearGradient>
    <linearGradient
       inkscape:collect="always"
       id="linearGradient7455">
      <stop
         style="stop-color:#5c7aa0;stop-opacity:0.99607843"
         offset="0"
         id="stop7457" />
      <stop
         style="stop-color:#455d7e;stop-opacity:1"
         offset="1"
         id="stop7459" />
    </linearGradient>
    <linearGradient
       inkscape:collect="always"
       id="linearGradient7447">
      <stop
         style="stop-color:#f0df79;stop-opacity:0.99607843"
         offset="0"
         id="stop7449" />
      <stop
         style="stop-color:#e7ca56;stop-opacity:1"
         offset="1"
         id="stop7451" />
    </linearGradient>
    <linearGradient
       inkscape:collect="always"
       id="linearGradient7431">
      <stop
         style="stop-color:#5e7c9f;stop-opacity:1"
         offset="0"
         id="stop7433" />
      <stop
         style="stop-color:#455c7f;stop-opacity:1"
         offset="1"
         id="stop7435" />
    </linearGradient>
    <linearGradient
       inkscape:collect="always"
       xlink:href="#linearGradient7431"
       id="linearGradient7437"
       x1="2603.7935"
       y1="1026.0371"
       x2="6358.3105"
       y2="1026.0371"
       gradientUnits="userSpaceOnUse" />
    <linearGradient
       inkscape:collect="always"
       xlink:href="#linearGradient7447"
       id="linearGradient7453"
       x1="379.06171"
       y1="633.43732"
       x2="800.99359"
       y2="1055.3693"
       gradientUnits="userSpaceOnUse" />
    <linearGradient
       inkscape:collect="always"
       xlink:href="#linearGradient7455"
       id="linearGradient7461"
       x1="112.81593"
       y1="294.98926"
       x2="548.28577"
       y2="730.45911"
       gradientUnits="userSpaceOnUse" />
    <radialGradient
       inkscape:collect="always"
       xlink:href="#linearGradient7484"
       id="radialGradient7490"
       cx="577.05377"
       cy="-188.42735"
       fx="577.05377"
       fy="-188.42735"
       r="349.16556"
       gradientTransform="matrix(1,0,0,0.25040386,-1.0548331,1400.9505)"
       gradientUnits="userSpaceOnUse" />
  </defs>
  <sodipodi:namedview
     pagecolor="#ffffff"
     bordercolor="#666666"
     borderopacity="1"
     objecttolerance="10"
     gridtolerance="10"
     guidetolerance="10"
     inkscape:pageopacity="0"
     inkscape:pageshadow="2"
     inkscape:window-width="640"
     inkscape:window-height="480"
     id="namedview4"
     showgrid="false"
     showguides="true"
     inkscape:guide-bbox="true"
     inkscape:zoom="8"
     inkscape:cx="43.938554"
     inkscape:cy="14.482391"
     inkscape:current-layer="g7513"
     fit-margin-top="0"
     fit-margin-left="0"
     fit-margin-right="0"
     fit-margin-bottom="0" />
  <g
     id="g7513"
     transform="matrix(0.02988303,0,0,0.02988303,-1.0886084e-4,-0.06742096)">
    <ellipse
       inkscape:export-ydpi="2.6890757"
       inkscape:export-xdpi="2.6890757"
       inkscape:export-filename="/home/garrett/Source/community-middleman/source/images/software/python-software-foundation.png"
       ry="87.432404"
       rx="349.16556"
       cy="1353.7676"
       cx="575.99896"
       id="path7482"
       style="color:#000000;color-interpolation:sRGB;color-interpolation-filters:linearRGB;fill:url(#radialGradient7490);fill-opacity:1;fill-rule:nonzero;stroke:none;stroke-width:10;marker:none;visibility:visible;display:inline;overflow:visible;enable-background:accumulate;clip-rule:nonzero;color-rendering:auto;image-rendering:auto;shape-rendering:auto;text-rendering:auto"
       d="M 925.16452,1353.7676 A 349.16556,87.432404 0 0 1 575.99896,1441.2 349.16556,87.432404 0 0 1 226.8334,1353.7676 a 349.16556,87.432404 0 0 1 349.16556,-87.4324 349.16556,87.432404 0 0 1 349.16556,87.4324 z" />
    <rect
       inkscape:export-ydpi="2.6890757"
       inkscape:export-xdpi="2.6890757"
       inkscape:export-filename="/home/garrett/Source/community-middleman/source/images/software/python-software-foundation.png"
       ry="44.443302"
       rx="44.443302"
       y="970.17993"
       x="2561.6538"
       height="88.886604"
       width="3863.3972"
       id="rect7415"
       style="color:#000000;color-interpolation:sRGB;color-interpolation-filters:linearRGB;fill:url(#linearGradient7437);fill-opacity:1;fill-rule:nonzero;stroke:none;stroke-width:10;marker:none;visibility:visible;display:inline;overflow:visible;enable-background:accumulate;clip-rule:nonzero;color-rendering:auto;image-rendering:auto;shape-rendering:auto;text-rendering:auto" />
    <g
       inkscape:export-ydpi="2.6890757"
       inkscape:export-xdpi="2.6890757"
       inkscape:export-filename="/home/garrett/Source/community-middleman/source/images/software/python-software-foundation.png"
       id="g7397">
      <path
         id="path7185"
         style="fill:url(#linearGradient7453);fill-opacity:1;stroke:none"
         d="m 739.12393,1071.8555 c 41.802,-6.5952 58.92846,-59.0458 29.1,-89.1201 -27.71448,-27.9429 -73.66002,-17.37378 -86.15838,19.8195 -12.50676,37.2182 18.86904,75.3259 57.05838,69.3006 z m -192.6,91.7466 c -32.60353,-2.0292 -71.50757,-9.0777 -106.8,-19.3494 -84.33421,-24.5452 -132.9358,-67.708 -141.28315,-125.4728 -1.69483,-11.7284 -1.03746,-295.79965 0.70464,-304.49995 12.45423,-62.1984 57.06886,-106.4297 117.77851,-116.7666 5.89797,-1.0043 16.08277,-1.0956 159.6,-1.4308 168.39252,-0.3933 155.39946,-0.096 172.6821,-3.9448 64.10418,-14.2739 117.33474,-66.9858 133.33776,-132.0385 4.57194,-18.5851 4.40592,-15.2357 4.62792,-93.3693 l 0.19902,-70.05 56.31306,0 c 58.98221,0 63.26441,0.153 76.02781,2.7174 55.5997,11.1711 91.1352,56.4863 112.2031,143.0826 28.1982,115.9044 26.8215,197.1626 -4.8844,288.3 -29.7775,85.5939 -58.4909,118.39071 -112.5147,128.51583 -5.3774,1.00776 -17.66143,1.07592 -222.44167,1.23348 l -216.75,0.1668 0,17.6919 0,17.69196 138.94842,0 138.94848,0 -0.261,58.65 c -0.22596,50.77688 -0.39438,59.49558 -1.25466,64.94948 -9.5961,60.8339 -57.27204,101.59 -147.74184,126.2983 -54.14676,14.788 -107.33993,20.7427 -157.4394,17.6244 z"
         inkscape:connector-curvature="0" />
      <path
         id="path7169"
         style="fill:url(#linearGradient7461);fill-opacity:1"
         d="m 434.32393,188.17795 c 46.39055,-15.2159 48.7831,-81.5966 3.5903,-99.612 -47.76388,-19.0402 -91.104,36.6329 -61.91104,79.5286 12.60395,18.5201 37.23109,27.0007 58.32074,20.0834 z m -280.5,672.09079 C 85.208617,854.28092 39.365738,804.80095 17.867052,713.52515 c -21.7085461,-92.1667 -23.4154934,-157.2069 -6.31824,-240.7452 5.300193,-25.8971 9.225408,-41.8735 13.287903,-54.0844 23.376854,-70.2653 79.081125,-114.9035 151.487215,-121.3931 4.56536,-0.4092 73.23412,-0.6191 202.95,-0.6205 l 196.05,0 0,-17.7 0,-17.7 -138.9,0 -138.9,0 0,-61.1129 c 0,-77.0184 0.70614,-86.7909 7.81015,-108.0871 18.77114,-56.2717 81.81893,-82.3123998 221.08985,-91.31679982 15.79528,-1.0212 78.62694,-1.0192 94.2,0 38.87994,2.55220002 71.03316,6.14090002 95.7,10.68149982 73.81464,13.5874 128.54946,65.8758 135.59256,129.5323 0.4719,4.2651 0.61158,47.8968 0.483,150.9 l -0.18084,144.9 -1.40646,7.5 c -10.70844,57.103 -52.51212,101.6142 -106.58826,113.4915 -15.13812,3.3249 -3.3711,3.0843 -170.4,3.4841 -169.88911,0.4066 -155.86737,0.083 -173.7,4.0073 -64.69019,14.2354 -119.11214,68.4436 -133.45924,132.935 -3.7125,16.688 -3.5551,12.9018 -3.78024,90.9321 l -0.20644,71.54997 -53.22704,-0.10086 c -29.27487,-0.0545 -54.30704,-0.19412 -55.62704,-0.30932 z"
         inkscape:connector-curvature="0" />
    </g>
    <g
       inkscape:export-ydpi="2.6890757"
       inkscape:export-xdpi="2.6890757"
       inkscape:export-filename="/home/garrett/Source/community-middleman/source/images/software/python-software-foundation.png"
       style="fill:#32322f;fill-opacity:1"
       id="g7220">
      <path
         id="path7163"
         style="fill:#32322f;fill-opacity:1"
         d="m 4833.643,835.53818 c 56.7074,-14.65073 76.5227,-122.81893 32.5283,-177.56593 -23.7294,-29.529 -66.3069,-30.3851 -90.6783,-1.8233 -17.0796,20.0163 -25.6809,46.4076 -25.5942,78.531 0.1792,66.4151 38.4864,112.55091 83.7442,100.85823 z m -26.2191,22.09968 c -79.529,-10.80882 -117.0019,-131.48161 -63.3145,-203.88981 20.2339,-27.2894 45.8488,-39.8641 79.2145,-38.8875 33.9083,0.9924 59.2746,16.2681 78.9094,47.5194 41.2224,65.6106 12.7579,169.01391 -52.6747,191.35185 -11.1646,3.81144 -29.9902,5.55666 -42.1347,3.90606 z"
         inkscape:connector-curvature="0" />
      <path
         style="fill:#32322f;fill-opacity:1"
         d="m 5024.9239,857.66708 c -31.8983,-4.42056 -57.2508,-24.7248 -66.9068,-53.58423 -4.4067,-13.1706 -4.1932,-8.1435 -4.1932,-98.7511 l 0,-81.2482 13.1897,-4.4018 c 7.2543,-2.421 13.5318,-4.4018 13.95,-4.4018 0.61,0 0.7625,16.3949 0.7713,82.95 0.01,69.0695 0.1559,83.954 0.8769,88.95 4.2726,29.6031 19.7256,45.32211 47.5299,48.34785 39.1998,4.26576 66.938,-16.81255 71.5197,-54.34785 0.4478,-3.6682 0.6597,-30.4629 0.6608,-83.55 l 0,-78.15 10.5159,0 10.5159,0 -0.2,84.75 c -0.1809,76.7157 -0.2954,85.173 -1.2072,89.2123 -7.4062,32.80871 -31.0086,55.93871 -64.3246,63.03737 -6.8091,1.4508 -25.8184,2.1411 -32.7,1.18746 z"
         id="path7161"
         inkscape:connector-curvature="0" />
      <path
         id="path7157"
         style="fill:#32322f;fill-opacity:1"
         d="m 6122.6239,835.50254 c 59.7456,-15.29799 77.2962,-132.91599 27.3144,-183.05479 -23.3886,-23.462 -60.0216,-22.9317 -82.9878,1.2015 -19.3188,20.3007 -28.6266,48.448 -27.8628,84.2588 1.3926,65.3027 38.8308,109.04141 83.5362,97.59449 z m -24.3,22.40856 c -61.0656,-7.47546 -102.0738,-80.07045 -87.2358,-154.43115 7.9032,-39.6096 34.9122,-73.3396 67.4358,-84.2173 13.2366,-4.427 34.6812,-5.8147 48.9,-3.1644 58.4058,10.8866 94.1982,78.0183 79.7748,149.6248 -8.1714,40.5686 -34.4796,75.11955 -66.3372,87.12195 -11.256,4.24062 -30.5298,6.5361 -42.5376,5.0661 z"
         inkscape:connector-curvature="0" />
      <path
         id="path7153"
         style="fill:#32322f;fill-opacity:1"
         d="m 5468.0637,837.84932 c 44.6233,-7.90374 69.0437,-69.79007 53.9693,-136.76937 -8.1121,-36.0444 -28.3299,-56.6706 -60.3091,-61.5273 -4.0815,-0.6198 -11.2795,-0.8667 -25.35,-0.8692 l -19.65,0 0,91.7442 0,91.7441 2.85,2.35271 c 13.7195,11.3259 31.7753,16.28892 48.4898,13.3284 z m -13.2398,19.48278 c -8.6631,-1.19994 -11.5768,-1.73406 -16.8,-3.07956 -14.8021,-3.81294 -29.3728,-11.1033 -43.9377,-21.98394 l -4.9378,-3.68868 -0.012,-104.60177 -0.013,-104.6018 42.15,0.2596 c 45.5943,0.2808 46.5353,0.3415 58.3679,3.7623 39.666,11.4672 65.8144,54.9441 67.2961,111.8929 1.5912,61.1625 -30.4147,111.08435 -77.514,120.90377 -4.5826,0.95538 -20.5752,1.6947 -24.6,1.13718 z"
         inkscape:connector-curvature="0" />
      <path
         style="fill:#32322f;fill-opacity:1"
         d="m 4580.9239,737.39135 0,-117.9114 65.1,0 c 35.805,0 65.1029,0.2025 65.1064,0.45 0.01,0.2475 -2.089,4.5632 -4.65,9.5904 l -4.6564,9.1406 -46.95,0.01 -46.95,0.01 0,40.2 0,40.2 39.2451,0 39.2452,0 -4.9364,9.15 -4.9364,9.15 -34.3058,0.1549 -34.3058,0.1549 -0.153,58.6451 -0.1529,58.64505 -13.35,0.16146 -13.35,0.16152 0,-117.91153 z"
         id="path7151"
         inkscape:connector-curvature="0" />
      <path
         style="fill:#32322f;fill-opacity:1"
         d="m 5166.6724,738.75685 0.1515,-116.5536 10.6717,-3.6697 10.6716,-3.6697 45.3772,66.3581 c 24.9575,36.4969 55.7952,81.5856 68.5283,100.1972 l 23.1512,33.8392 0.3,-97.7392 0.3,-97.7392 9.15,-0.1656 9.15,-0.1657 0,117.9271 0,117.92715 -13.35,-0.16152 -13.35,-0.16146 -65.7,-96.04147 -65.7,-96.0416 -0.3,96.0416 -0.3,96.04147 -9.4515,0.16524 -9.4516,0.16524 0.1516,-116.55355 z"
         id="path7149"
         inkscape:connector-curvature="0" />
      <path
         id="path7145"
         style="fill:#32322f;fill-opacity:1"
         d="m 5704.7217,763.62995 c 0,-0.2475 -8.3467,-25.29 -18.5455,-55.65 -17.294,-51.4816 -18.5909,-55.0788 -19.2524,-53.4 -0.39,0.99 -9.0288,24.21 -19.1971,51.6 -10.1684,27.39 -19.1768,51.6225 -20.0185,53.85 l -1.5305,4.05 39.2731,0 c 21.6002,0 39.2721,-0.2025 39.2709,-0.45 z m -131.9978,91.01517 c 0,-0.71118 83.7819,-228.83667 84.6143,-230.39197 0.6759,-1.2629 26.9857,-9.8032 26.9857,-8.7597 0,0.1174 17.9334,53.6449 39.8519,118.95 21.9186,65.305 39.9411,119.14147 40.05,119.63647 0.171,0.77676 -1.7456,0.92202 -13.9941,1.06074 l -14.1922,0.16068 -1.4898,-4.36068 c -1.8704,-5.47488 -22.2938,-64.26941 -23.2427,-66.91071 l -0.7005,-1.95 -45.4917,0 -45.4917,0 -0.9595,2.55 c -0.5277,1.4025 -6.5624,17.805 -13.4103,36.45 l -12.4508,33.89997 -10.0393,0.16452 c -7.0353,0.11526 -10.0393,-0.0342 -10.0393,-0.49932 z"
         inkscape:connector-curvature="0" />
      <path
         style="fill:#32322f;fill-opacity:1"
         d="m 5820.3239,854.8799 c -0.22,-0.21996 -0.4,-49.08775 -0.4,-108.59515 l 0,-108.1952 -35.007,-0.1548 -35.007,-0.1548 3.9661,-8.4 c 2.1813,-4.62 4.1804,-8.7375 4.4424,-9.15 0.3771,-0.5938 16.9033,-0.75 79.3409,-0.75 l 78.8646,0 0,9.3 0,9.3 -34.5,0 -34.5,0 0,108.6 0,108.59997 -13.4,0 c -7.37,0 -13.58,-0.18 -13.8,-0.40002 z"
         id="path7143"
         inkscape:connector-curvature="0" />
      <path
         style="fill:#32322f;fill-opacity:1"
         d="m 5946.9239,854.8799 c -0.22,-0.21996 -0.3999,-52.12745 -0.3998,-115.34995 l 3e-4,-114.95 13.3206,-4.5 c 7.3263,-2.475 13.5363,-4.59 13.7998,-4.7 0.2635,-0.11 0.4791,53.8225 0.4791,119.85 l 0,120.04997 -13.4,0 c -7.37,0 -13.58,-0.18 -13.8,-0.40002 z"
         id="path7141"
         inkscape:connector-curvature="0" />
      <path
         style="fill:#32322f;fill-opacity:1"
         d="m 6244.7287,738.72995 0,-116.55 10.665,-3.6742 10.6656,-3.6742 68.6796,100.4379 68.6802,100.4379 0.1518,-98.1137 0.1518,-98.1137 9.2982,0 9.2982,0 0,117.9 0,117.89997 -13.4022,0 -13.4022,0 -65.9478,-96.42127 -65.9478,-96.4212 -0.1518,96.4212 -0.1518,96.42127 -9.2982,0 -9.2982,0 0,-116.54997 z"
         id="path7139"
         inkscape:connector-curvature="0" />
    </g>
    <g
       inkscape:export-ydpi="2.6890757"
       inkscape:export-xdpi="2.6890757"
       inkscape:export-filename="/home/garrett/Source/community-middleman/source/images/software/python-software-foundation.png"
       style="fill:#32322f;fill-opacity:1"
       id="g7202">
      <path
         id="path7181"
         style="fill:#32322f;fill-opacity:1"
         d="m 1634.6511,799.23835 c 83.9019,-12.452 122.5068,-86.9639 118.9943,-229.6727 -2.8964,-117.6739 -36.069,-185.1527 -99.0448,-201.4742 -19.9108,-5.1603 -48.7402,-5.4778 -76.0767,-0.8378 -33.0235,5.6052 -78.2477,23.2257 -94.05,36.6442 l -3.15,2.6749 0,173.8538 0,173.8539 7.65,4.5365 c 55.693,33.0258 104.416,46.5451 145.6772,40.4214 z m -195.0272,316.39475 c -22.77,-8.2132 -42.5475,-15.365 -43.95,-15.8928 l -2.55,-0.9596 0,-349.96785 0,-349.9679 1.65,-2.0731 c 29.9369,-37.6124 91.6816,-69.8913 159.8613,-83.5724 26.9925,-5.4164 83.2403,-10.6968 88.2137,-8.2812 0.7563,0.3673 6.1,0.8188 11.875,1.0035 73.8302,2.3604 128.6927,40.0842 165.6835,113.9248 39.3089,78.4681 47.6283,201.2889 19.4359,286.9334 -20.8812,63.4336 -62.8554,114.9024 -112.3608,137.77677 -70.1956,32.43444 -155.4622,23.80164 -237.0075,-23.99577 l -9.1489,-5.3626 -0.1511,157.68391 -0.1511,157.68394 -41.4,-14.9331 z"
         inkscape:connector-curvature="0" />
      <path
         style="fill:#32322f;fill-opacity:1"
         d="m 2110.1239,1127.969 c 0,-0.1709 -3.248,-12.7629 -7.2178,-27.9822 -3.9698,-15.2192 -7.1423,-27.7249 -7.05,-27.7905 0.092,-0.066 2.8678,-0.4606 6.1678,-0.8779 94.0057,-11.8869 142.8653,-28.824 174.9283,-60.6385 19.9407,-19.78612 28.5495,-38.33272 34.4125,-74.13736 3.7149,-22.68654 5.1804,-44.83542 5.5845,-84.39576 l 0.3293,-32.23313 -7.7273,3.3461 c -76.1603,32.97891 -171.5253,46.70019 -228.2273,32.83761 -59.1283,-14.45574 -108.9037,-60.53701 -122.4014,-113.31741 -4.8632,-19.0164 -4.4986,-1.4683 -4.4986,-216.5461 l 0,-191.346 44.7,-15.124 44.7,-15.124 0.3406,192.9701 c 0.3444,195.1266 0.3424,194.9517 2.4109,206.77 8.0151,45.7949 39.8619,78.7601 87.8046,90.888 54.0253,13.6668 110.738,0.9064 172.6939,-38.8561 l 5.25,-3.3693 0,-217.6813 0,-217.6813 44.4,0 44.4,0 0,259.35 c 0,162.7626 -0.2244,264.60111 -0.6003,273.44997 -3.619,85.19136 -14.9618,137.67768 -36.7967,170.26698 -39.9122,59.5703 -131.7946,100.3602 -240.8285,106.9124 -11.8405,0.7116 -12.7731,0.7342 -12.7731,0.3097 z"
         id="path7179"
         inkscape:connector-curvature="0" />
      <path
         id="path7173"
         style="fill:#32322f;fill-opacity:1"
         d="m 3666.5239,806.44705 c 75.6996,-10.6064 115.7923,-70.997 124.9223,-188.1671 1.061,-13.6162 1.0511,-66.5039 -0.014,-77.4 -7.5157,-76.8549 -35.3959,-130.7904 -81.4741,-157.615 -21.3301,-12.4174 -52.8367,-19.4867 -75.9042,-17.031 -51.8847,5.5235 -89.0373,30.8896 -111.2345,75.946 -17.3559,35.2296 -24.6318,74.8585 -24.5654,133.8 0.088,78.4622 16.0987,139.9597 47.4453,182.2428 28.4939,38.4352 70.6383,55.256 120.825,48.2243 z m -43.2,55.42291 c -81.3883,-6.705 -141.3726,-46.09291 -182.6984,-119.96661 -51.1469,-91.4295 -52.458,-227.6759 -3.0288,-314.7234 53.5843,-94.3649 147.7437,-137.9143 256.0956,-118.4461 103.8145,18.6529 181.3701,109.1943 194.4822,227.0461 16.2666,146.2047 -51.6549,277.0933 -163.1506,314.40039 -28.5452,9.5514 -69.9235,14.30748 -101.7,11.68962 z"
         inkscape:connector-curvature="0" />
      <path
         style="fill:#32322f;fill-opacity:1"
         d="m 2698.1239,859.46186 c -73.196,-6.2511 -120.5545,-40.91791 -133.9901,-98.08191 -3.9894,-16.9732 -3.6641,0.1201 -3.8565,-202.65 l -0.1742,-183.45 -30.5896,0 -30.5896,0 0,-28.8 0,-28.8 30.6,0 30.6,0 0,-74.25 0,-74.25 43.6492,-15.5285 c 24.007,-8.5406 43.9866,-15.657 44.3991,-15.8141 0.598,-0.2279 0.75,17.9746 0.75,89.7784 l 0,90.0642 50.1,0 50.1,0 0,28.8 0,28.8 -50.1114,0 -50.1115,0 0.1763,181.35 c 0.1661,170.9508 0.2377,181.707 1.2483,187.5764 7.8915,45.8309 32.3073,63.6367 93.5483,68.2224 l 5.25,0.3931 0,22.96095 0,22.96092 -1.95,0.36396 c -3.3938,0.63342 -42.4758,0.9156 -49.05,0.35418 z"
         id="path7167"
         inkscape:connector-curvature="0" />
      <path
         style="fill:#32322f;fill-opacity:1"
         d="m 2870.4735,440.89225 0.1504,-410.7877 44.1,-13.888 44.1,-13.8880998 0.151,186.7756998 c 0.083,102.7267 0.299,186.7758 0.48,186.7758 0.1809,0 4.028,-2.531 8.549,-5.6245 54.2734,-37.136 112.8718,-55.6792 176.22,-55.7641 19.0811,-0.026 29.3529,1.121 45.3,5.0566 55.4285,13.6792 98.8517,61.2048 110.9504,121.432 3.5235,17.54 3.2753,2.176 3.482,215.55 l 0.1889,195.14997 -45.0106,0 -45.0107,0 0,-175.04997 c 0,-200.9877 0.2011,-193.9127 -6.2677,-217.4915 -19.6942,-71.7757 -72.7206,-99.209 -145.2323,-75.135 -28.8533,9.5793 -77.0546,35.4851 -101.25,54.4168 l -2.25,1.7605 0,205.7496 0,205.74957 -44.4004,0 -44.4005,0 0.1505,-410.78767 z"
         id="path7137"
         inkscape:connector-curvature="0" />
      <path
         style="fill:#32322f;fill-opacity:1"
         d="m 3987.5239,622.56635 0,-229.1136 7.05,-5.0345 c 68.4068,-48.8501 124.606,-71.532 201.1987,-81.2034 119.2606,-15.0591 211.7337,35.8132 221.338,121.7651 0.393,3.5164 0.6052,78.1784 0.6084,214.05 l 0.01,208.64997 -44.3891,0 -44.3891,0 -0.1969,-190.34997 c -0.2204,-213.0069 0.1642,-193.9628 -4.2691,-211.4356 -11.3533,-44.7465 -45.555,-75.9227 -92.3864,-84.214 -48.9409,-8.6648 -102.9779,3.7892 -148.8694,34.3101 l -6.6,4.3895 -0.1508,223.65 -0.1508,223.64997 -44.3992,0 -44.3992,0 0,-229.11357 z"
         id="path7135"
         inkscape:connector-curvature="0" />
    </g>
    <g
       inkscape:export-ydpi="2.6890757"
       inkscape:export-xdpi="2.6890757"
       inkscape:export-filename="/home/garrett/Source/community-middleman/source/images/software/python-software-foundation.png"
       style="fill:#32322f;fill-opacity:1"
       id="g7210">
      <path
         id="path7131"
         style="fill:#32322f;fill-opacity:1"
         d="m 4864.243,522.93825 c 32.6056,-8.4239 55.1096,-47.6792 56.125,-97.9026 1.3668,-67.6021 -36.8585,-112.962 -84.6566,-100.4573 -40.1722,10.5096 -64.195,68.7017 -52.5112,127.2016 10.2024,51.0831 43.9736,80.7353 81.0428,71.1583 z m -27.162,21.862 c -20.338,-3.3223 -34.2919,-10.5517 -49.1768,-25.478 -62.9414,-63.1162 -44.8479,-185.4626 31.4067,-212.3692 18.0111,-6.3552 43.7208,-6.4753 62.213,-0.2904 16.8497,5.6355 33.8589,18.5358 45.7751,34.7173 51.5539,70.007 18.5679,186.229 -57.4751,202.5062 -7.8277,1.6756 -25.1254,2.1585 -32.7429,0.9141 z"
         inkscape:connector-curvature="0" />
      <path
         style="fill:#32322f;fill-opacity:1"
         d="m 5373.355,545.27085 c -0.1597,-0.27 -14.9142,-52.6009 -32.7878,-116.2909 -17.8736,-63.69 -32.5919,-116.0856 -32.7074,-116.4347 -0.2781,-0.8416 25.374,-10.2065 26.0307,-9.503 0.2762,0.2957 12.1478,42.6577 26.3815,94.1377 14.2337,51.48 26.0332,94.005 26.2212,94.5 0.188,0.495 11.5969,-39.7315 25.3531,-89.3922 l 25.0112,-90.2922 12.5832,-4.6205 c 6.9208,-2.5412 13.0021,-4.6372 13.5142,-4.6578 0.7326,-0.029 6.4105,19.8071 26.652,93.1127 14.1465,51.2325 26.0157,94.0256 26.376,95.0958 0.597,1.7733 2.7511,-5.5678 24.2967,-82.8 13.0029,-46.6102 24.972,-89.5043 26.5981,-95.3201 l 2.9564,-10.5744 7.7626,1.6421 c 4.2694,0.9031 7.8539,1.7465 7.9654,1.8743 0.1115,0.1277 -13.6253,52.4773 -30.5263,116.3323 l -30.729,116.1 -10.3894,3.7768 c -6.7612,2.458 -10.5278,3.553 -10.7858,3.1357 -0.2179,-0.3526 -13.1847,-45.9888 -28.8151,-101.4136 -15.6305,-55.4249 -28.5221,-100.6694 -28.6482,-100.5433 -0.1261,0.1261 -11.6447,43.9997 -25.597,97.497 -13.9522,53.4972 -25.5016,97.4015 -25.6652,97.5652 -0.1636,0.1636 -4.4565,1.7558 -9.5398,3.5383 -5.0833,1.7824 -9.6876,3.4174 -10.2317,3.6333 -0.5441,0.2158 -1.1199,0.1715 -1.2796,-0.099 z"
         id="path7129"
         inkscape:connector-curvature="0" />
      <path
         style="fill:#32322f;fill-opacity:1"
         d="m 4631.9239,544.42575 c -20.8954,-2.6896 -45.5128,-13.3218 -59.5291,-25.7105 l -2.8291,-2.5005 5.1666,-8.5174 c 6.9661,-11.484 5.7008,-10.8381 11.9676,-6.1087 24.9903,18.8598 54.9384,24.839 79.9971,15.9714 28.3867,-10.0452 38.5045,-45.1514 18.4581,-64.045 -8.2187,-7.7461 -14.4833,-10.7268 -43.0312,-20.4741 -39.8258,-13.5981 -51.3278,-20.2936 -60.0328,-34.9462 -9.4173,-15.8516 -9.666,-40.8341 -0.5886,-59.1148 17.5289,-35.3009 66.7364,-47.63 108.9214,-27.2906 6.8992,3.3264 18.8859,10.63 18.8954,11.5131 0.01,0.7745 -10.9199,17.2775 -11.4411,17.2775 -0.2821,0 -2.82,-1.5038 -5.6397,-3.3418 -33.51,-21.8429 -76.1034,-15.0083 -85.2125,13.6735 -5.0612,15.9363 -0.5164,28.4611 13.7793,37.9731 7.7775,5.175 14.0896,7.7955 36.9186,15.3267 29.1355,9.6116 37.5675,13.5129 48.7712,22.5651 20.4416,16.516 26.8686,49.6423 14.5325,74.9034 -14.3282,29.3404 -52.2735,47.5865 -89.1037,42.8458 z"
         id="path7127"
         inkscape:connector-curvature="0" />
      <path
         style="fill:#32322f;fill-opacity:1"
         d="m 4986.2012,541.92995 c -0.1568,-0.4125 -0.2159,-53.4 -0.1312,-117.75 l 0.1539,-117 65.25,-0.1527 c 35.8875,-0.084 65.25,-0.021 65.25,0.1406 0,0.1613 -2.1835,4.4825 -4.8521,9.6027 l -4.8522,9.3094 -47.0478,0 -47.0479,0 0,40.2 0,40.2 39.35,0 c 22.9002,0 39.2664,0.2244 39.15,0.5369 -0.11,0.2953 -2.3517,4.4803 -4.9815,9.3 l -4.7816,8.7631 -34.3684,0 -34.3685,0 0,58.8 0,58.8 -13.2188,0 c -10.023,0 -13.2878,-0.1813 -13.5039,-0.75 z"
         id="path7125"
         inkscape:connector-curvature="0" />
      <path
         style="fill:#32322f;fill-opacity:1"
         d="m 5194.7239,434.09115 0,-108.6112 -35.1,0 c -19.305,0 -35.086,-0.2025 -35.0689,-0.45 0.017,-0.2475 1.8761,-4.365 4.1309,-9.15 l 4.0998,-8.7 79.2691,-0.1522 79.2691,-0.1522 0,9.3022 0,9.3022 -34.4984,0 -34.4984,0 -0.1516,108.45 -0.1516,108.45 -13.65,0.1612 -13.65,0.1613 0,-108.6113 z"
         id="path7123"
         inkscape:connector-curvature="0" />
      <path
         id="path7119"
         style="fill:#32322f;fill-opacity:1"
         d="m 5718.5239,451.23005 c 0,-0.6116 -36.8013,-109.8943 -37.1308,-110.2613 -0.2842,-0.3164 -26.3442,69.0745 -39.5064,105.1949 l -1.9373,5.3163 39.2873,0 c 21.608,0 39.2872,-0.1125 39.2872,-0.2499 z m -132,90.626 c 0,-0.7603 84.4291,-230.9135 84.7637,-231.0653 0.075,-0.034 6.0242,-1.9849 13.2206,-4.3351 12.9066,-4.2152 13.091,-4.2556 13.5723,-2.9745 1.8793,5.002 79.8506,237.8588 79.8474,238.4596 -0.01,0.5975 -3.0441,0.7263 -14.1577,0.6 l -14.1536,-0.1608 -12.2408,-35.4 c -6.7324,-19.47 -12.5075,-36.0075 -12.8335,-36.75 l -0.5927,-1.35 -44.9774,0 c -35.0609,0 -45.0845,0.1636 -45.4629,0.742 -0.2669,0.408 -6.4612,16.9455 -13.765,36.75 l -13.2796,36.008 -9.9704,0.1645 c -8.295,0.1368 -9.9704,0.021 -9.9704,-0.6884 z"
         inkscape:connector-curvature="0" />
      <path
         id="path7115"
         style="fill:#32322f;fill-opacity:1"
         d="m 5885.4347,412.15715 c 14.9203,-3.1366 27.1126,-14.9076 31.1743,-30.0969 6.0278,-22.5423 -6.4891,-46.177 -28.5909,-53.9858 l -4.7942,-1.6939 -25.65,-0.1855 -25.65,-0.1855 0,43.5352 0,43.5352 24.5608,0 c 19.7979,0 25.4119,-0.179 28.95,-0.9228 z m -80.5108,12.6083 0,-117.9375 43.05,0.1902 43.05,0.1901 5.7304,1.5709 c 57.4275,15.7432 67.1507,90.9443 15.1426,117.1153 -7.1132,3.5794 -14.2911,5.3014 -27.2443,6.5357 -1.5057,0.1435 -0.2453,2.4307 30.15,54.7154 17.4467,30.011 31.7213,54.7879 31.7213,55.0596 0,0.2717 -7.3053,0.4222 -16.2341,0.3344 l -16.234,-0.1596 -31.0759,-54.9 -31.0758,-54.9 -9.987,-0.1645 -9.9869,-0.1645 -0.1532,55.0645 -0.1531,55.0645 -13.35,0.1615 -13.35,0.1614 0,-117.9374 z"
         inkscape:connector-curvature="0" />
      <path
         style="fill:#32322f;fill-opacity:1"
         d="m 5981.3239,424.78265 0,-117.9027 65.0658,0 65.0658,0 -1.983,4.35 c -1.0908,2.3925 -3.1026,6.5758 -4.4706,9.2963 l -2.4876,4.9464 -47.2452,0.1536 -47.2452,0.1537 -0.1542,40.35 -0.1542,40.35 39.3198,0 39.3198,0 -4.7928,9.15 -4.7934,9.15 -34.5222,0.1548 -34.5228,0.1549 0,49.1918 0,49.1917 50.85,0.1534 50.85,0.1534 0,9.3 0,9.3 -64.05,0.1527 -64.05,0.1527 0,-117.9027 z"
         id="path7100"
         inkscape:connector-curvature="0" />
    </g>
  </g>
</svg>
