<svg xmlns:rdf="http://www.w3.org/1999/02/22-rdf-syntax-ns#" xmlns="http://www.w3.org/2000/svg" version="1.0" xmlns:cc="http://creativecommons.org/ns#" xmlns:xlink="http://www.w3.org/1999/xlink" viewBox="0 0 187.95 186.32" xmlns:dc="http://purl.org/dc/elements/1.1/">
<defs>
<linearGradient id="linearGradient5289">
<stop stop-color="#fec9a5" offset="0"/>
<stop stop-color="#fec9a5" stop-opacity="0" offset="1"/>
</linearGradient>
<linearGradient id="linearGradient4930">
<stop stop-color="#b3b3b3" offset="0"/>
<stop stop-color="#b3b3b3" stop-opacity="0" offset="1"/>
</linearGradient>
<linearGradient id="linearGradient4918">
<stop stop-color="#666" offset="0"/>
<stop stop-color="#666" stop-opacity="0" offset="1"/>
</linearGradient>
<linearGradient id="linearGradient4624">
<stop stop-color="#fff" offset="0"/>
<stop stop-color="#fff" stop-opacity="0" offset="1"/>
</linearGradient>
<linearGradient id="linearGradient4582">
<stop stop-color="#520" offset="0"/>
<stop stop-color="#520" stop-opacity=".078431" offset="1"/>
</linearGradient>
<linearGradient id="linearGradient4513">
<stop stop-color="#fca" offset="0"/>
<stop stop-color="#fca" stop-opacity="0" offset="1"/>
</linearGradient>
<linearGradient id="linearGradient7995">
<stop stop-color="#f9cd9f" offset="0"/>
<stop stop-color="#f9cd9f" stop-opacity="0" offset="1"/>
</linearGradient>
<linearGradient id="linearGradient7973">
<stop stop-color="#f6bb7c" offset="0"/>
<stop stop-color="#f6bb7c" stop-opacity="0" offset="1"/>
</linearGradient>
<linearGradient id="linearGradient3456">
<stop offset="0"/>
<stop stop-color="#171815" stop-opacity="0" offset="1"/>
</linearGradient>
<linearGradient id="linearGradient8232">
<stop stop-color="#373737" offset="0"/>
<stop stop-color="#171717" offset="1"/>
</linearGradient>
<linearGradient id="linearGradient3255" y2="501.92" xlink:href="#linearGradient7973" gradientUnits="userSpaceOnUse" x2="3359.9" gradientTransform="matrix(1.0553 .057320 -.051155 1.1825 2251.5 1235.5)" y1="502.41" x1="3343.3"/>
<linearGradient id="linearGradient3257" y2="499.9" xlink:href="#linearGradient7973" gradientUnits="userSpaceOnUse" x2="3372.2" gradientTransform="matrix(-1.055 .064739 .057777 1.1821 4480 1225.4)" y1="504.72" x1="3368.7"/>
<linearGradient id="linearGradient3259" y2="461.96" xlink:href="#linearGradient7995" gradientUnits="userSpaceOnUse" x2="3359.7" gradientTransform="matrix(.87592 0 0 .84508 2877.9 1271.8)" y1="464.75" x1="3350.3"/>
<filter id="filter4315" height="1.24" width="1.1591" y="-.11998" x="-.079546">
<feGaussianBlur stdDeviation="0.45053862"/>
</filter>
<filter id="filter4325">
<feGaussianBlur stdDeviation="0.8063209"/>
</filter>
<radialGradient id="radialGradient4475" fx="3355.4" fy="464.51" gradientUnits="userSpaceOnUse" cy="464.75" cx="3357.1" gradientTransform="matrix(1.3918 -.036541 .030198 1.0707 -1329.5 89.831)" r="6.7967">
<stop stop-color="#f9cd9f" offset="0"/>
<stop stop-color="#f9cd9f" stop-opacity="0" offset="1"/>
</radialGradient>
<filter id="filter4565" height="1.2397" width="1.1293" y="-.11986" x="-.064655">
<feGaussianBlur stdDeviation="0.67239353"/>
</filter>
<filter id="filter4578">
<feGaussianBlur stdDeviation="0.30773438"/>
</filter>
<filter id="filter4796">
<feGaussianBlur stdDeviation="0.013929775"/>
</filter>
<filter id="filter4882">
<feGaussianBlur stdDeviation="3.7794902"/>
</filter>
<filter id="filter4960">
<feGaussianBlur stdDeviation="0.73466046"/>
</filter>
<filter id="filter4972">
<feGaussianBlur stdDeviation="0.73466046"/>
</filter>
<filter id="filter5263" height="1.3445" width="1.0727" y="-.17225" x="-.036327">
<feGaussianBlur stdDeviation="1.0784495"/>
</filter>
<filter id="filter5359" height="2.4533" width="1.1308" y="-.72664" x="-0.0654">
<feGaussianBlur stdDeviation="0.34683688"/>
</filter>
<filter id="filter5408" height="2.9015" width="1.0879" y="-.95074" x="-.043941">
<feGaussianBlur stdDeviation="0.64191924"/>
</filter>
<filter id="filter5436">
<feGaussianBlur stdDeviation="0.76397247"/>
</filter>
<radialGradient id="radialGradient7807" gradientUnits="userSpaceOnUse" cy="27.484" cx="72.85" gradientTransform="matrix(.95816 0 0 .81436 2.8386 19.026)" r="81.722">
<stop stop-color="#808080" offset="0"/>
<stop stop-color="#808080" stop-opacity="0" offset="1"/>
</radialGradient>
<radialGradient id="radialGradient7809" fx="70.834" fy="48.313" gradientUnits="userSpaceOnUse" cy="59.84" cx="74.1" gradientTransform="matrix(.25102 0 0 .21335 55.5 53.474)" r="81.722">
<stop stop-color="#1a1a1a" offset="0"/>
<stop stop-color="#1a1a1a" stop-opacity="0" offset="1"/>
</radialGradient>
<radialGradient id="radialGradient7811" fx="-288.44" fy="-112.29" xlink:href="#linearGradient4918" gradientUnits="userSpaceOnUse" cy="-100.53" cx="-216.69" gradientTransform="matrix(.26570 -.071195 .060510 .22583 56.009 92.765)" r="81.722"/>
<radialGradient id="radialGradient7813" xlink:href="#linearGradient4930" gradientUnits="userSpaceOnUse" cy="36.308" cx="-8.143" gradientTransform="matrix(.53520 -.22646 .11045 .26103 -7.302 74.169)" r="80.485"/>
<linearGradient id="linearGradient7815" y2="619.61" xlink:href="#linearGradient8232" gradientUnits="userSpaceOnUse" x2="3358.2" gradientTransform="matrix(.91532 0 0 .91532 4402.8 2122.9)" y1="619.61" x1="3273.1"/>
<radialGradient id="radialGradient7817" gradientUnits="userSpaceOnUse" cy=".46361" cx="72.077" gradientTransform="matrix(1 0 0 .85042 0 15.328)" r="80.485">
<stop stop-color="#999" offset="0"/>
<stop stop-color="#999" stop-opacity="0" offset="1"/>
</radialGradient>
<radialGradient id="radialGradient7819" fx="220.19" fy="54.703" xlink:href="#linearGradient4918" gradientUnits="userSpaceOnUse" cy="66.469" cx="291.94" gradientTransform="matrix(.26570 -.071195 .060510 .22583 56.009 92.765)" r="81.722"/>
<radialGradient id="radialGradient7821" xlink:href="#linearGradient4930" gradientUnits="userSpaceOnUse" cy="240.88" cx="221.03" gradientTransform="matrix(.53520 -.22646 .11045 .26103 -7.302 74.169)" r="80.485"/>
<radialGradient id="radialGradient7823" xlink:href="#linearGradient3456" gradientUnits="userSpaceOnUse" cy="125.49" cx="120.61" gradientTransform="matrix(1.2387 -.072376 .11017 1.8855 -43.996 -97.662)" r="10.243"/>
<linearGradient id="linearGradient7825" y2="-2369.3" gradientUnits="userSpaceOnUse" x2="-2479.5" gradientTransform="matrix(-.70610 0 0 .70610 1538 2255.7)" y1="-2277" x1="-2564.1">
<stop stop-color="#9fae8d" offset="0"/>
<stop stop-color="#e9e9e9" offset="1"/>
</linearGradient>
<radialGradient id="radialGradient7829" gradientUnits="userSpaceOnUse" cy="107.05" cx="73.295" gradientTransform="matrix(.95816 0 0 .95578 2.8386 4.5812)" r="30.225">
<stop stop-color="#3f4239" offset="0"/>
<stop stop-color="#171815" offset="1"/>
</radialGradient>
<radialGradient id="radialGradient7831" gradientUnits="userSpaceOnUse" cy="120.41" cx="150.8" gradientTransform="matrix(1 0 0 .96708 0 3.9642)" r="31.797">
<stop stop-color="#fff" offset="0"/>
<stop stop-color="#fff" stop-opacity=".37956" offset="1"/>
</radialGradient>
<radialGradient id="radialGradient7833" fx="37.788" fy="107.56" xlink:href="#linearGradient3456" gradientUnits="userSpaceOnUse" cy="107.18" cx="39.047" gradientTransform="matrix(.54108 -.93718 1.1632 .67160 -118.47 82.428)" r="14.646"/>
<radialGradient id="radialGradient7835" fx="3310.5" fy="577.4" gradientUnits="userSpaceOnUse" cy="619.61" cx="3315.6" gradientTransform="translate(0 -.00052091)" r="42.125">
<stop stop-color="#daeac6" offset="0"/>
<stop stop-color="#5d6b4c" offset="1"/>
</radialGradient>
<radialGradient id="radialGradient7837" gradientUnits="userSpaceOnUse" cy="568.45" cx="3304.1" gradientTransform="matrix(1.4965 0 0 1 -1640.5 -.00053234)" r="41.221">
<stop stop-color="#fff" offset="0"/>
<stop stop-color="#fff" stop-opacity="0" offset="1"/>
</radialGradient>
<radialGradient id="radialGradient7839" gradientUnits="userSpaceOnUse" cy="571.17" cx="3310.5" gradientTransform="matrix(2.402 0 0 2.402 -4641.4 -800.8)" r="40.559">
<stop stop-color="#fff" offset="0"/>
<stop stop-color="#fff" stop-opacity="0" offset="1"/>
</radialGradient>
<radialGradient id="radialGradient7841" xlink:href="#linearGradient4624" gradientUnits="userSpaceOnUse" cy="18.929" cx="72.475" gradientTransform="matrix(1 0 0 .27514 0 44.645)" r="32.295"/>
<radialGradient id="radialGradient7843" xlink:href="#linearGradient4624" gradientUnits="userSpaceOnUse" cy="34.291" cx="72.581" gradientTransform="matrix(.15235 -.0038705 .0069876 .27505 61.678 44.952)" r="32.295"/>
<radialGradient id="radialGradient7845" xlink:href="#linearGradient4624" gradientUnits="userSpaceOnUse" cy="71.688" cx="172.27" gradientTransform="matrix(.29913 -.058516 .034814 .17797 33.074 60.925)" r="32.295"/>
<radialGradient id="radialGradient7847" xlink:href="#linearGradient4624" gradientUnits="userSpaceOnUse" cy="71.688" cx="172.27" gradientTransform="matrix(-.29913 -.058516 -.034814 .17797 113.13 60.8)" r="32.295"/>
<radialGradient id="radialGradient7849" xlink:href="#linearGradient4624" gradientUnits="userSpaceOnUse" cy="51.935" cx="118.28" gradientTransform="matrix(3.5534 1.0598 -1.4559 4.8815 -227.6 -328.36)" r="1.0887"/>
<radialGradient id="radialGradient7853" xlink:href="#linearGradient4582" gradientUnits="userSpaceOnUse" cy="69.367" cx="70.532" gradientTransform="matrix(1.1492 -.027559 .016184 .67486 -10.257 28.269)" r="17.384"/>
<radialGradient id="radialGradient7855" xlink:href="#linearGradient4582" gradientUnits="userSpaceOnUse" cy="79.641" cx="72.2" gradientTransform="matrix(.70828 0 0 .67506 21.743 26.322)" r="17.384"/>
<radialGradient id="radialGradient7857" fx="60.901" fy="19.861" xlink:href="#linearGradient4513" gradientUnits="userSpaceOnUse" cy="79.649" cx="72.151" gradientTransform="matrix(1 0 0 .53940 0 36.686)" r="12.48"/>
<radialGradient id="radialGradient7861" xlink:href="#linearGradient4582" gradientUnits="userSpaceOnUse" cy="45.036" cx="70.592" gradientTransform="matrix(.98392 0 0 .93777 2.2682 11.373)" r="17.384"/>
<radialGradient id="radialGradient7863" xlink:href="#linearGradient4582" gradientUnits="userSpaceOnUse" cy="171.33" cx="31.655" gradientTransform="matrix(.95816 0 0 .20373 2.8386 133.55)" r="28.548"/>
<radialGradient id="radialGradient7865" xlink:href="#linearGradient4582" gradientUnits="userSpaceOnUse" cy="171.33" cx="111.65" gradientTransform="matrix(.95816 0 0 .20373 2.8386 133.55)" r="28.548"/>
<radialGradient id="radialGradient7867" fy="165.91" xlink:href="#linearGradient5289" gradientUnits="userSpaceOnUse" cy="154.89" cx="113.22" gradientTransform="matrix(.99479 -.10191 .023239 .22684 -3.406 143.74)" r="21.516"/>
<radialGradient id="radialGradient7871" xlink:href="#linearGradient4582" gradientUnits="userSpaceOnUse" cy="176.08" cx="118.18" gradientTransform="matrix(.98450 -.085834 .10302 .28292 -93.826 136.87)" r="6.864"/>
<radialGradient id="radialGradient7875" xlink:href="#linearGradient4582" gradientUnits="userSpaceOnUse" cy="176.08" cx="118.18" gradientTransform="matrix(.98450 -.085834 .10302 .28292 -9.7701 137.35)" r="6.864"/>
</defs>
<g transform="translate(30.13 -42.319)">
<path id="path15999" style="color:#000000" d="m3351.6 498.53c-4.1606-1.17-11.074 3.7436-11.156 5.8125-0.067 1.6972 5.7429-1.6125 10.406-0.71875 5.8274 1.6314 9.4518 2.9455 9.0624 0.59375-0.3802-2.2986-4.4268-4.5948-8.3124-5.6875z" transform="matrix(.79017 -.038303 .034184 .70519 684.52 277.55)" fill="url(#linearGradient3255)"/>
<path id="path16001" style="color:#000000" d="m3351.6 498.53c-4.1606-1.17-11.074 3.7436-11.156 5.8125-0.067 1.6972 5.7429-1.6125 10.406-0.71875 5.8274 1.6314 9.4518 2.9455 9.0624 0.59375-0.3802-2.2986-4.4268-4.5948-8.3124-5.6875z" transform="matrix(-.78992 .043261 .038609 .70496 5997.3 4.9644)" fill="url(#linearGradient3257)"/>
<path id="path16003" style="color:#000000" d="m3354 460.28c-2.5452 0.19012-4.0344 1.0796-3.6563 3.2188 0.4928 2.7878 3.6221 5.5633 6.4375 5.75 3.0147 0.19989 7.2414-3.6728 7.0938-6.3125-0.1213-2.1655-3.6624-2.9289-7-2.625-1.0555-0.0676-2.0267-0.0946-2.875-0.0312z" transform="matrix(.79435 0 0 .82334 690.45 77.586)" fill="url(#linearGradient3259)"/>
<path id="path3311" style="color:#000000" d="m3351.6 498.53c-4.1606-1.17-11.074 3.7436-11.156 5.8125-0.067 1.6972 5.7429-1.6125 10.406-0.71875 5.8274 1.6314 9.4518 2.9455 9.0624 0.59375-0.3802-2.2986-4.4268-4.5948-8.3124-5.6875z" transform="matrix(.79017 -.038303 .034184 .70519 684.52 277.55)" fill="url(#linearGradient3255)"/>
<path id="path3313" style="color:#000000" d="m3351.6 498.53c-4.1606-1.17-11.074 3.7436-11.156 5.8125-0.067 1.6972 5.7429-1.6125 10.406-0.71875 5.8274 1.6314 9.4518 2.9455 9.0624 0.59375-0.3802-2.2986-4.4268-4.5948-8.3124-5.6875z" transform="matrix(-.78992 .043261 .038609 .70496 5997.3 4.9644)" fill="url(#linearGradient3257)"/>
<path id="path3315" style="color:#000000" d="m3354 460.28c-2.5452 0.19012-4.0344 1.0796-3.6563 3.2188 0.4928 2.7878 3.6221 5.5633 6.4375 5.75 3.0147 0.19989 7.2414-3.6728 7.0938-6.3125-0.1213-2.1655-3.6624-2.9289-7-2.625-1.0555-0.0676-2.0267-0.0946-2.875-0.0312z" transform="matrix(.79435 0 0 .82334 690.45 77.586)" fill="url(#linearGradient3259)"/>
<path id="path4190" style="color:#000000" d="m3354 460.28c-2.5452 0.19012-4.0344 1.0796-3.6563 3.2188 0.4928 2.7878 3.6221 5.5633 6.4375 5.75 3.0147 0.19989 7.2414-3.6728 7.0938-6.3125-0.1213-2.1655-3.6624-2.9289-7-2.625-1.0555-0.0676-2.0267-0.0946-2.875-0.0312z" transform="matrix(.79435 0 0 .82334 817.12 71.362)" filter="url(#filter4315)" fill="url(#radialGradient4475)"/>
<g transform="translate(-4,20)">
<path id="path5116" d="m71.118 35.943c-24.758 0.94345-31.144 23.138-26.589 42.489-0.41286 0.13408-1.9818 0.67045-4.6112 1.557-0.11642 0.03996-0.21336 0.0801-0.32937 0.11977-14.875 5.0255-56.065 19.553-49.315 24.373 4.1053 2.9323 16.779 5.3671 29.314 6.4975 2.2641 0.20414 4.5641 0.39773 6.767 0.50903 0.02079 1.5564-0.13044 3.1916-0.38925 4.9405-0.8617 5.8044-0.59296 12.292 1.048 18.654-0.0011 0.0116 0.0011 0.0182 0 0.0299-0.45389 4.9326-2.7813 20.799 3.4434 31.47 7.114 12.195 20.331 0.32937 20.331 0.32937l1.4971-2.1559c4.9159 2.0985 10.585 3.5286 17.067 4.1021 7.6352 0.67557 14.736-0.59364 21.08-3.2039 1.2416 1.3676 11.88 12.513 19.972 1.9762 8.2818-10.784 7.0647-29.058 7.4557-31.859 0.65952-2.1969 1.1321-4.4235 1.3774-6.6173 10.49 4.367 21.007 7.6236 25.541 7.0964 8.8092-1.0243-26.826-49.77-42.698-60.095 3.4243-17.922-4.3728-40.475-29.733-40.213-0.40309 0.0041-0.83391-0.01456-1.2276 0z" stroke="#000" stroke-width=".47908" fill="#4a4a44"/>
<path id="path5426" d="m71.261 33.037c-25.839 0.98464-32.503 24.148-27.75 44.344-0.43089 0.13994-2.0684 0.69972-4.8125 1.625-0.1215 0.0417-0.22268 0.0836-0.34375 0.125-15.525 5.2449-58.513 20.407-51.469 25.438 4.2846 3.0604 17.512 5.6015 30.594 6.7812 2.3629 0.21305 4.7634 0.41509 7.0625 0.53125 0.0217 1.6244-0.13613 3.331-0.40625 5.1562-0.89933 6.0578-0.61885 12.829 1.0938 19.469-0.0011 0.0121 0.0011 0.019 0 0.0312-0.47371 5.1479-2.9028 21.707 3.5938 32.844 7.4246 12.728 21.219 0.34375 21.219 0.34375l1.5625-2.25c5.1306 2.1902 11.047 3.6827 17.812 4.2812 7.9686 0.70506 15.38-0.61956 22-3.3438 1.2958 1.4273 12.399 13.059 20.844 2.0625 8.6434-11.255 7.3732-30.327 7.7812-33.25 0.68832-2.2928 1.1816-4.6166 1.4375-6.9062 10.948 4.5577 21.925 7.9564 26.656 7.4062 9.1938-1.069-27.998-51.943-44.562-62.719 3.5738-18.705-4.5638-42.242-31.031-41.969-0.42069 0.0043-0.87032-0.01519-1.2812 0z" transform="matrix(.95816 0 0 .95816 2.8386 4.2879)" filter="url(#filter5436)" stroke-width="0" fill="#4a4a44"/>
<path id="path4822" d="m71.103 35.945c-24.758 0.94345-31.125 23.136-26.57 42.487-0.41286 0.13409-1.9832 0.67257-4.6126 1.5591-0.11642 0.03992-0.20872 0.09022-0.32472 0.12993-14.875 5.0255-56.057 19.541-49.308 24.362 4.1053 2.9323 16.765 5.366 29.299 6.4964 2.2641 0.20414 4.5533 0.40841 6.7563 0.51971 0.02079 1.5564-0.13097 3.1884-0.38978 4.9373-3.0447 20.509 8.14 49.307 43.396 52.426 27.008 2.3897 47.625-19.412 49.893-39.693 10.49 4.367 20.997 7.6083 25.531 7.0811 8.8092-1.0243-26.81-49.767-42.682-60.092 3.4243-17.922-4.3935-40.475-29.754-40.213-0.40309 0.0041-0.84069-0.01455-1.2344 0z" fill-rule="evenodd" fill="url(#radialGradient7807)"/>
<path id="path4844" d="m71.245 33.04c-25.839 0.98464-32.484 24.146-27.73 44.342-0.43089 0.13994-2.0698 0.70194-4.814 1.6272-0.1215 0.04166-0.21783 0.09416-0.3389 0.1356-15.525 5.2449-58.505 20.394-51.461 25.425 4.2846 3.0604 17.497 5.6003 30.578 6.7801 2.3629 0.21305 4.7521 0.42624 7.0513 0.5424 0.0217 1.6244-0.13669 3.3276-0.4068 5.1529-3.1776 21.404 8.4954 51.46 45.291 54.715 28.188 2.494 49.705-20.259 52.071-41.426 10.948 4.5577 21.914 7.9405 26.646 7.3903 9.1938-1.069-27.981-51.94-44.545-62.716 3.5738-18.705-4.5853-42.242-31.053-41.969-0.42069 0.0043-0.8774-0.01519-1.2883 0z" fill-rule="evenodd" transform="matrix(.95816 0 0 .95816 2.8386 4.2879)" filter="url(#filter4882)" fill="url(#radialGradient7809)"/>
<path id="path4908" opacity=".7" d="m70.469 35.094c-13.09-0.026-24.327 10.691-25.625 23.594-1.054 6.674-0.335 13.493 1.218 20.031-19.002 6.888-39.019 12.33-56.281 23.161-3.3007 1.9723 3.0582 2.7525 4.2812 3.4375 10.568 3.0112 21.7 3.9686 32.719 4.7188-0.64621 10.411-2.093 21.303 2.2812 31.062 9.9535 28.232 49.458 37.722 72.366 19.467 10.332-7.7761 17.714-19.906 18.665-33.061 8.9706 3.4439 18.082 7.854 27.719 8.2188-3.7151-12.887-13.092-23.423-20.903-34.095-7.6545-9.294-15.218-18.834-25.253-25.686 3.6054-15.076-1.946-34.661-18.312-39.469-4.1601-1.2732-8.5236-1.6073-12.875-1.375z" fill-rule="evenodd" transform="matrix(.95816 0 0 .95816 2.8386 4.2879)" filter="url(#filter4972)" stroke="url(#radialGradient7813)" stroke-width="2" fill="url(#radialGradient7811)"/>
<path id="path4319" stroke-linejoin="round" style="color:#000000" d="m3302.5 581.5a40.305 40.305 0 0 1 51.224 24.973 40.305 40.305 0 0 1 -24.952 51.235 40.305 40.305 0 0 1 -51.246 -24.93 40.305 40.305 0 0 1 24.908 -51.256" transform="matrix(0.986 0 0 0.986 -3196 -488.71)" filter="url(#filter4325)" stroke="url(#linearGradient7815)" stroke-linecap="round" stroke-width=".97177" fill="none"/>
<path id="path4946" d="m70.219 35.094c-13.09-0.026-24.327 10.691-25.625 23.594-1.054 6.674-0.335 13.493 1.218 20.031-19.002 6.888-39.019 12.33-56.281 23.161-3.3007 1.9723 3.0582 2.7525 4.2812 3.4375 10.568 3.0112 21.7 3.9686 32.719 4.7188-0.64621 10.411-2.093 21.303 2.2812 31.062 9.9535 28.232 49.458 37.722 72.366 19.467 10.332-7.7761 17.714-19.906 18.665-33.061 8.9706 3.4439 18.082 7.854 27.719 8.2188-3.7151-12.887-13.092-23.423-20.903-34.095-7.6545-9.294-15.218-18.834-25.253-25.686 3.6054-15.076-1.946-34.661-18.312-39.469-4.1601-1.2732-8.5236-1.6073-12.875-1.375z" transform="matrix(.95816 0 0 .95816 2.8386 4.2879)" filter="url(#filter4960)" stroke="url(#radialGradient7817)" stroke-width="2" fill="none"/>
<path id="path5038" opacity=".7" d="m70.469 35.094c-13.09-0.026-24.327 10.691-25.625 23.594-1.054 6.674-0.335 13.493 1.218 20.031-19.002 6.888-39.019 12.33-56.281 23.161-3.3007 1.9723 3.0582 2.7525 4.2812 3.4375 10.568 3.0112 21.7 3.9686 32.719 4.7188-0.64621 10.411-2.093 21.303 2.2812 31.062 9.9535 28.232 49.458 37.722 72.366 19.467 10.332-7.7761 17.714-19.906 18.665-33.061 8.9706 3.4439 18.082 7.854 27.719 8.2188-3.7151-12.887-13.092-23.423-20.903-34.095-7.6545-9.294-15.218-18.834-25.253-25.686 3.6054-15.076-1.946-34.661-18.312-39.469-4.1601-1.2732-8.5236-1.6073-12.875-1.375z" fill-rule="evenodd" transform="matrix(.95816 0 0 .95816 2.8386 4.2879)" filter="url(#filter4972)" stroke="url(#radialGradient7821)" stroke-width="2" fill="url(#radialGradient7819)"/>
<path id="path15995" d="m118.46 128.59c2.9804-7.1758-3.8244-21.672-2.9582-22.725 2.7927-3.3963 21.226 28.467 21.226 28.467s-14.893-3.3576-18.268-5.7414z" fill-rule="evenodd" fill="url(#radialGradient7823)"/>
<path id="path15959" style="color:#000000" d="m3302.5 581.5a40.305 40.305 0 0 1 51.224 24.973 40.305 40.305 0 0 1 -24.952 51.235 40.305 40.305 0 0 1 -51.246 -24.93 40.305 40.305 0 0 1 24.908 -51.256" transform="matrix(-0.986 0 0 0.986 3342.4 -488.71)" fill="url(#linearGradient7825)"/>
<path id="path4150" style="color:#000000" d="m101.54 122c-0.0912 8.1145-3.3574 16.287-9.402 21.768-13.012 13.086-37.254 7.6486-45.183-8.2941-2.169-3.6646-3.192-7.6665-3.2937-11.708-0.04935 4.365 0.95273 8.7105 3.2937 12.666 7.9298 15.943 32.171 21.381 45.183 8.2941 6.2816-5.6958 9.5668-14.305 9.402-22.726z" stroke="#fff" stroke-width=".95816" fill="none"/>
<path id="path15961" stroke-linejoin="round" style="color:#000000" d="m3302.5 581.5a40.305 40.305 0 0 1 51.224 24.973 40.305 40.305 0 0 1 -24.952 51.235 40.305 40.305 0 0 1 -51.246 -24.93 40.305 40.305 0 0 1 24.908 -51.256" transform="matrix(0.986 0 0 0.986 -3196 -488.71)" stroke="url(#linearGradient7815)" stroke-linecap="round" stroke-width=".97177" fill="none"/>
<path id="path15963" style="color:#000000" d="m71.897 93.366c-20.043-0.492-35.26 24.694-24.951 42.114 7.9298 15.943 32.184 21.388 45.196 8.3018 12.089-10.962 13.074-32.768-0.25466-43.109-5.46-4.809-12.701-7.658-19.99-7.304z" fill="url(#radialGradient7829)"/>
<path id="path15967" style="color:#000000" d="m72.376 93.366c-20.043-0.492-35.26 24.694-24.951 42.114 7.9298 15.943 32.184 21.388 45.196 8.3018 12.089-10.962 13.074-32.768-0.25466-43.109-5.4601-4.8098-12.701-7.6585-19.99-7.3047z" fill="none"/>
<path id="path15969" d="m151.41 90.156v11.438-11.438zm15.531 3.75-3.25 6.3125 3.25-6.3125zm-31.47 0.282 3.28 6.312-3.28-6.312zm42.906 11.688-6.5625 2.6562 6.5625-2.6562zm-54.125 1.4062 6.5625 2.6562-6.5625-2.6562zm57.844 12.812-11.406 0.0937 11.406-0.0937zm-51.16 0.65-11.44 0.28 11.44-0.28zm39.781 10.688 7.4062 3.0312-7.4062-3.0312zm-39.344 0.59375-6.5625 2.6875 6.5625-2.6875zm20.875 7.5938 0.1875 11.031l-0.2-11.03zm-11.812 0.75-3.2812 6.2812 3.2812-6.2812zm23.188 0 3.25 6.2812-3.25-6.2812z" transform="matrix(.95816 0 0 .95816 -71.858 7.0783)" filter="url(#filter4578)" stroke="url(#radialGradient7831)" stroke-width="1.5" fill="none"/>
<path id="path16005" d="m27.393 111.34c0.597-5.74 9.999-13.909 9.663-15.23-1.083-4.261-28.058 13.06-28.058 13.06s14.327 2.889 18.395 2.1662z" fill-rule="evenodd" fill="url(#radialGradient7833)"/>
<path id="path4178" style="color:#000000" d="m101.54 123.31c-0.0912-8.1145-3.3574-16.287-9.402-21.768-13.012-13.086-37.254-7.6486-45.183 8.2941-2.169 3.6646-3.192 7.6665-3.2937 11.708-0.04935-4.3649 0.95273-8.7105 3.2937-12.666 7.9298-15.943 32.171-21.381 45.183-8.2941 6.2816 5.6958 9.5668 14.305 9.402 22.726z"/>
<path id="path15965" stroke-linejoin="round" stroke="#4a553e" stroke-linecap="round" stroke-width="3.6179" fill="url(#radialGradient7835)" style="color:#000000" transform="matrix(.26484 0 0 .26484 -804.87 -41.331)" d="m3302.5 581.5a40.305 40.305 0 0 1 51.224 24.973 40.305 40.305 0 0 1 -24.952 51.235 40.305 40.305 0 0 1 -51.246 -24.93 40.305 40.305 0 0 1 24.908 -51.256"/>
<path id="path5068" stroke-linejoin="round" style="color:#000000" d="m3302.5 581.5a40.305 40.305 0 0 1 51.224 24.973 40.305 40.305 0 0 1 -24.952 51.235 40.305 40.305 0 0 1 -51.246 -24.93 40.305 40.305 0 0 1 24.908 -51.256" transform="matrix(.26484 0 0 .26484 -804.87 -41.331)" stroke="url(#radialGradient7837)" stroke-linecap="round" stroke-width="1.8089" fill="none"/>
<path id="path5082" stroke-linejoin="round" style="color:#000000" d="m3302.5 581.5a40.305 40.305 0 0 1 51.224 24.973 40.305 40.305 0 0 1 -24.952 51.235 40.305 40.305 0 0 1 -51.246 -24.93 40.305 40.305 0 0 1 24.908 -51.256" transform="matrix(0.986 0 0 0.986 -3196 -488.71)" stroke="url(#radialGradient7839)" stroke-linecap="round" stroke-width=".48589" fill="none"/>
<g transform="matrix(.95816 0 0 .95816 2.8386 4.2879)">
<path id="path4784" stroke-linejoin="round" d="m103.62 53.207c-0.14868 0.08227-0.45658 0.26288-0.9375 0.54688-0.53792 0.31765-1.2144 0.71988-1.8926 1.1211-0.6782 0.40121-1.3565 0.80035-1.8965 1.1133-0.53998 0.31293-0.91896 0.5298-1.0781 0.59766a0.16199 0.16199 0 0 1 -0.21094 -0.07813c-0.32233-0.67288-0.67271-1.1693-1.1426-1.5176-0.46987-0.34828-1.0655-0.55657-1.9062-0.62891-1.6814-0.14467-4.3182 0.2702-8.6465 1.1719-8.365 1.7426-10.377 4.3798-10.465 4.5a0.16199 0.16199 0 0 1 -0.13086 0.06641h-1.0625-1.125-1.1875-1.0312a0.16199 0.16199 0 0 1 -0.13086 -0.06641c-0.08747-0.12024-2.0999-2.7574-10.465-4.5-4.3282-0.90166-6.9727-1.3166-8.6621-1.1719-0.84471 0.07235-1.4452 0.28052-1.918 0.62891-0.47277 0.34839-0.82426 0.84492-1.1465 1.5176a0.16199 0.16199 0 0 1 -0.21094 0.07813c-0.15916-0.06786-0.53815-0.28472-1.0781-0.59766-0.53998-0.31293-1.2183-0.71207-1.8965-1.1133-0.67821-0.40121-1.3547-0.80344-1.8926-1.1211-0.46696-0.27575-0.75306-0.44367-0.91016-0.53125-0.27089 0.97126-0.90509 3.0324-1.1074 4.3184 0.70576 0.8315 1.9546 1.4471 3.2559 2.041 1.3282 0.60625 2.7012 1.1923 3.5879 2.0508 0.0025 0.0021 0.0043 0.0043 0.0059 0.0059 0.0082 0.0085 0.01313 0.01711 0.01758 0.02344 0.0089 0.01266 0.01381 0.02157 0.01758 0.0293 0.0049 0.01015 0.0073 0.01502 0.0098 0.02148 0.05011 0.03538 0.118 0.07227 0.18359 0.1582a0.16199 0.16199 0 0 1 0.002 0.0039c0.214 0.29884 0.28119 0.66015 0.39844 1.0605 0.11724 0.4004 0.27775 0.84593 0.64648 1.3359 0.73746 0.98001 2.3295 2.1464 6.1211 3.293 4.0657 1.2295 6.4612 1.7794 8.0586 1.9531s2.3883-0.02065 3.3164-0.29688c0.87002-0.25886 1.5561-1.0528 2.0156-1.7949 0.45955-0.74207 0.69141-1.416 0.69141-1.416l0.13672 0.21484s-0.10101-0.41237-0.002-0.73828c0.09905-0.32591 0.2545-0.76263 0.48828-1.2109 0.46756-0.89662 1.2583-1.8554 2.5117-1.998a0.16199 0.16199 0 0 1 0.03125 -0.002c0.0012-0.000044 0.0026 0.000039 0.0039 0 0.002-0.00006 0.0033 0.00003 0.0059 0 0.01304-0.000742 0.01328-0.000519 0.01367 0 0.000283 0.00037 0.01766-0.000751 0.0098 0a0.16199 0.16199 0 0 1 0.02148 0 0.16199 0.16199 0 0 1 0.0098 0.002c-0.000044-0.00005-0.002-0.002-0.002-0.002 0.0057-0.000026 0.0126 0.000035 0.01563 0a0.16199 0.16199 0 0 1 0.0098 0c0.0226 0.0011 0.07861-0.0027 0.13867 0 0.011 0.000495 0.01362-0.0011 0.02539 0 0.0015 0.000064 0.0046-0.000054 0.0059 0 0.0037-0.000165 0.0037-0.000003 0.0039 0a0.16199 0.16199 0 0 1 0.02344 0.002c1.2534 0.14264 2.0442 1.1014 2.5117 1.998 0.23378 0.44831 0.38923 0.88503 0.48828 1.2109 0.09513 0.31301 0.13155 0.50693 0.13477 0.52344 0 0-0.000002 0.0019 0 0.002 0.000902 0.0026 0.23276 0.67344 0.69141 1.4141 0.45955 0.74207 1.1456 1.5361 2.0156 1.7949 0.92842 0.27629 1.7113 0.47055 3.3008 0.29688 1.5895-0.17368 3.9772-0.72356 8.043-1.9531 4.113-1.2438 5.6299-2.5033 6.2812-3.5293 0.32569-0.51298 0.43935-0.97246 0.55273-1.3809 0.11338-0.4084 0.23146-0.78625 0.58789-1.0371 0.88764-0.84967 2.2586-1.4329 3.5859-2.0352 1.3089-0.59397 2.5638-1.2099 3.2695-2.041-0.20312-1.2909-0.84244-3.3681-1.1113-4.334zm-30.633 9.0684a0.16199 0.16199 0 0 1 0.01953 0.0039c0.000159 0.000038-0.01172-0.0028-0.01953-0.0039zm0.20312 0.04102-0.02734 0.02539a0.16199 0.16199 0 0 1 0.03125 0.0957c0.0067-0.000002 0.02539 0 0.02539 0 0.000039-0.000023-0.01864-0.0778-0.0293-0.12109zm0.0039 0.12109s-0.03182-0.03518-0.0625-0.06836l-0.0098 0.0098a0.16199 0.16199 0 0 1 0.0098 0.05859c0.03101-0.00001 0.046 0.000005 0.0625 0z" fill-rule="evenodd" stroke="#000" stroke-linecap="round" stroke-width="2" fill="#0c0c0c"/>
<path id="path4622" d="m42.494 52.968c-0.24018 0.88991-0.98609 3.2406-1.1896 4.6144 1.4659 1.8046 5.2167 2.5312 6.9216 4.1818 0.01154 0.0069 0.02653 0.02907 0.03576 0.03599 0.06229 0.05041 0.13439 0.1201 0.18031 0.18025 0.74234 1.0366-0.37123 3.4285 7.2461 5.7319 8.1395 2.4615 9.598 2.2136 11.464 1.6583 1.8662-0.55526 2.812-3.3166 2.812-3.3166-0.000115-0.000011 0.63263-3.3365 2.9921-3.605 0 0.0012 0.0323-0.0012 0.03576 0 0.01154-0.00098 0.02653 0.000877 0.03576 0 0 0.000266 0.02769 0.000093 0.03576 0 0.04845 0.0023 0.0969-0.0046 0.1442 0 0-0.0012 0.03115 0.0012 0.03576 0 2.3594 0.26851 2.9922 3.605 2.9921 3.605 0 0.000012 0.94583 2.7613 2.812 3.3166 1.8658 0.55526 3.3242 0.80324 11.464-1.6583 8.2629-2.4987 6.2296-5.0806 7.4624-5.9482 1.7049-1.6506 5.4557-2.3772 6.9216-4.1818-0.2035-1.3738-0.94941-3.7245-1.1896-4.6144 0 0.0046-0.0323 0.03265-0.0358 0.03599-0.47817 0.25008-5.4267 3.2178-5.9122 3.4247-1.3148-2.7446-3.2339-2.85-11.896-1.0454-8.3918 1.7482-10.444 4.379-10.563 4.5423h-1.0455-1.1175-1.1897-1.0455c-0.11882-0.16333-2.1707-2.7941-10.563-4.5423-8.6626-1.8046-10.582-1.6991-11.896 1.0454-0.48543-0.20696-5.434-3.1747-5.9122-3.4247 0-0.0035-0.0323-0.03172-0.03576-0.03599z" stroke="url(#radialGradient7841)" fill="none"/>
<path id="path4632" d="m42.494 52.968c-0.24018 0.88991-0.98609 3.2406-1.1896 4.6144 1.4659 1.8046 5.2167 2.5312 6.9216 4.1818 0.01154 0.0069 0.02653 0.02907 0.03576 0.03599 0.06229 0.05041 0.13439 0.1201 0.18031 0.18025 0.74234 1.0366-0.37123 3.4285 7.2461 5.7319 8.1395 2.4615 9.598 2.2136 11.464 1.6583 1.8662-0.55526 2.812-3.3166 2.812-3.3166-0.000115-0.000011 0.63263-3.3365 2.9921-3.605 0 0.0012 0.0323-0.0012 0.03576 0 0.01154-0.00098 0.02653 0.000877 0.03576 0 0 0.000266 0.02769 0.000093 0.03576 0 0.04845 0.0023 0.0969-0.0046 0.1442 0 0-0.0012 0.03115 0.0012 0.03576 0 2.3594 0.26851 2.9922 3.605 2.9921 3.605 0 0.000012 0.94583 2.7613 2.812 3.3166 1.8658 0.55526 3.3242 0.80324 11.464-1.6583 8.2629-2.4987 6.2296-5.0806 7.4624-5.9482 1.7049-1.6506 5.4557-2.3772 6.9216-4.1818-0.2035-1.3738-0.94941-3.7245-1.1896-4.6144 0 0.0046-0.0323 0.03265-0.0358 0.03599-0.47817 0.25008-5.4267 3.2178-5.9122 3.4247-1.3148-2.7446-3.2339-2.85-11.896-1.0454-8.3918 1.7482-10.444 4.379-10.563 4.5423h-1.0455-1.1175-1.1897-1.0455c-0.11882-0.16333-2.1707-2.7941-10.563-4.5423-8.6626-1.8046-10.582-1.6991-11.896 1.0454-0.48543-0.20696-5.434-3.1747-5.9122-3.4247 0-0.0035-0.0323-0.03172-0.03576-0.03599z" stroke="url(#radialGradient7843)" fill="none"/>
<path id="path4636" d="m42.494 53.093c-0.24018 0.88991-0.98609 3.2406-1.1896 4.6144 1.4659 1.8046 5.2167 2.5312 6.9216 4.1818 0.01154 0.0069 0.02653 0.02907 0.03576 0.03599 0.06229 0.05041 0.13439 0.1201 0.18031 0.18025 0.74234 1.0366-0.37123 3.4285 7.2461 5.7319 8.1395 2.4615 9.598 2.2136 11.464 1.6583 1.8662-0.55526 2.812-3.3166 2.812-3.3166-0.000115-0.000011 0.63263-3.3365 2.9921-3.605 0 0.0012 0.0323-0.0012 0.03576 0 0.01154-0.00098 0.02653 0.000877 0.03576 0 0 0.000266 0.02769 0.000093 0.03576 0 0.04845 0.0023 0.0969-0.0046 0.1442 0 0-0.0012 0.03115 0.0012 0.03576 0 2.3594 0.26851 2.9922 3.605 2.9921 3.605 0 0.000012 0.94583 2.7613 2.812 3.3166 1.8658 0.55526 3.3242 0.80324 11.464-1.6583 8.2629-2.4987 6.2296-5.0806 7.4624-5.9482 1.7049-1.6506 5.4557-2.3772 6.9216-4.1818-0.2035-1.3738-0.94941-3.7245-1.1896-4.6144 0 0.0046-0.0323 0.03265-0.0358 0.03599-0.47817 0.25008-5.4267 3.2178-5.9122 3.4247-1.3148-2.7446-3.2339-2.85-11.896-1.0454-8.3918 1.7482-10.444 4.379-10.563 4.5423h-1.0455-1.1175-1.1897-1.0455c-0.11882-0.16333-2.1707-2.7941-10.563-4.5423-8.6626-1.8046-10.582-1.6991-11.896 1.0454-0.48543-0.20696-5.434-3.1747-5.9122-3.4247 0-0.0035-0.0323-0.03172-0.03576-0.03599z" stroke="url(#radialGradient7845)" fill="none"/>
<path id="path4648" d="m103.71 52.968c0.24018 0.88991 0.9861 3.2406 1.1896 4.6144-1.4659 1.8046-5.2167 2.5312-6.9216 4.1818-0.01154 0.0069-0.02653 0.02907-0.03576 0.03599-0.06229 0.05041-0.13439 0.1201-0.18031 0.18025-0.74234 1.0366 0.37123 3.4285-7.2461 5.7319-8.1395 2.4615-9.598 2.2136-11.464 1.6583-1.8662-0.55526-2.812-3.3166-2.812-3.3166 0.000115-0.000011-0.63263-3.3365-2.9921-3.605 0 0.0012-0.0323-0.0012-0.03576 0-0.01154-0.00098-0.02653 0.000877-0.03576 0 0 0.000266-0.02769 0.000093-0.03576 0-0.04845 0.0023-0.0969-0.0046-0.1442 0 0-0.0012-0.03115 0.0012-0.03576 0-2.3594 0.26851-2.9922 3.605-2.9921 3.605 0 0.000012-0.94583 2.7613-2.812 3.3166-1.8658 0.55526-3.3242 0.80324-11.464-1.6583-8.2629-2.4987-6.2296-5.0806-7.4624-5.9482-1.7049-1.6506-5.4557-2.3772-6.9216-4.1818 0.2035-1.3738 0.94941-3.7245 1.1896-4.6144 0 0.0046 0.0323 0.03265 0.0358 0.03599 0.47817 0.25008 5.4267 3.2178 5.9122 3.4247 1.3148-2.7446 3.2339-2.85 11.896-1.0454 8.3918 1.7482 10.444 4.379 10.563 4.5423h1.0455 1.1175 1.1897 1.0455c0.11882-0.16333 2.1707-2.7941 10.563-4.5423 8.6626-1.8046 10.582-1.6991 11.896 1.0454 0.48543-0.20696 5.434-3.1747 5.9122-3.4247 0-0.0035 0.0323-0.03172 0.0358-0.03599z" stroke="url(#radialGradient7847)" fill="none"/>
<g transform="matrix(-1 0 0 1 146.14 0)">
<path id="path4786" d="m119.38 54.59 1.1775-4.3944" transform="translate(-77.958 2.9123)" filter="url(#filter4796)" stroke="url(#radialGradient7849)" stroke-width="1px" fill="none"/>
</g>
<g transform="translate(-4e-6,0)">
<path id="path4807" d="m119.38 54.59 1.1775-4.3944" transform="translate(-77.958 2.9123)" filter="url(#filter4796)" stroke="url(#radialGradient7849)" stroke-width="1px" fill="none"/>
</g>
</g>
<path id="path5048" stroke-linejoin="round" style="color:#000000" d="m66.075 71.306c-2.8618 1.5692-5.4942 2.1027-5.0504 5.6625 0.0014 0.01188 0.003 0.02377 0.0045 0.03565 0.0015 0.01189 0.0031 0.02377 0.0046 0.03565 0.89608 6.9345 6.389 13.795 11.329 14.259 5.3084 0.499 12.729-9.1326 12.469-15.722-0.10664-2.7027-2.715-2.9448-5.5337-4.4088-5.1085-5.1848-8.7556-4.8665-13.223 0.13729z" stroke="url(#radialGradient7853)" stroke-linecap="round" stroke-width="1.9163" fill="none"/>
<path id="path5050" stroke-linejoin="round" style="color:#000000" d="m66.075 71.306c-2.8618 1.5692-5.4942 2.1027-5.0504 5.6625 0.0014 0.01188 0.003 0.02377 0.0045 0.03565 0.0015 0.01189 0.0031 0.02377 0.0046 0.03565 0.89608 6.9345 6.389 13.795 11.329 14.259 5.3084 0.499 12.729-9.1326 12.469-15.722-0.10664-2.7027-2.715-2.9448-5.5337-4.4088-5.1085-5.1848-8.7556-4.8665-13.223 0.13729z" stroke="url(#radialGradient7855)" stroke-linecap="round" stroke-width=".84330" fill="#f09c42"/>
<path id="path5052" style="color:#000000" d="m64.861 72.992c-2.722 0.20333-4.411 0.88489-4.8203 1.2109-0.4093 0.32605-0.4785-0.02496-0.19922 1.5547 0.37592 2.1272 2.0443 4.9117 4.4141 7.0215s5.3452 3.4583 7.5059 3.6016c1.7291 0.11465 5.5876-1.4461 8.4824-4.0508 2.8948-2.6046 4.4301-6.1153 4.3848-6.9258-0.0087-0.15502 0.06979-0.07801-0.26367-0.38672s-1.1532-0.81057-2.3672-1.2012c-2.4279-0.7812-6.2674-1.1019-9.9395-0.76758a4.4419 4.4419 0 0 1 -0.68555 0.0078c-2.5101-0.16086-4.7236-0.19802-6.5117-0.06445z" transform="matrix(1 0 0 -1 .5 160.3)" filter="url(#filter4565)" fill="url(#radialGradient7857)"/>
<path id="path5054" style="color:#000000" d="m64.861 72.992c-2.722 0.20333-4.411 0.88489-4.8203 1.2109-0.4093 0.32605-0.4785-0.02496-0.19922 1.5547 0.37592 2.1272 2.0443 4.9117 4.4141 7.0215s5.3452 3.4583 7.5059 3.6016c1.7291 0.11465 5.5876-1.4461 8.4824-4.0508 2.8948-2.6046 4.4301-6.1153 4.3848-6.9258-0.0087-0.15502 0.06979-0.07801-0.26367-0.38672s-1.1532-0.81057-2.3672-1.2012c-2.4279-0.7812-6.2674-1.1019-9.9395-0.76758a4.4419 4.4419 0 0 1 -0.68555 0.0078c-2.5101-0.16086-4.7236-0.19802-6.5117-0.06445z" transform="matrix(.73921 0 0 -1 19.434 160.3)" filter="url(#filter4565)" fill="url(#radialGradient7857)"/>
<path id="path5056" stroke-linejoin="round" style="color:#000000" d="m72.67 66.35c-2.0088 0.05425-4.0227 1.3376-6.3145 3.9043a0.47573 0.47573 0 0 1 -0.12695 0.10156c-1.5277 0.83769-2.951 1.3923-3.8652 2.127-0.9084 0.72993-1.3786 1.5563-1.1719 3.2734a0.47573 0.47573 0 0 1 0 0.002 0.47573 0.47573 0 0 1 0.03125 0.11914c0.45436 3.5161 2.0836 7.047 4.2227 9.7344 2.1391 2.6873 4.7849 4.505 7.1621 4.7285 2.4657 0.23178 5.7215-2.0108 8.2598-5.25 2.5382-3.2392 4.349-7.4127 4.2207-10.664-0.04971-1.2596-0.59178-1.8248-1.5762-2.3887-0.98439-0.56392-2.4035-1.0162-3.918-1.8027a0.47573 0.47573 0 0 1 -0.11914 -0.08789c-2.6233-2.6625-4.7986-3.8511-6.8047-3.7969z" stroke="url(#radialGradient7861)" stroke-linecap="round" stroke-width="2" fill="none"/>
<path id="path5233" d="m114.75 155.34s13 13 34.25 13.75 37-15 37-15" transform="matrix(.95816 0 0 .95816 -71.858 7.0783)" filter="url(#filter5263)" stroke="#000" stroke-width="1px" fill="none"/>
<path id="path15997" stroke-linejoin="round" style="color:#000000" d="m13.642 165.82c-2.7708 1.2476-5.7711 2.6329-7.4386 5.2987-0.50445 0.93913 0.35489 2.2471 1.432 2.0426 4.017 0.54502 8.0867-0.0152 12.111 0.42628 5.2808 0.28777 10.57 0.60376 15.859 0.34227 3.0384-0.0822 6.0749-0.23918 9.1144-0.14788 3.5018-0.0442 7.0251-0.12266 10.493-0.62683 1.7889-0.35022 3.5968-1.1134 4.7957-2.5307 0.834-1.4846-0.3656-3.3079-1.8862-3.6968-3.4666-1.7157-7.3807-1.9803-11.097-2.8446-4.2569-0.85031-8.5955-1.1694-12.932-1.1942-5.1877-0.10341-10.39 0.35283-15.455 1.4964-1.6829 0.40669-3.407 0.73065-4.9973 1.4349z" stroke="url(#radialGradient7863)" stroke-linecap="round" stroke-width="1.9163" fill="#f09c42"/>
<path id="path5118" stroke-linejoin="round" style="color:#000000" d="m129.35 165.82c2.7708 1.2476 5.7711 2.6329 7.4386 5.2987 0.50445 0.93913-0.35488 2.2471-1.432 2.0426-4.017 0.54502-8.0867-0.0152-12.111 0.42628-5.2808 0.28777-10.57 0.60376-15.859 0.34227-3.0384-0.0822-6.0749-0.23918-9.1144-0.14788-3.5018-0.0442-7.0251-0.12266-10.493-0.62683-1.7889-0.35022-3.5968-1.1134-4.7957-2.5307-0.834-1.4846 0.3656-3.3079 1.8862-3.6968 3.4666-1.7157 7.3807-1.9803 11.097-2.8446 4.2569-0.85031 8.5955-1.1694 12.932-1.1942 5.1877-0.10341 10.39 0.35283 15.455 1.4964 1.6829 0.40669 3.407 0.73065 4.9973 1.4349z" stroke="url(#radialGradient7865)" stroke-linecap="round" stroke-width="1.9163" fill="#f09c42"/>
<path id="path5297" style="color:#000000" d="m110.71 169.23c-4.3562 0.0249-8.6514 0.35164-12.797 1.1797l0.11328-0.0254c-3.4825 0.81006-6.4503 1.2868-8.9824 2.1348 0.08972 0.0221 0.15572 0.0629 0.24805 0.082 3.2942 0.47069 6.7562 0.56795 10.35 0.61328l-0.1582 0.002c3.3751-0.10138 6.6328 0.0702 9.7422 0.1543a3.6962 3.6962 0 0 1 0.082 0.004c5.2447 0.25929 10.616-0.0716 16.148-0.37304l-0.20117 0.0156c2.4371-0.26736 4.7177-0.25397 6.8398-0.23437-0.53576-0.26602-0.96834-0.54063-1.5586-0.80664l-0.006-0.002c-1.1299-0.49938-2.6908-0.82624-4.5449-1.2734-4.9589-1.1183-10.079-1.5732-15.223-1.4707a3.6962 3.6962 0 0 1 -0.0527 0z" transform="matrix(-1 0 0 1 141.16 -2)" fill="url(#radialGradient7867)"/>
<path id="path5309" style="color:#000000" d="m110.71 169.23c-4.3562 0.0249-8.6514 0.35164-12.797 1.1797l0.11328-0.0254c-3.4825 0.81006-6.4503 1.2868-8.9824 2.1348 0.08972 0.0221 0.15572 0.0629 0.24805 0.082 3.2942 0.47069 6.7562 0.56795 10.35 0.61328l-0.1582 0.002c3.3751-0.10138 6.6328 0.0702 9.7422 0.1543a3.6962 3.6962 0 0 1 0.082 0.004c5.2447 0.25929 10.616-0.0716 16.148-0.37304l-0.20117 0.0156c2.4371-0.26736 4.7177-0.25397 6.8398-0.23437-0.53576-0.26602-0.96834-0.54063-1.5586-0.80664l-0.006-0.002c-1.1299-0.49938-2.6908-0.82624-4.5449-1.2734-4.9589-1.1183-10.079-1.5732-15.223-1.4707a3.6962 3.6962 0 0 1 -0.0527 0z" transform="translate(0,-2)" fill="url(#radialGradient7867)"/>
<g transform="matrix(.95816 0 0 .95816 2.8386 4.2879)" filter="url(#filter5408)" stroke-width="2.0986" fill="none">
<path id="path5363" d="m33.942 175.91s0.88388-0.95153 6.364-1.1245c5.4801-0.17301 6.364 0.77852 6.364 0.77852" transform="matrix(-1 0 0 1 140.61 0)" filter="url(#filter5359)" stroke="url(#radialGradient7871)"/>
<path id="path5369" d="m33.942 175.91s0.88388-0.95153 6.364-1.1245c5.4801-0.17301 6.364 0.77852 6.364 0.77852" transform="matrix(-1 0 0 1 152.67 .47487)" filter="url(#filter5359)" stroke="url(#radialGradient7871)"/>
<path id="path5375" d="m118 176.38s0.88388-0.95153 6.364-1.1245c5.4801-0.17301 6.364 0.77852 6.364 0.77852" transform="matrix(.88209 0 0 .88209 13.692 20.441)" filter="url(#filter5359)" stroke="url(#radialGradient7875)"/>
</g>
<g transform="matrix(-.95816 0 0 .95816 139.59 4.2879)" filter="url(#filter5408)" stroke-width="2.0986" fill="none">
<path id="path5414" d="m33.942 175.91s0.88388-0.95153 6.364-1.1245c5.4801-0.17301 6.364 0.77852 6.364 0.77852" transform="matrix(-1 0 0 1 140.61 0)" filter="url(#filter5359)" stroke="url(#radialGradient7871)"/>
<path id="path5416" d="m33.942 175.91s0.88388-0.95153 6.364-1.1245c5.4801-0.17301 6.364 0.77852 6.364 0.77852" transform="matrix(-1 0 0 1 152.67 .47487)" filter="url(#filter5359)" stroke="url(#radialGradient7871)"/>
<path id="path5418" d="m118 176.38s0.88388-0.95153 6.364-1.1245c5.4801-0.17301 6.364 0.77852 6.364 0.77852" transform="matrix(.88209 0 0 .88209 13.692 20.441)" filter="url(#filter5359)" stroke="url(#radialGradient7875)"/>
</g>
</g>
<text style="word-spacing:0px;letter-spacing:0px" font-weight="bold" stroke-opacity=".47723" xml:space="preserve" font-size="1.5105px" stroke="#000000" line-height="125%" y="227.76013" x="-5.4452763" font-family="Syncopate" fill="#222d36"><tspan style="letter-spacing:-.47787" font-weight="normal" stroke-opacity=".47723" font-size="38.028px" stroke="#000000" line-height="125%" y="227.76013" x="-5.4452763" font-family="&apos;Russo One&apos;" fill="#222d36">SELinux</tspan></text>
</g>
</svg>
