<svg xmlns:rdf="http://www.w3.org/1999/02/22-rdf-syntax-ns#" xmlns="http://www.w3.org/2000/svg" viewBox="0 0 377 80" version="1.1" xmlns:cc="http://creativecommons.org/ns#" xmlns:dc="http://purl.org/dc/elements/1.1/">
<defs>
<linearGradient id="LO" y2="269.49" gradientUnits="userSpaceOnUse" y1="235.15" x2="657.65" x1="319.21">
<stop stop-color="#e54c18" offset="0"/>
<stop stop-color="#fec350" offset="1"/>
</linearGradient>
</defs>
<style type="text/css"><![CDATA[
#P1 {fill:url(#LO)}
rect {opacity:.40740739;fill:#000cff;width:.50507629;height:0}
]]></style>
<path id="path7183" d="m323.48 25.768c-0.6342 0-1.1672 0.21422-1.5996 0.64062-0.40359 0.42641-0.60547 0.95077-0.60547 1.5762 0 0.6254 0.20188 1.1517 0.60547 1.5781 0.4324 0.39798 0.96541 0.59766 1.5996 0.59766s1.1672-0.19967 1.5996-0.59766c0.43241-0.42641 0.64844-0.95272 0.64844-1.5781 0-0.6254-0.21603-1.1498-0.64844-1.5762-0.43241-0.42641-0.96541-0.64062-1.5996-0.64062zm-49.807 0.46875v11.812c-1.5855-2.4163-3.7921-3.625-6.6172-3.625-2.7962 0-5.0736 1.0526-6.832 3.1562-1.7585 2.0752-2.6367 4.7174-2.6367 7.9297s0.82169 5.8855 2.4648 8.0176c1.672 2.132 3.9634 3.1973 6.875 3.1973 2.9404 0 5.1894-1.1796 6.7461-3.5391v3.1992h3.416v-30.148h-3.416zm-175.79 0.853c-4.0358 0-7.2358 1.3356-9.5996 4.0078-2.335 2.6722-3.502 6.2691-3.502 10.789 0 4.4915 1.1952 8.0865 3.5879 10.787 2.3927 2.7006 5.5785 4.0508 9.5566 4.0508 3.9782 0 7.1357-1.3356 9.4707-4.0078 2.3638-2.7006 3.5449-6.3101 3.5449-10.83 0-4.5484-1.167-8.1453-3.502-10.789-2.3062-2.6722-5.492-4.0078-9.5566-4.0078zm69.123 0.555v28.74h3.502v-12.494h10.984v-3.0273h-10.984v-10.191h12.498v-3.0273h-16zm139.96 1.748v5.373h-4.5039v2.7285h4.5039v12.578c0 4.3494 2.1622 6.5254 6.4863 6.5254 1.1819 0 2.2479-0.25589 3.1992-0.76758v-3.1992c-0.86481 0.65383-1.8601 0.98047-2.9844 0.98047-2.1909 0-3.2852-1.1505-3.2852-3.4531v-12.664h6.0527v-2.7285h-6.0527v-5.373h-3.416zm-209.12 0.9375c2.9692 0 5.2748 1.0235 6.918 3.0703s2.4648 4.8761 2.4648 8.4863c0 3.6103-0.82169 6.4376-2.4648 8.4844-1.6143 2.0468-3.8775 3.0703-6.7891 3.0703-2.9115 0-5.2313-1.0381-6.9609-3.1133-1.7008-2.0752-2.5508-4.888-2.5508-8.4414 0-3.5818 0.82169-6.3966 2.4648-8.4434 1.672-2.0752 3.9776-3.1133 6.918-3.1133zm192.5 4.0938c-2.6809 0-4.8432 0.49723-6.4863 1.4922v3.3691c1.8161-1.2224 3.7623-1.834 5.8379-1.834 2.1044 0 3.5459 0.44102 4.3242 1.3223 0.77833 0.85282 1.168 2.1322 1.168 3.8379v1.1074h-3.9785c-2.7674 0-4.9579 0.58253-6.5723 1.748-1.5855 1.1371-2.3789 2.687-2.3789 4.6484 0 1.9331 0.61981 3.4975 1.8594 4.6914 1.2684 1.1939 2.9259 1.791 4.9726 1.791 2.9692 0 5.0164-0.92371 6.1406-2.7715v2.5586h3.373v-13.689c0-5.5149-2.7538-8.2715-8.2598-8.2715zm-151.17 0.04297c-2.8251 0-5.06 1.0381-6.7031 3.1133-1.65 2.075-2.47 4.732-2.47 7.973 0 3.2123 0.87826 5.7275 2.6367 7.5469 1.7873 1.8194 4.0222 2.7305 6.7031 2.7305s4.7422-1.2232 6.1836-3.668v2.4316c0 4.5768-2.35 6.8652-7.0488 6.8652-2.3062 0-4.3816-0.52631-6.2266-1.5781v3.3691c1.8738 0.88125 4.1955 1.3203 6.9629 1.3203 2.7962 0.000001 5.116-0.83841 6.9609-2.5156 1.8449-1.6488 2.7676-4.1224 2.7676-7.4199v-19.869h-3.416v3.582c-1.4125-2.5869-3.5304-3.8809-6.3555-3.8809zm57.896 0c-3.171 0-5.7068 1.0798-7.6094 3.2402-1.8738 2.132-2.8125 4.8033-2.8125 8.0156 0 3.1839 0.90849 5.828 2.7246 7.9316 1.8449 2.0752 4.3524 3.1133 7.5234 3.1133 3.1998 0 5.7234-1.0526 7.5684-3.1562 1.8449-2.1036 2.7676-4.7604 2.7676-7.9727 0-3.2407-0.90849-5.914-2.7246-8.0176-1.7873-2.1036-4.2665-3.1543-7.4375-3.1543zm48.801 0c-3.3151 0-5.6227 1.3502-6.9199 4.0508v-3.752h-3.373v21.619h3.373v-11.812c0-2.2173 0.59152-3.9523 1.7734-5.2031 1.2107-1.2508 2.5513-1.875 4.0215-1.875 1.499 0 2.6518 0.42648 3.459 1.2793 0.83599 0.82439 1.2539 2.0331 1.2539 3.625v13.986h3.416v-14.883c0-2.132-0.63394-3.838-1.9023-5.1172s-2.9684-1.918-5.1016-1.918zm94.928 0c-3.171 0-5.7068 1.0798-7.6094 3.2402-1.8738 2.132-2.8125 4.8033-2.8125 8.0156 0 3.1839 0.9085 5.828 2.7246 7.9316 1.845 2.0752 4.3524 3.1133 7.5234 3.1133 3.1998 0 5.7234-1.0526 7.5684-3.1562 1.8449-2.1036 2.7676-4.7604 2.7676-7.9727 0-3.2407-0.9085-5.914-2.7246-8.0176-1.7873-2.1036-4.2665-3.1543-7.4375-3.1543zm25.49 0c-3.3151 0-5.6208 1.3502-6.918 4.0508v-3.752h-3.373v21.619h3.373v-11.812c0-2.2173 0.59153-3.9523 1.7734-5.2031 1.2107-1.2508 2.5513-1.875 4.0215-1.875 1.499 0 2.6518 0.42648 3.459 1.2793 0.83598 0.82439 1.2539 2.0331 1.2539 3.625v13.986h3.416v-14.883c0-2.132-0.63395-3.838-1.9023-5.1172s-2.9703-1.918-5.1035-1.918zm-240.9 0.08398c-2.8251 0-4.8137 1.3376-5.9668 4.0098v-3.7949h-3.373l-0.043 21.619h3.416v-11.812c0-1.8194 0.50471-3.4254 1.5137-4.8184 1.009-1.3929 2.2768-2.0898 3.8047-2.0898 0.6342 0 1.254 0.09984 1.8594 0.29883v-3.3262c-0.28827-0.05685-0.69206-0.08594-1.2109-0.08594zm86.621 0.21484v14.881c0 2.132 0.6198 3.838 1.8594 5.1172 1.2684 1.2508 2.9844 1.877 5.1465 1.877 3.4304 0 5.7219-1.3376 6.875-4.0098v3.7539h3.416v-21.619h-3.416v11.896c0 2.132-0.54714 3.8234-1.6426 5.0742-1.0666 1.2508-2.4072 1.875-4.0215 1.875-1.5855 0-2.7827-0.41194-3.5898-1.2363-0.80717-0.82439-1.2109-2.0185-1.2109-3.582v-14.027h-3.416zm109.79 0v21.619h3.416v-21.619h-3.416zm-124.77 2.6855c2.1909 0 3.8484 0.7822 4.9727 2.3457 1.1243 1.5351 1.6856 3.4823 1.6856 5.8418 0 2.331-0.58957 4.2783-1.7715 5.8418-1.1819 1.5351-2.8253 2.3027-4.9297 2.3027s-3.7619-0.7822-4.9727-2.3457c-1.2108-1.5919-1.8164-3.5246-1.8164-5.7988s0.59152-4.2069 1.7734-5.7988 2.8677-2.3887 5.0586-2.3887zm143.73 0c2.1909 0 3.8484 0.7822 4.9727 2.3457 1.1243 1.5351 1.6855 3.4823 1.6855 5.8418 0 2.331-0.58956 4.2783-1.7715 5.8418-1.1819 1.5351-2.8253 2.3027-4.9297 2.3027s-3.7619-0.7822-4.9726-2.3457c-1.2107-1.5919-1.8164-3.5246-1.8164-5.7988s0.59152-4.2069 1.7734-5.7988 2.8677-2.3887 5.0586-2.3887zm-201.37 0.04297c1.7296 0 3.1853 0.66782 4.3672 2.0039s1.7734 3.2979 1.7734 5.8848c0 2.5585-0.6198 4.4495-1.8594 5.6719-1.2107 1.1939-2.5937 1.7891-4.1504 1.7891s-2.9416-0.6242-4.1523-1.875c-1.2108-1.2792-1.8164-3.1141-1.8164-5.502s0.5491-4.3061 1.6445-5.7559c1.0954-1.4782 2.4926-2.2168 4.1934-2.2168zm127.85 0c1.7008 0 3.1989 0.63874 4.4961 1.918 1.2972 1.2792 1.9473 3.3263 1.9473 6.1406-0.00001 2.7859-0.6359 4.833-1.9043 6.1406-1.2396 1.3077-2.7518 1.9609-4.5391 1.9609-1.7585 0-3.2141-0.72404-4.3672-2.1738s-1.7305-3.4261-1.7305-5.9277 0.59152-4.4634 1.7734-5.8848c1.2107-1.4498 2.6522-2.1738 4.3242-2.1738zm24.146 8.9121h3.8047v2.7715c0 1.3361-0.46229 2.4449-1.3848 3.3262-0.92246 0.85282-2.1177 1.2793-3.5879 1.2793s-2.5664-0.32664-3.2871-0.98047c-0.72067-0.68226-1.0801-1.5643-1.0801-2.6445s0.46035-1.9749 1.3828-2.6855c0.92247-0.71068 2.3074-1.0664 4.1523-1.0664zm-214.87 4.519c-0.72068 0-1.3263 0.24134-1.8164 0.72461-0.49006 0.48326-0.73438 1.0803-0.73438 1.791 0 0.71068 0.24431 1.3078 0.73438 1.791 0.49006 0.48326 1.0957 0.72461 1.8164 0.72461 0.72068 0 1.3263-0.24134 1.8164-0.72461 0.49006-0.48326 0.73438-1.0803 0.73438-1.791 0-0.71068-0.24431-1.3078-0.73438-1.791-0.49006-0.48327-1.0957-0.72461-1.8164-0.72461z"/>
<g transform="matrix(.26212 0 0 .26212 29.338 -11.767)">
<g transform="translate(-413.21 -40.704)">
<path id="path7189" d="m342.07 390.7 111.1-145.25-114.38-159.72l73.514 0.06108 91.138 125.58-136.27 179.33h-25.103zm217.45 0.10271-90.509-125.8 137.4-179.41h24.482l-111.55 145.94 113.69 159.27h-73.516z"/>
<path fill="url(#LO)" d="m486.41 143.83c-8.851 0-18.307 0.68536-26.82 1.5025 15.166 19.78 27.75 36.53 42.233 55.552-8.1288-17.493-24.836-34.268-19.06-42.895 5.7172-8.5397 16.251-7.1023 17.053-7.1023 16.888 0 33.145 1.9074 48.344 5.4375l3.5625-4.9062c-20.271-5.2183-42.288-7.5887-65.312-7.5887zm91.469 15.964-3.2812 4.6875c46.826 18.337 78.5 53.36 78.5 93.5 0 59.106-68.665 107.06-153.28 107.06-84.616-0.00001-153.31-47.956-153.31-107.06 0.00001-32.188 20.372-61.08 52.594-80.719l-9.9062-15.094c-50.546 21.432-84.094 59.05-84.094 101.87 0 66.634 81.222 120.69 181.31 120.69s181.34-54.054 181.34-120.69c0-44.433-36.123-83.292-89.875-104.25z"/>
</g>
<rect opacity=".40741" height="0" width=".50508" y="180.85" x="322.36" fill="#000cff"/>
</g>
</svg>
