<svg xmlns:rdf="http://www.w3.org/1999/02/22-rdf-syntax-ns#" xmlns="http://www.w3.org/2000/svg" xml:space="preserve" viewBox="0 0 64 64" version="1.1" xmlns:cc="http://creativecommons.org/ns#" xmlns:dc="http://purl.org/dc/elements/1.1/"><defs><clipPath id="clipPath518" clipPathUnits="userSpaceOnUse"><path id="path520" d="m72.72 306h70.495v70.495h-70.495v-70.495z"/></clipPath></defs><g transform="matrix(1.25 0 0 -1.25 -90.9 446.5)"><g transform="matrix(.72629 0 0 .72629 19.904 83.754)"><g clip-path="url(#clipPath518)"><g transform="translate(139.32 376.49)"><path id="path524" d="m0 0h-62.712c-2.151 0-3.892-1.742-3.892-3.89v-62.714c0-2.149 1.741-3.891 3.892-3.891h62.712c2.15 0 3.892 1.742 3.892 3.891v62.714c0 2.148-1.742 3.89-3.892 3.89" fill="#fff"/></g><g transform="translate(139.32 376.49)"><path id="path528" d="m0 0h-62.712c-2.151 0-3.892-1.742-3.892-3.89v-62.714c0-2.149 1.741-3.891 3.892-3.891h33.762v27.299h-9.186v10.638h9.186v7.847c0 9.106 5.561 14.064 13.684 14.064 3.89 0 7.235-0.289 8.209-0.42v-9.515l-5.634-0.003c-4.416 0-5.272-2.099-5.272-5.178v-6.795h10.535l-1.373-10.638h-9.162v-27.299h17.963c2.15 0 3.892 1.742 3.892 3.891v62.714c0 2.148-1.742 3.89-3.892 3.89" fill="#3b5898"/></g></g></g></g></svg>
