<svg id="RSSicon" xmlns:rdf="http://www.w3.org/1999/02/22-rdf-syntax-ns#" xmlns="http://www.w3.org/2000/svg" height="128px" viewBox="0 0 256 256" width="128px" version="1.1" xmlns:cc="http://creativecommons.org/ns#" xmlns:dc="http://purl.org/dc/elements/1.1/">
<rect rx="55" ry="55" height="230.44" width="230.44" y="12.778" x="12.778" fill="#f57900"/>
<path id="path5" fill="#fff" d="m52.385 46.984v31.506a126.02 126.02 0 0 1 126.02 126.02h31.506a157.53 157.53 0 0 0 -157.52 -157.53zm0 53.11v30.606a73.814 73.814 0 0 1 73.814 73.814h30.606a104.42 104.42 0 0 0 -104.42 -104.42zm21.604 61.212a21.604 21.604 0 0 0 -21.604 21.604 21.604 21.604 0 0 0 21.604 21.604 21.604 21.604 0 0 0 21.604 -21.604 21.604 21.604 0 0 0 -21.604 -21.604z"/>
</svg>
