<svg xmlns:rdf="http://www.w3.org/1999/02/22-rdf-syntax-ns#" xmlns="http://www.w3.org/2000/svg" xml:space="preserve" height="24" viewBox="0 0 38 24.000001" width="38" version="1.1" xmlns:cc="http://creativecommons.org/ns#" xmlns:dc="http://purl.org/dc/elements/1.1/"><g transform="matrix(1.25 0 0 -1.25 -47.555 693.11)"><path id="path40" d="m48.174 554.48c-0.14692 0.002-0.29449-0.00079-0.44259-0.008-4.9453 0.16499-9.4917-4.1662-9.5741-9.1116-0.31625-4.0424 2.3419-8.0068 6.0957-9.4368 3.7399-1.4392 8.5338-0.45847 10.922 2.9011 1.5766 2.1223 1.9158 4.8537 1.7326 7.4204-3.0616 0.0232-6.1189 0.0187-9.1759 0.009-0.0046-1.0906 0.00002-2.1818 0.0046-3.2727 1.8287-0.0595 3.6621-0.0318 5.4907-0.0592-0.80671-4.0564-6.3248-5.3717-9.2443-2.7224-3.002 2.3236-2.8598 7.4201 0.26137 9.5787 2.1817 1.7417 5.2843 1.3107 7.4658-0.19705 0.85712 0.79293 1.6594 1.6406 2.434 2.5208-1.7014 1.3578-3.7658 2.3492-5.9696 2.3773zm14.696-5.4708c-0.0091-0.91217-0.01788-1.8244-0.02245-2.7408-0.91674-0.005-1.8286-0.009-2.7408-0.0184v-2.727c0.91217-0.009 1.8286-0.0184 2.7408-0.0276 0.0091-0.91184 0.0087-1.824 0.01788-2.7362h2.7316c0.0046 0.91217 0.0092 1.8244 0.01837 2.7408 0.91674 0.009 1.8289 0.0135 2.7408 0.023v2.727c-0.91184 0.009-1.8286 0.009-2.7408 0.0184-0.0091 0.91184-0.0138 1.8286-0.01837 2.7408h-2.727z" fill="#de3a3a"/></g></svg>
