<svg xmlns:rdf="http://www.w3.org/1999/02/22-rdf-syntax-ns#" xmlns="http://www.w3.org/2000/svg" xml:space="preserve" version="1.1" xmlns:cc="http://creativecommons.org/ns#" xmlns:dc="http://purl.org/dc/elements/1.1/" viewBox="0 0 307 84"><g fill="#333c46" transform="matrix(1.2523 0 0 1.2523 -328.66 -99.737)"><path d="m381.99 121.4c0 8.8602-0.7935 11.31-2.9278 13.448-1.2648 1.2651-3.2438 2.1338-6.963 2.1338h-13.05c-4.1924 0-6.7207-0.7124-8.4634-2.4502-2.7656-2.77-3.5566-6.0923-3.5566-18.904 0-12.814 0.79102-16.137 3.5566-18.904 1.7427-1.7398 4.271-2.4496 8.4634-2.4496h12.974c3.8726 0 5.6124 0.78762 6.958 2.1348 2.0552 2.0551 2.8486 4.9029 2.8486 12.889h-7.9872c-0.16013-5.5361-0.47562-6.4834-0.95162-6.9585-0.47563-0.47363-1.107-0.71138-2.9259-0.71138h-9.8871c-2.4507 0-3.0835 0.23775-3.6363 0.7915-0.79101 0.78863-1.1875 2.2925-1.1875 13.208 0 10.913 0.39649 12.416 1.1875 13.208 0.55274 0.55375 1.1855 0.7915 3.6363 0.7915h9.9644c1.7416 0 2.5356-0.15775 3.0854-0.71137 0.55475-0.55525 0.87213-2.1378 0.87213-7.5151h7.9908"/><path d="m395.91 111.75h19.456c0-7.1962-0.476-8.7788-1.1836-9.4911-0.478-0.47363-1.1875-0.78863-3.6376-0.78863h-9.811c-2.4508 0-3.0835 0.23738-3.7174 0.86863-0.71238 0.71387-1.0254 2.1339-1.1064 9.4111zm0 6.5665c0.081 8.3822 0.55225 10.043 1.1875 10.676 0.63376 0.63375 1.1855 0.7925 3.6363 0.7925h11.073c1.8208 0 2.3754-0.3165 2.851-0.7925 0.54988-0.55375 0.70801-1.5025 0.87013-5.2989h7.9854c-0.15724 6.6426-0.791 9.0161-2.9278 11.154-1.3432 1.3447-3.1621 2.1338-6.958 2.1338h-13.841c-4.1929 0-6.7236-0.7124-8.4639-2.4502-2.7705-2.77-3.5566-6.0923-3.5566-18.904 0-12.814 0.78613-16.137 3.5566-18.904 1.7402-1.7398 4.271-2.4496 8.4639-2.4496h11.705c4.1944 0 6.8814 0.78762 8.4659 2.3701 2.7651 2.7685 3.5561 6.0922 3.5561 18.588v2.1352c0 0.62987-0.23637 0.94875-0.95075 0.94875h-26.653"/><path d="m455.71 128.68c-0.71038 0.711-1.7431 1.0274-4.3481 1.0274h-6.1734c-2.5317 0-4.7314-0.71388-7.7514-2.25-0.18412-0.0937-0.35987-0.18113-0.55275-0.27875v-23.256c3.165-1.5811 5.3784-2.3711 7.9908-2.3711h6.4868c2.605 0 3.6378 0.31637 4.3481 1.0274 1.1851 1.185 1.5025 3.4775 1.5025 13.051 0 9.5728-0.31737 11.863-1.5025 13.05zm-2.3769-34.488h-5.7691c-3.562 0-5.3012 0.79388-10.68 5.2226v-5.1386h-8.2246v52.15h8.2246v-14.502c5.3784 4.3477 7.1176 5.1387 10.68 5.1387h5.7691c4.5922 0 6.8848-0.79101 8.7035-2.6074 2.2916-2.2949 3.401-5.5376 3.401-18.825 0-13.289-1.1094-16.534-3.401-18.825-1.8188-1.8189-4.1112-2.6128-8.7035-2.6128"/><path d="m504.99 96.646c-1.5825-1.5825-3.6375-2.4541-7.3562-2.4541h-6.7212c-3.56 0-5.2988 0.79388-10.68 5.2226v-16.279c-2.5525-1.4014-5.2175-2.4288-8.1662-3.0611-0.0212 0.001-0.037 0.01375-0.0589 0.021v56.888h8.2251v-33.061c0.6025-0.30126 1.165-0.56351 1.7075-0.80713 2.3088-1.0366 4.1688-1.564 6.2812-1.564h5.5375c2.7675 0 3.5588 0.31638 4.4288 1.1875 0.79125 0.79 1.1062 2.0538 1.1062 4.1114v30.134h8.23v-30.687c0-5.9326-0.8725-7.9887-2.5338-9.6499"/></g><path d="m42.774 0c-5.774 0-11.375 1.1303-16.651 3.3618-5.094 2.1555-9.67 5.2383-13.595 9.1662-3.929 3.926-7.0121 8.502-9.1686 13.593-2.2313 5.278-3.3594 10.884-3.3594 16.654 0 3.2971 0.3734 6.5831 1.1198 9.7681 0.72506 3.0988 1.8006 6.1219 3.1977 8.984 2.5758 5.274 6.7515 10.532 11.474 14.468 3.0797-1.6836 4.8271-3.5398 5.1983-5.5254 0.3577-1.9073-0.47963-3.9616-2.6365-6.459-5.1181-5.8724-7.9365-13.412-7.9365-21.236 0-17.841 14.514-32.36 32.357-32.36 0.0305 0 0.14701 0.0025 0.14701 0.0025s0.11423-0.0025 0.14335-0.0025c17.843 0 32.359 14.519 32.359 32.36 0 7.8237-2.8178 15.363-7.9341 21.233-2.141 2.481-3.0001 4.6225-2.628 6.5472 0.38595 1.9878 2.1296 3.8179 5.1824 5.4421 4.7285-3.9367 8.9015-9.1942 11.477-14.47 1.3988-2.8622 2.4744-5.8853 3.1989-8.984 0.74412-3.185 1.1222-6.471 1.1222-9.7681 0-5.7702-1.1315-11.376-3.363-16.653-2.156-5.092-5.241-9.668-9.167-13.594-3.927-3.9279-8.502-7.0107-13.594-9.1662-5.278-2.2315-10.881-3.3618-16.654-3.3618h-0.14702-0.14334zm-0.01594 17.3c-1.2049 0-2.4111 0.0818-3.5885 0.25116-3.4767 0.49555-6.8875 1.7366-9.8637 3.5934-2.8408 1.7713-5.3684 4.1498-7.3068 6.8792-2.0038 2.8212-3.4418 6.1004-4.1533 9.4814-0.77312 3.6672-0.72466 7.5317 0.14089 11.175 0.79633 3.3504 2.3057 6.5765 4.3652 9.3271 0.55194 0.74098 1.1697 1.4169 1.8218 2.133 0.2172 0.23584 0.43858 0.47843 0.66158 0.72652 0.0059 0.0079 0.01268 0.01178 0.01703 0.01832 0.02604 0.02634 0.0608 0.05902 0.09438 0.09921 2.27 2.6378 3.4218 5.4792 3.4218 8.4413 0 4.4764-2.4858 8.5831-6.3965 10.687 2.2748 1.2625 4.6687 2.317 7.1267 3.1413 0.81656 0.2735 1.6469 0.52343 2.4797 0.74612 0.49768-0.31269 2.1943-1.5755 3.8531-3.869 1.5863-2.1915 3.4559-5.8268 3.3569-10.696-0.05813-2.9302-0.64812-5.7842-1.7483-8.478-1.0929-2.6707-2.6583-5.1181-4.658-7.2713l-0.0089-0.01594c-0.14976-0.17094-0.2941-0.3411-0.44228-0.50968-0.75374-0.87426-1.5321-1.7764-2.1563-2.8326-0.76418-1.2985-1.3213-2.6632-1.6515-4.0589-0.51366-2.1555-0.54085-4.443-0.08566-6.6134 0.42483-1.9955 1.2696-3.9295 2.454-5.5965 1.1468-1.6152 2.6439-3.0245 4.326-4.0736 1.7554-1.0954 3.77-1.8286 5.8207-2.1195 0.69251-0.09958 1.4093-0.15069 2.1269-0.15069h0.15313 0.15437c0.7191 0 1.4346 0.05111 2.1293 0.15069 2.0518 0.2909 4.066 1.0241 5.8195 2.1195 1.6824 1.0491 3.1771 2.4584 4.3248 4.0736 1.1847 1.667 2.0328 3.601 2.454 5.5965 0.45642 2.1704 0.42667 4.4579-0.08329 6.6134-0.33145 1.3957-0.88822 2.7605-1.654 4.0589-0.62109 1.0562-1.4003 1.9583-2.1538 2.8326-0.14851 0.16858-0.29405 0.33874-0.44106 0.50968l-0.01228 0.01594c-1.9964 2.1531-3.564 4.6005-4.6568 7.2713-1.1009 2.6938-1.6883 5.5478-1.7495 8.478-0.09765 4.8688 1.7713 8.504 3.3594 10.696 1.6555 2.2935 3.3535 3.5563 3.8506 3.869 0.83218-0.22268 1.6671-0.47262 2.4834-0.74612 2.458-0.82424 4.8522-1.8787 7.1279-3.1413-3.915-2.1039-6.4002-6.2106-6.4002-10.687 0-2.9219 1.1185-5.6829 3.4194-8.4364 0.03159-0.04377 0.06823-0.07784 0.09438-0.1041 0.0079-0.0069 0.01317-0.01258 0.0208-0.01832 0.22355-0.24808 0.44353-0.49067 0.65792-0.72652 0.65456-0.71612 1.2702-1.392 1.823-2.133 2.0622-2.7506 3.5692-5.9766 4.3677-9.3271 0.86314-3.6429 0.91242-7.5074 0.14211-11.175-0.717-3.378-2.154-6.658-4.157-9.479-1.939-2.729-4.466-5.108-7.307-6.879-2.976-1.857-6.387-3.098-9.865-3.593-1.175-0.17-2.384-0.252-3.589-0.252h-0.15314-0.16909zm0.16049 17.435c-4.6556 0-8.445 3.7887-8.445 8.4462 0 4.6567 3.7894 8.445 8.445 8.445s8.4437-3.7882 8.4437-8.445c0-4.6575-3.7882-8.4462-8.4437-8.4462z" fill="#f0424d"/></svg>
