<svg xmlns:rdf="http://www.w3.org/1999/02/22-rdf-syntax-ns#" xmlns="http://www.w3.org/2000/svg" height="276.95mm" width="1383.8mm" version="1.1" xmlns:cc="http://creativecommons.org/ns#" xmlns:xlink="http://www.w3.org/1999/xlink" viewBox="0 0 4902.9561 981.3209" xmlns:dc="http://purl.org/dc/elements/1.1/">
<defs>
<linearGradient id="w" y2="1131.5" gradientUnits="userSpaceOnUse" x2="-734.22" gradientTransform="matrix(.84216 .041913 -.10866 .92930 1209.2 -22.049)" y1="764.67" x1="-1001.1">
<stop stop-color="#b7ed26" offset="0"/>
<stop stop-color="#47610f" offset="1"/>
</linearGradient>
<linearGradient id="n" y2="2908.1" gradientUnits="userSpaceOnUse" x2="3776.4" gradientTransform="matrix(.92006 0 0 .92006 -2782.7 -2059.4)" y1="2834.5" x1="3758.9">
<stop stop-color="#1e1500" offset="0"/>
<stop stop-color="#663e00" offset="1"/>
</linearGradient>
<linearGradient id="x" y2="1134.4" gradientUnits="userSpaceOnUse" x2="-733.83" gradientTransform="matrix(.84216 .041913 -.10866 .92930 1203.7 -28.502)" y1="764.67" x1="-1001.1">
<stop stop-color="#b7ed26" offset="0"/>
<stop stop-color="#5b7c13" offset="1"/>
</linearGradient>
<filter id="aa" y="-.078504" width="1.0447" height="1.157" x="-.022355">
<feGaussianBlur stdDeviation="6.3740456"/>
</filter>
<filter id="ad" y="-.37536" width="1.2537" height="1.7507" x="-.12683">
<feGaussianBlur stdDeviation="22.85573"/>
</filter>
<radialGradient id="h" gradientUnits="userSpaceOnUse" cy="2624.6" cx="3439.9" gradientTransform="matrix(.80047 .45359 -.76466 1.3495 -362.83 -4752.3)" r="279.77">
<stop stop-color="#9d6e00" offset="0"/>
<stop stop-color="#623b00" offset="1"/>
</radialGradient>
<radialGradient id="g" xlink:href="#e" gradientUnits="userSpaceOnUse" cy="2624.5" cx="3458.5" gradientTransform="matrix(1.1331 -.15589 .14272 1.0373 -3894 -1834.3)" r="279.77"/>
<linearGradient id="e">
<stop stop-color="#ffc022" offset="0"/>
<stop stop-color="#804d00" stop-opacity="0" offset="1"/>
</linearGradient>
<filter id="af" y="-.028769" width="1.0689" height="1.0575" x="-.034461">
<feGaussianBlur stdDeviation="2.8686053"/>
</filter>
<radialGradient id="f" xlink:href="#e" gradientUnits="userSpaceOnUse" cy="2868.5" cx="3293.6" gradientTransform="matrix(1.4077 -.19506 .23864 1.7222 -2009.8 -1369.6)" r="279.77"/>
<filter id="ae" y="-.051398" width="1.1086" height="1.1028" x="-.05428">
<feGaussianBlur stdDeviation="12.654783"/>
</filter>
<linearGradient id="m" y2="520.42" xlink:href="#b" gradientUnits="userSpaceOnUse" x2="1140.1" y1="540.92" x1="1045.6"/>
<linearGradient id="b">
<stop stop-color="#2d2d2d" offset="0"/>
<stop stop-color="#2d2d2d" stop-opacity="0" offset="1"/>
</linearGradient>
<filter id="ac" y="-.23257" width="1.2847" height="1.4651" x="-.14236">
<feGaussianBlur stdDeviation="5.6715188"/>
</filter>
<filter id="ah" y="-.035675" width="1.0832" height="1.0713" x="-.041576">
<feGaussianBlur stdDeviation="4.3890607"/>
</filter>
<radialGradient id="j" gradientUnits="userSpaceOnUse" cy="2872.4" cx="3333.8" gradientTransform="matrix(1.2013 -1.6887 1.543 1.0976 -7970.7 2843.5)" r="98.551">
<stop stop-color="#fff" offset="0"/>
<stop stop-color="#ededed" offset=".45091"/>
<stop stop-color="#838383" offset="1"/>
</radialGradient>
<linearGradient id="v" y2="2667.4" xlink:href="#a" gradientUnits="userSpaceOnUse" x2="3669.9" gradientTransform="matrix(.92006 0 0 .92006 -2782.7 -2059.4)" y1="2574.1" x1="3576.5"/>
<linearGradient id="a">
<stop stop-color="#fff" offset="0"/>
<stop stop-color="#fff" stop-opacity="0" offset="1"/>
</linearGradient>
<radialGradient id="i" gradientUnits="userSpaceOnUse" cy="2746.4" cx="3286.3" gradientTransform="matrix(1.1992 -1.9617 1.3825 .84518 -7494.5 4447.9)" r="98.551">
<stop stop-color="#fff" offset="0"/>
<stop stop-color="#838383" offset="1"/>
</radialGradient>
<linearGradient id="u" y2="444.09" xlink:href="#a" gradientUnits="userSpaceOnUse" x2="3870" gradientTransform="matrix(.92006 0 0 .92006 -3206.2 -78.848)" y1="394.59" x1="3809.2"/>
<linearGradient id="o" y2="2587.5" xlink:href="#c" gradientUnits="userSpaceOnUse" x2="3387" gradientTransform="translate(8,2)" y1="3009.6" x1="3398.4"/>
<linearGradient id="c">
<stop stop-color="#fff" stop-opacity="0" offset="0"/>
<stop stop-color="#fff" stop-opacity=".404" offset=".69043"/>
<stop stop-color="#fff" stop-opacity="0" offset="1"/>
</linearGradient>
<filter id="ag" y="-.060232" width="1.4727" height="1.1205" x="-.23635">
<feGaussianBlur stdDeviation="11.889886"/>
</filter>
<linearGradient id="p" y2="2587.5" xlink:href="#c" gradientUnits="userSpaceOnUse" x2="3387" gradientTransform="matrix(.92006 0 0 .92006 -2782.7 -2059.4)" y1="3009.6" x1="3398.4"/>
<linearGradient id="l" y2="485.71" xlink:href="#b" gradientUnits="userSpaceOnUse" x2="929.07" y1="543.67" x1="1122.4"/>
<filter id="ab" y="-.36229" width="1.2716" height="1.7246" x="-.13582">
<feGaussianBlur stdDeviation="7.9075393"/>
</filter>
<linearGradient id="k" y2="1310.1" gradientUnits="userSpaceOnUse" x2="867.64" y1="1061.5" x1="1018.3">
<stop stop-color="#dadada" offset="0"/>
<stop stop-color="#fff" stop-opacity="0" offset="1"/>
</linearGradient>
<filter id="z" y="-.34846" width="1.1911" height="1.6969" x="-.095569">
<feGaussianBlur stdDeviation="25.298167"/>
</filter>
<linearGradient id="q" y2="2669.1" xlink:href="#a" gradientUnits="userSpaceOnUse" y1="2656.2" gradientTransform="matrix(3.4787 .12769 -.16457 4.4834 -11055 -11995)" x2="3375" x1="3374"/>
<linearGradient id="d" y2="2690.6" xlink:href="#a" gradientUnits="userSpaceOnUse" x2="3510.8" gradientTransform="matrix(1.8565 0 0 2.218 -5985.8 -5528.4)" y1="2656.2" x1="3509.8"/>
<filter id="r" style="color-interpolation-filters:sRGB" height="1.1386" width="1.1067" y="-.069314" x="-.053362">
<feGaussianBlur stdDeviation="23.77135"/>
</filter>
</defs>
<g font-family="Lato" transform="matrix(7.3993 0 0 7.3993 121.44 -1160.4)">
<flowRoot font-size="40px" xml:space="preserve" style="word-spacing:0px;letter-spacing:0px" line-height="125%"><flowRegion><rect y="377.36" width="632" x="41" height="188"/></flowRegion><flowPara/></flowRoot>
<text font-size="40px" xml:space="preserve" style="word-spacing:0px;letter-spacing:0px" y="401.36218" x="171" line-height="125%"><tspan y="401.36218" x="171" fill="#000000"/></text>
<g>
<path d="m173.02 226.46h30.927v36.719q-6.687 4.8958-14.27 7.1049-7.5228 2.2091-15.762 2.2091-10.747 0-19.583-3.3435-8.7766-3.4032-15.046-9.314-6.269-5.9705-9.6722-14.09-3.4032-8.1796-3.4032-17.732 0-9.7319 3.2241-17.852 3.2241-8.1796 9.1946-14.09 6.0302-5.9108 14.508-9.1946 8.5378-3.2838 19.046-3.2838 5.4332 0 10.21 0.89558 4.7764 0.89557 8.7766 2.4479 4.0599 1.5523 7.4034 3.7017t5.9705 4.657l-5.8511 8.896q-1.3732 2.0897-3.5823 2.5673-2.1494 0.47764-4.657-1.0747-2.3882-1.4329-4.5376-2.4479-2.0897-1.0747-4.2988-1.7314-2.2091-0.65675-4.657-0.95528-2.4479-0.29852-5.4929-0.29852-5.672 0-10.21 2.03-4.5376 1.9703-7.7616 5.6123-3.1644 3.642-4.8958 8.7766-1.7314 5.0749-1.7314 11.344 0 6.9258 1.9106 12.299 1.9106 5.3734 5.3734 9.0752 3.5226 3.7017 8.3587 5.672 4.8958 1.9106 10.807 1.9106 3.642 0 6.5676-0.71646 2.9852-0.71646 5.7914-1.9106v-13.195h-8.5975q-1.9106 0-2.9852-1.015-1.0747-1.015-1.0747-2.5673v-11.105z"/>
<path d="m269.94 255.42v16.12h-52.421v-86.99h20.18v70.87h32.241z"/>
<path d="m314.69 255.59q4.0599 0 7.2243-1.3135 3.2241-1.3732 5.4332-3.8808t3.3435-6.0899q1.1941-3.642 1.1941-8.2393v-51.525h20.18v51.525q0 8.0005-2.627 14.687-2.5673 6.687-7.4034 11.523-4.8361 4.8361-11.762 7.5228-6.9258 2.6867-15.583 2.6867-8.7169 0-15.643-2.6867-6.9258-2.6867-11.762-7.5228-4.8361-4.8361-7.4034-11.523-2.5673-6.687-2.5673-14.687v-51.525h20.18v51.466q0 4.5973 1.1344 8.2393 1.1941 3.5823 3.4032 6.1496 2.2091 2.5076 5.3734 3.8808 3.2241 1.3135 7.284 1.3135z"/>
<path d="m415.78 202.22q-0.89558 1.4329-1.9106 2.1494-0.95528 0.71646-2.5076 0.71646-1.3732 0-2.9852-0.83587-1.5523-0.89557-3.5823-1.9703-1.9703-1.0747-4.5376-1.9106-2.5673-0.89558-5.8511-0.89558-5.672 0-8.4781 2.4479-2.7464 2.3882-2.7464 6.5078 0 2.627 1.6717 4.3585 1.6717 1.7314 4.3585 2.9852 2.7464 1.2538 6.2093 2.3285 3.5226 1.015 7.1646 2.3285 3.642 1.2538 7.1049 2.9852 3.5226 1.7314 6.2093 4.4182 2.7464 2.6867 4.4182 6.5676 1.6717 3.8211 1.6717 9.2543 0 6.0302-2.0897 11.284-2.0897 5.254-6.0899 9.1946-3.9405 3.8808-9.7916 6.1496-5.7914 2.2091-13.195 2.2091-4.0599 0-8.299-0.83587-4.1794-0.83587-8.1199-2.3285-3.9405-1.5523-7.4034-3.642t-6.0302-4.657l5.9705-9.4334q0.71646-1.015 1.8509-1.6717 1.1941-0.71646 2.5673-0.71646 1.7912 0 3.5823 1.1344 1.8509 1.1344 4.1196 2.5076 2.3285 1.3732 5.3138 2.5076 2.9852 1.1344 7.0452 1.1344 5.4929 0 8.5378-2.3882 3.045-2.4479 3.045-7.702 0-3.045-1.6717-4.9555-1.6717-1.9106-4.4182-3.1644-2.6867-1.2538-6.1496-2.2091-3.4629-0.95528-7.1049-2.0897-3.642-1.1941-7.1049-2.8658-3.4629-1.7314-6.2093-4.4779-2.6867-2.8061-4.3585-6.9258-1.6717-4.1794-1.6717-10.269 0-4.8958 1.9703-9.5528t5.7914-8.299 9.3737-5.7914q5.5526-2.2091 12.717-2.2091 4.0002 0 7.7616 0.65676 3.8211 0.59705 7.2243 1.8508 3.4032 1.1941 6.3287 2.9256 2.9852 1.6717 5.3138 3.8211l-5.0152 9.3737z"/>
<path d="m496.46 200.55h-24.479v70.989h-20.18v-70.989h-24.479v-16.001h69.138v16.001z"/>
<path d="m527.02 200.07v20.3h27.345v14.926h-27.345v20.718h35.704v15.523h-56.003v-86.99h56.003v15.523h-35.704z"/>
<path d="m603.35 225.44q4.1196 0 6.9855-1.015 2.9255-1.0747 4.7764-2.9255 1.8508-1.8509 2.6867-4.2988 0.83587-2.5076 0.83587-5.3734 0-5.7317-3.7614-8.9558-3.7017-3.2241-11.523-3.2241h-8.1199v25.793h8.1199zm42.868 46.092h-18.27q-5.0749 0-7.284-3.8211l-14.449-25.255q-1.015-1.612-2.2688-2.3285-1.2538-0.77617-3.5823-0.77617h-5.1346v32.181h-20.18v-86.99h28.3q9.4334 0 16.061 1.9703 6.687 1.9106 10.866 5.3734 4.239 3.4629 6.1496 8.1796t1.9106 10.269q0 4.2391-1.1344 8.0005t-3.3435 6.9855q-2.2091 3.1644-5.4929 5.672-3.2241 2.5076-7.4631 4.1196 1.9703 1.015 3.7017 2.5673 1.7314 1.4926 3.1047 3.5823l18.509 30.27z"/>
</g>
</g>
<ellipse opacity=".2" style="color:#000000;image-rendering:auto;color-rendering:auto;shape-rendering:auto" rx="534.57" transform="matrix(.54237 0 0 .50663 -87.204 97.303)" ry="411.54" filter="url(#r)" cy="1276.3" cx="978.64"/>
<path d="m360.73 569.54c-69.019 0.55014-137.44 11.157-200.74 37.952-58.64 24.83-111.49 63.23-153.22 111.33 57.768 74.29 134.73 133.51 221.33 170.33 80.204 34.095 168.8 46.506 255.6 38.7 101.51-9.1291 228.16-87.227 195.22-169.7 22.495-7.2246 13.606-49.469 6.1589-67.13-15.614-37.036-48.05-65.101-84.303-82.46-36.25-17.36-76.304-25.046-116.13-30.477-40.868-5.5737-82.512-8.8692-123.92-8.5396z" fill="url(#w)"/>
<path style="color:#000000;shape-rendering:auto;color-rendering:auto;image-rendering:auto" d="m493.17 524.84c-27.39 51.886-45.762 108.23-57.73 165.67-7.4327 35.673-12.448 72.054-11.305 108.48 0.18592 5.9246 0.53456 11.845 1.0455 17.75 16.532-14.228 33.422-28.04 50.649-41.417 44.5-34.557 91.21-66.188 135.83-100.59 30.117-23.215 59.834-48.318 79.518-80.85 9.8436-16.266 17.024-34.287 19.753-53.103 2.7296-18.816 0.8907-38.446-6.5054-55.961-8.5012-20.132-24.337-37.034-43.779-47.015-19.441-9.9802-42.329-13.002-63.74-8.6158-23.829 4.882-45.239 18.574-62.299 35.912s-30.088 38.231-41.443 59.741z" fill="url(#n)"/>
<path d="m363 563.03c-2.5898-0.009-5.1749 0.009-7.7629 0.0285-69.019 0.55008-137.44 11.157-200.74 37.952-58.648 24.82-111.49 63.23-153.22 111.33 57.763 74.29 134.72 133.51 221.33 170.32 80.204 34.095 169.07 48.983 255.6 38.7 60.054-7.1362 120.88-27.69 163.22-70.874 38.258-32.86 47.928-68.612 34.732-94.593 25.908-18.048 11.564-50.683 3.4212-71.362-15.614-37.036-48.05-65.101-84.303-82.46-36.25-17.36-76.304-25.046-116.13-30.477-38.313-5.2255-77.309-8.4576-116.16-8.5681z" fill="url(#x)"/>
<path opacity=".181" d="m580.85 1028.8c190.59-18.152 511.87-7.2606 698.83 50.824-1.8152-174.25-330.36-301.32-698.83-50.824z" transform="matrix(.92006 0 0 .92006 -504.97 -237.85)" filter="url(#aa)" fill="#fff"/>
<g opacity=".121" transform="matrix(.92006 0 0 .92006 -2782.7 -2059.4)">
<path d="m571.34 1030.4c241.83-41.012 578.41-7.0712 709.94 49.497-131.52-25.456-496.39-73.539-709.94-49.497z" transform="translate(2475.6,1979.8)"/>
<path d="m3439.9 3216.5c30.971-46.223 145.37-169.2 169.53-184.98l22.273 3.0577c-37.588 26.909-146.34 121.51-191.81 181.92z"/>
<path d="m3288.6 3178.3c30.971-46.223 138.3-146.57 173.77-162.35l22.273 3.0577c-44.66 15.595-150.59 98.887-196.05 159.3z"/>
<path d="m3157 3116.1c30.971-46.223 98.698-99.905 134.18-115.68l22.273 3.0577c-44.66 15.595-108.16 56.461-156.45 112.63z"/>
<path d="m3520.5 2864.6c40.871 41.98 95.87 125.36 101.65 158.11l26.516 8.256c-27.689-52.364-69.976-114.44-128.17-166.37z"/>
<path d="m3362.1 2868.9c45.113 40.566 104.36 102.73 110.14 135.48l22.273-3.0577c-27.689-52.364-72.805-87.574-132.41-132.43z"/>
<path d="m3189.6 2902.8c29.557 19.353 77.485 53.236 93.165 93.057l22.273-3.0577c-22.032-32.565-78.462-77.674-115.44-90z"/>
</g>
<path opacity=".75" style="color:#000000;image-rendering:auto;color-rendering:auto;shape-rendering:auto" d="m3769.8 3030.3c0 34.902-50.223 33.946-171.35 33.946s-152.71 6.2003-187.95 15.357c-4.1868-38.195 54.149-98.689 175.28-98.689s184.02 14.485 184.02 49.386z" transform="matrix(.90593 -.16059 .16059 .90593 -3262.8 -1502.6)" filter="url(#ad)"/>
<path d="m245.74 330.6c-17.896 35.262-26.619 74.769-28.313 114.27-1.6936 39.507 3.4863 79.082 12.273 117.64 12.216 53.607 31.654 106.04 62.06 151.85 5.6668 8.5378 11.703 16.831 18.086 24.848 31.721-23.649 66.502-43.189 103.2-57.978 35.992-14.506 73.635-24.399 110.74-35.743 33.163-10.137 66.147-21.535 96.61-38.098 30.466-16.562 58.496-38.57 78.402-66.967 30.168-43.029 39.617-99.134 28.77-150.55-10.847-51.419-41.079-97.895-81.361-131.64-54.481-45.639-127.61-68.217-198.37-61.537-41.979 3.9621-83.065 17.934-118.35 41.014-35.287 23.081-64.665 55.287-83.745 92.89z" fill="url(#h)"/>
<path d="m244.23 330.02c-17.896 35.262-26.619 74.769-28.313 114.27-1.6936 39.507 3.4863 79.082 12.272 117.64 12.216 53.607 31.654 106.04 62.06 151.85 5.6668 8.5378 11.703 16.831 18.086 24.848 31.721-23.649 66.502-43.189 103.2-57.978 35.992-14.506 73.635-24.399 110.74-35.743 33.163-10.137 66.147-21.535 96.61-38.098 30.466-16.562 58.496-38.57 78.402-66.967 30.168-43.029 39.617-99.134 28.77-150.55-10.847-51.419-41.079-97.895-81.361-131.64-54.481-45.639-127.61-68.217-198.37-61.537-41.979 3.9621-83.065 17.934-118.35 41.014-35.287 23.081-64.665 55.287-83.745 92.89z" fill="url(#g)"/>
<path opacity=".526" style="color:#000000;image-rendering:auto;color-rendering:auto;shape-rendering:auto" d="m3350.5 2523.5c-9.0217 0.03-18.055 2.7288-26.75 5.1226-19.228 5.2934-37.265 12.135-51.754 25.84-14.488 13.704-26.058 30.317-35.219 48.031-13.25 25.62-21.689 54.463-19.063 83.188 1.3132 14.362 5.4229 28.55 12.594 41.062 15.756 23.617 16.094 29.466 41.978 36.056 7.7257-41.281 32.424-81.127 49.749-113.36 13.864-25.604 29.233-48.486 49.383-69.505 14.991-12.851 26.082-28.738 45.597-32.984-8.6387-8.4309-17.44-15.097-28.738-19.375-10.844-4.1058-26.178-4.115-37.777-4.0761z" transform="matrix(.85972 0 0 .94116 -2576.2 -2112.4)" filter="url(#af)"/>
<path d="m387.59 82.945c0.84268 8.7466 2.8342 36.772 4.25 67.287 1.515 32.651 1.9044 56.379 2.1459 68.356-5.6713 5.5709-13.447 9.7756-21.267 11.237-7.7251 1.4434-15.108 0.10302-19.045-5.2474 4.9047-18.031 11.164-41.708 16.236-73.612 4.6558-29.287 6.5979-56.271 6.5234-64.764-0.0803-9.1878 0.0465-19.117 0.3791-29.749-30.364 24.2-63.397 48.784-97.663 67.682-33.676 14.575-64.915 22.984-87.431 25.621-22.367 2.6194-33.758-0.59078-28.547-9.2332 5.6681-9.4 19.206-17.679 37.012-26.191 16.736-8.0001 41.13-17.881 63.368-27.597 45.771-13.165 81.96-25.401 120.5-43.78 1.2281 14.365 2.4153 28.391 3.5327 39.989z" fill="#2d2d2d"/>
<path opacity=".524" d="m3298.6 2599.4c-19.451 38.326-28.932 81.264-30.773 124.2-1.8408 42.94 3.7892 85.955 13.338 127.86 13.277 58.265 34.404 115.25 67.45 165.04 6.1591 9.2799 12.72 18.293 19.657 27.007 34.477-25.703 72.279-46.941 112.16-63.016 39.119-15.766 80.033-26.519 120.37-38.848 36.044-11.018 71.892-23.406 105.01-41.408 33.114-18.002 63.577-41.922 85.214-72.783 32.789-46.767 43.06-107.75 31.27-163.63-11.789-55.887-44.649-106.4-88.433-143.08-59.215-49.605-138.7-74.142-215.6-66.884-45.626 4.3064-90.284 19.492-128.64 44.578-38.354 25.086-70.281 60.091-91.021 100.96z" transform="matrix(.92006 0 0 .92006 -2782.7 -2059.4)" filter="url(#ae)" fill="url(#f)"/>
<ellipse opacity=".374" style="color:#000000;image-rendering:auto;color-rendering:auto;shape-rendering:auto" rx="48" transform="matrix(.52111 -.059706 .059996 .58555 -12.558 -15.538)" ry="29" filter="url(#ac)" cy="530.43" cx="1086" fill="url(#m)"/>
<path d="m676.82 71.492c-4.7707 11.083-19.898 44.695-37.582 82.03-18.857 39.811-33.533 69.071-40.916 83.89-8.3233 3.8891-18.151 5.707-26.055 4.1006-7.8792-1.6015-13.591-6.5868-13.029-16.268 17.786-23.718 40.518-54.07 66.769-93.82 24.097-36.486 43.217-69.269 49.4-81.39 7.84-15.375 16.68-32.074 26.49-50.032 31.272 58.514 71.693 112.05 118.33 164.27 31.101 38.814 49.984 58.508 69.949 82.646 16.131 19.5 22.992 31.206 11.099 29.972-23.94-2.48-68.49-35.9-112.27-87.49-36.3-50.83-66.25-115.02-87.44-174.6-8.7 19.865-17.83 40.605-24.75 56.694z" fill="#2d2d2d"/>
<path opacity=".504" style="color:#000000;image-rendering:auto;color-rendering:auto;shape-rendering:auto" d="m3591.5 2545.8c24.072-0.9035 48.2 7.774 66.851 23.019s31.83 36.813 37.905 60.123c5.8774 22.551 5.2426 46.549-0.161 69.218-5.4035 22.67-15.464 44.064-28.039 63.685-18.186 28.378-42.448 53.799-73.052 67.924-15.302 7.0625-32.044 11.183-48.896 11.237-16.853 0.054-33.801-4.031-48.404-12.444-15.767-9.0833-28.513-23.057-37.01-39.148-8.4972-16.091-12.829-34.233-13.538-52.416-1.4165-36.365 11.399-72.011 29.129-103.79 12.283-22.019 27.204-42.911 46.553-59.077s43.466-27.384 68.662-28.33z" transform="matrix(.92006 0 0 .92006 -2782.7 -2059.4)" filter="url(#ah)"/>
<path style="color:#000000;shape-rendering:auto;color-rendering:auto;image-rendering:auto" d="m518.05 276.48c22.147-0.83129 44.347 7.1525 61.508 21.179 17.16 14.026 29.285 33.87 34.875 55.316 5.4076 20.749 4.8235 42.828-0.14807 63.682-4.9716 20.857-14.228 40.542-25.797 58.595-16.732 26.11-39.055 49.498-67.211 62.496-14.078 6.4979-29.482 10.289-44.987 10.339s-31.099-3.7088-44.534-11.449c-14.507-8.357-26.233-21.214-34.051-36.018-7.8181-14.804-11.804-31.496-12.456-48.226-1.3033-33.458 10.488-66.252 26.8-95.494 11.301-20.259 25.029-39.48 42.831-54.354s39.991-25.195 63.171-26.065z" fill="url(#j)"/>
<path opacity=".614" d="m522.93 301.94c-0.8532 0.0111-1.7074 0.0477-2.559 0.0865-14.275 0.6513-28.315 5.1286-40.482 12.622-7.449 4.5877-14.194 10.308-20.04 16.82 13.395-5.1338 27.719-7.8751 42.064-8.6256 16.958-0.88751 34.382 1.0352 49.741 8.2803 7.6792 3.6227 14.758 8.5768 20.557 14.778 5.7993 6.2014 10.284 13.677 12.679 21.823 0.17941 0.61002 0.3333 1.225 0.48887 1.8401 1.7109-8.932 1.6272-18.211-0.92006-26.912-3.8317-13.089-13.143-24.273-24.842-31.282-10.968-6.5711-23.89-9.5936-36.687-9.4308z" fill="url(#v)"/>
<path style="color:#000000;shape-rendering:auto;color-rendering:auto;image-rendering:auto" d="m299.46 260.14c-8.3007 0.0279-16.611 1.1615-24.611 3.3639-17.691 4.8702-33.794 14.763-47.124 27.372s-23.974 27.893-32.403 44.192c-12.191 23.572-19.955 50.11-17.538 76.536 1.2082 13.214 4.9893 26.267 11.587 37.78s16.059 21.445 27.544 28.09c5.6236 3.2539 11.685 5.6933 17.97 7.3315 8.0042 7.1926 29.124-66.432 44.594-101.92 18.948-43.476 57.309-80.344 79.21-99.366-7.9484-7.7571-17.523-13.89-27.918-17.826-9.9773-3.7776-20.639-5.5849-31.311-5.5491z" fill="url(#i)"/>
<path opacity=".626" style="color:#000000;image-rendering:auto;color-rendering:auto;shape-rendering:auto" d="m280.74 290.55c-4.544-0.0186-9.1058 0.57293-13.485 1.7826-9.757 2.6955-18.576 8.2821-25.819 15.354-5.4229 5.2945-9.9767 11.42-13.858 17.941 8.0158-5.8009 16.925-10.319 26.452-12.938 13.914-3.8266 29.07-3.4874 42.582 1.5814 5.1918 1.9477 10.12 4.5908 14.606 7.8489 2.718-3.3942 5.5644-6.6752 8.539-9.8616-4.9359-8.3815-12.845-14.964-21.909-18.516-5.438-2.1317-11.265-3.1682-17.107-3.1915z" fill="url(#u)"/>
<path filter="url(#ag)" fill="url(#o)" d="m3427.6 2548.5c-121.44 141.94-156.59 335.9-65.761 473.76 7.4481-187.38 70.726-348.43 65.761-473.76z" transform="matrix(.92006 0 0 .92006 -2782.7 -2059.4)"/>
<path opacity=".366" d="m363.52 283.51c-168.77 130.59-107.27 377.13-60.5 435.89-85.15-209.2-3.01-316.89 60.5-435.89z" fill="url(#p)"/>
<ellipse opacity=".476" style="color:#000000;image-rendering:auto;color-rendering:auto;shape-rendering:auto" rx="48" transform="matrix(.27439 .087541 -.42982 .38635 304.92 -78.848)" ry="29" filter="url(#ab)" cy="530.43" cx="1086" fill="url(#l)"/>
<path opacity=".222" d="m611.71 1036.1c152.47 1.8152 510.06 19.967 658.9 56.27-174.34 199.97-479.81 106.17-658.9-56.27z" transform="matrix(.92006 0 0 .92006 -504.97 -237.85)" filter="url(#z)" fill="url(#k)"/>
<path style="color-rendering:auto;color:#000000;isolation:auto;mix-blend-mode:normal;paint-order:normal;shape-rendering:auto;solid-color:#000000;image-rendering:optimizeQuality" d="m534.97 371.87c-0.69238 0.007-1.3873 0.0309-2.082 0.0742-19.482 0.014-36.22 14.548-44.123 31.553-5.562 11.457-7.7311 24.365-6.4375 37.023 1.0395 23.19 15.563 46.582 38.055 54.301 15.326 5.2254 32.968 1.0098 44.836-9.8437 29.678-25.668 28.702-78.061-1.7558-102.71-8.044-6.5127-18.107-10.493-28.492-10.395z" fill="#1d1d1d"/>
<path style="color-rendering:auto;color:#000000;isolation:auto;mix-blend-mode:normal;paint-order:normal;shape-rendering:auto;solid-color:#000000;image-rendering:optimizeQuality" d="m259.87 348.2c-0.5132-0.0142-1.0282-0.0121-1.5449 0.004-15.474 0.40709-27.892 13.082-32.412 27.182-3.3078 10.41-2.6417 22.001 0.81836 32.279 4.7315 11.359 14.838 21.746 27.502 23.279 3.2573-0.0516 8.7528 1.6901 9.1855-2.9785 6.3919-19.674 14.735-38.6 23.248-57.41 2.6993-5.5465-3.0353-9.7282-6.4102-13.178-5.4345-5.4009-12.689-8.9649-20.387-9.1777z" fill="#1d1d1d"/>
<path opacity=".324" style="color-rendering:auto;color:#000000;isolation:auto;mix-blend-mode:normal;paint-order:normal;shape-rendering:auto;solid-color:#000000;image-rendering:auto" d="m258.37 348.84c-18.258 0.42705-33.4 17.771-34.203 39.662-0.0413 1.118-0.0493 2.2184-0.0156 3.3164 17.223-14.753 38.911-24.284 62.572-26.277-5.9598-9.7863-15.55-16.285-26.574-16.689h-0.002c-0.59507-0.0218-1.1884-0.0255-1.7773-0.0117z" filter="url(#filter1858-8)" fill="url(#q)"/>
<path opacity=".312" style="color-rendering:auto;color:#000000;isolation:auto;mix-blend-mode:normal;paint-order:normal;shape-rendering:auto;solid-color:#000000;image-rendering:auto" d="m534.49 372.23c-28.709 0-51.982 27.803-51.982 62.105 0 3.3471 0.23344 6.6307 0.66016 9.834 18.305-24.336 52.158-40.656 90.885-40.656 1.8766 0 3.7549 0.0115 5.6074 0.0879-8.95-18.736-25.82-31.369-45.17-31.369v-0.002z" filter="url(#filter1858-8)" fill="url(#d)"/>
</svg>
