<svg xmlns:rdf="http://www.w3.org/1999/02/22-rdf-syntax-ns#" xmlns="http://www.w3.org/2000/svg" version="1.1" xmlns:cc="http://creativecommons.org/ns#" xmlns:dc="http://purl.org/dc/elements/1.1/" viewBox="0 0 154 55">
<g transform="translate(-169 -368.36)">
<g transform="translate(-.50001 -.018948)">
<g transform="matrix(1.0148 0 0 1.0148 -3.1497 -6.3616)" fill="#c00">
<path style="color:#000000;text-indent:0;block-progression:tb;text-decoration-line:none;text-transform:none" d="m170.14 369.68v11.553h20.871c4.4328 0 6.8639 0.98747 8.029 1.9948h0.0166l0.0166 0.0166c1.28 1.0912 1.895 2.23 1.895 5.12 0 1.4924-0.23164 2.6661-0.61506 3.6571v0.0332l-0.0166 0.0166c-0.32822 0.87063-0.74934 1.4688-1.413 2.0613l-0.0166 0.0166-0.0166 0.0333c-0.46525 0.42458-1.7827 1.1932-2.9091 1.5792-1.3505 0.46282-3.0657 0.68157-4.9704 0.68157h-1.0805l-19.807 0.0166v26.581h12.966v-15.044h6.841 0.74805c2.0969 0.90071 4.0149 2.2385 5.5522 3.9065 2.0328 2.2056 3.452 5.039 4.0228 7.9958 0.19899 1.0306 0.29888 2.0922 0.29922 3.1418l7.2145-0.0166v0.0166h7.9792c0.00016-1.6348-0.23172-3.2611-0.66492-4.8374-1.5154-5.514-5.5502-10.016-10.772-12.185 1.8367-0.7528 3.6325-1.7506 5.3028-3.175h0.0166c2.0759-1.7498 3.7322-4.0014 4.7543-6.5163l0.0166-0.0499c1.017-2.4802 1.4961-5.1716 1.4961-7.9127 0-5.4243-2.2331-10.718-6.3833-14.03-4.2648-3.4366-9.8423-4.6545-16.224-4.6545h-2.2774z"/>
<path style="color:#000000;text-indent:0;block-progression:tb;text-decoration-line:none;text-transform:none" d="m218.27 369.68v11.553h14.878c3.0895 0 5.9398 0.30459 8.3116 1.1304 2.0657 0.71927 3.8394 1.6736 5.0535 2.8426 1.1188 1.0774 2.1858 2.7022 2.8426 4.4218 0.67761 1.7736 1.0317 4.124 1.0306 6.533 0 2.3193-0.34865 4.6263-1.014 6.4-0.67302 1.7944-1.7494 3.4753-2.8924 4.6213-1.2767 1.2799-3.076 2.3286-5.0867 3.0753-2.3462 0.87128-5.1226 1.2235-8.0623 1.2135h-2.294v-15.011h-12.966v26.581h12.966 2.9922c4.239 0.0144 8.7723-0.38928 13.265-1.8784 3.4187-1.1331 6.9902-2.8266 10.074-5.5854 2.7201-2.4337 4.8126-5.4418 6.2005-8.7438 1.4834-3.5292 1.9932-7.2047 1.9948-10.656v-0.0166c0.00015-3.4841-0.49005-7.2399-2.0447-10.872-1.4099-3.2939-3.5469-6.2614-6.3002-8.6275-3.1597-2.7152-6.7479-4.2527-10.074-5.2862-4.5126-1.4022-9.0046-1.6956-13.149-1.6956h-0.84779z"/>
<path style="color:#000000;text-indent:0;block-progression:tb;text-decoration-line:none;text-transform:none" d="m294.81 382.25c7.8636 0 14.097 6.2497 14.097 14.113 0 7.8636-6.233 14.113-14.097 14.113-7.8634 0-14.113-6.2496-14.113-14.113s6.2497-14.113 14.113-14.113zm0-12.966c-14.875 0-27.079 12.204-27.079 27.079 0 14.876 12.204 27.079 27.079 27.079 14.876 0 27.063-12.204 27.063-27.079s-12.187-27.079-27.063-27.079z"/>
</g>
</g>
</g>
</svg>
